<svg xmlns="http://www.w3.org/2000/svg" width="1120" height="620" viewBox="0 0 1120 620">
<rect width="100%" height="100%" fill="#f8fafc"/>
<rect x="92" y="78" width="990" height="456" fill="#ffffff" stroke="#cbd5e1"/>
<text x="560.0" y="34" text-anchor="middle" font-family="Arial, sans-serif" font-size="21" font-weight="700" fill="#1e293b">Normalised Efficiency - 13 deg Tilt - Midday Session</text>
<text x="560.0" y="58" text-anchor="middle" font-family="Arial, sans-serif" font-size="12" fill="#475569">2272 readings from 11:46:41 to 12:51:06</text>
<line x1="92" y1="534.00" x2="1082" y2="534.00" stroke="#cbd5e1" stroke-dasharray="5 5" opacity="0.75"/>
<text x="80" y="538.00" text-anchor="end" font-family="Arial, sans-serif" font-size="12" fill="#475569">0.000</text>
<line x1="92" y1="442.80" x2="1082" y2="442.80" stroke="#cbd5e1" stroke-dasharray="5 5" opacity="0.75"/>
<text x="80" y="446.80" text-anchor="end" font-family="Arial, sans-serif" font-size="12" fill="#475569">0.000</text>
<line x1="92" y1="351.60" x2="1082" y2="351.60" stroke="#cbd5e1" stroke-dasharray="5 5" opacity="0.75"/>
<text x="80" y="355.60" text-anchor="end" font-family="Arial, sans-serif" font-size="12" fill="#475569">0.001</text>
<line x1="92" y1="260.40" x2="1082" y2="260.40" stroke="#cbd5e1" stroke-dasharray="5 5" opacity="0.75"/>
<text x="80" y="264.40" text-anchor="end" font-family="Arial, sans-serif" font-size="12" fill="#475569">0.001</text>
<line x1="92" y1="169.20" x2="1082" y2="169.20" stroke="#cbd5e1" stroke-dasharray="5 5" opacity="0.75"/>
<text x="80" y="173.20" text-anchor="end" font-family="Arial, sans-serif" font-size="12" fill="#475569">0.002</text>
<line x1="92" y1="78.00" x2="1082" y2="78.00" stroke="#cbd5e1" stroke-dasharray="5 5" opacity="0.75"/>
<text x="80" y="82.00" text-anchor="end" font-family="Arial, sans-serif" font-size="12" fill="#475569">0.002</text>
<line x1="92.00" y1="78" x2="92.00" y2="534" stroke="#e2e8f0" stroke-dasharray="4 6"/>
<text x="92.00" y="568" text-anchor="middle" font-family="Arial, sans-serif" font-size="12" fill="#475569">11:46:41</text>
<line x1="257.00" y1="78" x2="257.00" y2="534" stroke="#e2e8f0" stroke-dasharray="4 6"/>
<text x="257.00" y="568" text-anchor="middle" font-family="Arial, sans-serif" font-size="12" fill="#475569">11:57:25</text>
<line x1="422.00" y1="78" x2="422.00" y2="534" stroke="#e2e8f0" stroke-dasharray="4 6"/>
<text x="422.00" y="568" text-anchor="middle" font-family="Arial, sans-serif" font-size="12" fill="#475569">12:08:09</text>
<line x1="587.00" y1="78" x2="587.00" y2="534" stroke="#e2e8f0" stroke-dasharray="4 6"/>
<text x="587.00" y="568" text-anchor="middle" font-family="Arial, sans-serif" font-size="12" fill="#475569">12:18:53</text>
<line x1="752.00" y1="78" x2="752.00" y2="534" stroke="#e2e8f0" stroke-dasharray="4 6"/>
<text x="752.00" y="568" text-anchor="middle" font-family="Arial, sans-serif" font-size="12" fill="#475569">12:29:37</text>
<line x1="917.00" y1="78" x2="917.00" y2="534" stroke="#e2e8f0" stroke-dasharray="4 6"/>
<text x="917.00" y="568" text-anchor="middle" font-family="Arial, sans-serif" font-size="12" fill="#475569">12:40:21</text>
<line x1="1082.00" y1="78" x2="1082.00" y2="534" stroke="#e2e8f0" stroke-dasharray="4 6"/>
<text x="1082.00" y="568" text-anchor="middle" font-family="Arial, sans-serif" font-size="12" fill="#475569">12:51:06</text>
<path d="M 92.00 412.77 L 92.26 411.28 L 92.77 457.27 L 93.02 409.29 L 93.54 455.53 L 93.79 400.78 L 94.31 463.93 L 94.56 452.33 L 95.07 534.00 L 95.33 534.00 L 95.84 534.00 L 96.10 534.00 L 96.61 534.00 L 96.87 534.00 L 97.38 534.00 L 97.64 534.00 L 98.15 534.00 L 98.40 534.00 L 98.92 534.00 L 99.17 534.00 L 99.68 534.00 L 99.94 534.00 L 100.45 534.00 L 100.97 534.00 L 101.22 534.00 L 101.73 534.00 L 101.99 534.00 L 102.50 534.00 L 102.76 534.00 L 103.27 534.00 L 103.53 534.00 L 104.04 534.00 L 104.29 534.00 L 104.81 534.00 L 105.06 534.00 L 105.58 534.00 L 105.83 534.00 L 106.34 534.00 L 106.60 534.00 L 107.11 534.00 L 107.37 534.00 L 107.88 534.00 L 108.14 534.00 L 108.65 534.00 L 108.91 534.00 L 109.42 534.00 L 109.67 534.00 L 110.19 301.17 L 110.44 329.12 L 110.95 372.25 L 111.21 303.22 L 111.72 239.43 L 111.98 253.19 L 112.49 189.33 L 112.75 258.43 L 113.26 275.15 L 113.52 317.70 L 114.03 313.59 L 114.28 333.77 L 114.80 328.49 L 115.05 350.30 L 115.57 359.98 L 115.82 367.07 L 116.33 356.31 L 116.59 357.91 L 117.10 348.65 L 117.36 376.00 L 117.87 420.88 L 118.13 349.57 L 118.64 316.51 L 119.15 445.08 L 119.41 443.02 L 119.92 445.08 L 120.18 442.27 L 120.69 440.63 L 120.94 438.84 L 121.46 436.73 L 121.71 444.40 L 122.23 443.97 L 122.48 444.08 L 122.99 435.83 L 123.25 436.59 L 123.76 437.61 L 124.02 438.28 L 124.53 439.07 L 124.79 439.70 L 125.30 440.59 L 125.55 424.20 L 126.07 425.54 L 126.32 426.89 L 126.84 428.19 L 127.09 428.79 L 127.60 428.22 L 127.86 428.77 L 128.37 413.35 L 128.63 413.35 L 129.14 413.35 L 129.40 413.35 L 129.91 413.35 L 130.17 405.41 L 130.68 405.41 L 130.93 405.41 L 131.45 405.41 L 131.70 405.83 L 132.21 405.83 L 132.47 405.83 L 132.98 405.83 L 133.24 405.83 L 133.75 389.55 L 134.01 413.76 L 134.52 413.76 L 134.78 413.76 L 135.29 413.76 L 135.80 413.76 L 136.06 413.76 L 136.57 405.83 L 136.83 405.83 L 137.34 405.83 L 137.59 406.25 L 138.11 406.25 L 138.36 406.25 L 138.87 406.25 L 139.13 406.25 L 139.64 406.25 L 139.90 406.25 L 140.41 406.25 L 140.67 390.38 L 141.18 390.38 L 141.44 390.38 L 141.95 406.25 L 142.20 406.25 L 142.72 406.25 L 142.97 406.25 L 143.49 414.60 L 143.74 414.60 L 144.25 414.60 L 144.51 414.60 L 145.02 414.60 L 145.28 414.60 L 145.79 414.60 L 146.05 430.46 L 146.56 430.46 L 146.82 430.46 L 147.33 430.46 L 147.58 430.88 L 148.10 446.75 L 148.35 446.75 L 148.86 446.75 L 149.12 446.75 L 149.63 446.75 L 149.89 430.88 L 150.40 494.34 L 150.66 430.88 L 151.17 430.88 L 151.68 430.88 L 151.94 430.88 L 152.45 430.88 L 152.71 430.88 L 153.22 430.88 L 153.47 415.43 L 153.99 494.34 L 154.24 510.20 L 154.76 510.20 L 155.01 517.36 L 155.52 511.41 L 155.78 518.14 L 156.29 517.69 L 156.55 511.33 L 157.06 534.00 L 157.32 534.00 L 157.83 534.00 L 158.09 534.00 L 158.60 534.00 L 158.85 511.91 L 159.37 516.62 L 159.62 510.20 L 160.13 510.20 L 160.39 510.20 L 160.90 510.20 L 161.16 510.20 L 161.67 510.20 L 161.93 517.93 L 162.44 515.91 L 162.70 512.54 L 163.21 512.69 L 163.46 512.39 L 163.98 515.15 L 164.23 518.14 L 164.75 517.57 L 165.00 512.61 L 165.51 534.00 L 165.77 534.00 L 166.28 534.00 L 166.79 534.00 L 167.05 534.00 L 167.56 534.00 L 167.82 534.00 L 168.33 534.00 L 168.59 534.00 L 169.10 534.00 L 169.36 534.00 L 169.87 534.00 L 170.12 534.00 L 170.64 534.00 L 170.89 534.00 L 171.40 534.00 L 171.66 534.00 L 172.17 534.00 L 172.43 534.00 L 172.94 534.00 L 173.20 534.00 L 173.71 534.00 L 173.97 534.00 L 174.48 534.00 L 174.73 534.00 L 175.25 534.00 L 175.50 534.00 L 176.02 534.00 L 176.27 534.00 L 176.78 534.00 L 177.04 534.00 L 177.55 534.00 L 177.81 534.00 L 178.32 534.00 L 178.58 534.00 L 179.09 534.00 L 179.35 534.00 L 179.86 534.00 L 180.11 534.00 L 180.63 534.00 L 180.88 534.00 L 181.39 534.00 L 181.91 534.00 L 182.16 534.00 L 182.68 534.00 L 182.93 534.00 L 183.44 534.00 L 183.70 534.00 L 184.21 534.00 L 184.47 534.00 L 184.98 534.00 L 185.24 534.00 L 185.75 534.00 L 186.01 534.00 L 186.52 534.00 L 186.77 534.00 L 187.29 534.00 L 187.54 534.00 L 188.05 534.00 L 188.31 534.00 L 188.82 534.00 L 189.08 534.00 L 189.59 534.00 L 189.85 534.00 L 190.36 496.92 L 190.62 510.62 L 191.13 510.62 L 191.38 510.62 L 191.90 509.68 L 192.15 515.42 L 192.66 510.39 L 192.92 495.17 L 193.43 495.17 L 193.69 495.17 L 194.20 495.17 L 194.46 495.17 L 194.97 495.17 L 195.23 495.17 L 195.74 510.62 L 195.99 510.62 L 196.51 517.76 L 197.02 512.07 L 197.28 517.29 L 197.79 516.39 L 198.04 512.43 L 198.56 507.84 L 198.81 534.00 L 199.32 534.00 L 199.58 511.23 L 200.09 534.00 L 200.35 534.00 L 200.86 534.00 L 201.12 534.00 L 201.63 534.00 L 201.89 534.00 L 202.40 534.00 L 202.65 534.00 L 203.17 534.00 L 203.42 534.00 L 203.94 534.00 L 204.19 534.00 L 204.70 534.00 L 204.96 534.00 L 205.47 534.00 L 205.73 534.00 L 206.24 534.00 L 206.50 534.00 L 207.01 534.00 L 207.27 534.00 L 207.78 534.00 L 208.03 534.00 L 208.55 534.00 L 208.80 534.00 L 209.31 534.00 L 209.57 534.00 L 210.08 534.00 L 210.34 534.00 L 210.85 534.00 L 211.36 534.00 L 211.62 534.00 L 212.13 534.00 L 212.39 534.00 L 212.90 534.00 L 213.16 534.00 L 213.67 534.00 L 213.92 534.00 L 214.44 534.00 L 214.69 534.00 L 215.21 534.00 L 215.46 534.00 L 215.97 534.00 L 216.23 534.00 L 216.74 534.00 L 217.00 534.00 L 217.51 534.00 L 217.77 534.00 L 218.28 534.00 L 218.54 534.00 L 219.05 534.00 L 219.30 534.00 L 219.82 534.00 L 220.07 534.00 L 220.58 534.00 L 220.84 534.00 L 221.35 534.00 L 221.61 534.00 L 222.12 534.00 L 222.38 534.00 L 222.89 534.00 L 223.15 534.00 L 223.66 534.00 L 223.91 486.04 L 224.43 493.89 L 224.68 465.44 L 225.20 432.97 L 225.71 417.10 L 225.96 409.59 L 226.48 432.97 L 226.73 485.27 L 227.24 483.94 L 227.50 493.75 L 228.01 487.69 L 228.27 478.20 L 228.78 466.21 L 229.04 432.97 L 229.55 409.59 L 229.81 393.72 L 230.32 409.59 L 230.57 409.59 L 231.09 409.59 L 231.34 417.10 L 231.86 417.10 L 232.11 417.10 L 232.62 417.10 L 232.88 432.97 L 233.39 432.97 L 233.65 409.59 L 234.16 417.52 L 234.42 409.59 L 234.93 409.59 L 235.18 409.59 L 235.70 432.97 L 235.95 510.62 L 236.47 510.62 L 236.72 534.00 L 237.23 534.00 L 237.49 534.00 L 238.00 534.00 L 238.26 534.00 L 238.77 534.00 L 239.03 534.00 L 239.54 534.00 L 239.80 534.00 L 240.31 534.00 L 240.82 534.00 L 241.08 534.00 L 241.59 534.00 L 241.84 534.00 L 242.36 534.00 L 242.61 534.00 L 243.13 534.00 L 243.38 534.00 L 243.89 534.00 L 244.15 534.00 L 244.66 534.00 L 244.92 534.00 L 245.43 507.13 L 245.69 515.68 L 246.20 517.56 L 246.46 510.62 L 246.97 510.62 L 247.22 510.62 L 247.74 515.93 L 247.99 534.00 L 248.50 534.00 L 248.76 534.00 L 249.27 534.00 L 249.53 534.00 L 250.04 534.00 L 250.30 534.00 L 250.81 534.00 L 251.07 534.00 L 251.58 534.00 L 251.83 534.00 L 252.35 534.00 L 252.60 534.00 L 253.12 534.00 L 253.37 534.00 L 253.88 534.00 L 254.14 534.00 L 254.65 534.00 L 255.16 534.00 L 255.42 534.00 L 255.93 534.00 L 256.19 534.00 L 256.70 534.00 L 256.96 534.00 L 257.47 534.00 L 257.73 534.00 L 258.24 534.00 L 258.49 534.00 L 259.01 534.00 L 259.26 534.00 L 259.77 534.00 L 260.03 534.00 L 260.54 534.00 L 260.80 534.00 L 261.31 534.00 L 261.57 534.00 L 262.08 534.00 L 262.34 534.00 L 262.85 534.00 L 263.10 534.00 L 263.62 534.00 L 263.87 534.00 L 264.39 534.00 L 264.64 534.00 L 265.15 534.00 L 265.41 534.00 L 265.92 534.00 L 266.18 534.00 L 266.69 534.00 L 266.95 534.00 L 267.46 534.00 L 267.72 534.00 L 268.23 534.00 L 268.48 534.00 L 269.00 534.00 L 269.51 534.00 L 269.76 534.00 L 270.28 486.88 L 270.53 490.49 L 271.05 503.85 L 271.30 502.85 L 271.81 490.21 L 272.07 494.67 L 272.58 504.42 L 272.84 500.53 L 273.35 500.62 L 273.61 495.09 L 274.12 488.96 L 274.38 534.00 L 274.89 534.00 L 275.14 534.00 L 275.66 534.00 L 275.91 534.00 L 276.42 534.00 L 276.68 534.00 L 277.19 534.00 L 277.45 534.00 L 277.96 534.00 L 278.22 534.00 L 278.73 534.00 L 278.99 534.00 L 279.50 534.00 L 279.75 534.00 L 280.27 534.00 L 280.52 534.00 L 281.03 534.00 L 281.29 534.00 L 281.80 534.00 L 282.06 534.00 L 282.57 534.00 L 282.83 534.00 L 283.34 534.00 L 283.85 534.00 L 284.11 534.00 L 284.62 534.00 L 284.88 534.00 L 285.39 534.00 L 285.65 534.00 L 286.16 534.00 L 286.41 534.00 L 286.93 534.00 L 287.18 534.00 L 287.69 534.00 L 287.95 534.00 L 288.46 534.00 L 288.72 534.00 L 289.23 534.00 L 289.49 534.00 L 290.00 534.00 L 290.26 534.00 L 290.77 534.00 L 291.02 534.00 L 291.54 534.00 L 291.79 534.00 L 292.31 534.00 L 292.56 534.00 L 293.07 534.00 L 293.33 534.00 L 293.84 534.00 L 294.10 534.00 L 294.61 534.00 L 294.87 534.00 L 295.38 534.00 L 295.64 534.00 L 296.15 534.00 L 296.40 534.00 L 296.92 534.00 L 297.17 534.00 L 297.68 534.00 L 298.20 534.00 L 298.45 534.00 L 298.97 534.00 L 299.22 534.00 L 299.73 534.00 L 299.99 534.00 L 300.50 534.00 L 300.76 534.00 L 301.27 534.00 L 301.53 534.00 L 302.04 534.00 L 302.29 534.00 L 302.81 534.00 L 303.06 534.00 L 303.58 534.00 L 303.83 534.00 L 304.34 534.00 L 304.60 534.00 L 305.11 534.00 L 305.37 534.00 L 305.88 534.00 L 306.14 534.00 L 306.65 534.00 L 306.91 534.00 L 307.42 534.00 L 307.67 534.00 L 308.19 534.00 L 308.44 534.00 L 308.95 534.00 L 309.21 534.00 L 309.72 534.00 L 309.98 534.00 L 310.49 534.00 L 310.75 534.00 L 311.26 534.00 L 311.52 534.00 L 312.03 534.00 L 312.28 534.00 L 312.80 534.00 L 313.31 534.00 L 313.57 534.00 L 314.08 534.00 L 314.33 534.00 L 314.85 534.00 L 315.10 534.00 L 315.61 534.00 L 315.87 534.00 L 316.38 534.00 L 316.64 534.00 L 317.15 534.00 L 317.41 534.00 L 317.92 534.00 L 318.18 534.00 L 318.69 534.00 L 318.94 534.00 L 319.46 534.00 L 319.71 534.00 L 320.23 534.00 L 320.48 534.00 L 320.99 534.00 L 321.25 534.00 L 321.76 534.00 L 322.02 534.00 L 322.53 534.00 L 322.79 534.00 L 323.30 534.00 L 323.55 534.00 L 324.07 534.00 L 324.32 534.00 L 324.84 534.00 L 392.71 534.00 L 392.71 534.00 L 392.71 534.00 L 392.71 534.00 L 392.71 534.00 L 392.71 534.00 L 392.71 534.00 L 392.71 534.00 L 392.71 534.00 L 392.71 534.00 L 392.97 534.00 L 392.97 534.00 L 392.97 534.00 L 392.97 534.00 L 392.97 534.00 L 392.97 534.00 L 392.97 534.00 L 392.97 534.00 L 392.97 534.00 L 392.97 534.00 L 392.97 534.00 L 392.97 534.00 L 392.97 534.00 L 392.97 534.00 L 392.97 534.00 L 392.97 534.00 L 392.97 534.00 L 392.97 534.00 L 392.97 534.00 L 392.97 534.00 L 392.97 534.00 L 392.97 534.00 L 392.97 534.00 L 392.97 534.00 L 392.97 534.00 L 392.97 534.00 L 392.97 534.00 L 392.97 534.00 L 392.97 534.00 L 392.97 534.00 L 392.97 473.49 L 392.97 474.66 L 392.97 468.90 L 392.97 440.89 L 392.97 408.34 L 392.97 454.78 L 392.97 456.83 L 392.97 450.18 L 392.97 408.34 L 392.97 408.34 L 392.97 461.43 L 392.97 490.44 L 392.97 444.57 L 392.97 431.72 L 392.97 408.34 L 392.97 377.02 L 392.97 377.02 L 392.97 377.02 L 392.97 392.47 L 392.97 408.34 L 392.97 447.58 L 392.97 468.38 L 392.97 457.00 L 392.97 491.26 L 392.97 487.63 L 393.23 483.84 L 393.23 483.20 L 393.23 486.45 L 393.23 487.31 L 393.23 485.18 L 393.23 479.92 L 393.23 478.41 L 393.23 482.79 L 393.23 474.30 L 393.23 463.19 L 393.23 466.35 L 393.23 456.88 L 393.23 450.83 L 393.23 445.38 L 393.23 416.27 L 393.23 392.89 L 393.23 377.02 L 393.23 377.02 L 393.23 377.02 L 393.23 392.89 L 393.23 416.27 L 393.23 432.13 L 393.23 416.27 L 393.23 534.00 L 393.23 534.00 L 393.23 534.00 L 393.23 534.00 L 393.48 534.00 L 393.74 534.00 L 394.25 534.00 L 394.51 534.00 L 395.02 534.00 L 395.28 534.00 L 395.79 534.00 L 396.04 534.00 L 396.56 534.00 L 396.81 534.00 L 397.32 534.00 L 397.58 534.00 L 398.09 534.00 L 398.35 534.00 L 398.86 534.00 L 399.12 534.00 L 399.63 534.00 L 399.89 534.00 L 400.40 534.00 L 400.65 534.00 L 401.17 534.00 L 401.42 534.00 L 401.94 534.00 L 402.19 534.00 L 402.70 534.00 L 402.96 534.00 L 403.47 534.00 L 403.98 534.00 L 404.24 534.00 L 404.75 534.00 L 405.01 534.00 L 405.52 534.00 L 405.78 534.00 L 406.29 534.00 L 406.55 534.00 L 407.06 534.00 L 407.31 534.00 L 407.83 534.00 L 408.08 534.00 L 408.60 534.00 L 408.85 534.00 L 409.36 534.00 L 409.62 534.00 L 410.13 534.00 L 410.39 534.00 L 410.90 534.00 L 411.16 534.00 L 411.67 534.00 L 411.92 534.00 L 412.44 534.00 L 412.69 534.00 L 413.21 534.00 L 413.46 534.00 L 413.97 534.00 L 414.23 534.00 L 414.74 534.00 L 415.00 534.00 L 415.51 534.00 L 415.77 534.00 L 416.28 534.00 L 416.54 534.00 L 417.05 534.00 L 417.30 534.00 L 417.82 534.00 L 418.07 534.00 L 418.58 534.00 L 418.84 534.00 L 419.35 534.00 L 419.87 534.00 L 420.12 534.00 L 420.63 534.00 L 420.89 534.00 L 421.40 534.00 L 421.66 534.00 L 422.17 534.00 L 422.43 534.00 L 422.94 534.00 L 423.20 534.00 L 423.71 534.00 L 423.96 534.00 L 424.48 534.00 L 424.73 534.00 L 425.24 534.00 L 425.50 534.00 L 426.01 534.00 L 426.27 534.00 L 426.78 534.00 L 427.04 534.00 L 427.55 534.00 L 427.81 534.00 L 428.32 534.00 L 428.57 534.00 L 429.09 534.00 L 429.34 534.00 L 429.86 534.00 L 430.11 534.00 L 430.62 534.00 L 430.88 534.00 L 431.39 534.00 L 431.65 534.00 L 432.16 534.00 L 432.42 534.00 L 432.93 534.00 L 433.18 534.00 L 433.70 534.00 L 433.95 534.00 L 434.47 534.00 L 434.98 534.00 L 435.23 534.00 L 435.75 534.00 L 436.00 534.00 L 436.51 534.00 L 436.77 534.00 L 437.28 534.00 L 437.54 534.00 L 438.05 534.00 L 438.31 534.00 L 438.82 534.00 L 439.08 534.00 L 439.59 534.00 L 439.84 534.00 L 440.36 534.00 L 440.61 534.00 L 441.13 534.00 L 441.38 534.00 L 441.89 534.00 L 442.15 534.00 L 442.66 534.00 L 442.92 534.00 L 443.43 534.00 L 443.69 534.00 L 444.20 534.00 L 444.46 534.00 L 444.97 534.00 L 445.22 534.00 L 445.74 534.00 L 445.99 534.00 L 446.50 534.00 L 446.76 534.00 L 447.27 534.00 L 447.53 534.00 L 448.04 534.00 L 448.30 534.00 L 448.81 534.00 L 449.07 534.00 L 449.58 534.00 L 449.83 534.00 L 450.35 534.00 L 450.86 534.00 L 451.12 534.00 L 451.63 534.00 L 451.88 534.00 L 452.40 534.00 L 452.65 534.00 L 453.16 534.00 L 453.42 534.00 L 453.93 534.00 L 454.19 534.00 L 454.70 534.00 L 454.96 534.00 L 455.47 534.00 L 455.73 534.00 L 456.24 456.17 L 456.49 461.65 L 457.01 457.97 L 457.26 468.81 L 457.77 470.54 L 458.03 464.05 L 458.54 534.00 L 458.80 534.00 L 459.31 534.00 L 459.57 534.00 L 460.08 534.00 L 460.34 534.00 L 460.85 534.00 L 461.10 534.00 L 461.62 534.00 L 461.87 534.00 L 462.39 534.00 L 462.64 534.00 L 463.15 534.00 L 463.41 534.00 L 463.92 534.00 L 464.18 452.51 L 464.69 461.91 L 464.95 488.75 L 465.46 447.20 L 465.72 451.88 L 466.23 449.49 L 466.74 439.94 L 467.00 434.58 L 467.51 456.82 L 467.76 446.77 L 468.28 438.24 L 468.53 448.82 L 469.05 466.48 L 469.30 476.06 L 469.81 480.84 L 470.07 477.36 L 470.58 485.77 L 470.84 485.68 L 471.35 489.58 L 471.61 493.03 L 472.12 470.80 L 472.38 534.00 L 472.89 534.00 L 473.14 534.00 L 473.66 534.00 L 473.91 534.00 L 474.42 534.00 L 474.68 534.00 L 475.19 534.00 L 475.45 534.00 L 475.96 534.00 L 476.22 534.00 L 476.73 534.00 L 476.99 534.00 L 477.50 534.00 L 477.75 534.00 L 478.27 534.00 L 478.52 534.00 L 479.03 534.00 L 479.29 534.00 L 479.80 534.00 L 480.06 534.00 L 480.57 534.00 L 480.83 534.00 L 481.34 534.00 L 481.85 534.00 L 482.11 534.00 L 482.62 534.00 L 482.88 534.00 L 483.39 534.00 L 483.65 534.00 L 484.16 534.00 L 484.41 534.00 L 484.93 534.00 L 485.18 534.00 L 485.69 534.00 L 485.95 534.00 L 486.46 534.00 L 486.72 534.00 L 487.23 534.00 L 487.49 534.00 L 488.00 534.00 L 488.26 534.00 L 488.77 534.00 L 489.02 534.00 L 489.54 534.00 L 489.79 534.00 L 490.31 534.00 L 490.56 534.00 L 491.07 534.00 L 491.33 534.00 L 491.84 534.00 L 492.10 534.00 L 492.61 534.00 L 492.87 534.00 L 493.38 534.00 L 493.64 534.00 L 494.15 534.00 L 494.40 534.00 L 494.92 534.00 L 495.17 534.00 L 495.68 534.00 L 495.94 534.00 L 496.45 534.00 L 496.71 534.00 L 497.22 534.00 L 497.48 534.00 L 497.99 534.00 L 498.50 534.00 L 498.76 534.00 L 499.27 534.00 L 499.53 534.00 L 500.04 534.00 L 500.29 534.00 L 500.81 534.00 L 501.06 534.00 L 501.58 534.00 L 501.83 534.00 L 502.34 534.00 L 502.60 534.00 L 503.11 534.00 L 503.37 534.00 L 503.88 534.00 L 504.14 534.00 L 504.65 534.00 L 504.91 534.00 L 505.42 534.00 L 505.67 534.00 L 506.19 534.00 L 506.44 534.00 L 506.95 534.00 L 507.21 464.50 L 507.72 489.31 L 507.98 487.85 L 508.49 407.50 L 508.75 336.11 L 509.26 336.11 L 509.52 336.11 L 510.03 336.11 L 510.28 336.11 L 510.80 336.11 L 511.05 336.11 L 511.57 351.98 L 511.82 336.11 L 512.33 351.98 L 512.59 351.98 L 513.10 351.98 L 513.36 351.98 L 513.87 351.98 L 514.38 351.98 L 514.64 351.98 L 515.15 351.98 L 515.41 351.98 L 515.92 351.98 L 516.18 351.98 L 516.69 351.98 L 516.94 351.98 L 517.46 391.64 L 517.71 391.64 L 518.23 391.64 L 518.48 391.64 L 518.99 391.64 L 519.25 391.64 L 519.76 391.64 L 520.02 407.50 L 520.53 407.50 L 520.79 407.50 L 521.30 407.50 L 521.55 407.50 L 522.07 431.30 L 522.32 431.30 L 522.84 431.30 L 523.09 431.30 L 523.60 431.30 L 523.86 431.30 L 524.37 431.30 L 524.63 431.30 L 525.14 431.30 L 525.40 431.30 L 525.91 431.30 L 526.17 431.30 L 526.68 431.30 L 526.93 431.30 L 527.45 431.30 L 527.70 431.72 L 528.21 431.72 L 528.47 431.72 L 528.98 431.72 L 529.50 431.72 L 529.75 431.72 L 530.26 431.72 L 530.52 431.72 L 531.03 431.72 L 531.29 431.72 L 531.80 431.72 L 532.06 447.58 L 532.57 447.58 L 532.83 447.58 L 533.34 447.58 L 533.59 447.58 L 534.11 455.51 L 534.36 455.51 L 534.87 455.51 L 535.13 455.51 L 535.64 455.51 L 535.90 455.51 L 536.41 455.51 L 536.67 455.51 L 537.18 455.51 L 537.44 455.51 L 537.95 455.51 L 538.20 455.51 L 538.72 455.51 L 538.97 455.51 L 539.49 455.51 L 539.74 455.51 L 540.25 455.51 L 540.51 448.00 L 541.02 510.62 L 541.28 510.62 L 541.79 510.62 L 542.05 510.62 L 542.56 510.62 L 542.82 510.62 L 543.33 510.62 L 543.58 510.62 L 544.10 510.62 L 544.61 510.62 L 544.86 510.62 L 545.38 510.62 L 545.63 510.62 L 546.14 510.62 L 546.40 510.62 L 546.91 510.62 L 547.17 510.62 L 547.68 510.62 L 547.94 510.62 L 548.45 510.62 L 548.71 510.62 L 549.22 510.62 L 549.47 518.55 L 549.99 518.55 L 550.24 509.56 L 550.76 511.71 L 551.01 514.11 L 551.52 518.55 L 551.78 518.55 L 552.29 517.96 L 552.55 515.70 L 553.06 515.48 L 553.32 518.55 L 553.83 518.55 L 554.09 518.55 L 554.60 518.55 L 554.85 518.55 L 555.37 518.55 L 555.62 517.63 L 556.13 534.00 L 556.39 534.00 L 556.90 534.00 L 557.16 534.00 L 557.67 534.00 L 557.93 534.00 L 558.44 534.00 L 558.95 534.00 L 559.21 534.00 L 559.72 534.00 L 559.98 534.00 L 560.49 534.00 L 560.75 534.00 L 561.26 534.00 L 561.51 534.00 L 562.03 534.00 L 562.28 534.00 L 562.79 534.00 L 563.05 534.00 L 563.56 534.00 L 563.82 534.00 L 564.33 534.00 L 564.59 534.00 L 565.10 534.00 L 565.36 534.00 L 565.87 534.00 L 566.12 534.00 L 566.64 534.00 L 566.89 534.00 L 567.40 534.00 L 567.66 534.00 L 568.17 534.00 L 568.43 534.00 L 568.94 534.00 L 569.20 534.00 L 569.71 534.00 L 569.97 534.00 L 570.48 534.00 L 570.73 534.00 L 571.25 534.00 L 571.50 534.00 L 572.02 534.00 L 572.27 534.00 L 572.78 534.00 L 573.30 534.00 L 573.55 534.00 L 574.06 534.00 L 574.32 534.00 L 574.83 534.00 L 575.09 534.00 L 575.60 534.00 L 575.86 534.00 L 576.37 534.00 L 576.63 534.00 L 577.14 534.00 L 577.39 534.00 L 577.91 534.00 L 578.16 534.00 L 578.68 504.66 L 578.93 513.17 L 579.44 516.52 L 579.70 513.96 L 580.21 511.65 L 580.47 512.02 L 580.98 514.91 L 581.24 510.62 L 581.75 510.62 L 582.01 510.62 L 582.52 510.62 L 582.77 510.62 L 583.29 510.62 L 583.54 510.62 L 584.05 510.62 L 584.31 510.62 L 584.82 517.46 L 585.08 515.00 L 585.59 534.00 L 585.85 534.00 L 586.36 534.00 L 586.62 506.58 L 587.13 505.13 L 587.64 506.74 L 587.90 511.30 L 588.41 515.16 L 588.66 518.48 L 589.18 511.04 L 589.43 511.04 L 589.95 511.04 L 590.20 511.04 L 590.71 511.04 L 590.97 511.04 L 591.48 511.04 L 591.74 518.55 L 592.25 518.55 L 592.51 518.55 L 593.02 511.04 L 593.28 511.04 L 593.79 518.55 L 594.04 518.55 L 594.56 518.55 L 594.81 518.55 L 595.32 518.55 L 595.58 517.98 L 596.09 534.00 L 596.35 534.00 L 596.86 534.00 L 597.12 534.00 L 597.63 534.00 L 597.89 513.61 L 598.40 518.55 L 598.65 518.55 L 599.17 518.55 L 599.42 518.55 L 599.94 518.55 L 600.19 518.55 L 600.70 518.55 L 600.96 518.55 L 601.47 518.55 L 601.98 518.55 L 602.24 518.55 L 602.75 518.55 L 603.01 518.55 L 603.52 518.55 L 603.78 518.55 L 604.29 518.55 L 604.55 518.55 L 605.06 518.55 L 605.31 518.55 L 605.83 518.55 L 606.08 518.55 L 606.60 518.55 L 606.85 518.55 L 607.36 518.55 L 607.62 518.55 L 608.13 518.55 L 608.39 518.55 L 608.90 518.55 L 609.16 518.55 L 609.67 518.55 L 609.92 518.55 L 610.44 518.55 L 610.69 518.55 L 611.21 518.55 L 611.46 518.55 L 611.97 518.55 L 612.23 518.55 L 612.74 518.55 L 613.00 518.55 L 613.51 518.55 L 613.77 518.55 L 614.28 518.55 L 614.54 518.55 L 615.05 518.55 L 615.56 518.55 L 615.82 518.55 L 616.33 518.55 L 616.58 518.55 L 617.10 518.55 L 617.35 518.55 L 617.87 518.55 L 618.12 518.55 L 618.63 518.55 L 618.89 518.55 L 619.40 518.55 L 619.66 518.55 L 620.17 518.55 L 620.43 518.55 L 620.94 518.55 L 621.20 518.55 L 621.71 518.55 L 621.96 518.55 L 622.48 518.55 L 622.73 518.55 L 623.24 518.55 L 623.50 518.55 L 624.01 518.55 L 624.27 518.55 L 624.78 518.55 L 625.04 518.55 L 625.55 518.55 L 625.81 518.55 L 626.32 518.55 L 626.57 518.55 L 627.09 518.55 L 627.34 518.55 L 627.86 518.55 L 628.37 518.55 L 628.62 518.55 L 629.14 518.55 L 629.39 518.55 L 629.90 518.55 L 630.16 518.97 L 630.67 518.97 L 630.93 518.97 L 631.44 518.97 L 631.70 518.97 L 632.21 518.97 L 632.47 518.97 L 632.98 518.97 L 633.23 518.97 L 633.75 518.97 L 634.00 518.97 L 634.51 518.97 L 634.77 518.97 L 635.28 518.97 L 635.54 518.97 L 636.05 518.97 L 636.31 518.97 L 636.82 518.97 L 637.08 518.97 L 637.59 518.97 L 637.84 518.97 L 638.36 518.97 L 638.61 518.97 L 639.13 518.97 L 639.38 518.97 L 639.89 518.97 L 640.15 518.97 L 640.66 518.97 L 641.17 518.97 L 641.43 518.97 L 641.94 518.97 L 642.20 518.97 L 642.71 518.97 L 642.97 518.97 L 643.48 518.97 L 643.74 518.97 L 644.25 518.97 L 644.50 518.97 L 645.02 518.97 L 645.27 518.97 L 645.79 518.97 L 646.04 518.97 L 646.55 518.97 L 646.81 518.97 L 647.32 518.97 L 647.58 518.97 L 648.09 518.97 L 648.35 518.97 L 648.86 518.97 L 649.12 518.97 L 649.63 518.97 L 649.88 518.97 L 650.40 518.97 L 650.65 518.97 L 651.16 518.97 L 651.42 518.97 L 651.93 518.97 L 652.19 518.97 L 652.70 518.97 L 652.96 518.97 L 653.47 518.97 L 653.98 518.97 L 654.24 518.97 L 654.75 518.97 L 655.01 518.97 L 655.52 518.97 L 655.77 518.97 L 656.29 518.97 L 656.54 518.97 L 657.06 518.97 L 657.31 518.97 L 657.82 518.97 L 658.08 518.97 L 658.59 518.97 L 658.85 518.97 L 659.36 518.97 L 659.62 518.97 L 660.13 518.97 L 660.39 518.97 L 660.90 518.97 L 661.15 518.97 L 661.67 518.97 L 661.92 518.97 L 662.43 518.97 L 662.69 518.97 L 663.20 518.97 L 663.46 518.97 L 663.97 518.97 L 664.23 518.97 L 664.74 518.97 L 665.00 518.97 L 665.51 518.97 L 665.76 518.97 L 666.28 518.97 L 666.79 518.97 L 667.05 518.97 L 667.56 518.97 L 667.81 518.97 L 668.33 518.97 L 668.58 518.97 L 669.09 518.97 L 669.35 518.97 L 669.86 518.97 L 670.12 518.97 L 670.63 518.97 L 670.89 518.97 L 671.40 518.97 L 671.66 518.97 L 672.17 518.97 L 672.42 518.97 L 672.94 518.97 L 673.19 518.97 L 673.71 518.97 L 673.96 518.97 L 674.47 518.97 L 674.73 518.97 L 675.24 518.97 L 675.50 518.97 L 676.01 518.97 L 676.27 518.97 L 676.78 518.97 L 677.03 518.97 L 677.55 518.97 L 677.80 518.97 L 678.32 518.97 L 678.83 518.97 L 679.08 518.97 L 679.60 518.97 L 679.85 518.97 L 680.36 518.97 L 680.62 518.97 L 681.13 518.97 L 681.39 518.97 L 681.90 518.97 L 682.16 518.97 L 682.67 518.97 L 682.93 518.97 L 683.44 518.97 L 683.69 518.97 L 684.21 518.97 L 684.46 518.97 L 684.98 518.97 L 685.23 518.97 L 685.74 518.97 L 686.00 518.97 L 686.51 518.97 L 686.77 518.97 L 687.28 518.97 L 687.54 518.97 L 688.05 518.97 L 688.31 518.97 L 688.82 518.97 L 689.07 518.97 L 689.59 518.97 L 689.84 518.97 L 690.35 518.97 L 690.61 518.97 L 691.12 518.97 L 691.64 518.97 L 691.89 518.97 L 692.40 518.97 L 692.66 518.97 L 693.17 518.97 L 693.43 518.97 L 693.94 518.97 L 694.20 518.97 L 694.71 518.97 L 694.97 518.97 L 695.48 518.97 L 695.73 518.97 L 696.25 518.97 L 696.50 518.97 L 697.01 518.97 L 697.27 518.97 L 697.78 518.97 L 698.04 518.97 L 698.55 518.97 L 698.81 518.97 L 699.32 518.97 L 699.58 518.97 L 700.09 518.97 L 700.34 518.97 L 700.86 518.97 L 701.11 518.97 L 701.62 518.97 L 701.88 518.97 L 702.39 518.97 L 702.65 518.97 L 703.16 518.97 L 703.67 518.97 L 703.93 518.97 L 704.44 518.97 L 704.70 518.97 L 705.21 518.97 L 705.47 518.97 L 705.98 518.97 L 706.24 518.97 L 706.75 518.97 L 707.00 518.97 L 707.52 518.97 L 707.77 518.97 L 708.28 518.97 L 708.54 518.97 L 709.05 518.97 L 709.31 518.97 L 709.82 518.97 L 710.08 518.97 L 710.59 518.97 L 710.85 518.97 L 711.36 518.97 L 711.61 518.97 L 712.13 518.97 L 712.38 518.97 L 712.90 518.97 L 713.15 518.97 L 713.66 518.97 L 713.92 518.97 L 714.43 518.97 L 714.69 518.97 L 715.20 518.97 L 715.71 518.97 L 715.97 518.97 L 716.48 518.97 L 716.74 518.97 L 717.25 518.97 L 717.51 518.97 L 718.02 518.97 L 718.27 518.97 L 718.79 518.97 L 719.04 518.97 L 719.55 518.97 L 719.81 518.97 L 720.32 518.97 L 720.58 518.97 L 721.09 518.97 L 721.35 518.97 L 721.86 518.97 L 722.12 518.97 L 722.63 518.97 L 722.88 518.97 L 723.40 518.97 L 723.65 518.97 L 724.17 518.97 L 724.42 518.97 L 724.93 518.97 L 725.19 518.97 L 725.70 518.97 L 725.96 518.97 L 726.47 518.97 L 726.73 518.97 L 727.24 518.97 L 727.75 518.97 L 728.01 518.97 L 728.52 518.97 L 728.78 518.97 L 729.29 518.97 L 729.54 518.97 L 730.06 518.97 L 730.31 518.97 L 730.83 518.97 L 731.08 518.97 L 731.59 518.97 L 731.85 518.97 L 732.36 518.97 L 732.62 518.97 L 733.13 518.97 L 733.39 518.97 L 733.90 518.97 L 734.16 518.97 L 734.67 518.97 L 734.92 518.97 L 735.44 518.97 L 735.69 518.97 L 736.20 518.97 L 736.46 518.97 L 736.97 518.97 L 737.23 518.97 L 737.74 518.97 L 738.00 518.97 L 738.51 518.97 L 738.77 518.97 L 739.28 518.97 L 739.79 518.97 L 740.05 518.97 L 740.56 518.97 L 740.82 518.97 L 741.33 518.97 L 741.58 518.97 L 742.10 518.97 L 742.35 518.97 L 742.86 518.97 L 743.12 518.97 L 743.63 518.97 L 743.89 518.97 L 744.40 518.97 L 744.66 518.97 L 745.17 518.97 L 745.43 518.97 L 745.94 518.97 L 746.19 518.97 L 746.71 518.97 L 746.96 518.97 L 747.47 518.97 L 747.73 518.97 L 748.24 518.97 L 748.50 518.97 L 749.01 518.97 L 749.27 518.97 L 749.78 518.97 L 750.04 518.97 L 750.55 518.97 L 750.80 518.97 L 751.32 518.97 L 751.83 518.97 L 752.09 518.97 L 752.60 518.97 L 752.85 518.97 L 753.37 518.97 L 753.62 518.97 L 754.13 518.97 L 754.39 518.97 L 754.90 518.97 L 755.16 518.97 L 755.67 518.97 L 755.93 518.97 L 756.44 518.97 L 756.70 518.97 L 757.21 518.97 L 757.46 518.97 L 757.98 518.97 L 758.23 518.97 L 758.75 518.97 L 759.00 518.97 L 759.51 518.97 L 759.77 518.97 L 760.28 518.97 L 760.54 518.97 L 761.05 518.97 L 761.31 518.97 L 761.82 518.97 L 762.08 518.97 L 762.59 518.97 L 762.84 518.97 L 763.36 518.97 L 763.87 518.97 L 764.12 518.97 L 764.64 518.97 L 764.89 518.97 L 765.40 518.97 L 765.66 518.97 L 766.17 518.97 L 766.43 518.97 L 766.94 518.97 L 767.20 518.97 L 767.71 518.97 L 767.97 518.97 L 768.48 518.97 L 768.73 518.97 L 769.25 518.97 L 769.50 518.97 L 770.02 518.97 L 770.27 518.97 L 770.78 518.97 L 771.04 518.97 L 771.55 518.97 L 771.81 518.97 L 772.32 518.97 L 772.58 518.97 L 773.09 518.97 L 773.35 518.97 L 773.86 518.97 L 774.11 518.97 L 774.63 518.97 L 774.88 518.97 L 775.39 518.97 L 775.91 518.97 L 776.16 518.97 L 776.68 518.97 L 776.93 518.97 L 777.44 518.97 L 777.70 518.97 L 778.21 518.97 L 778.47 518.97 L 778.98 518.97 L 779.24 518.97 L 779.75 518.97 L 780.01 518.97 L 780.52 518.97 L 780.77 518.97 L 781.29 518.97 L 781.54 518.97 L 782.05 518.97 L 782.31 518.97 L 782.82 518.97 L 783.08 518.97 L 783.59 518.97 L 783.85 518.97 L 784.36 518.97 L 784.62 518.97 L 785.13 518.97 L 785.38 518.97 L 785.90 518.97 L 786.15 518.97 L 786.66 518.97 L 786.92 518.97 L 787.43 518.97 L 787.95 518.97 L 788.20 518.97 L 788.71 518.97 L 788.97 518.97 L 789.48 518.97 L 789.74 518.97 L 790.25 518.97 L 790.51 518.97 L 791.02 518.97 L 791.28 518.97 L 791.79 518.97 L 792.04 518.97 L 792.56 518.97 L 792.81 518.97 L 793.32 518.97 L 793.58 518.97 L 794.09 518.97 L 794.35 518.97 L 794.86 518.97 L 795.12 518.97 L 795.63 518.97 L 795.89 518.97 L 796.40 518.97 L 796.65 518.97 L 797.17 518.97 L 797.42 518.97 L 797.94 518.97 L 798.19 518.97 L 798.70 518.97 L 799.22 518.97 L 799.47 518.97 L 799.98 518.97 L 800.24 518.97 L 800.75 518.97 L 801.01 518.97 L 801.52 518.97 L 801.78 518.97 L 802.29 518.97 L 802.55 518.97 L 803.06 518.97 L 803.31 518.97 L 915.25 534.00 L 915.25 534.00 L 915.25 534.00 L 915.25 517.60 L 915.25 518.97 L 915.25 518.97 L 915.25 518.97 L 915.25 518.97 L 915.25 518.97 L 915.25 518.97 L 915.25 518.97 L 915.25 518.97 L 915.25 518.97 L 915.25 518.97 L 915.25 518.97 L 915.25 518.97 L 915.25 518.97 L 915.25 518.97 L 915.25 518.97 L 915.25 518.97 L 915.25 518.97 L 915.51 518.97 L 915.51 518.97 L 915.51 518.97 L 915.51 518.97 L 915.51 518.97 L 915.51 518.97 L 915.51 518.97 L 915.51 518.97 L 915.51 518.97 L 915.51 518.97 L 915.51 518.97 L 915.51 518.97 L 915.51 518.97 L 915.51 518.97 L 915.51 518.97 L 915.51 534.00 L 915.51 534.00 L 915.51 534.00 L 915.51 534.00 L 915.51 534.00 L 915.51 534.00 L 915.51 534.00 L 915.51 534.00 L 915.51 534.00 L 915.51 534.00 L 915.51 534.00 L 915.51 534.00 L 915.51 534.00 L 915.51 534.00 L 915.51 534.00 L 915.51 534.00 L 915.51 534.00 L 915.51 534.00 L 915.51 534.00 L 915.51 534.00 L 915.51 534.00 L 915.51 534.00 L 915.51 534.00 L 915.51 534.00 L 915.51 534.00 L 915.51 534.00 L 915.51 534.00 L 915.51 534.00 L 915.51 534.00 L 915.51 534.00 L 915.51 534.00 L 915.51 534.00 L 915.51 534.00 L 915.51 534.00 L 915.51 534.00 L 915.51 534.00 L 915.51 534.00 L 915.51 534.00 L 915.51 534.00 L 915.51 534.00 L 915.51 534.00 L 915.51 534.00 L 915.76 534.00 L 915.76 534.00 L 915.76 534.00 L 915.76 534.00 L 915.76 534.00 L 915.76 534.00 L 915.76 534.00 L 915.76 534.00 L 915.76 534.00 L 915.76 534.00 L 915.76 458.02 L 915.76 458.02 L 915.76 450.50 L 916.02 450.50 L 916.53 450.50 L 916.79 450.50 L 917.04 344.46 L 917.55 344.04 L 917.81 344.04 L 918.32 359.49 L 918.58 359.49 L 919.09 435.47 L 919.35 435.06 L 919.86 435.06 L 920.12 435.06 L 920.63 435.06 L 920.88 435.06 L 921.40 435.06 L 921.65 435.06 L 922.17 435.06 L 922.68 435.06 L 922.93 435.06 L 923.45 435.06 L 923.70 435.06 L 924.21 435.06 L 924.47 496.01 L 924.98 496.01 L 925.24 496.01 L 925.75 496.01 L 926.01 496.01 L 926.52 496.01 L 926.78 496.01 L 927.29 496.01 L 927.54 496.01 L 928.06 458.02 L 928.31 458.02 L 928.83 458.02 L 929.08 458.02 L 929.59 458.02 L 929.85 458.02 L 930.36 458.02 L 930.62 458.02 L 931.13 458.02 L 931.39 458.02 L 931.90 458.02 L 932.16 458.02 L 932.67 458.02 L 932.92 511.04 L 933.44 480.98 L 933.69 511.04 L 934.20 511.04 L 934.46 473.05 L 934.97 473.05 L 935.23 473.05 L 935.74 473.05 L 936.25 473.05 L 936.51 473.05 L 937.02 473.05 L 937.28 473.05 L 937.79 473.05 L 938.05 473.05 L 938.56 473.05 L 938.82 473.05 L 939.33 473.05 L 939.58 473.05 L 940.10 473.05 L 940.35 496.01 L 940.86 496.01 L 941.12 496.01 L 941.63 496.01 L 941.89 511.04 L 942.40 511.04 L 942.66 511.04 L 943.17 511.04 L 943.43 511.04 L 943.94 511.04 L 944.19 511.04 L 944.71 511.04 L 944.96 511.04 L 945.47 511.04 L 945.73 511.04 L 946.24 511.04 L 946.50 511.04 L 947.01 511.04 L 947.27 511.46 L 947.78 511.46 L 948.04 511.46 L 948.55 511.46 L 949.06 511.46 L 949.32 511.46 L 949.83 511.46 L 950.09 511.46 L 950.60 511.46 L 950.85 511.46 L 951.37 511.46 L 951.62 511.46 L 952.13 511.46 L 952.39 511.46 L 952.90 511.46 L 953.16 511.46 L 953.67 511.46 L 953.93 511.46 L 954.44 511.46 L 954.70 511.46 L 955.21 511.46 L 955.46 511.46 L 955.98 511.46 L 956.23 511.46 L 956.75 511.46 L 957.00 511.46 L 957.51 511.46 L 957.77 511.46 L 958.28 511.46 L 958.54 511.46 L 959.05 511.46 L 959.31 511.46 L 959.82 511.46 L 960.08 511.46 L 960.59 511.46 L 960.84 511.46 L 961.36 511.46 L 961.87 511.46 L 962.12 511.46 L 962.64 511.46 L 962.89 511.46 L 963.40 511.46 L 963.66 511.46 L 964.17 511.46 L 964.43 511.46 L 964.94 511.46 L 965.20 511.46 L 965.71 511.46 L 965.97 511.46 L 966.48 511.46 L 966.73 511.46 L 967.25 511.46 L 967.50 511.46 L 968.02 511.46 L 968.27 511.46 L 968.78 511.46 L 969.04 511.46 L 969.55 511.46 L 969.81 511.46 L 970.32 511.46 L 970.58 511.46 L 971.09 511.46 L 971.35 511.46 L 971.86 511.46 L 972.11 511.46 L 972.63 511.46 L 972.88 511.46 L 973.39 511.46 L 973.91 511.46 L 974.16 518.97 L 974.68 518.97 L 974.93 518.97 L 975.44 511.46 L 975.70 511.46 L 976.21 511.46 L 976.47 511.46 L 976.98 511.46 L 977.24 511.46 L 977.75 511.46 L 978.01 511.46 L 978.52 511.46 L 978.77 511.46 L 979.29 511.46 L 979.54 518.97 L 980.05 518.97 L 980.31 518.97 L 980.82 518.97 L 981.08 518.97 L 981.59 518.97 L 981.85 518.97 L 982.36 518.97 L 982.62 518.97 L 983.13 518.97 L 983.38 518.97 L 983.90 517.75 L 984.15 534.00 L 984.66 534.00 L 984.92 534.00 L 985.43 534.00 L 985.69 534.00 L 986.20 534.00 L 986.71 534.00 L 986.97 534.00 L 987.48 516.45 L 987.74 534.00 L 988.25 534.00 L 988.51 534.00 L 989.02 534.00 L 989.28 534.00 L 989.79 534.00 L 990.04 534.00 L 990.56 534.00 L 990.81 534.00 L 991.32 534.00 L 991.58 534.00 L 992.09 534.00 L 992.35 534.00 L 992.86 534.00 L 993.12 534.00 L 993.63 534.00 L 993.89 534.00 L 994.40 534.00 L 994.65 534.00 L 995.17 534.00 L 995.42 534.00 L 995.94 534.00 L 996.19 534.00 L 996.70 534.00 L 996.96 534.00 L 997.47 534.00 L 997.73 534.00 L 998.24 534.00 L 998.50 534.00 L 999.01 534.00 L 999.52 534.00 L 999.78 534.00 L 1000.29 534.00 L 1000.55 534.00 L 1001.06 534.00 L 1001.31 534.00 L 1001.83 534.00 L 1002.08 534.00 L 1002.60 534.00 L 1002.85 534.00 L 1003.36 534.00 L 1003.62 534.00 L 1004.13 534.00 L 1004.39 534.00 L 1004.90 534.00 L 1005.16 534.00 L 1005.67 534.00 L 1005.92 534.00 L 1006.44 534.00 L 1006.69 534.00 L 1007.21 534.00 L 1007.46 534.00 L 1007.97 534.00 L 1008.23 534.00 L 1008.74 534.00 L 1009.00 534.00 L 1009.51 534.00 L 1009.77 534.00 L 1010.28 534.00 L 1010.54 534.00 L 1011.05 534.00 L 1011.56 534.00 L 1011.82 534.00 L 1012.33 534.00 L 1012.58 534.00 L 1013.10 534.00 L 1013.35 534.00 L 1013.87 534.00 L 1014.12 534.00 L 1014.63 534.00 L 1014.89 534.00 L 1015.40 534.00 L 1015.66 534.00 L 1016.17 534.00 L 1016.43 534.00 L 1016.94 534.00 L 1017.20 534.00 L 1017.71 534.00 L 1017.96 534.00 L 1018.48 534.00 L 1018.73 534.00 L 1019.24 534.00 L 1019.50 534.00 L 1020.01 534.00 L 1020.27 534.00 L 1020.78 534.00 L 1021.04 534.00 L 1021.55 534.00 L 1021.81 534.00 L 1022.32 534.00 L 1022.57 534.00 L 1023.09 534.00 L 1023.34 534.00 L 1023.86 534.00 L 1024.11 534.00 L 1024.62 534.00 L 1025.14 534.00 L 1025.39 534.00 L 1025.90 534.00 L 1026.16 534.00 L 1026.67 534.00 L 1026.93 534.00 L 1027.44 534.00 L 1027.70 534.00 L 1028.21 534.00 L 1028.47 534.00 L 1028.98 534.00 L 1029.23 534.00 L 1029.75 534.00 L 1030.00 534.00 L 1030.51 534.00 L 1030.77 534.00 L 1031.28 534.00 L 1031.54 534.00 L 1032.05 534.00 L 1032.31 534.00 L 1032.82 534.00 L 1033.08 534.00 L 1033.59 534.00 L 1033.84 534.00 L 1034.36 534.00 L 1034.61 534.00 L 1035.13 534.00 L 1035.38 534.00 L 1035.89 534.00 L 1036.15 534.00 L 1036.66 473.28 L 1036.92 489.15 L 1037.43 487.75 L 1037.94 462.37 L 1038.20 467.99 L 1038.71 460.60 L 1038.97 460.72 L 1039.48 452.09 L 1039.74 419.61 L 1040.25 411.68 L 1040.50 396.65 L 1041.02 396.65 L 1041.27 396.65 L 1041.79 396.65 L 1042.04 396.65 L 1042.55 396.65 L 1042.81 411.68 L 1043.32 411.68 L 1043.58 411.68 L 1044.09 411.68 L 1044.35 411.68 L 1044.86 419.19 L 1045.12 450.09 L 1045.63 467.25 L 1045.88 496.00 L 1046.40 499.62 L 1046.65 496.53 L 1047.16 491.34 L 1047.42 491.54 L 1047.93 487.10 L 1048.19 488.64 L 1048.70 485.53 L 1048.96 494.42 L 1049.47 491.65 L 1049.73 484.82 L 1050.24 485.67 L 1050.49 495.16 L 1051.01 493.37 L 1051.52 459.03 L 1051.77 434.64 L 1052.29 434.64 L 1052.54 447.24 L 1053.06 451.94 L 1053.31 411.68 L 1053.82 380.78 L 1054.08 380.78 L 1054.59 380.78 L 1054.85 380.78 L 1055.36 380.78 L 1055.62 380.78 L 1056.13 380.78 L 1056.39 396.23 L 1056.90 396.23 L 1057.15 449.67 L 1057.67 449.67 L 1057.92 449.67 L 1058.43 472.63 L 1058.69 489.46 L 1059.20 505.24 L 1059.46 497.64 L 1059.97 491.73 L 1060.23 493.32 L 1060.74 502.97 L 1061.00 496.07 L 1061.51 499.45 L 1061.76 498.99 L 1062.28 499.62 L 1062.53 487.41 L 1063.05 480.56 L 1063.30 480.56 L 1063.81 501.83 L 1064.07 501.39 L 1064.58 475.66 L 1065.09 472.63 L 1065.35 457.60 L 1065.86 449.67 L 1066.12 449.67 L 1066.63 511.04 L 1066.89 511.04 L 1067.40 511.04 L 1067.66 511.04 L 1068.17 511.04 L 1068.42 511.04 L 1068.94 511.04 L 1069.19 495.59 L 1069.71 495.59 L 1069.96 495.59 L 1070.47 495.59 L 1070.73 495.59 L 1071.24 511.04 L 1071.50 495.59 L 1072.01 495.59 L 1072.27 511.04 L 1072.78 509.83 L 1073.03 507.50 L 1073.55 507.87 L 1073.80 508.23 L 1074.32 511.04 L 1074.57 511.04 L 1075.08 511.04 L 1075.34 511.04 L 1075.85 511.04 L 1076.11 495.59 L 1076.62 495.59 L 1076.88 495.59 L 1077.39 495.59 L 1077.65 495.59 L 1078.16 495.59 L 1078.67 495.59 L 1078.93 495.59 L 1079.44 495.59 L 1079.69 495.59 L 1080.21 495.59 L 1080.46 495.59 L 1080.98 495.59 L 1081.23 495.59 L 1081.74 495.59 L 1082.00 495.59" fill="none" stroke="#10b981" stroke-width="2.7"/>
<text x="560.0" y="602" text-anchor="middle" font-family="Arial, sans-serif" font-size="13" fill="#475569">Wall Clock Time</text>
<text transform="translate(25 306.0) rotate(-90)" text-anchor="middle" font-family="Arial, sans-serif" font-size="13" fill="#475569">Efficiency (W/klux)</text>
<rect x="727" y="96" width="335" height="54" rx="8" fill="#ffffff" stroke="#cbd5e1"/>
<line x1="745" y1="121" x2="785" y2="121" stroke="#10b981" stroke-width="2.8"/>
<text x="797" y="126" font-family="Arial, sans-serif" font-size="13" fill="#1e293b">Normalised Efficiency</text>
</svg>