<svg xmlns="http://www.w3.org/2000/svg" width="1120" height="620" viewBox="0 0 1120 620">
<rect width="100%" height="100%" fill="#f8fafc"/>
<rect x="92" y="78" width="990" height="456" fill="#ffffff" stroke="#cbd5e1"/>
<text x="560.0" y="34" text-anchor="middle" font-family="Arial, sans-serif" font-size="21" font-weight="700" fill="#1e293b">Normalised Efficiency - 36 deg Tilt - Afternoon Session - 20260623</text>
<text x="560.0" y="58" text-anchor="middle" font-family="Arial, sans-serif" font-size="12" fill="#475569">693 readings from 16:26:25 to 16:43:51</text>
<line x1="92" y1="534.00" x2="1082" y2="534.00" stroke="#cbd5e1" stroke-dasharray="5 5" opacity="0.75"/>
<text x="80" y="538.00" text-anchor="end" font-family="Arial, sans-serif" font-size="12" fill="#475569">0.000</text>
<line x1="92" y1="442.80" x2="1082" y2="442.80" stroke="#cbd5e1" stroke-dasharray="5 5" opacity="0.75"/>
<text x="80" y="446.80" text-anchor="end" font-family="Arial, sans-serif" font-size="12" fill="#475569">0.000</text>
<line x1="92" y1="351.60" x2="1082" y2="351.60" stroke="#cbd5e1" stroke-dasharray="5 5" opacity="0.75"/>
<text x="80" y="355.60" text-anchor="end" font-family="Arial, sans-serif" font-size="12" fill="#475569">0.001</text>
<line x1="92" y1="260.40" x2="1082" y2="260.40" stroke="#cbd5e1" stroke-dasharray="5 5" opacity="0.75"/>
<text x="80" y="264.40" text-anchor="end" font-family="Arial, sans-serif" font-size="12" fill="#475569">0.001</text>
<line x1="92" y1="169.20" x2="1082" y2="169.20" stroke="#cbd5e1" stroke-dasharray="5 5" opacity="0.75"/>
<text x="80" y="173.20" text-anchor="end" font-family="Arial, sans-serif" font-size="12" fill="#475569">0.002</text>
<line x1="92" y1="78.00" x2="1082" y2="78.00" stroke="#cbd5e1" stroke-dasharray="5 5" opacity="0.75"/>
<text x="80" y="82.00" text-anchor="end" font-family="Arial, sans-serif" font-size="12" fill="#475569">0.002</text>
<line x1="92.00" y1="78" x2="92.00" y2="534" stroke="#e2e8f0" stroke-dasharray="4 6"/>
<text x="92.00" y="568" text-anchor="middle" font-family="Arial, sans-serif" font-size="12" fill="#475569">16:26:25</text>
<line x1="257.00" y1="78" x2="257.00" y2="534" stroke="#e2e8f0" stroke-dasharray="4 6"/>
<text x="257.00" y="568" text-anchor="middle" font-family="Arial, sans-serif" font-size="12" fill="#475569">16:29:19</text>
<line x1="422.00" y1="78" x2="422.00" y2="534" stroke="#e2e8f0" stroke-dasharray="4 6"/>
<text x="422.00" y="568" text-anchor="middle" font-family="Arial, sans-serif" font-size="12" fill="#475569">16:32:13</text>
<line x1="587.00" y1="78" x2="587.00" y2="534" stroke="#e2e8f0" stroke-dasharray="4 6"/>
<text x="587.00" y="568" text-anchor="middle" font-family="Arial, sans-serif" font-size="12" fill="#475569">16:35:08</text>
<line x1="752.00" y1="78" x2="752.00" y2="534" stroke="#e2e8f0" stroke-dasharray="4 6"/>
<text x="752.00" y="568" text-anchor="middle" font-family="Arial, sans-serif" font-size="12" fill="#475569">16:38:02</text>
<line x1="917.00" y1="78" x2="917.00" y2="534" stroke="#e2e8f0" stroke-dasharray="4 6"/>
<text x="917.00" y="568" text-anchor="middle" font-family="Arial, sans-serif" font-size="12" fill="#475569">16:40:56</text>
<line x1="1082.00" y1="78" x2="1082.00" y2="534" stroke="#e2e8f0" stroke-dasharray="4 6"/>
<text x="1082.00" y="568" text-anchor="middle" font-family="Arial, sans-serif" font-size="12" fill="#475569">16:43:51</text>
<path d="M 92.00 432.85 L 93.89 432.94 L 94.84 432.96 L 96.73 433.06 L 97.68 433.15 L 99.57 433.13 L 100.52 433.18 L 102.41 433.17 L 103.36 433.15 L 105.25 434.14 L 106.20 434.16 L 108.09 434.14 L 109.04 434.18 L 110.93 434.15 L 111.88 434.10 L 113.77 434.01 L 114.72 433.71 L 116.61 433.20 L 117.55 433.82 L 119.45 433.83 L 120.39 434.47 L 122.29 434.42 L 123.23 434.38 L 125.13 434.33 L 126.07 434.41 L 127.97 434.30 L 128.91 434.06 L 130.80 433.16 L 131.75 431.47 L 133.64 431.93 L 134.59 433.13 L 136.48 433.16 L 137.43 433.75 L 139.32 429.85 L 141.22 430.41 L 142.16 427.73 L 144.06 455.17 L 145.00 454.19 L 146.89 453.84 L 147.84 450.88 L 149.73 448.85 L 150.68 480.96 L 152.57 478.85 L 153.52 479.25 L 155.41 479.42 L 156.36 479.01 L 158.25 479.83 L 159.20 480.48 L 161.09 446.66 L 162.04 450.92 L 163.93 455.06 L 164.88 426.97 L 166.77 427.90 L 167.72 427.69 L 169.61 425.90 L 170.56 454.35 L 172.45 451.53 L 173.40 480.19 L 175.29 474.38 L 176.24 469.90 L 178.13 489.79 L 179.07 489.01 L 180.97 488.62 L 181.91 488.52 L 183.81 489.13 L 184.75 489.52 L 186.65 489.31 L 187.59 488.85 L 189.49 487.81 L 190.43 486.65 L 192.33 485.97 L 193.27 485.53 L 195.16 485.23 L 196.11 484.98 L 198.00 484.75 L 198.95 484.56 L 200.84 484.37 L 201.79 484.21 L 203.68 484.06 L 204.63 483.92 L 206.52 483.82 L 208.41 483.73 L 209.36 483.66 L 211.25 483.61 L 212.20 483.58 L 214.09 483.59 L 215.04 483.60 L 216.93 483.63 L 217.88 483.72 L 219.77 483.87 L 220.72 484.16 L 222.61 484.65 L 223.56 485.52 L 225.45 486.40 L 226.40 486.86 L 228.29 486.75 L 229.24 486.65 L 231.13 486.85 L 232.08 487.52 L 233.97 488.97 L 234.92 470.30 L 236.81 473.83 L 237.76 476.26 L 239.65 477.37 L 240.59 478.36 L 242.49 479.79 L 243.43 446.66 L 245.33 448.70 L 246.27 450.02 L 248.17 450.81 L 249.11 452.37 L 251.01 452.96 L 251.95 453.10 L 253.85 453.24 L 254.79 453.47 L 256.68 453.49 L 257.63 453.54 L 259.52 453.50 L 260.47 453.43 L 262.36 453.54 L 263.31 453.55 L 265.20 453.53 L 266.15 453.53 L 268.04 453.52 L 268.99 453.48 L 270.88 453.39 L 272.77 453.17 L 273.72 452.90 L 275.61 453.04 L 276.56 453.36 L 278.45 453.64 L 279.40 453.82 L 281.29 453.95 L 282.24 454.03 L 284.13 454.08 L 285.08 453.69 L 286.97 452.33 L 287.92 452.96 L 289.81 453.21 L 290.76 453.32 L 292.65 452.36 L 293.60 453.56 L 295.49 453.91 L 296.44 453.63 L 298.33 453.89 L 299.28 454.19 L 301.17 454.58 L 302.11 454.60 L 304.01 454.60 L 304.95 454.75 L 306.85 399.90 L 307.79 348.47 L 309.69 348.83 L 310.63 349.86 L 312.53 397.39 L 313.47 314.05 L 315.37 315.29 L 316.31 316.08 L 318.20 316.22 L 319.15 344.59 L 321.04 344.79 L 321.99 345.05 L 323.88 345.46 L 324.83 345.99 L 326.72 346.28 L 327.67 346.72 L 329.56 347.23 L 330.51 347.69 L 332.40 348.10 L 333.35 347.66 L 335.24 349.20 L 337.13 349.75 L 338.08 350.06 L 339.97 350.21 L 340.92 404.52 L 342.81 404.30 L 343.76 405.17 L 345.65 405.35 L 346.60 439.61 L 348.49 472.10 L 349.44 470.08 L 351.33 469.32 L 352.28 467.60 L 354.17 468.03 L 355.12 468.96 L 357.01 420.47 L 357.96 428.06 L 359.85 425.28 L 360.80 462.64 L 362.69 459.27 L 363.63 462.70 L 365.53 471.50 L 366.47 438.20 L 368.37 435.45 L 369.31 469.08 L 371.21 471.70 L 372.15 468.78 L 374.05 487.76 L 374.99 480.89 L 376.89 468.79 L 377.83 473.25 L 379.72 483.46 L 380.67 481.70 L 382.56 480.70 L 383.51 480.00 L 385.40 480.87 L 386.35 478.42 L 388.24 435.70 L 389.19 446.46 L 391.08 468.75 L 392.03 459.59 L 393.92 468.32 L 394.87 467.10 L 396.76 467.08 L 397.71 466.51 L 399.60 467.14 L 401.49 466.25 L 402.44 466.59 L 404.33 464.11 L 405.28 465.61 L 407.17 464.79 L 408.12 464.17 L 410.01 463.67 L 410.96 463.52 L 412.85 463.38 L 413.80 463.20 L 415.69 463.77 L 416.64 463.91 L 418.53 463.65 L 419.48 463.40 L 421.37 463.19 L 422.32 463.04 L 424.21 462.85 L 425.15 462.67 L 427.05 462.47 L 427.99 463.39 L 429.89 463.10 L 430.83 462.84 L 432.73 462.60 L 433.67 462.04 L 435.57 461.69 L 436.51 461.48 L 438.41 461.31 L 439.35 461.11 L 441.24 460.94 L 442.19 460.96 L 444.08 460.45 L 445.03 460.10 L 446.92 459.85 L 447.87 459.67 L 449.76 459.44 L 450.71 457.62 L 452.60 457.42 L 453.55 457.17 L 455.44 458.50 L 456.39 458.18 L 458.28 457.50 L 459.23 456.56 L 461.12 456.21 L 463.01 455.95 L 463.96 455.73 L 465.85 455.49 L 466.80 455.25 L 468.69 455.00 L 469.64 454.84 L 471.53 454.67 L 472.48 454.43 L 474.37 454.07 L 475.32 453.87 L 477.21 455.27 L 478.16 455.55 L 480.05 455.41 L 481.00 534.00 L 482.89 455.01 L 483.84 454.91 L 485.73 454.79 L 486.67 454.70 L 488.57 454.73 L 489.51 454.43 L 491.41 454.34 L 492.35 454.27 L 494.25 454.16 L 495.19 454.15 L 497.09 454.06 L 498.03 453.98 L 499.93 454.01 L 500.87 453.90 L 502.76 453.85 L 503.71 453.15 L 505.60 452.93 L 506.55 449.45 L 508.44 449.69 L 509.39 452.21 L 511.28 452.03 L 512.23 451.76 L 514.12 451.84 L 515.07 451.92 L 516.96 451.90 L 517.91 453.26 L 519.80 453.22 L 520.75 452.95 L 522.64 452.07 L 524.53 452.33 L 525.48 453.58 L 527.37 451.80 L 528.32 456.23 L 530.21 457.01 L 531.16 456.99 L 533.05 456.88 L 534.00 457.51 L 535.89 456.23 L 536.84 456.49 L 538.73 456.61 L 539.68 456.72 L 541.57 456.84 L 542.52 456.98 L 544.41 457.07 L 545.36 457.16 L 547.25 457.26 L 548.20 457.37 L 550.09 457.55 L 551.03 457.56 L 552.93 457.81 L 553.87 458.17 L 555.77 458.61 L 556.71 459.00 L 558.61 419.74 L 559.55 420.25 L 561.45 420.68 L 562.39 420.97 L 564.28 421.18 L 565.23 421.17 L 567.12 421.30 L 568.07 421.57 L 569.96 421.46 L 570.91 421.85 L 572.80 421.76 L 573.75 421.56 L 575.64 421.43 L 576.59 421.20 L 578.48 419.93 L 579.43 421.10 L 581.32 421.30 L 582.27 421.14 L 584.16 421.27 L 585.11 421.24 L 587.00 422.76 L 588.89 421.65 L 589.84 418.88 L 591.73 419.03 L 592.68 418.46 L 594.57 418.62 L 595.52 418.91 L 597.41 419.15 L 598.36 419.27 L 600.25 419.54 L 601.20 419.70 L 603.09 420.08 L 604.04 419.65 L 605.93 419.68 L 606.88 419.89 L 608.77 419.68 L 609.72 419.63 L 611.61 419.78 L 612.55 419.27 L 614.45 457.96 L 615.39 457.29 L 617.29 457.19 L 618.23 457.30 L 620.13 457.61 L 621.07 457.93 L 622.97 458.07 L 623.91 458.08 L 625.80 458.08 L 626.75 458.12 L 628.64 458.33 L 629.59 458.55 L 631.48 459.12 L 632.43 459.62 L 634.32 459.92 L 635.27 460.15 L 637.16 460.36 L 638.11 460.53 L 640.00 460.72 L 640.95 460.80 L 642.84 460.81 L 643.79 460.88 L 645.68 460.99 L 646.63 461.07 L 648.52 461.56 L 650.41 461.32 L 651.36 461.39 L 653.25 461.56 L 654.20 461.86 L 656.09 462.06 L 657.04 462.31 L 658.93 462.49 L 659.88 462.58 L 661.77 462.55 L 662.72 462.66 L 664.61 462.97 L 665.56 463.16 L 667.45 463.27 L 668.40 463.35 L 670.29 463.44 L 671.24 463.97 L 673.13 464.11 L 674.07 464.06 L 675.97 464.10 L 676.91 464.32 L 678.81 464.80 L 679.75 465.30 L 681.65 465.37 L 682.59 465.00 L 684.49 464.97 L 685.43 464.76 L 687.33 464.57 L 688.27 464.42 L 690.16 464.44 L 691.11 464.41 L 693.00 464.36 L 693.95 464.34 L 695.84 464.31 L 696.79 464.31 L 698.68 464.40 L 699.63 464.16 L 701.52 464.14 L 702.47 464.05 L 704.36 463.97 L 705.31 464.09 L 707.20 463.82 L 708.15 463.46 L 710.04 463.00 L 711.93 463.12 L 712.88 463.40 L 714.77 463.59 L 715.72 463.72 L 717.61 463.96 L 718.56 463.95 L 720.45 463.44 L 721.40 462.73 L 723.29 461.95 L 724.24 461.58 L 726.13 461.25 L 727.08 461.57 L 728.97 461.41 L 729.92 461.11 L 731.81 461.31 L 732.76 461.38 L 734.65 461.54 L 735.59 461.79 L 737.49 461.85 L 738.43 461.92 L 740.33 462.19 L 741.27 462.65 L 743.17 462.79 L 744.11 462.95 L 746.01 463.33 L 746.95 463.78 L 748.85 427.22 L 749.79 427.90 L 751.68 428.04 L 752.63 427.93 L 754.52 427.65 L 755.47 427.44 L 757.36 427.16 L 758.31 427.20 L 760.20 427.07 L 761.15 426.87 L 763.04 426.61 L 763.99 426.31 L 765.88 425.91 L 766.83 425.41 L 768.72 461.92 L 769.67 459.91 L 771.56 457.99 L 772.51 457.26 L 774.40 457.79 L 776.29 457.98 L 777.24 458.49 L 779.13 459.09 L 780.08 459.66 L 781.97 422.84 L 782.92 424.90 L 784.81 423.19 L 785.76 423.85 L 787.65 423.92 L 788.60 423.99 L 790.49 424.29 L 791.44 424.29 L 793.33 424.26 L 794.28 424.29 L 796.17 424.28 L 797.11 424.24 L 799.01 424.22 L 799.95 424.35 L 801.85 424.36 L 802.79 424.37 L 804.69 425.22 L 805.63 425.10 L 807.53 425.11 L 808.47 425.12 L 810.37 425.04 L 811.31 424.82 L 813.20 424.97 L 814.15 424.99 L 816.04 424.77 L 816.99 425.03 L 818.88 424.88 L 819.83 423.53 L 821.72 423.55 L 822.67 460.81 L 824.56 458.93 L 825.51 457.41 L 827.40 456.57 L 828.35 457.16 L 830.24 457.73 L 831.19 458.29 L 833.08 458.23 L 834.03 458.13 L 835.92 458.40 L 837.81 458.27 L 838.76 458.38 L 840.65 458.14 L 841.60 458.44 L 843.49 458.74 L 844.44 459.00 L 846.33 459.39 L 847.28 459.76 L 849.17 460.33 L 850.12 461.03 L 852.01 461.73 L 852.96 426.70 L 854.85 427.79 L 855.80 428.39 L 857.69 463.33 L 858.63 462.68 L 860.53 462.41 L 861.47 462.74 L 863.37 463.17 L 864.31 463.28 L 866.21 462.73 L 867.15 462.50 L 869.05 462.38 L 869.99 462.49 L 871.89 462.46 L 872.83 462.27 L 874.72 462.06 L 875.67 461.97 L 877.56 461.87 L 878.51 461.86 L 880.40 461.86 L 881.35 461.84 L 883.24 461.86 L 884.19 461.83 L 886.08 461.84 L 887.03 461.85 L 888.92 461.91 L 889.87 461.92 L 891.76 461.88 L 892.71 461.82 L 894.60 461.76 L 895.55 461.74 L 897.44 461.70 L 899.33 461.68 L 900.28 461.66 L 902.17 461.63 L 903.12 461.63 L 905.01 461.65 L 905.96 461.60 L 907.85 461.56 L 908.80 461.50 L 910.69 461.45 L 911.64 461.39 L 913.53 460.91 L 914.48 460.90 L 916.37 460.80 L 917.32 460.55 L 919.21 460.53 L 920.15 460.45 L 922.05 460.34 L 922.99 460.24 L 924.89 460.15 L 925.83 460.01 L 927.73 459.87 L 928.67 459.77 L 930.57 459.64 L 931.51 459.41 L 933.41 459.30 L 934.35 459.34 L 936.24 458.66 L 937.19 458.50 L 939.08 458.39 L 940.03 458.44 L 941.92 458.20 L 942.87 458.08 L 944.76 457.92 L 945.71 457.52 L 947.60 457.47 L 948.55 457.30 L 950.44 457.18 L 951.39 457.20 L 953.28 456.97 L 954.23 456.78 L 956.12 456.63 L 957.07 456.49 L 958.96 456.42 L 960.85 456.26 L 961.80 456.17 L 963.69 456.04 L 964.64 456.27 L 966.53 456.15 L 967.48 455.80 L 969.37 455.51 L 970.32 455.40 L 972.21 534.00 L 973.16 534.00 L 975.05 534.00 L 976.00 534.00 L 977.89 534.00 L 978.84 534.00 L 980.73 534.00 L 981.67 534.00 L 983.57 534.00 L 984.51 534.00 L 986.41 534.00 L 987.35 534.00 L 989.25 534.00 L 990.19 534.00 L 992.09 534.00 L 993.03 534.00 L 994.93 534.00 L 995.87 534.00 L 997.76 534.00 L 998.71 534.00 L 1000.60 534.00 L 1001.55 534.00 L 1003.44 534.00 L 1004.39 534.00 L 1006.28 534.00 L 1007.23 534.00 L 1009.12 534.00 L 1010.07 534.00 L 1011.96 534.00 L 1012.91 534.00 L 1014.80 534.00 L 1015.75 534.00 L 1017.64 534.00 L 1018.59 534.00 L 1020.48 534.00 L 1022.37 534.00 L 1023.32 534.00 L 1025.21 534.00 L 1026.16 534.00 L 1028.05 534.00 L 1029.00 534.00 L 1030.89 534.00 L 1031.84 534.00 L 1033.73 534.00 L 1034.68 534.00 L 1036.57 534.00 L 1037.52 534.00 L 1039.41 534.00 L 1040.36 534.00 L 1042.25 534.00 L 1043.20 534.00 L 1045.09 534.00 L 1046.03 534.00 L 1047.93 534.00 L 1048.87 534.00 L 1050.77 534.00 L 1051.71 534.00 L 1053.61 534.00 L 1054.55 534.00 L 1056.45 534.00 L 1057.39 534.00 L 1059.28 534.00 L 1060.23 534.00 L 1062.12 534.00 L 1063.07 534.00 L 1064.96 534.00 L 1065.91 534.00 L 1067.80 534.00 L 1068.75 534.00 L 1070.64 534.00 L 1071.59 534.00 L 1073.48 534.00 L 1074.43 534.00 L 1076.32 534.00 L 1077.27 534.00 L 1079.16 534.00 L 1080.11 534.00 L 1082.00 534.00" fill="none" stroke="#10b981" stroke-width="2.7"/>
<text x="560.0" y="602" text-anchor="middle" font-family="Arial, sans-serif" font-size="13" fill="#475569">Wall Clock Time</text>
<text transform="translate(25 306.0) rotate(-90)" text-anchor="middle" font-family="Arial, sans-serif" font-size="13" fill="#475569">Efficiency (W/klux)</text>
<rect x="727" y="96" width="335" height="54" rx="8" fill="#ffffff" stroke="#cbd5e1"/>
<line x1="745" y1="121" x2="785" y2="121" stroke="#10b981" stroke-width="2.8"/>
<text x="797" y="126" font-family="Arial, sans-serif" font-size="13" fill="#1e293b">Normalised Efficiency</text>
</svg>