<svg xmlns="http://www.w3.org/2000/svg" width="1120" height="620" viewBox="0 0 1120 620">
<rect width="100%" height="100%" fill="#f8fafc"/>
<rect x="92" y="78" width="990" height="456" fill="#ffffff" stroke="#cbd5e1"/>
<text x="560.0" y="34" text-anchor="middle" font-family="Arial, sans-serif" font-size="21" font-weight="700" fill="#1e293b">Normalised Efficiency - 13 deg Tilt - Afternoon Session</text>
<text x="560.0" y="58" text-anchor="middle" font-family="Arial, sans-serif" font-size="12" fill="#475569">1368 readings from 15:26:22 to 16:00:55</text>
<line x1="92" y1="534.00" x2="1082" y2="534.00" stroke="#cbd5e1" stroke-dasharray="5 5" opacity="0.75"/>
<text x="80" y="538.00" text-anchor="end" font-family="Arial, sans-serif" font-size="12" fill="#475569">0.000</text>
<line x1="92" y1="442.80" x2="1082" y2="442.80" stroke="#cbd5e1" stroke-dasharray="5 5" opacity="0.75"/>
<text x="80" y="446.80" text-anchor="end" font-family="Arial, sans-serif" font-size="12" fill="#475569">0.004</text>
<line x1="92" y1="351.60" x2="1082" y2="351.60" stroke="#cbd5e1" stroke-dasharray="5 5" opacity="0.75"/>
<text x="80" y="355.60" text-anchor="end" font-family="Arial, sans-serif" font-size="12" fill="#475569">0.008</text>
<line x1="92" y1="260.40" x2="1082" y2="260.40" stroke="#cbd5e1" stroke-dasharray="5 5" opacity="0.75"/>
<text x="80" y="264.40" text-anchor="end" font-family="Arial, sans-serif" font-size="12" fill="#475569">0.012</text>
<line x1="92" y1="169.20" x2="1082" y2="169.20" stroke="#cbd5e1" stroke-dasharray="5 5" opacity="0.75"/>
<text x="80" y="173.20" text-anchor="end" font-family="Arial, sans-serif" font-size="12" fill="#475569">0.016</text>
<line x1="92" y1="78.00" x2="1082" y2="78.00" stroke="#cbd5e1" stroke-dasharray="5 5" opacity="0.75"/>
<text x="80" y="82.00" text-anchor="end" font-family="Arial, sans-serif" font-size="12" fill="#475569">0.020</text>
<line x1="92.00" y1="78" x2="92.00" y2="534" stroke="#e2e8f0" stroke-dasharray="4 6"/>
<text x="92.00" y="568" text-anchor="middle" font-family="Arial, sans-serif" font-size="12" fill="#475569">15:26:22</text>
<line x1="257.00" y1="78" x2="257.00" y2="534" stroke="#e2e8f0" stroke-dasharray="4 6"/>
<text x="257.00" y="568" text-anchor="middle" font-family="Arial, sans-serif" font-size="12" fill="#475569">15:32:07</text>
<line x1="422.00" y1="78" x2="422.00" y2="534" stroke="#e2e8f0" stroke-dasharray="4 6"/>
<text x="422.00" y="568" text-anchor="middle" font-family="Arial, sans-serif" font-size="12" fill="#475569">15:37:53</text>
<line x1="587.00" y1="78" x2="587.00" y2="534" stroke="#e2e8f0" stroke-dasharray="4 6"/>
<text x="587.00" y="568" text-anchor="middle" font-family="Arial, sans-serif" font-size="12" fill="#475569">15:43:38</text>
<line x1="752.00" y1="78" x2="752.00" y2="534" stroke="#e2e8f0" stroke-dasharray="4 6"/>
<text x="752.00" y="568" text-anchor="middle" font-family="Arial, sans-serif" font-size="12" fill="#475569">15:49:24</text>
<line x1="917.00" y1="78" x2="917.00" y2="534" stroke="#e2e8f0" stroke-dasharray="4 6"/>
<text x="917.00" y="568" text-anchor="middle" font-family="Arial, sans-serif" font-size="12" fill="#475569">15:55:09</text>
<line x1="1082.00" y1="78" x2="1082.00" y2="534" stroke="#e2e8f0" stroke-dasharray="4 6"/>
<text x="1082.00" y="568" text-anchor="middle" font-family="Arial, sans-serif" font-size="12" fill="#475569">16:00:55</text>
<path d="M 92.00 534.00 L 92.96 534.00 L 93.43 534.00 L 94.39 534.00 L 94.87 534.00 L 95.82 534.00 L 96.30 534.00 L 97.25 534.00 L 98.21 534.00 L 98.69 534.00 L 99.64 534.00 L 100.12 534.00 L 101.07 534.00 L 101.55 534.00 L 102.51 534.00 L 102.98 534.00 L 103.94 534.00 L 104.42 534.00 L 105.37 534.00 L 105.85 534.00 L 106.80 534.00 L 107.28 534.00 L 108.24 534.00 L 108.71 534.00 L 109.67 534.00 L 110.15 534.00 L 111.10 534.00 L 111.58 534.00 L 112.54 534.00 L 113.01 534.00 L 113.97 534.00 L 114.45 534.00 L 115.40 520.71 L 115.88 523.06 L 116.83 522.89 L 117.31 511.28 L 118.27 505.11 L 118.74 502.87 L 119.70 506.78 L 120.18 512.09 L 121.13 511.05 L 121.61 503.13 L 122.56 509.79 L 123.04 516.34 L 124.00 508.13 L 124.47 506.52 L 125.43 505.77 L 125.91 503.19 L 126.86 501.24 L 127.34 502.34 L 128.30 501.70 L 128.77 500.64 L 129.73 500.77 L 130.68 499.66 L 131.16 498.10 L 132.12 498.43 L 132.59 498.00 L 133.55 497.53 L 134.03 497.33 L 134.98 497.33 L 135.46 500.01 L 136.41 497.28 L 136.89 499.91 L 137.85 497.24 L 138.32 497.21 L 139.28 497.49 L 139.76 497.33 L 140.71 497.50 L 141.19 497.43 L 142.14 499.22 L 142.62 320.44 L 143.58 398.20 L 144.05 436.99 L 145.01 435.49 L 145.49 438.89 L 146.44 441.00 L 146.92 444.00 L 147.88 443.81 L 148.35 458.57 L 149.31 458.18 L 149.79 451.66 L 150.74 452.63 L 151.22 454.44 L 152.17 449.28 L 152.65 450.93 L 153.61 453.00 L 154.08 491.32 L 155.04 489.24 L 155.52 496.05 L 156.47 522.65 L 156.95 456.56 L 157.90 448.91 L 158.38 457.91 L 159.34 458.30 L 159.81 457.88 L 160.77 458.00 L 161.25 457.99 L 162.20 458.14 L 163.16 458.05 L 163.64 458.03 L 164.59 458.06 L 165.07 457.91 L 166.02 465.56 L 166.50 465.62 L 167.46 465.36 L 167.93 465.37 L 168.89 465.40 L 169.37 426.04 L 170.32 455.56 L 170.80 492.42 L 171.75 526.77 L 172.23 534.00 L 173.19 527.09 L 173.66 527.04 L 174.62 526.95 L 175.10 477.17 L 176.05 480.74 L 176.53 480.57 L 177.48 480.51 L 177.96 480.47 L 178.92 480.38 L 179.40 480.32 L 180.35 523.68 L 180.83 527.34 L 181.78 534.00 L 182.26 487.98 L 183.22 488.07 L 183.69 509.79 L 184.65 489.63 L 185.13 489.87 L 186.08 489.06 L 186.56 489.18 L 187.51 489.18 L 187.99 209.57 L 188.95 523.36 L 189.42 493.82 L 190.38 493.40 L 190.86 493.45 L 191.81 493.23 L 192.77 493.24 L 193.24 504.37 L 194.20 504.50 L 194.68 504.54 L 195.63 504.66 L 196.11 508.40 L 197.07 508.46 L 197.54 508.50 L 198.50 508.58 L 198.98 508.65 L 199.93 508.71 L 200.41 508.71 L 201.36 508.68 L 201.84 508.70 L 202.80 508.94 L 203.27 508.97 L 204.23 509.03 L 204.71 509.01 L 205.66 509.04 L 206.14 523.23 L 207.09 523.24 L 207.57 523.26 L 208.53 523.29 L 209.00 523.26 L 209.96 523.26 L 210.44 523.30 L 211.39 523.29 L 211.87 523.29 L 212.82 523.28 L 213.30 523.32 L 214.26 523.31 L 214.74 523.29 L 215.69 523.29 L 216.17 523.29 L 217.12 523.49 L 217.60 523.50 L 218.56 523.51 L 219.03 523.49 L 219.99 523.50 L 220.47 523.52 L 221.42 523.51 L 222.38 523.52 L 222.85 523.55 L 223.81 523.54 L 224.29 523.54 L 225.24 523.55 L 225.72 523.56 L 226.67 523.55 L 227.15 523.54 L 228.11 523.55 L 228.58 523.54 L 229.54 523.55 L 230.02 523.51 L 230.97 523.50 L 231.45 523.53 L 232.41 527.07 L 232.88 527.06 L 233.84 527.05 L 234.32 527.04 L 235.27 527.04 L 235.75 527.02 L 236.70 527.04 L 237.18 527.03 L 238.14 527.02 L 238.61 527.01 L 239.57 527.00 L 240.05 526.99 L 241.00 527.01 L 241.48 527.01 L 242.43 526.99 L 242.91 526.97 L 243.87 527.00 L 244.34 526.98 L 245.30 526.98 L 245.78 526.97 L 246.73 526.96 L 247.21 526.96 L 248.16 526.95 L 249.12 526.95 L 249.60 526.96 L 250.55 526.96 L 251.03 526.97 L 251.99 526.96 L 252.46 526.96 L 253.42 526.95 L 253.90 523.32 L 254.85 523.32 L 255.33 523.32 L 256.28 523.31 L 256.76 523.29 L 257.72 523.30 L 258.19 523.29 L 259.15 523.28 L 259.63 523.30 L 260.58 523.31 L 261.06 523.30 L 262.01 523.31 L 262.49 523.31 L 263.45 523.32 L 263.92 523.30 L 264.88 523.30 L 265.36 523.48 L 266.31 523.48 L 266.79 523.51 L 267.75 523.46 L 268.22 523.46 L 269.18 523.45 L 269.66 523.47 L 270.61 523.43 L 271.09 523.41 L 272.04 523.43 L 272.52 523.42 L 273.48 523.41 L 273.95 523.40 L 274.91 523.37 L 275.86 523.39 L 276.34 523.41 L 277.30 523.40 L 277.77 523.41 L 278.73 523.40 L 279.21 523.41 L 280.16 523.41 L 280.64 523.39 L 281.59 523.38 L 282.07 523.40 L 283.03 523.37 L 283.51 523.35 L 284.46 523.34 L 284.94 523.35 L 285.89 523.34 L 286.37 523.34 L 287.33 523.35 L 287.80 523.33 L 288.76 523.31 L 289.24 523.30 L 290.19 523.29 L 290.67 523.25 L 291.62 523.25 L 292.10 523.22 L 293.06 523.24 L 293.53 523.20 L 294.49 523.20 L 294.97 523.20 L 295.92 523.19 L 296.40 523.17 L 297.35 523.18 L 297.83 523.17 L 298.79 523.10 L 299.26 523.11 L 300.22 523.07 L 301.18 523.05 L 301.65 523.06 L 302.61 523.03 L 303.09 523.03 L 304.04 523.01 L 304.52 526.79 L 305.47 522.99 L 305.95 526.79 L 306.91 526.78 L 307.38 526.79 L 308.34 526.81 L 308.82 526.81 L 309.77 526.81 L 310.25 526.80 L 311.20 526.78 L 311.68 526.76 L 312.64 526.74 L 313.11 526.72 L 314.07 526.72 L 314.55 526.70 L 315.50 526.69 L 315.98 526.66 L 316.93 526.67 L 317.41 526.66 L 318.37 526.69 L 318.85 526.65 L 319.80 526.67 L 320.28 526.67 L 321.23 526.68 L 321.71 526.69 L 322.67 526.66 L 323.14 526.65 L 324.10 526.64 L 325.05 526.64 L 325.53 526.62 L 326.49 526.64 L 326.96 526.64 L 327.92 526.62 L 328.40 526.61 L 329.35 526.62 L 329.83 526.64 L 330.78 526.64 L 331.26 526.62 L 332.22 526.63 L 332.69 526.63 L 333.65 526.63 L 334.13 526.65 L 335.08 526.66 L 335.56 526.65 L 336.52 526.66 L 336.99 526.67 L 337.95 526.67 L 338.43 526.67 L 339.38 526.66 L 339.86 526.68 L 340.81 526.69 L 341.29 526.68 L 342.25 526.68 L 342.72 526.68 L 343.68 526.67 L 344.16 526.64 L 345.11 526.67 L 345.59 526.68 L 346.54 526.68 L 347.02 526.67 L 347.98 526.67 L 348.93 526.68 L 349.41 526.68 L 350.36 526.70 L 350.84 526.69 L 351.80 526.68 L 352.27 526.69 L 353.23 526.68 L 353.71 526.68 L 354.66 526.66 L 355.14 526.66 L 356.10 526.68 L 356.57 526.66 L 357.53 526.65 L 358.01 526.66 L 358.96 526.65 L 359.44 526.64 L 360.39 526.63 L 360.87 526.65 L 361.83 526.64 L 362.30 526.64 L 363.26 526.64 L 363.74 526.65 L 364.69 526.64 L 365.17 526.64 L 366.12 526.64 L 366.60 526.62 L 367.56 526.63 L 368.03 526.62 L 368.99 526.61 L 369.47 526.59 L 370.42 526.63 L 371.38 526.63 L 371.86 526.62 L 372.81 526.64 L 373.29 526.63 L 374.24 526.62 L 374.72 526.61 L 375.68 526.61 L 376.15 526.61 L 377.11 526.61 L 377.59 526.62 L 378.54 526.61 L 379.02 526.61 L 379.97 526.60 L 380.45 526.59 L 381.41 526.61 L 381.88 526.61 L 382.84 526.60 L 383.32 526.57 L 384.27 526.55 L 384.75 526.56 L 385.70 526.58 L 386.18 526.56 L 387.14 526.55 L 387.62 526.57 L 388.57 526.56 L 389.05 526.56 L 390.00 526.57 L 390.48 526.56 L 391.44 526.57 L 391.91 526.57 L 392.87 526.56 L 393.82 526.56 L 394.30 526.56 L 395.26 526.56 L 395.73 526.57 L 396.69 526.56 L 397.17 526.56 L 398.12 526.56 L 398.60 526.55 L 399.55 526.56 L 400.03 526.55 L 400.99 526.55 L 401.46 526.56 L 402.42 526.55 L 402.90 526.56 L 403.85 526.55 L 404.33 526.55 L 405.29 526.55 L 405.76 526.54 L 406.72 526.53 L 407.20 526.51 L 451.61 526.52 L 451.61 526.52 L 451.61 526.51 L 451.61 526.49 L 451.61 526.49 L 451.61 526.49 L 451.61 526.49 L 451.61 526.47 L 451.61 526.45 L 451.61 526.46 L 451.61 526.44 L 451.61 526.43 L 451.61 526.42 L 451.61 526.40 L 451.61 526.41 L 451.61 526.41 L 451.61 526.42 L 451.61 526.62 L 451.61 526.61 L 451.61 526.62 L 451.61 526.63 L 451.61 526.62 L 451.61 526.63 L 451.61 526.63 L 451.61 526.63 L 451.61 526.62 L 451.61 526.63 L 451.61 526.62 L 452.09 526.60 L 452.09 526.60 L 452.09 526.61 L 452.09 526.60 L 452.09 526.60 L 452.09 526.60 L 452.09 526.59 L 452.09 526.59 L 452.09 526.59 L 452.09 526.58 L 452.09 526.58 L 452.09 526.58 L 452.09 526.58 L 452.09 526.56 L 452.09 526.56 L 452.09 526.55 L 452.09 526.51 L 452.09 526.54 L 452.09 526.53 L 452.09 526.53 L 452.09 526.54 L 452.09 526.54 L 452.09 526.56 L 452.09 526.55 L 452.09 526.56 L 452.09 526.56 L 452.09 526.56 L 452.09 526.58 L 452.09 526.57 L 452.09 526.57 L 452.09 526.58 L 452.09 526.57 L 452.09 526.58 L 452.09 526.57 L 453.04 526.57 L 453.52 526.58 L 456.38 526.56 L 456.38 526.55 L 456.38 526.59 L 456.38 526.57 L 457.34 526.59 L 457.82 526.58 L 458.77 526.58 L 459.73 526.57 L 460.21 526.59 L 461.16 526.58 L 461.64 526.60 L 462.59 526.58 L 463.07 526.60 L 464.03 526.55 L 464.50 526.58 L 465.46 526.58 L 465.94 526.57 L 466.89 526.54 L 467.37 526.56 L 468.32 526.56 L 468.80 526.54 L 469.76 526.54 L 470.23 526.52 L 471.19 526.50 L 471.67 526.49 L 472.62 526.50 L 473.10 526.50 L 474.05 526.49 L 474.53 526.50 L 475.49 526.47 L 475.97 526.48 L 476.92 526.46 L 477.40 526.47 L 478.35 526.47 L 478.83 526.44 L 479.79 526.45 L 480.74 526.46 L 481.22 526.46 L 482.17 526.46 L 482.65 526.45 L 483.61 526.46 L 484.08 526.44 L 485.04 526.43 L 485.52 526.45 L 486.47 526.44 L 486.95 526.44 L 487.90 526.44 L 488.38 526.45 L 489.34 526.43 L 489.81 526.45 L 490.77 526.45 L 491.25 526.44 L 492.20 526.45 L 492.68 526.45 L 493.64 526.44 L 494.11 526.43 L 495.07 526.43 L 495.55 526.43 L 496.50 526.44 L 496.98 526.43 L 497.93 526.43 L 498.41 526.44 L 499.37 526.44 L 500.32 526.44 L 500.80 526.43 L 501.75 524.55 L 502.23 534.00 L 503.19 534.00 L 503.66 534.00 L 504.62 534.00 L 505.10 525.46 L 506.05 525.93 L 506.53 525.86 L 507.48 525.81 L 507.96 525.88 L 508.92 526.15 L 509.40 526.19 L 510.35 526.19 L 510.83 526.17 L 511.78 526.00 L 512.26 525.60 L 513.22 525.61 L 513.69 525.83 L 514.65 526.02 L 515.13 526.07 L 516.08 526.05 L 516.56 526.03 L 517.51 526.03 L 517.99 526.03 L 518.95 525.99 L 519.42 526.01 L 520.38 526.03 L 521.33 526.05 L 521.81 526.07 L 522.77 526.08 L 523.24 526.08 L 524.20 526.09 L 524.68 526.07 L 525.63 526.06 L 526.11 526.08 L 527.07 526.06 L 527.54 526.05 L 528.50 526.04 L 528.98 526.03 L 529.93 526.03 L 530.41 526.01 L 531.36 526.02 L 531.84 526.01 L 532.80 526.01 L 533.27 526.02 L 534.23 526.03 L 534.71 526.03 L 535.66 526.02 L 536.14 526.03 L 537.09 526.01 L 537.57 526.02 L 538.53 526.03 L 539.00 526.02 L 539.96 526.01 L 540.91 526.02 L 541.39 526.01 L 542.35 526.00 L 542.82 525.99 L 543.78 525.99 L 544.26 525.97 L 545.21 525.97 L 545.69 525.97 L 546.65 525.99 L 547.12 525.98 L 548.08 525.97 L 548.56 525.96 L 549.51 525.96 L 549.99 525.97 L 550.94 525.96 L 551.42 525.96 L 552.38 525.95 L 552.85 525.96 L 553.81 525.92 L 554.29 525.91 L 555.24 525.92 L 555.72 525.93 L 556.67 525.91 L 557.15 525.78 L 558.11 525.53 L 558.58 525.65 L 559.54 525.85 L 560.02 525.85 L 560.97 525.80 L 561.93 525.76 L 562.41 525.73 L 563.36 525.74 L 563.84 525.73 L 564.79 525.42 L 565.27 534.00 L 566.23 534.00 L 566.70 534.00 L 567.66 534.00 L 568.14 534.00 L 569.09 534.00 L 569.57 534.00 L 570.52 534.00 L 571.00 534.00 L 571.96 534.00 L 572.43 534.00 L 573.39 534.00 L 573.87 534.00 L 574.82 534.00 L 575.30 534.00 L 576.25 534.00 L 576.73 534.00 L 577.69 534.00 L 578.16 534.00 L 579.12 534.00 L 579.60 534.00 L 580.55 534.00 L 581.51 534.00 L 581.99 524.61 L 582.94 525.12 L 583.42 525.41 L 584.37 525.31 L 584.85 525.05 L 585.81 524.70 L 586.28 524.51 L 587.24 524.64 L 587.72 525.12 L 588.67 523.53 L 589.15 534.00 L 590.10 534.00 L 590.58 534.00 L 591.54 534.00 L 592.01 534.00 L 592.97 534.00 L 593.45 534.00 L 594.40 534.00 L 594.88 534.00 L 595.84 534.00 L 596.31 534.00 L 597.27 534.00 L 597.75 534.00 L 598.70 534.00 L 599.18 534.00 L 600.13 534.00 L 600.61 534.00 L 601.57 534.00 L 602.52 534.00 L 603.00 534.00 L 603.95 534.00 L 604.43 534.00 L 605.39 534.00 L 605.86 534.00 L 606.82 534.00 L 607.30 534.00 L 608.25 534.00 L 608.73 534.00 L 609.68 534.00 L 610.16 534.00 L 611.12 534.00 L 611.59 534.00 L 612.55 534.00 L 613.03 534.00 L 613.98 534.00 L 614.46 534.00 L 615.42 534.00 L 615.89 534.00 L 616.85 534.00 L 617.33 534.00 L 618.28 534.00 L 618.76 534.00 L 619.71 534.00 L 620.19 534.00 L 621.15 534.00 L 621.62 534.00 L 622.58 534.00 L 623.53 534.00 L 624.01 534.00 L 624.97 534.00 L 625.44 534.00 L 626.40 534.00 L 626.88 534.00 L 627.83 534.00 L 628.31 534.00 L 629.26 534.00 L 629.74 534.00 L 630.70 534.00 L 631.18 534.00 L 632.13 534.00 L 632.61 534.00 L 633.56 534.00 L 634.04 534.00 L 635.00 534.00 L 635.47 520.86 L 636.43 521.06 L 636.91 521.74 L 637.86 522.67 L 638.34 521.90 L 639.29 520.31 L 639.77 519.80 L 640.73 519.87 L 641.20 520.34 L 642.16 520.62 L 642.64 520.96 L 643.59 521.54 L 644.55 522.48 L 645.02 523.56 L 645.98 524.23 L 646.46 524.68 L 647.41 520.25 L 647.89 520.34 L 648.85 520.33 L 649.32 520.30 L 650.28 524.94 L 650.76 524.92 L 651.71 524.92 L 652.19 524.90 L 653.14 524.86 L 653.62 524.86 L 654.58 524.82 L 655.05 524.79 L 656.01 524.79 L 656.49 524.77 L 657.44 524.77 L 657.92 524.73 L 658.87 524.70 L 659.35 524.69 L 660.31 524.71 L 660.78 524.71 L 661.74 524.68 L 662.22 524.71 L 663.17 524.75 L 663.65 524.75 L 664.60 524.74 L 665.56 524.74 L 666.04 524.75 L 666.99 524.77 L 667.47 524.78 L 668.43 524.84 L 668.90 524.86 L 669.86 524.88 L 670.34 524.89 L 671.29 524.91 L 671.77 524.89 L 672.72 524.66 L 673.20 524.24 L 674.16 524.36 L 674.63 524.22 L 675.59 524.38 L 676.07 524.72 L 677.02 524.64 L 677.50 524.67 L 678.45 523.71 L 678.93 534.00 L 679.89 534.00 L 680.36 522.59 L 681.32 523.97 L 681.80 524.28 L 682.75 524.48 L 683.23 524.51 L 684.19 524.44 L 684.66 524.39 L 685.62 524.36 L 686.10 524.27 L 687.05 524.26 L 688.01 524.36 L 688.48 524.44 L 689.44 524.47 L 689.92 524.49 L 690.87 524.52 L 691.35 524.50 L 692.30 524.51 L 692.78 524.48 L 693.74 524.48 L 694.21 524.48 L 695.17 524.48 L 695.65 524.45 L 696.60 524.45 L 697.08 524.42 L 698.03 524.44 L 698.51 524.42 L 699.47 524.43 L 699.95 524.42 L 700.90 524.41 L 701.38 524.41 L 702.33 524.39 L 702.81 524.40 L 703.77 524.39 L 704.24 524.40 L 705.20 524.40 L 705.68 524.41 L 706.63 524.42 L 707.11 524.42 L 708.06 524.41 L 709.02 524.39 L 709.50 524.39 L 710.45 524.41 L 710.93 524.41 L 711.88 524.41 L 712.36 524.39 L 713.32 524.39 L 713.79 524.38 L 714.75 524.39 L 715.23 524.38 L 716.18 524.39 L 716.66 524.36 L 717.62 524.37 L 718.09 524.36 L 719.05 524.37 L 719.53 524.61 L 720.48 524.34 L 720.96 524.31 L 721.91 524.32 L 722.39 524.29 L 723.35 524.30 L 723.82 524.29 L 724.78 524.28 L 725.26 524.55 L 726.21 524.53 L 726.69 524.53 L 727.64 524.53 L 728.12 524.52 L 729.08 524.55 L 729.55 524.50 L 730.51 524.53 L 731.46 524.52 L 731.94 524.53 L 732.90 524.53 L 733.37 524.56 L 734.33 524.55 L 734.81 524.54 L 735.76 524.53 L 736.24 524.51 L 737.20 524.51 L 737.67 524.52 L 738.63 524.50 L 739.11 524.47 L 740.06 524.45 L 740.54 524.44 L 741.49 524.43 L 741.97 524.39 L 742.93 524.39 L 743.40 524.40 L 744.36 524.39 L 744.84 524.40 L 745.79 524.41 L 746.27 524.40 L 747.22 524.39 L 747.70 524.37 L 748.66 524.43 L 749.13 524.44 L 750.09 524.44 L 750.57 524.48 L 751.52 524.51 L 752.48 524.51 L 752.96 524.51 L 753.91 524.47 L 754.39 524.47 L 755.34 524.46 L 755.82 524.46 L 756.78 524.49 L 757.25 524.51 L 758.21 524.49 L 758.69 524.49 L 759.64 524.47 L 760.12 524.46 L 761.07 524.43 L 761.55 524.42 L 762.51 524.40 L 762.98 524.40 L 763.94 524.39 L 764.42 524.40 L 765.37 524.40 L 765.85 524.39 L 766.80 524.39 L 767.28 524.40 L 768.24 524.40 L 768.71 524.40 L 769.67 524.39 L 770.15 524.39 L 771.10 524.37 L 771.58 524.38 L 772.54 524.34 L 773.01 524.32 L 773.97 524.31 L 774.92 524.34 L 775.40 524.31 L 776.36 524.35 L 776.83 524.37 L 777.79 524.38 L 778.27 524.38 L 779.22 524.38 L 779.70 524.39 L 780.65 524.39 L 781.13 524.34 L 782.09 524.36 L 782.56 524.35 L 783.52 524.34 L 784.00 524.32 L 784.95 524.30 L 785.43 524.34 L 786.38 524.29 L 786.86 524.28 L 787.82 524.31 L 788.30 524.29 L 789.25 524.31 L 789.73 524.31 L 790.68 524.30 L 791.16 524.28 L 792.12 524.27 L 792.59 524.28 L 793.55 524.29 L 794.03 524.29 L 794.98 524.27 L 795.94 524.29 L 796.41 524.28 L 797.37 524.31 L 797.85 524.29 L 798.80 524.30 L 799.28 524.28 L 800.23 524.28 L 800.71 524.29 L 801.67 524.26 L 802.14 524.26 L 803.10 524.26 L 803.58 524.25 L 804.53 524.26 L 805.01 524.24 L 805.97 524.24 L 806.44 524.22 L 807.40 524.23 L 807.88 524.26 L 808.83 524.26 L 809.31 524.24 L 810.26 524.24 L 810.74 524.26 L 811.70 524.23 L 812.17 524.23 L 813.13 524.22 L 813.61 524.23 L 814.56 524.20 L 815.04 524.19 L 815.99 524.18 L 816.95 524.15 L 817.43 524.13 L 818.38 524.12 L 818.86 524.15 L 819.81 524.09 L 820.29 524.08 L 821.25 524.08 L 821.73 524.09 L 822.68 524.07 L 823.16 524.05 L 824.11 524.03 L 824.59 524.05 L 825.55 524.06 L 826.02 524.09 L 826.98 524.12 L 827.46 524.11 L 828.41 524.12 L 828.89 524.10 L 829.84 524.13 L 830.32 524.13 L 831.28 524.12 L 831.75 524.16 L 832.71 524.15 L 833.19 524.17 L 834.14 524.19 L 834.62 524.16 L 835.57 524.17 L 836.05 524.10 L 837.01 523.97 L 837.96 523.88 L 838.44 523.64 L 839.40 534.00 L 839.87 534.00 L 840.83 534.00 L 841.31 534.00 L 842.26 534.00 L 842.74 534.00 L 843.69 534.00 L 844.17 534.00 L 845.13 534.00 L 845.60 534.00 L 846.56 534.00 L 847.04 534.00 L 847.99 534.00 L 848.47 534.00 L 849.42 522.41 L 849.90 523.18 L 850.86 523.55 L 851.33 523.73 L 852.29 523.74 L 852.77 523.72 L 853.72 523.71 L 854.20 523.68 L 855.15 523.64 L 855.63 523.59 L 856.59 523.54 L 857.07 523.51 L 858.02 523.45 L 858.98 523.40 L 859.45 523.32 L 860.41 523.31 L 860.89 523.22 L 861.84 523.18 L 862.32 523.12 L 863.27 523.01 L 863.75 522.93 L 864.71 522.83 L 865.18 522.74 L 866.14 522.65 L 866.62 522.57 L 867.57 522.48 L 868.05 522.38 L 869.00 522.30 L 869.48 522.19 L 870.44 522.08 L 870.91 522.00 L 871.87 521.86 L 872.35 521.76 L 873.30 521.61 L 873.78 521.46 L 874.74 521.37 L 875.21 521.20 L 876.17 521.10 L 876.65 520.95 L 877.60 520.80 L 878.08 520.64 L 879.03 520.48 L 879.99 520.32 L 880.47 520.12 L 881.42 519.90 L 881.90 519.64 L 882.85 519.32 L 883.33 519.08 L 884.29 518.73 L 884.76 518.40 L 885.72 517.97 L 886.20 517.58 L 887.15 517.03 L 887.63 516.55 L 888.58 516.03 L 889.06 515.52 L 890.02 514.95 L 890.49 514.47 L 891.45 513.92 L 891.93 513.26 L 892.88 534.00 L 893.36 534.00 L 894.32 534.00 L 894.79 534.00 L 895.75 534.00 L 896.23 534.00 L 897.18 534.00 L 897.66 534.00 L 898.61 534.00 L 899.57 534.00 L 900.05 534.00 L 901.00 534.00 L 901.48 534.00 L 902.43 534.00 L 902.91 534.00 L 903.87 534.00 L 904.34 534.00 L 905.30 534.00 L 905.78 534.00 L 906.73 534.00 L 907.21 534.00 L 908.16 534.00 L 908.64 534.00 L 909.60 534.00 L 910.08 534.00 L 911.03 534.00 L 911.51 534.00 L 912.46 534.00 L 912.94 534.00 L 913.90 534.00 L 914.37 534.00 L 915.33 534.00 L 915.81 534.00 L 916.76 534.00 L 917.24 534.00 L 918.19 534.00 L 918.67 534.00 L 919.63 534.00 L 920.58 534.00 L 921.06 534.00 L 922.01 534.00 L 922.49 534.00 L 923.45 534.00 L 923.92 534.00 L 924.88 534.00 L 925.36 534.00 L 926.31 534.00 L 926.79 534.00 L 927.75 534.00 L 928.22 534.00 L 929.18 534.00 L 929.66 534.00 L 930.61 534.00 L 931.09 534.00 L 932.04 534.00 L 932.52 534.00 L 933.48 534.00 L 933.95 534.00 L 934.91 534.00 L 935.39 534.00 L 936.34 534.00 L 936.82 534.00 L 937.77 534.00 L 938.25 534.00 L 939.21 534.00 L 939.68 534.00 L 940.64 534.00 L 941.59 534.00 L 942.07 534.00 L 943.03 534.00 L 943.51 534.00 L 944.46 534.00 L 944.94 534.00 L 945.89 534.00 L 946.37 534.00 L 947.33 534.00 L 947.80 534.00 L 948.76 534.00 L 949.24 534.00 L 950.19 534.00 L 950.67 534.00 L 951.62 534.00 L 952.10 534.00 L 953.06 534.00 L 953.53 534.00 L 954.49 534.00 L 954.97 534.00 L 955.92 534.00 L 956.40 534.00 L 957.35 534.00 L 957.83 534.00 L 958.79 534.00 L 959.26 534.00 L 960.22 534.00 L 960.70 534.00 L 961.65 534.00 L 962.61 534.00 L 963.09 534.00 L 964.04 534.00 L 964.52 534.00 L 965.47 534.00 L 965.95 534.00 L 966.91 534.00 L 967.38 534.00 L 968.34 534.00 L 968.82 534.00 L 969.77 534.00 L 970.25 534.00 L 971.20 534.00 L 971.68 534.00 L 972.64 534.00 L 973.11 534.00 L 974.07 534.00 L 974.55 534.00 L 975.50 534.00 L 975.98 534.00 L 976.93 534.00 L 977.41 534.00 L 978.37 534.00 L 978.85 534.00 L 979.80 534.00 L 980.28 534.00 L 981.23 534.00 L 981.71 534.00 L 982.67 534.00 L 983.62 534.00 L 984.10 534.00 L 985.05 534.00 L 985.53 534.00 L 986.49 534.00 L 986.96 534.00 L 987.92 534.00 L 988.40 534.00 L 989.35 534.00 L 989.83 534.00 L 990.78 534.00 L 991.26 534.00 L 992.22 534.00 L 992.69 534.00 L 993.65 534.00 L 994.13 534.00 L 995.08 534.00 L 995.56 534.00 L 996.52 534.00 L 996.99 534.00 L 997.95 534.00 L 998.43 534.00 L 999.38 534.00 L 999.86 534.00 L 1000.81 534.00 L 1001.29 534.00 L 1002.25 534.00 L 1002.72 534.00 L 1003.68 534.00 L 1004.16 534.00 L 1005.11 534.00 L 1006.07 534.00 L 1006.54 534.00 L 1007.50 534.00 L 1007.98 534.00 L 1008.93 534.00 L 1009.41 534.00 L 1010.36 534.00 L 1010.84 534.00 L 1011.80 534.00 L 1012.27 534.00 L 1013.23 534.00 L 1013.71 534.00 L 1014.66 534.00 L 1015.14 534.00 L 1016.10 534.00 L 1016.57 534.00 L 1017.53 534.00 L 1018.01 534.00 L 1018.96 534.00 L 1019.44 534.00 L 1020.39 534.00 L 1020.87 534.00 L 1021.83 534.00 L 1022.30 534.00 L 1023.26 534.00 L 1023.74 534.00 L 1024.69 534.00 L 1025.17 534.00 L 1026.12 534.00 L 1027.08 534.00 L 1027.56 534.00 L 1028.51 534.00 L 1028.99 534.00 L 1029.95 534.00 L 1030.42 534.00 L 1031.38 534.00 L 1031.86 534.00 L 1032.81 534.00 L 1033.29 530.11 L 1034.24 530.55 L 1034.72 530.83 L 1035.68 530.97 L 1036.15 530.99 L 1037.11 530.95 L 1037.59 530.90 L 1038.54 530.86 L 1039.02 530.81 L 1039.97 530.75 L 1040.45 530.69 L 1041.41 530.63 L 1041.88 530.56 L 1042.84 530.49 L 1043.32 534.00 L 1044.27 534.00 L 1044.75 534.00 L 1045.70 534.00 L 1046.18 534.00 L 1047.14 534.00 L 1047.62 534.00 L 1048.57 534.00 L 1049.53 534.00 L 1050.00 534.00 L 1050.96 534.00 L 1051.44 534.00 L 1052.39 534.00 L 1052.87 534.00 L 1053.82 534.00 L 1054.30 534.00 L 1055.26 534.00 L 1055.73 534.00 L 1056.69 534.00 L 1057.17 534.00 L 1058.12 534.00 L 1058.60 534.00 L 1059.55 534.00 L 1060.03 534.00 L 1060.99 534.00 L 1061.46 534.00 L 1062.42 534.00 L 1062.90 534.00 L 1063.85 534.00 L 1064.33 534.00 L 1065.29 534.00 L 1065.76 534.00 L 1066.72 534.00 L 1067.20 534.00 L 1068.15 534.00 L 1068.63 534.00 L 1069.58 534.00 L 1070.06 534.00 L 1071.02 534.00 L 1071.97 534.00 L 1072.45 534.00 L 1073.40 534.00 L 1073.88 534.00 L 1074.84 534.00 L 1075.31 534.00 L 1076.27 534.00 L 1076.75 534.00 L 1077.70 534.00 L 1078.18 534.00 L 1079.13 534.00 L 1079.61 534.00 L 1080.57 534.00 L 1081.04 534.00 L 1082.00 534.00" fill="none" stroke="#10b981" stroke-width="2.7"/>
<text x="560.0" y="602" text-anchor="middle" font-family="Arial, sans-serif" font-size="13" fill="#475569">Wall Clock Time</text>
<text transform="translate(25 306.0) rotate(-90)" text-anchor="middle" font-family="Arial, sans-serif" font-size="13" fill="#475569">Efficiency (W/klux)</text>
<rect x="727" y="96" width="335" height="54" rx="8" fill="#ffffff" stroke="#cbd5e1"/>
<line x1="745" y1="121" x2="785" y2="121" stroke="#10b981" stroke-width="2.8"/>
<text x="797" y="126" font-family="Arial, sans-serif" font-size="13" fill="#1e293b">Normalised Efficiency</text>
</svg>