<svg xmlns="http://www.w3.org/2000/svg" width="1120" height="620" viewBox="0 0 1120 620">
<rect width="100%" height="100%" fill="#f8fafc"/>
<rect x="92" y="78" width="990" height="456" fill="#ffffff" stroke="#cbd5e1"/>
<text x="560.0" y="34" text-anchor="middle" font-family="Arial, sans-serif" font-size="21" font-weight="700" fill="#1e293b">Normalised Efficiency - 13 deg Tilt - Morning Session</text>
<text x="560.0" y="58" text-anchor="middle" font-family="Arial, sans-serif" font-size="12" fill="#475569">1477 readings from 09:48:33 to 10:31:38</text>
<line x1="92" y1="534.00" x2="1082" y2="534.00" stroke="#cbd5e1" stroke-dasharray="5 5" opacity="0.75"/>
<text x="80" y="538.00" text-anchor="end" font-family="Arial, sans-serif" font-size="12" fill="#475569">0.000</text>
<line x1="92" y1="442.80" x2="1082" y2="442.80" stroke="#cbd5e1" stroke-dasharray="5 5" opacity="0.75"/>
<text x="80" y="446.80" text-anchor="end" font-family="Arial, sans-serif" font-size="12" fill="#475569">0.002</text>
<line x1="92" y1="351.60" x2="1082" y2="351.60" stroke="#cbd5e1" stroke-dasharray="5 5" opacity="0.75"/>
<text x="80" y="355.60" text-anchor="end" font-family="Arial, sans-serif" font-size="12" fill="#475569">0.004</text>
<line x1="92" y1="260.40" x2="1082" y2="260.40" stroke="#cbd5e1" stroke-dasharray="5 5" opacity="0.75"/>
<text x="80" y="264.40" text-anchor="end" font-family="Arial, sans-serif" font-size="12" fill="#475569">0.006</text>
<line x1="92" y1="169.20" x2="1082" y2="169.20" stroke="#cbd5e1" stroke-dasharray="5 5" opacity="0.75"/>
<text x="80" y="173.20" text-anchor="end" font-family="Arial, sans-serif" font-size="12" fill="#475569">0.008</text>
<line x1="92" y1="78.00" x2="1082" y2="78.00" stroke="#cbd5e1" stroke-dasharray="5 5" opacity="0.75"/>
<text x="80" y="82.00" text-anchor="end" font-family="Arial, sans-serif" font-size="12" fill="#475569">0.010</text>
<line x1="92.00" y1="78" x2="92.00" y2="534" stroke="#e2e8f0" stroke-dasharray="4 6"/>
<text x="92.00" y="568" text-anchor="middle" font-family="Arial, sans-serif" font-size="12" fill="#475569">09:48:33</text>
<line x1="257.00" y1="78" x2="257.00" y2="534" stroke="#e2e8f0" stroke-dasharray="4 6"/>
<text x="257.00" y="568" text-anchor="middle" font-family="Arial, sans-serif" font-size="12" fill="#475569">09:55:43</text>
<line x1="422.00" y1="78" x2="422.00" y2="534" stroke="#e2e8f0" stroke-dasharray="4 6"/>
<text x="422.00" y="568" text-anchor="middle" font-family="Arial, sans-serif" font-size="12" fill="#475569">10:02:54</text>
<line x1="587.00" y1="78" x2="587.00" y2="534" stroke="#e2e8f0" stroke-dasharray="4 6"/>
<text x="587.00" y="568" text-anchor="middle" font-family="Arial, sans-serif" font-size="12" fill="#475569">10:10:05</text>
<line x1="752.00" y1="78" x2="752.00" y2="534" stroke="#e2e8f0" stroke-dasharray="4 6"/>
<text x="752.00" y="568" text-anchor="middle" font-family="Arial, sans-serif" font-size="12" fill="#475569">10:17:16</text>
<line x1="917.00" y1="78" x2="917.00" y2="534" stroke="#e2e8f0" stroke-dasharray="4 6"/>
<text x="917.00" y="568" text-anchor="middle" font-family="Arial, sans-serif" font-size="12" fill="#475569">10:24:27</text>
<line x1="1082.00" y1="78" x2="1082.00" y2="534" stroke="#e2e8f0" stroke-dasharray="4 6"/>
<text x="1082.00" y="568" text-anchor="middle" font-family="Arial, sans-serif" font-size="12" fill="#475569">10:31:38</text>
<path d="M 92.00 490.14 L 92.77 490.21 L 93.15 490.11 L 93.91 490.10 L 94.30 490.03 L 95.06 489.85 L 95.45 489.78 L 96.21 489.88 L 96.98 489.86 L 97.36 489.80 L 98.13 489.79 L 98.51 489.78 L 99.28 489.84 L 99.66 490.04 L 100.43 526.73 L 100.81 529.20 L 101.57 529.22 L 101.96 529.13 L 102.72 529.12 L 103.11 529.13 L 103.87 529.05 L 104.26 529.08 L 105.02 529.08 L 105.40 529.11 L 106.17 534.00 L 106.55 534.00 L 107.32 513.89 L 107.70 513.86 L 108.47 526.53 L 108.85 513.81 L 109.62 513.82 L 110.00 513.81 L 110.77 513.82 L 111.15 513.80 L 111.91 513.89 L 112.30 513.87 L 113.06 513.82 L 113.45 513.82 L 114.21 513.81 L 114.60 513.79 L 115.36 513.81 L 115.74 513.80 L 116.51 513.79 L 116.89 513.79 L 117.66 513.73 L 118.04 513.67 L 118.81 513.34 L 119.57 513.39 L 119.96 513.15 L 120.72 513.17 L 121.11 513.69 L 121.87 513.81 L 122.26 513.86 L 123.02 513.86 L 123.40 513.86 L 124.17 513.90 L 124.55 513.94 L 125.32 513.95 L 125.70 514.00 L 126.47 513.99 L 126.85 514.04 L 127.62 514.07 L 128.00 514.09 L 128.77 514.13 L 129.15 514.18 L 129.91 514.21 L 130.30 514.27 L 131.06 514.28 L 131.45 514.30 L 132.21 514.29 L 132.60 514.31 L 133.36 514.32 L 133.74 514.31 L 134.51 514.33 L 134.89 514.35 L 135.66 514.31 L 136.04 514.30 L 136.81 514.28 L 137.19 514.27 L 137.96 514.22 L 138.34 514.19 L 139.11 514.19 L 139.87 514.18 L 140.26 514.14 L 141.02 514.16 L 141.40 514.22 L 142.17 514.28 L 142.55 514.31 L 143.32 514.44 L 143.70 514.50 L 144.47 514.49 L 144.85 514.54 L 145.62 514.53 L 146.00 514.54 L 146.77 514.56 L 147.15 514.54 L 147.91 514.51 L 148.30 514.51 L 149.06 514.48 L 149.45 514.48 L 150.21 514.51 L 150.60 514.51 L 151.36 514.49 L 151.74 514.49 L 152.51 514.46 L 152.89 514.47 L 153.66 514.42 L 154.04 514.37 L 154.81 514.28 L 155.19 514.21 L 155.96 514.21 L 156.34 514.15 L 157.11 514.17 L 157.49 514.18 L 158.26 514.17 L 158.64 516.57 L 159.40 516.65 L 159.79 516.63 L 160.55 516.58 L 161.32 516.49 L 161.70 516.44 L 162.47 516.41 L 162.85 516.34 L 163.62 516.34 L 164.00 516.35 L 164.77 516.41 L 165.15 516.37 L 165.91 516.45 L 166.30 516.47 L 167.06 516.48 L 167.45 516.54 L 168.21 516.58 L 168.60 516.60 L 169.36 516.65 L 169.74 516.68 L 170.51 516.66 L 170.89 516.73 L 171.66 516.65 L 172.04 516.67 L 172.81 516.64 L 173.19 516.61 L 173.96 521.58 L 174.34 521.59 L 175.11 521.55 L 175.49 521.55 L 176.26 521.52 L 176.64 521.50 L 177.40 521.50 L 177.79 521.50 L 178.55 521.50 L 178.94 521.51 L 179.70 521.49 L 180.09 521.52 L 180.85 521.55 L 181.62 521.58 L 182.00 521.56 L 182.77 521.53 L 183.15 521.48 L 183.91 521.46 L 184.30 521.44 L 185.06 521.41 L 185.45 521.40 L 186.21 521.39 L 186.60 521.40 L 187.36 521.41 L 187.74 521.39 L 188.51 521.37 L 188.89 526.40 L 189.66 526.34 L 190.04 526.25 L 190.81 526.16 L 191.19 526.05 L 191.96 525.93 L 192.34 525.80 L 193.11 525.68 L 193.49 525.57 L 194.26 525.49 L 194.64 525.44 L 195.40 525.41 L 195.79 525.41 L 196.55 525.41 L 196.94 525.42 L 197.70 525.46 L 198.09 525.51 L 198.85 525.57 L 199.23 525.66 L 200.00 525.74 L 200.38 525.81 L 201.15 525.87 L 201.53 525.92 L 202.30 525.95 L 203.06 525.94 L 203.45 525.92 L 204.21 525.88 L 204.60 528.49 L 205.36 528.45 L 205.74 528.40 L 206.51 528.33 L 206.89 528.29 L 207.66 528.27 L 208.04 528.28 L 208.81 528.33 L 209.19 528.37 L 209.96 528.40 L 210.34 528.42 L 211.11 528.48 L 211.49 528.38 L 212.26 527.79 L 212.64 526.74 L 213.40 526.57 L 213.79 534.00 L 214.55 534.00 L 214.94 534.00 L 215.70 534.00 L 216.09 534.00 L 216.85 523.99 L 217.23 507.53 L 218.00 518.58 L 218.38 534.00 L 219.15 511.67 L 219.53 513.72 L 220.30 522.21 L 220.68 511.30 L 221.45 513.05 L 221.83 508.29 L 222.60 508.47 L 223.36 508.57 L 223.74 508.73 L 224.51 509.08 L 224.89 508.91 L 225.66 508.24 L 226.04 508.93 L 226.81 508.59 L 227.19 507.80 L 227.96 508.16 L 228.34 509.09 L 229.11 509.25 L 229.49 509.45 L 230.26 514.94 L 230.64 513.28 L 231.40 510.48 L 231.79 510.40 L 232.55 510.54 L 232.94 513.53 L 233.70 513.47 L 234.09 513.34 L 234.85 513.14 L 235.23 513.01 L 236.00 513.02 L 236.38 512.93 L 237.15 524.96 L 237.53 524.95 L 238.30 527.90 L 238.68 528.01 L 239.45 528.02 L 239.83 528.04 L 240.60 528.03 L 240.98 528.03 L 241.74 528.04 L 242.13 528.04 L 242.89 528.00 L 243.28 527.96 L 244.04 527.92 L 244.81 527.88 L 245.19 527.82 L 245.96 527.74 L 246.34 527.61 L 247.11 527.47 L 247.49 527.35 L 248.26 527.17 L 248.64 513.51 L 249.40 512.85 L 249.79 512.32 L 250.55 511.80 L 250.94 534.00 L 251.70 534.00 L 252.09 534.00 L 252.85 534.00 L 253.23 534.00 L 254.00 534.00 L 254.38 519.12 L 255.15 518.97 L 255.53 518.87 L 256.30 518.79 L 256.68 518.75 L 257.45 518.64 L 257.83 518.57 L 258.60 523.46 L 258.98 534.00 L 259.74 534.00 L 260.13 517.97 L 260.89 517.62 L 261.28 517.19 L 262.04 516.81 L 262.43 516.50 L 263.19 516.22 L 263.57 515.92 L 264.34 515.63 L 265.11 515.35 L 265.49 521.31 L 266.26 521.18 L 266.64 521.04 L 267.40 520.93 L 267.79 520.82 L 268.55 520.71 L 268.94 520.58 L 269.70 520.40 L 270.09 520.17 L 270.85 519.86 L 271.23 519.51 L 272.00 519.14 L 272.38 534.00 L 273.15 534.00 L 273.53 534.00 L 274.30 534.00 L 274.68 534.00 L 275.45 534.00 L 275.83 534.00 L 276.60 534.00 L 276.98 534.00 L 277.74 534.00 L 278.13 534.00 L 278.89 534.00 L 279.28 534.00 L 280.04 534.00 L 280.43 534.00 L 281.19 534.00 L 281.57 534.00 L 282.34 534.00 L 282.72 534.00 L 283.49 534.00 L 283.87 534.00 L 284.64 534.00 L 285.02 534.00 L 285.79 534.00 L 286.55 534.00 L 286.94 534.00 L 287.70 534.00 L 288.09 534.00 L 288.85 534.00 L 289.23 534.00 L 290.00 534.00 L 290.38 534.00 L 291.15 534.00 L 291.53 519.49 L 292.30 520.28 L 292.68 520.84 L 293.45 521.33 L 293.83 521.80 L 294.60 522.19 L 294.98 522.59 L 295.74 522.94 L 296.13 517.79 L 296.89 518.22 L 297.28 518.22 L 298.04 518.33 L 298.43 519.41 L 299.19 519.77 L 299.57 520.25 L 300.34 520.61 L 300.72 520.91 L 301.49 521.26 L 301.87 521.12 L 302.64 513.17 L 303.02 514.17 L 303.79 514.92 L 304.17 514.33 L 304.94 521.00 L 305.32 511.81 L 306.09 507.49 L 306.47 504.16 L 307.23 504.62 L 308.00 504.17 L 308.38 504.79 L 309.15 505.87 L 309.53 500.01 L 310.30 500.62 L 310.68 501.86 L 311.45 499.29 L 311.83 499.82 L 312.60 500.26 L 312.98 500.76 L 313.74 501.11 L 314.13 501.47 L 314.89 522.69 L 315.28 498.25 L 316.04 495.59 L 316.43 534.00 L 317.19 534.00 L 317.57 534.00 L 318.34 419.46 L 318.72 534.00 L 319.49 534.00 L 319.87 498.32 L 320.64 499.60 L 321.02 493.40 L 321.79 496.40 L 322.17 497.28 L 322.94 493.54 L 323.32 493.66 L 324.09 499.29 L 324.47 534.00 L 325.23 534.00 L 325.62 502.40 L 326.38 528.73 L 326.77 510.44 L 327.53 509.79 L 327.91 487.85 L 328.68 251.07 L 329.45 502.88 L 329.83 497.55 L 330.60 498.52 L 330.98 497.46 L 331.74 497.13 L 332.13 497.29 L 332.89 488.90 L 333.28 488.84 L 334.04 489.11 L 334.43 509.12 L 335.19 509.12 L 335.57 509.12 L 336.34 509.12 L 336.72 482.33 L 337.49 482.36 L 337.87 482.60 L 338.64 482.68 L 339.02 483.13 L 339.79 508.82 L 340.17 514.42 L 340.94 516.54 L 341.32 512.71 L 342.09 493.67 L 342.47 490.24 L 343.23 476.98 L 343.62 477.88 L 344.38 478.35 L 344.77 478.60 L 345.53 478.21 L 345.91 476.50 L 346.68 477.49 L 347.06 506.03 L 347.83 506.03 L 348.21 506.03 L 348.98 506.03 L 349.36 506.11 L 350.13 506.11 L 350.89 534.00 L 351.28 498.92 L 352.04 506.11 L 352.43 506.11 L 353.19 506.11 L 353.57 534.00 L 354.34 509.20 L 354.72 509.20 L 355.49 509.20 L 355.87 509.20 L 356.64 509.20 L 357.02 506.11 L 357.79 506.11 L 358.17 506.11 L 358.94 506.11 L 359.32 506.11 L 360.09 510.79 L 360.47 518.55 L 361.23 518.55 L 361.62 527.32 L 362.38 528.54 L 362.77 527.07 L 363.53 534.00 L 363.91 527.08 L 364.68 528.22 L 365.06 526.37 L 365.83 521.49 L 366.21 518.55 L 366.98 522.59 L 367.36 518.55 L 368.13 510.79 L 368.51 513.88 L 369.28 513.88 L 369.66 510.79 L 370.43 506.20 L 371.19 506.20 L 371.57 510.79 L 372.34 518.55 L 372.72 521.64 L 373.49 518.19 L 373.87 506.20 L 374.64 506.20 L 375.02 503.11 L 375.79 506.20 L 376.17 506.20 L 376.94 510.87 L 377.32 518.55 L 378.09 517.05 L 378.47 509.28 L 379.23 503.19 L 379.62 503.19 L 380.38 503.19 L 380.77 503.19 L 381.53 503.19 L 381.91 503.19 L 382.68 510.87 L 383.06 524.94 L 383.83 524.76 L 384.21 528.66 L 384.98 523.23 L 385.36 521.64 L 386.13 509.37 L 386.51 503.19 L 387.28 503.19 L 387.66 503.19 L 388.43 506.28 L 388.81 506.28 L 389.57 503.27 L 389.96 503.27 L 390.72 503.27 L 391.11 503.27 L 391.87 503.27 L 392.64 503.27 L 393.02 503.27 L 393.79 503.27 L 394.17 503.27 L 394.94 503.27 L 395.32 503.27 L 396.09 503.27 L 396.47 503.27 L 397.23 503.27 L 397.62 503.27 L 398.38 503.27 L 398.77 503.27 L 399.53 503.27 L 399.91 503.27 L 400.68 503.36 L 401.06 503.36 L 401.83 503.36 L 402.21 503.36 L 402.98 503.36 L 403.36 503.36 L 404.13 503.36 L 404.51 503.36 L 405.28 503.36 L 405.66 503.36 L 406.43 503.36 L 406.81 503.36 L 407.57 503.36 L 407.96 503.44 L 408.72 503.44 L 409.11 503.44 L 409.87 503.44 L 410.26 523.31 L 411.02 503.44 L 411.40 503.44 L 412.17 503.44 L 412.94 503.44 L 413.32 503.44 L 414.09 503.44 L 414.47 503.44 L 415.23 503.44 L 415.62 503.44 L 416.38 503.44 L 416.77 506.53 L 417.53 506.53 L 417.91 506.53 L 418.68 503.44 L 419.06 503.52 L 419.83 506.53 L 420.21 509.62 L 420.98 518.72 L 421.36 528.01 L 422.13 534.00 L 422.51 534.00 L 423.28 534.00 L 423.66 534.00 L 424.43 534.00 L 424.81 534.00 L 425.57 534.00 L 425.96 534.00 L 426.72 534.00 L 427.11 534.00 L 427.87 534.00 L 428.26 534.00 L 429.02 534.00 L 429.40 534.00 L 430.17 534.00 L 430.55 534.00 L 431.32 534.00 L 432.09 534.00 L 432.47 534.00 L 433.23 534.00 L 433.62 534.00 L 434.38 511.12 L 434.77 506.61 L 435.53 506.61 L 435.91 506.61 L 436.68 506.61 L 437.06 506.61 L 437.83 506.61 L 438.21 506.61 L 438.98 506.61 L 439.36 506.61 L 440.13 506.61 L 440.51 506.61 L 441.28 514.21 L 441.66 514.21 L 442.43 514.21 L 442.81 514.21 L 443.57 514.21 L 443.96 514.21 L 444.72 514.21 L 445.11 517.30 L 445.87 517.30 L 446.26 517.30 L 447.02 517.30 L 447.40 518.80 L 448.17 518.80 L 448.55 523.31 L 449.32 523.31 L 449.70 523.31 L 450.47 523.31 L 451.23 523.31 L 451.62 526.40 L 452.38 526.40 L 452.77 526.40 L 453.53 526.40 L 453.91 526.40 L 454.68 526.40 L 455.06 526.40 L 455.83 526.40 L 456.21 526.40 L 456.98 526.40 L 457.36 526.40 L 458.13 526.40 L 458.51 529.41 L 459.28 529.41 L 459.66 529.41 L 460.43 529.41 L 460.81 529.41 L 461.57 529.41 L 461.96 529.41 L 462.72 529.41 L 463.11 529.41 L 463.87 529.41 L 464.26 529.41 L 465.02 529.41 L 465.40 529.41 L 466.17 529.41 L 466.55 529.41 L 467.32 529.41 L 467.70 530.99 L 468.47 530.99 L 468.85 530.99 L 469.62 530.99 L 470.00 530.99 L 470.77 530.99 L 471.53 530.99 L 471.91 530.99 L 472.68 530.99 L 473.06 530.99 L 473.83 530.99 L 474.21 530.99 L 474.98 530.99 L 475.36 530.99 L 476.13 534.00 L 476.51 534.00 L 477.28 530.99 L 477.66 534.00 L 478.43 534.00 L 478.81 534.00 L 479.57 534.00 L 479.96 534.00 L 480.72 534.00 L 481.11 534.00 L 481.87 534.00 L 482.26 534.00 L 483.02 534.00 L 483.40 534.00 L 484.17 530.99 L 484.55 530.99 L 485.32 530.94 L 485.70 534.00 L 486.47 534.00 L 486.85 534.00 L 487.62 534.00 L 488.00 534.00 L 488.77 534.00 L 489.15 534.00 L 489.91 534.00 L 490.68 534.00 L 491.06 530.20 L 491.83 530.39 L 492.21 530.91 L 492.98 530.91 L 493.36 530.91 L 494.13 530.91 L 494.51 530.91 L 495.28 530.91 L 495.66 530.91 L 496.43 530.91 L 496.81 530.91 L 497.57 530.91 L 497.96 530.91 L 498.72 530.91 L 499.11 530.91 L 499.87 530.91 L 500.26 530.91 L 501.02 530.91 L 501.40 530.91 L 502.17 530.91 L 502.55 530.91 L 503.32 530.91 L 503.70 530.91 L 504.47 530.91 L 504.85 530.91 L 505.62 530.91 L 506.00 530.91 L 506.77 530.91 L 507.15 530.91 L 507.91 530.91 L 508.30 534.00 L 509.06 534.00 L 509.45 534.00 L 510.21 534.00 L 510.98 534.00 L 511.36 534.00 L 512.13 534.00 L 512.51 534.00 L 513.28 534.00 L 513.66 534.00 L 514.43 534.00 L 514.81 534.00 L 515.57 534.00 L 515.96 534.00 L 516.72 534.00 L 517.11 534.00 L 517.87 534.00 L 518.26 534.00 L 519.02 534.00 L 519.40 534.00 L 651.15 534.00 L 651.53 534.00 L 651.53 397.89 L 651.53 526.32 L 651.53 529.41 L 651.53 526.32 L 651.53 526.32 L 651.53 529.09 L 651.53 529.93 L 651.53 528.02 L 651.53 529.36 L 651.53 526.32 L 651.53 526.32 L 651.53 528.63 L 651.53 523.23 L 651.53 534.00 L 651.53 521.73 L 651.53 521.73 L 651.53 521.73 L 651.53 521.73 L 651.53 521.73 L 651.53 521.73 L 651.53 521.73 L 651.53 521.73 L 651.53 521.73 L 651.53 523.23 L 651.53 523.23 L 651.53 523.23 L 651.53 523.23 L 651.53 523.23 L 651.53 523.23 L 651.53 523.23 L 651.53 523.23 L 651.53 523.23 L 651.53 529.41 L 651.53 529.41 L 651.53 529.41 L 651.53 529.41 L 651.53 529.41 L 651.53 530.74 L 651.53 530.91 L 651.53 530.91 L 651.53 529.41 L 651.53 529.41 L 651.53 529.41 L 651.53 529.41 L 651.53 529.41 L 651.53 529.41 L 651.53 529.41 L 651.53 529.41 L 651.53 529.41 L 651.53 529.41 L 651.53 529.41 L 651.53 529.41 L 651.53 529.41 L 651.53 529.41 L 651.53 529.41 L 651.53 529.41 L 651.53 530.91 L 651.53 530.91 L 651.53 530.91 L 651.53 530.91 L 651.53 530.91 L 651.53 530.91 L 651.53 530.91 L 651.53 530.91 L 651.53 530.91 L 651.53 530.91 L 651.53 530.91 L 651.53 530.91 L 651.53 530.91 L 651.53 530.91 L 651.53 530.91 L 651.53 530.91 L 651.53 530.91 L 651.53 530.91 L 651.53 530.91 L 651.53 530.91 L 651.53 530.91 L 651.53 530.91 L 651.53 530.91 L 651.53 534.00 L 651.53 530.91 L 651.53 530.91 L 651.53 530.91 L 651.53 530.91 L 651.53 530.91 L 651.53 534.00 L 651.53 534.00 L 652.30 534.00 L 652.68 534.00 L 758.77 534.00 L 758.77 534.00 L 758.77 534.00 L 758.77 534.00 L 758.77 534.00 L 758.77 534.00 L 758.77 534.00 L 758.77 534.00 L 758.77 534.00 L 758.77 534.00 L 758.77 534.00 L 758.77 534.00 L 758.77 534.00 L 758.77 534.00 L 758.77 534.00 L 758.77 534.00 L 758.77 534.00 L 758.77 534.00 L 758.77 534.00 L 758.77 534.00 L 758.77 534.00 L 758.77 534.00 L 758.77 534.00 L 758.77 534.00 L 758.77 534.00 L 758.77 534.00 L 758.77 534.00 L 758.77 534.00 L 758.77 534.00 L 758.77 534.00 L 758.77 534.00 L 758.77 534.00 L 758.77 534.00 L 758.77 534.00 L 758.77 534.00 L 758.77 534.00 L 758.77 534.00 L 758.77 534.00 L 758.77 534.00 L 758.77 534.00 L 758.77 534.00 L 758.77 534.00 L 758.77 534.00 L 758.77 534.00 L 758.77 534.00 L 758.77 534.00 L 758.77 534.00 L 758.77 534.00 L 758.77 534.00 L 759.15 534.00 L 759.15 534.00 L 759.15 534.00 L 759.15 534.00 L 759.15 534.00 L 759.15 534.00 L 759.15 534.00 L 759.15 534.00 L 759.15 534.00 L 759.15 534.00 L 759.15 534.00 L 759.15 534.00 L 759.15 534.00 L 759.15 534.00 L 759.15 534.00 L 759.15 534.00 L 759.15 534.00 L 759.15 534.00 L 759.15 534.00 L 759.15 534.00 L 759.15 534.00 L 759.15 534.00 L 759.15 534.00 L 759.15 534.00 L 759.15 534.00 L 759.15 534.00 L 759.15 534.00 L 759.15 534.00 L 759.15 534.00 L 759.15 534.00 L 759.15 534.00 L 759.15 534.00 L 759.15 534.00 L 759.15 534.00 L 759.15 534.00 L 759.15 534.00 L 759.15 534.00 L 759.15 534.00 L 759.15 534.00 L 759.15 502.44 L 759.15 502.44 L 759.15 502.44 L 759.53 502.44 L 759.91 502.44 L 760.68 502.44 L 761.06 502.44 L 761.83 502.44 L 762.21 502.44 L 762.98 502.44 L 763.36 502.44 L 764.13 502.44 L 764.51 502.44 L 765.28 502.44 L 765.66 502.44 L 766.43 502.44 L 766.81 502.44 L 767.57 502.44 L 767.96 502.44 L 768.72 502.44 L 769.11 502.44 L 769.87 502.44 L 770.26 502.44 L 771.02 502.44 L 771.40 502.44 L 772.17 502.44 L 772.55 502.44 L 773.32 502.44 L 774.09 502.44 L 774.47 502.44 L 775.23 502.44 L 775.62 502.44 L 776.38 502.44 L 776.77 502.44 L 777.53 502.44 L 777.91 502.44 L 778.68 502.52 L 779.06 502.52 L 779.83 502.52 L 780.21 502.52 L 780.98 502.52 L 781.36 502.52 L 782.13 502.52 L 782.51 502.52 L 783.28 502.52 L 783.66 502.52 L 784.43 505.69 L 784.81 505.69 L 785.57 505.69 L 785.96 505.69 L 786.72 505.69 L 787.11 505.69 L 787.87 502.60 L 788.26 505.69 L 789.02 505.69 L 789.40 513.54 L 790.17 513.54 L 790.55 513.63 L 791.32 513.63 L 791.70 513.63 L 792.47 513.63 L 792.85 513.63 L 793.62 513.63 L 794.00 513.63 L 794.77 516.72 L 795.15 521.48 L 795.91 521.48 L 796.30 521.48 L 797.06 521.48 L 797.83 518.30 L 798.21 521.48 L 798.98 521.48 L 799.36 521.48 L 800.13 518.30 L 800.51 521.48 L 801.28 521.48 L 801.66 521.48 L 802.43 521.48 L 802.81 521.48 L 803.57 521.48 L 803.96 521.48 L 804.72 518.39 L 805.11 521.48 L 805.87 518.39 L 806.26 521.48 L 807.02 518.39 L 807.40 518.39 L 808.17 518.39 L 808.55 518.39 L 809.32 518.39 L 809.70 518.39 L 810.47 518.39 L 810.85 518.39 L 811.62 521.56 L 812.00 521.56 L 812.77 518.39 L 813.15 518.39 L 813.91 518.39 L 814.30 518.39 L 815.06 518.39 L 815.45 518.39 L 816.21 518.47 L 816.60 518.47 L 817.36 518.47 L 817.74 521.56 L 818.51 521.56 L 819.28 518.47 L 819.66 518.47 L 820.43 518.47 L 820.81 518.47 L 821.57 518.47 L 821.96 518.47 L 822.72 518.47 L 823.11 518.47 L 823.87 518.47 L 824.26 518.47 L 825.02 518.47 L 825.40 518.47 L 826.17 518.47 L 826.55 518.47 L 827.32 518.47 L 827.70 518.47 L 828.47 521.56 L 828.85 518.47 L 829.62 518.47 L 830.00 518.47 L 830.77 518.47 L 831.15 518.47 L 831.91 518.55 L 832.30 518.55 L 833.06 518.55 L 833.45 518.55 L 834.21 521.64 L 834.60 518.55 L 835.36 521.64 L 835.74 518.55 L 836.51 518.55 L 836.89 521.64 L 837.66 518.55 L 838.04 521.64 L 838.81 521.64 L 839.19 521.64 L 839.96 521.64 L 840.72 521.64 L 841.11 521.64 L 841.87 521.64 L 842.26 521.64 L 843.02 521.64 L 843.40 521.64 L 844.17 521.64 L 844.55 521.64 L 845.32 521.64 L 845.70 521.64 L 846.47 521.64 L 846.85 521.64 L 847.62 521.64 L 848.00 521.64 L 848.77 521.64 L 849.15 521.64 L 849.91 521.64 L 850.30 521.64 L 851.06 521.64 L 851.45 521.64 L 852.21 521.64 L 852.60 521.64 L 853.36 521.64 L 853.74 529.41 L 854.51 529.41 L 854.89 529.41 L 855.66 529.41 L 856.04 529.41 L 856.81 529.41 L 857.19 529.41 L 857.96 529.41 L 858.34 529.41 L 859.11 529.41 L 859.49 529.41 L 860.26 529.41 L 861.02 529.41 L 861.40 529.41 L 862.17 529.41 L 862.55 529.41 L 863.32 529.41 L 863.70 529.41 L 864.47 529.41 L 864.85 529.41 L 865.62 529.41 L 866.00 529.41 L 866.77 530.91 L 867.15 530.91 L 867.91 530.91 L 868.30 530.91 L 869.06 530.91 L 869.45 530.91 L 870.21 530.91 L 870.60 530.91 L 871.36 530.91 L 871.74 530.91 L 872.51 530.91 L 872.89 530.91 L 873.66 530.91 L 874.04 530.91 L 874.81 530.91 L 875.19 530.91 L 875.96 530.91 L 876.34 530.91 L 877.11 530.91 L 877.49 530.91 L 878.26 530.91 L 878.64 530.91 L 879.40 530.91 L 879.79 530.91 L 880.55 530.91 L 881.32 530.91 L 881.70 530.91 L 882.47 530.91 L 882.85 530.91 L 883.62 530.91 L 884.00 530.91 L 884.77 530.91 L 885.15 530.91 L 885.91 530.91 L 886.30 530.91 L 887.06 530.99 L 887.45 530.99 L 888.21 530.99 L 888.60 530.99 L 889.36 530.99 L 889.74 530.99 L 890.51 530.99 L 890.89 530.99 L 891.66 530.99 L 892.04 530.99 L 892.81 530.99 L 893.19 530.99 L 893.96 530.99 L 894.34 530.99 L 895.11 530.99 L 895.49 530.99 L 896.26 530.99 L 896.64 530.99 L 897.40 530.99 L 897.79 530.99 L 898.55 530.99 L 898.94 530.99 L 899.70 530.99 L 900.09 530.99 L 900.85 530.99 L 901.62 530.99 L 902.00 534.00 L 902.77 530.99 L 903.15 530.99 L 903.91 530.99 L 904.30 534.00 L 905.06 534.00 L 905.45 534.00 L 906.21 534.00 L 906.60 534.00 L 907.36 534.00 L 907.74 534.00 L 908.51 534.00 L 908.89 534.00 L 909.66 534.00 L 910.04 534.00 L 910.81 534.00 L 911.19 534.00 L 911.96 534.00 L 912.34 534.00 L 913.11 534.00 L 913.49 534.00 L 914.26 534.00 L 914.64 534.00 L 915.40 534.00 L 915.79 534.00 L 916.55 534.00 L 916.94 534.00 L 917.70 534.00 L 918.09 534.00 L 918.85 534.00 L 919.23 534.00 L 920.00 534.00 L 920.77 534.00 L 921.15 534.00 L 921.91 534.00 L 922.30 534.00 L 923.06 534.00 L 923.45 534.00 L 924.21 534.00 L 924.60 534.00 L 925.36 534.00 L 925.74 534.00 L 926.51 534.00 L 926.89 534.00 L 927.66 534.00 L 928.04 534.00 L 928.81 534.00 L 929.19 534.00 L 929.96 534.00 L 930.34 534.00 L 931.11 534.00 L 931.49 534.00 L 932.26 534.00 L 932.64 534.00 L 933.40 534.00 L 933.79 534.00 L 934.55 534.00 L 934.94 534.00 L 935.70 534.00 L 936.09 534.00 L 936.85 534.00 L 937.23 534.00 L 938.00 534.00 L 938.38 534.00 L 939.15 534.00 L 939.53 534.00 L 940.30 534.00 L 941.06 534.00 L 941.45 534.00 L 942.21 534.00 L 942.60 534.00 L 943.36 534.00 L 943.74 534.00 L 944.51 534.00 L 944.89 534.00 L 945.66 534.00 L 946.04 534.00 L 946.81 534.00 L 947.19 534.00 L 947.96 534.00 L 948.34 534.00 L 949.11 534.00 L 949.49 534.00 L 950.26 534.00 L 950.64 534.00 L 951.40 534.00 L 951.79 534.00 L 952.55 534.00 L 952.94 534.00 L 953.70 534.00 L 954.09 534.00 L 954.85 534.00 L 955.23 534.00 L 956.00 534.00 L 956.38 534.00 L 957.15 534.00 L 957.53 534.00 L 958.30 534.00 L 958.68 534.00 L 959.45 534.00 L 960.21 534.00 L 960.60 534.00 L 961.36 534.00 L 961.74 534.00 L 962.51 534.00 L 962.89 534.00 L 963.66 534.00 L 964.04 534.00 L 964.81 534.00 L 965.19 534.00 L 965.96 534.00 L 966.34 534.00 L 967.11 534.00 L 967.49 534.00 L 968.26 534.00 L 968.64 534.00 L 969.40 534.00 L 969.79 534.00 L 970.55 534.00 L 970.94 534.00 L 971.70 534.00 L 972.09 534.00 L 972.85 534.00 L 973.23 534.00 L 974.00 534.00 L 974.38 534.00 L 975.15 534.00 L 975.53 534.00 L 976.30 534.00 L 976.68 534.00 L 977.45 534.00 L 977.83 534.00 L 978.60 534.00 L 979.36 534.00 L 979.74 534.00 L 980.51 534.00 L 980.89 534.00 L 981.66 534.00 L 982.04 534.00 L 982.81 534.00 L 983.19 534.00 L 983.96 534.00 L 984.34 534.00 L 985.11 534.00 L 985.49 534.00 L 986.26 534.00 L 986.64 534.00 L 987.40 534.00 L 987.79 534.00 L 988.55 534.00 L 988.94 534.00 L 989.70 534.00 L 990.09 534.00 L 990.85 534.00 L 991.23 534.00 L 992.00 534.00 L 992.38 534.00 L 993.15 534.00 L 993.53 534.00 L 994.30 534.00 L 994.68 534.00 L 995.45 534.00 L 995.83 534.00 L 996.60 534.00 L 996.98 534.00 L 997.74 534.00 L 998.13 534.00 L 998.89 534.00 L 999.66 534.00 L 1000.04 529.41 L 1000.81 529.41 L 1001.19 529.41 L 1001.96 529.41 L 1002.34 529.41 L 1003.11 529.41 L 1003.49 529.41 L 1004.26 529.41 L 1004.64 529.41 L 1005.40 529.41 L 1005.79 529.41 L 1006.55 529.41 L 1006.94 529.41 L 1007.70 529.41 L 1008.09 529.41 L 1008.85 529.41 L 1009.23 529.41 L 1010.00 529.41 L 1010.38 529.41 L 1011.15 529.41 L 1011.53 529.41 L 1012.30 529.41 L 1012.68 529.41 L 1013.45 529.41 L 1013.83 529.41 L 1014.60 529.41 L 1014.98 530.99 L 1015.74 530.99 L 1016.13 530.99 L 1016.89 530.99 L 1017.28 530.99 L 1018.04 530.99 L 1018.81 530.99 L 1019.19 530.99 L 1019.96 530.99 L 1020.34 530.99 L 1021.11 530.99 L 1021.49 530.99 L 1022.26 530.99 L 1022.64 530.99 L 1023.40 530.99 L 1023.79 530.99 L 1024.55 530.99 L 1024.94 530.99 L 1025.70 530.99 L 1026.09 530.99 L 1026.85 530.99 L 1027.23 530.99 L 1028.00 530.99 L 1028.38 530.99 L 1029.15 530.99 L 1029.53 530.99 L 1030.30 530.99 L 1030.68 530.99 L 1031.45 530.99 L 1031.83 530.99 L 1032.60 530.99 L 1032.98 530.99 L 1033.74 530.99 L 1034.13 530.99 L 1034.89 530.99 L 1035.28 530.99 L 1036.04 530.99 L 1036.43 530.91 L 1037.19 530.91 L 1037.57 530.91 L 1038.34 530.91 L 1039.11 530.91 L 1039.49 530.91 L 1040.26 530.91 L 1040.64 530.91 L 1041.40 530.91 L 1041.79 530.91 L 1042.55 530.91 L 1042.94 530.91 L 1043.70 530.91 L 1044.09 530.91 L 1044.85 530.91 L 1045.23 530.91 L 1046.00 530.91 L 1046.38 534.00 L 1047.15 534.00 L 1047.53 534.00 L 1048.30 534.00 L 1048.68 534.00 L 1049.45 534.00 L 1049.83 534.00 L 1050.60 534.00 L 1050.98 534.00 L 1051.74 534.00 L 1052.13 534.00 L 1052.89 534.00 L 1053.28 534.00 L 1054.04 534.00 L 1054.43 534.00 L 1055.19 534.00 L 1055.57 534.00 L 1056.34 534.00 L 1056.72 534.00 L 1057.49 534.00 L 1057.87 534.00 L 1058.64 534.00 L 1059.40 534.00 L 1059.79 534.00 L 1060.55 534.00 L 1060.94 534.00 L 1061.70 534.00 L 1062.09 534.00 L 1062.85 534.00 L 1063.23 534.00 L 1064.00 534.00 L 1064.38 534.00 L 1065.15 534.00 L 1065.53 534.00 L 1066.30 534.00 L 1066.68 534.00 L 1067.45 534.00 L 1067.83 534.00 L 1068.60 534.00 L 1068.98 534.00 L 1069.74 534.00 L 1070.13 534.00 L 1070.89 534.00 L 1071.28 534.00 L 1072.04 534.00 L 1072.43 534.00 L 1073.19 534.00 L 1073.57 534.00 L 1074.34 534.00 L 1074.72 534.00 L 1075.49 534.00 L 1075.87 534.00 L 1076.64 534.00 L 1077.02 534.00 L 1077.79 534.00 L 1078.17 534.00 L 1078.94 534.00 L 1079.70 534.00 L 1080.09 534.00 L 1080.85 534.00 L 1081.23 534.00 L 1082.00 534.00" fill="none" stroke="#10b981" stroke-width="2.7"/>
<text x="560.0" y="602" text-anchor="middle" font-family="Arial, sans-serif" font-size="13" fill="#475569">Wall Clock Time</text>
<text transform="translate(25 306.0) rotate(-90)" text-anchor="middle" font-family="Arial, sans-serif" font-size="13" fill="#475569">Efficiency (W/klux)</text>
<rect x="727" y="96" width="335" height="54" rx="8" fill="#ffffff" stroke="#cbd5e1"/>
<line x1="745" y1="121" x2="785" y2="121" stroke="#10b981" stroke-width="2.8"/>
<text x="797" y="126" font-family="Arial, sans-serif" font-size="13" fill="#1e293b">Normalised Efficiency</text>
</svg>