<svg xmlns="http://www.w3.org/2000/svg" width="1120" height="620" viewBox="0 0 1120 620">
<rect width="100%" height="100%" fill="#f8fafc"/>
<rect x="92" y="78" width="990" height="456" fill="#ffffff" stroke="#cbd5e1"/>
<text x="560.0" y="34" text-anchor="middle" font-family="Arial, sans-serif" font-size="21" font-weight="700" fill="#1e293b">Intraday Normalised Efficiency - 13 deg Tilt - 20260622</text>
<text x="560.0" y="58" text-anchor="middle" font-family="Arial, sans-serif" font-size="12" fill="#475569">Morning, midday, and afternoon stitched from 5117 readings</text>
<line x1="92" y1="534.00" x2="1082" y2="534.00" stroke="#cbd5e1" stroke-dasharray="5 5" opacity="0.75"/>
<text x="80" y="538.00" text-anchor="end" font-family="Arial, sans-serif" font-size="12" fill="#475569">0.000</text>
<line x1="92" y1="442.80" x2="1082" y2="442.80" stroke="#cbd5e1" stroke-dasharray="5 5" opacity="0.75"/>
<text x="80" y="446.80" text-anchor="end" font-family="Arial, sans-serif" font-size="12" fill="#475569">0.004</text>
<line x1="92" y1="351.60" x2="1082" y2="351.60" stroke="#cbd5e1" stroke-dasharray="5 5" opacity="0.75"/>
<text x="80" y="355.60" text-anchor="end" font-family="Arial, sans-serif" font-size="12" fill="#475569">0.008</text>
<line x1="92" y1="260.40" x2="1082" y2="260.40" stroke="#cbd5e1" stroke-dasharray="5 5" opacity="0.75"/>
<text x="80" y="264.40" text-anchor="end" font-family="Arial, sans-serif" font-size="12" fill="#475569">0.012</text>
<line x1="92" y1="169.20" x2="1082" y2="169.20" stroke="#cbd5e1" stroke-dasharray="5 5" opacity="0.75"/>
<text x="80" y="173.20" text-anchor="end" font-family="Arial, sans-serif" font-size="12" fill="#475569">0.016</text>
<line x1="92" y1="78.00" x2="1082" y2="78.00" stroke="#cbd5e1" stroke-dasharray="5 5" opacity="0.75"/>
<text x="80" y="82.00" text-anchor="end" font-family="Arial, sans-serif" font-size="12" fill="#475569">0.020</text>
<line x1="92.00" y1="78" x2="92.00" y2="534" stroke="#e2e8f0" stroke-dasharray="4 6"/>
<text x="92.00" y="568" text-anchor="middle" font-family="Arial, sans-serif" font-size="12" fill="#475569">09:48:33</text>
<line x1="257.00" y1="78" x2="257.00" y2="534" stroke="#e2e8f0" stroke-dasharray="4 6"/>
<text x="257.00" y="568" text-anchor="middle" font-family="Arial, sans-serif" font-size="12" fill="#475569">10:50:36</text>
<line x1="422.00" y1="78" x2="422.00" y2="534" stroke="#e2e8f0" stroke-dasharray="4 6"/>
<text x="422.00" y="568" text-anchor="middle" font-family="Arial, sans-serif" font-size="12" fill="#475569">11:52:40</text>
<line x1="587.00" y1="78" x2="587.00" y2="534" stroke="#e2e8f0" stroke-dasharray="4 6"/>
<text x="587.00" y="568" text-anchor="middle" font-family="Arial, sans-serif" font-size="12" fill="#475569">12:54:44</text>
<line x1="752.00" y1="78" x2="752.00" y2="534" stroke="#e2e8f0" stroke-dasharray="4 6"/>
<text x="752.00" y="568" text-anchor="middle" font-family="Arial, sans-serif" font-size="12" fill="#475569">13:56:47</text>
<line x1="917.00" y1="78" x2="917.00" y2="534" stroke="#e2e8f0" stroke-dasharray="4 6"/>
<text x="917.00" y="568" text-anchor="middle" font-family="Arial, sans-serif" font-size="12" fill="#475569">14:58:51</text>
<line x1="1082.00" y1="78" x2="1082.00" y2="534" stroke="#e2e8f0" stroke-dasharray="4 6"/>
<text x="1082.00" y="568" text-anchor="middle" font-family="Arial, sans-serif" font-size="12" fill="#475569">16:00:55</text>
<line x1="406.08" y1="78" x2="406.08" y2="534" stroke="#64748b" stroke-width="1.5" stroke-dasharray="7 5"/>
<text x="412.08" y="96" font-family="Arial, sans-serif" font-size="12" fill="#64748b">Midday</text>
<line x1="990.14" y1="78" x2="990.14" y2="534" stroke="#64748b" stroke-width="1.5" stroke-dasharray="7 5"/>
<text x="996.14" y="96" font-family="Arial, sans-serif" font-size="12" fill="#64748b">Afternoon</text>
<path d="M 92.00 512.07 L 92.09 512.11 L 92.13 512.06 L 92.22 512.05 L 92.27 512.01 L 92.35 511.93 L 92.40 511.89 L 92.49 511.94 L 92.58 511.93 L 92.62 511.90 L 92.71 511.89 L 92.75 511.89 L 92.84 511.92 L 92.89 512.02 L 92.97 530.36 L 93.02 531.60 L 93.11 531.61 L 93.15 531.56 L 93.24 531.56 L 93.29 531.57 L 93.37 531.52 L 93.42 531.54 L 93.51 531.54 L 93.55 531.56 L 93.64 534.00 L 93.68 534.00 L 93.77 523.95 L 93.82 523.93 L 93.91 530.27 L 93.95 523.90 L 94.04 523.91 L 94.08 523.91 L 94.17 523.91 L 94.22 523.90 L 94.30 523.95 L 94.35 523.94 L 94.44 523.91 L 94.48 523.91 L 94.57 523.90 L 94.61 523.89 L 94.70 523.90 L 94.75 523.90 L 94.84 523.90 L 94.88 523.89 L 94.97 523.87 L 95.01 523.84 L 95.10 523.67 L 95.19 523.70 L 95.23 523.57 L 95.32 523.58 L 95.37 523.84 L 95.46 523.91 L 95.50 523.93 L 95.59 523.93 L 95.63 523.93 L 95.72 523.95 L 95.77 523.97 L 95.86 523.98 L 95.90 524.00 L 95.99 524.00 L 96.03 524.02 L 96.12 524.04 L 96.17 524.04 L 96.25 524.07 L 96.30 524.09 L 96.39 524.10 L 96.43 524.13 L 96.52 524.14 L 96.56 524.15 L 96.65 524.15 L 96.70 524.15 L 96.79 524.16 L 96.83 524.15 L 96.92 524.16 L 96.96 524.18 L 97.05 524.15 L 97.10 524.15 L 97.18 524.14 L 97.23 524.13 L 97.32 524.11 L 97.36 524.09 L 97.45 524.09 L 97.54 524.09 L 97.58 524.07 L 97.67 524.08 L 97.72 524.11 L 97.80 524.14 L 97.85 524.15 L 97.94 524.22 L 97.98 524.25 L 98.07 524.24 L 98.11 524.27 L 98.20 524.27 L 98.25 524.27 L 98.34 524.28 L 98.38 524.27 L 98.47 524.26 L 98.51 524.25 L 98.60 524.24 L 98.65 524.24 L 98.74 524.26 L 98.78 524.26 L 98.87 524.24 L 98.91 524.24 L 99.00 524.23 L 99.05 524.24 L 99.13 524.21 L 99.18 524.19 L 99.27 524.14 L 99.31 524.10 L 99.40 524.10 L 99.44 524.08 L 99.53 524.09 L 99.58 524.09 L 99.67 524.09 L 99.71 525.29 L 99.80 525.32 L 99.84 525.32 L 99.93 525.29 L 100.02 525.25 L 100.06 525.22 L 100.15 525.20 L 100.20 525.17 L 100.29 525.17 L 100.33 525.17 L 100.42 525.21 L 100.46 525.19 L 100.55 525.23 L 100.60 525.23 L 100.68 525.24 L 100.73 525.27 L 100.82 525.29 L 100.86 525.30 L 100.95 525.32 L 101.00 525.34 L 101.08 525.33 L 101.13 525.36 L 101.22 525.32 L 101.26 525.33 L 101.35 525.32 L 101.39 525.31 L 101.48 527.79 L 101.53 527.79 L 101.62 527.77 L 101.66 527.77 L 101.75 527.76 L 101.79 527.75 L 101.88 527.75 L 101.93 527.75 L 102.01 527.75 L 102.06 527.76 L 102.15 527.75 L 102.19 527.76 L 102.28 527.77 L 102.37 527.79 L 102.41 527.78 L 102.50 527.76 L 102.55 527.74 L 102.63 527.73 L 102.68 527.72 L 102.77 527.71 L 102.81 527.70 L 102.90 527.70 L 102.94 527.70 L 103.03 527.70 L 103.08 527.70 L 103.17 527.69 L 103.21 530.20 L 103.30 530.17 L 103.34 530.13 L 103.43 530.08 L 103.48 530.03 L 103.57 529.97 L 103.61 529.90 L 103.70 529.84 L 103.74 529.79 L 103.83 529.74 L 103.88 529.72 L 103.96 529.70 L 104.01 529.71 L 104.10 529.71 L 104.14 529.71 L 104.23 529.73 L 104.27 529.76 L 104.36 529.78 L 104.41 529.83 L 104.50 529.87 L 104.54 529.90 L 104.63 529.94 L 104.67 529.96 L 104.76 529.97 L 104.85 529.97 L 104.89 529.96 L 104.98 529.94 L 105.03 531.25 L 105.12 531.22 L 105.16 531.20 L 105.25 531.17 L 105.29 531.14 L 105.38 531.13 L 105.43 531.14 L 105.51 531.16 L 105.56 531.18 L 105.65 531.20 L 105.69 531.21 L 105.78 531.24 L 105.83 531.19 L 105.91 530.89 L 105.96 530.37 L 106.05 530.29 L 106.09 534.00 L 106.18 534.00 L 106.22 534.00 L 106.31 534.00 L 106.36 534.00 L 106.45 529.00 L 106.49 520.76 L 106.58 526.29 L 106.62 534.00 L 106.71 522.84 L 106.76 523.86 L 106.84 528.11 L 106.89 522.65 L 106.98 523.52 L 107.02 521.14 L 107.11 521.23 L 107.20 521.29 L 107.24 521.37 L 107.33 521.54 L 107.38 521.46 L 107.46 521.12 L 107.51 521.47 L 107.60 521.30 L 107.64 520.90 L 107.73 521.08 L 107.77 521.55 L 107.86 521.63 L 107.91 521.72 L 108.00 524.47 L 108.04 523.64 L 108.13 522.24 L 108.17 522.20 L 108.26 522.27 L 108.31 523.77 L 108.40 523.74 L 108.44 523.67 L 108.53 523.57 L 108.57 523.50 L 108.66 523.51 L 108.71 523.47 L 108.79 529.48 L 108.84 529.47 L 108.93 530.95 L 108.97 531.00 L 109.06 531.01 L 109.10 531.02 L 109.19 531.01 L 109.24 531.02 L 109.33 531.02 L 109.37 531.02 L 109.46 531.00 L 109.50 530.98 L 109.59 530.96 L 109.68 530.94 L 109.72 530.91 L 109.81 530.87 L 109.86 530.81 L 109.95 530.73 L 109.99 530.67 L 110.08 530.58 L 110.12 523.75 L 110.21 523.43 L 110.26 523.16 L 110.34 522.90 L 110.39 534.00 L 110.48 534.00 L 110.52 534.00 L 110.61 534.00 L 110.65 534.00 L 110.74 534.00 L 110.79 526.56 L 110.88 526.48 L 110.92 526.43 L 111.01 526.40 L 111.05 526.38 L 111.14 526.32 L 111.19 526.28 L 111.28 528.73 L 111.32 534.00 L 111.41 534.00 L 111.45 525.98 L 111.54 525.81 L 111.59 525.59 L 111.67 525.41 L 111.72 525.25 L 111.81 525.11 L 111.85 524.96 L 111.94 524.82 L 112.03 524.68 L 112.07 527.66 L 112.16 527.59 L 112.21 527.52 L 112.29 527.46 L 112.34 527.41 L 112.43 527.35 L 112.47 527.29 L 112.56 527.20 L 112.60 527.08 L 112.69 526.93 L 112.74 526.76 L 112.83 526.57 L 112.87 534.00 L 112.96 534.00 L 113.00 534.00 L 113.09 534.00 L 113.14 534.00 L 113.23 534.00 L 113.27 534.00 L 113.36 534.00 L 113.40 534.00 L 113.49 534.00 L 113.54 534.00 L 113.62 534.00 L 113.67 534.00 L 113.76 534.00 L 113.80 534.00 L 113.89 534.00 L 113.93 534.00 L 114.02 534.00 L 114.07 534.00 L 114.16 534.00 L 114.20 534.00 L 114.29 534.00 L 114.33 534.00 L 114.42 534.00 L 114.51 534.00 L 114.55 534.00 L 114.64 534.00 L 114.69 534.00 L 114.78 534.00 L 114.82 534.00 L 114.91 534.00 L 114.95 534.00 L 115.04 534.00 L 115.09 526.74 L 115.17 527.14 L 115.22 527.42 L 115.31 527.67 L 115.35 527.90 L 115.44 528.10 L 115.48 528.29 L 115.57 528.47 L 115.62 525.89 L 115.71 526.11 L 115.75 526.11 L 115.84 526.16 L 115.88 526.70 L 115.97 526.88 L 116.02 527.13 L 116.11 527.31 L 116.15 527.45 L 116.24 527.63 L 116.28 527.56 L 116.37 523.58 L 116.42 524.09 L 116.50 524.46 L 116.55 524.16 L 116.64 527.50 L 116.68 522.90 L 116.77 520.74 L 116.81 519.08 L 116.90 519.31 L 116.99 519.08 L 117.04 519.39 L 117.12 519.93 L 117.17 517.01 L 117.26 517.31 L 117.30 517.93 L 117.39 516.65 L 117.43 516.91 L 117.52 517.13 L 117.57 517.38 L 117.66 517.55 L 117.70 517.74 L 117.79 528.35 L 117.83 516.12 L 117.92 514.80 L 117.97 534.00 L 118.05 534.00 L 118.10 534.00 L 118.19 476.73 L 118.23 534.00 L 118.32 534.00 L 118.37 516.16 L 118.45 516.80 L 118.50 513.70 L 118.59 515.20 L 118.63 515.64 L 118.72 513.77 L 118.76 513.83 L 118.85 516.65 L 118.90 534.00 L 118.99 534.00 L 119.03 518.20 L 119.12 531.36 L 119.16 522.22 L 119.25 521.89 L 119.30 510.92 L 119.38 392.54 L 119.47 518.44 L 119.52 515.77 L 119.61 516.26 L 119.65 515.73 L 119.74 515.57 L 119.78 515.64 L 119.87 511.45 L 119.92 511.42 L 120.00 511.55 L 120.05 521.56 L 120.14 521.56 L 120.18 521.56 L 120.27 521.56 L 120.31 508.16 L 120.40 508.18 L 120.45 508.30 L 120.54 508.34 L 120.58 508.57 L 120.67 521.41 L 120.71 524.21 L 120.80 525.27 L 120.85 523.35 L 120.94 513.83 L 120.98 512.12 L 121.07 505.49 L 121.11 505.94 L 121.20 506.18 L 121.25 506.30 L 121.33 506.11 L 121.38 505.25 L 121.47 505.75 L 121.51 520.01 L 121.60 520.01 L 121.64 520.01 L 121.73 520.01 L 121.78 520.06 L 121.87 520.06 L 121.95 534.00 L 122.00 516.46 L 122.09 520.06 L 122.13 520.06 L 122.22 520.06 L 122.26 534.00 L 122.35 521.60 L 122.40 521.60 L 122.49 521.60 L 122.53 521.60 L 122.62 521.60 L 122.66 520.06 L 122.75 520.06 L 122.80 520.06 L 122.88 520.06 L 122.93 520.06 L 123.02 522.39 L 123.06 526.28 L 123.15 526.28 L 123.20 530.66 L 123.28 531.27 L 123.33 530.53 L 123.42 534.00 L 123.46 530.54 L 123.55 531.11 L 123.59 530.19 L 123.68 527.75 L 123.73 526.28 L 123.82 528.29 L 123.86 526.28 L 123.95 522.39 L 123.99 523.94 L 124.08 523.94 L 124.13 522.39 L 124.21 520.10 L 124.30 520.10 L 124.35 522.39 L 124.44 526.28 L 124.48 527.82 L 124.57 526.10 L 124.61 520.10 L 124.70 520.10 L 124.75 518.55 L 124.83 520.10 L 124.88 520.10 L 124.97 522.44 L 125.01 526.28 L 125.10 525.53 L 125.14 521.64 L 125.23 518.59 L 125.28 518.59 L 125.37 518.59 L 125.41 518.59 L 125.50 518.59 L 125.54 518.59 L 125.63 522.44 L 125.68 529.47 L 125.77 529.38 L 125.81 531.33 L 125.90 528.61 L 125.94 527.82 L 126.03 521.68 L 126.08 518.59 L 126.16 518.59 L 126.21 518.59 L 126.30 520.14 L 126.34 520.14 L 126.43 518.64 L 126.47 518.64 L 126.56 518.64 L 126.61 518.64 L 126.70 518.64 L 126.78 518.64 L 126.83 518.64 L 126.92 518.64 L 126.96 518.64 L 127.05 518.64 L 127.09 518.64 L 127.18 518.64 L 127.23 518.64 L 127.32 518.64 L 127.36 518.64 L 127.45 518.64 L 127.49 518.64 L 127.58 518.64 L 127.63 518.64 L 127.71 518.68 L 127.76 518.68 L 127.85 518.68 L 127.89 518.68 L 127.98 518.68 L 128.02 518.68 L 128.11 518.68 L 128.16 518.68 L 128.25 518.68 L 128.29 518.68 L 128.38 518.68 L 128.42 518.68 L 128.51 518.68 L 128.56 518.72 L 128.65 518.72 L 128.69 518.72 L 128.78 518.72 L 128.82 528.66 L 128.91 518.72 L 128.96 518.72 L 129.04 518.72 L 129.13 518.72 L 129.18 518.72 L 129.27 518.72 L 129.31 518.72 L 129.40 518.72 L 129.44 518.72 L 129.53 518.72 L 129.58 520.26 L 129.66 520.26 L 129.71 520.26 L 129.80 518.72 L 129.84 518.76 L 129.93 520.26 L 129.97 521.81 L 130.06 526.36 L 130.11 531.01 L 130.20 534.00 L 130.24 534.00 L 130.33 534.00 L 130.37 534.00 L 130.46 534.00 L 130.51 534.00 L 130.60 534.00 L 130.64 534.00 L 130.73 534.00 L 130.77 534.00 L 130.86 534.00 L 130.91 534.00 L 130.99 534.00 L 131.04 534.00 L 131.13 534.00 L 131.17 534.00 L 131.26 534.00 L 131.35 534.00 L 131.39 534.00 L 131.48 534.00 L 131.53 534.00 L 131.61 522.56 L 131.66 520.31 L 131.75 520.31 L 131.79 520.31 L 131.88 520.31 L 131.92 520.31 L 132.01 520.31 L 132.06 520.31 L 132.15 520.31 L 132.19 520.31 L 132.28 520.31 L 132.32 520.31 L 132.41 524.11 L 132.46 524.11 L 132.54 524.11 L 132.59 524.11 L 132.68 524.11 L 132.72 524.11 L 132.81 524.11 L 132.85 525.65 L 132.94 525.65 L 132.99 525.65 L 133.08 525.65 L 133.12 526.40 L 133.21 526.40 L 133.25 528.66 L 133.34 528.66 L 133.39 528.66 L 133.48 528.66 L 133.56 528.66 L 133.61 530.20 L 133.70 530.20 L 133.74 530.20 L 133.83 530.20 L 133.87 530.20 L 133.96 530.20 L 134.01 530.20 L 134.10 530.20 L 134.14 530.20 L 134.23 530.20 L 134.27 530.20 L 134.36 530.20 L 134.41 531.70 L 134.49 531.70 L 134.54 531.70 L 134.63 531.70 L 134.67 531.70 L 134.76 531.70 L 134.80 531.70 L 134.89 531.70 L 134.94 531.70 L 135.03 531.70 L 135.07 531.70 L 135.16 531.70 L 135.20 531.70 L 135.29 531.70 L 135.34 531.70 L 135.42 531.70 L 135.47 532.50 L 135.56 532.50 L 135.60 532.50 L 135.69 532.50 L 135.74 532.50 L 135.82 532.50 L 135.91 532.50 L 135.96 532.50 L 136.05 532.50 L 136.09 532.50 L 136.18 532.50 L 136.22 532.50 L 136.31 532.50 L 136.36 532.50 L 136.44 534.00 L 136.49 534.00 L 136.58 532.50 L 136.62 534.00 L 136.71 534.00 L 136.75 534.00 L 136.84 534.00 L 136.89 534.00 L 136.98 534.00 L 137.02 534.00 L 137.11 534.00 L 137.15 534.00 L 137.24 534.00 L 137.29 534.00 L 137.37 532.50 L 137.42 532.50 L 137.51 532.47 L 137.55 534.00 L 137.64 534.00 L 137.68 534.00 L 137.77 534.00 L 137.82 534.00 L 137.91 534.00 L 137.95 534.00 L 138.04 534.00 L 138.13 534.00 L 138.17 532.10 L 138.26 532.20 L 138.31 532.46 L 138.39 532.46 L 138.44 532.46 L 138.53 532.46 L 138.57 532.46 L 138.66 532.46 L 138.70 532.46 L 138.79 532.46 L 138.84 532.46 L 138.93 532.46 L 138.97 532.46 L 139.06 532.46 L 139.10 532.46 L 139.19 532.46 L 139.24 532.46 L 139.32 532.46 L 139.37 532.46 L 139.46 532.46 L 139.50 532.46 L 139.59 532.46 L 139.63 532.46 L 139.72 532.46 L 139.77 532.46 L 139.86 532.46 L 139.90 532.46 L 139.99 532.46 L 140.03 532.46 L 140.12 532.46 L 140.17 534.00 L 140.25 534.00 L 140.30 534.00 L 140.39 534.00 L 140.48 534.00 L 140.52 534.00 L 140.61 534.00 L 140.65 534.00 L 140.74 534.00 L 140.79 534.00 L 140.88 534.00 L 140.92 534.00 L 141.01 534.00 L 141.05 534.00 L 141.14 534.00 L 141.19 534.00 L 141.27 534.00 L 141.32 534.00 L 141.41 534.00 L 141.45 534.00 L 156.69 534.00 L 156.74 534.00 L 156.74 465.94 L 156.74 530.16 L 156.74 531.70 L 156.74 530.16 L 156.74 530.16 L 156.74 531.55 L 156.74 531.96 L 156.74 531.01 L 156.74 531.68 L 156.74 530.16 L 156.74 530.16 L 156.74 531.32 L 156.74 528.61 L 156.74 534.00 L 156.74 527.86 L 156.74 527.86 L 156.74 527.86 L 156.74 527.86 L 156.74 527.86 L 156.74 527.86 L 156.74 527.86 L 156.74 527.86 L 156.74 527.86 L 156.74 528.61 L 156.74 528.61 L 156.74 528.61 L 156.74 528.61 L 156.74 528.61 L 156.74 528.61 L 156.74 528.61 L 156.74 528.61 L 156.74 528.61 L 156.74 531.70 L 156.74 531.70 L 156.74 531.70 L 156.74 531.70 L 156.74 531.70 L 156.74 532.37 L 156.74 532.46 L 156.74 532.46 L 156.74 531.70 L 156.74 531.70 L 156.74 531.70 L 156.74 531.70 L 156.74 531.70 L 156.74 531.70 L 156.74 531.70 L 156.74 531.70 L 156.74 531.70 L 156.74 531.70 L 156.74 531.70 L 156.74 531.70 L 156.74 531.70 L 156.74 531.70 L 156.74 531.70 L 156.74 531.70 L 156.74 532.46 L 156.74 532.46 L 156.74 532.46 L 156.74 532.46 L 156.74 532.46 L 156.74 532.46 L 156.74 532.46 L 156.74 532.46 L 156.74 532.46 L 156.74 532.46 L 156.74 532.46 L 156.74 532.46 L 156.74 532.46 L 156.74 532.46 L 156.74 532.46 L 156.74 532.46 L 156.74 532.46 L 156.74 532.46 L 156.74 532.46 L 156.74 532.46 L 156.74 532.46 L 156.74 532.46 L 156.74 532.46 L 156.74 534.00 L 156.74 532.46 L 156.74 532.46 L 156.74 532.46 L 156.74 532.46 L 156.74 532.46 L 156.74 534.00 L 156.74 534.00 L 156.83 534.00 L 156.87 534.00 L 169.15 534.00 L 169.15 534.00 L 169.15 534.00 L 169.15 534.00 L 169.15 534.00 L 169.15 534.00 L 169.15 534.00 L 169.15 534.00 L 169.15 534.00 L 169.15 534.00 L 169.15 534.00 L 169.15 534.00 L 169.15 534.00 L 169.15 534.00 L 169.15 534.00 L 169.15 534.00 L 169.15 534.00 L 169.15 534.00 L 169.15 534.00 L 169.15 534.00 L 169.15 534.00 L 169.15 534.00 L 169.15 534.00 L 169.15 534.00 L 169.15 534.00 L 169.15 534.00 L 169.15 534.00 L 169.15 534.00 L 169.15 534.00 L 169.15 534.00 L 169.15 534.00 L 169.15 534.00 L 169.15 534.00 L 169.15 534.00 L 169.15 534.00 L 169.15 534.00 L 169.15 534.00 L 169.15 534.00 L 169.15 534.00 L 169.15 534.00 L 169.15 534.00 L 169.15 534.00 L 169.15 534.00 L 169.15 534.00 L 169.15 534.00 L 169.15 534.00 L 169.15 534.00 L 169.15 534.00 L 169.15 534.00 L 169.19 534.00 L 169.19 534.00 L 169.19 534.00 L 169.19 534.00 L 169.19 534.00 L 169.19 534.00 L 169.19 534.00 L 169.19 534.00 L 169.19 534.00 L 169.19 534.00 L 169.19 534.00 L 169.19 534.00 L 169.19 534.00 L 169.19 534.00 L 169.19 534.00 L 169.19 534.00 L 169.19 534.00 L 169.19 534.00 L 169.19 534.00 L 169.19 534.00 L 169.19 534.00 L 169.19 534.00 L 169.19 534.00 L 169.19 534.00 L 169.19 534.00 L 169.19 534.00 L 169.19 534.00 L 169.19 534.00 L 169.19 534.00 L 169.19 534.00 L 169.19 534.00 L 169.19 534.00 L 169.19 534.00 L 169.19 534.00 L 169.19 534.00 L 169.19 534.00 L 169.19 534.00 L 169.19 534.00 L 169.19 534.00 L 169.19 518.22 L 169.19 518.22 L 169.19 518.22 L 169.23 518.22 L 169.28 518.22 L 169.37 518.22 L 169.41 518.22 L 169.50 518.22 L 169.54 518.22 L 169.63 518.22 L 169.68 518.22 L 169.77 518.22 L 169.81 518.22 L 169.90 518.22 L 169.94 518.22 L 170.03 518.22 L 170.08 518.22 L 170.16 518.22 L 170.21 518.22 L 170.30 518.22 L 170.34 518.22 L 170.43 518.22 L 170.48 518.22 L 170.56 518.22 L 170.61 518.22 L 170.70 518.22 L 170.74 518.22 L 170.83 518.22 L 170.92 518.22 L 170.96 518.22 L 171.05 518.22 L 171.10 518.22 L 171.18 518.22 L 171.23 518.22 L 171.32 518.22 L 171.36 518.22 L 171.45 518.26 L 171.49 518.26 L 171.58 518.26 L 171.63 518.26 L 171.72 518.26 L 171.76 518.26 L 171.85 518.26 L 171.89 518.26 L 171.98 518.26 L 172.03 518.26 L 172.11 519.85 L 172.16 519.85 L 172.25 519.85 L 172.29 519.85 L 172.38 519.85 L 172.42 519.85 L 172.51 518.30 L 172.56 519.85 L 172.65 519.85 L 172.69 523.77 L 172.78 523.77 L 172.82 523.81 L 172.91 523.81 L 172.96 523.81 L 173.05 523.81 L 173.09 523.81 L 173.18 523.81 L 173.22 523.81 L 173.31 525.36 L 173.36 527.74 L 173.44 527.74 L 173.49 527.74 L 173.58 527.74 L 173.67 526.15 L 173.71 527.74 L 173.80 527.74 L 173.84 527.74 L 173.93 526.15 L 173.98 527.74 L 174.06 527.74 L 174.11 527.74 L 174.20 527.74 L 174.24 527.74 L 174.33 527.74 L 174.37 527.74 L 174.46 526.19 L 174.51 527.74 L 174.60 526.19 L 174.64 527.74 L 174.73 526.19 L 174.77 526.19 L 174.86 526.19 L 174.91 526.19 L 174.99 526.19 L 175.04 526.19 L 175.13 526.19 L 175.17 526.19 L 175.26 527.78 L 175.30 527.78 L 175.39 526.19 L 175.44 526.19 L 175.53 526.19 L 175.57 526.19 L 175.66 526.19 L 175.70 526.19 L 175.79 526.23 L 175.84 526.23 L 175.93 526.23 L 175.97 527.78 L 176.06 527.78 L 176.15 526.23 L 176.19 526.23 L 176.28 526.23 L 176.32 526.23 L 176.41 526.23 L 176.46 526.23 L 176.55 526.23 L 176.59 526.23 L 176.68 526.23 L 176.72 526.23 L 176.81 526.23 L 176.86 526.23 L 176.94 526.23 L 176.99 526.23 L 177.08 526.23 L 177.12 526.23 L 177.21 527.78 L 177.25 526.23 L 177.34 526.23 L 177.39 526.23 L 177.48 526.23 L 177.52 526.23 L 177.61 526.28 L 177.65 526.28 L 177.74 526.28 L 177.79 526.28 L 177.88 527.82 L 177.92 526.28 L 178.01 527.82 L 178.05 526.28 L 178.14 526.28 L 178.19 527.82 L 178.27 526.28 L 178.32 527.82 L 178.41 527.82 L 178.45 527.82 L 178.54 527.82 L 178.63 527.82 L 178.67 527.82 L 178.76 527.82 L 178.81 527.82 L 178.89 527.82 L 178.94 527.82 L 179.03 527.82 L 179.07 527.82 L 179.16 527.82 L 179.20 527.82 L 179.29 527.82 L 179.34 527.82 L 179.43 527.82 L 179.47 527.82 L 179.56 527.82 L 179.60 527.82 L 179.69 527.82 L 179.74 527.82 L 179.82 527.82 L 179.87 527.82 L 179.96 527.82 L 180.00 527.82 L 180.09 527.82 L 180.13 531.70 L 180.22 531.70 L 180.27 531.70 L 180.36 531.70 L 180.40 531.70 L 180.49 531.70 L 180.53 531.70 L 180.62 531.70 L 180.67 531.70 L 180.76 531.70 L 180.80 531.70 L 180.89 531.70 L 180.98 531.70 L 181.02 531.70 L 181.11 531.70 L 181.15 531.70 L 181.24 531.70 L 181.29 531.70 L 181.38 531.70 L 181.42 531.70 L 181.51 531.70 L 181.55 531.70 L 181.64 532.46 L 181.69 532.46 L 181.77 532.46 L 181.82 532.46 L 181.91 532.46 L 181.95 532.46 L 182.04 532.46 L 182.08 532.46 L 182.17 532.46 L 182.22 532.46 L 182.31 532.46 L 182.35 532.46 L 182.44 532.46 L 182.48 532.46 L 182.57 532.46 L 182.62 532.46 L 182.70 532.46 L 182.75 532.46 L 182.84 532.46 L 182.88 532.46 L 182.97 532.46 L 183.02 532.46 L 183.10 532.46 L 183.15 532.46 L 183.24 532.46 L 183.33 532.46 L 183.37 532.46 L 183.46 532.46 L 183.50 532.46 L 183.59 532.46 L 183.64 532.46 L 183.72 532.46 L 183.77 532.46 L 183.86 532.46 L 183.90 532.46 L 183.99 532.50 L 184.03 532.50 L 184.12 532.50 L 184.17 532.50 L 184.26 532.50 L 184.30 532.50 L 184.39 532.50 L 184.43 532.50 L 184.52 532.50 L 184.57 532.50 L 184.65 532.50 L 184.70 532.50 L 184.79 532.50 L 184.83 532.50 L 184.92 532.50 L 184.96 532.50 L 185.05 532.50 L 185.10 532.50 L 185.19 532.50 L 185.23 532.50 L 185.32 532.50 L 185.36 532.50 L 185.45 532.50 L 185.50 532.50 L 185.59 532.50 L 185.67 532.50 L 185.72 534.00 L 185.81 532.50 L 185.85 532.50 L 185.94 532.50 L 185.98 534.00 L 186.07 534.00 L 186.12 534.00 L 186.21 534.00 L 186.25 534.00 L 186.34 534.00 L 186.38 534.00 L 186.47 534.00 L 186.52 534.00 L 186.60 534.00 L 186.65 534.00 L 186.74 534.00 L 186.78 534.00 L 186.87 534.00 L 186.91 534.00 L 187.00 534.00 L 187.05 534.00 L 187.14 534.00 L 187.18 534.00 L 187.27 534.00 L 187.31 534.00 L 187.40 534.00 L 187.45 534.00 L 187.53 534.00 L 187.58 534.00 L 187.67 534.00 L 187.71 534.00 L 187.80 534.00 L 187.89 534.00 L 187.93 534.00 L 188.02 534.00 L 188.07 534.00 L 188.16 534.00 L 188.20 534.00 L 188.29 534.00 L 188.33 534.00 L 188.42 534.00 L 188.47 534.00 L 188.55 534.00 L 188.60 534.00 L 188.69 534.00 L 188.73 534.00 L 188.82 534.00 L 188.86 534.00 L 188.95 534.00 L 189.00 534.00 L 189.09 534.00 L 189.13 534.00 L 189.22 534.00 L 189.26 534.00 L 189.35 534.00 L 189.40 534.00 L 189.48 534.00 L 189.53 534.00 L 189.62 534.00 L 189.66 534.00 L 189.75 534.00 L 189.79 534.00 L 189.88 534.00 L 189.93 534.00 L 190.02 534.00 L 190.06 534.00 L 190.15 534.00 L 190.24 534.00 L 190.28 534.00 L 190.37 534.00 L 190.42 534.00 L 190.50 534.00 L 190.55 534.00 L 190.64 534.00 L 190.68 534.00 L 190.77 534.00 L 190.81 534.00 L 190.90 534.00 L 190.95 534.00 L 191.04 534.00 L 191.08 534.00 L 191.17 534.00 L 191.21 534.00 L 191.30 534.00 L 191.35 534.00 L 191.43 534.00 L 191.48 534.00 L 191.57 534.00 L 191.61 534.00 L 191.70 534.00 L 191.74 534.00 L 191.83 534.00 L 191.88 534.00 L 191.97 534.00 L 192.01 534.00 L 192.10 534.00 L 192.14 534.00 L 192.23 534.00 L 192.28 534.00 L 192.36 534.00 L 192.45 534.00 L 192.50 534.00 L 192.59 534.00 L 192.63 534.00 L 192.72 534.00 L 192.76 534.00 L 192.85 534.00 L 192.90 534.00 L 192.99 534.00 L 193.03 534.00 L 193.12 534.00 L 193.16 534.00 L 193.25 534.00 L 193.30 534.00 L 193.38 534.00 L 193.43 534.00 L 193.52 534.00 L 193.56 534.00 L 193.65 534.00 L 193.69 534.00 L 193.78 534.00 L 193.83 534.00 L 193.92 534.00 L 193.96 534.00 L 194.05 534.00 L 194.09 534.00 L 194.18 534.00 L 194.23 534.00 L 194.31 534.00 L 194.36 534.00 L 194.45 534.00 L 194.49 534.00 L 194.58 534.00 L 194.67 534.00 L 194.71 534.00 L 194.80 534.00 L 194.85 534.00 L 194.93 534.00 L 194.98 534.00 L 195.07 534.00 L 195.11 534.00 L 195.20 534.00 L 195.25 534.00 L 195.33 534.00 L 195.38 534.00 L 195.47 534.00 L 195.51 534.00 L 195.60 534.00 L 195.64 534.00 L 195.73 534.00 L 195.78 534.00 L 195.87 534.00 L 195.91 534.00 L 196.00 534.00 L 196.04 534.00 L 196.13 534.00 L 196.18 534.00 L 196.26 534.00 L 196.31 534.00 L 196.40 534.00 L 196.44 534.00 L 196.53 534.00 L 196.57 534.00 L 196.66 534.00 L 196.71 534.00 L 196.80 534.00 L 196.84 534.00 L 196.93 534.00 L 197.02 534.00 L 197.06 531.70 L 197.15 531.70 L 197.19 531.70 L 197.28 531.70 L 197.33 531.70 L 197.42 531.70 L 197.46 531.70 L 197.55 531.70 L 197.59 531.70 L 197.68 531.70 L 197.73 531.70 L 197.82 531.70 L 197.86 531.70 L 197.95 531.70 L 197.99 531.70 L 198.08 531.70 L 198.13 531.70 L 198.21 531.70 L 198.26 531.70 L 198.35 531.70 L 198.39 531.70 L 198.48 531.70 L 198.52 531.70 L 198.61 531.70 L 198.66 531.70 L 198.75 531.70 L 198.79 532.50 L 198.88 532.50 L 198.92 532.50 L 199.01 532.50 L 199.06 532.50 L 199.14 532.50 L 199.23 532.50 L 199.28 532.50 L 199.37 532.50 L 199.41 532.50 L 199.50 532.50 L 199.54 532.50 L 199.63 532.50 L 199.68 532.50 L 199.76 532.50 L 199.81 532.50 L 199.90 532.50 L 199.94 532.50 L 200.03 532.50 L 200.07 532.50 L 200.16 532.50 L 200.21 532.50 L 200.30 532.50 L 200.34 532.50 L 200.43 532.50 L 200.47 532.50 L 200.56 532.50 L 200.61 532.50 L 200.70 532.50 L 200.74 532.50 L 200.83 532.50 L 200.87 532.50 L 200.96 532.50 L 201.01 532.50 L 201.09 532.50 L 201.14 532.50 L 201.23 532.50 L 201.27 532.46 L 201.36 532.46 L 201.40 532.46 L 201.49 532.46 L 201.58 532.46 L 201.63 532.46 L 201.71 532.46 L 201.76 532.46 L 201.85 532.46 L 201.89 532.46 L 201.98 532.46 L 202.02 532.46 L 202.11 532.46 L 202.16 532.46 L 202.25 532.46 L 202.29 532.46 L 202.38 532.46 L 202.42 534.00 L 202.51 534.00 L 202.56 534.00 L 202.64 534.00 L 202.69 534.00 L 202.78 534.00 L 202.82 534.00 L 202.91 534.00 L 202.96 534.00 L 203.04 534.00 L 203.09 534.00 L 203.18 534.00 L 203.22 534.00 L 203.31 534.00 L 203.35 534.00 L 203.44 534.00 L 203.49 534.00 L 203.58 534.00 L 203.62 534.00 L 203.71 534.00 L 203.75 534.00 L 203.84 534.00 L 203.93 534.00 L 203.97 534.00 L 204.06 534.00 L 204.11 534.00 L 204.20 534.00 L 204.24 534.00 L 204.33 534.00 L 204.37 534.00 L 204.46 534.00 L 204.51 534.00 L 204.59 534.00 L 204.64 534.00 L 204.73 534.00 L 204.77 534.00 L 204.86 534.00 L 204.90 534.00 L 204.99 534.00 L 205.04 534.00 L 205.13 534.00 L 205.17 534.00 L 205.26 534.00 L 205.30 534.00 L 205.39 534.00 L 205.44 534.00 L 205.53 534.00 L 205.57 534.00 L 205.66 534.00 L 205.70 534.00 L 205.79 534.00 L 205.84 534.00 L 205.92 534.00 L 205.97 534.00 L 206.06 534.00 L 206.10 534.00 L 206.19 534.00 L 206.28 534.00 L 206.32 534.00 L 206.41 534.00 L 206.46 534.00 L 206.54 534.00 L 406.08 521.88 L 406.12 521.73 L 406.21 526.33 L 406.25 521.53 L 406.34 526.15 L 406.39 520.68 L 406.48 526.99 L 406.52 525.83 L 406.61 534.00 L 406.65 534.00 L 406.74 534.00 L 406.79 534.00 L 406.88 534.00 L 406.92 534.00 L 407.01 534.00 L 407.05 534.00 L 407.14 534.00 L 407.19 534.00 L 407.27 534.00 L 407.32 534.00 L 407.41 534.00 L 407.45 534.00 L 407.54 534.00 L 407.63 534.00 L 407.67 534.00 L 407.76 534.00 L 407.81 534.00 L 407.89 534.00 L 407.94 534.00 L 408.03 534.00 L 408.07 534.00 L 408.16 534.00 L 408.20 534.00 L 408.29 534.00 L 408.34 534.00 L 408.43 534.00 L 408.47 534.00 L 408.56 534.00 L 408.60 534.00 L 408.69 534.00 L 408.74 534.00 L 408.82 534.00 L 408.87 534.00 L 408.96 534.00 L 409.00 534.00 L 409.09 534.00 L 409.13 534.00 L 409.22 510.72 L 409.27 513.51 L 409.36 517.83 L 409.40 510.92 L 409.49 504.54 L 409.53 505.92 L 409.62 499.53 L 409.67 506.44 L 409.76 508.12 L 409.80 512.37 L 409.89 511.96 L 409.93 513.98 L 410.02 513.45 L 410.07 515.63 L 410.15 516.60 L 410.20 517.31 L 410.29 516.23 L 410.33 516.39 L 410.42 515.47 L 410.46 518.20 L 410.55 522.69 L 410.60 515.56 L 410.69 512.25 L 410.77 525.11 L 410.82 524.90 L 410.91 525.11 L 410.95 524.83 L 411.04 524.66 L 411.08 524.48 L 411.17 524.27 L 411.22 525.04 L 411.31 525.00 L 411.35 525.01 L 411.44 524.18 L 411.48 524.26 L 411.57 524.36 L 411.62 524.43 L 411.71 524.51 L 411.75 524.57 L 411.84 524.66 L 411.88 523.02 L 411.97 523.15 L 412.02 523.29 L 412.10 523.42 L 412.15 523.48 L 412.24 523.42 L 412.28 523.48 L 412.37 521.93 L 412.41 521.93 L 412.50 521.93 L 412.55 521.93 L 412.64 521.93 L 412.68 521.14 L 412.77 521.14 L 412.81 521.14 L 412.90 521.14 L 412.95 521.18 L 413.03 521.18 L 413.08 521.18 L 413.17 521.18 L 413.21 521.18 L 413.30 519.55 L 413.34 521.98 L 413.43 521.98 L 413.48 521.98 L 413.57 521.98 L 413.65 521.98 L 413.70 521.98 L 413.79 521.18 L 413.83 521.18 L 413.92 521.18 L 413.96 521.22 L 414.05 521.22 L 414.10 521.22 L 414.19 521.22 L 414.23 521.22 L 414.32 521.22 L 414.36 521.22 L 414.45 521.22 L 414.50 519.64 L 414.59 519.64 L 414.63 519.64 L 414.72 521.22 L 414.76 521.22 L 414.85 521.22 L 414.90 521.22 L 414.98 522.06 L 415.03 522.06 L 415.12 522.06 L 415.16 522.06 L 415.25 522.06 L 415.29 522.06 L 415.38 522.06 L 415.43 523.65 L 415.52 523.65 L 415.56 523.65 L 415.65 523.65 L 415.69 523.69 L 415.78 525.27 L 415.83 525.27 L 415.91 525.27 L 415.96 525.27 L 416.05 525.27 L 416.09 523.69 L 416.18 530.03 L 416.22 523.69 L 416.31 523.69 L 416.40 523.69 L 416.45 523.69 L 416.53 523.69 L 416.58 523.69 L 416.67 523.69 L 416.71 522.14 L 416.80 530.03 L 416.85 531.62 L 416.93 531.62 L 416.98 532.34 L 417.07 531.74 L 417.11 532.41 L 417.20 532.37 L 417.24 531.73 L 417.33 534.00 L 417.38 534.00 L 417.47 534.00 L 417.51 534.00 L 417.60 534.00 L 417.64 531.79 L 417.73 532.26 L 417.78 531.62 L 417.86 531.62 L 417.91 531.62 L 418.00 531.62 L 418.04 531.62 L 418.13 531.62 L 418.17 532.39 L 418.26 532.19 L 418.31 531.85 L 418.40 531.87 L 418.44 531.84 L 418.53 532.11 L 418.57 532.41 L 418.66 532.36 L 418.71 531.86 L 418.79 534.00 L 418.84 534.00 L 418.93 534.00 L 419.02 534.00 L 419.06 534.00 L 419.15 534.00 L 419.19 534.00 L 419.28 534.00 L 419.33 534.00 L 419.42 534.00 L 419.46 534.00 L 419.55 534.00 L 419.59 534.00 L 419.68 534.00 L 419.73 534.00 L 419.81 534.00 L 419.86 534.00 L 419.95 534.00 L 419.99 534.00 L 420.08 534.00 L 420.12 534.00 L 420.21 534.00 L 420.26 534.00 L 420.35 534.00 L 420.39 534.00 L 420.48 534.00 L 420.52 534.00 L 420.61 534.00 L 420.66 534.00 L 420.74 534.00 L 420.79 534.00 L 420.88 534.00 L 420.92 534.00 L 421.01 534.00 L 421.05 534.00 L 421.14 534.00 L 421.19 534.00 L 421.28 534.00 L 421.32 534.00 L 421.41 534.00 L 421.45 534.00 L 421.54 534.00 L 421.63 534.00 L 421.68 534.00 L 421.76 534.00 L 421.81 534.00 L 421.90 534.00 L 421.94 534.00 L 422.03 534.00 L 422.07 534.00 L 422.16 534.00 L 422.21 534.00 L 422.30 534.00 L 422.34 534.00 L 422.43 534.00 L 422.47 534.00 L 422.56 534.00 L 422.61 534.00 L 422.69 534.00 L 422.74 534.00 L 422.83 534.00 L 422.87 534.00 L 422.96 534.00 L 423.00 534.00 L 423.09 530.29 L 423.14 531.66 L 423.23 531.66 L 423.27 531.66 L 423.36 531.57 L 423.40 532.14 L 423.49 531.64 L 423.54 530.12 L 423.62 530.12 L 423.67 530.12 L 423.76 530.12 L 423.80 530.12 L 423.89 530.12 L 423.93 530.12 L 424.02 531.66 L 424.07 531.66 L 424.16 532.38 L 424.25 531.81 L 424.29 532.33 L 424.38 532.24 L 424.42 531.84 L 424.51 531.38 L 424.56 534.00 L 424.64 534.00 L 424.69 531.72 L 424.78 534.00 L 424.82 534.00 L 424.91 534.00 L 424.95 534.00 L 425.04 534.00 L 425.09 534.00 L 425.18 534.00 L 425.22 534.00 L 425.31 534.00 L 425.35 534.00 L 425.44 534.00 L 425.49 534.00 L 425.57 534.00 L 425.62 534.00 L 425.71 534.00 L 425.75 534.00 L 425.84 534.00 L 425.88 534.00 L 425.97 534.00 L 426.02 534.00 L 426.11 534.00 L 426.15 534.00 L 426.24 534.00 L 426.28 534.00 L 426.37 534.00 L 426.42 534.00 L 426.50 534.00 L 426.55 534.00 L 426.64 534.00 L 426.73 534.00 L 426.77 534.00 L 426.86 534.00 L 426.90 534.00 L 426.99 534.00 L 427.04 534.00 L 427.13 534.00 L 427.17 534.00 L 427.26 534.00 L 427.30 534.00 L 427.39 534.00 L 427.44 534.00 L 427.52 534.00 L 427.57 534.00 L 427.66 534.00 L 427.70 534.00 L 427.79 534.00 L 427.83 534.00 L 427.92 534.00 L 427.97 534.00 L 428.06 534.00 L 428.10 534.00 L 428.19 534.00 L 428.23 534.00 L 428.32 534.00 L 428.37 534.00 L 428.45 534.00 L 428.50 534.00 L 428.59 534.00 L 428.63 534.00 L 428.72 534.00 L 428.76 534.00 L 428.85 534.00 L 428.90 529.20 L 428.99 529.99 L 429.03 527.14 L 429.12 523.90 L 429.21 522.31 L 429.25 521.56 L 429.34 523.90 L 429.39 529.13 L 429.47 528.99 L 429.52 529.97 L 429.61 529.37 L 429.65 528.42 L 429.74 527.22 L 429.78 523.90 L 429.87 521.56 L 429.92 519.97 L 430.01 521.56 L 430.05 521.56 L 430.14 521.56 L 430.18 522.31 L 430.27 522.31 L 430.32 522.31 L 430.40 522.31 L 430.45 523.90 L 430.54 523.90 L 430.58 521.56 L 430.67 522.35 L 430.71 521.56 L 430.80 521.56 L 430.85 521.56 L 430.94 523.90 L 430.98 531.66 L 431.07 531.66 L 431.11 534.00 L 431.20 534.00 L 431.25 534.00 L 431.33 534.00 L 431.38 534.00 L 431.47 534.00 L 431.51 534.00 L 431.60 534.00 L 431.65 534.00 L 431.73 534.00 L 431.82 534.00 L 431.87 534.00 L 431.96 534.00 L 432.00 534.00 L 432.09 534.00 L 432.13 534.00 L 432.22 534.00 L 432.27 534.00 L 432.35 534.00 L 432.40 534.00 L 432.49 534.00 L 432.53 534.00 L 432.62 531.31 L 432.66 532.17 L 432.75 532.36 L 432.80 531.66 L 432.89 531.66 L 432.93 531.66 L 433.02 532.19 L 433.06 534.00 L 433.15 534.00 L 433.20 534.00 L 433.28 534.00 L 433.33 534.00 L 433.42 534.00 L 433.46 534.00 L 433.55 534.00 L 433.59 534.00 L 433.68 534.00 L 433.73 534.00 L 433.82 534.00 L 433.86 534.00 L 433.95 534.00 L 433.99 534.00 L 434.08 534.00 L 434.13 534.00 L 434.22 534.00 L 434.30 534.00 L 434.35 534.00 L 434.44 534.00 L 434.48 534.00 L 434.57 534.00 L 434.61 534.00 L 434.70 534.00 L 434.75 534.00 L 434.84 534.00 L 434.88 534.00 L 434.97 534.00 L 435.01 534.00 L 435.10 534.00 L 435.15 534.00 L 435.23 534.00 L 435.28 534.00 L 435.37 534.00 L 435.41 534.00 L 435.50 534.00 L 435.54 534.00 L 435.63 534.00 L 435.68 534.00 L 435.77 534.00 L 435.81 534.00 L 435.90 534.00 L 435.94 534.00 L 436.03 534.00 L 436.08 534.00 L 436.16 534.00 L 436.21 534.00 L 436.30 534.00 L 436.34 534.00 L 436.43 534.00 L 436.47 534.00 L 436.56 534.00 L 436.61 534.00 L 436.70 534.00 L 436.79 534.00 L 436.83 534.00 L 436.92 529.29 L 436.96 529.65 L 437.05 530.99 L 437.10 530.89 L 437.18 529.62 L 437.23 530.07 L 437.32 531.04 L 437.36 530.65 L 437.45 530.66 L 437.49 530.11 L 437.58 529.50 L 437.63 534.00 L 437.72 534.00 L 437.76 534.00 L 437.85 534.00 L 437.89 534.00 L 437.98 534.00 L 438.03 534.00 L 438.11 534.00 L 438.16 534.00 L 438.25 534.00 L 438.29 534.00 L 438.38 534.00 L 438.42 534.00 L 438.51 534.00 L 438.56 534.00 L 438.65 534.00 L 438.69 534.00 L 438.78 534.00 L 438.82 534.00 L 438.91 534.00 L 438.96 534.00 L 439.05 534.00 L 439.09 534.00 L 439.18 534.00 L 439.27 534.00 L 439.31 534.00 L 439.40 534.00 L 439.44 534.00 L 439.53 534.00 L 439.58 534.00 L 439.67 534.00 L 439.71 534.00 L 439.80 534.00 L 439.84 534.00 L 439.93 534.00 L 439.98 534.00 L 440.06 534.00 L 440.11 534.00 L 440.20 534.00 L 440.24 534.00 L 440.33 534.00 L 440.37 534.00 L 440.46 534.00 L 440.51 534.00 L 440.60 534.00 L 440.64 534.00 L 440.73 534.00 L 440.77 534.00 L 440.86 534.00 L 440.91 534.00 L 440.99 534.00 L 441.04 534.00 L 441.13 534.00 L 441.17 534.00 L 441.26 534.00 L 441.30 534.00 L 441.39 534.00 L 441.44 534.00 L 441.53 534.00 L 441.57 534.00 L 441.66 534.00 L 441.75 534.00 L 441.79 534.00 L 441.88 534.00 L 441.93 534.00 L 442.01 534.00 L 442.06 534.00 L 442.15 534.00 L 442.19 534.00 L 442.28 534.00 L 442.32 534.00 L 442.41 534.00 L 442.46 534.00 L 442.55 534.00 L 442.59 534.00 L 442.68 534.00 L 442.72 534.00 L 442.81 534.00 L 442.86 534.00 L 442.94 534.00 L 442.99 534.00 L 443.08 534.00 L 443.12 534.00 L 443.21 534.00 L 443.25 534.00 L 443.34 534.00 L 443.39 534.00 L 443.48 534.00 L 443.52 534.00 L 443.61 534.00 L 443.65 534.00 L 443.74 534.00 L 443.79 534.00 L 443.87 534.00 L 443.92 534.00 L 444.01 534.00 L 444.05 534.00 L 444.14 534.00 L 444.19 534.00 L 444.27 534.00 L 444.36 534.00 L 444.41 534.00 L 444.50 534.00 L 444.54 534.00 L 444.63 534.00 L 444.67 534.00 L 444.76 534.00 L 444.81 534.00 L 444.89 534.00 L 444.94 534.00 L 445.03 534.00 L 445.07 534.00 L 445.16 534.00 L 445.20 534.00 L 445.29 534.00 L 445.34 534.00 L 445.43 534.00 L 445.47 534.00 L 445.56 534.00 L 445.60 534.00 L 445.69 534.00 L 445.74 534.00 L 445.82 534.00 L 445.87 534.00 L 445.96 534.00 L 446.00 534.00 L 446.09 534.00 L 446.13 534.00 L 446.22 534.00 L 446.27 534.00 L 446.36 534.00 L 458.10 534.00 L 458.10 534.00 L 458.10 534.00 L 458.10 534.00 L 458.10 534.00 L 458.10 534.00 L 458.10 534.00 L 458.10 534.00 L 458.10 534.00 L 458.10 534.00 L 458.14 534.00 L 458.14 534.00 L 458.14 534.00 L 458.14 534.00 L 458.14 534.00 L 458.14 534.00 L 458.14 534.00 L 458.14 534.00 L 458.14 534.00 L 458.14 534.00 L 458.14 534.00 L 458.14 534.00 L 458.14 534.00 L 458.14 534.00 L 458.14 534.00 L 458.14 534.00 L 458.14 534.00 L 458.14 534.00 L 458.14 534.00 L 458.14 534.00 L 458.14 534.00 L 458.14 534.00 L 458.14 534.00 L 458.14 534.00 L 458.14 534.00 L 458.14 534.00 L 458.14 534.00 L 458.14 534.00 L 458.14 534.00 L 458.14 534.00 L 458.14 527.95 L 458.14 528.07 L 458.14 527.49 L 458.14 524.69 L 458.14 521.43 L 458.14 526.08 L 458.14 526.28 L 458.14 525.62 L 458.14 521.43 L 458.14 521.43 L 458.14 526.74 L 458.14 529.64 L 458.14 525.06 L 458.14 523.77 L 458.14 521.43 L 458.14 518.30 L 458.14 518.30 L 458.14 518.30 L 458.14 519.85 L 458.14 521.43 L 458.14 525.36 L 458.14 527.44 L 458.14 526.30 L 458.14 529.73 L 458.14 529.36 L 458.19 528.98 L 458.19 528.92 L 458.19 529.25 L 458.19 529.33 L 458.19 529.12 L 458.19 528.59 L 458.19 528.44 L 458.19 528.88 L 458.19 528.03 L 458.19 526.92 L 458.19 527.24 L 458.19 526.29 L 458.19 525.68 L 458.19 525.14 L 458.19 522.23 L 458.19 519.89 L 458.19 518.30 L 458.19 518.30 L 458.19 518.30 L 458.19 519.89 L 458.19 522.23 L 458.19 523.81 L 458.19 522.23 L 458.19 534.00 L 458.19 534.00 L 458.19 534.00 L 458.19 534.00 L 458.23 534.00 L 458.28 534.00 L 458.36 534.00 L 458.41 534.00 L 458.50 534.00 L 458.54 534.00 L 458.63 534.00 L 458.67 534.00 L 458.76 534.00 L 458.81 534.00 L 458.90 534.00 L 458.94 534.00 L 459.03 534.00 L 459.07 534.00 L 459.16 534.00 L 459.21 534.00 L 459.30 534.00 L 459.34 534.00 L 459.43 534.00 L 459.47 534.00 L 459.56 534.00 L 459.61 534.00 L 459.69 534.00 L 459.74 534.00 L 459.83 534.00 L 459.87 534.00 L 459.96 534.00 L 460.05 534.00 L 460.09 534.00 L 460.18 534.00 L 460.23 534.00 L 460.31 534.00 L 460.36 534.00 L 460.45 534.00 L 460.49 534.00 L 460.58 534.00 L 460.62 534.00 L 460.71 534.00 L 460.76 534.00 L 460.85 534.00 L 460.89 534.00 L 460.98 534.00 L 461.02 534.00 L 461.11 534.00 L 461.16 534.00 L 461.24 534.00 L 461.29 534.00 L 461.38 534.00 L 461.42 534.00 L 461.51 534.00 L 461.56 534.00 L 461.64 534.00 L 461.69 534.00 L 461.78 534.00 L 461.82 534.00 L 461.91 534.00 L 461.95 534.00 L 462.04 534.00 L 462.09 534.00 L 462.18 534.00 L 462.22 534.00 L 462.31 534.00 L 462.35 534.00 L 462.44 534.00 L 462.49 534.00 L 462.57 534.00 L 462.62 534.00 L 462.71 534.00 L 462.80 534.00 L 462.84 534.00 L 462.93 534.00 L 462.97 534.00 L 463.06 534.00 L 463.11 534.00 L 463.19 534.00 L 463.24 534.00 L 463.33 534.00 L 463.37 534.00 L 463.46 534.00 L 463.50 534.00 L 463.59 534.00 L 463.64 534.00 L 463.73 534.00 L 463.77 534.00 L 463.86 534.00 L 463.90 534.00 L 463.99 534.00 L 464.04 534.00 L 464.13 534.00 L 464.17 534.00 L 464.26 534.00 L 464.30 534.00 L 464.39 534.00 L 464.44 534.00 L 464.52 534.00 L 464.57 534.00 L 464.66 534.00 L 464.70 534.00 L 464.79 534.00 L 464.83 534.00 L 464.92 534.00 L 464.97 534.00 L 465.06 534.00 L 465.10 534.00 L 465.19 534.00 L 465.23 534.00 L 465.32 534.00 L 465.41 534.00 L 465.45 534.00 L 465.54 534.00 L 465.59 534.00 L 465.68 534.00 L 465.72 534.00 L 465.81 534.00 L 465.85 534.00 L 465.94 534.00 L 465.99 534.00 L 466.07 534.00 L 466.12 534.00 L 466.21 534.00 L 466.25 534.00 L 466.34 534.00 L 466.39 534.00 L 466.47 534.00 L 466.52 534.00 L 466.61 534.00 L 466.65 534.00 L 466.74 534.00 L 466.78 534.00 L 466.87 534.00 L 466.92 534.00 L 467.01 534.00 L 467.05 534.00 L 467.14 534.00 L 467.18 534.00 L 467.27 534.00 L 467.32 534.00 L 467.40 534.00 L 467.45 534.00 L 467.54 534.00 L 467.58 534.00 L 467.67 534.00 L 467.71 534.00 L 467.80 534.00 L 467.85 534.00 L 467.94 534.00 L 467.98 534.00 L 468.07 534.00 L 468.16 534.00 L 468.20 534.00 L 468.29 534.00 L 468.33 534.00 L 468.42 534.00 L 468.47 534.00 L 468.56 534.00 L 468.60 534.00 L 468.69 534.00 L 468.73 534.00 L 468.82 534.00 L 468.87 534.00 L 468.96 534.00 L 469.00 534.00 L 469.09 526.22 L 469.13 526.77 L 469.22 526.40 L 469.27 527.48 L 469.35 527.65 L 469.40 527.01 L 469.49 534.00 L 469.53 534.00 L 469.62 534.00 L 469.66 534.00 L 469.75 534.00 L 469.80 534.00 L 469.89 534.00 L 469.93 534.00 L 470.02 534.00 L 470.06 534.00 L 470.15 534.00 L 470.20 534.00 L 470.28 534.00 L 470.33 534.00 L 470.42 534.00 L 470.46 525.85 L 470.55 526.79 L 470.59 529.48 L 470.68 525.32 L 470.73 525.79 L 470.82 525.55 L 470.90 524.59 L 470.95 524.06 L 471.04 526.28 L 471.08 525.28 L 471.17 524.42 L 471.21 525.48 L 471.30 527.25 L 471.35 528.21 L 471.44 528.68 L 471.48 528.34 L 471.57 529.18 L 471.61 529.17 L 471.70 529.56 L 471.75 529.90 L 471.84 527.68 L 471.88 534.00 L 471.97 534.00 L 472.01 534.00 L 472.10 534.00 L 472.15 534.00 L 472.23 534.00 L 472.28 534.00 L 472.37 534.00 L 472.41 534.00 L 472.50 534.00 L 472.54 534.00 L 472.63 534.00 L 472.68 534.00 L 472.77 534.00 L 472.81 534.00 L 472.90 534.00 L 472.94 534.00 L 473.03 534.00 L 473.08 534.00 L 473.16 534.00 L 473.21 534.00 L 473.30 534.00 L 473.34 534.00 L 473.43 534.00 L 473.52 534.00 L 473.56 534.00 L 473.65 534.00 L 473.70 534.00 L 473.78 534.00 L 473.83 534.00 L 473.92 534.00 L 473.96 534.00 L 474.05 534.00 L 474.10 534.00 L 474.18 534.00 L 474.23 534.00 L 474.32 534.00 L 474.36 534.00 L 474.45 534.00 L 474.49 534.00 L 474.58 534.00 L 474.63 534.00 L 474.72 534.00 L 474.76 534.00 L 474.85 534.00 L 474.89 534.00 L 474.98 534.00 L 475.03 534.00 L 475.11 534.00 L 475.16 534.00 L 475.25 534.00 L 475.29 534.00 L 475.38 534.00 L 475.42 534.00 L 475.51 534.00 L 475.56 534.00 L 475.65 534.00 L 475.69 534.00 L 475.78 534.00 L 475.82 534.00 L 475.91 534.00 L 475.96 534.00 L 476.04 534.00 L 476.09 534.00 L 476.18 534.00 L 476.22 534.00 L 476.31 534.00 L 476.40 534.00 L 476.44 534.00 L 476.53 534.00 L 476.58 534.00 L 476.67 534.00 L 476.71 534.00 L 476.80 534.00 L 476.84 534.00 L 476.93 534.00 L 476.98 534.00 L 477.06 534.00 L 477.11 534.00 L 477.20 534.00 L 477.24 534.00 L 477.33 534.00 L 477.37 534.00 L 477.46 534.00 L 477.51 534.00 L 477.60 534.00 L 477.64 534.00 L 477.73 534.00 L 477.77 534.00 L 477.86 534.00 L 477.91 527.05 L 477.99 529.53 L 478.04 529.38 L 478.13 521.35 L 478.17 514.21 L 478.26 514.21 L 478.30 514.21 L 478.39 514.21 L 478.44 514.21 L 478.53 514.21 L 478.57 514.21 L 478.66 515.80 L 478.70 514.21 L 478.79 515.80 L 478.84 515.80 L 478.93 515.80 L 478.97 515.80 L 479.06 515.80 L 479.15 515.80 L 479.19 515.80 L 479.28 515.80 L 479.32 515.80 L 479.41 515.80 L 479.46 515.80 L 479.55 515.80 L 479.59 515.80 L 479.68 519.76 L 479.72 519.76 L 479.81 519.76 L 479.86 519.76 L 479.94 519.76 L 479.99 519.76 L 480.08 519.76 L 480.12 521.35 L 480.21 521.35 L 480.25 521.35 L 480.34 521.35 L 480.39 521.35 L 480.48 523.73 L 480.52 523.73 L 480.61 523.73 L 480.65 523.73 L 480.74 523.73 L 480.79 523.73 L 480.87 523.73 L 480.92 523.73 L 481.01 523.73 L 481.05 523.73 L 481.14 523.73 L 481.18 523.73 L 481.27 523.73 L 481.32 523.73 L 481.41 523.73 L 481.45 523.77 L 481.54 523.77 L 481.58 523.77 L 481.67 523.77 L 481.76 523.77 L 481.81 523.77 L 481.89 523.77 L 481.94 523.77 L 482.03 523.77 L 482.07 523.77 L 482.16 523.77 L 482.20 525.36 L 482.29 525.36 L 482.34 525.36 L 482.43 525.36 L 482.47 525.36 L 482.56 526.15 L 482.60 526.15 L 482.69 526.15 L 482.74 526.15 L 482.82 526.15 L 482.87 526.15 L 482.96 526.15 L 483.00 526.15 L 483.09 526.15 L 483.13 526.15 L 483.22 526.15 L 483.27 526.15 L 483.36 526.15 L 483.40 526.15 L 483.49 526.15 L 483.53 526.15 L 483.62 526.15 L 483.67 525.40 L 483.75 531.66 L 483.80 531.66 L 483.89 531.66 L 483.93 531.66 L 484.02 531.66 L 484.07 531.66 L 484.15 531.66 L 484.20 531.66 L 484.29 531.66 L 484.38 531.66 L 484.42 531.66 L 484.51 531.66 L 484.55 531.66 L 484.64 531.66 L 484.69 531.66 L 484.77 531.66 L 484.82 531.66 L 484.91 531.66 L 484.95 531.66 L 485.04 531.66 L 485.08 531.66 L 485.17 531.66 L 485.22 532.46 L 485.31 532.46 L 485.35 531.56 L 485.44 531.77 L 485.48 532.01 L 485.57 532.46 L 485.62 532.46 L 485.70 532.40 L 485.75 532.17 L 485.84 532.15 L 485.88 532.46 L 485.97 532.46 L 486.01 532.46 L 486.10 532.46 L 486.15 532.46 L 486.24 532.46 L 486.28 532.36 L 486.37 534.00 L 486.41 534.00 L 486.50 534.00 L 486.55 534.00 L 486.64 534.00 L 486.68 534.00 L 486.77 534.00 L 486.86 534.00 L 486.90 534.00 L 486.99 534.00 L 487.03 534.00 L 487.12 534.00 L 487.17 534.00 L 487.26 534.00 L 487.30 534.00 L 487.39 534.00 L 487.43 534.00 L 487.52 534.00 L 487.57 534.00 L 487.65 534.00 L 487.70 534.00 L 487.79 534.00 L 487.83 534.00 L 487.92 534.00 L 487.96 534.00 L 488.05 534.00 L 488.10 534.00 L 488.19 534.00 L 488.23 534.00 L 488.32 534.00 L 488.36 534.00 L 488.45 534.00 L 488.50 534.00 L 488.58 534.00 L 488.63 534.00 L 488.72 534.00 L 488.76 534.00 L 488.85 534.00 L 488.90 534.00 L 488.98 534.00 L 489.03 534.00 L 489.12 534.00 L 489.16 534.00 L 489.25 534.00 L 489.34 534.00 L 489.38 534.00 L 489.47 534.00 L 489.52 534.00 L 489.60 534.00 L 489.65 534.00 L 489.74 534.00 L 489.78 534.00 L 489.87 534.00 L 489.91 534.00 L 490.00 534.00 L 490.05 534.00 L 490.14 534.00 L 490.18 534.00 L 490.27 531.07 L 490.31 531.92 L 490.40 532.25 L 490.45 532.00 L 490.53 531.77 L 490.58 531.80 L 490.67 532.09 L 490.71 531.66 L 490.80 531.66 L 490.84 531.66 L 490.93 531.66 L 490.98 531.66 L 491.07 531.66 L 491.11 531.66 L 491.20 531.66 L 491.24 531.66 L 491.33 532.35 L 491.38 532.10 L 491.47 534.00 L 491.51 534.00 L 491.60 534.00 L 491.64 531.26 L 491.73 531.11 L 491.82 531.27 L 491.86 531.73 L 491.95 532.12 L 492.00 532.45 L 492.09 531.70 L 492.13 531.70 L 492.22 531.70 L 492.26 531.70 L 492.35 531.70 L 492.40 531.70 L 492.48 531.70 L 492.53 532.46 L 492.62 532.46 L 492.66 532.46 L 492.75 531.70 L 492.79 531.70 L 492.88 532.46 L 492.93 532.46 L 493.02 532.46 L 493.06 532.46 L 493.15 532.46 L 493.19 532.40 L 493.28 534.00 L 493.33 534.00 L 493.41 534.00 L 493.46 534.00 L 493.55 534.00 L 493.59 531.96 L 493.68 532.46 L 493.73 532.46 L 493.81 532.46 L 493.86 532.46 L 493.95 532.46 L 493.99 532.46 L 494.08 532.46 L 494.12 532.46 L 494.21 532.46 L 494.30 532.46 L 494.35 532.46 L 494.43 532.46 L 494.48 532.46 L 494.57 532.46 L 494.61 532.46 L 494.70 532.46 L 494.74 532.46 L 494.83 532.46 L 494.88 532.46 L 494.97 532.46 L 495.01 532.46 L 495.10 532.46 L 495.14 532.46 L 495.23 532.46 L 495.28 532.46 L 495.36 532.46 L 495.41 532.46 L 495.50 532.46 L 495.54 532.46 L 495.63 532.46 L 495.67 532.46 L 495.76 532.46 L 495.81 532.46 L 495.90 532.46 L 495.94 532.46 L 496.03 532.46 L 496.07 532.46 L 496.16 532.46 L 496.21 532.46 L 496.30 532.46 L 496.34 532.46 L 496.43 532.46 L 496.47 532.46 L 496.56 532.46 L 496.65 532.46 L 496.69 532.46 L 496.78 532.46 L 496.83 532.46 L 496.92 532.46 L 496.96 532.46 L 497.05 532.46 L 497.09 532.46 L 497.18 532.46 L 497.23 532.46 L 497.31 532.46 L 497.36 532.46 L 497.45 532.46 L 497.49 532.46 L 497.58 532.46 L 497.62 532.46 L 497.71 532.46 L 497.76 532.46 L 497.85 532.46 L 497.89 532.46 L 497.98 532.46 L 498.02 532.46 L 498.11 532.46 L 498.16 532.46 L 498.24 532.46 L 498.29 532.46 L 498.38 532.46 L 498.42 532.46 L 498.51 532.46 L 498.55 532.46 L 498.64 532.46 L 498.69 532.46 L 498.78 532.46 L 498.87 532.46 L 498.91 532.46 L 499.00 532.46 L 499.04 532.46 L 499.13 532.46 L 499.18 532.50 L 499.26 532.50 L 499.31 532.50 L 499.40 532.50 L 499.44 532.50 L 499.53 532.50 L 499.57 532.50 L 499.66 532.50 L 499.71 532.50 L 499.80 532.50 L 499.84 532.50 L 499.93 532.50 L 499.97 532.50 L 500.06 532.50 L 500.11 532.50 L 500.19 532.50 L 500.24 532.50 L 500.33 532.50 L 500.37 532.50 L 500.46 532.50 L 500.50 532.50 L 500.59 532.50 L 500.64 532.50 L 500.73 532.50 L 500.77 532.50 L 500.86 532.50 L 500.90 532.50 L 500.99 532.50 L 501.08 532.50 L 501.12 532.50 L 501.21 532.50 L 501.26 532.50 L 501.35 532.50 L 501.39 532.50 L 501.48 532.50 L 501.52 532.50 L 501.61 532.50 L 501.66 532.50 L 501.75 532.50 L 501.79 532.50 L 501.88 532.50 L 501.92 532.50 L 502.01 532.50 L 502.06 532.50 L 502.14 532.50 L 502.19 532.50 L 502.28 532.50 L 502.32 532.50 L 502.41 532.50 L 502.45 532.50 L 502.54 532.50 L 502.59 532.50 L 502.68 532.50 L 502.72 532.50 L 502.81 532.50 L 502.85 532.50 L 502.94 532.50 L 502.99 532.50 L 503.07 532.50 L 503.12 532.50 L 503.21 532.50 L 503.30 532.50 L 503.34 532.50 L 503.43 532.50 L 503.47 532.50 L 503.56 532.50 L 503.61 532.50 L 503.70 532.50 L 503.74 532.50 L 503.83 532.50 L 503.87 532.50 L 503.96 532.50 L 504.01 532.50 L 504.09 532.50 L 504.14 532.50 L 504.23 532.50 L 504.27 532.50 L 504.36 532.50 L 504.40 532.50 L 504.49 532.50 L 504.54 532.50 L 504.63 532.50 L 504.67 532.50 L 504.76 532.50 L 504.80 532.50 L 504.89 532.50 L 504.94 532.50 L 505.02 532.50 L 505.07 532.50 L 505.16 532.50 L 505.20 532.50 L 505.29 532.50 L 505.33 532.50 L 505.42 532.50 L 505.51 532.50 L 505.56 532.50 L 505.64 532.50 L 505.69 532.50 L 505.78 532.50 L 505.82 532.50 L 505.91 532.50 L 505.95 532.50 L 506.04 532.50 L 506.09 532.50 L 506.18 532.50 L 506.22 532.50 L 506.31 532.50 L 506.35 532.50 L 506.44 532.50 L 506.49 532.50 L 506.58 532.50 L 506.62 532.50 L 506.71 532.50 L 506.75 532.50 L 506.84 532.50 L 506.89 532.50 L 506.97 532.50 L 507.02 532.50 L 507.11 532.50 L 507.15 532.50 L 507.24 532.50 L 507.28 532.50 L 507.37 532.50 L 507.42 532.50 L 507.51 532.50 L 507.59 532.50 L 507.64 532.50 L 507.73 532.50 L 507.77 532.50 L 507.86 532.50 L 507.90 532.50 L 507.99 532.50 L 508.04 532.50 L 508.13 532.50 L 508.17 532.50 L 508.26 532.50 L 508.30 532.50 L 508.39 532.50 L 508.44 532.50 L 508.52 532.50 L 508.57 532.50 L 508.66 532.50 L 508.70 532.50 L 508.79 532.50 L 508.84 532.50 L 508.92 532.50 L 508.97 532.50 L 509.06 532.50 L 509.10 532.50 L 509.19 532.50 L 509.23 532.50 L 509.32 532.50 L 509.37 532.50 L 509.46 532.50 L 509.50 532.50 L 509.59 532.50 L 509.63 532.50 L 509.72 532.50 L 509.81 532.50 L 509.85 532.50 L 509.94 532.50 L 509.99 532.50 L 510.08 532.50 L 510.12 532.50 L 510.21 532.50 L 510.25 532.50 L 510.34 532.50 L 510.39 532.50 L 510.47 532.50 L 510.52 532.50 L 510.61 532.50 L 510.65 532.50 L 510.74 532.50 L 510.78 532.50 L 510.87 532.50 L 510.92 532.50 L 511.01 532.50 L 511.05 532.50 L 511.14 532.50 L 511.18 532.50 L 511.27 532.50 L 511.32 532.50 L 511.41 532.50 L 511.45 532.50 L 511.54 532.50 L 511.58 532.50 L 511.67 532.50 L 511.72 532.50 L 511.80 532.50 L 511.89 532.50 L 511.94 532.50 L 512.03 532.50 L 512.07 532.50 L 512.16 532.50 L 512.20 532.50 L 512.29 532.50 L 512.34 532.50 L 512.42 532.50 L 512.47 532.50 L 512.56 532.50 L 512.60 532.50 L 512.69 532.50 L 512.73 532.50 L 512.82 532.50 L 512.87 532.50 L 512.96 532.50 L 513.00 532.50 L 513.09 532.50 L 513.13 532.50 L 513.22 532.50 L 513.27 532.50 L 513.35 532.50 L 513.40 532.50 L 513.49 532.50 L 513.53 532.50 L 513.62 532.50 L 513.67 532.50 L 513.75 532.50 L 513.80 532.50 L 513.89 532.50 L 513.98 532.50 L 514.02 532.50 L 514.11 532.50 L 514.15 532.50 L 514.24 532.50 L 514.29 532.50 L 514.37 532.50 L 514.42 532.50 L 514.51 532.50 L 514.55 532.50 L 514.64 532.50 L 514.68 532.50 L 514.77 532.50 L 514.82 532.50 L 514.91 532.50 L 514.95 532.50 L 515.04 532.50 L 515.08 532.50 L 515.17 532.50 L 515.22 532.50 L 515.30 532.50 L 515.35 532.50 L 515.44 532.50 L 515.48 532.50 L 515.57 532.50 L 515.61 532.50 L 515.70 532.50 L 515.75 532.50 L 515.84 532.50 L 515.88 532.50 L 515.97 532.50 L 516.06 532.50 L 516.10 532.50 L 516.19 532.50 L 516.24 532.50 L 516.32 532.50 L 516.37 532.50 L 516.46 532.50 L 516.50 532.50 L 516.59 532.50 L 516.63 532.50 L 516.72 532.50 L 516.77 532.50 L 516.86 532.50 L 516.90 532.50 L 516.99 532.50 L 517.03 532.50 L 517.12 532.50 L 517.17 532.50 L 517.25 532.50 L 517.30 532.50 L 517.39 532.50 L 517.43 532.50 L 517.52 532.50 L 517.56 532.50 L 517.65 532.50 L 517.70 532.50 L 517.79 532.50 L 517.83 532.50 L 517.92 532.50 L 517.96 532.50 L 518.05 532.50 L 518.14 532.50 L 518.18 532.50 L 518.27 532.50 L 518.32 532.50 L 518.41 532.50 L 518.45 532.50 L 518.54 532.50 L 518.58 532.50 L 518.67 532.50 L 518.72 532.50 L 518.81 532.50 L 518.85 532.50 L 518.94 532.50 L 518.98 532.50 L 519.07 532.50 L 519.12 532.50 L 519.20 532.50 L 519.25 532.50 L 519.34 532.50 L 519.38 532.50 L 519.47 532.50 L 519.51 532.50 L 519.60 532.50 L 519.65 532.50 L 519.74 532.50 L 519.78 532.50 L 519.87 532.50 L 519.91 532.50 L 520.00 532.50 L 520.05 532.50 L 520.13 532.50 L 520.22 532.50 L 520.27 532.50 L 520.36 532.50 L 520.40 532.50 L 520.49 532.50 L 520.53 532.50 L 520.62 532.50 L 520.67 532.50 L 520.75 532.50 L 520.80 532.50 L 520.89 532.50 L 520.93 532.50 L 521.02 532.50 L 521.06 532.50 L 521.15 532.50 L 521.20 532.50 L 521.29 532.50 L 521.33 532.50 L 521.42 532.50 L 521.46 532.50 L 521.55 532.50 L 521.60 532.50 L 521.69 532.50 L 521.73 532.50 L 521.82 532.50 L 521.86 532.50 L 521.95 532.50 L 522.00 532.50 L 522.08 532.50 L 522.13 532.50 L 522.22 532.50 L 522.31 532.50 L 522.35 532.50 L 522.44 532.50 L 522.48 532.50 L 522.57 532.50 L 522.62 532.50 L 522.70 532.50 L 522.75 532.50 L 522.84 532.50 L 522.88 532.50 L 522.97 532.50 L 523.01 532.50 L 523.10 532.50 L 523.15 532.50 L 523.24 532.50 L 523.28 532.50 L 523.37 532.50 L 523.41 532.50 L 523.50 532.50 L 523.55 532.50 L 523.64 532.50 L 523.68 532.50 L 523.77 532.50 L 523.81 532.50 L 523.90 532.50 L 523.95 532.50 L 524.03 532.50 L 524.08 532.50 L 524.17 532.50 L 524.21 532.50 L 524.30 532.50 L 524.39 532.50 L 524.43 532.50 L 524.52 532.50 L 524.57 532.50 L 524.65 532.50 L 524.70 532.50 L 524.79 532.50 L 524.83 532.50 L 524.92 532.50 L 524.96 532.50 L 525.05 532.50 L 525.10 532.50 L 525.19 532.50 L 525.23 532.50 L 525.32 532.50 L 525.36 532.50 L 525.45 532.50 L 525.50 532.50 L 525.58 532.50 L 525.63 532.50 L 525.72 532.50 L 525.76 532.50 L 525.85 532.50 L 525.89 532.50 L 525.98 532.50 L 526.03 532.50 L 526.12 532.50 L 526.16 532.50 L 526.25 532.50 L 526.29 532.50 L 526.38 532.50 L 526.47 532.50 L 526.52 532.50 L 526.60 532.50 L 526.65 532.50 L 526.74 532.50 L 526.78 532.50 L 526.87 532.50 L 526.91 532.50 L 527.00 532.50 L 527.05 532.50 L 527.14 532.50 L 527.18 532.50 L 527.27 532.50 L 527.31 532.50 L 527.40 532.50 L 527.45 532.50 L 527.53 532.50 L 527.58 532.50 L 527.67 532.50 L 527.71 532.50 L 527.80 532.50 L 527.84 532.50 L 527.93 532.50 L 527.98 532.50 L 528.07 532.50 L 528.11 532.50 L 528.20 532.50 L 528.24 532.50 L 528.33 532.50 L 528.42 532.50 L 528.46 532.50 L 528.55 532.50 L 528.60 532.50 L 528.69 532.50 L 528.73 532.50 L 528.82 532.50 L 528.86 532.50 L 528.95 532.50 L 529.00 532.50 L 529.09 532.50 L 529.13 532.50 L 548.49 534.00 L 548.49 534.00 L 548.49 534.00 L 548.49 532.36 L 548.49 532.50 L 548.49 532.50 L 548.49 532.50 L 548.49 532.50 L 548.49 532.50 L 548.49 532.50 L 548.49 532.50 L 548.49 532.50 L 548.49 532.50 L 548.49 532.50 L 548.49 532.50 L 548.49 532.50 L 548.49 532.50 L 548.49 532.50 L 548.49 532.50 L 548.49 532.50 L 548.49 532.50 L 548.54 532.50 L 548.54 532.50 L 548.54 532.50 L 548.54 532.50 L 548.54 532.50 L 548.54 532.50 L 548.54 532.50 L 548.54 532.50 L 548.54 532.50 L 548.54 532.50 L 548.54 532.50 L 548.54 532.50 L 548.54 532.50 L 548.54 532.50 L 548.54 532.50 L 548.54 534.00 L 548.54 534.00 L 548.54 534.00 L 548.54 534.00 L 548.54 534.00 L 548.54 534.00 L 548.54 534.00 L 548.54 534.00 L 548.54 534.00 L 548.54 534.00 L 548.54 534.00 L 548.54 534.00 L 548.54 534.00 L 548.54 534.00 L 548.54 534.00 L 548.54 534.00 L 548.54 534.00 L 548.54 534.00 L 548.54 534.00 L 548.54 534.00 L 548.54 534.00 L 548.54 534.00 L 548.54 534.00 L 548.54 534.00 L 548.54 534.00 L 548.54 534.00 L 548.54 534.00 L 548.54 534.00 L 548.54 534.00 L 548.54 534.00 L 548.54 534.00 L 548.54 534.00 L 548.54 534.00 L 548.54 534.00 L 548.54 534.00 L 548.54 534.00 L 548.54 534.00 L 548.54 534.00 L 548.54 534.00 L 548.54 534.00 L 548.54 534.00 L 548.54 534.00 L 548.58 534.00 L 548.58 534.00 L 548.58 534.00 L 548.58 534.00 L 548.58 534.00 L 548.58 534.00 L 548.58 534.00 L 548.58 534.00 L 548.58 534.00 L 548.58 534.00 L 548.58 526.40 L 548.58 526.40 L 548.58 525.65 L 548.63 525.65 L 548.72 525.65 L 548.76 525.65 L 548.80 515.05 L 548.89 515.00 L 548.94 515.00 L 549.03 516.55 L 549.07 516.55 L 549.16 524.15 L 549.20 524.11 L 549.29 524.11 L 549.34 524.11 L 549.42 524.11 L 549.47 524.11 L 549.56 524.11 L 549.60 524.11 L 549.69 524.11 L 549.78 524.11 L 549.82 524.11 L 549.91 524.11 L 549.96 524.11 L 550.04 524.11 L 550.09 530.20 L 550.18 530.20 L 550.22 530.20 L 550.31 530.20 L 550.35 530.20 L 550.44 530.20 L 550.49 530.20 L 550.58 530.20 L 550.62 530.20 L 550.71 526.40 L 550.75 526.40 L 550.84 526.40 L 550.89 526.40 L 550.98 526.40 L 551.02 526.40 L 551.11 526.40 L 551.15 526.40 L 551.24 526.40 L 551.29 526.40 L 551.37 526.40 L 551.42 526.40 L 551.51 526.40 L 551.55 531.70 L 551.64 528.70 L 551.68 531.70 L 551.77 531.70 L 551.82 527.90 L 551.91 527.90 L 551.95 527.90 L 552.04 527.90 L 552.13 527.90 L 552.17 527.90 L 552.26 527.90 L 552.30 527.90 L 552.39 527.90 L 552.44 527.90 L 552.53 527.90 L 552.57 527.90 L 552.66 527.90 L 552.70 527.90 L 552.79 527.90 L 552.84 530.20 L 552.92 530.20 L 552.97 530.20 L 553.06 530.20 L 553.10 531.70 L 553.19 531.70 L 553.23 531.70 L 553.32 531.70 L 553.37 531.70 L 553.46 531.70 L 553.50 531.70 L 553.59 531.70 L 553.63 531.70 L 553.72 531.70 L 553.77 531.70 L 553.86 531.70 L 553.90 531.70 L 553.99 531.70 L 554.03 531.75 L 554.12 531.75 L 554.17 531.75 L 554.25 531.75 L 554.34 531.75 L 554.39 531.75 L 554.48 531.75 L 554.52 531.75 L 554.61 531.75 L 554.65 531.75 L 554.74 531.75 L 554.79 531.75 L 554.87 531.75 L 554.92 531.75 L 555.01 531.75 L 555.05 531.75 L 555.14 531.75 L 555.18 531.75 L 555.27 531.75 L 555.32 531.75 L 555.41 531.75 L 555.45 531.75 L 555.54 531.75 L 555.58 531.75 L 555.67 531.75 L 555.72 531.75 L 555.80 531.75 L 555.85 531.75 L 555.94 531.75 L 555.98 531.75 L 556.07 531.75 L 556.12 531.75 L 556.20 531.75 L 556.25 531.75 L 556.34 531.75 L 556.38 531.75 L 556.47 531.75 L 556.56 531.75 L 556.60 531.75 L 556.69 531.75 L 556.74 531.75 L 556.82 531.75 L 556.87 531.75 L 556.96 531.75 L 557.00 531.75 L 557.09 531.75 L 557.13 531.75 L 557.22 531.75 L 557.27 531.75 L 557.36 531.75 L 557.40 531.75 L 557.49 531.75 L 557.53 531.75 L 557.62 531.75 L 557.67 531.75 L 557.75 531.75 L 557.80 531.75 L 557.89 531.75 L 557.93 531.75 L 558.02 531.75 L 558.06 531.75 L 558.15 531.75 L 558.20 531.75 L 558.29 531.75 L 558.33 531.75 L 558.42 531.75 L 558.46 531.75 L 558.55 531.75 L 558.64 531.75 L 558.69 532.50 L 558.77 532.50 L 558.82 532.50 L 558.91 531.75 L 558.95 531.75 L 559.04 531.75 L 559.08 531.75 L 559.17 531.75 L 559.22 531.75 L 559.31 531.75 L 559.35 531.75 L 559.44 531.75 L 559.48 531.75 L 559.57 531.75 L 559.62 532.50 L 559.70 532.50 L 559.75 532.50 L 559.84 532.50 L 559.88 532.50 L 559.97 532.50 L 560.01 532.50 L 560.10 532.50 L 560.15 532.50 L 560.24 532.50 L 560.28 532.50 L 560.37 532.38 L 560.41 534.00 L 560.50 534.00 L 560.55 534.00 L 560.63 534.00 L 560.68 534.00 L 560.77 534.00 L 560.86 534.00 L 560.90 534.00 L 560.99 532.25 L 561.03 534.00 L 561.12 534.00 L 561.17 534.00 L 561.26 534.00 L 561.30 534.00 L 561.39 534.00 L 561.43 534.00 L 561.52 534.00 L 561.57 534.00 L 561.65 534.00 L 561.70 534.00 L 561.79 534.00 L 561.83 534.00 L 561.92 534.00 L 561.96 534.00 L 562.05 534.00 L 562.10 534.00 L 562.19 534.00 L 562.23 534.00 L 562.32 534.00 L 562.36 534.00 L 562.45 534.00 L 562.50 534.00 L 562.58 534.00 L 562.63 534.00 L 562.72 534.00 L 562.76 534.00 L 562.85 534.00 L 562.89 534.00 L 562.98 534.00 L 563.07 534.00 L 563.12 534.00 L 563.20 534.00 L 563.25 534.00 L 563.34 534.00 L 563.38 534.00 L 563.47 534.00 L 563.52 534.00 L 563.60 534.00 L 563.65 534.00 L 563.74 534.00 L 563.78 534.00 L 563.87 534.00 L 563.91 534.00 L 564.00 534.00 L 564.05 534.00 L 564.14 534.00 L 564.18 534.00 L 564.27 534.00 L 564.31 534.00 L 564.40 534.00 L 564.45 534.00 L 564.53 534.00 L 564.58 534.00 L 564.67 534.00 L 564.71 534.00 L 564.80 534.00 L 564.84 534.00 L 564.93 534.00 L 564.98 534.00 L 565.07 534.00 L 565.15 534.00 L 565.20 534.00 L 565.29 534.00 L 565.33 534.00 L 565.42 534.00 L 565.46 534.00 L 565.55 534.00 L 565.60 534.00 L 565.69 534.00 L 565.73 534.00 L 565.82 534.00 L 565.86 534.00 L 565.95 534.00 L 566.00 534.00 L 566.09 534.00 L 566.13 534.00 L 566.22 534.00 L 566.26 534.00 L 566.35 534.00 L 566.40 534.00 L 566.48 534.00 L 566.53 534.00 L 566.62 534.00 L 566.66 534.00 L 566.75 534.00 L 566.79 534.00 L 566.88 534.00 L 566.93 534.00 L 567.02 534.00 L 567.06 534.00 L 567.15 534.00 L 567.19 534.00 L 567.28 534.00 L 567.33 534.00 L 567.41 534.00 L 567.50 534.00 L 567.55 534.00 L 567.64 534.00 L 567.68 534.00 L 567.77 534.00 L 567.81 534.00 L 567.90 534.00 L 567.95 534.00 L 568.03 534.00 L 568.08 534.00 L 568.17 534.00 L 568.21 534.00 L 568.30 534.00 L 568.35 534.00 L 568.43 534.00 L 568.48 534.00 L 568.57 534.00 L 568.61 534.00 L 568.70 534.00 L 568.74 534.00 L 568.83 534.00 L 568.88 534.00 L 568.97 534.00 L 569.01 534.00 L 569.10 534.00 L 569.14 534.00 L 569.23 534.00 L 569.28 534.00 L 569.36 534.00 L 569.41 534.00 L 569.50 527.93 L 569.54 529.51 L 569.63 529.38 L 569.72 526.84 L 569.76 527.40 L 569.85 526.66 L 569.90 526.67 L 569.98 525.81 L 570.03 522.56 L 570.12 521.77 L 570.16 520.26 L 570.25 520.26 L 570.29 520.26 L 570.38 520.26 L 570.43 520.26 L 570.52 520.26 L 570.56 521.77 L 570.65 521.77 L 570.69 521.77 L 570.78 521.77 L 570.83 521.77 L 570.92 522.52 L 570.96 525.61 L 571.05 527.32 L 571.09 530.20 L 571.18 530.56 L 571.23 530.25 L 571.31 529.73 L 571.36 529.75 L 571.45 529.31 L 571.49 529.46 L 571.58 529.15 L 571.62 530.04 L 571.71 529.77 L 571.76 529.08 L 571.85 529.17 L 571.89 530.12 L 571.98 529.94 L 572.07 526.50 L 572.11 524.06 L 572.20 524.06 L 572.24 525.32 L 572.33 525.79 L 572.38 521.77 L 572.47 518.68 L 572.51 518.68 L 572.60 518.68 L 572.64 518.68 L 572.73 518.68 L 572.78 518.68 L 572.86 518.68 L 572.91 520.22 L 573.00 520.22 L 573.04 525.57 L 573.13 525.57 L 573.17 525.57 L 573.26 527.86 L 573.31 529.55 L 573.40 531.12 L 573.44 530.36 L 573.53 529.77 L 573.57 529.93 L 573.66 530.90 L 573.71 530.21 L 573.80 530.54 L 573.84 530.50 L 573.93 530.56 L 573.97 529.34 L 574.06 528.66 L 574.11 528.66 L 574.19 530.78 L 574.24 530.74 L 574.33 528.17 L 574.42 527.86 L 574.46 526.36 L 574.55 525.57 L 574.59 525.57 L 574.68 531.70 L 574.73 531.70 L 574.81 531.70 L 574.86 531.70 L 574.95 531.70 L 574.99 531.70 L 575.08 531.70 L 575.12 530.16 L 575.21 530.16 L 575.26 530.16 L 575.35 530.16 L 575.39 530.16 L 575.48 531.70 L 575.52 530.16 L 575.61 530.16 L 575.66 531.70 L 575.74 531.58 L 575.79 531.35 L 575.88 531.39 L 575.92 531.42 L 576.01 531.70 L 576.06 531.70 L 576.14 531.70 L 576.19 531.70 L 576.28 531.70 L 576.32 530.16 L 576.41 530.16 L 576.45 530.16 L 576.54 530.16 L 576.59 530.16 L 576.68 530.16 L 576.76 530.16 L 576.81 530.16 L 576.90 530.16 L 576.94 530.16 L 577.03 530.16 L 577.07 530.16 L 577.16 530.16 L 577.21 530.16 L 577.30 530.16 L 577.34 530.16 L 990.14 534.00 L 990.23 534.00 L 990.28 534.00 L 990.36 534.00 L 990.41 534.00 L 990.50 534.00 L 990.54 534.00 L 990.63 534.00 L 990.72 534.00 L 990.76 534.00 L 990.85 534.00 L 990.90 534.00 L 990.98 534.00 L 991.03 534.00 L 991.12 534.00 L 991.16 534.00 L 991.25 534.00 L 991.30 534.00 L 991.38 534.00 L 991.43 534.00 L 991.52 534.00 L 991.56 534.00 L 991.65 534.00 L 991.69 534.00 L 991.78 534.00 L 991.83 534.00 L 991.92 534.00 L 991.96 534.00 L 992.05 534.00 L 992.09 534.00 L 992.18 534.00 L 992.23 534.00 L 992.31 520.71 L 992.36 523.06 L 992.45 522.89 L 992.49 511.28 L 992.58 505.11 L 992.62 502.87 L 992.71 506.78 L 992.76 512.09 L 992.85 511.05 L 992.89 503.13 L 992.98 509.79 L 993.02 516.34 L 993.11 508.13 L 993.16 506.52 L 993.24 505.77 L 993.29 503.19 L 993.38 501.24 L 993.42 502.34 L 993.51 501.70 L 993.55 500.64 L 993.64 500.77 L 993.73 499.66 L 993.78 498.10 L 993.87 498.43 L 993.91 498.00 L 994.00 497.53 L 994.04 497.33 L 994.13 497.33 L 994.18 500.01 L 994.26 497.28 L 994.31 499.91 L 994.40 497.24 L 994.44 497.21 L 994.53 497.49 L 994.57 497.33 L 994.66 497.50 L 994.71 497.43 L 994.80 499.22 L 994.84 320.44 L 994.93 398.20 L 994.97 436.99 L 995.06 435.49 L 995.11 438.89 L 995.19 441.00 L 995.24 444.00 L 995.33 443.81 L 995.37 458.57 L 995.46 458.18 L 995.50 451.66 L 995.59 452.63 L 995.64 454.44 L 995.73 449.28 L 995.77 450.93 L 995.86 453.00 L 995.90 491.32 L 995.99 489.24 L 996.04 496.05 L 996.12 522.65 L 996.17 456.56 L 996.26 448.91 L 996.30 457.91 L 996.39 458.30 L 996.44 457.88 L 996.52 458.00 L 996.57 457.99 L 996.66 458.14 L 996.75 458.05 L 996.79 458.03 L 996.88 458.06 L 996.92 457.91 L 997.01 465.56 L 997.06 465.62 L 997.14 465.36 L 997.19 465.37 L 997.28 465.40 L 997.32 426.04 L 997.41 455.56 L 997.45 492.42 L 997.54 526.77 L 997.59 534.00 L 997.68 527.09 L 997.72 527.04 L 997.81 526.95 L 997.85 477.17 L 997.94 480.74 L 997.99 480.57 L 998.07 480.51 L 998.12 480.47 L 998.21 480.38 L 998.25 480.32 L 998.34 523.68 L 998.38 527.34 L 998.47 534.00 L 998.52 487.98 L 998.61 488.07 L 998.65 509.79 L 998.74 489.63 L 998.78 489.87 L 998.87 489.06 L 998.92 489.18 L 999.01 489.18 L 999.05 209.57 L 999.14 523.36 L 999.18 493.82 L 999.27 493.40 L 999.32 493.45 L 999.40 493.23 L 999.49 493.24 L 999.54 504.37 L 999.63 504.50 L 999.67 504.54 L 999.76 504.66 L 999.80 508.40 L 999.89 508.46 L 999.94 508.50 L 1000.02 508.58 L 1000.07 508.65 L 1000.16 508.71 L 1000.20 508.71 L 1000.29 508.68 L 1000.33 508.70 L 1000.42 508.94 L 1000.47 508.97 L 1000.56 509.03 L 1000.60 509.01 L 1000.69 509.04 L 1000.73 523.23 L 1000.82 523.24 L 1000.87 523.26 L 1000.95 523.29 L 1001.00 523.26 L 1001.09 523.26 L 1001.13 523.30 L 1001.22 523.29 L 1001.27 523.29 L 1001.35 523.28 L 1001.40 523.32 L 1001.49 523.31 L 1001.53 523.29 L 1001.62 523.29 L 1001.66 523.29 L 1001.75 523.49 L 1001.80 523.50 L 1001.89 523.51 L 1001.93 523.49 L 1002.02 523.50 L 1002.06 523.52 L 1002.15 523.51 L 1002.24 523.52 L 1002.28 523.55 L 1002.37 523.54 L 1002.42 523.54 L 1002.51 523.55 L 1002.55 523.56 L 1002.64 523.55 L 1002.68 523.54 L 1002.77 523.55 L 1002.82 523.54 L 1002.90 523.55 L 1002.95 523.51 L 1003.04 523.50 L 1003.08 523.53 L 1003.17 527.07 L 1003.21 527.06 L 1003.30 527.05 L 1003.35 527.04 L 1003.44 527.04 L 1003.48 527.02 L 1003.57 527.04 L 1003.61 527.03 L 1003.70 527.02 L 1003.75 527.01 L 1003.84 527.00 L 1003.88 526.99 L 1003.97 527.01 L 1004.01 527.01 L 1004.10 526.99 L 1004.15 526.97 L 1004.23 527.00 L 1004.28 526.98 L 1004.37 526.98 L 1004.41 526.97 L 1004.50 526.96 L 1004.54 526.96 L 1004.63 526.95 L 1004.72 526.95 L 1004.77 526.96 L 1004.85 526.96 L 1004.90 526.97 L 1004.99 526.96 L 1005.03 526.96 L 1005.12 526.95 L 1005.16 523.32 L 1005.25 523.32 L 1005.30 523.32 L 1005.39 523.31 L 1005.43 523.29 L 1005.52 523.30 L 1005.56 523.29 L 1005.65 523.28 L 1005.70 523.30 L 1005.78 523.31 L 1005.83 523.30 L 1005.92 523.31 L 1005.96 523.31 L 1006.05 523.32 L 1006.09 523.30 L 1006.18 523.30 L 1006.23 523.48 L 1006.32 523.48 L 1006.36 523.51 L 1006.45 523.46 L 1006.49 523.46 L 1006.58 523.45 L 1006.63 523.47 L 1006.72 523.43 L 1006.76 523.41 L 1006.85 523.43 L 1006.89 523.42 L 1006.98 523.41 L 1007.03 523.40 L 1007.11 523.37 L 1007.20 523.39 L 1007.25 523.41 L 1007.34 523.40 L 1007.38 523.41 L 1007.47 523.40 L 1007.51 523.41 L 1007.60 523.41 L 1007.65 523.39 L 1007.73 523.38 L 1007.78 523.40 L 1007.87 523.37 L 1007.91 523.35 L 1008.00 523.34 L 1008.04 523.35 L 1008.13 523.34 L 1008.18 523.34 L 1008.27 523.35 L 1008.31 523.33 L 1008.40 523.31 L 1008.44 523.30 L 1008.53 523.29 L 1008.58 523.25 L 1008.67 523.25 L 1008.71 523.22 L 1008.80 523.24 L 1008.84 523.20 L 1008.93 523.20 L 1008.98 523.20 L 1009.06 523.19 L 1009.11 523.17 L 1009.20 523.18 L 1009.24 523.17 L 1009.33 523.10 L 1009.37 523.11 L 1009.46 523.07 L 1009.55 523.05 L 1009.60 523.06 L 1009.68 523.03 L 1009.73 523.03 L 1009.82 523.01 L 1009.86 526.79 L 1009.95 522.99 L 1009.99 526.79 L 1010.08 526.78 L 1010.13 526.79 L 1010.22 526.81 L 1010.26 526.81 L 1010.35 526.81 L 1010.39 526.80 L 1010.48 526.78 L 1010.53 526.76 L 1010.61 526.74 L 1010.66 526.72 L 1010.75 526.72 L 1010.79 526.70 L 1010.88 526.69 L 1010.92 526.66 L 1011.01 526.67 L 1011.06 526.66 L 1011.15 526.69 L 1011.19 526.65 L 1011.28 526.67 L 1011.32 526.67 L 1011.41 526.68 L 1011.46 526.69 L 1011.55 526.66 L 1011.59 526.65 L 1011.68 526.64 L 1011.77 526.64 L 1011.81 526.62 L 1011.90 526.64 L 1011.94 526.64 L 1012.03 526.62 L 1012.08 526.61 L 1012.17 526.62 L 1012.21 526.64 L 1012.30 526.64 L 1012.34 526.62 L 1012.43 526.63 L 1012.48 526.63 L 1012.56 526.63 L 1012.61 526.65 L 1012.70 526.66 L 1012.74 526.65 L 1012.83 526.66 L 1012.87 526.67 L 1012.96 526.67 L 1013.01 526.67 L 1013.10 526.66 L 1013.14 526.68 L 1013.23 526.69 L 1013.27 526.68 L 1013.36 526.68 L 1013.41 526.68 L 1013.49 526.67 L 1013.54 526.64 L 1013.63 526.67 L 1013.67 526.68 L 1013.76 526.68 L 1013.81 526.67 L 1013.89 526.67 L 1013.98 526.68 L 1014.03 526.68 L 1014.12 526.70 L 1014.16 526.69 L 1014.25 526.68 L 1014.29 526.69 L 1014.38 526.68 L 1014.43 526.68 L 1014.51 526.66 L 1014.56 526.66 L 1014.65 526.68 L 1014.69 526.66 L 1014.78 526.65 L 1014.82 526.66 L 1014.91 526.65 L 1014.96 526.64 L 1015.05 526.63 L 1015.09 526.65 L 1015.18 526.64 L 1015.22 526.64 L 1015.31 526.64 L 1015.36 526.65 L 1015.44 526.64 L 1015.49 526.64 L 1015.58 526.64 L 1015.62 526.62 L 1015.71 526.63 L 1015.75 526.62 L 1015.84 526.61 L 1015.89 526.59 L 1015.98 526.63 L 1016.06 526.63 L 1016.11 526.62 L 1016.20 526.64 L 1016.24 526.63 L 1016.33 526.62 L 1016.38 526.61 L 1016.46 526.61 L 1016.51 526.61 L 1016.60 526.61 L 1016.64 526.62 L 1016.73 526.61 L 1016.77 526.61 L 1016.86 526.60 L 1016.91 526.59 L 1017.00 526.61 L 1017.04 526.61 L 1017.13 526.60 L 1017.17 526.57 L 1017.26 526.55 L 1017.31 526.56 L 1017.39 526.58 L 1017.44 526.56 L 1017.53 526.55 L 1017.57 526.57 L 1017.66 526.56 L 1017.70 526.56 L 1017.79 526.57 L 1017.84 526.56 L 1017.93 526.57 L 1017.97 526.57 L 1018.06 526.56 L 1018.15 526.56 L 1018.19 526.56 L 1018.28 526.56 L 1018.32 526.57 L 1018.41 526.56 L 1018.46 526.56 L 1018.55 526.56 L 1018.59 526.55 L 1018.68 526.56 L 1018.72 526.55 L 1018.81 526.55 L 1018.86 526.56 L 1018.95 526.55 L 1018.99 526.56 L 1019.08 526.55 L 1019.12 526.55 L 1019.21 526.55 L 1019.26 526.54 L 1019.34 526.53 L 1019.39 526.51 L 1023.51 526.52 L 1023.51 526.52 L 1023.51 526.51 L 1023.51 526.49 L 1023.51 526.49 L 1023.51 526.49 L 1023.51 526.49 L 1023.51 526.47 L 1023.51 526.45 L 1023.51 526.46 L 1023.51 526.44 L 1023.51 526.43 L 1023.51 526.42 L 1023.51 526.40 L 1023.51 526.41 L 1023.51 526.41 L 1023.51 526.42 L 1023.51 526.62 L 1023.51 526.61 L 1023.51 526.62 L 1023.51 526.63 L 1023.51 526.62 L 1023.51 526.63 L 1023.51 526.63 L 1023.51 526.63 L 1023.51 526.62 L 1023.51 526.63 L 1023.51 526.62 L 1023.55 526.60 L 1023.55 526.60 L 1023.55 526.61 L 1023.55 526.60 L 1023.55 526.60 L 1023.55 526.60 L 1023.55 526.59 L 1023.55 526.59 L 1023.55 526.59 L 1023.55 526.58 L 1023.55 526.58 L 1023.55 526.58 L 1023.55 526.58 L 1023.55 526.56 L 1023.55 526.56 L 1023.55 526.55 L 1023.55 526.51 L 1023.55 526.54 L 1023.55 526.53 L 1023.55 526.53 L 1023.55 526.54 L 1023.55 526.54 L 1023.55 526.56 L 1023.55 526.55 L 1023.55 526.56 L 1023.55 526.56 L 1023.55 526.56 L 1023.55 526.58 L 1023.55 526.57 L 1023.55 526.57 L 1023.55 526.58 L 1023.55 526.57 L 1023.55 526.58 L 1023.55 526.57 L 1023.64 526.57 L 1023.69 526.58 L 1023.95 526.56 L 1023.95 526.55 L 1023.95 526.59 L 1023.95 526.57 L 1024.04 526.59 L 1024.09 526.58 L 1024.17 526.58 L 1024.26 526.57 L 1024.31 526.59 L 1024.40 526.58 L 1024.44 526.60 L 1024.53 526.58 L 1024.57 526.60 L 1024.66 526.55 L 1024.71 526.58 L 1024.79 526.58 L 1024.84 526.57 L 1024.93 526.54 L 1024.97 526.56 L 1025.06 526.56 L 1025.10 526.54 L 1025.19 526.54 L 1025.24 526.52 L 1025.33 526.50 L 1025.37 526.49 L 1025.46 526.50 L 1025.50 526.50 L 1025.59 526.49 L 1025.64 526.50 L 1025.72 526.47 L 1025.77 526.48 L 1025.86 526.46 L 1025.90 526.47 L 1025.99 526.47 L 1026.04 526.44 L 1026.12 526.45 L 1026.21 526.46 L 1026.26 526.46 L 1026.35 526.46 L 1026.39 526.45 L 1026.48 526.46 L 1026.52 526.44 L 1026.61 526.43 L 1026.66 526.45 L 1026.74 526.44 L 1026.79 526.44 L 1026.88 526.44 L 1026.92 526.45 L 1027.01 526.43 L 1027.05 526.45 L 1027.14 526.45 L 1027.19 526.44 L 1027.28 526.45 L 1027.32 526.45 L 1027.41 526.44 L 1027.45 526.43 L 1027.54 526.43 L 1027.59 526.43 L 1027.67 526.44 L 1027.72 526.43 L 1027.81 526.43 L 1027.85 526.44 L 1027.94 526.44 L 1028.03 526.44 L 1028.07 526.43 L 1028.16 524.55 L 1028.21 534.00 L 1028.29 534.00 L 1028.34 534.00 L 1028.43 534.00 L 1028.47 525.46 L 1028.56 525.93 L 1028.61 525.86 L 1028.69 525.81 L 1028.74 525.88 L 1028.83 526.15 L 1028.87 526.19 L 1028.96 526.19 L 1029.00 526.17 L 1029.09 526.00 L 1029.14 525.60 L 1029.23 525.61 L 1029.27 525.83 L 1029.36 526.02 L 1029.40 526.07 L 1029.49 526.05 L 1029.54 526.03 L 1029.62 526.03 L 1029.67 526.03 L 1029.76 525.99 L 1029.80 526.01 L 1029.89 526.03 L 1029.98 526.05 L 1030.02 526.07 L 1030.11 526.08 L 1030.16 526.08 L 1030.24 526.09 L 1030.29 526.07 L 1030.38 526.06 L 1030.42 526.08 L 1030.51 526.06 L 1030.55 526.05 L 1030.64 526.04 L 1030.69 526.03 L 1030.78 526.03 L 1030.82 526.01 L 1030.91 526.02 L 1030.95 526.01 L 1031.04 526.01 L 1031.09 526.02 L 1031.18 526.03 L 1031.22 526.03 L 1031.31 526.02 L 1031.35 526.03 L 1031.44 526.01 L 1031.49 526.02 L 1031.57 526.03 L 1031.62 526.02 L 1031.71 526.01 L 1031.80 526.02 L 1031.84 526.01 L 1031.93 526.00 L 1031.97 525.99 L 1032.06 525.99 L 1032.11 525.97 L 1032.19 525.97 L 1032.24 525.97 L 1032.33 525.99 L 1032.37 525.98 L 1032.46 525.97 L 1032.50 525.96 L 1032.59 525.96 L 1032.64 525.97 L 1032.73 525.96 L 1032.77 525.96 L 1032.86 525.95 L 1032.90 525.96 L 1032.99 525.92 L 1033.04 525.91 L 1033.12 525.92 L 1033.17 525.93 L 1033.26 525.91 L 1033.30 525.78 L 1033.39 525.53 L 1033.43 525.65 L 1033.52 525.85 L 1033.57 525.85 L 1033.66 525.80 L 1033.75 525.76 L 1033.79 525.73 L 1033.88 525.74 L 1033.92 525.73 L 1034.01 525.42 L 1034.06 534.00 L 1034.14 534.00 L 1034.19 534.00 L 1034.28 534.00 L 1034.32 534.00 L 1034.41 534.00 L 1034.45 534.00 L 1034.54 534.00 L 1034.59 534.00 L 1034.68 534.00 L 1034.72 534.00 L 1034.81 534.00 L 1034.85 534.00 L 1034.94 534.00 L 1034.99 534.00 L 1035.07 534.00 L 1035.12 534.00 L 1035.21 534.00 L 1035.25 534.00 L 1035.34 534.00 L 1035.38 534.00 L 1035.47 534.00 L 1035.56 534.00 L 1035.61 524.61 L 1035.69 525.12 L 1035.74 525.41 L 1035.83 525.31 L 1035.87 525.05 L 1035.96 524.70 L 1036.01 524.51 L 1036.09 524.64 L 1036.14 525.12 L 1036.23 523.53 L 1036.27 534.00 L 1036.36 534.00 L 1036.40 534.00 L 1036.49 534.00 L 1036.54 534.00 L 1036.63 534.00 L 1036.67 534.00 L 1036.76 534.00 L 1036.80 534.00 L 1036.89 534.00 L 1036.94 534.00 L 1037.02 534.00 L 1037.07 534.00 L 1037.16 534.00 L 1037.20 534.00 L 1037.29 534.00 L 1037.33 534.00 L 1037.42 534.00 L 1037.51 534.00 L 1037.56 534.00 L 1037.64 534.00 L 1037.69 534.00 L 1037.78 534.00 L 1037.82 534.00 L 1037.91 534.00 L 1037.95 534.00 L 1038.04 534.00 L 1038.09 534.00 L 1038.18 534.00 L 1038.22 534.00 L 1038.31 534.00 L 1038.35 534.00 L 1038.44 534.00 L 1038.49 534.00 L 1038.58 534.00 L 1038.62 534.00 L 1038.71 534.00 L 1038.75 534.00 L 1038.84 534.00 L 1038.89 534.00 L 1038.97 534.00 L 1039.02 534.00 L 1039.11 534.00 L 1039.15 534.00 L 1039.24 534.00 L 1039.28 534.00 L 1039.37 534.00 L 1039.46 534.00 L 1039.51 534.00 L 1039.59 534.00 L 1039.64 534.00 L 1039.73 534.00 L 1039.77 534.00 L 1039.86 534.00 L 1039.90 534.00 L 1039.99 534.00 L 1040.04 534.00 L 1040.13 534.00 L 1040.17 534.00 L 1040.26 534.00 L 1040.30 534.00 L 1040.39 534.00 L 1040.44 534.00 L 1040.52 534.00 L 1040.57 520.86 L 1040.66 521.06 L 1040.70 521.74 L 1040.79 522.67 L 1040.83 521.90 L 1040.92 520.31 L 1040.97 519.80 L 1041.06 519.87 L 1041.10 520.34 L 1041.19 520.62 L 1041.23 520.96 L 1041.32 521.54 L 1041.41 522.48 L 1041.46 523.56 L 1041.54 524.23 L 1041.59 524.68 L 1041.68 520.25 L 1041.72 520.34 L 1041.81 520.33 L 1041.85 520.30 L 1041.94 524.94 L 1041.99 524.92 L 1042.08 524.92 L 1042.12 524.90 L 1042.21 524.86 L 1042.25 524.86 L 1042.34 524.82 L 1042.39 524.79 L 1042.47 524.79 L 1042.52 524.77 L 1042.61 524.77 L 1042.65 524.73 L 1042.74 524.70 L 1042.78 524.69 L 1042.87 524.71 L 1042.92 524.71 L 1043.01 524.68 L 1043.05 524.71 L 1043.14 524.75 L 1043.18 524.75 L 1043.27 524.74 L 1043.36 524.74 L 1043.40 524.75 L 1043.49 524.77 L 1043.54 524.78 L 1043.63 524.84 L 1043.67 524.86 L 1043.76 524.88 L 1043.80 524.89 L 1043.89 524.91 L 1043.94 524.89 L 1044.03 524.66 L 1044.07 524.24 L 1044.16 524.36 L 1044.20 524.22 L 1044.29 524.38 L 1044.34 524.72 L 1044.42 524.64 L 1044.47 524.67 L 1044.56 523.71 L 1044.60 534.00 L 1044.69 534.00 L 1044.73 522.59 L 1044.82 523.97 L 1044.87 524.28 L 1044.96 524.48 L 1045.00 524.51 L 1045.09 524.44 L 1045.13 524.39 L 1045.22 524.36 L 1045.27 524.27 L 1045.35 524.26 L 1045.44 524.36 L 1045.49 524.44 L 1045.58 524.47 L 1045.62 524.49 L 1045.71 524.52 L 1045.75 524.50 L 1045.84 524.51 L 1045.89 524.48 L 1045.98 524.48 L 1046.02 524.48 L 1046.11 524.48 L 1046.15 524.45 L 1046.24 524.45 L 1046.29 524.42 L 1046.37 524.44 L 1046.42 524.42 L 1046.51 524.43 L 1046.55 524.42 L 1046.64 524.41 L 1046.68 524.41 L 1046.77 524.39 L 1046.82 524.40 L 1046.91 524.39 L 1046.95 524.40 L 1047.04 524.40 L 1047.08 524.41 L 1047.17 524.42 L 1047.22 524.42 L 1047.30 524.41 L 1047.39 524.39 L 1047.44 524.39 L 1047.53 524.41 L 1047.57 524.41 L 1047.66 524.41 L 1047.70 524.39 L 1047.79 524.39 L 1047.84 524.38 L 1047.92 524.39 L 1047.97 524.38 L 1048.06 524.39 L 1048.10 524.36 L 1048.19 524.37 L 1048.23 524.36 L 1048.32 524.37 L 1048.37 524.61 L 1048.46 524.34 L 1048.50 524.31 L 1048.59 524.32 L 1048.63 524.29 L 1048.72 524.30 L 1048.77 524.29 L 1048.86 524.28 L 1048.90 524.55 L 1048.99 524.53 L 1049.03 524.53 L 1049.12 524.53 L 1049.17 524.52 L 1049.25 524.55 L 1049.30 524.50 L 1049.39 524.53 L 1049.48 524.52 L 1049.52 524.53 L 1049.61 524.53 L 1049.65 524.56 L 1049.74 524.55 L 1049.79 524.54 L 1049.87 524.53 L 1049.92 524.51 L 1050.01 524.51 L 1050.05 524.52 L 1050.14 524.50 L 1050.18 524.47 L 1050.27 524.45 L 1050.32 524.44 L 1050.41 524.43 L 1050.45 524.39 L 1050.54 524.39 L 1050.58 524.40 L 1050.67 524.39 L 1050.72 524.40 L 1050.80 524.41 L 1050.85 524.40 L 1050.94 524.39 L 1050.98 524.37 L 1051.07 524.43 L 1051.12 524.44 L 1051.20 524.44 L 1051.25 524.48 L 1051.34 524.51 L 1051.43 524.51 L 1051.47 524.51 L 1051.56 524.47 L 1051.60 524.47 L 1051.69 524.46 L 1051.74 524.46 L 1051.82 524.49 L 1051.87 524.51 L 1051.96 524.49 L 1052.00 524.49 L 1052.09 524.47 L 1052.13 524.46 L 1052.22 524.43 L 1052.27 524.42 L 1052.36 524.40 L 1052.40 524.40 L 1052.49 524.39 L 1052.53 524.40 L 1052.62 524.40 L 1052.67 524.39 L 1052.75 524.39 L 1052.80 524.40 L 1052.89 524.40 L 1052.93 524.40 L 1053.02 524.39 L 1053.06 524.39 L 1053.15 524.37 L 1053.20 524.38 L 1053.29 524.34 L 1053.33 524.32 L 1053.42 524.31 L 1053.51 524.34 L 1053.55 524.31 L 1053.64 524.35 L 1053.69 524.37 L 1053.77 524.38 L 1053.82 524.38 L 1053.91 524.38 L 1053.95 524.39 L 1054.04 524.39 L 1054.08 524.34 L 1054.17 524.36 L 1054.22 524.35 L 1054.31 524.34 L 1054.35 524.32 L 1054.44 524.30 L 1054.48 524.34 L 1054.57 524.29 L 1054.62 524.28 L 1054.70 524.31 L 1054.75 524.29 L 1054.84 524.31 L 1054.88 524.31 L 1054.97 524.30 L 1055.01 524.28 L 1055.10 524.27 L 1055.15 524.28 L 1055.24 524.29 L 1055.28 524.29 L 1055.37 524.27 L 1055.46 524.29 L 1055.50 524.28 L 1055.59 524.31 L 1055.63 524.29 L 1055.72 524.30 L 1055.77 524.28 L 1055.86 524.28 L 1055.90 524.29 L 1055.99 524.26 L 1056.03 524.26 L 1056.12 524.26 L 1056.17 524.25 L 1056.26 524.26 L 1056.30 524.24 L 1056.39 524.24 L 1056.43 524.22 L 1056.52 524.23 L 1056.57 524.26 L 1056.65 524.26 L 1056.70 524.24 L 1056.79 524.24 L 1056.83 524.26 L 1056.92 524.23 L 1056.96 524.23 L 1057.05 524.22 L 1057.10 524.23 L 1057.19 524.20 L 1057.23 524.19 L 1057.32 524.18 L 1057.41 524.15 L 1057.45 524.13 L 1057.54 524.12 L 1057.58 524.15 L 1057.67 524.09 L 1057.72 524.08 L 1057.81 524.08 L 1057.85 524.09 L 1057.94 524.07 L 1057.98 524.05 L 1058.07 524.03 L 1058.12 524.05 L 1058.20 524.06 L 1058.25 524.09 L 1058.34 524.12 L 1058.38 524.11 L 1058.47 524.12 L 1058.52 524.10 L 1058.60 524.13 L 1058.65 524.13 L 1058.74 524.12 L 1058.78 524.16 L 1058.87 524.15 L 1058.91 524.17 L 1059.00 524.19 L 1059.05 524.16 L 1059.14 524.17 L 1059.18 524.10 L 1059.27 523.97 L 1059.36 523.88 L 1059.40 523.64 L 1059.49 534.00 L 1059.53 534.00 L 1059.62 534.00 L 1059.67 534.00 L 1059.76 534.00 L 1059.80 534.00 L 1059.89 534.00 L 1059.93 534.00 L 1060.02 534.00 L 1060.07 534.00 L 1060.15 534.00 L 1060.20 534.00 L 1060.29 534.00 L 1060.33 534.00 L 1060.42 522.41 L 1060.46 523.18 L 1060.55 523.55 L 1060.60 523.73 L 1060.69 523.74 L 1060.73 523.72 L 1060.82 523.71 L 1060.86 523.68 L 1060.95 523.64 L 1061.00 523.59 L 1061.09 523.54 L 1061.13 523.51 L 1061.22 523.45 L 1061.31 523.40 L 1061.35 523.32 L 1061.44 523.31 L 1061.48 523.22 L 1061.57 523.18 L 1061.62 523.12 L 1061.71 523.01 L 1061.75 522.93 L 1061.84 522.83 L 1061.88 522.74 L 1061.97 522.65 L 1062.02 522.57 L 1062.10 522.48 L 1062.15 522.38 L 1062.24 522.30 L 1062.28 522.19 L 1062.37 522.08 L 1062.41 522.00 L 1062.50 521.86 L 1062.55 521.76 L 1062.64 521.61 L 1062.68 521.46 L 1062.77 521.37 L 1062.81 521.20 L 1062.90 521.10 L 1062.95 520.95 L 1063.03 520.80 L 1063.08 520.64 L 1063.17 520.48 L 1063.26 520.32 L 1063.30 520.12 L 1063.39 519.90 L 1063.43 519.64 L 1063.52 519.32 L 1063.57 519.08 L 1063.66 518.73 L 1063.70 518.40 L 1063.79 517.97 L 1063.83 517.58 L 1063.92 517.03 L 1063.97 516.55 L 1064.05 516.03 L 1064.10 515.52 L 1064.19 514.95 L 1064.23 514.47 L 1064.32 513.92 L 1064.36 513.26 L 1064.45 534.00 L 1064.50 534.00 L 1064.59 534.00 L 1064.63 534.00 L 1064.72 534.00 L 1064.76 534.00 L 1064.85 534.00 L 1064.90 534.00 L 1064.98 534.00 L 1065.07 534.00 L 1065.12 534.00 L 1065.21 534.00 L 1065.25 534.00 L 1065.34 534.00 L 1065.38 534.00 L 1065.47 534.00 L 1065.52 534.00 L 1065.60 534.00 L 1065.65 534.00 L 1065.74 534.00 L 1065.78 534.00 L 1065.87 534.00 L 1065.92 534.00 L 1066.00 534.00 L 1066.05 534.00 L 1066.14 534.00 L 1066.18 534.00 L 1066.27 534.00 L 1066.31 534.00 L 1066.40 534.00 L 1066.45 534.00 L 1066.54 534.00 L 1066.58 534.00 L 1066.67 534.00 L 1066.71 534.00 L 1066.80 534.00 L 1066.85 534.00 L 1066.93 534.00 L 1067.02 534.00 L 1067.07 534.00 L 1067.16 534.00 L 1067.20 534.00 L 1067.29 534.00 L 1067.33 534.00 L 1067.42 534.00 L 1067.47 534.00 L 1067.55 534.00 L 1067.60 534.00 L 1067.69 534.00 L 1067.73 534.00 L 1067.82 534.00 L 1067.86 534.00 L 1067.95 534.00 L 1068.00 534.00 L 1068.09 534.00 L 1068.13 534.00 L 1068.22 534.00 L 1068.26 534.00 L 1068.35 534.00 L 1068.40 534.00 L 1068.49 534.00 L 1068.53 534.00 L 1068.62 534.00 L 1068.66 534.00 L 1068.75 534.00 L 1068.80 534.00 L 1068.88 534.00 L 1068.97 534.00 L 1069.02 534.00 L 1069.11 534.00 L 1069.15 534.00 L 1069.24 534.00 L 1069.28 534.00 L 1069.37 534.00 L 1069.42 534.00 L 1069.50 534.00 L 1069.55 534.00 L 1069.64 534.00 L 1069.68 534.00 L 1069.77 534.00 L 1069.81 534.00 L 1069.90 534.00 L 1069.95 534.00 L 1070.04 534.00 L 1070.08 534.00 L 1070.17 534.00 L 1070.21 534.00 L 1070.30 534.00 L 1070.35 534.00 L 1070.43 534.00 L 1070.48 534.00 L 1070.57 534.00 L 1070.61 534.00 L 1070.70 534.00 L 1070.74 534.00 L 1070.83 534.00 L 1070.92 534.00 L 1070.97 534.00 L 1071.06 534.00 L 1071.10 534.00 L 1071.19 534.00 L 1071.23 534.00 L 1071.32 534.00 L 1071.37 534.00 L 1071.45 534.00 L 1071.50 534.00 L 1071.59 534.00 L 1071.63 534.00 L 1071.72 534.00 L 1071.76 534.00 L 1071.85 534.00 L 1071.90 534.00 L 1071.99 534.00 L 1072.03 534.00 L 1072.12 534.00 L 1072.16 534.00 L 1072.25 534.00 L 1072.30 534.00 L 1072.38 534.00 L 1072.43 534.00 L 1072.52 534.00 L 1072.56 534.00 L 1072.65 534.00 L 1072.69 534.00 L 1072.78 534.00 L 1072.87 534.00 L 1072.92 534.00 L 1073.00 534.00 L 1073.05 534.00 L 1073.14 534.00 L 1073.18 534.00 L 1073.27 534.00 L 1073.32 534.00 L 1073.40 534.00 L 1073.45 534.00 L 1073.54 534.00 L 1073.58 534.00 L 1073.67 534.00 L 1073.71 534.00 L 1073.80 534.00 L 1073.85 534.00 L 1073.94 534.00 L 1073.98 534.00 L 1074.07 534.00 L 1074.11 534.00 L 1074.20 534.00 L 1074.25 534.00 L 1074.33 534.00 L 1074.38 534.00 L 1074.47 534.00 L 1074.51 534.00 L 1074.60 534.00 L 1074.64 534.00 L 1074.73 534.00 L 1074.78 534.00 L 1074.87 534.00 L 1074.95 534.00 L 1075.00 534.00 L 1075.09 534.00 L 1075.13 534.00 L 1075.22 534.00 L 1075.26 534.00 L 1075.35 534.00 L 1075.40 534.00 L 1075.49 534.00 L 1075.53 534.00 L 1075.62 534.00 L 1075.66 534.00 L 1075.75 534.00 L 1075.80 534.00 L 1075.89 534.00 L 1075.93 534.00 L 1076.02 534.00 L 1076.06 534.00 L 1076.15 534.00 L 1076.20 534.00 L 1076.28 534.00 L 1076.33 534.00 L 1076.42 534.00 L 1076.46 534.00 L 1076.55 534.00 L 1076.59 534.00 L 1076.68 534.00 L 1076.73 534.00 L 1076.82 534.00 L 1076.90 534.00 L 1076.95 534.00 L 1077.04 534.00 L 1077.08 534.00 L 1077.17 534.00 L 1077.21 534.00 L 1077.30 534.00 L 1077.35 534.00 L 1077.44 534.00 L 1077.48 530.11 L 1077.57 530.55 L 1077.61 530.83 L 1077.70 530.97 L 1077.75 530.99 L 1077.83 530.95 L 1077.88 530.90 L 1077.97 530.86 L 1078.01 530.81 L 1078.10 530.75 L 1078.14 530.69 L 1078.23 530.63 L 1078.28 530.56 L 1078.37 530.49 L 1078.41 534.00 L 1078.50 534.00 L 1078.54 534.00 L 1078.63 534.00 L 1078.68 534.00 L 1078.77 534.00 L 1078.81 534.00 L 1078.90 534.00 L 1078.99 534.00 L 1079.03 534.00 L 1079.12 534.00 L 1079.16 534.00 L 1079.25 534.00 L 1079.30 534.00 L 1079.39 534.00 L 1079.43 534.00 L 1079.52 534.00 L 1079.56 534.00 L 1079.65 534.00 L 1079.70 534.00 L 1079.78 534.00 L 1079.83 534.00 L 1079.92 534.00 L 1079.96 534.00 L 1080.05 534.00 L 1080.09 534.00 L 1080.18 534.00 L 1080.23 534.00 L 1080.32 534.00 L 1080.36 534.00 L 1080.45 534.00 L 1080.49 534.00 L 1080.58 534.00 L 1080.63 534.00 L 1080.71 534.00 L 1080.76 534.00 L 1080.85 534.00 L 1080.89 534.00 L 1080.98 534.00 L 1081.07 534.00 L 1081.11 534.00 L 1081.20 534.00 L 1081.25 534.00 L 1081.34 534.00 L 1081.38 534.00 L 1081.47 534.00 L 1081.51 534.00 L 1081.60 534.00 L 1081.65 534.00 L 1081.73 534.00 L 1081.78 534.00 L 1081.87 534.00 L 1081.91 534.00 L 1082.00 534.00" fill="none" stroke="#10b981" stroke-width="2.7"/>
<text x="560.0" y="602" text-anchor="middle" font-family="Arial, sans-serif" font-size="13" fill="#475569">Wall Clock Time</text>
<text transform="translate(25 306.0) rotate(-90)" text-anchor="middle" font-family="Arial, sans-serif" font-size="13" fill="#475569">Efficiency (W/klux)</text>
<rect x="727" y="96" width="335" height="54" rx="8" fill="#ffffff" stroke="#cbd5e1"/>
<line x1="745" y1="121" x2="785" y2="121" stroke="#10b981" stroke-width="2.8"/>
<text x="797" y="126" font-family="Arial, sans-serif" font-size="13" fill="#1e293b">Normalised Efficiency</text>
</svg>