<svg xmlns="http://www.w3.org/2000/svg" width="1120" height="620" viewBox="0 0 1120 620">
<rect width="100%" height="100%" fill="#f8fafc"/>
<rect x="92" y="78" width="990" height="456" fill="#ffffff" stroke="#cbd5e1"/>
<text x="560.0" y="34" text-anchor="middle" font-family="Arial, sans-serif" font-size="21" font-weight="700" fill="#1e293b">Intraday Temperature Curve - 13 deg Tilt - 20260622</text>
<text x="560.0" y="58" text-anchor="middle" font-family="Arial, sans-serif" font-size="12" fill="#475569">Morning, midday, and afternoon stitched from 5117 readings</text>
<line x1="92" y1="534.00" x2="1082" y2="534.00" stroke="#cbd5e1" stroke-dasharray="5 5" opacity="0.75"/>
<text x="80" y="538.00" text-anchor="end" font-family="Arial, sans-serif" font-size="12" fill="#475569">0.000</text>
<line x1="92" y1="442.80" x2="1082" y2="442.80" stroke="#cbd5e1" stroke-dasharray="5 5" opacity="0.75"/>
<text x="80" y="446.80" text-anchor="end" font-family="Arial, sans-serif" font-size="12" fill="#475569">20.000</text>
<line x1="92" y1="351.60" x2="1082" y2="351.60" stroke="#cbd5e1" stroke-dasharray="5 5" opacity="0.75"/>
<text x="80" y="355.60" text-anchor="end" font-family="Arial, sans-serif" font-size="12" fill="#475569">40.000</text>
<line x1="92" y1="260.40" x2="1082" y2="260.40" stroke="#cbd5e1" stroke-dasharray="5 5" opacity="0.75"/>
<text x="80" y="264.40" text-anchor="end" font-family="Arial, sans-serif" font-size="12" fill="#475569">60.000</text>
<line x1="92" y1="169.20" x2="1082" y2="169.20" stroke="#cbd5e1" stroke-dasharray="5 5" opacity="0.75"/>
<text x="80" y="173.20" text-anchor="end" font-family="Arial, sans-serif" font-size="12" fill="#475569">80.000</text>
<line x1="92" y1="78.00" x2="1082" y2="78.00" stroke="#cbd5e1" stroke-dasharray="5 5" opacity="0.75"/>
<text x="80" y="82.00" text-anchor="end" font-family="Arial, sans-serif" font-size="12" fill="#475569">100.000</text>
<line x1="92.00" y1="78" x2="92.00" y2="534" stroke="#e2e8f0" stroke-dasharray="4 6"/>
<text x="92.00" y="568" text-anchor="middle" font-family="Arial, sans-serif" font-size="12" fill="#475569">09:48:33</text>
<line x1="257.00" y1="78" x2="257.00" y2="534" stroke="#e2e8f0" stroke-dasharray="4 6"/>
<text x="257.00" y="568" text-anchor="middle" font-family="Arial, sans-serif" font-size="12" fill="#475569">10:50:36</text>
<line x1="422.00" y1="78" x2="422.00" y2="534" stroke="#e2e8f0" stroke-dasharray="4 6"/>
<text x="422.00" y="568" text-anchor="middle" font-family="Arial, sans-serif" font-size="12" fill="#475569">11:52:40</text>
<line x1="587.00" y1="78" x2="587.00" y2="534" stroke="#e2e8f0" stroke-dasharray="4 6"/>
<text x="587.00" y="568" text-anchor="middle" font-family="Arial, sans-serif" font-size="12" fill="#475569">12:54:44</text>
<line x1="752.00" y1="78" x2="752.00" y2="534" stroke="#e2e8f0" stroke-dasharray="4 6"/>
<text x="752.00" y="568" text-anchor="middle" font-family="Arial, sans-serif" font-size="12" fill="#475569">13:56:47</text>
<line x1="917.00" y1="78" x2="917.00" y2="534" stroke="#e2e8f0" stroke-dasharray="4 6"/>
<text x="917.00" y="568" text-anchor="middle" font-family="Arial, sans-serif" font-size="12" fill="#475569">14:58:51</text>
<line x1="1082.00" y1="78" x2="1082.00" y2="534" stroke="#e2e8f0" stroke-dasharray="4 6"/>
<text x="1082.00" y="568" text-anchor="middle" font-family="Arial, sans-serif" font-size="12" fill="#475569">16:00:55</text>
<line x1="406.08" y1="78" x2="406.08" y2="534" stroke="#64748b" stroke-width="1.5" stroke-dasharray="7 5"/>
<text x="412.08" y="96" font-family="Arial, sans-serif" font-size="12" fill="#64748b">Midday</text>
<line x1="990.14" y1="78" x2="990.14" y2="534" stroke="#64748b" stroke-width="1.5" stroke-dasharray="7 5"/>
<text x="996.14" y="96" font-family="Arial, sans-serif" font-size="12" fill="#64748b">Afternoon</text>
<path d="M 92.00 352.15 L 92.09 351.87 L 92.13 351.60 L 92.22 351.33 L 92.27 351.33 L 92.35 350.73 L 92.40 350.46 L 92.49 350.19 L 92.58 350.19 L 92.62 349.87 L 92.71 349.59 L 92.75 349.32 L 92.84 349.05 L 92.89 348.73 L 92.97 348.45 L 93.02 348.18 L 93.11 348.18 L 93.15 347.59 L 93.24 347.59 L 93.29 347.31 L 93.37 347.04 L 93.42 347.04 L 93.51 346.77 L 93.55 346.77 L 93.64 346.45 L 93.68 346.17 L 93.77 346.17 L 93.82 345.90 L 93.91 345.63 L 93.95 345.63 L 94.04 345.63 L 94.08 345.31 L 94.17 345.31 L 94.22 345.31 L 94.30 345.03 L 94.35 344.76 L 94.44 344.76 L 94.48 344.49 L 94.57 344.17 L 94.61 344.17 L 94.70 344.17 L 94.75 343.89 L 94.84 343.62 L 94.88 343.35 L 94.97 343.35 L 95.01 343.03 L 95.10 343.35 L 95.19 343.35 L 95.23 343.03 L 95.32 343.03 L 95.37 342.75 L 95.46 342.48 L 95.50 342.48 L 95.59 342.21 L 95.63 342.21 L 95.72 341.89 L 95.77 341.61 L 95.86 341.34 L 95.90 341.34 L 95.99 341.07 L 96.03 341.07 L 96.12 340.75 L 96.17 340.75 L 96.25 340.47 L 96.30 340.20 L 96.39 340.20 L 96.43 339.93 L 96.52 339.93 L 96.56 339.93 L 96.65 339.61 L 96.70 339.61 L 96.79 339.33 L 96.83 339.06 L 96.92 339.06 L 96.96 339.06 L 97.05 338.79 L 97.10 338.79 L 97.18 338.47 L 97.23 338.47 L 97.32 338.47 L 97.36 338.47 L 97.45 338.47 L 97.54 338.19 L 97.58 338.47 L 97.67 338.47 L 97.72 338.19 L 97.80 338.19 L 97.85 338.19 L 97.94 337.92 L 97.98 337.92 L 98.07 337.65 L 98.11 337.65 L 98.20 337.33 L 98.25 337.33 L 98.34 337.05 L 98.38 337.05 L 98.47 336.78 L 98.51 336.78 L 98.60 336.78 L 98.65 336.51 L 98.74 336.51 L 98.78 336.51 L 98.87 336.51 L 98.91 336.19 L 99.00 336.19 L 99.05 335.91 L 99.13 335.91 L 99.18 335.64 L 99.27 335.64 L 99.31 335.37 L 99.40 335.05 L 99.44 335.05 L 99.53 335.05 L 99.58 334.77 L 99.67 334.77 L 99.71 334.50 L 99.80 334.23 L 99.84 334.23 L 99.93 333.91 L 100.02 333.91 L 100.06 333.91 L 100.15 333.91 L 100.20 333.91 L 100.29 333.91 L 100.33 333.91 L 100.42 334.23 L 100.46 334.23 L 100.55 334.23 L 100.60 333.91 L 100.68 333.91 L 100.73 333.91 L 100.82 333.63 L 100.86 333.63 L 100.95 333.63 L 101.00 333.63 L 101.08 333.63 L 101.13 333.63 L 101.22 333.91 L 101.26 333.91 L 101.35 333.63 L 101.39 333.63 L 101.48 333.63 L 101.53 333.63 L 101.62 333.36 L 101.66 333.36 L 101.75 333.36 L 101.79 333.36 L 101.88 333.09 L 101.93 333.09 L 102.01 333.09 L 102.06 333.09 L 102.15 333.36 L 102.19 333.09 L 102.28 333.36 L 102.37 333.09 L 102.41 333.09 L 102.50 333.09 L 102.55 333.09 L 102.63 333.09 L 102.68 333.09 L 102.77 333.09 L 102.81 333.09 L 102.90 333.36 L 102.94 333.09 L 103.03 333.09 L 103.08 333.09 L 103.17 332.77 L 103.21 332.77 L 103.30 332.77 L 103.34 332.77 L 103.43 332.77 L 103.48 332.77 L 103.57 332.77 L 103.61 332.49 L 103.70 332.49 L 103.74 332.49 L 103.83 332.49 L 103.88 332.49 L 103.96 332.49 L 104.01 332.22 L 104.10 332.22 L 104.14 332.22 L 104.23 332.22 L 104.27 332.22 L 104.36 331.95 L 104.41 332.22 L 104.50 331.95 L 104.54 331.95 L 104.63 331.95 L 104.67 331.95 L 104.76 331.95 L 104.85 331.63 L 104.89 331.95 L 104.98 331.95 L 105.03 332.22 L 105.12 331.95 L 105.16 331.95 L 105.25 331.95 L 105.29 331.95 L 105.38 331.95 L 105.43 331.95 L 105.51 331.95 L 105.56 331.95 L 105.65 331.95 L 105.69 331.63 L 105.78 331.95 L 105.83 331.63 L 105.91 331.63 L 105.96 331.63 L 106.05 331.63 L 106.09 331.63 L 106.18 331.63 L 106.22 331.63 L 106.31 331.63 L 106.36 331.63 L 106.45 331.63 L 106.49 331.63 L 106.58 331.63 L 106.62 331.95 L 106.71 331.63 L 106.76 331.63 L 106.84 331.63 L 106.89 331.95 L 106.98 331.95 L 107.02 331.95 L 107.11 331.95 L 107.20 331.95 L 107.24 331.95 L 107.33 332.22 L 107.38 332.22 L 107.46 331.95 L 107.51 331.95 L 107.60 331.95 L 107.64 331.95 L 107.73 331.95 L 107.77 331.95 L 107.86 331.95 L 107.91 331.95 L 108.00 331.95 L 108.04 331.95 L 108.13 331.95 L 108.17 331.63 L 108.26 331.63 L 108.31 331.95 L 108.40 331.63 L 108.44 331.95 L 108.53 331.63 L 108.57 331.63 L 108.66 331.63 L 108.71 331.63 L 108.79 331.63 L 108.84 331.63 L 108.93 331.63 L 108.97 331.63 L 109.06 331.63 L 109.10 331.63 L 109.19 331.63 L 109.24 331.63 L 109.33 331.63 L 109.37 331.35 L 109.46 331.63 L 109.50 331.63 L 109.59 331.63 L 109.68 331.63 L 109.72 331.63 L 109.81 331.63 L 109.86 331.95 L 109.95 331.95 L 109.99 331.95 L 110.08 331.95 L 110.12 331.95 L 110.21 331.95 L 110.26 332.22 L 110.34 332.22 L 110.39 332.22 L 110.48 332.22 L 110.52 332.22 L 110.61 332.22 L 110.65 332.22 L 110.74 332.49 L 110.79 332.49 L 110.88 332.77 L 110.92 332.77 L 111.01 332.77 L 111.05 332.77 L 111.14 333.09 L 111.19 333.09 L 111.28 333.09 L 111.32 333.09 L 111.41 333.09 L 111.45 333.36 L 111.54 333.36 L 111.59 333.36 L 111.67 333.36 L 111.72 333.63 L 111.81 333.63 L 111.85 333.63 L 111.94 333.63 L 112.03 333.63 L 112.07 333.63 L 112.16 333.63 L 112.21 333.91 L 112.29 333.91 L 112.34 333.91 L 112.43 333.91 L 112.47 333.91 L 112.56 333.91 L 112.60 333.91 L 112.69 333.91 L 112.74 333.91 L 112.83 333.91 L 112.87 334.23 L 112.96 333.91 L 113.00 334.23 L 113.09 334.23 L 113.14 334.23 L 113.23 334.23 L 113.27 334.23 L 113.36 334.23 L 113.40 334.50 L 113.49 334.50 L 113.54 334.77 L 113.62 334.77 L 113.67 334.77 L 113.76 334.77 L 113.80 335.05 L 113.89 335.37 L 113.93 335.37 L 114.02 335.37 L 114.07 335.37 L 114.16 335.64 L 114.20 335.64 L 114.29 335.64 L 114.33 335.91 L 114.42 336.19 L 114.51 336.19 L 114.55 336.19 L 114.64 336.51 L 114.69 336.78 L 114.78 336.78 L 114.82 336.78 L 114.91 337.05 L 114.95 337.05 L 115.04 337.05 L 115.09 337.33 L 115.17 337.33 L 115.22 337.65 L 115.31 337.65 L 115.35 337.65 L 115.44 337.92 L 115.48 338.19 L 115.57 338.19 L 115.62 338.19 L 115.71 338.47 L 115.75 338.47 L 115.84 338.47 L 115.88 338.79 L 115.97 338.79 L 116.02 339.06 L 116.11 339.06 L 116.15 339.06 L 116.24 339.33 L 116.28 339.33 L 116.37 339.61 L 116.42 339.61 L 116.50 339.61 L 116.55 339.93 L 116.64 339.93 L 116.68 339.93 L 116.77 340.20 L 116.81 340.20 L 116.90 340.20 L 116.99 340.47 L 117.04 340.47 L 117.12 340.47 L 117.17 340.47 L 117.26 340.75 L 117.30 340.75 L 117.39 340.75 L 117.43 340.75 L 117.52 340.75 L 117.57 340.75 L 117.66 340.75 L 117.70 341.07 L 117.79 341.07 L 117.83 341.07 L 117.92 341.07 L 117.97 341.07 L 118.05 341.07 L 118.10 341.07 L 118.19 341.07 L 118.23 341.07 L 118.32 341.07 L 118.37 341.34 L 118.45 341.34 L 118.50 341.34 L 118.59 341.34 L 118.63 341.61 L 118.72 341.61 L 118.76 341.61 L 118.85 341.89 L 118.90 341.61 L 118.99 341.61 L 119.03 341.61 L 119.12 341.61 L 119.16 341.61 L 119.25 341.61 L 119.30 341.61 L 119.38 341.61 L 119.47 341.61 L 119.52 341.61 L 119.61 341.34 L 119.65 341.61 L 119.74 341.34 L 119.78 341.34 L 119.87 341.34 L 119.92 341.34 L 120.00 341.34 L 120.05 341.34 L 120.14 341.34 L 120.18 341.34 L 120.27 341.07 L 120.31 341.07 L 120.40 341.07 L 120.45 341.07 L 120.54 341.07 L 120.58 340.75 L 120.67 340.75 L 120.71 340.47 L 120.80 340.47 L 120.85 340.47 L 120.94 340.20 L 120.98 340.20 L 121.07 340.20 L 121.11 339.93 L 121.20 339.93 L 121.25 339.61 L 121.33 339.93 L 121.38 339.93 L 121.47 339.33 L 121.51 339.33 L 121.60 339.33 L 121.64 339.33 L 121.73 339.33 L 121.78 339.06 L 121.87 339.06 L 121.95 339.06 L 122.00 338.79 L 122.09 338.47 L 122.13 338.47 L 122.22 338.19 L 122.26 338.19 L 122.35 337.92 L 122.40 337.92 L 122.49 337.92 L 122.53 337.65 L 122.62 337.65 L 122.66 337.65 L 122.75 337.33 L 122.80 337.33 L 122.88 337.05 L 122.93 337.05 L 123.02 337.05 L 123.06 336.78 L 123.15 336.51 L 123.20 336.51 L 123.28 336.19 L 123.33 336.19 L 123.42 336.19 L 123.46 336.19 L 123.55 335.91 L 123.59 335.64 L 123.68 335.64 L 123.73 335.64 L 123.82 335.37 L 123.86 335.37 L 123.95 335.37 L 123.99 335.05 L 124.08 335.05 L 124.13 335.05 L 124.21 334.77 L 124.30 334.77 L 124.35 334.50 L 124.44 334.50 L 124.48 334.23 L 124.57 334.23 L 124.61 334.23 L 124.70 333.91 L 124.75 333.63 L 124.83 333.63 L 124.88 333.36 L 124.97 333.36 L 125.01 333.09 L 125.10 332.77 L 125.14 332.77 L 125.23 332.77 L 125.28 332.49 L 125.37 332.49 L 125.41 332.22 L 125.50 332.22 L 125.54 331.95 L 125.63 331.63 L 125.68 331.63 L 125.77 331.35 L 125.81 331.35 L 125.90 331.08 L 125.94 331.08 L 126.03 331.08 L 126.08 330.81 L 126.16 330.81 L 126.21 330.49 L 126.30 330.49 L 126.34 330.21 L 126.43 330.21 L 126.47 329.94 L 126.56 329.94 L 126.61 329.67 L 126.70 329.35 L 126.78 329.35 L 126.83 329.07 L 126.92 329.07 L 126.96 329.07 L 127.05 328.80 L 127.09 328.80 L 127.18 328.53 L 127.23 328.21 L 127.32 328.21 L 127.36 327.93 L 127.45 327.93 L 127.49 327.66 L 127.58 327.39 L 127.63 327.39 L 127.71 327.07 L 127.76 326.79 L 127.85 326.79 L 127.89 326.52 L 127.98 326.52 L 128.02 326.25 L 128.11 325.93 L 128.16 325.93 L 128.25 325.65 L 128.29 325.38 L 128.38 325.38 L 128.42 325.11 L 128.51 324.79 L 128.56 324.51 L 128.65 324.51 L 128.69 324.24 L 128.78 324.24 L 128.82 323.97 L 128.91 323.65 L 128.96 323.37 L 129.04 323.37 L 129.13 323.37 L 129.18 322.83 L 129.27 322.83 L 129.31 322.83 L 129.40 322.51 L 129.44 322.23 L 129.53 322.23 L 129.58 322.23 L 129.66 321.96 L 129.71 321.69 L 129.80 321.69 L 129.84 321.37 L 129.93 321.37 L 129.97 321.09 L 130.06 321.09 L 130.11 320.82 L 130.20 320.82 L 130.24 320.82 L 130.33 320.55 L 130.37 320.55 L 130.46 320.23 L 130.51 320.23 L 130.60 320.23 L 130.64 319.95 L 130.73 319.95 L 130.77 319.95 L 130.86 319.95 L 130.91 319.68 L 130.99 319.68 L 131.04 319.68 L 131.13 319.68 L 131.17 319.41 L 131.26 319.41 L 131.35 319.41 L 131.39 319.41 L 131.48 319.41 L 131.53 319.41 L 131.61 319.41 L 131.66 319.41 L 131.75 319.09 L 131.79 319.41 L 131.88 319.41 L 131.92 319.41 L 132.01 319.09 L 132.06 319.09 L 132.15 319.09 L 132.19 319.09 L 132.28 319.09 L 132.32 319.09 L 132.41 318.81 L 132.46 318.81 L 132.54 318.81 L 132.59 318.81 L 132.68 318.81 L 132.72 318.81 L 132.81 318.81 L 132.85 318.81 L 132.94 318.81 L 132.99 318.81 L 133.08 318.81 L 133.12 318.54 L 133.21 318.54 L 133.25 318.54 L 133.34 318.54 L 133.39 318.27 L 133.48 318.27 L 133.56 318.27 L 133.61 318.27 L 133.70 318.27 L 133.74 318.27 L 133.83 318.27 L 133.87 318.27 L 133.96 318.27 L 134.01 317.95 L 134.10 317.95 L 134.14 317.95 L 134.23 318.27 L 134.27 318.27 L 134.36 318.27 L 134.41 318.27 L 134.49 318.27 L 134.54 318.27 L 134.63 318.27 L 134.67 317.95 L 134.76 318.27 L 134.80 317.95 L 134.89 317.95 L 134.94 317.95 L 135.03 317.95 L 135.07 317.95 L 135.16 317.95 L 135.20 317.95 L 135.29 317.95 L 135.34 317.95 L 135.42 317.95 L 135.47 317.95 L 135.56 317.95 L 135.60 318.27 L 135.69 317.95 L 135.74 317.95 L 135.82 317.95 L 135.91 318.27 L 135.96 318.27 L 136.05 318.54 L 136.09 318.54 L 136.18 318.54 L 136.22 318.54 L 136.31 318.81 L 136.36 318.81 L 136.44 318.81 L 136.49 319.09 L 136.58 319.09 L 136.62 319.09 L 136.71 319.09 L 136.75 319.41 L 136.84 319.41 L 136.89 319.41 L 136.98 319.41 L 137.02 319.68 L 137.11 319.68 L 137.15 319.68 L 137.24 319.68 L 137.29 319.95 L 137.37 319.95 L 137.42 320.23 L 137.51 320.23 L 137.55 320.55 L 137.64 320.55 L 137.68 320.55 L 137.77 320.55 L 137.82 320.82 L 137.91 320.82 L 137.95 321.09 L 138.04 321.09 L 138.13 321.09 L 138.17 321.37 L 138.26 321.37 L 138.31 321.69 L 138.39 321.69 L 138.44 321.69 L 138.53 321.96 L 138.57 322.23 L 138.66 321.96 L 138.70 322.23 L 138.79 322.23 L 138.84 322.23 L 138.93 322.51 L 138.97 322.51 L 139.06 322.51 L 139.10 322.83 L 139.19 323.10 L 139.24 322.83 L 139.32 323.10 L 139.37 323.10 L 139.46 323.37 L 139.50 323.37 L 139.59 323.65 L 139.63 323.65 L 139.72 323.65 L 139.77 323.97 L 139.86 323.97 L 139.90 323.97 L 139.99 324.24 L 140.03 324.24 L 140.12 324.51 L 140.17 324.24 L 140.25 324.51 L 140.30 324.51 L 140.39 324.51 L 140.48 324.51 L 140.52 324.79 L 140.61 325.11 L 140.65 325.38 L 140.74 325.38 L 140.79 325.65 L 140.88 325.65 L 140.92 325.65 L 141.01 325.93 L 141.05 325.93 L 141.14 325.93 L 141.19 326.25 L 141.27 326.25 L 141.32 326.52 L 141.41 326.52 L 141.45 326.52 L 156.69 326.79 L 156.74 326.79 L 156.74 327.07 L 156.74 327.07 L 156.74 327.07 L 156.74 327.39 L 156.74 327.39 L 156.74 327.66 L 156.74 327.93 L 156.74 327.93 L 156.74 327.93 L 156.74 328.21 L 156.74 328.21 L 156.74 328.21 L 156.74 328.53 L 156.74 328.53 L 156.74 328.80 L 156.74 328.80 L 156.74 328.80 L 156.74 329.07 L 156.74 329.07 L 156.74 329.07 L 156.74 329.07 L 156.74 329.07 L 156.74 329.07 L 156.74 329.07 L 156.74 329.35 L 156.74 329.35 L 156.74 329.07 L 156.74 329.67 L 156.74 329.35 L 156.74 329.67 L 156.74 329.67 L 156.74 329.94 L 156.74 329.94 L 156.74 329.94 L 156.74 329.94 L 156.74 329.94 L 156.74 329.94 L 156.74 330.21 L 156.74 330.49 L 156.74 330.81 L 156.74 330.81 L 156.74 331.08 L 156.74 331.08 L 156.74 331.35 L 156.74 331.35 L 156.74 331.35 L 156.74 331.63 L 156.74 331.95 L 156.74 331.95 L 156.74 332.49 L 156.74 332.49 L 156.74 332.77 L 156.74 333.09 L 156.74 333.09 L 156.74 333.09 L 156.74 333.36 L 156.74 333.36 L 156.74 333.36 L 156.74 333.36 L 156.74 333.36 L 156.74 333.36 L 156.74 333.36 L 156.74 333.36 L 156.74 333.63 L 156.74 333.63 L 156.74 333.63 L 156.74 333.63 L 156.74 333.91 L 156.74 333.91 L 156.74 333.91 L 156.74 333.91 L 156.74 333.91 L 156.74 333.91 L 156.74 333.91 L 156.74 333.91 L 156.74 333.91 L 156.74 334.23 L 156.74 334.23 L 156.74 334.23 L 156.74 334.23 L 156.74 334.23 L 156.74 334.23 L 156.74 334.50 L 156.74 334.50 L 156.74 334.23 L 156.74 341.07 L 156.74 341.34 L 156.83 341.34 L 156.87 341.61 L 169.15 341.61 L 169.15 341.89 L 169.15 341.89 L 169.15 341.89 L 169.15 341.89 L 169.15 342.21 L 169.15 342.21 L 169.15 342.21 L 169.15 342.21 L 169.15 342.21 L 169.15 342.48 L 169.15 342.48 L 169.15 342.48 L 169.15 342.75 L 169.15 342.75 L 169.15 342.75 L 169.15 343.03 L 169.15 343.03 L 169.15 343.03 L 169.15 343.03 L 169.15 343.35 L 169.15 343.35 L 169.15 343.35 L 169.15 343.35 L 169.15 343.35 L 169.15 343.62 L 169.15 343.62 L 169.15 343.89 L 169.15 343.62 L 169.15 343.89 L 169.15 343.89 L 169.15 344.17 L 169.15 344.17 L 169.15 344.49 L 169.15 344.49 L 169.15 344.76 L 169.15 344.49 L 169.15 344.76 L 169.15 344.76 L 169.15 345.03 L 169.15 345.03 L 169.15 345.03 L 169.15 345.31 L 169.15 345.31 L 169.15 345.63 L 169.15 345.63 L 169.15 345.63 L 169.15 345.90 L 169.15 345.90 L 169.19 345.90 L 169.19 346.17 L 169.19 346.17 L 169.19 346.17 L 169.19 346.45 L 169.19 346.45 L 169.19 346.45 L 169.19 346.77 L 169.19 346.77 L 169.19 346.77 L 169.19 347.04 L 169.19 347.04 L 169.19 347.04 L 169.19 347.31 L 169.19 347.31 L 169.19 347.31 L 169.19 347.59 L 169.19 347.59 L 169.19 347.59 L 169.19 347.91 L 169.19 347.91 L 169.19 347.91 L 169.19 348.18 L 169.19 347.91 L 169.19 348.18 L 169.19 348.45 L 169.19 348.45 L 169.19 348.45 L 169.19 348.45 L 169.19 348.73 L 169.19 348.73 L 169.19 349.05 L 169.19 349.05 L 169.19 349.05 L 169.19 349.32 L 169.19 349.32 L 169.19 349.32 L 169.19 349.32 L 169.19 349.59 L 169.19 358.71 L 169.19 358.71 L 169.19 358.71 L 169.23 358.44 L 169.28 358.44 L 169.37 358.44 L 169.41 358.44 L 169.50 358.44 L 169.54 358.44 L 169.63 358.44 L 169.68 358.17 L 169.77 358.17 L 169.81 358.17 L 169.90 358.17 L 169.94 358.17 L 170.03 357.85 L 170.08 357.85 L 170.16 357.85 L 170.21 357.85 L 170.30 357.85 L 170.34 357.57 L 170.43 357.57 L 170.48 357.57 L 170.56 357.30 L 170.61 357.30 L 170.70 357.03 L 170.74 357.03 L 170.83 357.03 L 170.92 356.71 L 170.96 356.43 L 171.05 356.43 L 171.10 356.43 L 171.18 356.43 L 171.23 355.89 L 171.32 355.89 L 171.36 355.89 L 171.45 355.57 L 171.49 355.57 L 171.58 355.29 L 171.63 355.29 L 171.72 355.02 L 171.76 355.02 L 171.85 354.75 L 171.89 354.43 L 171.98 354.15 L 172.03 354.15 L 172.11 353.88 L 172.16 353.61 L 172.25 353.61 L 172.29 353.29 L 172.38 353.29 L 172.42 353.01 L 172.51 353.01 L 172.56 352.74 L 172.65 352.47 L 172.69 352.47 L 172.78 352.15 L 172.82 351.87 L 172.91 351.60 L 172.96 351.60 L 173.05 351.33 L 173.09 351.33 L 173.18 351.01 L 173.22 350.73 L 173.31 350.46 L 173.36 350.46 L 173.44 350.19 L 173.49 349.87 L 173.58 349.87 L 173.67 349.59 L 173.71 349.59 L 173.80 349.32 L 173.84 349.05 L 173.93 349.05 L 173.98 348.45 L 174.06 348.45 L 174.11 348.18 L 174.20 348.18 L 174.24 347.91 L 174.33 347.59 L 174.37 347.31 L 174.46 347.04 L 174.51 347.04 L 174.60 347.04 L 174.64 346.77 L 174.73 346.45 L 174.77 346.17 L 174.86 346.17 L 174.91 345.90 L 174.99 345.63 L 175.04 345.31 L 175.13 345.31 L 175.17 345.03 L 175.26 344.76 L 175.30 344.49 L 175.39 344.17 L 175.44 344.17 L 175.53 343.89 L 175.57 343.62 L 175.66 343.62 L 175.70 343.35 L 175.79 343.03 L 175.84 342.75 L 175.93 342.48 L 175.97 342.48 L 176.06 342.21 L 176.15 342.21 L 176.19 341.89 L 176.28 341.61 L 176.32 341.34 L 176.41 341.34 L 176.46 340.75 L 176.55 340.75 L 176.59 340.47 L 176.68 340.47 L 176.72 339.93 L 176.81 339.93 L 176.86 339.61 L 176.94 339.33 L 176.99 339.33 L 177.08 339.06 L 177.12 339.06 L 177.21 338.79 L 177.25 338.47 L 177.34 338.19 L 177.39 338.19 L 177.48 337.92 L 177.52 337.65 L 177.61 337.33 L 177.65 337.05 L 177.74 337.05 L 177.79 336.78 L 177.88 336.78 L 177.92 336.51 L 178.01 336.51 L 178.05 336.19 L 178.14 335.91 L 178.19 335.64 L 178.27 335.64 L 178.32 335.64 L 178.41 335.37 L 178.45 335.05 L 178.54 334.77 L 178.63 334.77 L 178.67 334.50 L 178.76 334.50 L 178.81 334.23 L 178.89 333.91 L 178.94 333.91 L 179.03 333.63 L 179.07 333.36 L 179.16 333.36 L 179.20 333.36 L 179.29 333.09 L 179.34 333.09 L 179.43 332.77 L 179.47 332.77 L 179.56 332.49 L 179.60 332.49 L 179.69 332.22 L 179.74 331.95 L 179.82 331.95 L 179.87 331.63 L 179.96 331.63 L 180.00 331.08 L 180.09 331.08 L 180.13 331.08 L 180.22 330.49 L 180.27 330.49 L 180.36 330.49 L 180.40 330.21 L 180.49 329.94 L 180.53 329.67 L 180.62 329.35 L 180.67 329.35 L 180.76 329.07 L 180.80 328.80 L 180.89 328.80 L 180.98 328.53 L 181.02 328.53 L 181.11 328.21 L 181.15 327.93 L 181.24 327.66 L 181.29 327.66 L 181.38 327.39 L 181.42 327.07 L 181.51 326.79 L 181.55 326.52 L 181.64 326.52 L 181.69 326.52 L 181.77 326.25 L 181.82 325.93 L 181.91 325.93 L 181.95 325.65 L 182.04 325.38 L 182.08 325.38 L 182.17 325.11 L 182.22 325.11 L 182.31 324.79 L 182.35 324.51 L 182.44 324.24 L 182.48 324.24 L 182.57 323.97 L 182.62 323.65 L 182.70 323.65 L 182.75 323.37 L 182.84 323.10 L 182.88 323.10 L 182.97 322.83 L 183.02 322.83 L 183.10 322.51 L 183.15 322.23 L 183.24 322.23 L 183.33 321.96 L 183.37 321.69 L 183.46 321.69 L 183.50 321.37 L 183.59 321.37 L 183.64 321.09 L 183.72 321.09 L 183.77 320.82 L 183.86 320.82 L 183.90 320.55 L 183.99 320.23 L 184.03 320.23 L 184.12 319.95 L 184.17 319.95 L 184.26 319.68 L 184.30 319.41 L 184.39 319.41 L 184.43 319.09 L 184.52 319.09 L 184.57 318.81 L 184.65 318.54 L 184.70 318.54 L 184.79 318.27 L 184.83 317.95 L 184.92 317.67 L 184.96 317.67 L 185.05 317.67 L 185.10 317.40 L 185.19 317.13 L 185.23 317.13 L 185.32 316.81 L 185.36 316.81 L 185.45 316.53 L 185.50 316.53 L 185.59 316.26 L 185.67 315.99 L 185.72 315.99 L 185.81 315.67 L 185.85 315.67 L 185.94 315.67 L 185.98 315.39 L 186.07 315.39 L 186.12 315.12 L 186.21 315.12 L 186.25 315.12 L 186.34 314.85 L 186.38 314.85 L 186.47 314.53 L 186.52 314.85 L 186.60 314.53 L 186.65 314.25 L 186.74 314.25 L 186.78 313.98 L 186.87 313.98 L 186.91 313.98 L 187.00 313.98 L 187.05 313.71 L 187.14 313.71 L 187.18 313.71 L 187.27 313.39 L 187.31 313.39 L 187.40 313.39 L 187.45 313.11 L 187.53 313.11 L 187.58 313.11 L 187.67 312.84 L 187.71 312.84 L 187.80 312.84 L 187.89 312.57 L 187.93 312.57 L 188.02 312.57 L 188.07 312.57 L 188.16 312.57 L 188.20 312.57 L 188.29 312.25 L 188.33 312.57 L 188.42 312.84 L 188.47 312.84 L 188.55 312.57 L 188.60 312.57 L 188.69 312.57 L 188.73 312.57 L 188.82 312.57 L 188.86 312.57 L 188.95 312.57 L 189.00 312.57 L 189.09 312.57 L 189.13 312.25 L 189.22 312.25 L 189.26 312.25 L 189.35 312.25 L 189.40 312.25 L 189.48 311.97 L 189.53 311.97 L 189.62 311.97 L 189.66 311.97 L 189.75 311.97 L 189.79 311.97 L 189.88 311.97 L 189.93 311.97 L 190.02 311.70 L 190.06 311.70 L 190.15 311.70 L 190.24 311.70 L 190.28 311.70 L 190.37 311.70 L 190.42 311.70 L 190.50 311.70 L 190.55 311.70 L 190.64 311.70 L 190.68 311.70 L 190.77 311.70 L 190.81 311.70 L 190.90 311.70 L 190.95 311.70 L 191.04 311.70 L 191.08 311.70 L 191.17 311.70 L 191.21 311.70 L 191.30 311.70 L 191.35 311.70 L 191.43 311.70 L 191.48 311.70 L 191.57 311.70 L 191.61 311.70 L 191.70 311.97 L 191.74 311.70 L 191.83 311.70 L 191.88 311.70 L 191.97 311.97 L 192.01 311.70 L 192.10 311.97 L 192.14 311.97 L 192.23 311.97 L 192.28 311.97 L 192.36 312.25 L 192.45 311.97 L 192.50 312.25 L 192.59 311.97 L 192.63 311.97 L 192.72 312.25 L 192.76 312.25 L 192.85 312.25 L 192.90 312.25 L 192.99 312.25 L 193.03 312.25 L 193.12 312.25 L 193.16 312.25 L 193.25 312.57 L 193.30 312.57 L 193.38 312.57 L 193.43 312.57 L 193.52 312.57 L 193.56 312.57 L 193.65 312.57 L 193.69 312.84 L 193.78 312.84 L 193.83 312.57 L 193.92 312.84 L 193.96 312.84 L 194.05 312.84 L 194.09 313.11 L 194.18 313.11 L 194.23 313.11 L 194.31 313.11 L 194.36 313.11 L 194.45 313.11 L 194.49 313.39 L 194.58 313.11 L 194.67 313.39 L 194.71 313.39 L 194.80 313.39 L 194.85 313.71 L 194.93 313.71 L 194.98 313.71 L 195.07 313.71 L 195.11 313.71 L 195.20 313.98 L 195.25 313.98 L 195.33 313.98 L 195.38 314.25 L 195.47 314.25 L 195.51 314.25 L 195.60 314.53 L 195.64 314.25 L 195.73 314.53 L 195.78 314.53 L 195.87 314.85 L 195.91 314.53 L 196.00 314.85 L 196.04 314.85 L 196.13 314.85 L 196.18 315.12 L 196.26 315.12 L 196.31 315.12 L 196.40 315.39 L 196.44 315.39 L 196.53 315.39 L 196.57 315.67 L 196.66 315.67 L 196.71 315.67 L 196.80 315.67 L 196.84 315.99 L 196.93 315.99 L 197.02 316.26 L 197.06 316.26 L 197.15 316.26 L 197.19 316.26 L 197.28 316.53 L 197.33 316.53 L 197.42 316.53 L 197.46 316.53 L 197.55 316.53 L 197.59 316.81 L 197.68 317.13 L 197.73 317.13 L 197.82 317.40 L 197.86 317.40 L 197.95 317.40 L 197.99 317.67 L 198.08 317.67 L 198.13 317.95 L 198.21 317.95 L 198.26 318.27 L 198.35 318.54 L 198.39 318.54 L 198.48 318.54 L 198.52 318.81 L 198.61 318.81 L 198.66 318.81 L 198.75 318.81 L 198.79 318.81 L 198.88 318.81 L 198.92 319.09 L 199.01 319.09 L 199.06 319.09 L 199.14 319.41 L 199.23 319.41 L 199.28 319.41 L 199.37 319.68 L 199.41 319.41 L 199.50 319.68 L 199.54 319.41 L 199.63 319.68 L 199.68 319.41 L 199.76 319.41 L 199.81 319.41 L 199.90 319.41 L 199.94 319.41 L 200.03 319.41 L 200.07 319.68 L 200.16 319.41 L 200.21 319.68 L 200.30 319.68 L 200.34 319.68 L 200.43 319.68 L 200.47 319.68 L 200.56 319.68 L 200.61 319.68 L 200.70 319.68 L 200.74 319.68 L 200.83 319.68 L 200.87 319.68 L 200.96 319.95 L 201.01 319.95 L 201.09 319.95 L 201.14 320.23 L 201.23 320.23 L 201.27 320.55 L 201.36 320.82 L 201.40 321.09 L 201.49 321.09 L 201.58 321.37 L 201.63 321.69 L 201.71 321.69 L 201.76 321.69 L 201.85 321.69 L 201.89 321.37 L 201.98 321.37 L 202.02 321.37 L 202.11 321.37 L 202.16 321.69 L 202.25 321.69 L 202.29 321.96 L 202.38 321.96 L 202.42 321.96 L 202.51 321.96 L 202.56 322.23 L 202.64 322.23 L 202.69 322.23 L 202.78 322.23 L 202.82 322.23 L 202.91 322.23 L 202.96 322.23 L 203.04 322.23 L 203.09 322.23 L 203.18 322.23 L 203.22 322.23 L 203.31 322.51 L 203.35 322.23 L 203.44 322.51 L 203.49 322.51 L 203.58 322.51 L 203.62 322.51 L 203.71 322.51 L 203.75 322.83 L 203.84 322.83 L 203.93 322.83 L 203.97 323.10 L 204.06 323.10 L 204.11 323.10 L 204.20 323.10 L 204.24 323.10 L 204.33 323.10 L 204.37 323.10 L 204.46 323.10 L 204.51 323.10 L 204.59 323.10 L 204.64 323.10 L 204.73 323.37 L 204.77 323.10 L 204.86 323.37 L 204.90 323.37 L 204.99 323.37 L 205.04 323.37 L 205.13 323.37 L 205.17 323.65 L 205.26 323.65 L 205.30 323.65 L 205.39 323.65 L 205.44 323.97 L 205.53 323.65 L 205.57 323.97 L 205.66 323.97 L 205.70 323.97 L 205.79 323.65 L 205.84 323.97 L 205.92 323.97 L 205.97 323.97 L 206.06 323.97 L 206.10 323.97 L 206.19 323.97 L 206.28 323.97 L 206.32 323.97 L 206.41 323.97 L 206.46 323.97 L 206.54 323.97 L 406.08 387.49 L 406.12 387.21 L 406.21 387.49 L 406.25 387.21 L 406.34 387.21 L 406.39 386.94 L 406.48 386.94 L 406.52 386.94 L 406.61 386.94 L 406.65 386.67 L 406.74 386.67 L 406.79 386.67 L 406.88 386.35 L 406.92 386.35 L 407.01 386.07 L 407.05 386.07 L 407.14 386.07 L 407.19 385.80 L 407.27 385.80 L 407.32 385.80 L 407.41 385.80 L 407.45 385.53 L 407.54 385.53 L 407.63 385.53 L 407.67 385.21 L 407.76 385.53 L 407.81 385.21 L 407.89 385.21 L 407.94 385.21 L 408.03 384.93 L 408.07 384.93 L 408.16 384.93 L 408.20 384.93 L 408.29 384.66 L 408.34 384.66 L 408.43 384.66 L 408.47 384.66 L 408.56 384.39 L 408.60 384.39 L 408.69 384.39 L 408.74 384.07 L 408.82 384.07 L 408.87 384.07 L 408.96 384.07 L 409.00 384.07 L 409.09 383.79 L 409.13 383.79 L 409.22 383.79 L 409.27 383.79 L 409.36 383.52 L 409.40 383.79 L 409.49 383.52 L 409.53 383.52 L 409.62 383.25 L 409.67 383.25 L 409.76 383.25 L 409.80 383.25 L 409.89 383.25 L 409.93 382.93 L 410.02 382.93 L 410.07 382.65 L 410.15 382.65 L 410.20 382.38 L 410.29 382.38 L 410.33 382.38 L 410.42 382.11 L 410.46 382.11 L 410.55 381.79 L 410.60 381.79 L 410.69 381.51 L 410.77 381.51 L 410.82 381.51 L 410.91 381.24 L 410.95 380.97 L 411.04 380.97 L 411.08 380.65 L 411.17 380.65 L 411.22 380.65 L 411.31 380.37 L 411.35 380.10 L 411.44 380.10 L 411.48 379.83 L 411.57 379.51 L 411.62 379.23 L 411.71 379.23 L 411.75 378.96 L 411.84 378.96 L 411.88 378.96 L 411.97 378.69 L 412.02 378.37 L 412.10 378.09 L 412.15 378.09 L 412.24 377.82 L 412.28 377.55 L 412.37 377.55 L 412.41 377.23 L 412.50 376.95 L 412.55 376.68 L 412.64 376.41 L 412.68 376.09 L 412.77 376.09 L 412.81 375.81 L 412.90 375.54 L 412.95 375.27 L 413.03 375.27 L 413.08 374.95 L 413.17 374.67 L 413.21 374.67 L 413.30 374.40 L 413.34 374.13 L 413.43 373.81 L 413.48 373.53 L 413.57 373.53 L 413.65 373.26 L 413.70 372.99 L 413.79 372.67 L 413.83 372.67 L 413.92 372.39 L 413.96 371.85 L 414.05 371.85 L 414.10 371.53 L 414.19 371.25 L 414.23 370.98 L 414.32 370.71 L 414.36 370.39 L 414.45 370.39 L 414.50 370.11 L 414.59 369.84 L 414.63 369.57 L 414.72 369.25 L 414.76 368.70 L 414.85 368.70 L 414.90 368.43 L 414.98 368.43 L 415.03 367.83 L 415.12 367.56 L 415.16 367.29 L 415.25 366.97 L 415.29 366.69 L 415.38 366.42 L 415.43 366.15 L 415.52 365.83 L 415.56 365.28 L 415.65 365.28 L 415.69 365.01 L 415.78 364.69 L 415.83 364.41 L 415.91 364.14 L 415.96 363.87 L 416.05 363.55 L 416.09 363.00 L 416.18 362.73 L 416.22 362.73 L 416.31 362.41 L 416.40 361.86 L 416.45 361.59 L 416.53 361.27 L 416.58 360.99 L 416.67 360.99 L 416.71 360.45 L 416.80 360.13 L 416.85 359.85 L 416.93 359.58 L 416.98 359.31 L 417.07 358.71 L 417.11 358.44 L 417.20 358.17 L 417.24 357.85 L 417.33 357.57 L 417.38 357.30 L 417.47 357.30 L 417.51 356.71 L 417.60 356.43 L 417.64 356.16 L 417.73 355.89 L 417.78 355.89 L 417.86 355.57 L 417.91 355.02 L 418.00 354.75 L 418.04 354.43 L 418.13 354.15 L 418.17 353.88 L 418.26 353.61 L 418.31 353.29 L 418.40 353.01 L 418.44 352.74 L 418.53 352.47 L 418.57 352.15 L 418.66 351.87 L 418.71 351.60 L 418.79 351.33 L 418.84 351.33 L 418.93 350.73 L 419.02 350.46 L 419.06 350.46 L 419.15 350.19 L 419.19 349.87 L 419.28 349.59 L 419.33 349.32 L 419.42 349.32 L 419.46 349.05 L 419.55 348.73 L 419.59 348.73 L 419.68 348.45 L 419.73 348.18 L 419.81 347.91 L 419.86 347.91 L 419.95 347.59 L 419.99 347.59 L 420.08 347.31 L 420.12 347.04 L 420.21 347.04 L 420.26 346.77 L 420.35 346.77 L 420.39 346.45 L 420.48 346.45 L 420.52 346.17 L 420.61 346.17 L 420.66 346.17 L 420.74 346.17 L 420.79 345.90 L 420.88 345.90 L 420.92 345.90 L 421.01 345.63 L 421.05 345.31 L 421.14 345.31 L 421.19 345.31 L 421.28 345.31 L 421.32 345.03 L 421.41 345.03 L 421.45 344.76 L 421.54 344.76 L 421.63 344.76 L 421.68 344.76 L 421.76 344.49 L 421.81 344.17 L 421.90 344.17 L 421.94 344.17 L 422.03 344.17 L 422.07 344.17 L 422.16 344.17 L 422.21 344.17 L 422.30 344.17 L 422.34 344.17 L 422.43 343.89 L 422.47 343.89 L 422.56 343.89 L 422.61 343.89 L 422.69 344.17 L 422.74 343.89 L 422.83 343.89 L 422.87 343.89 L 422.96 343.89 L 423.00 343.62 L 423.09 343.62 L 423.14 343.62 L 423.23 343.62 L 423.27 343.62 L 423.36 343.62 L 423.40 343.35 L 423.49 343.62 L 423.54 343.35 L 423.62 343.35 L 423.67 343.35 L 423.76 343.35 L 423.80 343.03 L 423.89 343.03 L 423.93 343.03 L 424.02 342.75 L 424.07 342.75 L 424.16 342.48 L 424.25 342.48 L 424.29 342.48 L 424.38 342.21 L 424.42 342.21 L 424.51 342.21 L 424.56 341.89 L 424.64 341.61 L 424.69 341.61 L 424.78 341.61 L 424.82 341.61 L 424.91 341.61 L 424.95 341.61 L 425.04 341.34 L 425.09 341.34 L 425.18 341.07 L 425.22 341.34 L 425.31 341.07 L 425.35 341.07 L 425.44 341.07 L 425.49 341.07 L 425.57 341.07 L 425.62 341.07 L 425.71 340.75 L 425.75 340.75 L 425.84 340.75 L 425.88 340.75 L 425.97 340.75 L 426.02 340.47 L 426.11 340.47 L 426.15 340.75 L 426.24 340.75 L 426.28 340.75 L 426.37 340.75 L 426.42 340.75 L 426.50 340.47 L 426.55 340.75 L 426.64 340.47 L 426.73 340.47 L 426.77 340.75 L 426.86 340.47 L 426.90 340.75 L 426.99 340.47 L 427.04 340.75 L 427.13 340.75 L 427.17 340.75 L 427.26 340.75 L 427.30 340.75 L 427.39 341.07 L 427.44 341.07 L 427.52 341.07 L 427.57 340.75 L 427.66 341.07 L 427.70 341.07 L 427.79 341.07 L 427.83 341.07 L 427.92 341.07 L 427.97 341.07 L 428.06 341.34 L 428.10 341.34 L 428.19 341.34 L 428.23 341.34 L 428.32 341.61 L 428.37 341.34 L 428.45 341.61 L 428.50 341.61 L 428.59 341.89 L 428.63 341.61 L 428.72 341.61 L 428.76 341.89 L 428.85 341.89 L 428.90 341.89 L 428.99 341.89 L 429.03 342.21 L 429.12 342.21 L 429.21 342.21 L 429.25 342.21 L 429.34 342.48 L 429.39 342.21 L 429.47 342.48 L 429.52 342.48 L 429.61 342.48 L 429.65 342.48 L 429.74 342.48 L 429.78 342.48 L 429.87 342.48 L 429.92 342.48 L 430.01 342.21 L 430.05 342.48 L 430.14 342.48 L 430.18 342.48 L 430.27 342.48 L 430.32 342.48 L 430.40 342.21 L 430.45 342.21 L 430.54 342.21 L 430.58 342.21 L 430.67 341.89 L 430.71 341.89 L 430.80 341.89 L 430.85 341.89 L 430.94 341.89 L 430.98 341.61 L 431.07 341.61 L 431.11 341.61 L 431.20 341.34 L 431.25 341.34 L 431.33 341.34 L 431.38 341.07 L 431.47 340.75 L 431.51 340.75 L 431.60 340.75 L 431.65 340.75 L 431.73 340.75 L 431.82 340.75 L 431.87 340.75 L 431.96 340.75 L 432.00 340.47 L 432.09 340.47 L 432.13 340.47 L 432.22 340.47 L 432.27 340.47 L 432.35 340.20 L 432.40 340.20 L 432.49 340.20 L 432.53 340.20 L 432.62 339.93 L 432.66 339.93 L 432.75 339.93 L 432.80 339.93 L 432.89 339.93 L 432.93 339.61 L 433.02 339.61 L 433.06 339.61 L 433.15 339.33 L 433.20 339.06 L 433.28 339.06 L 433.33 339.06 L 433.42 339.06 L 433.46 339.06 L 433.55 339.06 L 433.59 339.06 L 433.68 338.79 L 433.73 338.79 L 433.82 338.79 L 433.86 338.79 L 433.95 338.79 L 433.99 338.47 L 434.08 338.79 L 434.13 338.79 L 434.22 338.79 L 434.30 338.47 L 434.35 338.79 L 434.44 338.79 L 434.48 338.79 L 434.57 338.47 L 434.61 338.79 L 434.70 338.79 L 434.75 338.47 L 434.84 338.47 L 434.88 338.47 L 434.97 338.47 L 435.01 338.47 L 435.10 338.47 L 435.15 338.47 L 435.23 338.47 L 435.28 338.47 L 435.37 338.47 L 435.41 338.47 L 435.50 338.47 L 435.54 338.47 L 435.63 338.47 L 435.68 338.47 L 435.77 338.47 L 435.81 338.47 L 435.90 338.47 L 435.94 338.47 L 436.03 338.47 L 436.08 338.47 L 436.16 338.47 L 436.21 338.19 L 436.30 338.19 L 436.34 338.47 L 436.43 338.47 L 436.47 338.47 L 436.56 338.47 L 436.61 338.47 L 436.70 338.47 L 436.79 338.79 L 436.83 338.47 L 436.92 338.47 L 436.96 338.79 L 437.05 338.79 L 437.10 338.79 L 437.18 338.79 L 437.23 338.79 L 437.32 338.79 L 437.36 338.79 L 437.45 338.79 L 437.49 338.79 L 437.58 339.06 L 437.63 338.79 L 437.72 338.79 L 437.76 338.79 L 437.85 338.79 L 437.89 338.79 L 437.98 339.06 L 438.03 338.79 L 438.11 339.06 L 438.16 339.06 L 438.25 339.06 L 438.29 339.06 L 438.38 339.33 L 438.42 339.06 L 438.51 339.33 L 438.56 339.33 L 438.65 339.33 L 438.69 339.33 L 438.78 339.33 L 438.82 339.33 L 438.91 339.33 L 438.96 339.33 L 439.05 339.61 L 439.09 339.61 L 439.18 339.61 L 439.27 339.61 L 439.31 339.61 L 439.40 339.93 L 439.44 339.93 L 439.53 339.93 L 439.58 339.93 L 439.67 339.93 L 439.71 339.93 L 439.80 340.20 L 439.84 340.20 L 439.93 339.93 L 439.98 340.20 L 440.06 340.47 L 440.11 340.47 L 440.20 340.47 L 440.24 340.47 L 440.33 340.47 L 440.37 340.47 L 440.46 340.47 L 440.51 340.75 L 440.60 340.47 L 440.64 340.75 L 440.73 340.75 L 440.77 340.75 L 440.86 341.07 L 440.91 341.07 L 440.99 341.34 L 441.04 341.34 L 441.13 341.34 L 441.17 341.34 L 441.26 341.61 L 441.30 341.61 L 441.39 341.61 L 441.44 341.61 L 441.53 341.61 L 441.57 341.89 L 441.66 341.89 L 441.75 341.89 L 441.79 341.89 L 441.88 342.21 L 441.93 342.21 L 442.01 342.21 L 442.06 342.48 L 442.15 342.48 L 442.19 342.48 L 442.28 342.48 L 442.32 342.48 L 442.41 342.75 L 442.46 343.03 L 442.55 343.03 L 442.59 343.03 L 442.68 343.03 L 442.72 343.03 L 442.81 343.35 L 442.86 343.62 L 442.94 343.62 L 442.99 343.62 L 443.08 343.62 L 443.12 343.62 L 443.21 343.89 L 443.25 343.89 L 443.34 343.89 L 443.39 343.89 L 443.48 344.17 L 443.52 344.17 L 443.61 344.17 L 443.65 344.49 L 443.74 344.49 L 443.79 344.49 L 443.87 344.49 L 443.92 344.76 L 444.01 344.76 L 444.05 344.76 L 444.14 345.03 L 444.19 345.03 L 444.27 345.03 L 444.36 345.03 L 444.41 345.03 L 444.50 345.31 L 444.54 345.31 L 444.63 345.63 L 444.67 345.63 L 444.76 345.63 L 444.81 345.63 L 444.89 345.63 L 444.94 345.90 L 445.03 345.90 L 445.07 346.17 L 445.16 346.17 L 445.20 346.17 L 445.29 346.17 L 445.34 346.17 L 445.43 346.17 L 445.47 346.45 L 445.56 346.45 L 445.60 346.77 L 445.69 346.77 L 445.74 346.77 L 445.82 346.77 L 445.87 346.77 L 445.96 347.04 L 446.00 347.04 L 446.09 347.04 L 446.13 347.31 L 446.22 347.31 L 446.27 347.31 L 446.36 347.59 L 458.10 347.59 L 458.10 347.59 L 458.10 347.59 L 458.10 347.91 L 458.10 347.91 L 458.10 347.91 L 458.10 348.18 L 458.10 348.18 L 458.10 348.18 L 458.10 348.18 L 458.14 348.45 L 458.14 348.45 L 458.14 348.73 L 458.14 348.73 L 458.14 348.73 L 458.14 349.05 L 458.14 349.05 L 458.14 349.32 L 458.14 349.32 L 458.14 349.32 L 458.14 349.32 L 458.14 349.32 L 458.14 349.59 L 458.14 349.59 L 458.14 349.87 L 458.14 349.87 L 458.14 350.19 L 458.14 350.19 L 458.14 350.19 L 458.14 350.19 L 458.14 350.19 L 458.14 350.46 L 458.14 350.46 L 458.14 350.46 L 458.14 350.73 L 458.14 350.73 L 458.14 351.01 L 458.14 351.01 L 458.14 351.01 L 458.14 351.33 L 458.14 351.33 L 458.14 351.33 L 458.14 351.60 L 458.14 351.60 L 458.14 351.60 L 458.14 351.60 L 458.14 351.87 L 458.14 351.87 L 458.14 351.87 L 458.14 351.87 L 458.14 351.87 L 458.14 351.87 L 458.14 352.15 L 458.14 352.15 L 458.14 352.15 L 458.14 352.15 L 458.14 352.15 L 458.14 352.15 L 458.14 352.15 L 458.14 352.15 L 458.14 352.47 L 458.14 352.15 L 458.14 352.15 L 458.14 352.15 L 458.14 352.15 L 458.19 352.15 L 458.19 351.87 L 458.19 352.15 L 458.19 351.87 L 458.19 352.15 L 458.19 351.87 L 458.19 351.87 L 458.19 351.87 L 458.19 351.87 L 458.19 351.87 L 458.19 351.87 L 458.19 351.87 L 458.19 351.87 L 458.19 351.87 L 458.19 351.87 L 458.19 351.60 L 458.19 351.87 L 458.19 351.87 L 458.19 351.60 L 458.19 351.60 L 458.19 351.60 L 458.19 351.60 L 458.19 351.60 L 458.19 348.45 L 458.19 348.45 L 458.19 348.45 L 458.19 348.45 L 458.23 348.45 L 458.28 348.45 L 458.36 348.73 L 458.41 348.73 L 458.50 348.73 L 458.54 348.73 L 458.63 349.05 L 458.67 349.05 L 458.76 349.05 L 458.81 349.32 L 458.90 349.05 L 458.94 349.32 L 459.03 349.32 L 459.07 349.32 L 459.16 349.59 L 459.21 349.32 L 459.30 349.32 L 459.34 349.59 L 459.43 349.59 L 459.47 349.59 L 459.56 349.59 L 459.61 349.59 L 459.69 349.59 L 459.74 349.87 L 459.83 349.87 L 459.87 349.87 L 459.96 349.87 L 460.05 350.19 L 460.09 350.19 L 460.18 350.19 L 460.23 350.19 L 460.31 350.19 L 460.36 350.19 L 460.45 350.46 L 460.49 350.46 L 460.58 350.46 L 460.62 350.46 L 460.71 350.73 L 460.76 350.73 L 460.85 350.73 L 460.89 351.01 L 460.98 351.01 L 461.02 351.01 L 461.11 351.01 L 461.16 351.01 L 461.24 351.01 L 461.29 351.01 L 461.38 351.01 L 461.42 351.01 L 461.51 351.33 L 461.56 351.33 L 461.64 351.60 L 461.69 351.33 L 461.78 351.60 L 461.82 351.60 L 461.91 351.60 L 461.95 351.60 L 462.04 351.60 L 462.09 351.60 L 462.18 351.87 L 462.22 351.87 L 462.31 351.87 L 462.35 352.15 L 462.44 352.15 L 462.49 352.15 L 462.57 352.15 L 462.62 352.15 L 462.71 352.47 L 462.80 352.47 L 462.84 352.47 L 462.93 352.47 L 462.97 352.74 L 463.06 352.74 L 463.11 352.74 L 463.19 352.74 L 463.24 352.74 L 463.33 353.01 L 463.37 353.01 L 463.46 353.01 L 463.50 353.01 L 463.59 353.01 L 463.64 353.29 L 463.73 353.01 L 463.77 353.29 L 463.86 353.29 L 463.90 353.29 L 463.99 353.61 L 464.04 353.61 L 464.13 353.61 L 464.17 353.61 L 464.26 353.61 L 464.30 353.61 L 464.39 353.61 L 464.44 353.88 L 464.52 353.88 L 464.57 353.88 L 464.66 353.88 L 464.70 354.15 L 464.79 354.15 L 464.83 354.15 L 464.92 354.15 L 464.97 354.43 L 465.06 354.43 L 465.10 354.43 L 465.19 354.43 L 465.23 354.43 L 465.32 354.43 L 465.41 354.75 L 465.45 354.43 L 465.54 354.75 L 465.59 354.75 L 465.68 354.75 L 465.72 355.02 L 465.81 355.02 L 465.85 355.02 L 465.94 355.02 L 465.99 355.29 L 466.07 355.29 L 466.12 355.29 L 466.21 355.29 L 466.25 355.29 L 466.34 355.29 L 466.39 355.29 L 466.47 355.57 L 466.52 355.29 L 466.61 355.57 L 466.65 355.57 L 466.74 355.57 L 466.78 355.57 L 466.87 355.57 L 466.92 355.89 L 467.01 355.57 L 467.05 355.89 L 467.14 355.89 L 467.18 355.89 L 467.27 356.16 L 467.32 356.16 L 467.40 356.16 L 467.45 356.16 L 467.54 356.16 L 467.58 356.16 L 467.67 356.16 L 467.71 356.43 L 467.80 356.43 L 467.85 356.43 L 467.94 356.43 L 467.98 356.71 L 468.07 356.71 L 468.16 356.71 L 468.20 356.71 L 468.29 356.71 L 468.33 356.71 L 468.42 357.03 L 468.47 357.03 L 468.56 357.03 L 468.60 357.30 L 468.69 357.30 L 468.73 357.30 L 468.82 357.57 L 468.87 357.57 L 468.96 357.57 L 469.00 357.57 L 469.09 357.57 L 469.13 357.85 L 469.22 357.85 L 469.27 357.85 L 469.35 357.85 L 469.40 357.85 L 469.49 358.17 L 469.53 358.17 L 469.62 358.17 L 469.66 358.17 L 469.75 358.17 L 469.80 358.44 L 469.89 358.44 L 469.93 358.44 L 470.02 358.44 L 470.06 358.44 L 470.15 358.71 L 470.20 358.71 L 470.28 358.71 L 470.33 358.71 L 470.42 358.99 L 470.46 358.99 L 470.55 358.99 L 470.59 358.71 L 470.68 358.99 L 470.73 358.99 L 470.82 358.99 L 470.90 358.99 L 470.95 359.31 L 471.04 358.99 L 471.08 358.99 L 471.17 359.31 L 471.21 358.99 L 471.30 359.31 L 471.35 358.99 L 471.44 358.99 L 471.48 359.31 L 471.57 359.31 L 471.61 358.99 L 471.70 359.31 L 471.75 359.31 L 471.84 359.31 L 471.88 358.99 L 471.97 359.31 L 472.01 359.31 L 472.10 359.31 L 472.15 358.99 L 472.23 358.99 L 472.28 358.99 L 472.37 358.99 L 472.41 358.99 L 472.50 359.31 L 472.54 359.31 L 472.63 358.99 L 472.68 358.99 L 472.77 358.99 L 472.81 358.99 L 472.90 358.99 L 472.94 358.99 L 473.03 358.99 L 473.08 358.99 L 473.16 358.99 L 473.21 358.99 L 473.30 358.99 L 473.34 358.99 L 473.43 358.99 L 473.52 358.99 L 473.56 358.99 L 473.65 358.99 L 473.70 358.99 L 473.78 358.99 L 473.83 358.99 L 473.92 359.31 L 473.96 359.31 L 474.05 359.31 L 474.10 358.99 L 474.18 359.31 L 474.23 359.31 L 474.32 359.31 L 474.36 359.31 L 474.45 359.31 L 474.49 359.31 L 474.58 359.31 L 474.63 359.31 L 474.72 359.31 L 474.76 359.31 L 474.85 359.31 L 474.89 359.58 L 474.98 359.31 L 475.03 359.31 L 475.11 359.58 L 475.16 359.58 L 475.25 359.58 L 475.29 359.58 L 475.38 359.85 L 475.42 359.85 L 475.51 359.58 L 475.56 359.85 L 475.65 359.85 L 475.69 359.85 L 475.78 359.85 L 475.82 359.85 L 475.91 359.85 L 475.96 359.85 L 476.04 359.85 L 476.09 359.85 L 476.18 359.85 L 476.22 359.85 L 476.31 359.85 L 476.40 359.85 L 476.44 359.85 L 476.53 359.85 L 476.58 359.85 L 476.67 359.85 L 476.71 359.85 L 476.80 359.85 L 476.84 359.85 L 476.93 360.13 L 476.98 360.13 L 477.06 360.13 L 477.11 360.13 L 477.20 360.13 L 477.24 360.13 L 477.33 360.13 L 477.37 360.13 L 477.46 360.13 L 477.51 360.45 L 477.60 360.13 L 477.64 360.13 L 477.73 360.13 L 477.77 360.45 L 477.86 360.45 L 477.91 360.72 L 477.99 360.45 L 478.04 360.72 L 478.13 360.45 L 478.17 360.72 L 478.26 360.72 L 478.30 360.72 L 478.39 360.72 L 478.44 360.72 L 478.53 360.72 L 478.57 360.72 L 478.66 360.72 L 478.70 360.45 L 478.79 360.45 L 478.84 360.45 L 478.93 360.45 L 478.97 360.45 L 479.06 360.13 L 479.15 360.13 L 479.19 360.13 L 479.28 360.13 L 479.32 360.13 L 479.41 360.13 L 479.46 360.13 L 479.55 359.85 L 479.59 359.85 L 479.68 359.58 L 479.72 359.58 L 479.81 359.58 L 479.86 359.31 L 479.94 359.31 L 479.99 359.31 L 480.08 359.31 L 480.12 358.99 L 480.21 358.99 L 480.25 358.71 L 480.34 358.71 L 480.39 358.44 L 480.48 358.44 L 480.52 358.44 L 480.61 358.17 L 480.65 358.17 L 480.74 357.85 L 480.79 357.85 L 480.87 357.57 L 480.92 357.57 L 481.01 357.30 L 481.05 357.30 L 481.14 357.03 L 481.18 357.03 L 481.27 356.71 L 481.32 356.71 L 481.41 356.43 L 481.45 356.16 L 481.54 356.16 L 481.58 355.89 L 481.67 355.57 L 481.76 355.57 L 481.81 355.29 L 481.89 355.02 L 481.94 355.02 L 482.03 354.75 L 482.07 354.75 L 482.16 354.43 L 482.20 354.15 L 482.29 353.88 L 482.34 353.88 L 482.43 353.61 L 482.47 353.61 L 482.56 353.29 L 482.60 353.01 L 482.69 353.01 L 482.74 353.01 L 482.82 352.74 L 482.87 352.47 L 482.96 352.15 L 483.00 352.15 L 483.09 351.87 L 483.13 351.60 L 483.22 351.60 L 483.27 351.33 L 483.36 351.01 L 483.40 350.73 L 483.49 350.73 L 483.53 350.46 L 483.62 350.19 L 483.67 349.87 L 483.75 349.59 L 483.80 349.59 L 483.89 349.32 L 483.93 349.32 L 484.02 349.05 L 484.07 348.73 L 484.15 348.45 L 484.20 348.18 L 484.29 347.91 L 484.38 347.91 L 484.42 347.59 L 484.51 347.59 L 484.55 347.31 L 484.64 347.04 L 484.69 346.77 L 484.77 346.77 L 484.82 346.45 L 484.91 346.17 L 484.95 346.17 L 485.04 345.90 L 485.08 345.63 L 485.17 345.31 L 485.22 345.03 L 485.31 344.76 L 485.35 344.76 L 485.44 344.49 L 485.48 344.17 L 485.57 344.17 L 485.62 343.62 L 485.70 343.62 L 485.75 343.62 L 485.84 343.03 L 485.88 343.03 L 485.97 342.75 L 486.01 342.75 L 486.10 342.48 L 486.15 342.21 L 486.24 341.89 L 486.28 341.89 L 486.37 341.61 L 486.41 341.34 L 486.50 341.07 L 486.55 340.75 L 486.64 340.75 L 486.68 340.47 L 486.77 340.20 L 486.86 340.20 L 486.90 339.93 L 486.99 339.61 L 487.03 339.61 L 487.12 339.33 L 487.17 339.33 L 487.26 339.06 L 487.30 338.79 L 487.39 338.79 L 487.43 338.79 L 487.52 338.79 L 487.57 338.47 L 487.65 338.47 L 487.70 338.19 L 487.79 338.19 L 487.83 337.92 L 487.92 337.92 L 487.96 337.65 L 488.05 337.65 L 488.10 337.33 L 488.19 337.33 L 488.23 337.33 L 488.32 337.33 L 488.36 337.33 L 488.45 337.05 L 488.50 337.05 L 488.58 337.05 L 488.63 336.78 L 488.72 336.78 L 488.76 336.78 L 488.85 336.51 L 488.90 336.51 L 488.98 336.51 L 489.03 336.51 L 489.12 336.51 L 489.16 336.19 L 489.25 336.19 L 489.34 336.19 L 489.38 335.91 L 489.47 336.19 L 489.52 335.91 L 489.60 336.19 L 489.65 335.91 L 489.74 335.91 L 489.78 335.91 L 489.87 335.91 L 489.91 335.91 L 490.00 335.91 L 490.05 335.64 L 490.14 335.64 L 490.18 335.64 L 490.27 335.64 L 490.31 335.64 L 490.40 335.37 L 490.45 335.64 L 490.53 335.64 L 490.58 335.37 L 490.67 335.64 L 490.71 335.37 L 490.80 335.37 L 490.84 335.05 L 490.93 335.37 L 490.98 335.05 L 491.07 335.05 L 491.11 335.05 L 491.20 335.05 L 491.24 335.05 L 491.33 335.05 L 491.38 334.77 L 491.47 335.05 L 491.51 334.77 L 491.60 334.77 L 491.64 334.77 L 491.73 334.77 L 491.82 334.50 L 491.86 334.50 L 491.95 334.50 L 492.00 334.50 L 492.09 334.23 L 492.13 334.23 L 492.22 334.23 L 492.26 334.23 L 492.35 334.23 L 492.40 333.91 L 492.48 333.91 L 492.53 333.63 L 492.62 333.63 L 492.66 333.63 L 492.75 333.36 L 492.79 333.36 L 492.88 333.09 L 492.93 333.09 L 493.02 333.09 L 493.06 332.77 L 493.15 332.77 L 493.19 332.77 L 493.28 332.49 L 493.33 332.49 L 493.41 332.22 L 493.46 332.22 L 493.55 331.95 L 493.59 331.95 L 493.68 331.63 L 493.73 331.95 L 493.81 331.95 L 493.86 331.63 L 493.95 331.63 L 493.99 331.63 L 494.08 331.35 L 494.12 331.35 L 494.21 331.08 L 494.30 331.08 L 494.35 331.08 L 494.43 330.81 L 494.48 330.81 L 494.57 330.81 L 494.61 330.49 L 494.70 330.49 L 494.74 330.49 L 494.83 330.21 L 494.88 329.94 L 494.97 329.94 L 495.01 329.94 L 495.10 329.67 L 495.14 329.35 L 495.23 329.35 L 495.28 329.07 L 495.36 329.07 L 495.41 329.07 L 495.50 328.80 L 495.54 328.80 L 495.63 328.53 L 495.67 328.53 L 495.76 328.21 L 495.81 327.93 L 495.90 328.21 L 495.94 327.93 L 496.03 327.93 L 496.07 327.66 L 496.16 327.66 L 496.21 327.39 L 496.30 327.39 L 496.34 327.07 L 496.43 326.79 L 496.47 326.79 L 496.56 326.79 L 496.65 326.52 L 496.69 326.25 L 496.78 326.25 L 496.83 325.93 L 496.92 325.93 L 496.96 325.65 L 497.05 325.65 L 497.09 325.38 L 497.18 325.11 L 497.23 325.11 L 497.31 324.79 L 497.36 324.79 L 497.45 324.51 L 497.49 324.51 L 497.58 324.24 L 497.62 324.24 L 497.71 323.97 L 497.76 323.65 L 497.85 323.65 L 497.89 323.37 L 497.98 323.10 L 498.02 323.10 L 498.11 322.83 L 498.16 322.83 L 498.24 322.83 L 498.29 322.23 L 498.38 322.23 L 498.42 321.96 L 498.51 321.96 L 498.55 321.69 L 498.64 321.69 L 498.69 321.69 L 498.78 321.37 L 498.87 321.09 L 498.91 320.82 L 499.00 320.82 L 499.04 320.55 L 499.13 320.55 L 499.18 320.23 L 499.26 320.23 L 499.31 319.95 L 499.40 319.68 L 499.44 319.68 L 499.53 319.41 L 499.57 319.41 L 499.66 319.09 L 499.71 319.09 L 499.80 318.81 L 499.84 318.54 L 499.93 318.54 L 499.97 318.54 L 500.06 318.54 L 500.11 318.27 L 500.19 317.95 L 500.24 317.67 L 500.33 317.67 L 500.37 317.67 L 500.46 317.40 L 500.50 317.40 L 500.59 317.13 L 500.64 316.81 L 500.73 316.53 L 500.77 316.53 L 500.86 316.26 L 500.90 316.26 L 500.99 316.26 L 501.08 316.26 L 501.12 315.99 L 501.21 315.67 L 501.26 315.67 L 501.35 315.39 L 501.39 315.39 L 501.48 315.12 L 501.52 315.12 L 501.61 314.85 L 501.66 314.85 L 501.75 314.53 L 501.79 314.25 L 501.88 314.53 L 501.92 314.25 L 502.01 313.98 L 502.06 313.71 L 502.14 313.71 L 502.19 313.39 L 502.28 313.39 L 502.32 313.39 L 502.41 313.11 L 502.45 313.11 L 502.54 313.11 L 502.59 312.57 L 502.68 312.84 L 502.72 312.57 L 502.81 312.25 L 502.85 312.25 L 502.94 311.97 L 502.99 311.97 L 503.07 311.70 L 503.12 311.70 L 503.21 311.43 L 503.30 311.11 L 503.34 311.11 L 503.43 311.11 L 503.47 311.11 L 503.56 310.83 L 503.61 310.83 L 503.70 310.83 L 503.74 310.56 L 503.83 310.56 L 503.87 310.56 L 503.96 310.29 L 504.01 309.97 L 504.09 309.97 L 504.14 309.97 L 504.23 309.97 L 504.27 309.69 L 504.36 309.69 L 504.40 309.42 L 504.49 309.15 L 504.54 309.15 L 504.63 309.15 L 504.67 309.15 L 504.76 308.83 L 504.80 308.83 L 504.89 308.55 L 504.94 308.55 L 505.02 308.55 L 505.07 308.28 L 505.16 308.28 L 505.20 308.01 L 505.29 308.01 L 505.33 308.01 L 505.42 308.01 L 505.51 307.69 L 505.56 307.69 L 505.64 307.69 L 505.69 307.41 L 505.78 307.14 L 505.82 307.41 L 505.91 307.14 L 505.95 307.14 L 506.04 307.14 L 506.09 307.14 L 506.18 307.14 L 506.22 307.14 L 506.31 307.14 L 506.35 307.14 L 506.44 306.87 L 506.49 306.87 L 506.58 306.87 L 506.62 306.87 L 506.71 306.87 L 506.75 306.55 L 506.84 306.87 L 506.89 306.55 L 506.97 306.55 L 507.02 306.55 L 507.11 306.55 L 507.15 306.55 L 507.24 306.27 L 507.28 306.27 L 507.37 306.27 L 507.42 306.27 L 507.51 306.27 L 507.59 306.00 L 507.64 306.00 L 507.73 306.00 L 507.77 306.00 L 507.86 306.00 L 507.90 305.73 L 507.99 305.73 L 508.04 305.73 L 508.13 305.73 L 508.17 305.73 L 508.26 305.41 L 508.30 305.41 L 508.39 305.41 L 508.44 305.41 L 508.52 305.41 L 508.57 305.13 L 508.66 305.13 L 508.70 305.13 L 508.79 305.13 L 508.84 304.86 L 508.92 304.86 L 508.97 304.86 L 509.06 304.86 L 509.10 304.86 L 509.19 304.86 L 509.23 304.59 L 509.32 304.59 L 509.37 304.59 L 509.46 304.59 L 509.50 304.59 L 509.59 304.27 L 509.63 304.27 L 509.72 304.27 L 509.81 304.27 L 509.85 303.99 L 509.94 303.99 L 509.99 303.99 L 510.08 303.72 L 510.12 303.72 L 510.21 303.72 L 510.25 303.45 L 510.34 303.72 L 510.39 303.72 L 510.47 303.45 L 510.52 303.45 L 510.61 303.45 L 510.65 303.45 L 510.74 303.45 L 510.78 303.45 L 510.87 303.13 L 510.92 303.13 L 511.01 303.13 L 511.05 303.13 L 511.14 303.13 L 511.18 302.85 L 511.27 303.13 L 511.32 303.13 L 511.41 303.13 L 511.45 302.85 L 511.54 302.85 L 511.58 302.85 L 511.67 302.58 L 511.72 302.58 L 511.80 302.58 L 511.89 302.58 L 511.94 302.58 L 512.03 302.58 L 512.07 302.31 L 512.16 302.58 L 512.20 302.31 L 512.29 302.31 L 512.34 302.31 L 512.42 302.31 L 512.47 302.31 L 512.56 301.99 L 512.60 301.99 L 512.69 301.99 L 512.73 301.99 L 512.82 301.99 L 512.87 301.99 L 512.96 301.71 L 513.00 301.71 L 513.09 301.71 L 513.13 301.44 L 513.22 301.44 L 513.27 301.44 L 513.35 301.44 L 513.40 301.17 L 513.49 301.17 L 513.53 301.17 L 513.62 301.17 L 513.67 301.17 L 513.75 301.17 L 513.80 300.85 L 513.89 300.85 L 513.98 300.85 L 514.02 300.85 L 514.11 300.85 L 514.15 300.85 L 514.24 300.57 L 514.29 300.57 L 514.37 300.57 L 514.42 300.57 L 514.51 300.57 L 514.55 300.57 L 514.64 300.30 L 514.68 300.57 L 514.77 300.57 L 514.82 300.30 L 514.91 300.30 L 514.95 300.30 L 515.04 300.30 L 515.08 300.30 L 515.17 300.30 L 515.22 300.30 L 515.30 300.30 L 515.35 300.57 L 515.44 300.57 L 515.48 300.30 L 515.57 300.30 L 515.61 300.30 L 515.70 300.30 L 515.75 300.30 L 515.84 300.30 L 515.88 300.30 L 515.97 300.30 L 516.06 300.30 L 516.10 300.30 L 516.19 300.30 L 516.24 300.03 L 516.32 300.03 L 516.37 300.30 L 516.46 300.03 L 516.50 300.03 L 516.59 300.03 L 516.63 300.03 L 516.72 300.03 L 516.77 300.03 L 516.86 300.03 L 516.90 300.03 L 516.99 300.03 L 517.03 300.03 L 517.12 300.03 L 517.17 300.03 L 517.25 300.03 L 517.30 300.03 L 517.39 300.03 L 517.43 300.03 L 517.52 300.03 L 517.56 300.03 L 517.65 300.03 L 517.70 300.03 L 517.79 300.30 L 517.83 300.30 L 517.92 300.30 L 517.96 300.30 L 518.05 300.30 L 518.14 300.57 L 518.18 300.57 L 518.27 300.30 L 518.32 300.57 L 518.41 300.57 L 518.45 300.57 L 518.54 300.57 L 518.58 300.85 L 518.67 300.57 L 518.72 300.57 L 518.81 300.57 L 518.85 300.85 L 518.94 300.85 L 518.98 300.85 L 519.07 300.85 L 519.12 300.85 L 519.20 300.85 L 519.25 300.85 L 519.34 300.85 L 519.38 301.17 L 519.47 301.17 L 519.51 301.17 L 519.60 301.17 L 519.65 301.17 L 519.74 301.17 L 519.78 301.17 L 519.87 301.17 L 519.91 301.17 L 520.00 301.17 L 520.05 300.85 L 520.13 301.17 L 520.22 300.85 L 520.27 300.85 L 520.36 300.85 L 520.40 300.85 L 520.49 300.85 L 520.53 300.85 L 520.62 300.85 L 520.67 300.85 L 520.75 300.57 L 520.80 300.57 L 520.89 300.85 L 520.93 300.85 L 521.02 300.57 L 521.06 300.57 L 521.15 300.30 L 521.20 300.57 L 521.29 300.30 L 521.33 300.30 L 521.42 300.03 L 521.46 300.03 L 521.55 300.03 L 521.60 300.03 L 521.69 300.03 L 521.73 300.03 L 521.82 300.03 L 521.86 299.71 L 521.95 299.71 L 522.00 299.71 L 522.08 299.71 L 522.13 299.43 L 522.22 299.43 L 522.31 299.43 L 522.35 299.16 L 522.44 299.43 L 522.48 299.16 L 522.57 299.16 L 522.62 299.16 L 522.70 298.89 L 522.75 298.89 L 522.84 298.89 L 522.88 298.89 L 522.97 298.57 L 523.01 298.89 L 523.10 298.89 L 523.15 298.89 L 523.24 298.57 L 523.28 298.57 L 523.37 298.57 L 523.41 298.57 L 523.50 298.29 L 523.55 298.29 L 523.64 298.29 L 523.68 298.29 L 523.77 298.29 L 523.81 298.29 L 523.90 298.29 L 523.95 298.29 L 524.03 298.29 L 524.08 298.29 L 524.17 298.29 L 524.21 298.29 L 524.30 298.29 L 524.39 298.29 L 524.43 298.02 L 524.52 298.29 L 524.57 298.02 L 524.65 298.02 L 524.70 298.02 L 524.79 298.29 L 524.83 298.02 L 524.92 298.29 L 524.96 298.29 L 525.05 298.02 L 525.10 298.29 L 525.19 298.02 L 525.23 298.02 L 525.32 298.02 L 525.36 297.75 L 525.45 298.02 L 525.50 298.02 L 525.58 298.02 L 525.63 297.75 L 525.72 298.02 L 525.76 297.75 L 525.85 297.75 L 525.89 297.75 L 525.98 297.75 L 526.03 297.75 L 526.12 297.43 L 526.16 297.75 L 526.25 297.43 L 526.29 297.43 L 526.38 297.43 L 526.47 297.43 L 526.52 297.15 L 526.60 297.15 L 526.65 297.15 L 526.74 297.15 L 526.78 297.15 L 526.87 297.15 L 526.91 296.88 L 527.00 296.88 L 527.05 296.88 L 527.14 296.61 L 527.18 296.61 L 527.27 296.61 L 527.31 296.61 L 527.40 296.61 L 527.45 296.61 L 527.53 296.61 L 527.58 296.29 L 527.67 296.29 L 527.71 296.29 L 527.80 296.29 L 527.84 296.01 L 527.93 295.74 L 527.98 296.01 L 528.07 296.01 L 528.11 296.01 L 528.20 296.01 L 528.24 296.01 L 528.33 296.01 L 528.42 296.01 L 528.46 296.29 L 528.55 296.29 L 528.60 296.29 L 528.69 296.29 L 528.73 296.29 L 528.82 296.29 L 528.86 296.29 L 528.95 296.29 L 529.00 296.29 L 529.09 296.29 L 529.13 296.29 L 548.49 296.29 L 548.49 296.29 L 548.49 296.29 L 548.49 296.29 L 548.49 296.29 L 548.49 296.29 L 548.49 296.01 L 548.49 296.01 L 548.49 296.01 L 548.49 296.01 L 548.49 296.01 L 548.49 296.01 L 548.49 296.01 L 548.49 296.01 L 548.49 296.01 L 548.49 296.01 L 548.49 296.01 L 548.49 296.01 L 548.49 295.74 L 548.49 296.01 L 548.49 296.01 L 548.54 295.74 L 548.54 296.01 L 548.54 296.01 L 548.54 296.01 L 548.54 295.74 L 548.54 295.74 L 548.54 295.47 L 548.54 295.47 L 548.54 295.47 L 548.54 295.47 L 548.54 295.47 L 548.54 295.47 L 548.54 295.74 L 548.54 295.74 L 548.54 295.47 L 548.54 295.47 L 548.54 295.47 L 548.54 295.47 L 548.54 295.74 L 548.54 295.47 L 548.54 295.47 L 548.54 295.15 L 548.54 295.47 L 548.54 295.47 L 548.54 295.47 L 548.54 295.47 L 548.54 295.47 L 548.54 295.47 L 548.54 295.47 L 548.54 295.47 L 548.54 295.47 L 548.54 295.47 L 548.54 295.47 L 548.54 295.47 L 548.54 295.74 L 548.54 295.47 L 548.54 295.74 L 548.54 295.47 L 548.54 295.74 L 548.54 295.74 L 548.54 295.74 L 548.54 296.01 L 548.54 295.74 L 548.54 295.74 L 548.54 296.01 L 548.54 296.01 L 548.54 296.01 L 548.54 296.29 L 548.54 296.61 L 548.54 296.61 L 548.54 296.61 L 548.54 296.88 L 548.54 296.88 L 548.54 297.15 L 548.54 297.15 L 548.54 297.15 L 548.54 297.43 L 548.58 297.43 L 548.58 297.43 L 548.58 297.75 L 548.58 297.75 L 548.58 297.75 L 548.58 298.02 L 548.58 298.02 L 548.58 298.02 L 548.58 298.29 L 548.58 298.29 L 548.58 315.39 L 548.58 315.39 L 548.58 315.67 L 548.63 315.67 L 548.72 315.99 L 548.76 315.99 L 548.80 315.99 L 548.89 316.26 L 548.94 316.53 L 549.03 316.53 L 549.07 316.53 L 549.16 316.81 L 549.20 317.13 L 549.29 317.13 L 549.34 317.40 L 549.42 317.40 L 549.47 317.40 L 549.56 317.67 L 549.60 317.67 L 549.69 317.67 L 549.78 317.95 L 549.82 318.27 L 549.91 317.95 L 549.96 317.95 L 550.04 318.27 L 550.09 318.27 L 550.18 318.27 L 550.22 318.27 L 550.31 318.27 L 550.35 318.27 L 550.44 318.27 L 550.49 318.54 L 550.58 318.54 L 550.62 318.54 L 550.71 318.27 L 550.75 318.54 L 550.84 318.54 L 550.89 318.54 L 550.98 318.27 L 551.02 318.54 L 551.11 318.54 L 551.15 318.27 L 551.24 318.27 L 551.29 318.27 L 551.37 318.27 L 551.42 317.95 L 551.51 317.95 L 551.55 317.95 L 551.64 317.95 L 551.68 317.95 L 551.77 317.95 L 551.82 317.95 L 551.91 317.67 L 551.95 317.67 L 552.04 317.67 L 552.13 317.67 L 552.17 317.67 L 552.26 317.67 L 552.30 317.40 L 552.39 317.40 L 552.44 317.40 L 552.53 317.40 L 552.57 317.40 L 552.66 317.13 L 552.70 317.13 L 552.79 317.13 L 552.84 317.13 L 552.92 316.81 L 552.97 316.81 L 553.06 316.81 L 553.10 316.81 L 553.19 316.53 L 553.23 316.26 L 553.32 316.26 L 553.37 316.26 L 553.46 316.26 L 553.50 315.99 L 553.59 316.26 L 553.63 315.99 L 553.72 315.99 L 553.77 315.67 L 553.86 315.67 L 553.90 315.67 L 553.99 315.67 L 554.03 315.39 L 554.12 315.39 L 554.17 315.39 L 554.25 315.39 L 554.34 315.12 L 554.39 315.12 L 554.48 315.12 L 554.52 315.12 L 554.61 314.85 L 554.65 314.85 L 554.74 314.85 L 554.79 314.85 L 554.87 314.53 L 554.92 314.53 L 555.01 314.53 L 555.05 314.53 L 555.14 314.53 L 555.18 314.53 L 555.27 314.53 L 555.32 314.25 L 555.41 314.25 L 555.45 313.98 L 555.54 313.98 L 555.58 313.98 L 555.67 313.98 L 555.72 313.98 L 555.80 313.71 L 555.85 313.71 L 555.94 313.71 L 555.98 313.71 L 556.07 313.39 L 556.12 313.71 L 556.20 313.39 L 556.25 313.39 L 556.34 313.11 L 556.38 313.11 L 556.47 313.11 L 556.56 313.11 L 556.60 312.84 L 556.69 312.84 L 556.74 313.11 L 556.82 313.11 L 556.87 312.84 L 556.96 312.84 L 557.00 312.84 L 557.09 312.57 L 557.13 312.57 L 557.22 312.57 L 557.27 312.57 L 557.36 312.25 L 557.40 311.97 L 557.49 312.25 L 557.53 311.97 L 557.62 311.70 L 557.67 311.70 L 557.75 311.70 L 557.80 311.43 L 557.89 311.43 L 557.93 311.11 L 558.02 311.11 L 558.06 311.11 L 558.15 311.11 L 558.20 310.83 L 558.29 310.83 L 558.33 310.56 L 558.42 310.56 L 558.46 310.56 L 558.55 310.29 L 558.64 310.29 L 558.69 309.97 L 558.77 309.97 L 558.82 309.97 L 558.91 309.69 L 558.95 309.69 L 559.04 309.42 L 559.08 309.42 L 559.17 309.42 L 559.22 309.15 L 559.31 309.15 L 559.35 309.15 L 559.44 308.83 L 559.48 308.83 L 559.57 308.83 L 559.62 308.55 L 559.70 308.28 L 559.75 308.28 L 559.84 308.28 L 559.88 308.28 L 559.97 308.01 L 560.01 308.01 L 560.10 308.01 L 560.15 307.69 L 560.24 307.69 L 560.28 307.41 L 560.37 307.41 L 560.41 307.14 L 560.50 307.14 L 560.55 307.14 L 560.63 307.14 L 560.68 306.87 L 560.77 306.87 L 560.86 306.87 L 560.90 306.55 L 560.99 306.55 L 561.03 306.55 L 561.12 306.55 L 561.17 306.55 L 561.26 306.55 L 561.30 306.27 L 561.39 306.27 L 561.43 306.27 L 561.52 306.27 L 561.57 306.55 L 561.65 306.27 L 561.70 306.27 L 561.79 306.27 L 561.83 306.55 L 561.92 306.55 L 561.96 306.27 L 562.05 306.55 L 562.10 306.55 L 562.19 306.27 L 562.23 306.27 L 562.32 306.55 L 562.36 306.55 L 562.45 306.55 L 562.50 306.55 L 562.58 306.55 L 562.63 306.87 L 562.72 306.87 L 562.76 307.14 L 562.85 307.14 L 562.89 307.41 L 562.98 307.41 L 563.07 307.41 L 563.12 307.41 L 563.20 307.41 L 563.25 307.41 L 563.34 307.69 L 563.38 307.69 L 563.47 308.01 L 563.52 307.69 L 563.60 308.01 L 563.65 308.01 L 563.74 308.01 L 563.78 308.28 L 563.87 308.28 L 563.91 308.55 L 564.00 308.55 L 564.05 308.55 L 564.14 308.83 L 564.18 308.83 L 564.27 309.15 L 564.31 309.15 L 564.40 309.42 L 564.45 309.42 L 564.53 309.69 L 564.58 309.69 L 564.67 309.97 L 564.71 309.97 L 564.80 309.97 L 564.84 310.29 L 564.93 310.29 L 564.98 310.56 L 565.07 310.56 L 565.15 310.83 L 565.20 310.83 L 565.29 311.11 L 565.33 311.11 L 565.42 311.11 L 565.46 311.43 L 565.55 311.70 L 565.60 311.70 L 565.69 311.70 L 565.73 311.97 L 565.82 312.25 L 565.86 312.25 L 565.95 312.57 L 566.00 312.84 L 566.09 312.84 L 566.13 312.84 L 566.22 313.11 L 566.26 313.39 L 566.35 313.39 L 566.40 313.71 L 566.48 313.71 L 566.53 313.98 L 566.62 314.25 L 566.66 313.98 L 566.75 314.25 L 566.79 314.53 L 566.88 314.85 L 566.93 314.85 L 567.02 314.85 L 567.06 315.12 L 567.15 315.39 L 567.19 315.39 L 567.28 315.67 L 567.33 315.99 L 567.41 315.99 L 567.50 316.26 L 567.55 316.26 L 567.64 316.53 L 567.68 316.53 L 567.77 316.81 L 567.81 316.81 L 567.90 317.13 L 567.95 317.13 L 568.03 317.40 L 568.08 317.67 L 568.17 317.67 L 568.21 317.95 L 568.30 317.95 L 568.35 318.27 L 568.43 318.27 L 568.48 318.54 L 568.57 318.81 L 568.61 318.81 L 568.70 319.09 L 568.74 319.09 L 568.83 319.41 L 568.88 319.41 L 568.97 319.68 L 569.01 319.68 L 569.10 319.95 L 569.14 320.23 L 569.23 320.23 L 569.28 320.55 L 569.36 320.55 L 569.41 320.82 L 569.50 320.82 L 569.54 321.37 L 569.63 321.37 L 569.72 321.69 L 569.76 321.96 L 569.85 321.96 L 569.90 322.23 L 569.98 322.23 L 570.03 322.23 L 570.12 322.51 L 570.16 322.51 L 570.25 322.83 L 570.29 322.83 L 570.38 323.10 L 570.43 323.10 L 570.52 323.10 L 570.56 323.37 L 570.65 323.37 L 570.69 323.65 L 570.78 323.65 L 570.83 323.97 L 570.92 323.97 L 570.96 323.97 L 571.05 323.97 L 571.09 323.97 L 571.18 324.24 L 571.23 324.24 L 571.31 324.51 L 571.36 324.51 L 571.45 324.51 L 571.49 324.79 L 571.58 324.79 L 571.62 324.79 L 571.71 324.79 L 571.76 324.79 L 571.85 324.79 L 571.89 324.79 L 571.98 325.11 L 572.07 325.11 L 572.11 325.38 L 572.20 325.38 L 572.24 325.38 L 572.33 325.38 L 572.38 325.38 L 572.47 325.38 L 572.51 325.38 L 572.60 325.38 L 572.64 325.65 L 572.73 325.65 L 572.78 325.65 L 572.86 325.65 L 572.91 325.65 L 573.00 325.65 L 573.04 325.65 L 573.13 325.65 L 573.17 325.65 L 573.26 325.65 L 573.31 325.65 L 573.40 325.65 L 573.44 325.65 L 573.53 325.65 L 573.57 325.65 L 573.66 325.65 L 573.71 325.65 L 573.80 325.65 L 573.84 325.65 L 573.93 325.65 L 573.97 325.65 L 574.06 325.65 L 574.11 325.65 L 574.19 325.93 L 574.24 325.93 L 574.33 325.93 L 574.42 325.93 L 574.46 325.65 L 574.55 325.93 L 574.59 325.93 L 574.68 325.65 L 574.73 325.65 L 574.81 325.93 L 574.86 325.65 L 574.95 325.65 L 574.99 325.65 L 575.08 325.65 L 575.12 325.65 L 575.21 325.65 L 575.26 325.65 L 575.35 325.38 L 575.39 325.38 L 575.48 325.38 L 575.52 325.38 L 575.61 325.38 L 575.66 325.38 L 575.74 325.11 L 575.79 325.11 L 575.88 325.11 L 575.92 325.11 L 576.01 324.79 L 576.06 324.79 L 576.14 324.51 L 576.19 324.79 L 576.28 324.51 L 576.32 324.79 L 576.41 324.51 L 576.45 324.51 L 576.54 324.51 L 576.59 324.24 L 576.68 324.24 L 576.76 323.97 L 576.81 323.97 L 576.90 323.97 L 576.94 323.97 L 577.03 323.97 L 577.07 323.97 L 577.16 323.65 L 577.21 323.65 L 577.30 323.65 L 577.34 323.37 L 990.14 391.77 L 990.23 391.50 L 990.28 391.50 L 990.36 391.23 L 990.41 390.95 L 990.50 390.63 L 990.54 390.63 L 990.63 390.36 L 990.72 390.63 L 990.76 390.36 L 990.85 390.09 L 990.90 390.09 L 990.98 389.81 L 991.03 389.49 L 991.12 389.49 L 991.16 389.49 L 991.25 389.22 L 991.30 389.49 L 991.38 389.22 L 991.43 389.22 L 991.52 388.95 L 991.56 388.67 L 991.65 388.67 L 991.69 388.67 L 991.78 388.35 L 991.83 388.35 L 991.92 388.08 L 991.96 388.08 L 992.05 387.81 L 992.09 387.81 L 992.18 387.81 L 992.23 387.81 L 992.31 387.49 L 992.36 387.49 L 992.45 387.49 L 992.49 387.49 L 992.58 387.21 L 992.62 387.21 L 992.71 387.21 L 992.76 386.94 L 992.85 386.67 L 992.89 386.67 L 992.98 386.67 L 993.02 386.35 L 993.11 386.35 L 993.16 386.07 L 993.24 386.07 L 993.29 385.80 L 993.38 385.80 L 993.42 385.53 L 993.51 385.21 L 993.55 384.93 L 993.64 385.21 L 993.73 384.66 L 993.78 384.66 L 993.87 384.66 L 993.91 384.39 L 994.00 384.07 L 994.04 384.07 L 994.13 383.79 L 994.18 383.52 L 994.26 383.52 L 994.31 383.25 L 994.40 382.93 L 994.44 382.93 L 994.53 382.65 L 994.57 382.65 L 994.66 382.38 L 994.71 381.79 L 994.80 381.79 L 994.84 381.51 L 994.93 381.24 L 994.97 380.97 L 995.06 380.65 L 995.11 380.37 L 995.19 380.10 L 995.24 379.83 L 995.33 379.51 L 995.37 379.23 L 995.46 378.96 L 995.50 378.69 L 995.59 378.69 L 995.64 378.37 L 995.73 378.09 L 995.77 377.82 L 995.86 377.55 L 995.90 376.95 L 995.99 376.95 L 996.04 376.68 L 996.12 376.09 L 996.17 375.81 L 996.26 375.54 L 996.30 375.27 L 996.39 374.95 L 996.44 374.40 L 996.52 374.40 L 996.57 374.13 L 996.66 373.81 L 996.75 373.81 L 996.79 373.26 L 996.88 372.99 L 996.92 372.99 L 997.01 372.67 L 997.06 372.39 L 997.14 372.12 L 997.19 371.85 L 997.28 371.53 L 997.32 371.25 L 997.41 370.98 L 997.45 370.71 L 997.54 370.39 L 997.59 370.11 L 997.68 369.57 L 997.72 369.25 L 997.81 369.25 L 997.85 368.97 L 997.94 368.43 L 997.99 368.11 L 998.07 367.83 L 998.12 367.56 L 998.21 367.29 L 998.25 366.97 L 998.34 366.69 L 998.38 366.69 L 998.47 366.42 L 998.52 365.83 L 998.61 365.55 L 998.65 365.28 L 998.74 365.01 L 998.78 364.69 L 998.87 364.41 L 998.92 364.14 L 999.01 364.14 L 999.05 363.87 L 999.14 363.55 L 999.18 363.27 L 999.27 363.00 L 999.32 363.00 L 999.40 362.41 L 999.49 362.41 L 999.54 362.13 L 999.63 361.86 L 999.67 361.59 L 999.76 361.59 L 999.80 361.27 L 999.89 360.99 L 999.94 360.72 L 1000.02 360.45 L 1000.07 360.13 L 1000.16 359.85 L 1000.20 359.58 L 1000.29 359.31 L 1000.33 358.99 L 1000.42 358.71 L 1000.47 358.44 L 1000.56 358.17 L 1000.60 357.85 L 1000.69 357.57 L 1000.73 357.30 L 1000.82 357.30 L 1000.87 357.03 L 1000.95 356.43 L 1001.00 356.16 L 1001.09 355.89 L 1001.13 355.57 L 1001.22 355.29 L 1001.27 355.29 L 1001.35 354.75 L 1001.40 354.43 L 1001.49 354.43 L 1001.53 354.15 L 1001.62 353.88 L 1001.66 353.61 L 1001.75 353.29 L 1001.80 352.74 L 1001.89 352.47 L 1001.93 352.15 L 1002.02 352.15 L 1002.06 351.87 L 1002.15 351.60 L 1002.24 351.33 L 1002.28 351.01 L 1002.37 350.73 L 1002.42 350.46 L 1002.51 350.19 L 1002.55 349.87 L 1002.64 349.59 L 1002.68 349.32 L 1002.77 349.05 L 1002.82 348.73 L 1002.90 348.45 L 1002.95 347.91 L 1003.04 347.91 L 1003.08 347.59 L 1003.17 347.31 L 1003.21 347.04 L 1003.30 346.77 L 1003.35 346.45 L 1003.44 346.17 L 1003.48 345.90 L 1003.57 345.63 L 1003.61 345.31 L 1003.70 345.03 L 1003.75 344.76 L 1003.84 344.49 L 1003.88 344.17 L 1003.97 343.89 L 1004.01 343.62 L 1004.10 343.35 L 1004.15 343.03 L 1004.23 342.75 L 1004.28 342.48 L 1004.37 342.21 L 1004.41 341.89 L 1004.50 341.61 L 1004.54 341.34 L 1004.63 341.07 L 1004.72 340.75 L 1004.77 340.47 L 1004.85 340.20 L 1004.90 339.93 L 1004.99 339.61 L 1005.03 339.61 L 1005.12 339.33 L 1005.16 338.79 L 1005.25 338.47 L 1005.30 338.19 L 1005.39 337.92 L 1005.43 337.65 L 1005.52 337.33 L 1005.56 337.05 L 1005.65 336.78 L 1005.70 336.51 L 1005.78 336.19 L 1005.83 335.91 L 1005.92 335.91 L 1005.96 335.37 L 1006.05 335.05 L 1006.09 334.77 L 1006.18 334.50 L 1006.23 334.23 L 1006.32 333.91 L 1006.36 333.91 L 1006.45 333.36 L 1006.49 333.36 L 1006.58 333.09 L 1006.63 332.49 L 1006.72 332.22 L 1006.76 331.95 L 1006.85 331.63 L 1006.89 331.35 L 1006.98 331.08 L 1007.03 330.81 L 1007.11 330.81 L 1007.20 330.21 L 1007.25 330.21 L 1007.34 329.67 L 1007.38 329.35 L 1007.47 329.07 L 1007.51 329.07 L 1007.60 328.80 L 1007.65 328.53 L 1007.73 328.21 L 1007.78 327.93 L 1007.87 327.66 L 1007.91 327.66 L 1008.00 327.07 L 1008.04 326.79 L 1008.13 326.52 L 1008.18 326.52 L 1008.27 326.25 L 1008.31 325.93 L 1008.40 325.65 L 1008.44 325.38 L 1008.53 325.11 L 1008.58 324.79 L 1008.67 324.79 L 1008.71 324.24 L 1008.80 323.97 L 1008.84 323.65 L 1008.93 323.65 L 1008.98 323.37 L 1009.06 323.10 L 1009.11 322.83 L 1009.20 322.51 L 1009.24 322.23 L 1009.33 322.23 L 1009.37 321.96 L 1009.46 321.69 L 1009.55 321.37 L 1009.60 321.09 L 1009.68 321.09 L 1009.73 320.55 L 1009.82 320.55 L 1009.86 320.23 L 1009.95 319.95 L 1009.99 319.95 L 1010.08 319.68 L 1010.13 319.41 L 1010.22 319.09 L 1010.26 318.81 L 1010.35 318.54 L 1010.39 318.54 L 1010.48 318.27 L 1010.53 317.95 L 1010.61 317.67 L 1010.66 317.67 L 1010.75 317.40 L 1010.79 317.13 L 1010.88 316.81 L 1010.92 316.53 L 1011.01 316.26 L 1011.06 315.99 L 1011.15 315.99 L 1011.19 315.67 L 1011.28 315.67 L 1011.32 315.39 L 1011.41 315.12 L 1011.46 315.12 L 1011.55 314.53 L 1011.59 314.53 L 1011.68 314.25 L 1011.77 313.98 L 1011.81 313.98 L 1011.90 313.71 L 1011.94 313.39 L 1012.03 313.11 L 1012.08 313.11 L 1012.17 312.84 L 1012.21 312.57 L 1012.30 312.57 L 1012.34 312.25 L 1012.43 311.97 L 1012.48 311.70 L 1012.56 311.70 L 1012.61 311.43 L 1012.70 311.11 L 1012.74 311.11 L 1012.83 310.83 L 1012.87 310.56 L 1012.96 310.56 L 1013.01 310.29 L 1013.10 309.97 L 1013.14 309.69 L 1013.23 309.42 L 1013.27 309.42 L 1013.36 309.15 L 1013.41 309.15 L 1013.49 308.83 L 1013.54 308.55 L 1013.63 308.55 L 1013.67 308.28 L 1013.76 308.01 L 1013.81 308.01 L 1013.89 307.69 L 1013.98 307.41 L 1014.03 307.14 L 1014.12 307.14 L 1014.16 306.87 L 1014.25 306.87 L 1014.29 306.55 L 1014.38 306.55 L 1014.43 306.27 L 1014.51 306.00 L 1014.56 306.00 L 1014.65 305.73 L 1014.69 305.41 L 1014.78 305.13 L 1014.82 305.13 L 1014.91 305.13 L 1014.96 304.86 L 1015.05 304.86 L 1015.09 304.86 L 1015.18 304.59 L 1015.22 304.59 L 1015.31 304.27 L 1015.36 304.27 L 1015.44 303.99 L 1015.49 303.72 L 1015.58 303.45 L 1015.62 303.45 L 1015.71 303.13 L 1015.75 303.13 L 1015.84 302.85 L 1015.89 302.58 L 1015.98 302.58 L 1016.06 302.31 L 1016.11 302.31 L 1016.20 301.99 L 1016.24 301.71 L 1016.33 301.71 L 1016.38 301.71 L 1016.46 301.44 L 1016.51 301.17 L 1016.60 301.17 L 1016.64 300.85 L 1016.73 300.57 L 1016.77 300.57 L 1016.86 300.30 L 1016.91 300.30 L 1017.00 300.03 L 1017.04 299.71 L 1017.13 299.71 L 1017.17 299.43 L 1017.26 299.43 L 1017.31 299.16 L 1017.39 298.89 L 1017.44 298.89 L 1017.53 298.89 L 1017.57 298.57 L 1017.66 298.29 L 1017.70 298.29 L 1017.79 298.02 L 1017.84 297.75 L 1017.93 297.75 L 1017.97 297.43 L 1018.06 297.43 L 1018.15 297.15 L 1018.19 297.15 L 1018.28 296.88 L 1018.32 296.61 L 1018.41 296.61 L 1018.46 296.61 L 1018.55 296.29 L 1018.59 296.01 L 1018.68 296.01 L 1018.72 295.74 L 1018.81 295.74 L 1018.86 295.47 L 1018.95 295.47 L 1018.99 295.15 L 1019.08 295.15 L 1019.12 294.87 L 1019.21 294.87 L 1019.26 294.60 L 1019.34 294.60 L 1019.39 294.33 L 1023.51 294.01 L 1023.51 294.01 L 1023.51 294.01 L 1023.51 293.73 L 1023.51 293.73 L 1023.51 293.46 L 1023.51 293.19 L 1023.51 293.19 L 1023.51 292.87 L 1023.51 292.87 L 1023.51 292.87 L 1023.51 292.59 L 1023.51 292.59 L 1023.51 292.32 L 1023.51 292.32 L 1023.51 292.05 L 1023.51 292.05 L 1023.51 291.73 L 1023.51 291.73 L 1023.51 291.45 L 1023.51 291.18 L 1023.51 291.18 L 1023.51 290.91 L 1023.51 290.91 L 1023.51 290.59 L 1023.51 290.59 L 1023.51 290.31 L 1023.51 290.31 L 1023.55 290.31 L 1023.55 290.04 L 1023.55 290.04 L 1023.55 289.77 L 1023.55 289.45 L 1023.55 289.45 L 1023.55 289.17 L 1023.55 288.90 L 1023.55 288.90 L 1023.55 288.90 L 1023.55 288.90 L 1023.55 288.63 L 1023.55 288.63 L 1023.55 288.31 L 1023.55 288.31 L 1023.55 288.03 L 1023.55 288.03 L 1023.55 288.03 L 1023.55 287.76 L 1023.55 287.76 L 1023.55 287.76 L 1023.55 287.76 L 1023.55 287.49 L 1023.55 287.49 L 1023.55 287.17 L 1023.55 287.17 L 1023.55 286.89 L 1023.55 286.89 L 1023.55 286.89 L 1023.55 286.62 L 1023.55 286.62 L 1023.55 286.35 L 1023.55 286.35 L 1023.55 286.03 L 1023.64 286.03 L 1023.69 286.03 L 1023.95 285.75 L 1023.95 286.03 L 1023.95 285.75 L 1023.95 285.75 L 1024.04 285.48 L 1024.09 285.48 L 1024.17 285.21 L 1024.26 285.21 L 1024.31 285.21 L 1024.40 284.89 L 1024.44 284.61 L 1024.53 284.89 L 1024.57 284.61 L 1024.66 284.61 L 1024.71 284.34 L 1024.79 284.34 L 1024.84 284.07 L 1024.93 284.07 L 1024.97 283.75 L 1025.06 283.75 L 1025.10 283.47 L 1025.19 283.47 L 1025.24 283.47 L 1025.33 283.20 L 1025.37 283.20 L 1025.46 283.20 L 1025.50 282.93 L 1025.59 282.61 L 1025.64 282.93 L 1025.72 282.61 L 1025.77 282.33 L 1025.86 282.33 L 1025.90 282.06 L 1025.99 282.06 L 1026.04 282.06 L 1026.12 281.79 L 1026.21 281.47 L 1026.26 281.79 L 1026.35 281.47 L 1026.39 281.19 L 1026.48 281.19 L 1026.52 281.19 L 1026.61 280.92 L 1026.66 280.92 L 1026.74 280.65 L 1026.79 280.65 L 1026.88 280.65 L 1026.92 280.33 L 1027.01 280.33 L 1027.05 280.33 L 1027.14 280.05 L 1027.19 279.78 L 1027.28 279.78 L 1027.32 279.78 L 1027.41 279.78 L 1027.45 279.51 L 1027.54 279.51 L 1027.59 279.19 L 1027.67 279.19 L 1027.72 279.19 L 1027.81 278.91 L 1027.85 278.91 L 1027.94 278.64 L 1028.03 278.64 L 1028.07 278.64 L 1028.16 278.64 L 1028.21 278.37 L 1028.29 278.37 L 1028.34 278.37 L 1028.43 278.05 L 1028.47 278.05 L 1028.56 277.77 L 1028.61 277.77 L 1028.69 277.77 L 1028.74 277.50 L 1028.83 277.50 L 1028.87 277.50 L 1028.96 277.23 L 1029.00 277.23 L 1029.09 277.23 L 1029.14 277.23 L 1029.23 276.91 L 1029.27 276.91 L 1029.36 276.91 L 1029.40 276.63 L 1029.49 276.63 L 1029.54 276.63 L 1029.62 276.63 L 1029.67 276.36 L 1029.76 276.36 L 1029.80 276.36 L 1029.89 276.09 L 1029.98 276.09 L 1030.02 276.09 L 1030.11 275.77 L 1030.16 275.77 L 1030.24 275.77 L 1030.29 275.77 L 1030.38 275.49 L 1030.42 275.49 L 1030.51 275.22 L 1030.55 275.49 L 1030.64 275.22 L 1030.69 275.22 L 1030.78 275.22 L 1030.82 274.95 L 1030.91 274.95 L 1030.95 274.95 L 1031.04 274.63 L 1031.09 274.63 L 1031.18 274.63 L 1031.22 274.63 L 1031.31 274.63 L 1031.35 274.35 L 1031.44 274.35 L 1031.49 274.35 L 1031.57 274.35 L 1031.62 274.35 L 1031.71 274.08 L 1031.80 274.08 L 1031.84 273.81 L 1031.93 273.81 L 1031.97 273.81 L 1032.06 273.81 L 1032.11 273.49 L 1032.19 273.49 L 1032.24 273.49 L 1032.33 273.49 L 1032.37 273.49 L 1032.46 273.49 L 1032.50 273.21 L 1032.59 273.21 L 1032.64 273.21 L 1032.73 273.21 L 1032.77 273.21 L 1032.86 272.94 L 1032.90 272.94 L 1032.99 272.94 L 1033.04 272.94 L 1033.12 272.94 L 1033.17 272.94 L 1033.26 272.94 L 1033.30 272.67 L 1033.39 272.67 L 1033.43 272.94 L 1033.52 272.67 L 1033.57 272.67 L 1033.66 272.94 L 1033.75 272.94 L 1033.79 272.94 L 1033.88 272.94 L 1033.92 272.94 L 1034.01 272.94 L 1034.06 272.94 L 1034.14 272.94 L 1034.19 272.94 L 1034.28 272.94 L 1034.32 272.94 L 1034.41 273.21 L 1034.45 273.21 L 1034.54 273.21 L 1034.59 273.21 L 1034.68 273.49 L 1034.72 273.81 L 1034.81 273.81 L 1034.85 273.81 L 1034.94 273.81 L 1034.99 273.81 L 1035.07 273.81 L 1035.12 274.08 L 1035.21 274.08 L 1035.25 274.35 L 1035.34 274.35 L 1035.38 274.63 L 1035.47 274.63 L 1035.56 274.63 L 1035.61 274.95 L 1035.69 274.95 L 1035.74 275.22 L 1035.83 274.95 L 1035.87 275.22 L 1035.96 275.22 L 1036.01 275.22 L 1036.09 275.49 L 1036.14 275.49 L 1036.23 275.22 L 1036.27 275.49 L 1036.36 275.49 L 1036.40 275.49 L 1036.49 275.77 L 1036.54 275.77 L 1036.63 275.77 L 1036.67 275.77 L 1036.76 276.09 L 1036.80 276.09 L 1036.89 276.09 L 1036.94 276.09 L 1037.02 276.36 L 1037.07 276.36 L 1037.16 276.36 L 1037.20 276.36 L 1037.29 276.63 L 1037.33 276.63 L 1037.42 276.63 L 1037.51 276.91 L 1037.56 276.91 L 1037.64 277.23 L 1037.69 277.23 L 1037.78 277.23 L 1037.82 277.50 L 1037.91 277.50 L 1037.95 277.50 L 1038.04 277.77 L 1038.09 278.05 L 1038.18 278.05 L 1038.22 278.37 L 1038.31 278.37 L 1038.35 278.64 L 1038.44 278.64 L 1038.49 278.91 L 1038.58 278.91 L 1038.62 279.19 L 1038.71 279.19 L 1038.75 279.19 L 1038.84 279.51 L 1038.89 279.78 L 1038.97 280.05 L 1039.02 280.05 L 1039.11 280.33 L 1039.15 280.33 L 1039.24 280.65 L 1039.28 280.65 L 1039.37 280.92 L 1039.46 280.92 L 1039.51 281.19 L 1039.59 281.47 L 1039.64 281.79 L 1039.73 281.79 L 1039.77 282.06 L 1039.86 282.33 L 1039.90 282.61 L 1039.99 282.61 L 1040.04 282.93 L 1040.13 283.20 L 1040.17 283.47 L 1040.26 283.47 L 1040.30 283.75 L 1040.39 284.07 L 1040.44 284.34 L 1040.52 284.61 L 1040.57 284.61 L 1040.66 284.89 L 1040.70 285.21 L 1040.79 285.48 L 1040.83 285.75 L 1040.92 285.75 L 1040.97 286.03 L 1041.06 286.35 L 1041.10 286.62 L 1041.19 286.62 L 1041.23 286.89 L 1041.32 287.17 L 1041.41 287.17 L 1041.46 287.49 L 1041.54 287.76 L 1041.59 287.76 L 1041.68 288.03 L 1041.72 288.03 L 1041.81 288.31 L 1041.85 288.31 L 1041.94 288.63 L 1041.99 288.63 L 1042.08 288.90 L 1042.12 288.90 L 1042.21 289.17 L 1042.25 289.45 L 1042.34 289.45 L 1042.39 289.45 L 1042.47 289.77 L 1042.52 289.77 L 1042.61 289.77 L 1042.65 289.77 L 1042.74 290.04 L 1042.78 290.04 L 1042.87 290.31 L 1042.92 290.31 L 1043.01 290.31 L 1043.05 290.31 L 1043.14 290.31 L 1043.18 290.59 L 1043.27 290.59 L 1043.36 290.59 L 1043.40 290.91 L 1043.49 290.91 L 1043.54 290.91 L 1043.63 291.18 L 1043.67 291.18 L 1043.76 291.18 L 1043.80 291.18 L 1043.89 291.45 L 1043.94 291.45 L 1044.03 291.45 L 1044.07 291.45 L 1044.16 291.73 L 1044.20 291.73 L 1044.29 291.73 L 1044.34 291.73 L 1044.42 292.05 L 1044.47 292.05 L 1044.56 292.05 L 1044.60 292.05 L 1044.69 292.05 L 1044.73 292.05 L 1044.82 292.32 L 1044.87 292.32 L 1044.96 292.32 L 1045.00 292.32 L 1045.09 292.32 L 1045.13 292.32 L 1045.22 292.32 L 1045.27 292.59 L 1045.35 292.32 L 1045.44 292.59 L 1045.49 292.32 L 1045.58 292.59 L 1045.62 292.59 L 1045.71 292.59 L 1045.75 292.59 L 1045.84 292.59 L 1045.89 292.59 L 1045.98 292.59 L 1046.02 292.59 L 1046.11 292.59 L 1046.15 292.59 L 1046.24 292.59 L 1046.29 292.59 L 1046.37 292.59 L 1046.42 292.59 L 1046.51 292.59 L 1046.55 292.59 L 1046.64 292.59 L 1046.68 292.59 L 1046.77 292.59 L 1046.82 292.32 L 1046.91 292.32 L 1046.95 292.59 L 1047.04 292.32 L 1047.08 292.32 L 1047.17 292.32 L 1047.22 292.32 L 1047.30 292.32 L 1047.39 292.32 L 1047.44 292.32 L 1047.53 292.32 L 1047.57 292.32 L 1047.66 292.32 L 1047.70 292.32 L 1047.79 292.32 L 1047.84 292.05 L 1047.92 292.05 L 1047.97 292.32 L 1048.06 292.05 L 1048.10 292.05 L 1048.19 292.05 L 1048.23 292.05 L 1048.32 292.05 L 1048.37 291.73 L 1048.46 292.05 L 1048.50 292.05 L 1048.59 292.05 L 1048.63 292.05 L 1048.72 292.05 L 1048.77 292.05 L 1048.86 292.05 L 1048.90 291.73 L 1048.99 291.73 L 1049.03 291.73 L 1049.12 291.73 L 1049.17 291.73 L 1049.25 291.45 L 1049.30 291.45 L 1049.39 291.45 L 1049.48 291.45 L 1049.52 291.45 L 1049.61 291.45 L 1049.65 291.45 L 1049.74 291.45 L 1049.79 291.45 L 1049.87 291.18 L 1049.92 291.18 L 1050.01 291.18 L 1050.05 291.18 L 1050.14 291.18 L 1050.18 291.18 L 1050.27 290.91 L 1050.32 290.91 L 1050.41 290.91 L 1050.45 290.91 L 1050.54 290.59 L 1050.58 290.59 L 1050.67 290.59 L 1050.72 290.59 L 1050.80 290.59 L 1050.85 290.31 L 1050.94 290.31 L 1050.98 290.31 L 1051.07 290.31 L 1051.12 290.31 L 1051.20 290.04 L 1051.25 290.04 L 1051.34 290.04 L 1051.43 289.77 L 1051.47 290.04 L 1051.56 289.77 L 1051.60 289.77 L 1051.69 289.77 L 1051.74 289.45 L 1051.82 289.77 L 1051.87 289.77 L 1051.96 289.45 L 1052.00 289.45 L 1052.09 289.45 L 1052.13 289.45 L 1052.22 289.17 L 1052.27 289.45 L 1052.36 289.17 L 1052.40 289.17 L 1052.49 289.17 L 1052.53 289.17 L 1052.62 288.90 L 1052.67 288.90 L 1052.75 288.90 L 1052.80 288.63 L 1052.89 288.63 L 1052.93 288.63 L 1053.02 288.31 L 1053.06 288.31 L 1053.15 288.31 L 1053.20 288.31 L 1053.29 288.31 L 1053.33 288.31 L 1053.42 288.31 L 1053.51 288.03 L 1053.55 287.76 L 1053.64 287.76 L 1053.69 287.76 L 1053.77 287.76 L 1053.82 287.49 L 1053.91 287.49 L 1053.95 287.49 L 1054.04 287.49 L 1054.08 287.17 L 1054.17 287.17 L 1054.22 286.89 L 1054.31 286.89 L 1054.35 286.89 L 1054.44 286.89 L 1054.48 286.62 L 1054.57 286.62 L 1054.62 286.62 L 1054.70 286.62 L 1054.75 286.62 L 1054.84 286.35 L 1054.88 286.35 L 1054.97 286.03 L 1055.01 286.03 L 1055.10 286.03 L 1055.15 286.03 L 1055.24 286.03 L 1055.28 285.75 L 1055.37 285.75 L 1055.46 285.75 L 1055.50 285.48 L 1055.59 285.48 L 1055.63 285.48 L 1055.72 285.48 L 1055.77 285.21 L 1055.86 285.21 L 1055.90 285.21 L 1055.99 285.21 L 1056.03 285.21 L 1056.12 284.89 L 1056.17 284.89 L 1056.26 284.89 L 1056.30 284.89 L 1056.39 284.89 L 1056.43 284.89 L 1056.52 284.61 L 1056.57 284.61 L 1056.65 284.61 L 1056.70 284.61 L 1056.79 284.34 L 1056.83 284.34 L 1056.92 284.34 L 1056.96 284.34 L 1057.05 284.34 L 1057.10 284.07 L 1057.19 284.07 L 1057.23 284.07 L 1057.32 284.07 L 1057.41 283.75 L 1057.45 283.75 L 1057.54 283.75 L 1057.58 283.75 L 1057.67 283.47 L 1057.72 283.47 L 1057.81 283.47 L 1057.85 283.47 L 1057.94 283.20 L 1057.98 283.20 L 1058.07 283.20 L 1058.12 283.20 L 1058.20 283.20 L 1058.25 282.93 L 1058.34 282.93 L 1058.38 282.93 L 1058.47 282.93 L 1058.52 282.61 L 1058.60 282.61 L 1058.65 282.61 L 1058.74 282.61 L 1058.78 282.61 L 1058.87 282.33 L 1058.91 282.33 L 1059.00 282.33 L 1059.05 282.06 L 1059.14 282.06 L 1059.18 282.06 L 1059.27 281.79 L 1059.36 282.06 L 1059.40 281.79 L 1059.49 281.79 L 1059.53 281.79 L 1059.62 281.47 L 1059.67 281.47 L 1059.76 281.47 L 1059.80 281.47 L 1059.89 281.47 L 1059.93 281.19 L 1060.02 281.19 L 1060.07 281.19 L 1060.15 281.19 L 1060.20 281.19 L 1060.29 281.19 L 1060.33 281.19 L 1060.42 281.19 L 1060.46 280.92 L 1060.55 281.19 L 1060.60 281.19 L 1060.69 281.19 L 1060.73 281.19 L 1060.82 280.92 L 1060.86 280.92 L 1060.95 281.19 L 1061.00 280.92 L 1061.09 280.92 L 1061.13 280.92 L 1061.22 280.92 L 1061.31 280.92 L 1061.35 280.92 L 1061.44 280.92 L 1061.48 280.92 L 1061.57 280.92 L 1061.62 280.92 L 1061.71 280.92 L 1061.75 280.92 L 1061.84 280.65 L 1061.88 280.92 L 1061.97 280.92 L 1062.02 280.92 L 1062.10 280.92 L 1062.15 280.92 L 1062.24 280.92 L 1062.28 280.92 L 1062.37 280.92 L 1062.41 280.65 L 1062.50 280.65 L 1062.55 280.65 L 1062.64 280.65 L 1062.68 280.92 L 1062.77 280.65 L 1062.81 280.65 L 1062.90 280.65 L 1062.95 280.65 L 1063.03 280.65 L 1063.08 280.33 L 1063.17 280.65 L 1063.26 280.33 L 1063.30 280.33 L 1063.39 280.33 L 1063.43 280.05 L 1063.52 280.05 L 1063.57 280.05 L 1063.66 280.05 L 1063.70 280.05 L 1063.79 280.05 L 1063.83 280.05 L 1063.92 280.05 L 1063.97 280.05 L 1064.05 280.05 L 1064.10 279.78 L 1064.19 280.05 L 1064.23 280.05 L 1064.32 280.05 L 1064.36 280.05 L 1064.45 280.05 L 1064.50 280.05 L 1064.59 280.05 L 1064.63 279.78 L 1064.72 280.05 L 1064.76 279.78 L 1064.85 280.05 L 1064.90 280.05 L 1064.98 280.05 L 1065.07 280.33 L 1065.12 280.33 L 1065.21 280.33 L 1065.25 280.33 L 1065.34 280.33 L 1065.38 280.33 L 1065.47 280.33 L 1065.52 280.33 L 1065.60 280.33 L 1065.65 280.33 L 1065.74 280.33 L 1065.78 280.33 L 1065.87 280.33 L 1065.92 280.33 L 1066.00 280.33 L 1066.05 280.33 L 1066.14 280.33 L 1066.18 280.33 L 1066.27 280.65 L 1066.31 280.65 L 1066.40 280.33 L 1066.45 280.92 L 1066.54 280.65 L 1066.58 280.65 L 1066.67 280.92 L 1066.71 280.92 L 1066.80 280.92 L 1066.85 280.92 L 1066.93 280.92 L 1067.02 280.92 L 1067.07 280.92 L 1067.16 280.92 L 1067.20 280.92 L 1067.29 280.92 L 1067.33 281.19 L 1067.42 281.19 L 1067.47 281.19 L 1067.55 281.19 L 1067.60 281.47 L 1067.69 281.47 L 1067.73 281.47 L 1067.82 281.47 L 1067.86 281.47 L 1067.95 281.47 L 1068.00 281.79 L 1068.09 281.79 L 1068.13 281.79 L 1068.22 281.79 L 1068.26 281.79 L 1068.35 281.79 L 1068.40 282.06 L 1068.49 282.06 L 1068.53 282.06 L 1068.62 282.33 L 1068.66 282.06 L 1068.75 282.33 L 1068.80 282.33 L 1068.88 282.33 L 1068.97 282.61 L 1069.02 282.61 L 1069.11 282.61 L 1069.15 282.61 L 1069.24 282.93 L 1069.28 282.93 L 1069.37 282.93 L 1069.42 283.20 L 1069.50 283.20 L 1069.55 283.20 L 1069.64 283.47 L 1069.68 283.47 L 1069.77 283.47 L 1069.81 283.47 L 1069.90 283.75 L 1069.95 283.75 L 1070.04 284.07 L 1070.08 284.07 L 1070.17 284.07 L 1070.21 284.34 L 1070.30 284.34 L 1070.35 284.34 L 1070.43 284.34 L 1070.48 284.34 L 1070.57 284.61 L 1070.61 284.61 L 1070.70 284.61 L 1070.74 284.89 L 1070.83 284.89 L 1070.92 284.89 L 1070.97 285.21 L 1071.06 285.21 L 1071.10 285.21 L 1071.19 285.21 L 1071.23 285.48 L 1071.32 285.48 L 1071.37 285.75 L 1071.45 285.75 L 1071.50 285.75 L 1071.59 286.03 L 1071.63 286.03 L 1071.72 286.03 L 1071.76 286.35 L 1071.85 286.35 L 1071.90 286.35 L 1071.99 286.62 L 1072.03 286.62 L 1072.12 286.62 L 1072.16 286.62 L 1072.25 286.89 L 1072.30 286.89 L 1072.38 286.89 L 1072.43 287.17 L 1072.52 287.17 L 1072.56 287.17 L 1072.65 287.49 L 1072.69 287.49 L 1072.78 287.49 L 1072.87 287.76 L 1072.92 287.76 L 1073.00 287.76 L 1073.05 287.76 L 1073.14 288.03 L 1073.18 288.03 L 1073.27 288.03 L 1073.32 288.31 L 1073.40 288.31 L 1073.45 288.31 L 1073.54 288.31 L 1073.58 288.63 L 1073.67 288.63 L 1073.71 288.63 L 1073.80 288.90 L 1073.85 288.90 L 1073.94 288.90 L 1073.98 288.90 L 1074.07 289.17 L 1074.11 289.17 L 1074.20 289.17 L 1074.25 289.17 L 1074.33 289.45 L 1074.38 289.45 L 1074.47 289.45 L 1074.51 289.77 L 1074.60 289.77 L 1074.64 290.04 L 1074.73 289.77 L 1074.78 290.04 L 1074.87 290.04 L 1074.95 290.04 L 1075.00 290.31 L 1075.09 290.31 L 1075.13 290.31 L 1075.22 290.59 L 1075.26 290.59 L 1075.35 290.59 L 1075.40 290.91 L 1075.49 290.91 L 1075.53 290.91 L 1075.62 290.91 L 1075.66 290.91 L 1075.75 291.18 L 1075.80 291.18 L 1075.89 291.18 L 1075.93 291.45 L 1076.02 291.45 L 1076.06 291.73 L 1076.15 291.73 L 1076.20 291.73 L 1076.28 292.05 L 1076.33 292.05 L 1076.42 292.05 L 1076.46 292.32 L 1076.55 292.32 L 1076.59 292.32 L 1076.68 292.59 L 1076.73 292.59 L 1076.82 292.59 L 1076.90 293.19 L 1076.95 292.87 L 1077.04 293.19 L 1077.08 293.19 L 1077.17 293.19 L 1077.21 293.46 L 1077.30 293.73 L 1077.35 293.73 L 1077.44 293.73 L 1077.48 293.73 L 1077.57 294.01 L 1077.61 294.01 L 1077.70 294.01 L 1077.75 294.33 L 1077.83 294.33 L 1077.88 294.60 L 1077.97 294.60 L 1078.01 294.87 L 1078.10 294.87 L 1078.14 294.87 L 1078.23 295.15 L 1078.28 295.47 L 1078.37 295.47 L 1078.41 295.74 L 1078.50 295.74 L 1078.54 295.74 L 1078.63 295.74 L 1078.68 296.01 L 1078.77 296.01 L 1078.81 296.01 L 1078.90 296.29 L 1078.99 296.29 L 1079.03 296.61 L 1079.12 296.61 L 1079.16 296.61 L 1079.25 296.88 L 1079.30 297.15 L 1079.39 297.15 L 1079.43 297.43 L 1079.52 297.43 L 1079.56 297.75 L 1079.65 297.75 L 1079.70 298.02 L 1079.78 298.02 L 1079.83 298.02 L 1079.92 298.29 L 1079.96 298.57 L 1080.05 298.57 L 1080.09 298.89 L 1080.18 299.16 L 1080.23 299.16 L 1080.32 299.43 L 1080.36 299.43 L 1080.45 299.71 L 1080.49 299.71 L 1080.58 300.03 L 1080.63 300.30 L 1080.71 300.57 L 1080.76 300.57 L 1080.85 300.85 L 1080.89 300.85 L 1080.98 301.17 L 1081.07 301.44 L 1081.11 301.44 L 1081.20 301.71 L 1081.25 301.99 L 1081.34 302.31 L 1081.38 302.58 L 1081.47 302.85 L 1081.51 303.13 L 1081.60 303.45 L 1081.65 303.45 L 1081.73 303.72 L 1081.78 303.99 L 1081.87 304.27 L 1081.91 304.27 L 1082.00 304.59" fill="none" stroke="#ef4444" stroke-width="2.7"/>
<text x="560.0" y="602" text-anchor="middle" font-family="Arial, sans-serif" font-size="13" fill="#475569">Wall Clock Time</text>
<text transform="translate(25 306.0) rotate(-90)" text-anchor="middle" font-family="Arial, sans-serif" font-size="13" fill="#475569">Temperature (C)</text>
<rect x="727" y="96" width="335" height="54" rx="8" fill="#ffffff" stroke="#cbd5e1"/>
<line x1="745" y1="121" x2="785" y2="121" stroke="#ef4444" stroke-width="2.8"/>
<text x="797" y="126" font-family="Arial, sans-serif" font-size="13" fill="#1e293b">Measured Temperature</text>
</svg>