<svg xmlns="http://www.w3.org/2000/svg" width="1120" height="620" viewBox="0 0 1120 620">
<rect width="100%" height="100%" fill="#f8fafc"/>
<rect x="92" y="78" width="990" height="456" fill="#ffffff" stroke="#cbd5e1"/>
<text x="560.0" y="34" text-anchor="middle" font-family="Arial, sans-serif" font-size="21" font-weight="700" fill="#1e293b">Power Output - 36 deg Tilt - Afternoon Session - 20260623</text>
<text x="560.0" y="58" text-anchor="middle" font-family="Arial, sans-serif" font-size="12" fill="#475569">693 readings from 16:26:25 to 16:43:51</text>
<line x1="92" y1="534.00" x2="1082" y2="534.00" stroke="#cbd5e1" stroke-dasharray="5 5" opacity="0.75"/>
<text x="80" y="538.00" text-anchor="end" font-family="Arial, sans-serif" font-size="12" fill="#475569">0.000</text>
<line x1="92" y1="442.80" x2="1082" y2="442.80" stroke="#cbd5e1" stroke-dasharray="5 5" opacity="0.75"/>
<text x="80" y="446.80" text-anchor="end" font-family="Arial, sans-serif" font-size="12" fill="#475569">0.004</text>
<line x1="92" y1="351.60" x2="1082" y2="351.60" stroke="#cbd5e1" stroke-dasharray="5 5" opacity="0.75"/>
<text x="80" y="355.60" text-anchor="end" font-family="Arial, sans-serif" font-size="12" fill="#475569">0.008</text>
<line x1="92" y1="260.40" x2="1082" y2="260.40" stroke="#cbd5e1" stroke-dasharray="5 5" opacity="0.75"/>
<text x="80" y="264.40" text-anchor="end" font-family="Arial, sans-serif" font-size="12" fill="#475569">0.012</text>
<line x1="92" y1="169.20" x2="1082" y2="169.20" stroke="#cbd5e1" stroke-dasharray="5 5" opacity="0.75"/>
<text x="80" y="173.20" text-anchor="end" font-family="Arial, sans-serif" font-size="12" fill="#475569">0.016</text>
<line x1="92" y1="78.00" x2="1082" y2="78.00" stroke="#cbd5e1" stroke-dasharray="5 5" opacity="0.75"/>
<text x="80" y="82.00" text-anchor="end" font-family="Arial, sans-serif" font-size="12" fill="#475569">0.020</text>
<line x1="92.00" y1="78" x2="92.00" y2="534" stroke="#e2e8f0" stroke-dasharray="4 6"/>
<text x="92.00" y="568" text-anchor="middle" font-family="Arial, sans-serif" font-size="12" fill="#475569">16:26:25</text>
<line x1="257.00" y1="78" x2="257.00" y2="534" stroke="#e2e8f0" stroke-dasharray="4 6"/>
<text x="257.00" y="568" text-anchor="middle" font-family="Arial, sans-serif" font-size="12" fill="#475569">16:29:19</text>
<line x1="422.00" y1="78" x2="422.00" y2="534" stroke="#e2e8f0" stroke-dasharray="4 6"/>
<text x="422.00" y="568" text-anchor="middle" font-family="Arial, sans-serif" font-size="12" fill="#475569">16:32:13</text>
<line x1="587.00" y1="78" x2="587.00" y2="534" stroke="#e2e8f0" stroke-dasharray="4 6"/>
<text x="587.00" y="568" text-anchor="middle" font-family="Arial, sans-serif" font-size="12" fill="#475569">16:35:08</text>
<line x1="752.00" y1="78" x2="752.00" y2="534" stroke="#e2e8f0" stroke-dasharray="4 6"/>
<text x="752.00" y="568" text-anchor="middle" font-family="Arial, sans-serif" font-size="12" fill="#475569">16:38:02</text>
<line x1="917.00" y1="78" x2="917.00" y2="534" stroke="#e2e8f0" stroke-dasharray="4 6"/>
<text x="917.00" y="568" text-anchor="middle" font-family="Arial, sans-serif" font-size="12" fill="#475569">16:40:56</text>
<line x1="1082.00" y1="78" x2="1082.00" y2="534" stroke="#e2e8f0" stroke-dasharray="4 6"/>
<text x="1082.00" y="568" text-anchor="middle" font-family="Arial, sans-serif" font-size="12" fill="#475569">16:43:51</text>
<path d="M 92.00 214.80 L 93.89 214.80 L 94.84 214.80 L 96.73 214.80 L 97.68 214.80 L 99.57 214.80 L 100.52 214.80 L 102.41 214.80 L 103.36 214.80 L 105.25 214.80 L 106.20 214.80 L 108.09 214.80 L 109.04 214.80 L 110.93 214.80 L 111.88 214.80 L 113.77 214.80 L 114.72 214.80 L 116.61 214.80 L 117.55 214.80 L 119.45 214.80 L 120.39 214.80 L 122.29 214.80 L 123.23 214.80 L 125.13 214.80 L 126.07 214.80 L 127.97 214.80 L 128.91 214.80 L 130.80 214.80 L 131.75 214.80 L 133.64 214.80 L 134.59 214.80 L 136.48 214.80 L 137.43 214.80 L 139.32 214.80 L 141.22 214.80 L 142.16 214.80 L 144.06 306.00 L 145.00 306.00 L 146.89 306.00 L 147.84 306.00 L 149.73 306.00 L 150.68 397.20 L 152.57 397.20 L 153.52 397.20 L 155.41 397.20 L 156.36 397.20 L 158.25 397.20 L 159.20 397.20 L 161.09 306.00 L 162.04 306.00 L 163.93 306.00 L 164.88 214.80 L 166.77 214.80 L 167.72 214.80 L 169.61 214.80 L 170.56 306.00 L 172.45 306.00 L 173.40 397.20 L 175.29 397.20 L 176.24 397.20 L 178.13 442.80 L 179.07 442.80 L 180.97 442.80 L 181.91 442.80 L 183.81 442.80 L 184.75 442.80 L 186.65 442.80 L 187.59 442.80 L 189.49 442.80 L 190.43 442.80 L 192.33 442.80 L 193.27 442.80 L 195.16 442.80 L 196.11 442.80 L 198.00 442.80 L 198.95 442.80 L 200.84 442.80 L 201.79 442.80 L 203.68 442.80 L 204.63 442.80 L 206.52 442.80 L 208.41 442.80 L 209.36 442.80 L 211.25 442.80 L 212.20 442.80 L 214.09 442.80 L 215.04 442.80 L 216.93 442.80 L 217.88 442.80 L 219.77 442.80 L 220.72 442.80 L 222.61 442.80 L 223.56 442.80 L 225.45 442.80 L 226.40 442.80 L 228.29 442.80 L 229.24 442.80 L 231.13 442.80 L 232.08 442.80 L 233.97 442.80 L 234.92 397.20 L 236.81 397.20 L 237.76 397.20 L 239.65 397.20 L 240.59 397.20 L 242.49 397.20 L 243.43 306.00 L 245.33 306.00 L 246.27 306.00 L 248.17 306.00 L 249.11 306.00 L 251.01 306.00 L 251.95 306.00 L 253.85 306.00 L 254.79 306.00 L 256.68 306.00 L 257.63 306.00 L 259.52 306.00 L 260.47 306.00 L 262.36 306.00 L 263.31 306.00 L 265.20 306.00 L 266.15 306.00 L 268.04 306.00 L 268.99 306.00 L 270.88 306.00 L 272.77 306.00 L 273.72 306.00 L 275.61 306.00 L 276.56 306.00 L 278.45 306.00 L 279.40 306.00 L 281.29 306.00 L 282.24 306.00 L 284.13 306.00 L 285.08 306.00 L 286.97 306.00 L 287.92 306.00 L 289.81 306.00 L 290.76 306.00 L 292.65 306.00 L 293.60 306.00 L 295.49 306.00 L 296.44 306.00 L 298.33 306.00 L 299.28 306.00 L 301.17 306.00 L 302.11 306.00 L 304.01 306.00 L 304.95 306.00 L 306.85 306.00 L 307.79 214.80 L 309.69 214.80 L 310.63 214.80 L 312.53 169.20 L 313.47 169.20 L 315.37 169.20 L 316.31 169.20 L 318.20 169.20 L 319.15 214.80 L 321.04 214.80 L 321.99 214.80 L 323.88 214.80 L 324.83 214.80 L 326.72 214.80 L 327.67 214.80 L 329.56 214.80 L 330.51 214.80 L 332.40 214.80 L 333.35 214.80 L 335.24 214.80 L 337.13 214.80 L 338.08 214.80 L 339.97 214.80 L 340.92 214.80 L 342.81 214.80 L 343.76 214.80 L 345.65 214.80 L 346.60 306.00 L 348.49 397.20 L 349.44 397.20 L 351.33 397.20 L 352.28 397.20 L 354.17 397.20 L 355.12 397.20 L 357.01 306.00 L 357.96 306.00 L 359.85 306.00 L 360.80 397.20 L 362.69 397.20 L 363.63 397.20 L 365.53 397.20 L 366.47 306.00 L 368.37 306.00 L 369.31 397.20 L 371.21 397.20 L 372.15 397.20 L 374.05 442.80 L 374.99 442.80 L 376.89 442.80 L 377.83 442.80 L 379.72 442.80 L 380.67 442.80 L 382.56 442.80 L 383.51 442.80 L 385.40 442.80 L 386.35 442.80 L 388.24 442.80 L 389.19 442.80 L 391.08 442.80 L 392.03 442.80 L 393.92 442.80 L 394.87 442.80 L 396.76 442.80 L 397.71 442.80 L 399.60 442.80 L 401.49 442.80 L 402.44 442.80 L 404.33 442.80 L 405.28 442.80 L 407.17 442.80 L 408.12 442.80 L 410.01 442.80 L 410.96 442.80 L 412.85 442.80 L 413.80 442.80 L 415.69 442.80 L 416.64 442.80 L 418.53 442.80 L 419.48 442.80 L 421.37 442.80 L 422.32 442.80 L 424.21 442.80 L 425.15 442.80 L 427.05 442.80 L 427.99 442.80 L 429.89 442.80 L 430.83 442.80 L 432.73 442.80 L 433.67 442.80 L 435.57 442.80 L 436.51 442.80 L 438.41 442.80 L 439.35 442.80 L 441.24 442.80 L 442.19 442.80 L 444.08 442.80 L 445.03 442.80 L 446.92 442.80 L 447.87 442.80 L 449.76 442.80 L 450.71 442.80 L 452.60 442.80 L 453.55 442.80 L 455.44 442.80 L 456.39 442.80 L 458.28 442.80 L 459.23 442.80 L 461.12 442.80 L 463.01 442.80 L 463.96 442.80 L 465.85 442.80 L 466.80 442.80 L 468.69 442.80 L 469.64 442.80 L 471.53 442.80 L 472.48 442.80 L 474.37 442.80 L 475.32 442.80 L 477.21 442.80 L 478.16 442.80 L 480.05 442.80 L 481.00 534.00 L 482.89 442.80 L 483.84 442.80 L 485.73 442.80 L 486.67 442.80 L 488.57 442.80 L 489.51 442.80 L 491.41 442.80 L 492.35 442.80 L 494.25 442.80 L 495.19 442.80 L 497.09 442.80 L 498.03 442.80 L 499.93 442.80 L 500.87 442.80 L 502.76 442.80 L 503.71 442.80 L 505.60 442.80 L 506.55 442.80 L 508.44 442.80 L 509.39 442.80 L 511.28 442.80 L 512.23 442.80 L 514.12 442.80 L 515.07 442.80 L 516.96 442.80 L 517.91 442.80 L 519.80 442.80 L 520.75 442.80 L 522.64 442.80 L 524.53 442.80 L 525.48 442.80 L 527.37 442.80 L 528.32 442.80 L 530.21 442.80 L 531.16 442.80 L 533.05 442.80 L 534.00 442.80 L 535.89 442.80 L 536.84 442.80 L 538.73 442.80 L 539.68 442.80 L 541.57 442.80 L 542.52 442.80 L 544.41 442.80 L 545.36 442.80 L 547.25 442.80 L 548.20 442.80 L 550.09 442.80 L 551.03 442.80 L 552.93 442.80 L 553.87 442.80 L 555.77 442.80 L 556.71 442.80 L 558.61 397.20 L 559.55 397.20 L 561.45 397.20 L 562.39 397.20 L 564.28 397.20 L 565.23 397.20 L 567.12 397.20 L 568.07 397.20 L 569.96 397.20 L 570.91 397.20 L 572.80 397.20 L 573.75 397.20 L 575.64 397.20 L 576.59 397.20 L 578.48 397.20 L 579.43 397.20 L 581.32 397.20 L 582.27 397.20 L 584.16 397.20 L 585.11 397.20 L 587.00 397.20 L 588.89 397.20 L 589.84 397.20 L 591.73 397.20 L 592.68 397.20 L 594.57 397.20 L 595.52 397.20 L 597.41 397.20 L 598.36 397.20 L 600.25 397.20 L 601.20 397.20 L 603.09 397.20 L 604.04 397.20 L 605.93 397.20 L 606.88 397.20 L 608.77 397.20 L 609.72 397.20 L 611.61 397.20 L 612.55 397.20 L 614.45 442.80 L 615.39 442.80 L 617.29 442.80 L 618.23 442.80 L 620.13 442.80 L 621.07 442.80 L 622.97 442.80 L 623.91 442.80 L 625.80 442.80 L 626.75 442.80 L 628.64 442.80 L 629.59 442.80 L 631.48 442.80 L 632.43 442.80 L 634.32 442.80 L 635.27 442.80 L 637.16 442.80 L 638.11 442.80 L 640.00 442.80 L 640.95 442.80 L 642.84 442.80 L 643.79 442.80 L 645.68 442.80 L 646.63 442.80 L 648.52 442.80 L 650.41 442.80 L 651.36 442.80 L 653.25 442.80 L 654.20 442.80 L 656.09 442.80 L 657.04 442.80 L 658.93 442.80 L 659.88 442.80 L 661.77 442.80 L 662.72 442.80 L 664.61 442.80 L 665.56 442.80 L 667.45 442.80 L 668.40 442.80 L 670.29 442.80 L 671.24 442.80 L 673.13 442.80 L 674.07 442.80 L 675.97 442.80 L 676.91 442.80 L 678.81 442.80 L 679.75 442.80 L 681.65 442.80 L 682.59 442.80 L 684.49 442.80 L 685.43 442.80 L 687.33 442.80 L 688.27 442.80 L 690.16 442.80 L 691.11 442.80 L 693.00 442.80 L 693.95 442.80 L 695.84 442.80 L 696.79 442.80 L 698.68 442.80 L 699.63 442.80 L 701.52 442.80 L 702.47 442.80 L 704.36 442.80 L 705.31 442.80 L 707.20 442.80 L 708.15 442.80 L 710.04 442.80 L 711.93 442.80 L 712.88 442.80 L 714.77 442.80 L 715.72 442.80 L 717.61 442.80 L 718.56 442.80 L 720.45 442.80 L 721.40 442.80 L 723.29 442.80 L 724.24 442.80 L 726.13 442.80 L 727.08 442.80 L 728.97 442.80 L 729.92 442.80 L 731.81 442.80 L 732.76 442.80 L 734.65 442.80 L 735.59 442.80 L 737.49 442.80 L 738.43 442.80 L 740.33 442.80 L 741.27 442.80 L 743.17 442.80 L 744.11 442.80 L 746.01 442.80 L 746.95 442.80 L 748.85 397.20 L 749.79 397.20 L 751.68 397.20 L 752.63 397.20 L 754.52 397.20 L 755.47 397.20 L 757.36 397.20 L 758.31 397.20 L 760.20 397.20 L 761.15 397.20 L 763.04 397.20 L 763.99 397.20 L 765.88 397.20 L 766.83 397.20 L 768.72 442.80 L 769.67 442.80 L 771.56 442.80 L 772.51 442.80 L 774.40 442.80 L 776.29 442.80 L 777.24 442.80 L 779.13 442.80 L 780.08 442.80 L 781.97 397.20 L 782.92 397.20 L 784.81 397.20 L 785.76 397.20 L 787.65 397.20 L 788.60 397.20 L 790.49 397.20 L 791.44 397.20 L 793.33 397.20 L 794.28 397.20 L 796.17 397.20 L 797.11 397.20 L 799.01 397.20 L 799.95 397.20 L 801.85 397.20 L 802.79 397.20 L 804.69 397.20 L 805.63 397.20 L 807.53 397.20 L 808.47 397.20 L 810.37 397.20 L 811.31 397.20 L 813.20 397.20 L 814.15 397.20 L 816.04 397.20 L 816.99 397.20 L 818.88 397.20 L 819.83 397.20 L 821.72 397.20 L 822.67 442.80 L 824.56 442.80 L 825.51 442.80 L 827.40 442.80 L 828.35 442.80 L 830.24 442.80 L 831.19 442.80 L 833.08 442.80 L 834.03 442.80 L 835.92 442.80 L 837.81 442.80 L 838.76 442.80 L 840.65 442.80 L 841.60 442.80 L 843.49 442.80 L 844.44 442.80 L 846.33 442.80 L 847.28 442.80 L 849.17 442.80 L 850.12 442.80 L 852.01 442.80 L 852.96 397.20 L 854.85 397.20 L 855.80 397.20 L 857.69 442.80 L 858.63 442.80 L 860.53 442.80 L 861.47 442.80 L 863.37 442.80 L 864.31 442.80 L 866.21 442.80 L 867.15 442.80 L 869.05 442.80 L 869.99 442.80 L 871.89 442.80 L 872.83 442.80 L 874.72 442.80 L 875.67 442.80 L 877.56 442.80 L 878.51 442.80 L 880.40 442.80 L 881.35 442.80 L 883.24 442.80 L 884.19 442.80 L 886.08 442.80 L 887.03 442.80 L 888.92 442.80 L 889.87 442.80 L 891.76 442.80 L 892.71 442.80 L 894.60 442.80 L 895.55 442.80 L 897.44 442.80 L 899.33 442.80 L 900.28 442.80 L 902.17 442.80 L 903.12 442.80 L 905.01 442.80 L 905.96 442.80 L 907.85 442.80 L 908.80 442.80 L 910.69 442.80 L 911.64 442.80 L 913.53 442.80 L 914.48 442.80 L 916.37 442.80 L 917.32 442.80 L 919.21 442.80 L 920.15 442.80 L 922.05 442.80 L 922.99 442.80 L 924.89 442.80 L 925.83 442.80 L 927.73 442.80 L 928.67 442.80 L 930.57 442.80 L 931.51 442.80 L 933.41 442.80 L 934.35 442.80 L 936.24 442.80 L 937.19 442.80 L 939.08 442.80 L 940.03 442.80 L 941.92 442.80 L 942.87 442.80 L 944.76 442.80 L 945.71 442.80 L 947.60 442.80 L 948.55 442.80 L 950.44 442.80 L 951.39 442.80 L 953.28 442.80 L 954.23 442.80 L 956.12 442.80 L 957.07 442.80 L 958.96 442.80 L 960.85 442.80 L 961.80 442.80 L 963.69 442.80 L 964.64 442.80 L 966.53 442.80 L 967.48 442.80 L 969.37 442.80 L 970.32 442.80 L 972.21 534.00 L 973.16 534.00 L 975.05 534.00 L 976.00 534.00 L 977.89 534.00 L 978.84 534.00 L 980.73 534.00 L 981.67 534.00 L 983.57 534.00 L 984.51 534.00 L 986.41 534.00 L 987.35 534.00 L 989.25 534.00 L 990.19 534.00 L 992.09 534.00 L 993.03 534.00 L 994.93 534.00 L 995.87 534.00 L 997.76 534.00 L 998.71 534.00 L 1000.60 534.00 L 1001.55 534.00 L 1003.44 534.00 L 1004.39 534.00 L 1006.28 534.00 L 1007.23 534.00 L 1009.12 534.00 L 1010.07 534.00 L 1011.96 534.00 L 1012.91 534.00 L 1014.80 534.00 L 1015.75 534.00 L 1017.64 534.00 L 1018.59 534.00 L 1020.48 534.00 L 1022.37 534.00 L 1023.32 534.00 L 1025.21 534.00 L 1026.16 534.00 L 1028.05 534.00 L 1029.00 534.00 L 1030.89 534.00 L 1031.84 534.00 L 1033.73 534.00 L 1034.68 534.00 L 1036.57 534.00 L 1037.52 534.00 L 1039.41 534.00 L 1040.36 534.00 L 1042.25 534.00 L 1043.20 534.00 L 1045.09 534.00 L 1046.03 534.00 L 1047.93 534.00 L 1048.87 534.00 L 1050.77 534.00 L 1051.71 534.00 L 1053.61 534.00 L 1054.55 534.00 L 1056.45 534.00 L 1057.39 534.00 L 1059.28 534.00 L 1060.23 534.00 L 1062.12 534.00 L 1063.07 534.00 L 1064.96 534.00 L 1065.91 534.00 L 1067.80 534.00 L 1068.75 534.00 L 1070.64 534.00 L 1071.59 534.00 L 1073.48 534.00 L 1074.43 534.00 L 1076.32 534.00 L 1077.27 534.00 L 1079.16 534.00 L 1080.11 534.00 L 1082.00 534.00" fill="none" stroke="#f97316" stroke-width="2.7" stroke-dasharray="8 6"/>
<path d="M 92.00 219.36 L 93.89 219.36 L 94.84 219.36 L 96.73 219.36 L 97.68 219.36 L 99.57 219.36 L 100.52 219.36 L 102.41 219.36 L 103.36 219.36 L 105.25 219.36 L 106.20 219.36 L 108.09 219.36 L 109.04 219.36 L 110.93 219.36 L 111.88 219.36 L 113.77 219.36 L 114.72 219.36 L 116.61 219.36 L 117.55 219.36 L 119.45 219.36 L 120.39 221.64 L 122.29 221.64 L 123.23 221.64 L 125.13 221.64 L 126.07 221.64 L 127.97 221.64 L 128.91 221.64 L 130.80 221.64 L 131.75 221.64 L 133.64 221.64 L 134.59 221.64 L 136.48 221.64 L 137.43 221.64 L 139.32 221.64 L 141.22 221.64 L 142.16 221.64 L 144.06 310.56 L 145.00 310.56 L 146.89 310.56 L 147.84 310.56 L 149.73 310.56 L 150.68 399.48 L 152.57 399.48 L 153.52 399.48 L 155.41 399.48 L 156.36 399.48 L 158.25 399.48 L 159.20 399.48 L 161.09 310.56 L 162.04 310.56 L 163.93 310.56 L 164.88 221.64 L 166.77 221.64 L 167.72 221.64 L 169.61 221.64 L 170.56 310.56 L 172.45 310.56 L 173.40 399.48 L 175.29 399.48 L 176.24 399.48 L 178.13 445.08 L 179.07 445.08 L 180.97 445.08 L 181.91 445.08 L 183.81 445.08 L 184.75 445.08 L 186.65 445.08 L 187.59 445.08 L 189.49 445.08 L 190.43 445.08 L 192.33 445.08 L 193.27 445.08 L 195.16 445.08 L 196.11 445.08 L 198.00 445.08 L 198.95 445.08 L 200.84 445.08 L 201.79 445.08 L 203.68 445.08 L 204.63 445.08 L 206.52 445.08 L 208.41 445.08 L 209.36 445.08 L 211.25 445.08 L 212.20 445.08 L 214.09 445.08 L 215.04 445.08 L 216.93 445.08 L 217.88 445.08 L 219.77 445.08 L 220.72 445.08 L 222.61 445.08 L 223.56 445.08 L 225.45 445.08 L 226.40 445.08 L 228.29 445.08 L 229.24 445.08 L 231.13 445.08 L 232.08 445.08 L 233.97 445.08 L 234.92 401.76 L 236.81 401.76 L 237.76 401.76 L 239.65 401.76 L 240.59 401.76 L 242.49 401.76 L 243.43 312.84 L 245.33 312.84 L 246.27 312.84 L 248.17 312.84 L 249.11 312.84 L 251.01 312.84 L 251.95 312.84 L 253.85 312.84 L 254.79 312.84 L 256.68 312.84 L 257.63 312.84 L 259.52 312.84 L 260.47 312.84 L 262.36 312.84 L 263.31 312.84 L 265.20 312.84 L 266.15 312.84 L 268.04 312.84 L 268.99 312.84 L 270.88 312.84 L 272.77 312.84 L 273.72 312.84 L 275.61 312.84 L 276.56 312.84 L 278.45 312.84 L 279.40 312.84 L 281.29 312.84 L 282.24 312.84 L 284.13 312.84 L 285.08 312.84 L 286.97 312.84 L 287.92 312.84 L 289.81 312.84 L 290.76 312.84 L 292.65 312.84 L 293.60 312.84 L 295.49 312.84 L 296.44 312.84 L 298.33 312.84 L 299.28 312.84 L 301.17 312.84 L 302.11 312.84 L 304.01 312.84 L 304.95 312.84 L 306.85 312.84 L 307.79 226.20 L 309.69 226.20 L 310.63 226.20 L 312.53 180.60 L 313.47 180.60 L 315.37 180.60 L 316.31 180.60 L 318.20 180.60 L 319.15 226.20 L 321.04 226.20 L 321.99 226.20 L 323.88 226.20 L 324.83 226.20 L 326.72 226.20 L 327.67 226.20 L 329.56 226.20 L 330.51 226.20 L 332.40 226.20 L 333.35 226.20 L 335.24 226.20 L 337.13 226.20 L 338.08 226.20 L 339.97 226.20 L 340.92 226.20 L 342.81 226.20 L 343.76 226.20 L 345.65 226.20 L 346.60 315.12 L 348.49 401.76 L 349.44 401.76 L 351.33 401.76 L 352.28 401.76 L 354.17 401.76 L 355.12 401.76 L 357.01 315.12 L 357.96 315.12 L 359.85 315.12 L 360.80 401.76 L 362.69 401.76 L 363.63 401.76 L 365.53 401.76 L 366.47 315.12 L 368.37 315.12 L 369.31 401.76 L 371.21 401.76 L 372.15 401.76 L 374.05 447.36 L 374.99 447.36 L 376.89 447.36 L 377.83 447.36 L 379.72 447.36 L 380.67 447.36 L 382.56 447.36 L 383.51 447.36 L 385.40 447.36 L 386.35 447.36 L 388.24 447.36 L 389.19 447.36 L 391.08 447.36 L 392.03 447.36 L 393.92 447.36 L 394.87 447.36 L 396.76 447.36 L 397.71 447.36 L 399.60 447.36 L 401.49 447.36 L 402.44 447.36 L 404.33 447.36 L 405.28 447.36 L 407.17 447.36 L 408.12 447.36 L 410.01 447.36 L 410.96 447.36 L 412.85 447.36 L 413.80 447.36 L 415.69 447.36 L 416.64 447.36 L 418.53 447.36 L 419.48 447.36 L 421.37 447.36 L 422.32 447.36 L 424.21 447.36 L 425.15 447.36 L 427.05 447.36 L 427.99 447.36 L 429.89 447.36 L 430.83 447.36 L 432.73 447.36 L 433.67 447.36 L 435.57 447.36 L 436.51 447.36 L 438.41 447.36 L 439.35 447.36 L 441.24 447.36 L 442.19 447.36 L 444.08 447.36 L 445.03 447.36 L 446.92 447.36 L 447.87 447.36 L 449.76 447.36 L 450.71 447.36 L 452.60 447.36 L 453.55 447.36 L 455.44 447.36 L 456.39 447.36 L 458.28 447.36 L 459.23 447.36 L 461.12 447.36 L 463.01 447.36 L 463.96 447.36 L 465.85 447.36 L 466.80 447.36 L 468.69 447.36 L 469.64 447.36 L 471.53 447.36 L 472.48 447.36 L 474.37 447.36 L 475.32 447.36 L 477.21 447.36 L 478.16 447.36 L 480.05 447.36 L 481.00 534.00 L 482.89 447.36 L 483.84 447.36 L 485.73 447.36 L 486.67 447.36 L 488.57 447.36 L 489.51 447.36 L 491.41 447.36 L 492.35 447.36 L 494.25 447.36 L 495.19 447.36 L 497.09 447.36 L 498.03 447.36 L 499.93 447.36 L 500.87 447.36 L 502.76 447.36 L 503.71 447.36 L 505.60 447.36 L 506.55 447.36 L 508.44 447.36 L 509.39 447.36 L 511.28 447.36 L 512.23 447.36 L 514.12 447.36 L 515.07 447.36 L 516.96 447.36 L 517.91 447.36 L 519.80 447.36 L 520.75 447.36 L 522.64 447.36 L 524.53 447.36 L 525.48 447.36 L 527.37 447.36 L 528.32 447.36 L 530.21 447.36 L 531.16 447.36 L 533.05 447.36 L 534.00 447.36 L 535.89 447.36 L 536.84 447.36 L 538.73 447.36 L 539.68 447.36 L 541.57 447.36 L 542.52 447.36 L 544.41 447.36 L 545.36 447.36 L 547.25 447.36 L 548.20 447.36 L 550.09 447.36 L 551.03 447.36 L 552.93 447.36 L 553.87 447.36 L 555.77 447.36 L 556.71 447.36 L 558.61 401.76 L 559.55 401.76 L 561.45 401.76 L 562.39 401.76 L 564.28 401.76 L 565.23 401.76 L 567.12 401.76 L 568.07 401.76 L 569.96 401.76 L 570.91 401.76 L 572.80 401.76 L 573.75 401.76 L 575.64 401.76 L 576.59 401.76 L 578.48 401.76 L 579.43 401.76 L 581.32 401.76 L 582.27 401.76 L 584.16 401.76 L 585.11 401.76 L 587.00 401.76 L 588.89 401.76 L 589.84 401.76 L 591.73 401.76 L 592.68 401.76 L 594.57 401.76 L 595.52 401.76 L 597.41 401.76 L 598.36 401.76 L 600.25 401.76 L 601.20 401.76 L 603.09 401.76 L 604.04 401.76 L 605.93 401.76 L 606.88 401.76 L 608.77 401.76 L 609.72 401.76 L 611.61 401.76 L 612.55 401.76 L 614.45 447.36 L 615.39 447.36 L 617.29 447.36 L 618.23 447.36 L 620.13 447.36 L 621.07 447.36 L 622.97 447.36 L 623.91 447.36 L 625.80 447.36 L 626.75 447.36 L 628.64 447.36 L 629.59 447.36 L 631.48 447.36 L 632.43 447.36 L 634.32 447.36 L 635.27 447.36 L 637.16 447.36 L 638.11 447.36 L 640.00 447.36 L 640.95 447.36 L 642.84 447.36 L 643.79 447.36 L 645.68 447.36 L 646.63 447.36 L 648.52 447.36 L 650.41 447.36 L 651.36 447.36 L 653.25 447.36 L 654.20 447.36 L 656.09 447.36 L 657.04 447.36 L 658.93 447.36 L 659.88 447.36 L 661.77 447.36 L 662.72 447.36 L 664.61 447.36 L 665.56 447.36 L 667.45 447.36 L 668.40 447.36 L 670.29 447.36 L 671.24 447.36 L 673.13 447.36 L 674.07 447.36 L 675.97 447.36 L 676.91 447.36 L 678.81 447.36 L 679.75 447.36 L 681.65 447.36 L 682.59 447.36 L 684.49 447.36 L 685.43 447.36 L 687.33 447.36 L 688.27 447.36 L 690.16 447.36 L 691.11 447.36 L 693.00 447.36 L 693.95 447.36 L 695.84 447.36 L 696.79 447.36 L 698.68 447.36 L 699.63 447.36 L 701.52 447.36 L 702.47 447.36 L 704.36 447.36 L 705.31 447.36 L 707.20 447.36 L 708.15 447.36 L 710.04 447.36 L 711.93 447.36 L 712.88 447.36 L 714.77 447.36 L 715.72 447.36 L 717.61 447.36 L 718.56 447.36 L 720.45 447.36 L 721.40 447.36 L 723.29 447.36 L 724.24 447.36 L 726.13 447.36 L 727.08 447.36 L 728.97 447.36 L 729.92 447.36 L 731.81 447.36 L 732.76 447.36 L 734.65 447.36 L 735.59 447.36 L 737.49 447.36 L 738.43 447.36 L 740.33 447.36 L 741.27 447.36 L 743.17 447.36 L 744.11 447.36 L 746.01 447.36 L 746.95 447.36 L 748.85 401.76 L 749.79 401.76 L 751.68 401.76 L 752.63 401.76 L 754.52 401.76 L 755.47 401.76 L 757.36 401.76 L 758.31 401.76 L 760.20 401.76 L 761.15 401.76 L 763.04 401.76 L 763.99 401.76 L 765.88 401.76 L 766.83 401.76 L 768.72 447.36 L 769.67 447.36 L 771.56 447.36 L 772.51 447.36 L 774.40 447.36 L 776.29 447.36 L 777.24 447.36 L 779.13 447.36 L 780.08 447.36 L 781.97 401.76 L 782.92 401.76 L 784.81 401.76 L 785.76 401.76 L 787.65 401.76 L 788.60 401.76 L 790.49 401.76 L 791.44 401.76 L 793.33 401.76 L 794.28 401.76 L 796.17 401.76 L 797.11 401.76 L 799.01 401.76 L 799.95 401.76 L 801.85 401.76 L 802.79 401.76 L 804.69 401.76 L 805.63 401.76 L 807.53 401.76 L 808.47 401.76 L 810.37 401.76 L 811.31 401.76 L 813.20 401.76 L 814.15 401.76 L 816.04 401.76 L 816.99 401.76 L 818.88 401.76 L 819.83 401.76 L 821.72 401.76 L 822.67 447.36 L 824.56 447.36 L 825.51 447.36 L 827.40 447.36 L 828.35 447.36 L 830.24 447.36 L 831.19 447.36 L 833.08 447.36 L 834.03 447.36 L 835.92 447.36 L 837.81 447.36 L 838.76 447.36 L 840.65 447.36 L 841.60 447.36 L 843.49 447.36 L 844.44 447.36 L 846.33 447.36 L 847.28 447.36 L 849.17 447.36 L 850.12 447.36 L 852.01 447.36 L 852.96 404.04 L 854.85 404.04 L 855.80 404.04 L 857.69 447.36 L 858.63 447.36 L 860.53 447.36 L 861.47 447.36 L 863.37 447.36 L 864.31 447.36 L 866.21 447.36 L 867.15 447.36 L 869.05 447.36 L 869.99 447.36 L 871.89 447.36 L 872.83 447.36 L 874.72 447.36 L 875.67 447.36 L 877.56 447.36 L 878.51 447.36 L 880.40 447.36 L 881.35 447.36 L 883.24 447.36 L 884.19 447.36 L 886.08 447.36 L 887.03 447.36 L 888.92 447.36 L 889.87 447.36 L 891.76 447.36 L 892.71 447.36 L 894.60 447.36 L 895.55 447.36 L 897.44 447.36 L 899.33 447.36 L 900.28 447.36 L 902.17 447.36 L 903.12 447.36 L 905.01 447.36 L 905.96 447.36 L 907.85 447.36 L 908.80 447.36 L 910.69 447.36 L 911.64 447.36 L 913.53 447.36 L 914.48 447.36 L 916.37 447.36 L 917.32 447.36 L 919.21 447.36 L 920.15 447.36 L 922.05 447.36 L 922.99 447.36 L 924.89 447.36 L 925.83 447.36 L 927.73 447.36 L 928.67 447.36 L 930.57 447.36 L 931.51 447.36 L 933.41 447.36 L 934.35 447.36 L 936.24 447.36 L 937.19 447.36 L 939.08 447.36 L 940.03 447.36 L 941.92 447.36 L 942.87 447.36 L 944.76 447.36 L 945.71 447.36 L 947.60 447.36 L 948.55 447.36 L 950.44 447.36 L 951.39 447.36 L 953.28 447.36 L 954.23 447.36 L 956.12 447.36 L 957.07 447.36 L 958.96 447.36 L 960.85 447.36 L 961.80 447.36 L 963.69 447.36 L 964.64 447.36 L 966.53 447.36 L 967.48 447.36 L 969.37 447.36 L 970.32 447.36 L 972.21 534.00 L 973.16 534.00 L 975.05 534.00 L 976.00 534.00 L 977.89 534.00 L 978.84 534.00 L 980.73 534.00 L 981.67 534.00 L 983.57 534.00 L 984.51 534.00 L 986.41 534.00 L 987.35 534.00 L 989.25 534.00 L 990.19 534.00 L 992.09 534.00 L 993.03 534.00 L 994.93 534.00 L 995.87 534.00 L 997.76 534.00 L 998.71 534.00 L 1000.60 534.00 L 1001.55 534.00 L 1003.44 534.00 L 1004.39 534.00 L 1006.28 534.00 L 1007.23 534.00 L 1009.12 534.00 L 1010.07 534.00 L 1011.96 534.00 L 1012.91 534.00 L 1014.80 534.00 L 1015.75 534.00 L 1017.64 534.00 L 1018.59 534.00 L 1020.48 534.00 L 1022.37 534.00 L 1023.32 534.00 L 1025.21 534.00 L 1026.16 534.00 L 1028.05 534.00 L 1029.00 534.00 L 1030.89 534.00 L 1031.84 534.00 L 1033.73 534.00 L 1034.68 534.00 L 1036.57 534.00 L 1037.52 534.00 L 1039.41 534.00 L 1040.36 534.00 L 1042.25 534.00 L 1043.20 534.00 L 1045.09 534.00 L 1046.03 534.00 L 1047.93 534.00 L 1048.87 534.00 L 1050.77 534.00 L 1051.71 534.00 L 1053.61 534.00 L 1054.55 534.00 L 1056.45 534.00 L 1057.39 534.00 L 1059.28 534.00 L 1060.23 534.00 L 1062.12 534.00 L 1063.07 534.00 L 1064.96 534.00 L 1065.91 534.00 L 1067.80 534.00 L 1068.75 534.00 L 1070.64 534.00 L 1071.59 534.00 L 1073.48 534.00 L 1074.43 534.00 L 1076.32 534.00 L 1077.27 534.00 L 1079.16 534.00 L 1080.11 534.00 L 1082.00 534.00" fill="none" stroke="#0ea5e9" stroke-width="2.7"/>
<text x="560.0" y="602" text-anchor="middle" font-family="Arial, sans-serif" font-size="13" fill="#475569">Wall Clock Time</text>
<text transform="translate(25 306.0) rotate(-90)" text-anchor="middle" font-family="Arial, sans-serif" font-size="13" fill="#475569">Power (W)</text>
<rect x="727" y="96" width="335" height="80" rx="8" fill="#ffffff" stroke="#cbd5e1"/>
<line x1="745" y1="121" x2="785" y2="121" stroke="#f97316" stroke-width="2.8" stroke-dasharray="8 6"/>
<text x="797" y="126" font-family="Arial, sans-serif" font-size="13" fill="#1e293b">Raw Power (power_w)</text>
<line x1="745" y1="147" x2="785" y2="147" stroke="#0ea5e9" stroke-width="2.8"/>
<text x="797" y="152" font-family="Arial, sans-serif" font-size="13" fill="#1e293b">Temp-Corrected Power (power_corrected_w)</text>
</svg>