<svg xmlns="http://www.w3.org/2000/svg" width="1120" height="620" viewBox="0 0 1120 620">
<rect width="100%" height="100%" fill="#f8fafc"/>
<rect x="92" y="78" width="990" height="456" fill="#ffffff" stroke="#cbd5e1"/>
<text x="560.0" y="34" text-anchor="middle" font-family="Arial, sans-serif" font-size="21" font-weight="700" fill="#1e293b">Power Output - 13 deg Tilt - Midday Session</text>
<text x="560.0" y="58" text-anchor="middle" font-family="Arial, sans-serif" font-size="12" fill="#475569">2272 readings from 11:46:41 to 12:51:06</text>
<line x1="92" y1="534.00" x2="1082" y2="534.00" stroke="#cbd5e1" stroke-dasharray="5 5" opacity="0.75"/>
<text x="80" y="538.00" text-anchor="end" font-family="Arial, sans-serif" font-size="12" fill="#475569">0.000</text>
<line x1="92" y1="442.80" x2="1082" y2="442.80" stroke="#cbd5e1" stroke-dasharray="5 5" opacity="0.75"/>
<text x="80" y="446.80" text-anchor="end" font-family="Arial, sans-serif" font-size="12" fill="#475569">0.020</text>
<line x1="92" y1="351.60" x2="1082" y2="351.60" stroke="#cbd5e1" stroke-dasharray="5 5" opacity="0.75"/>
<text x="80" y="355.60" text-anchor="end" font-family="Arial, sans-serif" font-size="12" fill="#475569">0.040</text>
<line x1="92" y1="260.40" x2="1082" y2="260.40" stroke="#cbd5e1" stroke-dasharray="5 5" opacity="0.75"/>
<text x="80" y="264.40" text-anchor="end" font-family="Arial, sans-serif" font-size="12" fill="#475569">0.060</text>
<line x1="92" y1="169.20" x2="1082" y2="169.20" stroke="#cbd5e1" stroke-dasharray="5 5" opacity="0.75"/>
<text x="80" y="173.20" text-anchor="end" font-family="Arial, sans-serif" font-size="12" fill="#475569">0.080</text>
<line x1="92" y1="78.00" x2="1082" y2="78.00" stroke="#cbd5e1" stroke-dasharray="5 5" opacity="0.75"/>
<text x="80" y="82.00" text-anchor="end" font-family="Arial, sans-serif" font-size="12" fill="#475569">0.100</text>
<line x1="92.00" y1="78" x2="92.00" y2="534" stroke="#e2e8f0" stroke-dasharray="4 6"/>
<text x="92.00" y="568" text-anchor="middle" font-family="Arial, sans-serif" font-size="12" fill="#475569">11:46:41</text>
<line x1="257.00" y1="78" x2="257.00" y2="534" stroke="#e2e8f0" stroke-dasharray="4 6"/>
<text x="257.00" y="568" text-anchor="middle" font-family="Arial, sans-serif" font-size="12" fill="#475569">11:57:25</text>
<line x1="422.00" y1="78" x2="422.00" y2="534" stroke="#e2e8f0" stroke-dasharray="4 6"/>
<text x="422.00" y="568" text-anchor="middle" font-family="Arial, sans-serif" font-size="12" fill="#475569">12:08:09</text>
<line x1="587.00" y1="78" x2="587.00" y2="534" stroke="#e2e8f0" stroke-dasharray="4 6"/>
<text x="587.00" y="568" text-anchor="middle" font-family="Arial, sans-serif" font-size="12" fill="#475569">12:18:53</text>
<line x1="752.00" y1="78" x2="752.00" y2="534" stroke="#e2e8f0" stroke-dasharray="4 6"/>
<text x="752.00" y="568" text-anchor="middle" font-family="Arial, sans-serif" font-size="12" fill="#475569">12:29:37</text>
<line x1="917.00" y1="78" x2="917.00" y2="534" stroke="#e2e8f0" stroke-dasharray="4 6"/>
<text x="917.00" y="568" text-anchor="middle" font-family="Arial, sans-serif" font-size="12" fill="#475569">12:40:21</text>
<line x1="1082.00" y1="78" x2="1082.00" y2="534" stroke="#e2e8f0" stroke-dasharray="4 6"/>
<text x="1082.00" y="568" text-anchor="middle" font-family="Arial, sans-serif" font-size="12" fill="#475569">12:51:06</text>
<path d="M 92.00 488.40 L 92.26 488.40 L 92.77 506.64 L 93.02 488.40 L 93.54 506.64 L 93.79 488.40 L 94.31 515.76 L 94.56 515.76 L 95.07 534.00 L 95.33 534.00 L 95.84 534.00 L 96.10 534.00 L 96.61 534.00 L 96.87 534.00 L 97.38 534.00 L 97.64 534.00 L 98.15 534.00 L 98.40 534.00 L 98.92 534.00 L 99.17 534.00 L 99.68 534.00 L 99.94 534.00 L 100.45 534.00 L 100.97 534.00 L 101.22 534.00 L 101.73 534.00 L 101.99 534.00 L 102.50 534.00 L 102.76 534.00 L 103.27 534.00 L 103.53 534.00 L 104.04 534.00 L 104.29 534.00 L 104.81 534.00 L 105.06 534.00 L 105.58 534.00 L 105.83 534.00 L 106.34 534.00 L 106.60 534.00 L 107.11 534.00 L 107.37 534.00 L 107.88 534.00 L 108.14 534.00 L 108.65 534.00 L 108.91 534.00 L 109.42 534.00 L 109.67 534.00 L 110.19 515.76 L 110.44 515.76 L 110.95 515.76 L 111.21 488.40 L 111.72 442.80 L 111.98 461.04 L 112.49 442.80 L 112.75 433.68 L 113.26 415.44 L 113.52 433.68 L 114.03 433.68 L 114.28 442.80 L 114.80 442.80 L 115.05 461.04 L 115.57 470.16 L 115.82 470.16 L 116.33 470.16 L 116.59 470.16 L 117.10 470.16 L 117.36 488.40 L 117.87 506.64 L 118.13 470.16 L 118.64 442.80 L 119.15 433.68 L 119.41 442.80 L 119.92 433.68 L 120.18 433.68 L 120.69 433.68 L 120.94 433.68 L 121.46 433.68 L 121.71 442.80 L 122.23 442.80 L 122.48 442.80 L 122.99 433.68 L 123.25 433.68 L 123.76 433.68 L 124.02 433.68 L 124.53 433.68 L 124.79 433.68 L 125.30 433.68 L 125.55 415.44 L 126.07 415.44 L 126.32 415.44 L 126.84 415.44 L 127.09 415.44 L 127.60 415.44 L 127.86 415.44 L 128.37 397.20 L 128.63 397.20 L 129.14 397.20 L 129.40 397.20 L 129.91 397.20 L 130.17 388.08 L 130.68 388.08 L 130.93 388.08 L 131.45 388.08 L 131.70 388.08 L 132.21 388.08 L 132.47 388.08 L 132.98 388.08 L 133.24 388.08 L 133.75 369.84 L 134.01 397.20 L 134.52 397.20 L 134.78 397.20 L 135.29 397.20 L 135.80 397.20 L 136.06 397.20 L 136.57 388.08 L 136.83 388.08 L 137.34 388.08 L 137.59 388.08 L 138.11 388.08 L 138.36 388.08 L 138.87 388.08 L 139.13 388.08 L 139.64 388.08 L 139.90 388.08 L 140.41 388.08 L 140.67 369.84 L 141.18 369.84 L 141.44 369.84 L 141.95 388.08 L 142.20 388.08 L 142.72 388.08 L 142.97 388.08 L 143.49 397.20 L 143.74 397.20 L 144.25 397.20 L 144.51 397.20 L 145.02 397.20 L 145.28 397.20 L 145.79 397.20 L 146.05 415.44 L 146.56 415.44 L 146.82 415.44 L 147.33 415.44 L 147.58 415.44 L 148.10 433.68 L 148.35 433.68 L 148.86 433.68 L 149.12 433.68 L 149.63 433.68 L 149.89 415.44 L 150.40 488.40 L 150.66 415.44 L 151.17 415.44 L 151.68 415.44 L 151.94 415.44 L 152.45 415.44 L 152.71 415.44 L 153.22 415.44 L 153.47 397.20 L 153.99 488.40 L 154.24 506.64 L 154.76 506.64 L 155.01 515.76 L 155.52 515.76 L 155.78 515.76 L 156.29 515.76 L 156.55 515.76 L 157.06 534.00 L 157.32 534.00 L 157.83 534.00 L 158.09 534.00 L 158.60 534.00 L 158.85 515.76 L 159.37 515.76 L 159.62 506.64 L 160.13 506.64 L 160.39 506.64 L 160.90 506.64 L 161.16 506.64 L 161.67 506.64 L 161.93 515.76 L 162.44 515.76 L 162.70 515.76 L 163.21 515.76 L 163.46 515.76 L 163.98 515.76 L 164.23 515.76 L 164.75 515.76 L 165.00 515.76 L 165.51 534.00 L 165.77 534.00 L 166.28 534.00 L 166.79 534.00 L 167.05 534.00 L 167.56 534.00 L 167.82 534.00 L 168.33 534.00 L 168.59 534.00 L 169.10 534.00 L 169.36 534.00 L 169.87 534.00 L 170.12 534.00 L 170.64 534.00 L 170.89 534.00 L 171.40 534.00 L 171.66 534.00 L 172.17 534.00 L 172.43 534.00 L 172.94 534.00 L 173.20 534.00 L 173.71 534.00 L 173.97 534.00 L 174.48 534.00 L 174.73 534.00 L 175.25 534.00 L 175.50 534.00 L 176.02 534.00 L 176.27 534.00 L 176.78 534.00 L 177.04 534.00 L 177.55 534.00 L 177.81 534.00 L 178.32 534.00 L 178.58 534.00 L 179.09 534.00 L 179.35 534.00 L 179.86 534.00 L 180.11 534.00 L 180.63 534.00 L 180.88 534.00 L 181.39 534.00 L 181.91 534.00 L 182.16 534.00 L 182.68 534.00 L 182.93 534.00 L 183.44 534.00 L 183.70 534.00 L 184.21 534.00 L 184.47 534.00 L 184.98 534.00 L 185.24 534.00 L 185.75 534.00 L 186.01 534.00 L 186.52 534.00 L 186.77 534.00 L 187.29 534.00 L 187.54 534.00 L 188.05 534.00 L 188.31 534.00 L 188.82 534.00 L 189.08 534.00 L 189.59 534.00 L 189.85 534.00 L 190.36 515.76 L 190.62 506.64 L 191.13 506.64 L 191.38 506.64 L 191.90 506.64 L 192.15 515.76 L 192.66 506.64 L 192.92 488.40 L 193.43 488.40 L 193.69 488.40 L 194.20 488.40 L 194.46 488.40 L 194.97 488.40 L 195.23 488.40 L 195.74 506.64 L 195.99 506.64 L 196.51 515.76 L 197.02 515.76 L 197.28 515.76 L 197.79 515.76 L 198.04 515.76 L 198.56 515.76 L 198.81 534.00 L 199.32 534.00 L 199.58 515.76 L 200.09 534.00 L 200.35 534.00 L 200.86 534.00 L 201.12 534.00 L 201.63 534.00 L 201.89 534.00 L 202.40 534.00 L 202.65 534.00 L 203.17 534.00 L 203.42 534.00 L 203.94 534.00 L 204.19 534.00 L 204.70 534.00 L 204.96 534.00 L 205.47 534.00 L 205.73 534.00 L 206.24 534.00 L 206.50 534.00 L 207.01 534.00 L 207.27 534.00 L 207.78 534.00 L 208.03 534.00 L 208.55 534.00 L 208.80 534.00 L 209.31 534.00 L 209.57 534.00 L 210.08 534.00 L 210.34 534.00 L 210.85 534.00 L 211.36 534.00 L 211.62 534.00 L 212.13 534.00 L 212.39 534.00 L 212.90 534.00 L 213.16 534.00 L 213.67 534.00 L 213.92 534.00 L 214.44 534.00 L 214.69 534.00 L 215.21 534.00 L 215.46 534.00 L 215.97 534.00 L 216.23 534.00 L 216.74 534.00 L 217.00 534.00 L 217.51 534.00 L 217.77 534.00 L 218.28 534.00 L 218.54 534.00 L 219.05 534.00 L 219.30 534.00 L 219.82 534.00 L 220.07 534.00 L 220.58 534.00 L 220.84 534.00 L 221.35 534.00 L 221.61 534.00 L 222.12 534.00 L 222.38 534.00 L 222.89 534.00 L 223.15 534.00 L 223.66 534.00 L 223.91 515.76 L 224.43 515.76 L 224.68 470.16 L 225.20 415.44 L 225.71 397.20 L 225.96 388.08 L 226.48 415.44 L 226.73 488.40 L 227.24 488.40 L 227.50 506.64 L 228.01 506.64 L 228.27 488.40 L 228.78 461.04 L 229.04 415.44 L 229.55 388.08 L 229.81 369.84 L 230.32 388.08 L 230.57 388.08 L 231.09 388.08 L 231.34 397.20 L 231.86 397.20 L 232.11 397.20 L 232.62 397.20 L 232.88 415.44 L 233.39 415.44 L 233.65 388.08 L 234.16 397.20 L 234.42 388.08 L 234.93 388.08 L 235.18 388.08 L 235.70 415.44 L 235.95 506.64 L 236.47 506.64 L 236.72 534.00 L 237.23 534.00 L 237.49 534.00 L 238.00 534.00 L 238.26 534.00 L 238.77 534.00 L 239.03 534.00 L 239.54 534.00 L 239.80 534.00 L 240.31 534.00 L 240.82 534.00 L 241.08 534.00 L 241.59 534.00 L 241.84 534.00 L 242.36 534.00 L 242.61 534.00 L 243.13 534.00 L 243.38 534.00 L 243.89 534.00 L 244.15 534.00 L 244.66 534.00 L 244.92 534.00 L 245.43 515.76 L 245.69 515.76 L 246.20 515.76 L 246.46 506.64 L 246.97 506.64 L 247.22 506.64 L 247.74 515.76 L 247.99 534.00 L 248.50 534.00 L 248.76 534.00 L 249.27 534.00 L 249.53 534.00 L 250.04 534.00 L 250.30 534.00 L 250.81 534.00 L 251.07 534.00 L 251.58 534.00 L 251.83 534.00 L 252.35 534.00 L 252.60 534.00 L 253.12 534.00 L 253.37 534.00 L 253.88 534.00 L 254.14 534.00 L 254.65 534.00 L 255.16 534.00 L 255.42 534.00 L 255.93 534.00 L 256.19 534.00 L 256.70 534.00 L 256.96 534.00 L 257.47 534.00 L 257.73 534.00 L 258.24 534.00 L 258.49 534.00 L 259.01 534.00 L 259.26 534.00 L 259.77 534.00 L 260.03 534.00 L 260.54 534.00 L 260.80 534.00 L 261.31 534.00 L 261.57 534.00 L 262.08 534.00 L 262.34 534.00 L 262.85 534.00 L 263.10 534.00 L 263.62 534.00 L 263.87 534.00 L 264.39 534.00 L 264.64 534.00 L 265.15 534.00 L 265.41 534.00 L 265.92 534.00 L 266.18 534.00 L 266.69 534.00 L 266.95 534.00 L 267.46 534.00 L 267.72 534.00 L 268.23 534.00 L 268.48 534.00 L 269.00 534.00 L 269.51 534.00 L 269.76 534.00 L 270.28 515.76 L 270.53 515.76 L 271.05 515.76 L 271.30 515.76 L 271.81 506.64 L 272.07 515.76 L 272.58 515.76 L 272.84 515.76 L 273.35 515.76 L 273.61 515.76 L 274.12 515.76 L 274.38 534.00 L 274.89 534.00 L 275.14 534.00 L 275.66 534.00 L 275.91 534.00 L 276.42 534.00 L 276.68 534.00 L 277.19 534.00 L 277.45 534.00 L 277.96 534.00 L 278.22 534.00 L 278.73 534.00 L 278.99 534.00 L 279.50 534.00 L 279.75 534.00 L 280.27 534.00 L 280.52 534.00 L 281.03 534.00 L 281.29 534.00 L 281.80 534.00 L 282.06 534.00 L 282.57 534.00 L 282.83 534.00 L 283.34 534.00 L 283.85 534.00 L 284.11 534.00 L 284.62 534.00 L 284.88 534.00 L 285.39 534.00 L 285.65 534.00 L 286.16 534.00 L 286.41 534.00 L 286.93 534.00 L 287.18 534.00 L 287.69 534.00 L 287.95 534.00 L 288.46 534.00 L 288.72 534.00 L 289.23 534.00 L 289.49 534.00 L 290.00 534.00 L 290.26 534.00 L 290.77 534.00 L 291.02 534.00 L 291.54 534.00 L 291.79 534.00 L 292.31 534.00 L 292.56 534.00 L 293.07 534.00 L 293.33 534.00 L 293.84 534.00 L 294.10 534.00 L 294.61 534.00 L 294.87 534.00 L 295.38 534.00 L 295.64 534.00 L 296.15 534.00 L 296.40 534.00 L 296.92 534.00 L 297.17 534.00 L 297.68 534.00 L 298.20 534.00 L 298.45 534.00 L 298.97 534.00 L 299.22 534.00 L 299.73 534.00 L 299.99 534.00 L 300.50 534.00 L 300.76 534.00 L 301.27 534.00 L 301.53 534.00 L 302.04 534.00 L 302.29 534.00 L 302.81 534.00 L 303.06 534.00 L 303.58 534.00 L 303.83 534.00 L 304.34 534.00 L 304.60 534.00 L 305.11 534.00 L 305.37 534.00 L 305.88 534.00 L 306.14 534.00 L 306.65 534.00 L 306.91 534.00 L 307.42 534.00 L 307.67 534.00 L 308.19 534.00 L 308.44 534.00 L 308.95 534.00 L 309.21 534.00 L 309.72 534.00 L 309.98 534.00 L 310.49 534.00 L 310.75 534.00 L 311.26 534.00 L 311.52 534.00 L 312.03 534.00 L 312.28 534.00 L 312.80 534.00 L 313.31 534.00 L 313.57 534.00 L 314.08 534.00 L 314.33 534.00 L 314.85 534.00 L 315.10 534.00 L 315.61 534.00 L 315.87 534.00 L 316.38 534.00 L 316.64 534.00 L 317.15 534.00 L 317.41 534.00 L 317.92 534.00 L 318.18 534.00 L 318.69 534.00 L 318.94 534.00 L 319.46 534.00 L 319.71 534.00 L 320.23 534.00 L 320.48 534.00 L 320.99 534.00 L 321.25 534.00 L 321.76 534.00 L 322.02 534.00 L 322.53 534.00 L 322.79 534.00 L 323.30 534.00 L 323.55 534.00 L 324.07 534.00 L 324.32 534.00 L 324.84 534.00 L 392.71 534.00 L 392.71 534.00 L 392.71 534.00 L 392.71 534.00 L 392.71 534.00 L 392.71 534.00 L 392.71 534.00 L 392.71 534.00 L 392.71 534.00 L 392.71 534.00 L 392.97 534.00 L 392.97 534.00 L 392.97 534.00 L 392.97 534.00 L 392.97 534.00 L 392.97 534.00 L 392.97 534.00 L 392.97 534.00 L 392.97 534.00 L 392.97 534.00 L 392.97 534.00 L 392.97 534.00 L 392.97 534.00 L 392.97 534.00 L 392.97 534.00 L 392.97 534.00 L 392.97 534.00 L 392.97 534.00 L 392.97 534.00 L 392.97 534.00 L 392.97 534.00 L 392.97 534.00 L 392.97 534.00 L 392.97 534.00 L 392.97 534.00 L 392.97 534.00 L 392.97 534.00 L 392.97 534.00 L 392.97 534.00 L 392.97 534.00 L 392.97 515.76 L 392.97 506.64 L 392.97 488.40 L 392.97 433.68 L 392.97 388.08 L 392.97 461.04 L 392.97 470.16 L 392.97 461.04 L 392.97 388.08 L 392.97 388.08 L 392.97 470.16 L 392.97 506.64 L 392.97 470.16 L 392.97 415.44 L 392.97 388.08 L 392.97 351.60 L 392.97 351.60 L 392.97 351.60 L 392.97 369.84 L 392.97 388.08 L 392.97 433.68 L 392.97 488.40 L 392.97 470.16 L 392.97 506.64 L 392.97 515.76 L 393.23 515.76 L 393.23 515.76 L 393.23 515.76 L 393.23 515.76 L 393.23 515.76 L 393.23 515.76 L 393.23 515.76 L 393.23 515.76 L 393.23 506.64 L 393.23 488.40 L 393.23 488.40 L 393.23 470.16 L 393.23 461.04 L 393.23 442.80 L 393.23 397.20 L 393.23 369.84 L 393.23 351.60 L 393.23 351.60 L 393.23 351.60 L 393.23 369.84 L 393.23 397.20 L 393.23 415.44 L 393.23 397.20 L 393.23 534.00 L 393.23 534.00 L 393.23 534.00 L 393.23 534.00 L 393.48 534.00 L 393.74 534.00 L 394.25 534.00 L 394.51 534.00 L 395.02 534.00 L 395.28 534.00 L 395.79 534.00 L 396.04 534.00 L 396.56 534.00 L 396.81 534.00 L 397.32 534.00 L 397.58 534.00 L 398.09 534.00 L 398.35 534.00 L 398.86 534.00 L 399.12 534.00 L 399.63 534.00 L 399.89 534.00 L 400.40 534.00 L 400.65 534.00 L 401.17 534.00 L 401.42 534.00 L 401.94 534.00 L 402.19 534.00 L 402.70 534.00 L 402.96 534.00 L 403.47 534.00 L 403.98 534.00 L 404.24 534.00 L 404.75 534.00 L 405.01 534.00 L 405.52 534.00 L 405.78 534.00 L 406.29 534.00 L 406.55 534.00 L 407.06 534.00 L 407.31 534.00 L 407.83 534.00 L 408.08 534.00 L 408.60 534.00 L 408.85 534.00 L 409.36 534.00 L 409.62 534.00 L 410.13 534.00 L 410.39 534.00 L 410.90 534.00 L 411.16 534.00 L 411.67 534.00 L 411.92 534.00 L 412.44 534.00 L 412.69 534.00 L 413.21 534.00 L 413.46 534.00 L 413.97 534.00 L 414.23 534.00 L 414.74 534.00 L 415.00 534.00 L 415.51 534.00 L 415.77 534.00 L 416.28 534.00 L 416.54 534.00 L 417.05 534.00 L 417.30 534.00 L 417.82 534.00 L 418.07 534.00 L 418.58 534.00 L 418.84 534.00 L 419.35 534.00 L 419.87 534.00 L 420.12 534.00 L 420.63 534.00 L 420.89 534.00 L 421.40 534.00 L 421.66 534.00 L 422.17 534.00 L 422.43 534.00 L 422.94 534.00 L 423.20 534.00 L 423.71 534.00 L 423.96 534.00 L 424.48 534.00 L 424.73 534.00 L 425.24 534.00 L 425.50 534.00 L 426.01 534.00 L 426.27 534.00 L 426.78 534.00 L 427.04 534.00 L 427.55 534.00 L 427.81 534.00 L 428.32 534.00 L 428.57 534.00 L 429.09 534.00 L 429.34 534.00 L 429.86 534.00 L 430.11 534.00 L 430.62 534.00 L 430.88 534.00 L 431.39 534.00 L 431.65 534.00 L 432.16 534.00 L 432.42 534.00 L 432.93 534.00 L 433.18 534.00 L 433.70 534.00 L 433.95 534.00 L 434.47 534.00 L 434.98 534.00 L 435.23 534.00 L 435.75 534.00 L 436.00 534.00 L 436.51 534.00 L 436.77 534.00 L 437.28 534.00 L 437.54 534.00 L 438.05 534.00 L 438.31 534.00 L 438.82 534.00 L 439.08 534.00 L 439.59 534.00 L 439.84 534.00 L 440.36 534.00 L 440.61 534.00 L 441.13 534.00 L 441.38 534.00 L 441.89 534.00 L 442.15 534.00 L 442.66 534.00 L 442.92 534.00 L 443.43 534.00 L 443.69 534.00 L 444.20 534.00 L 444.46 534.00 L 444.97 534.00 L 445.22 534.00 L 445.74 534.00 L 445.99 534.00 L 446.50 534.00 L 446.76 534.00 L 447.27 534.00 L 447.53 534.00 L 448.04 534.00 L 448.30 534.00 L 448.81 534.00 L 449.07 534.00 L 449.58 534.00 L 449.83 534.00 L 450.35 534.00 L 450.86 534.00 L 451.12 534.00 L 451.63 534.00 L 451.88 534.00 L 452.40 534.00 L 452.65 534.00 L 453.16 534.00 L 453.42 534.00 L 453.93 534.00 L 454.19 534.00 L 454.70 534.00 L 454.96 534.00 L 455.47 534.00 L 455.73 534.00 L 456.24 515.76 L 456.49 515.76 L 457.01 515.76 L 457.26 515.76 L 457.77 515.76 L 458.03 515.76 L 458.54 534.00 L 458.80 534.00 L 459.31 534.00 L 459.57 534.00 L 460.08 534.00 L 460.34 534.00 L 460.85 534.00 L 461.10 534.00 L 461.62 534.00 L 461.87 534.00 L 462.39 534.00 L 462.64 534.00 L 463.15 534.00 L 463.41 534.00 L 463.92 534.00 L 464.18 515.76 L 464.69 515.76 L 464.95 515.76 L 465.46 470.16 L 465.72 461.04 L 466.23 461.04 L 466.74 442.80 L 467.00 433.68 L 467.51 470.16 L 467.76 461.04 L 468.28 442.80 L 468.53 470.16 L 469.05 488.40 L 469.30 506.64 L 469.81 515.76 L 470.07 515.76 L 470.58 515.76 L 470.84 515.76 L 471.35 515.76 L 471.61 515.76 L 472.12 515.76 L 472.38 534.00 L 472.89 534.00 L 473.14 534.00 L 473.66 534.00 L 473.91 534.00 L 474.42 534.00 L 474.68 534.00 L 475.19 534.00 L 475.45 534.00 L 475.96 534.00 L 476.22 534.00 L 476.73 534.00 L 476.99 534.00 L 477.50 534.00 L 477.75 534.00 L 478.27 534.00 L 478.52 534.00 L 479.03 534.00 L 479.29 534.00 L 479.80 534.00 L 480.06 534.00 L 480.57 534.00 L 480.83 534.00 L 481.34 534.00 L 481.85 534.00 L 482.11 534.00 L 482.62 534.00 L 482.88 534.00 L 483.39 534.00 L 483.65 534.00 L 484.16 534.00 L 484.41 534.00 L 484.93 534.00 L 485.18 534.00 L 485.69 534.00 L 485.95 534.00 L 486.46 534.00 L 486.72 534.00 L 487.23 534.00 L 487.49 534.00 L 488.00 534.00 L 488.26 534.00 L 488.77 534.00 L 489.02 534.00 L 489.54 534.00 L 489.79 534.00 L 490.31 534.00 L 490.56 534.00 L 491.07 534.00 L 491.33 534.00 L 491.84 534.00 L 492.10 534.00 L 492.61 534.00 L 492.87 534.00 L 493.38 534.00 L 493.64 534.00 L 494.15 534.00 L 494.40 534.00 L 494.92 534.00 L 495.17 534.00 L 495.68 534.00 L 495.94 534.00 L 496.45 534.00 L 496.71 534.00 L 497.22 534.00 L 497.48 534.00 L 497.99 534.00 L 498.50 534.00 L 498.76 534.00 L 499.27 534.00 L 499.53 534.00 L 500.04 534.00 L 500.29 534.00 L 500.81 534.00 L 501.06 534.00 L 501.58 534.00 L 501.83 534.00 L 502.34 534.00 L 502.60 534.00 L 503.11 534.00 L 503.37 534.00 L 503.88 534.00 L 504.14 534.00 L 504.65 534.00 L 504.91 534.00 L 505.42 534.00 L 505.67 534.00 L 506.19 534.00 L 506.44 534.00 L 506.95 534.00 L 507.21 515.76 L 507.72 515.76 L 507.98 515.76 L 508.49 388.08 L 508.75 306.00 L 509.26 306.00 L 509.52 306.00 L 510.03 306.00 L 510.28 306.00 L 510.80 306.00 L 511.05 306.00 L 511.57 324.24 L 511.82 306.00 L 512.33 324.24 L 512.59 324.24 L 513.10 324.24 L 513.36 324.24 L 513.87 324.24 L 514.38 324.24 L 514.64 324.24 L 515.15 324.24 L 515.41 324.24 L 515.92 324.24 L 516.18 324.24 L 516.69 324.24 L 516.94 324.24 L 517.46 369.84 L 517.71 369.84 L 518.23 369.84 L 518.48 369.84 L 518.99 369.84 L 519.25 369.84 L 519.76 369.84 L 520.02 388.08 L 520.53 388.08 L 520.79 388.08 L 521.30 388.08 L 521.55 388.08 L 522.07 415.44 L 522.32 415.44 L 522.84 415.44 L 523.09 415.44 L 523.60 415.44 L 523.86 415.44 L 524.37 415.44 L 524.63 415.44 L 525.14 415.44 L 525.40 415.44 L 525.91 415.44 L 526.17 415.44 L 526.68 415.44 L 526.93 415.44 L 527.45 415.44 L 527.70 415.44 L 528.21 415.44 L 528.47 415.44 L 528.98 415.44 L 529.50 415.44 L 529.75 415.44 L 530.26 415.44 L 530.52 415.44 L 531.03 415.44 L 531.29 415.44 L 531.80 415.44 L 532.06 433.68 L 532.57 433.68 L 532.83 433.68 L 533.34 433.68 L 533.59 433.68 L 534.11 442.80 L 534.36 442.80 L 534.87 442.80 L 535.13 442.80 L 535.64 442.80 L 535.90 442.80 L 536.41 442.80 L 536.67 442.80 L 537.18 442.80 L 537.44 442.80 L 537.95 442.80 L 538.20 442.80 L 538.72 442.80 L 538.97 442.80 L 539.49 442.80 L 539.74 442.80 L 540.25 442.80 L 540.51 433.68 L 541.02 506.64 L 541.28 506.64 L 541.79 506.64 L 542.05 506.64 L 542.56 506.64 L 542.82 506.64 L 543.33 506.64 L 543.58 506.64 L 544.10 506.64 L 544.61 506.64 L 544.86 506.64 L 545.38 506.64 L 545.63 506.64 L 546.14 506.64 L 546.40 506.64 L 546.91 506.64 L 547.17 506.64 L 547.68 506.64 L 547.94 506.64 L 548.45 506.64 L 548.71 506.64 L 549.22 506.64 L 549.47 515.76 L 549.99 515.76 L 550.24 515.76 L 550.76 515.76 L 551.01 515.76 L 551.52 515.76 L 551.78 515.76 L 552.29 515.76 L 552.55 515.76 L 553.06 515.76 L 553.32 515.76 L 553.83 515.76 L 554.09 515.76 L 554.60 515.76 L 554.85 515.76 L 555.37 515.76 L 555.62 515.76 L 556.13 534.00 L 556.39 534.00 L 556.90 534.00 L 557.16 534.00 L 557.67 534.00 L 557.93 534.00 L 558.44 534.00 L 558.95 534.00 L 559.21 534.00 L 559.72 534.00 L 559.98 534.00 L 560.49 534.00 L 560.75 534.00 L 561.26 534.00 L 561.51 534.00 L 562.03 534.00 L 562.28 534.00 L 562.79 534.00 L 563.05 534.00 L 563.56 534.00 L 563.82 534.00 L 564.33 534.00 L 564.59 534.00 L 565.10 534.00 L 565.36 534.00 L 565.87 534.00 L 566.12 534.00 L 566.64 534.00 L 566.89 534.00 L 567.40 534.00 L 567.66 534.00 L 568.17 534.00 L 568.43 534.00 L 568.94 534.00 L 569.20 534.00 L 569.71 534.00 L 569.97 534.00 L 570.48 534.00 L 570.73 534.00 L 571.25 534.00 L 571.50 534.00 L 572.02 534.00 L 572.27 534.00 L 572.78 534.00 L 573.30 534.00 L 573.55 534.00 L 574.06 534.00 L 574.32 534.00 L 574.83 534.00 L 575.09 534.00 L 575.60 534.00 L 575.86 534.00 L 576.37 534.00 L 576.63 534.00 L 577.14 534.00 L 577.39 534.00 L 577.91 534.00 L 578.16 534.00 L 578.68 515.76 L 578.93 515.76 L 579.44 515.76 L 579.70 515.76 L 580.21 515.76 L 580.47 515.76 L 580.98 515.76 L 581.24 506.64 L 581.75 506.64 L 582.01 506.64 L 582.52 506.64 L 582.77 506.64 L 583.29 506.64 L 583.54 506.64 L 584.05 506.64 L 584.31 506.64 L 584.82 515.76 L 585.08 515.76 L 585.59 534.00 L 585.85 534.00 L 586.36 534.00 L 586.62 515.76 L 587.13 515.76 L 587.64 515.76 L 587.90 515.76 L 588.41 515.76 L 588.66 515.76 L 589.18 506.64 L 589.43 506.64 L 589.95 506.64 L 590.20 506.64 L 590.71 506.64 L 590.97 506.64 L 591.48 506.64 L 591.74 515.76 L 592.25 515.76 L 592.51 515.76 L 593.02 506.64 L 593.28 506.64 L 593.79 515.76 L 594.04 515.76 L 594.56 515.76 L 594.81 515.76 L 595.32 515.76 L 595.58 515.76 L 596.09 534.00 L 596.35 534.00 L 596.86 534.00 L 597.12 534.00 L 597.63 534.00 L 597.89 515.76 L 598.40 515.76 L 598.65 515.76 L 599.17 515.76 L 599.42 515.76 L 599.94 515.76 L 600.19 515.76 L 600.70 515.76 L 600.96 515.76 L 601.47 515.76 L 601.98 515.76 L 602.24 515.76 L 602.75 515.76 L 603.01 515.76 L 603.52 515.76 L 603.78 515.76 L 604.29 515.76 L 604.55 515.76 L 605.06 515.76 L 605.31 515.76 L 605.83 515.76 L 606.08 515.76 L 606.60 515.76 L 606.85 515.76 L 607.36 515.76 L 607.62 515.76 L 608.13 515.76 L 608.39 515.76 L 608.90 515.76 L 609.16 515.76 L 609.67 515.76 L 609.92 515.76 L 610.44 515.76 L 610.69 515.76 L 611.21 515.76 L 611.46 515.76 L 611.97 515.76 L 612.23 515.76 L 612.74 515.76 L 613.00 515.76 L 613.51 515.76 L 613.77 515.76 L 614.28 515.76 L 614.54 515.76 L 615.05 515.76 L 615.56 515.76 L 615.82 515.76 L 616.33 515.76 L 616.58 515.76 L 617.10 515.76 L 617.35 515.76 L 617.87 515.76 L 618.12 515.76 L 618.63 515.76 L 618.89 515.76 L 619.40 515.76 L 619.66 515.76 L 620.17 515.76 L 620.43 515.76 L 620.94 515.76 L 621.20 515.76 L 621.71 515.76 L 621.96 515.76 L 622.48 515.76 L 622.73 515.76 L 623.24 515.76 L 623.50 515.76 L 624.01 515.76 L 624.27 515.76 L 624.78 515.76 L 625.04 515.76 L 625.55 515.76 L 625.81 515.76 L 626.32 515.76 L 626.57 515.76 L 627.09 515.76 L 627.34 515.76 L 627.86 515.76 L 628.37 515.76 L 628.62 515.76 L 629.14 515.76 L 629.39 515.76 L 629.90 515.76 L 630.16 515.76 L 630.67 515.76 L 630.93 515.76 L 631.44 515.76 L 631.70 515.76 L 632.21 515.76 L 632.47 515.76 L 632.98 515.76 L 633.23 515.76 L 633.75 515.76 L 634.00 515.76 L 634.51 515.76 L 634.77 515.76 L 635.28 515.76 L 635.54 515.76 L 636.05 515.76 L 636.31 515.76 L 636.82 515.76 L 637.08 515.76 L 637.59 515.76 L 637.84 515.76 L 638.36 515.76 L 638.61 515.76 L 639.13 515.76 L 639.38 515.76 L 639.89 515.76 L 640.15 515.76 L 640.66 515.76 L 641.17 515.76 L 641.43 515.76 L 641.94 515.76 L 642.20 515.76 L 642.71 515.76 L 642.97 515.76 L 643.48 515.76 L 643.74 515.76 L 644.25 515.76 L 644.50 515.76 L 645.02 515.76 L 645.27 515.76 L 645.79 515.76 L 646.04 515.76 L 646.55 515.76 L 646.81 515.76 L 647.32 515.76 L 647.58 515.76 L 648.09 515.76 L 648.35 515.76 L 648.86 515.76 L 649.12 515.76 L 649.63 515.76 L 649.88 515.76 L 650.40 515.76 L 650.65 515.76 L 651.16 515.76 L 651.42 515.76 L 651.93 515.76 L 652.19 515.76 L 652.70 515.76 L 652.96 515.76 L 653.47 515.76 L 653.98 515.76 L 654.24 515.76 L 654.75 515.76 L 655.01 515.76 L 655.52 515.76 L 655.77 515.76 L 656.29 515.76 L 656.54 515.76 L 657.06 515.76 L 657.31 515.76 L 657.82 515.76 L 658.08 515.76 L 658.59 515.76 L 658.85 515.76 L 659.36 515.76 L 659.62 515.76 L 660.13 515.76 L 660.39 515.76 L 660.90 515.76 L 661.15 515.76 L 661.67 515.76 L 661.92 515.76 L 662.43 515.76 L 662.69 515.76 L 663.20 515.76 L 663.46 515.76 L 663.97 515.76 L 664.23 515.76 L 664.74 515.76 L 665.00 515.76 L 665.51 515.76 L 665.76 515.76 L 666.28 515.76 L 666.79 515.76 L 667.05 515.76 L 667.56 515.76 L 667.81 515.76 L 668.33 515.76 L 668.58 515.76 L 669.09 515.76 L 669.35 515.76 L 669.86 515.76 L 670.12 515.76 L 670.63 515.76 L 670.89 515.76 L 671.40 515.76 L 671.66 515.76 L 672.17 515.76 L 672.42 515.76 L 672.94 515.76 L 673.19 515.76 L 673.71 515.76 L 673.96 515.76 L 674.47 515.76 L 674.73 515.76 L 675.24 515.76 L 675.50 515.76 L 676.01 515.76 L 676.27 515.76 L 676.78 515.76 L 677.03 515.76 L 677.55 515.76 L 677.80 515.76 L 678.32 515.76 L 678.83 515.76 L 679.08 515.76 L 679.60 515.76 L 679.85 515.76 L 680.36 515.76 L 680.62 515.76 L 681.13 515.76 L 681.39 515.76 L 681.90 515.76 L 682.16 515.76 L 682.67 515.76 L 682.93 515.76 L 683.44 515.76 L 683.69 515.76 L 684.21 515.76 L 684.46 515.76 L 684.98 515.76 L 685.23 515.76 L 685.74 515.76 L 686.00 515.76 L 686.51 515.76 L 686.77 515.76 L 687.28 515.76 L 687.54 515.76 L 688.05 515.76 L 688.31 515.76 L 688.82 515.76 L 689.07 515.76 L 689.59 515.76 L 689.84 515.76 L 690.35 515.76 L 690.61 515.76 L 691.12 515.76 L 691.64 515.76 L 691.89 515.76 L 692.40 515.76 L 692.66 515.76 L 693.17 515.76 L 693.43 515.76 L 693.94 515.76 L 694.20 515.76 L 694.71 515.76 L 694.97 515.76 L 695.48 515.76 L 695.73 515.76 L 696.25 515.76 L 696.50 515.76 L 697.01 515.76 L 697.27 515.76 L 697.78 515.76 L 698.04 515.76 L 698.55 515.76 L 698.81 515.76 L 699.32 515.76 L 699.58 515.76 L 700.09 515.76 L 700.34 515.76 L 700.86 515.76 L 701.11 515.76 L 701.62 515.76 L 701.88 515.76 L 702.39 515.76 L 702.65 515.76 L 703.16 515.76 L 703.67 515.76 L 703.93 515.76 L 704.44 515.76 L 704.70 515.76 L 705.21 515.76 L 705.47 515.76 L 705.98 515.76 L 706.24 515.76 L 706.75 515.76 L 707.00 515.76 L 707.52 515.76 L 707.77 515.76 L 708.28 515.76 L 708.54 515.76 L 709.05 515.76 L 709.31 515.76 L 709.82 515.76 L 710.08 515.76 L 710.59 515.76 L 710.85 515.76 L 711.36 515.76 L 711.61 515.76 L 712.13 515.76 L 712.38 515.76 L 712.90 515.76 L 713.15 515.76 L 713.66 515.76 L 713.92 515.76 L 714.43 515.76 L 714.69 515.76 L 715.20 515.76 L 715.71 515.76 L 715.97 515.76 L 716.48 515.76 L 716.74 515.76 L 717.25 515.76 L 717.51 515.76 L 718.02 515.76 L 718.27 515.76 L 718.79 515.76 L 719.04 515.76 L 719.55 515.76 L 719.81 515.76 L 720.32 515.76 L 720.58 515.76 L 721.09 515.76 L 721.35 515.76 L 721.86 515.76 L 722.12 515.76 L 722.63 515.76 L 722.88 515.76 L 723.40 515.76 L 723.65 515.76 L 724.17 515.76 L 724.42 515.76 L 724.93 515.76 L 725.19 515.76 L 725.70 515.76 L 725.96 515.76 L 726.47 515.76 L 726.73 515.76 L 727.24 515.76 L 727.75 515.76 L 728.01 515.76 L 728.52 515.76 L 728.78 515.76 L 729.29 515.76 L 729.54 515.76 L 730.06 515.76 L 730.31 515.76 L 730.83 515.76 L 731.08 515.76 L 731.59 515.76 L 731.85 515.76 L 732.36 515.76 L 732.62 515.76 L 733.13 515.76 L 733.39 515.76 L 733.90 515.76 L 734.16 515.76 L 734.67 515.76 L 734.92 515.76 L 735.44 515.76 L 735.69 515.76 L 736.20 515.76 L 736.46 515.76 L 736.97 515.76 L 737.23 515.76 L 737.74 515.76 L 738.00 515.76 L 738.51 515.76 L 738.77 515.76 L 739.28 515.76 L 739.79 515.76 L 740.05 515.76 L 740.56 515.76 L 740.82 515.76 L 741.33 515.76 L 741.58 515.76 L 742.10 515.76 L 742.35 515.76 L 742.86 515.76 L 743.12 515.76 L 743.63 515.76 L 743.89 515.76 L 744.40 515.76 L 744.66 515.76 L 745.17 515.76 L 745.43 515.76 L 745.94 515.76 L 746.19 515.76 L 746.71 515.76 L 746.96 515.76 L 747.47 515.76 L 747.73 515.76 L 748.24 515.76 L 748.50 515.76 L 749.01 515.76 L 749.27 515.76 L 749.78 515.76 L 750.04 515.76 L 750.55 515.76 L 750.80 515.76 L 751.32 515.76 L 751.83 515.76 L 752.09 515.76 L 752.60 515.76 L 752.85 515.76 L 753.37 515.76 L 753.62 515.76 L 754.13 515.76 L 754.39 515.76 L 754.90 515.76 L 755.16 515.76 L 755.67 515.76 L 755.93 515.76 L 756.44 515.76 L 756.70 515.76 L 757.21 515.76 L 757.46 515.76 L 757.98 515.76 L 758.23 515.76 L 758.75 515.76 L 759.00 515.76 L 759.51 515.76 L 759.77 515.76 L 760.28 515.76 L 760.54 515.76 L 761.05 515.76 L 761.31 515.76 L 761.82 515.76 L 762.08 515.76 L 762.59 515.76 L 762.84 515.76 L 763.36 515.76 L 763.87 515.76 L 764.12 515.76 L 764.64 515.76 L 764.89 515.76 L 765.40 515.76 L 765.66 515.76 L 766.17 515.76 L 766.43 515.76 L 766.94 515.76 L 767.20 515.76 L 767.71 515.76 L 767.97 515.76 L 768.48 515.76 L 768.73 515.76 L 769.25 515.76 L 769.50 515.76 L 770.02 515.76 L 770.27 515.76 L 770.78 515.76 L 771.04 515.76 L 771.55 515.76 L 771.81 515.76 L 772.32 515.76 L 772.58 515.76 L 773.09 515.76 L 773.35 515.76 L 773.86 515.76 L 774.11 515.76 L 774.63 515.76 L 774.88 515.76 L 775.39 515.76 L 775.91 515.76 L 776.16 515.76 L 776.68 515.76 L 776.93 515.76 L 777.44 515.76 L 777.70 515.76 L 778.21 515.76 L 778.47 515.76 L 778.98 515.76 L 779.24 515.76 L 779.75 515.76 L 780.01 515.76 L 780.52 515.76 L 780.77 515.76 L 781.29 515.76 L 781.54 515.76 L 782.05 515.76 L 782.31 515.76 L 782.82 515.76 L 783.08 515.76 L 783.59 515.76 L 783.85 515.76 L 784.36 515.76 L 784.62 515.76 L 785.13 515.76 L 785.38 515.76 L 785.90 515.76 L 786.15 515.76 L 786.66 515.76 L 786.92 515.76 L 787.43 515.76 L 787.95 515.76 L 788.20 515.76 L 788.71 515.76 L 788.97 515.76 L 789.48 515.76 L 789.74 515.76 L 790.25 515.76 L 790.51 515.76 L 791.02 515.76 L 791.28 515.76 L 791.79 515.76 L 792.04 515.76 L 792.56 515.76 L 792.81 515.76 L 793.32 515.76 L 793.58 515.76 L 794.09 515.76 L 794.35 515.76 L 794.86 515.76 L 795.12 515.76 L 795.63 515.76 L 795.89 515.76 L 796.40 515.76 L 796.65 515.76 L 797.17 515.76 L 797.42 515.76 L 797.94 515.76 L 798.19 515.76 L 798.70 515.76 L 799.22 515.76 L 799.47 515.76 L 799.98 515.76 L 800.24 515.76 L 800.75 515.76 L 801.01 515.76 L 801.52 515.76 L 801.78 515.76 L 802.29 515.76 L 802.55 515.76 L 803.06 515.76 L 803.31 515.76 L 915.25 534.00 L 915.25 534.00 L 915.25 534.00 L 915.25 515.76 L 915.25 515.76 L 915.25 515.76 L 915.25 515.76 L 915.25 515.76 L 915.25 515.76 L 915.25 515.76 L 915.25 515.76 L 915.25 515.76 L 915.25 515.76 L 915.25 515.76 L 915.25 515.76 L 915.25 515.76 L 915.25 515.76 L 915.25 515.76 L 915.25 515.76 L 915.25 515.76 L 915.25 515.76 L 915.51 515.76 L 915.51 515.76 L 915.51 515.76 L 915.51 515.76 L 915.51 515.76 L 915.51 515.76 L 915.51 515.76 L 915.51 515.76 L 915.51 515.76 L 915.51 515.76 L 915.51 515.76 L 915.51 515.76 L 915.51 515.76 L 915.51 515.76 L 915.51 515.76 L 915.51 534.00 L 915.51 534.00 L 915.51 534.00 L 915.51 534.00 L 915.51 534.00 L 915.51 534.00 L 915.51 534.00 L 915.51 534.00 L 915.51 534.00 L 915.51 534.00 L 915.51 534.00 L 915.51 534.00 L 915.51 534.00 L 915.51 534.00 L 915.51 534.00 L 915.51 534.00 L 915.51 534.00 L 915.51 534.00 L 915.51 534.00 L 915.51 534.00 L 915.51 534.00 L 915.51 534.00 L 915.51 534.00 L 915.51 534.00 L 915.51 534.00 L 915.51 534.00 L 915.51 534.00 L 915.51 534.00 L 915.51 534.00 L 915.51 534.00 L 915.51 534.00 L 915.51 534.00 L 915.51 534.00 L 915.51 534.00 L 915.51 534.00 L 915.51 534.00 L 915.51 534.00 L 915.51 534.00 L 915.51 534.00 L 915.51 534.00 L 915.51 534.00 L 915.51 534.00 L 915.76 534.00 L 915.76 534.00 L 915.76 534.00 L 915.76 534.00 L 915.76 534.00 L 915.76 534.00 L 915.76 534.00 L 915.76 534.00 L 915.76 534.00 L 915.76 534.00 L 915.76 442.80 L 915.76 442.80 L 915.76 433.68 L 916.02 433.68 L 916.53 433.68 L 916.79 433.68 L 917.04 306.00 L 917.55 306.00 L 917.81 306.00 L 918.32 324.24 L 918.58 324.24 L 919.09 415.44 L 919.35 415.44 L 919.86 415.44 L 920.12 415.44 L 920.63 415.44 L 920.88 415.44 L 921.40 415.44 L 921.65 415.44 L 922.17 415.44 L 922.68 415.44 L 922.93 415.44 L 923.45 415.44 L 923.70 415.44 L 924.21 415.44 L 924.47 488.40 L 924.98 488.40 L 925.24 488.40 L 925.75 488.40 L 926.01 488.40 L 926.52 488.40 L 926.78 488.40 L 927.29 488.40 L 927.54 488.40 L 928.06 442.80 L 928.31 442.80 L 928.83 442.80 L 929.08 442.80 L 929.59 442.80 L 929.85 442.80 L 930.36 442.80 L 930.62 442.80 L 931.13 442.80 L 931.39 442.80 L 931.90 442.80 L 932.16 442.80 L 932.67 442.80 L 932.92 506.64 L 933.44 470.16 L 933.69 506.64 L 934.20 506.64 L 934.46 461.04 L 934.97 461.04 L 935.23 461.04 L 935.74 461.04 L 936.25 461.04 L 936.51 461.04 L 937.02 461.04 L 937.28 461.04 L 937.79 461.04 L 938.05 461.04 L 938.56 461.04 L 938.82 461.04 L 939.33 461.04 L 939.58 461.04 L 940.10 461.04 L 940.35 488.40 L 940.86 488.40 L 941.12 488.40 L 941.63 488.40 L 941.89 506.64 L 942.40 506.64 L 942.66 506.64 L 943.17 506.64 L 943.43 506.64 L 943.94 506.64 L 944.19 506.64 L 944.71 506.64 L 944.96 506.64 L 945.47 506.64 L 945.73 506.64 L 946.24 506.64 L 946.50 506.64 L 947.01 506.64 L 947.27 506.64 L 947.78 506.64 L 948.04 506.64 L 948.55 506.64 L 949.06 506.64 L 949.32 506.64 L 949.83 506.64 L 950.09 506.64 L 950.60 506.64 L 950.85 506.64 L 951.37 506.64 L 951.62 506.64 L 952.13 506.64 L 952.39 506.64 L 952.90 506.64 L 953.16 506.64 L 953.67 506.64 L 953.93 506.64 L 954.44 506.64 L 954.70 506.64 L 955.21 506.64 L 955.46 506.64 L 955.98 506.64 L 956.23 506.64 L 956.75 506.64 L 957.00 506.64 L 957.51 506.64 L 957.77 506.64 L 958.28 506.64 L 958.54 506.64 L 959.05 506.64 L 959.31 506.64 L 959.82 506.64 L 960.08 506.64 L 960.59 506.64 L 960.84 506.64 L 961.36 506.64 L 961.87 506.64 L 962.12 506.64 L 962.64 506.64 L 962.89 506.64 L 963.40 506.64 L 963.66 506.64 L 964.17 506.64 L 964.43 506.64 L 964.94 506.64 L 965.20 506.64 L 965.71 506.64 L 965.97 506.64 L 966.48 506.64 L 966.73 506.64 L 967.25 506.64 L 967.50 506.64 L 968.02 506.64 L 968.27 506.64 L 968.78 506.64 L 969.04 506.64 L 969.55 506.64 L 969.81 506.64 L 970.32 506.64 L 970.58 506.64 L 971.09 506.64 L 971.35 506.64 L 971.86 506.64 L 972.11 506.64 L 972.63 506.64 L 972.88 506.64 L 973.39 506.64 L 973.91 506.64 L 974.16 515.76 L 974.68 515.76 L 974.93 515.76 L 975.44 506.64 L 975.70 506.64 L 976.21 506.64 L 976.47 506.64 L 976.98 506.64 L 977.24 506.64 L 977.75 506.64 L 978.01 506.64 L 978.52 506.64 L 978.77 506.64 L 979.29 506.64 L 979.54 515.76 L 980.05 515.76 L 980.31 515.76 L 980.82 515.76 L 981.08 515.76 L 981.59 515.76 L 981.85 515.76 L 982.36 515.76 L 982.62 515.76 L 983.13 515.76 L 983.38 515.76 L 983.90 515.76 L 984.15 534.00 L 984.66 534.00 L 984.92 534.00 L 985.43 534.00 L 985.69 534.00 L 986.20 534.00 L 986.71 534.00 L 986.97 534.00 L 987.48 515.76 L 987.74 534.00 L 988.25 534.00 L 988.51 534.00 L 989.02 534.00 L 989.28 534.00 L 989.79 534.00 L 990.04 534.00 L 990.56 534.00 L 990.81 534.00 L 991.32 534.00 L 991.58 534.00 L 992.09 534.00 L 992.35 534.00 L 992.86 534.00 L 993.12 534.00 L 993.63 534.00 L 993.89 534.00 L 994.40 534.00 L 994.65 534.00 L 995.17 534.00 L 995.42 534.00 L 995.94 534.00 L 996.19 534.00 L 996.70 534.00 L 996.96 534.00 L 997.47 534.00 L 997.73 534.00 L 998.24 534.00 L 998.50 534.00 L 999.01 534.00 L 999.52 534.00 L 999.78 534.00 L 1000.29 534.00 L 1000.55 534.00 L 1001.06 534.00 L 1001.31 534.00 L 1001.83 534.00 L 1002.08 534.00 L 1002.60 534.00 L 1002.85 534.00 L 1003.36 534.00 L 1003.62 534.00 L 1004.13 534.00 L 1004.39 534.00 L 1004.90 534.00 L 1005.16 534.00 L 1005.67 534.00 L 1005.92 534.00 L 1006.44 534.00 L 1006.69 534.00 L 1007.21 534.00 L 1007.46 534.00 L 1007.97 534.00 L 1008.23 534.00 L 1008.74 534.00 L 1009.00 534.00 L 1009.51 534.00 L 1009.77 534.00 L 1010.28 534.00 L 1010.54 534.00 L 1011.05 534.00 L 1011.56 534.00 L 1011.82 534.00 L 1012.33 534.00 L 1012.58 534.00 L 1013.10 534.00 L 1013.35 534.00 L 1013.87 534.00 L 1014.12 534.00 L 1014.63 534.00 L 1014.89 534.00 L 1015.40 534.00 L 1015.66 534.00 L 1016.17 534.00 L 1016.43 534.00 L 1016.94 534.00 L 1017.20 534.00 L 1017.71 534.00 L 1017.96 534.00 L 1018.48 534.00 L 1018.73 534.00 L 1019.24 534.00 L 1019.50 534.00 L 1020.01 534.00 L 1020.27 534.00 L 1020.78 534.00 L 1021.04 534.00 L 1021.55 534.00 L 1021.81 534.00 L 1022.32 534.00 L 1022.57 534.00 L 1023.09 534.00 L 1023.34 534.00 L 1023.86 534.00 L 1024.11 534.00 L 1024.62 534.00 L 1025.14 534.00 L 1025.39 534.00 L 1025.90 534.00 L 1026.16 534.00 L 1026.67 534.00 L 1026.93 534.00 L 1027.44 534.00 L 1027.70 534.00 L 1028.21 534.00 L 1028.47 534.00 L 1028.98 534.00 L 1029.23 534.00 L 1029.75 534.00 L 1030.00 534.00 L 1030.51 534.00 L 1030.77 534.00 L 1031.28 534.00 L 1031.54 534.00 L 1032.05 534.00 L 1032.31 534.00 L 1032.82 534.00 L 1033.08 534.00 L 1033.59 534.00 L 1033.84 534.00 L 1034.36 534.00 L 1034.61 534.00 L 1035.13 534.00 L 1035.38 534.00 L 1035.89 534.00 L 1036.15 534.00 L 1036.66 515.76 L 1036.92 515.76 L 1037.43 506.64 L 1037.94 470.16 L 1038.20 470.16 L 1038.71 461.04 L 1038.97 461.04 L 1039.48 442.80 L 1039.74 397.20 L 1040.25 388.08 L 1040.50 369.84 L 1041.02 369.84 L 1041.27 369.84 L 1041.79 369.84 L 1042.04 369.84 L 1042.55 369.84 L 1042.81 388.08 L 1043.32 388.08 L 1043.58 388.08 L 1044.09 388.08 L 1044.35 388.08 L 1044.86 397.20 L 1045.12 433.68 L 1045.63 470.16 L 1045.88 506.64 L 1046.40 515.76 L 1046.65 515.76 L 1047.16 515.76 L 1047.42 515.76 L 1047.93 515.76 L 1048.19 515.76 L 1048.70 515.76 L 1048.96 515.76 L 1049.47 515.76 L 1049.73 515.76 L 1050.24 515.76 L 1050.49 515.76 L 1051.01 506.64 L 1051.52 461.04 L 1051.77 415.44 L 1052.29 415.44 L 1052.54 433.68 L 1053.06 442.80 L 1053.31 388.08 L 1053.82 351.60 L 1054.08 351.60 L 1054.59 351.60 L 1054.85 351.60 L 1055.36 351.60 L 1055.62 351.60 L 1056.13 351.60 L 1056.39 369.84 L 1056.90 369.84 L 1057.15 433.68 L 1057.67 433.68 L 1057.92 433.68 L 1058.43 461.04 L 1058.69 488.40 L 1059.20 515.76 L 1059.46 515.76 L 1059.97 515.76 L 1060.23 515.76 L 1060.74 515.76 L 1061.00 506.64 L 1061.51 506.64 L 1061.76 506.64 L 1062.28 506.64 L 1062.53 488.40 L 1063.05 470.16 L 1063.30 470.16 L 1063.81 506.64 L 1064.07 506.64 L 1064.58 470.16 L 1065.09 461.04 L 1065.35 442.80 L 1065.86 433.68 L 1066.12 433.68 L 1066.63 506.64 L 1066.89 506.64 L 1067.40 506.64 L 1067.66 506.64 L 1068.17 506.64 L 1068.42 506.64 L 1068.94 506.64 L 1069.19 488.40 L 1069.71 488.40 L 1069.96 488.40 L 1070.47 488.40 L 1070.73 488.40 L 1071.24 506.64 L 1071.50 488.40 L 1072.01 488.40 L 1072.27 506.64 L 1072.78 506.64 L 1073.03 506.64 L 1073.55 506.64 L 1073.80 506.64 L 1074.32 506.64 L 1074.57 506.64 L 1075.08 506.64 L 1075.34 506.64 L 1075.85 506.64 L 1076.11 488.40 L 1076.62 488.40 L 1076.88 488.40 L 1077.39 488.40 L 1077.65 488.40 L 1078.16 488.40 L 1078.67 488.40 L 1078.93 488.40 L 1079.44 488.40 L 1079.69 488.40 L 1080.21 488.40 L 1080.46 488.40 L 1080.98 488.40 L 1081.23 488.40 L 1081.74 488.40 L 1082.00 488.40" fill="none" stroke="#f97316" stroke-width="2.7" stroke-dasharray="8 6"/>
<path d="M 92.00 489.77 L 92.26 489.77 L 92.77 507.55 L 93.02 489.77 L 93.54 507.55 L 93.79 489.77 L 94.31 516.22 L 94.56 516.22 L 95.07 534.00 L 95.33 534.00 L 95.84 534.00 L 96.10 534.00 L 96.61 534.00 L 96.87 534.00 L 97.38 534.00 L 97.64 534.00 L 98.15 534.00 L 98.40 534.00 L 98.92 534.00 L 99.17 534.00 L 99.68 534.00 L 99.94 534.00 L 100.45 534.00 L 100.97 534.00 L 101.22 534.00 L 101.73 534.00 L 101.99 534.00 L 102.50 534.00 L 102.76 534.00 L 103.27 534.00 L 103.53 534.00 L 104.04 534.00 L 104.29 534.00 L 104.81 534.00 L 105.06 534.00 L 105.58 534.00 L 105.83 534.00 L 106.34 534.00 L 106.60 534.00 L 107.11 534.00 L 107.37 534.00 L 107.88 534.00 L 108.14 534.00 L 108.65 534.00 L 108.91 534.00 L 109.42 534.00 L 109.67 534.00 L 110.19 516.22 L 110.44 516.22 L 110.95 516.22 L 111.21 489.77 L 111.72 445.54 L 111.98 463.32 L 112.49 445.54 L 112.75 436.87 L 113.26 419.09 L 113.52 436.87 L 114.03 436.87 L 114.28 445.99 L 114.80 445.99 L 115.05 463.32 L 115.57 472.44 L 115.82 472.44 L 116.33 472.44 L 116.59 472.44 L 117.10 472.44 L 117.36 489.77 L 117.87 507.55 L 118.13 472.44 L 118.64 445.99 L 119.15 436.87 L 119.41 445.99 L 119.92 436.87 L 120.18 437.33 L 120.69 437.33 L 120.94 437.33 L 121.46 437.33 L 121.71 445.99 L 122.23 445.99 L 122.48 445.99 L 122.99 437.33 L 123.25 437.33 L 123.76 437.33 L 124.02 437.33 L 124.53 437.33 L 124.79 437.33 L 125.30 437.33 L 125.55 419.54 L 126.07 419.54 L 126.32 419.54 L 126.84 420.00 L 127.09 420.00 L 127.60 420.00 L 127.86 420.00 L 128.37 402.22 L 128.63 402.22 L 129.14 402.22 L 129.40 402.22 L 129.91 402.22 L 130.17 393.55 L 130.68 393.55 L 130.93 393.55 L 131.45 393.55 L 131.70 394.01 L 132.21 394.01 L 132.47 394.01 L 132.98 394.01 L 133.24 394.01 L 133.75 376.22 L 134.01 402.67 L 134.52 402.67 L 134.78 402.67 L 135.29 402.67 L 135.80 402.67 L 136.06 402.67 L 136.57 394.01 L 136.83 394.01 L 137.34 394.01 L 137.59 394.46 L 138.11 394.46 L 138.36 394.46 L 138.87 394.46 L 139.13 394.46 L 139.64 394.46 L 139.90 394.46 L 140.41 394.46 L 140.67 377.14 L 141.18 377.14 L 141.44 377.14 L 141.95 394.46 L 142.20 394.46 L 142.72 394.46 L 142.97 394.46 L 143.49 403.58 L 143.74 403.58 L 144.25 403.58 L 144.51 403.58 L 145.02 403.58 L 145.28 403.58 L 145.79 403.58 L 146.05 420.91 L 146.56 420.91 L 146.82 420.91 L 147.33 420.91 L 147.58 421.37 L 148.10 438.70 L 148.35 438.70 L 148.86 438.70 L 149.12 438.70 L 149.63 438.70 L 149.89 421.37 L 150.40 490.68 L 150.66 421.37 L 151.17 421.37 L 151.68 421.37 L 151.94 421.37 L 152.45 421.37 L 152.71 421.37 L 153.22 421.37 L 153.47 404.50 L 153.99 490.68 L 154.24 508.01 L 154.76 508.01 L 155.01 516.67 L 155.52 516.67 L 155.78 516.67 L 156.29 516.67 L 156.55 516.67 L 157.06 534.00 L 157.32 534.00 L 157.83 534.00 L 158.09 534.00 L 158.60 534.00 L 158.85 516.67 L 159.37 516.67 L 159.62 508.01 L 160.13 508.01 L 160.39 508.01 L 160.90 508.01 L 161.16 508.01 L 161.67 508.01 L 161.93 516.67 L 162.44 516.67 L 162.70 516.67 L 163.21 516.67 L 163.46 516.67 L 163.98 516.67 L 164.23 516.67 L 164.75 516.67 L 165.00 516.67 L 165.51 534.00 L 165.77 534.00 L 166.28 534.00 L 166.79 534.00 L 167.05 534.00 L 167.56 534.00 L 167.82 534.00 L 168.33 534.00 L 168.59 534.00 L 169.10 534.00 L 169.36 534.00 L 169.87 534.00 L 170.12 534.00 L 170.64 534.00 L 170.89 534.00 L 171.40 534.00 L 171.66 534.00 L 172.17 534.00 L 172.43 534.00 L 172.94 534.00 L 173.20 534.00 L 173.71 534.00 L 173.97 534.00 L 174.48 534.00 L 174.73 534.00 L 175.25 534.00 L 175.50 534.00 L 176.02 534.00 L 176.27 534.00 L 176.78 534.00 L 177.04 534.00 L 177.55 534.00 L 177.81 534.00 L 178.32 534.00 L 178.58 534.00 L 179.09 534.00 L 179.35 534.00 L 179.86 534.00 L 180.11 534.00 L 180.63 534.00 L 180.88 534.00 L 181.39 534.00 L 181.91 534.00 L 182.16 534.00 L 182.68 534.00 L 182.93 534.00 L 183.44 534.00 L 183.70 534.00 L 184.21 534.00 L 184.47 534.00 L 184.98 534.00 L 185.24 534.00 L 185.75 534.00 L 186.01 534.00 L 186.52 534.00 L 186.77 534.00 L 187.29 534.00 L 187.54 534.00 L 188.05 534.00 L 188.31 534.00 L 188.82 534.00 L 189.08 534.00 L 189.59 534.00 L 189.85 534.00 L 190.36 517.13 L 190.62 508.46 L 191.13 508.46 L 191.38 508.46 L 191.90 508.46 L 192.15 517.13 L 192.66 508.46 L 192.92 491.59 L 193.43 491.59 L 193.69 491.59 L 194.20 491.59 L 194.46 491.59 L 194.97 491.59 L 195.23 491.59 L 195.74 508.46 L 195.99 508.46 L 196.51 517.13 L 197.02 517.13 L 197.28 517.13 L 197.79 517.13 L 198.04 517.13 L 198.56 517.13 L 198.81 534.00 L 199.32 534.00 L 199.58 517.13 L 200.09 534.00 L 200.35 534.00 L 200.86 534.00 L 201.12 534.00 L 201.63 534.00 L 201.89 534.00 L 202.40 534.00 L 202.65 534.00 L 203.17 534.00 L 203.42 534.00 L 203.94 534.00 L 204.19 534.00 L 204.70 534.00 L 204.96 534.00 L 205.47 534.00 L 205.73 534.00 L 206.24 534.00 L 206.50 534.00 L 207.01 534.00 L 207.27 534.00 L 207.78 534.00 L 208.03 534.00 L 208.55 534.00 L 208.80 534.00 L 209.31 534.00 L 209.57 534.00 L 210.08 534.00 L 210.34 534.00 L 210.85 534.00 L 211.36 534.00 L 211.62 534.00 L 212.13 534.00 L 212.39 534.00 L 212.90 534.00 L 213.16 534.00 L 213.67 534.00 L 213.92 534.00 L 214.44 534.00 L 214.69 534.00 L 215.21 534.00 L 215.46 534.00 L 215.97 534.00 L 216.23 534.00 L 216.74 534.00 L 217.00 534.00 L 217.51 534.00 L 217.77 534.00 L 218.28 534.00 L 218.54 534.00 L 219.05 534.00 L 219.30 534.00 L 219.82 534.00 L 220.07 534.00 L 220.58 534.00 L 220.84 534.00 L 221.35 534.00 L 221.61 534.00 L 222.12 534.00 L 222.38 534.00 L 222.89 534.00 L 223.15 534.00 L 223.66 534.00 L 223.91 517.13 L 224.43 517.13 L 224.68 474.72 L 225.20 423.65 L 225.71 406.32 L 225.96 398.11 L 226.48 423.65 L 226.73 491.59 L 227.24 491.59 L 227.50 508.46 L 228.01 508.46 L 228.27 491.59 L 228.78 466.06 L 229.04 423.65 L 229.55 398.11 L 229.81 380.78 L 230.32 398.11 L 230.57 398.11 L 231.09 398.11 L 231.34 406.32 L 231.86 406.32 L 232.11 406.32 L 232.62 406.32 L 232.88 423.65 L 233.39 423.65 L 233.65 398.11 L 234.16 406.78 L 234.42 398.11 L 234.93 398.11 L 235.18 398.11 L 235.70 423.65 L 235.95 508.46 L 236.47 508.46 L 236.72 534.00 L 237.23 534.00 L 237.49 534.00 L 238.00 534.00 L 238.26 534.00 L 238.77 534.00 L 239.03 534.00 L 239.54 534.00 L 239.80 534.00 L 240.31 534.00 L 240.82 534.00 L 241.08 534.00 L 241.59 534.00 L 241.84 534.00 L 242.36 534.00 L 242.61 534.00 L 243.13 534.00 L 243.38 534.00 L 243.89 534.00 L 244.15 534.00 L 244.66 534.00 L 244.92 534.00 L 245.43 517.13 L 245.69 517.13 L 246.20 517.13 L 246.46 508.46 L 246.97 508.46 L 247.22 508.46 L 247.74 517.13 L 247.99 534.00 L 248.50 534.00 L 248.76 534.00 L 249.27 534.00 L 249.53 534.00 L 250.04 534.00 L 250.30 534.00 L 250.81 534.00 L 251.07 534.00 L 251.58 534.00 L 251.83 534.00 L 252.35 534.00 L 252.60 534.00 L 253.12 534.00 L 253.37 534.00 L 253.88 534.00 L 254.14 534.00 L 254.65 534.00 L 255.16 534.00 L 255.42 534.00 L 255.93 534.00 L 256.19 534.00 L 256.70 534.00 L 256.96 534.00 L 257.47 534.00 L 257.73 534.00 L 258.24 534.00 L 258.49 534.00 L 259.01 534.00 L 259.26 534.00 L 259.77 534.00 L 260.03 534.00 L 260.54 534.00 L 260.80 534.00 L 261.31 534.00 L 261.57 534.00 L 262.08 534.00 L 262.34 534.00 L 262.85 534.00 L 263.10 534.00 L 263.62 534.00 L 263.87 534.00 L 264.39 534.00 L 264.64 534.00 L 265.15 534.00 L 265.41 534.00 L 265.92 534.00 L 266.18 534.00 L 266.69 534.00 L 266.95 534.00 L 267.46 534.00 L 267.72 534.00 L 268.23 534.00 L 268.48 534.00 L 269.00 534.00 L 269.51 534.00 L 269.76 534.00 L 270.28 517.13 L 270.53 517.13 L 271.05 517.13 L 271.30 517.13 L 271.81 508.46 L 272.07 517.13 L 272.58 517.13 L 272.84 517.13 L 273.35 517.13 L 273.61 517.13 L 274.12 517.13 L 274.38 534.00 L 274.89 534.00 L 275.14 534.00 L 275.66 534.00 L 275.91 534.00 L 276.42 534.00 L 276.68 534.00 L 277.19 534.00 L 277.45 534.00 L 277.96 534.00 L 278.22 534.00 L 278.73 534.00 L 278.99 534.00 L 279.50 534.00 L 279.75 534.00 L 280.27 534.00 L 280.52 534.00 L 281.03 534.00 L 281.29 534.00 L 281.80 534.00 L 282.06 534.00 L 282.57 534.00 L 282.83 534.00 L 283.34 534.00 L 283.85 534.00 L 284.11 534.00 L 284.62 534.00 L 284.88 534.00 L 285.39 534.00 L 285.65 534.00 L 286.16 534.00 L 286.41 534.00 L 286.93 534.00 L 287.18 534.00 L 287.69 534.00 L 287.95 534.00 L 288.46 534.00 L 288.72 534.00 L 289.23 534.00 L 289.49 534.00 L 290.00 534.00 L 290.26 534.00 L 290.77 534.00 L 291.02 534.00 L 291.54 534.00 L 291.79 534.00 L 292.31 534.00 L 292.56 534.00 L 293.07 534.00 L 293.33 534.00 L 293.84 534.00 L 294.10 534.00 L 294.61 534.00 L 294.87 534.00 L 295.38 534.00 L 295.64 534.00 L 296.15 534.00 L 296.40 534.00 L 296.92 534.00 L 297.17 534.00 L 297.68 534.00 L 298.20 534.00 L 298.45 534.00 L 298.97 534.00 L 299.22 534.00 L 299.73 534.00 L 299.99 534.00 L 300.50 534.00 L 300.76 534.00 L 301.27 534.00 L 301.53 534.00 L 302.04 534.00 L 302.29 534.00 L 302.81 534.00 L 303.06 534.00 L 303.58 534.00 L 303.83 534.00 L 304.34 534.00 L 304.60 534.00 L 305.11 534.00 L 305.37 534.00 L 305.88 534.00 L 306.14 534.00 L 306.65 534.00 L 306.91 534.00 L 307.42 534.00 L 307.67 534.00 L 308.19 534.00 L 308.44 534.00 L 308.95 534.00 L 309.21 534.00 L 309.72 534.00 L 309.98 534.00 L 310.49 534.00 L 310.75 534.00 L 311.26 534.00 L 311.52 534.00 L 312.03 534.00 L 312.28 534.00 L 312.80 534.00 L 313.31 534.00 L 313.57 534.00 L 314.08 534.00 L 314.33 534.00 L 314.85 534.00 L 315.10 534.00 L 315.61 534.00 L 315.87 534.00 L 316.38 534.00 L 316.64 534.00 L 317.15 534.00 L 317.41 534.00 L 317.92 534.00 L 318.18 534.00 L 318.69 534.00 L 318.94 534.00 L 319.46 534.00 L 319.71 534.00 L 320.23 534.00 L 320.48 534.00 L 320.99 534.00 L 321.25 534.00 L 321.76 534.00 L 322.02 534.00 L 322.53 534.00 L 322.79 534.00 L 323.30 534.00 L 323.55 534.00 L 324.07 534.00 L 324.32 534.00 L 324.84 534.00 L 392.71 534.00 L 392.71 534.00 L 392.71 534.00 L 392.71 534.00 L 392.71 534.00 L 392.71 534.00 L 392.71 534.00 L 392.71 534.00 L 392.71 534.00 L 392.71 534.00 L 392.97 534.00 L 392.97 534.00 L 392.97 534.00 L 392.97 534.00 L 392.97 534.00 L 392.97 534.00 L 392.97 534.00 L 392.97 534.00 L 392.97 534.00 L 392.97 534.00 L 392.97 534.00 L 392.97 534.00 L 392.97 534.00 L 392.97 534.00 L 392.97 534.00 L 392.97 534.00 L 392.97 534.00 L 392.97 534.00 L 392.97 534.00 L 392.97 534.00 L 392.97 534.00 L 392.97 534.00 L 392.97 534.00 L 392.97 534.00 L 392.97 534.00 L 392.97 534.00 L 392.97 534.00 L 392.97 534.00 L 392.97 534.00 L 392.97 534.00 L 392.97 516.67 L 392.97 508.46 L 392.97 491.14 L 392.97 439.61 L 392.97 396.74 L 392.97 465.60 L 392.97 473.81 L 392.97 465.60 L 392.97 396.74 L 392.97 396.74 L 392.97 473.81 L 392.97 508.46 L 392.97 473.81 L 392.97 422.28 L 392.97 396.74 L 392.97 362.54 L 392.97 362.54 L 392.97 362.54 L 392.97 379.42 L 392.97 396.74 L 392.97 439.61 L 392.97 491.14 L 392.97 473.81 L 392.97 508.46 L 392.97 516.67 L 393.23 516.67 L 393.23 516.67 L 393.23 516.67 L 393.23 516.67 L 393.23 516.67 L 393.23 516.67 L 393.23 516.67 L 393.23 516.67 L 393.23 508.46 L 393.23 491.14 L 393.23 491.14 L 393.23 473.81 L 393.23 465.60 L 393.23 448.27 L 393.23 405.41 L 393.23 379.87 L 393.23 362.54 L 393.23 362.54 L 393.23 362.54 L 393.23 379.87 L 393.23 405.41 L 393.23 422.74 L 393.23 405.41 L 393.23 534.00 L 393.23 534.00 L 393.23 534.00 L 393.23 534.00 L 393.48 534.00 L 393.74 534.00 L 394.25 534.00 L 394.51 534.00 L 395.02 534.00 L 395.28 534.00 L 395.79 534.00 L 396.04 534.00 L 396.56 534.00 L 396.81 534.00 L 397.32 534.00 L 397.58 534.00 L 398.09 534.00 L 398.35 534.00 L 398.86 534.00 L 399.12 534.00 L 399.63 534.00 L 399.89 534.00 L 400.40 534.00 L 400.65 534.00 L 401.17 534.00 L 401.42 534.00 L 401.94 534.00 L 402.19 534.00 L 402.70 534.00 L 402.96 534.00 L 403.47 534.00 L 403.98 534.00 L 404.24 534.00 L 404.75 534.00 L 405.01 534.00 L 405.52 534.00 L 405.78 534.00 L 406.29 534.00 L 406.55 534.00 L 407.06 534.00 L 407.31 534.00 L 407.83 534.00 L 408.08 534.00 L 408.60 534.00 L 408.85 534.00 L 409.36 534.00 L 409.62 534.00 L 410.13 534.00 L 410.39 534.00 L 410.90 534.00 L 411.16 534.00 L 411.67 534.00 L 411.92 534.00 L 412.44 534.00 L 412.69 534.00 L 413.21 534.00 L 413.46 534.00 L 413.97 534.00 L 414.23 534.00 L 414.74 534.00 L 415.00 534.00 L 415.51 534.00 L 415.77 534.00 L 416.28 534.00 L 416.54 534.00 L 417.05 534.00 L 417.30 534.00 L 417.82 534.00 L 418.07 534.00 L 418.58 534.00 L 418.84 534.00 L 419.35 534.00 L 419.87 534.00 L 420.12 534.00 L 420.63 534.00 L 420.89 534.00 L 421.40 534.00 L 421.66 534.00 L 422.17 534.00 L 422.43 534.00 L 422.94 534.00 L 423.20 534.00 L 423.71 534.00 L 423.96 534.00 L 424.48 534.00 L 424.73 534.00 L 425.24 534.00 L 425.50 534.00 L 426.01 534.00 L 426.27 534.00 L 426.78 534.00 L 427.04 534.00 L 427.55 534.00 L 427.81 534.00 L 428.32 534.00 L 428.57 534.00 L 429.09 534.00 L 429.34 534.00 L 429.86 534.00 L 430.11 534.00 L 430.62 534.00 L 430.88 534.00 L 431.39 534.00 L 431.65 534.00 L 432.16 534.00 L 432.42 534.00 L 432.93 534.00 L 433.18 534.00 L 433.70 534.00 L 433.95 534.00 L 434.47 534.00 L 434.98 534.00 L 435.23 534.00 L 435.75 534.00 L 436.00 534.00 L 436.51 534.00 L 436.77 534.00 L 437.28 534.00 L 437.54 534.00 L 438.05 534.00 L 438.31 534.00 L 438.82 534.00 L 439.08 534.00 L 439.59 534.00 L 439.84 534.00 L 440.36 534.00 L 440.61 534.00 L 441.13 534.00 L 441.38 534.00 L 441.89 534.00 L 442.15 534.00 L 442.66 534.00 L 442.92 534.00 L 443.43 534.00 L 443.69 534.00 L 444.20 534.00 L 444.46 534.00 L 444.97 534.00 L 445.22 534.00 L 445.74 534.00 L 445.99 534.00 L 446.50 534.00 L 446.76 534.00 L 447.27 534.00 L 447.53 534.00 L 448.04 534.00 L 448.30 534.00 L 448.81 534.00 L 449.07 534.00 L 449.58 534.00 L 449.83 534.00 L 450.35 534.00 L 450.86 534.00 L 451.12 534.00 L 451.63 534.00 L 451.88 534.00 L 452.40 534.00 L 452.65 534.00 L 453.16 534.00 L 453.42 534.00 L 453.93 534.00 L 454.19 534.00 L 454.70 534.00 L 454.96 534.00 L 455.47 534.00 L 455.73 534.00 L 456.24 516.67 L 456.49 516.67 L 457.01 516.67 L 457.26 516.67 L 457.77 516.67 L 458.03 516.67 L 458.54 534.00 L 458.80 534.00 L 459.31 534.00 L 459.57 534.00 L 460.08 534.00 L 460.34 534.00 L 460.85 534.00 L 461.10 534.00 L 461.62 534.00 L 461.87 534.00 L 462.39 534.00 L 462.64 534.00 L 463.15 534.00 L 463.41 534.00 L 463.92 534.00 L 464.18 516.67 L 464.69 516.67 L 464.95 516.67 L 465.46 473.35 L 465.72 465.14 L 466.23 465.14 L 466.74 447.82 L 467.00 439.15 L 467.51 473.35 L 467.76 465.14 L 468.28 447.82 L 468.53 473.35 L 469.05 490.68 L 469.30 508.01 L 469.81 516.67 L 470.07 516.67 L 470.58 516.67 L 470.84 516.67 L 471.35 516.67 L 471.61 516.67 L 472.12 516.67 L 472.38 534.00 L 472.89 534.00 L 473.14 534.00 L 473.66 534.00 L 473.91 534.00 L 474.42 534.00 L 474.68 534.00 L 475.19 534.00 L 475.45 534.00 L 475.96 534.00 L 476.22 534.00 L 476.73 534.00 L 476.99 534.00 L 477.50 534.00 L 477.75 534.00 L 478.27 534.00 L 478.52 534.00 L 479.03 534.00 L 479.29 534.00 L 479.80 534.00 L 480.06 534.00 L 480.57 534.00 L 480.83 534.00 L 481.34 534.00 L 481.85 534.00 L 482.11 534.00 L 482.62 534.00 L 482.88 534.00 L 483.39 534.00 L 483.65 534.00 L 484.16 534.00 L 484.41 534.00 L 484.93 534.00 L 485.18 534.00 L 485.69 534.00 L 485.95 534.00 L 486.46 534.00 L 486.72 534.00 L 487.23 534.00 L 487.49 534.00 L 488.00 534.00 L 488.26 534.00 L 488.77 534.00 L 489.02 534.00 L 489.54 534.00 L 489.79 534.00 L 490.31 534.00 L 490.56 534.00 L 491.07 534.00 L 491.33 534.00 L 491.84 534.00 L 492.10 534.00 L 492.61 534.00 L 492.87 534.00 L 493.38 534.00 L 493.64 534.00 L 494.15 534.00 L 494.40 534.00 L 494.92 534.00 L 495.17 534.00 L 495.68 534.00 L 495.94 534.00 L 496.45 534.00 L 496.71 534.00 L 497.22 534.00 L 497.48 534.00 L 497.99 534.00 L 498.50 534.00 L 498.76 534.00 L 499.27 534.00 L 499.53 534.00 L 500.04 534.00 L 500.29 534.00 L 500.81 534.00 L 501.06 534.00 L 501.58 534.00 L 501.83 534.00 L 502.34 534.00 L 502.60 534.00 L 503.11 534.00 L 503.37 534.00 L 503.88 534.00 L 504.14 534.00 L 504.65 534.00 L 504.91 534.00 L 505.42 534.00 L 505.67 534.00 L 506.19 534.00 L 506.44 534.00 L 506.95 534.00 L 507.21 516.67 L 507.72 516.67 L 507.98 516.67 L 508.49 395.83 L 508.75 317.86 L 509.26 317.86 L 509.52 317.86 L 510.03 317.86 L 510.28 317.86 L 510.80 317.86 L 511.05 317.86 L 511.57 335.18 L 511.82 317.86 L 512.33 335.18 L 512.59 335.18 L 513.10 335.18 L 513.36 335.18 L 513.87 335.18 L 514.38 335.18 L 514.64 335.18 L 515.15 335.18 L 515.41 335.18 L 515.92 335.18 L 516.18 335.18 L 516.69 335.18 L 516.94 335.18 L 517.46 378.50 L 517.71 378.50 L 518.23 378.50 L 518.48 378.50 L 518.99 378.50 L 519.25 378.50 L 519.76 378.50 L 520.02 395.83 L 520.53 395.83 L 520.79 395.83 L 521.30 395.83 L 521.55 395.83 L 522.07 421.82 L 522.32 421.82 L 522.84 421.82 L 523.09 421.82 L 523.60 421.82 L 523.86 421.82 L 524.37 421.82 L 524.63 421.82 L 525.14 421.82 L 525.40 421.82 L 525.91 421.82 L 526.17 421.82 L 526.68 421.82 L 526.93 421.82 L 527.45 421.82 L 527.70 422.28 L 528.21 422.28 L 528.47 422.28 L 528.98 422.28 L 529.50 422.28 L 529.75 422.28 L 530.26 422.28 L 530.52 422.28 L 531.03 422.28 L 531.29 422.28 L 531.80 422.28 L 532.06 439.61 L 532.57 439.61 L 532.83 439.61 L 533.34 439.61 L 533.59 439.61 L 534.11 448.27 L 534.36 448.27 L 534.87 448.27 L 535.13 448.27 L 535.64 448.27 L 535.90 448.27 L 536.41 448.27 L 536.67 448.27 L 537.18 448.27 L 537.44 448.27 L 537.95 448.27 L 538.20 448.27 L 538.72 448.27 L 538.97 448.27 L 539.49 448.27 L 539.74 448.27 L 540.25 448.27 L 540.51 440.06 L 541.02 508.46 L 541.28 508.46 L 541.79 508.46 L 542.05 508.46 L 542.56 508.46 L 542.82 508.46 L 543.33 508.46 L 543.58 508.46 L 544.10 508.46 L 544.61 508.46 L 544.86 508.46 L 545.38 508.46 L 545.63 508.46 L 546.14 508.46 L 546.40 508.46 L 546.91 508.46 L 547.17 508.46 L 547.68 508.46 L 547.94 508.46 L 548.45 508.46 L 548.71 508.46 L 549.22 508.46 L 549.47 517.13 L 549.99 517.13 L 550.24 517.13 L 550.76 517.13 L 551.01 517.13 L 551.52 517.13 L 551.78 517.13 L 552.29 517.13 L 552.55 517.13 L 553.06 517.13 L 553.32 517.13 L 553.83 517.13 L 554.09 517.13 L 554.60 517.13 L 554.85 517.13 L 555.37 517.13 L 555.62 517.13 L 556.13 534.00 L 556.39 534.00 L 556.90 534.00 L 557.16 534.00 L 557.67 534.00 L 557.93 534.00 L 558.44 534.00 L 558.95 534.00 L 559.21 534.00 L 559.72 534.00 L 559.98 534.00 L 560.49 534.00 L 560.75 534.00 L 561.26 534.00 L 561.51 534.00 L 562.03 534.00 L 562.28 534.00 L 562.79 534.00 L 563.05 534.00 L 563.56 534.00 L 563.82 534.00 L 564.33 534.00 L 564.59 534.00 L 565.10 534.00 L 565.36 534.00 L 565.87 534.00 L 566.12 534.00 L 566.64 534.00 L 566.89 534.00 L 567.40 534.00 L 567.66 534.00 L 568.17 534.00 L 568.43 534.00 L 568.94 534.00 L 569.20 534.00 L 569.71 534.00 L 569.97 534.00 L 570.48 534.00 L 570.73 534.00 L 571.25 534.00 L 571.50 534.00 L 572.02 534.00 L 572.27 534.00 L 572.78 534.00 L 573.30 534.00 L 573.55 534.00 L 574.06 534.00 L 574.32 534.00 L 574.83 534.00 L 575.09 534.00 L 575.60 534.00 L 575.86 534.00 L 576.37 534.00 L 576.63 534.00 L 577.14 534.00 L 577.39 534.00 L 577.91 534.00 L 578.16 534.00 L 578.68 517.13 L 578.93 517.13 L 579.44 517.13 L 579.70 517.13 L 580.21 517.13 L 580.47 517.13 L 580.98 517.13 L 581.24 508.46 L 581.75 508.46 L 582.01 508.46 L 582.52 508.46 L 582.77 508.46 L 583.29 508.46 L 583.54 508.46 L 584.05 508.46 L 584.31 508.46 L 584.82 517.13 L 585.08 517.13 L 585.59 534.00 L 585.85 534.00 L 586.36 534.00 L 586.62 517.13 L 587.13 517.13 L 587.64 517.13 L 587.90 517.13 L 588.41 517.13 L 588.66 517.13 L 589.18 508.92 L 589.43 508.92 L 589.95 508.92 L 590.20 508.92 L 590.71 508.92 L 590.97 508.92 L 591.48 508.92 L 591.74 517.13 L 592.25 517.13 L 592.51 517.13 L 593.02 508.92 L 593.28 508.92 L 593.79 517.13 L 594.04 517.13 L 594.56 517.13 L 594.81 517.13 L 595.32 517.13 L 595.58 517.13 L 596.09 534.00 L 596.35 534.00 L 596.86 534.00 L 597.12 534.00 L 597.63 534.00 L 597.89 517.13 L 598.40 517.13 L 598.65 517.13 L 599.17 517.13 L 599.42 517.13 L 599.94 517.13 L 600.19 517.13 L 600.70 517.13 L 600.96 517.13 L 601.47 517.13 L 601.98 517.13 L 602.24 517.13 L 602.75 517.13 L 603.01 517.13 L 603.52 517.13 L 603.78 517.13 L 604.29 517.13 L 604.55 517.13 L 605.06 517.13 L 605.31 517.13 L 605.83 517.13 L 606.08 517.13 L 606.60 517.13 L 606.85 517.13 L 607.36 517.13 L 607.62 517.13 L 608.13 517.13 L 608.39 517.13 L 608.90 517.13 L 609.16 517.13 L 609.67 517.13 L 609.92 517.13 L 610.44 517.13 L 610.69 517.13 L 611.21 517.13 L 611.46 517.13 L 611.97 517.13 L 612.23 517.13 L 612.74 517.13 L 613.00 517.13 L 613.51 517.13 L 613.77 517.13 L 614.28 517.13 L 614.54 517.13 L 615.05 517.13 L 615.56 517.13 L 615.82 517.13 L 616.33 517.13 L 616.58 517.13 L 617.10 517.13 L 617.35 517.13 L 617.87 517.13 L 618.12 517.13 L 618.63 517.13 L 618.89 517.13 L 619.40 517.13 L 619.66 517.13 L 620.17 517.13 L 620.43 517.13 L 620.94 517.13 L 621.20 517.13 L 621.71 517.13 L 621.96 517.13 L 622.48 517.13 L 622.73 517.13 L 623.24 517.13 L 623.50 517.13 L 624.01 517.13 L 624.27 517.13 L 624.78 517.13 L 625.04 517.13 L 625.55 517.13 L 625.81 517.13 L 626.32 517.13 L 626.57 517.13 L 627.09 517.13 L 627.34 517.13 L 627.86 517.13 L 628.37 517.13 L 628.62 517.13 L 629.14 517.13 L 629.39 517.13 L 629.90 517.13 L 630.16 517.58 L 630.67 517.58 L 630.93 517.58 L 631.44 517.58 L 631.70 517.58 L 632.21 517.58 L 632.47 517.58 L 632.98 517.58 L 633.23 517.58 L 633.75 517.58 L 634.00 517.58 L 634.51 517.58 L 634.77 517.58 L 635.28 517.58 L 635.54 517.58 L 636.05 517.58 L 636.31 517.58 L 636.82 517.58 L 637.08 517.58 L 637.59 517.58 L 637.84 517.58 L 638.36 517.58 L 638.61 517.58 L 639.13 517.58 L 639.38 517.58 L 639.89 517.58 L 640.15 517.58 L 640.66 517.58 L 641.17 517.58 L 641.43 517.58 L 641.94 517.58 L 642.20 517.58 L 642.71 517.58 L 642.97 517.58 L 643.48 517.58 L 643.74 517.58 L 644.25 517.58 L 644.50 517.58 L 645.02 517.58 L 645.27 517.58 L 645.79 517.58 L 646.04 517.58 L 646.55 517.58 L 646.81 517.58 L 647.32 517.58 L 647.58 517.58 L 648.09 517.58 L 648.35 517.58 L 648.86 517.58 L 649.12 517.58 L 649.63 517.58 L 649.88 517.58 L 650.40 517.58 L 650.65 517.58 L 651.16 517.58 L 651.42 517.58 L 651.93 517.58 L 652.19 517.58 L 652.70 517.58 L 652.96 517.58 L 653.47 517.58 L 653.98 517.58 L 654.24 517.58 L 654.75 517.58 L 655.01 517.58 L 655.52 517.58 L 655.77 517.58 L 656.29 517.58 L 656.54 517.58 L 657.06 517.58 L 657.31 517.58 L 657.82 517.58 L 658.08 517.58 L 658.59 517.58 L 658.85 517.58 L 659.36 517.58 L 659.62 517.58 L 660.13 517.58 L 660.39 517.58 L 660.90 517.58 L 661.15 517.58 L 661.67 517.58 L 661.92 517.58 L 662.43 517.58 L 662.69 517.58 L 663.20 517.58 L 663.46 517.58 L 663.97 517.58 L 664.23 517.58 L 664.74 517.58 L 665.00 517.58 L 665.51 517.58 L 665.76 517.58 L 666.28 517.58 L 666.79 517.58 L 667.05 517.58 L 667.56 517.58 L 667.81 517.58 L 668.33 517.58 L 668.58 517.58 L 669.09 517.58 L 669.35 517.58 L 669.86 517.58 L 670.12 517.58 L 670.63 517.58 L 670.89 517.58 L 671.40 517.58 L 671.66 517.58 L 672.17 517.58 L 672.42 517.58 L 672.94 517.58 L 673.19 517.58 L 673.71 517.58 L 673.96 517.58 L 674.47 517.58 L 674.73 517.58 L 675.24 517.58 L 675.50 517.58 L 676.01 517.58 L 676.27 517.58 L 676.78 517.58 L 677.03 517.58 L 677.55 517.58 L 677.80 517.58 L 678.32 517.58 L 678.83 517.58 L 679.08 517.58 L 679.60 517.58 L 679.85 517.58 L 680.36 517.58 L 680.62 517.58 L 681.13 517.58 L 681.39 517.58 L 681.90 517.58 L 682.16 517.58 L 682.67 517.58 L 682.93 517.58 L 683.44 517.58 L 683.69 517.58 L 684.21 517.58 L 684.46 517.58 L 684.98 517.58 L 685.23 517.58 L 685.74 517.58 L 686.00 517.58 L 686.51 517.58 L 686.77 517.58 L 687.28 517.58 L 687.54 517.58 L 688.05 517.58 L 688.31 517.58 L 688.82 517.58 L 689.07 517.58 L 689.59 517.58 L 689.84 517.58 L 690.35 517.58 L 690.61 517.58 L 691.12 517.58 L 691.64 517.58 L 691.89 517.58 L 692.40 517.58 L 692.66 517.58 L 693.17 517.58 L 693.43 517.58 L 693.94 517.58 L 694.20 517.58 L 694.71 517.58 L 694.97 517.58 L 695.48 517.58 L 695.73 517.58 L 696.25 517.58 L 696.50 517.58 L 697.01 517.58 L 697.27 517.58 L 697.78 517.58 L 698.04 517.58 L 698.55 517.58 L 698.81 517.58 L 699.32 517.58 L 699.58 517.58 L 700.09 517.58 L 700.34 517.58 L 700.86 517.58 L 701.11 517.58 L 701.62 517.58 L 701.88 517.58 L 702.39 517.58 L 702.65 517.58 L 703.16 517.58 L 703.67 517.58 L 703.93 517.58 L 704.44 517.58 L 704.70 517.58 L 705.21 517.58 L 705.47 517.58 L 705.98 517.58 L 706.24 517.58 L 706.75 517.58 L 707.00 517.58 L 707.52 517.58 L 707.77 517.58 L 708.28 517.58 L 708.54 517.58 L 709.05 517.58 L 709.31 517.58 L 709.82 517.58 L 710.08 517.58 L 710.59 517.58 L 710.85 517.58 L 711.36 517.58 L 711.61 517.58 L 712.13 517.58 L 712.38 517.58 L 712.90 517.58 L 713.15 517.58 L 713.66 517.58 L 713.92 517.58 L 714.43 517.58 L 714.69 517.58 L 715.20 517.58 L 715.71 517.58 L 715.97 517.58 L 716.48 517.58 L 716.74 517.58 L 717.25 517.58 L 717.51 517.58 L 718.02 517.58 L 718.27 517.58 L 718.79 517.58 L 719.04 517.58 L 719.55 517.58 L 719.81 517.58 L 720.32 517.58 L 720.58 517.58 L 721.09 517.58 L 721.35 517.58 L 721.86 517.58 L 722.12 517.58 L 722.63 517.58 L 722.88 517.58 L 723.40 517.58 L 723.65 517.58 L 724.17 517.58 L 724.42 517.58 L 724.93 517.58 L 725.19 517.58 L 725.70 517.58 L 725.96 517.58 L 726.47 517.58 L 726.73 517.58 L 727.24 517.58 L 727.75 517.58 L 728.01 517.58 L 728.52 517.58 L 728.78 517.58 L 729.29 517.58 L 729.54 517.58 L 730.06 517.58 L 730.31 517.58 L 730.83 517.58 L 731.08 517.58 L 731.59 517.58 L 731.85 517.58 L 732.36 517.58 L 732.62 517.58 L 733.13 517.58 L 733.39 517.58 L 733.90 517.58 L 734.16 517.58 L 734.67 517.58 L 734.92 517.58 L 735.44 517.58 L 735.69 517.58 L 736.20 517.58 L 736.46 517.58 L 736.97 517.58 L 737.23 517.58 L 737.74 517.58 L 738.00 517.58 L 738.51 517.58 L 738.77 517.58 L 739.28 517.58 L 739.79 517.58 L 740.05 517.58 L 740.56 517.58 L 740.82 517.58 L 741.33 517.58 L 741.58 517.58 L 742.10 517.58 L 742.35 517.58 L 742.86 517.58 L 743.12 517.58 L 743.63 517.58 L 743.89 517.58 L 744.40 517.58 L 744.66 517.58 L 745.17 517.58 L 745.43 517.58 L 745.94 517.58 L 746.19 517.58 L 746.71 517.58 L 746.96 517.58 L 747.47 517.58 L 747.73 517.58 L 748.24 517.58 L 748.50 517.58 L 749.01 517.58 L 749.27 517.58 L 749.78 517.58 L 750.04 517.58 L 750.55 517.58 L 750.80 517.58 L 751.32 517.58 L 751.83 517.58 L 752.09 517.58 L 752.60 517.58 L 752.85 517.58 L 753.37 517.58 L 753.62 517.58 L 754.13 517.58 L 754.39 517.58 L 754.90 517.58 L 755.16 517.58 L 755.67 517.58 L 755.93 517.58 L 756.44 517.58 L 756.70 517.58 L 757.21 517.58 L 757.46 517.58 L 757.98 517.58 L 758.23 517.58 L 758.75 517.58 L 759.00 517.58 L 759.51 517.58 L 759.77 517.58 L 760.28 517.58 L 760.54 517.58 L 761.05 517.58 L 761.31 517.58 L 761.82 517.58 L 762.08 517.58 L 762.59 517.58 L 762.84 517.58 L 763.36 517.58 L 763.87 517.58 L 764.12 517.58 L 764.64 517.58 L 764.89 517.58 L 765.40 517.58 L 765.66 517.58 L 766.17 517.58 L 766.43 517.58 L 766.94 517.58 L 767.20 517.58 L 767.71 517.58 L 767.97 517.58 L 768.48 517.58 L 768.73 517.58 L 769.25 517.58 L 769.50 517.58 L 770.02 517.58 L 770.27 517.58 L 770.78 517.58 L 771.04 517.58 L 771.55 517.58 L 771.81 517.58 L 772.32 517.58 L 772.58 517.58 L 773.09 517.58 L 773.35 517.58 L 773.86 517.58 L 774.11 517.58 L 774.63 517.58 L 774.88 517.58 L 775.39 517.58 L 775.91 517.58 L 776.16 517.58 L 776.68 517.58 L 776.93 517.58 L 777.44 517.58 L 777.70 517.58 L 778.21 517.58 L 778.47 517.58 L 778.98 517.58 L 779.24 517.58 L 779.75 517.58 L 780.01 517.58 L 780.52 517.58 L 780.77 517.58 L 781.29 517.58 L 781.54 517.58 L 782.05 517.58 L 782.31 517.58 L 782.82 517.58 L 783.08 517.58 L 783.59 517.58 L 783.85 517.58 L 784.36 517.58 L 784.62 517.58 L 785.13 517.58 L 785.38 517.58 L 785.90 517.58 L 786.15 517.58 L 786.66 517.58 L 786.92 517.58 L 787.43 517.58 L 787.95 517.58 L 788.20 517.58 L 788.71 517.58 L 788.97 517.58 L 789.48 517.58 L 789.74 517.58 L 790.25 517.58 L 790.51 517.58 L 791.02 517.58 L 791.28 517.58 L 791.79 517.58 L 792.04 517.58 L 792.56 517.58 L 792.81 517.58 L 793.32 517.58 L 793.58 517.58 L 794.09 517.58 L 794.35 517.58 L 794.86 517.58 L 795.12 517.58 L 795.63 517.58 L 795.89 517.58 L 796.40 517.58 L 796.65 517.58 L 797.17 517.58 L 797.42 517.58 L 797.94 517.58 L 798.19 517.58 L 798.70 517.58 L 799.22 517.58 L 799.47 517.58 L 799.98 517.58 L 800.24 517.58 L 800.75 517.58 L 801.01 517.58 L 801.52 517.58 L 801.78 517.58 L 802.29 517.58 L 802.55 517.58 L 803.06 517.58 L 803.31 517.58 L 915.25 534.00 L 915.25 534.00 L 915.25 534.00 L 915.25 517.58 L 915.25 517.58 L 915.25 517.58 L 915.25 517.58 L 915.25 517.58 L 915.25 517.58 L 915.25 517.58 L 915.25 517.58 L 915.25 517.58 L 915.25 517.58 L 915.25 517.58 L 915.25 517.58 L 915.25 517.58 L 915.25 517.58 L 915.25 517.58 L 915.25 517.58 L 915.25 517.58 L 915.25 517.58 L 915.51 517.58 L 915.51 517.58 L 915.51 517.58 L 915.51 517.58 L 915.51 517.58 L 915.51 517.58 L 915.51 517.58 L 915.51 517.58 L 915.51 517.58 L 915.51 517.58 L 915.51 517.58 L 915.51 517.58 L 915.51 517.58 L 915.51 517.58 L 915.51 517.58 L 915.51 534.00 L 915.51 534.00 L 915.51 534.00 L 915.51 534.00 L 915.51 534.00 L 915.51 534.00 L 915.51 534.00 L 915.51 534.00 L 915.51 534.00 L 915.51 534.00 L 915.51 534.00 L 915.51 534.00 L 915.51 534.00 L 915.51 534.00 L 915.51 534.00 L 915.51 534.00 L 915.51 534.00 L 915.51 534.00 L 915.51 534.00 L 915.51 534.00 L 915.51 534.00 L 915.51 534.00 L 915.51 534.00 L 915.51 534.00 L 915.51 534.00 L 915.51 534.00 L 915.51 534.00 L 915.51 534.00 L 915.51 534.00 L 915.51 534.00 L 915.51 534.00 L 915.51 534.00 L 915.51 534.00 L 915.51 534.00 L 915.51 534.00 L 915.51 534.00 L 915.51 534.00 L 915.51 534.00 L 915.51 534.00 L 915.51 534.00 L 915.51 534.00 L 915.51 534.00 L 915.76 534.00 L 915.76 534.00 L 915.76 534.00 L 915.76 534.00 L 915.76 534.00 L 915.76 534.00 L 915.76 534.00 L 915.76 534.00 L 915.76 534.00 L 915.76 534.00 L 915.76 451.01 L 915.76 451.01 L 915.76 442.80 L 916.02 442.80 L 916.53 442.80 L 916.79 442.80 L 917.04 326.98 L 917.55 326.52 L 917.81 326.52 L 918.32 343.39 L 918.58 343.39 L 919.09 426.38 L 919.35 425.93 L 919.86 425.93 L 920.12 425.93 L 920.63 425.93 L 920.88 425.93 L 921.40 425.93 L 921.65 425.93 L 922.17 425.93 L 922.68 425.93 L 922.93 425.93 L 923.45 425.93 L 923.70 425.93 L 924.21 425.93 L 924.47 492.50 L 924.98 492.50 L 925.24 492.50 L 925.75 492.50 L 926.01 492.50 L 926.52 492.50 L 926.78 492.50 L 927.29 492.50 L 927.54 492.50 L 928.06 451.01 L 928.31 451.01 L 928.83 451.01 L 929.08 451.01 L 929.59 451.01 L 929.85 451.01 L 930.36 451.01 L 930.62 451.01 L 931.13 451.01 L 931.39 451.01 L 931.90 451.01 L 932.16 451.01 L 932.67 451.01 L 932.92 508.92 L 933.44 476.09 L 933.69 508.92 L 934.20 508.92 L 934.46 467.42 L 934.97 467.42 L 935.23 467.42 L 935.74 467.42 L 936.25 467.42 L 936.51 467.42 L 937.02 467.42 L 937.28 467.42 L 937.79 467.42 L 938.05 467.42 L 938.56 467.42 L 938.82 467.42 L 939.33 467.42 L 939.58 467.42 L 940.10 467.42 L 940.35 492.50 L 940.86 492.50 L 941.12 492.50 L 941.63 492.50 L 941.89 508.92 L 942.40 508.92 L 942.66 508.92 L 943.17 508.92 L 943.43 508.92 L 943.94 508.92 L 944.19 508.92 L 944.71 508.92 L 944.96 508.92 L 945.47 508.92 L 945.73 508.92 L 946.24 508.92 L 946.50 508.92 L 947.01 508.92 L 947.27 509.38 L 947.78 509.38 L 948.04 509.38 L 948.55 509.38 L 949.06 509.38 L 949.32 509.38 L 949.83 509.38 L 950.09 509.38 L 950.60 509.38 L 950.85 509.38 L 951.37 509.38 L 951.62 509.38 L 952.13 509.38 L 952.39 509.38 L 952.90 509.38 L 953.16 509.38 L 953.67 509.38 L 953.93 509.38 L 954.44 509.38 L 954.70 509.38 L 955.21 509.38 L 955.46 509.38 L 955.98 509.38 L 956.23 509.38 L 956.75 509.38 L 957.00 509.38 L 957.51 509.38 L 957.77 509.38 L 958.28 509.38 L 958.54 509.38 L 959.05 509.38 L 959.31 509.38 L 959.82 509.38 L 960.08 509.38 L 960.59 509.38 L 960.84 509.38 L 961.36 509.38 L 961.87 509.38 L 962.12 509.38 L 962.64 509.38 L 962.89 509.38 L 963.40 509.38 L 963.66 509.38 L 964.17 509.38 L 964.43 509.38 L 964.94 509.38 L 965.20 509.38 L 965.71 509.38 L 965.97 509.38 L 966.48 509.38 L 966.73 509.38 L 967.25 509.38 L 967.50 509.38 L 968.02 509.38 L 968.27 509.38 L 968.78 509.38 L 969.04 509.38 L 969.55 509.38 L 969.81 509.38 L 970.32 509.38 L 970.58 509.38 L 971.09 509.38 L 971.35 509.38 L 971.86 509.38 L 972.11 509.38 L 972.63 509.38 L 972.88 509.38 L 973.39 509.38 L 973.91 509.38 L 974.16 517.58 L 974.68 517.58 L 974.93 517.58 L 975.44 509.38 L 975.70 509.38 L 976.21 509.38 L 976.47 509.38 L 976.98 509.38 L 977.24 509.38 L 977.75 509.38 L 978.01 509.38 L 978.52 509.38 L 978.77 509.38 L 979.29 509.38 L 979.54 517.58 L 980.05 517.58 L 980.31 517.58 L 980.82 517.58 L 981.08 517.58 L 981.59 517.58 L 981.85 517.58 L 982.36 517.58 L 982.62 517.58 L 983.13 517.58 L 983.38 517.58 L 983.90 517.58 L 984.15 534.00 L 984.66 534.00 L 984.92 534.00 L 985.43 534.00 L 985.69 534.00 L 986.20 534.00 L 986.71 534.00 L 986.97 534.00 L 987.48 517.58 L 987.74 534.00 L 988.25 534.00 L 988.51 534.00 L 989.02 534.00 L 989.28 534.00 L 989.79 534.00 L 990.04 534.00 L 990.56 534.00 L 990.81 534.00 L 991.32 534.00 L 991.58 534.00 L 992.09 534.00 L 992.35 534.00 L 992.86 534.00 L 993.12 534.00 L 993.63 534.00 L 993.89 534.00 L 994.40 534.00 L 994.65 534.00 L 995.17 534.00 L 995.42 534.00 L 995.94 534.00 L 996.19 534.00 L 996.70 534.00 L 996.96 534.00 L 997.47 534.00 L 997.73 534.00 L 998.24 534.00 L 998.50 534.00 L 999.01 534.00 L 999.52 534.00 L 999.78 534.00 L 1000.29 534.00 L 1000.55 534.00 L 1001.06 534.00 L 1001.31 534.00 L 1001.83 534.00 L 1002.08 534.00 L 1002.60 534.00 L 1002.85 534.00 L 1003.36 534.00 L 1003.62 534.00 L 1004.13 534.00 L 1004.39 534.00 L 1004.90 534.00 L 1005.16 534.00 L 1005.67 534.00 L 1005.92 534.00 L 1006.44 534.00 L 1006.69 534.00 L 1007.21 534.00 L 1007.46 534.00 L 1007.97 534.00 L 1008.23 534.00 L 1008.74 534.00 L 1009.00 534.00 L 1009.51 534.00 L 1009.77 534.00 L 1010.28 534.00 L 1010.54 534.00 L 1011.05 534.00 L 1011.56 534.00 L 1011.82 534.00 L 1012.33 534.00 L 1012.58 534.00 L 1013.10 534.00 L 1013.35 534.00 L 1013.87 534.00 L 1014.12 534.00 L 1014.63 534.00 L 1014.89 534.00 L 1015.40 534.00 L 1015.66 534.00 L 1016.17 534.00 L 1016.43 534.00 L 1016.94 534.00 L 1017.20 534.00 L 1017.71 534.00 L 1017.96 534.00 L 1018.48 534.00 L 1018.73 534.00 L 1019.24 534.00 L 1019.50 534.00 L 1020.01 534.00 L 1020.27 534.00 L 1020.78 534.00 L 1021.04 534.00 L 1021.55 534.00 L 1021.81 534.00 L 1022.32 534.00 L 1022.57 534.00 L 1023.09 534.00 L 1023.34 534.00 L 1023.86 534.00 L 1024.11 534.00 L 1024.62 534.00 L 1025.14 534.00 L 1025.39 534.00 L 1025.90 534.00 L 1026.16 534.00 L 1026.67 534.00 L 1026.93 534.00 L 1027.44 534.00 L 1027.70 534.00 L 1028.21 534.00 L 1028.47 534.00 L 1028.98 534.00 L 1029.23 534.00 L 1029.75 534.00 L 1030.00 534.00 L 1030.51 534.00 L 1030.77 534.00 L 1031.28 534.00 L 1031.54 534.00 L 1032.05 534.00 L 1032.31 534.00 L 1032.82 534.00 L 1033.08 534.00 L 1033.59 534.00 L 1033.84 534.00 L 1034.36 534.00 L 1034.61 534.00 L 1035.13 534.00 L 1035.38 534.00 L 1035.89 534.00 L 1036.15 534.00 L 1036.66 517.13 L 1036.92 517.13 L 1037.43 508.92 L 1037.94 475.63 L 1038.20 475.63 L 1038.71 467.42 L 1038.97 467.42 L 1039.48 450.55 L 1039.74 409.06 L 1040.25 400.39 L 1040.50 383.98 L 1041.02 383.98 L 1041.27 383.98 L 1041.79 383.98 L 1042.04 383.98 L 1042.55 383.98 L 1042.81 400.39 L 1043.32 400.39 L 1043.58 400.39 L 1044.09 400.39 L 1044.35 400.39 L 1044.86 408.60 L 1045.12 442.34 L 1045.63 475.63 L 1045.88 508.92 L 1046.40 517.13 L 1046.65 517.13 L 1047.16 517.13 L 1047.42 517.13 L 1047.93 517.13 L 1048.19 517.13 L 1048.70 517.13 L 1048.96 517.13 L 1049.47 517.13 L 1049.73 517.13 L 1050.24 517.13 L 1050.49 517.13 L 1051.01 508.92 L 1051.52 466.97 L 1051.77 425.47 L 1052.29 425.47 L 1052.54 441.89 L 1053.06 450.55 L 1053.31 400.39 L 1053.82 366.65 L 1054.08 366.65 L 1054.59 366.65 L 1054.85 366.65 L 1055.36 366.65 L 1055.62 366.65 L 1056.13 366.65 L 1056.39 383.52 L 1056.90 383.52 L 1057.15 441.89 L 1057.67 441.89 L 1057.92 441.89 L 1058.43 466.97 L 1058.69 492.05 L 1059.20 517.13 L 1059.46 517.13 L 1059.97 517.13 L 1060.23 517.13 L 1060.74 517.13 L 1061.00 508.92 L 1061.51 508.92 L 1061.76 508.92 L 1062.28 508.92 L 1062.53 492.05 L 1063.05 475.63 L 1063.30 475.63 L 1063.81 508.92 L 1064.07 508.92 L 1064.58 475.63 L 1065.09 466.97 L 1065.35 450.55 L 1065.86 441.89 L 1066.12 441.89 L 1066.63 508.92 L 1066.89 508.92 L 1067.40 508.92 L 1067.66 508.92 L 1068.17 508.92 L 1068.42 508.92 L 1068.94 508.92 L 1069.19 492.05 L 1069.71 492.05 L 1069.96 492.05 L 1070.47 492.05 L 1070.73 492.05 L 1071.24 508.92 L 1071.50 492.05 L 1072.01 492.05 L 1072.27 508.92 L 1072.78 508.92 L 1073.03 508.92 L 1073.55 508.92 L 1073.80 508.92 L 1074.32 508.92 L 1074.57 508.92 L 1075.08 508.92 L 1075.34 508.92 L 1075.85 508.92 L 1076.11 492.05 L 1076.62 492.05 L 1076.88 492.05 L 1077.39 492.05 L 1077.65 492.05 L 1078.16 492.05 L 1078.67 492.05 L 1078.93 492.05 L 1079.44 492.05 L 1079.69 492.05 L 1080.21 492.05 L 1080.46 492.05 L 1080.98 492.05 L 1081.23 492.05 L 1081.74 492.05 L 1082.00 492.05" fill="none" stroke="#0ea5e9" stroke-width="2.7"/>
<text x="560.0" y="602" text-anchor="middle" font-family="Arial, sans-serif" font-size="13" fill="#475569">Wall Clock Time</text>
<text transform="translate(25 306.0) rotate(-90)" text-anchor="middle" font-family="Arial, sans-serif" font-size="13" fill="#475569">Power (W)</text>
<rect x="727" y="96" width="335" height="80" rx="8" fill="#ffffff" stroke="#cbd5e1"/>
<line x1="745" y1="121" x2="785" y2="121" stroke="#f97316" stroke-width="2.8" stroke-dasharray="8 6"/>
<text x="797" y="126" font-family="Arial, sans-serif" font-size="13" fill="#1e293b">Raw Power (power_w)</text>
<line x1="745" y1="147" x2="785" y2="147" stroke="#0ea5e9" stroke-width="2.8"/>
<text x="797" y="152" font-family="Arial, sans-serif" font-size="13" fill="#1e293b">Temp-Corrected Power (power_corrected_w)</text>
</svg>