<svg xmlns="http://www.w3.org/2000/svg" width="1120" height="620" viewBox="0 0 1120 620">
<rect width="100%" height="100%" fill="#f8fafc"/>
<rect x="92" y="78" width="990" height="456" fill="#ffffff" stroke="#cbd5e1"/>
<text x="560.0" y="34" text-anchor="middle" font-family="Arial, sans-serif" font-size="21" font-weight="700" fill="#1e293b">Power Output - 13 deg Tilt - Morning Session</text>
<text x="560.0" y="58" text-anchor="middle" font-family="Arial, sans-serif" font-size="12" fill="#475569">1477 readings from 09:48:33 to 10:31:38</text>
<line x1="92" y1="534.00" x2="1082" y2="534.00" stroke="#cbd5e1" stroke-dasharray="5 5" opacity="0.75"/>
<text x="80" y="538.00" text-anchor="end" font-family="Arial, sans-serif" font-size="12" fill="#475569">0.000</text>
<line x1="92" y1="442.80" x2="1082" y2="442.80" stroke="#cbd5e1" stroke-dasharray="5 5" opacity="0.75"/>
<text x="80" y="446.80" text-anchor="end" font-family="Arial, sans-serif" font-size="12" fill="#475569">0.010</text>
<line x1="92" y1="351.60" x2="1082" y2="351.60" stroke="#cbd5e1" stroke-dasharray="5 5" opacity="0.75"/>
<text x="80" y="355.60" text-anchor="end" font-family="Arial, sans-serif" font-size="12" fill="#475569">0.020</text>
<line x1="92" y1="260.40" x2="1082" y2="260.40" stroke="#cbd5e1" stroke-dasharray="5 5" opacity="0.75"/>
<text x="80" y="264.40" text-anchor="end" font-family="Arial, sans-serif" font-size="12" fill="#475569">0.030</text>
<line x1="92" y1="169.20" x2="1082" y2="169.20" stroke="#cbd5e1" stroke-dasharray="5 5" opacity="0.75"/>
<text x="80" y="173.20" text-anchor="end" font-family="Arial, sans-serif" font-size="12" fill="#475569">0.040</text>
<line x1="92" y1="78.00" x2="1082" y2="78.00" stroke="#cbd5e1" stroke-dasharray="5 5" opacity="0.75"/>
<text x="80" y="82.00" text-anchor="end" font-family="Arial, sans-serif" font-size="12" fill="#475569">0.050</text>
<line x1="92.00" y1="78" x2="92.00" y2="534" stroke="#e2e8f0" stroke-dasharray="4 6"/>
<text x="92.00" y="568" text-anchor="middle" font-family="Arial, sans-serif" font-size="12" fill="#475569">09:48:33</text>
<line x1="257.00" y1="78" x2="257.00" y2="534" stroke="#e2e8f0" stroke-dasharray="4 6"/>
<text x="257.00" y="568" text-anchor="middle" font-family="Arial, sans-serif" font-size="12" fill="#475569">09:55:43</text>
<line x1="422.00" y1="78" x2="422.00" y2="534" stroke="#e2e8f0" stroke-dasharray="4 6"/>
<text x="422.00" y="568" text-anchor="middle" font-family="Arial, sans-serif" font-size="12" fill="#475569">10:02:54</text>
<line x1="587.00" y1="78" x2="587.00" y2="534" stroke="#e2e8f0" stroke-dasharray="4 6"/>
<text x="587.00" y="568" text-anchor="middle" font-family="Arial, sans-serif" font-size="12" fill="#475569">10:10:05</text>
<line x1="752.00" y1="78" x2="752.00" y2="534" stroke="#e2e8f0" stroke-dasharray="4 6"/>
<text x="752.00" y="568" text-anchor="middle" font-family="Arial, sans-serif" font-size="12" fill="#475569">10:17:16</text>
<line x1="917.00" y1="78" x2="917.00" y2="534" stroke="#e2e8f0" stroke-dasharray="4 6"/>
<text x="917.00" y="568" text-anchor="middle" font-family="Arial, sans-serif" font-size="12" fill="#475569">10:24:27</text>
<line x1="1082.00" y1="78" x2="1082.00" y2="534" stroke="#e2e8f0" stroke-dasharray="4 6"/>
<text x="1082.00" y="568" text-anchor="middle" font-family="Arial, sans-serif" font-size="12" fill="#475569">10:31:38</text>
<path d="M 92.00 205.68 L 92.77 205.68 L 93.15 205.68 L 93.91 205.68 L 94.30 205.68 L 95.06 205.68 L 95.45 205.68 L 96.21 205.68 L 96.98 205.68 L 97.36 205.68 L 98.13 205.68 L 98.51 205.68 L 99.28 205.68 L 99.66 205.68 L 100.43 479.28 L 100.81 497.52 L 101.57 497.52 L 101.96 497.52 L 102.72 497.52 L 103.11 497.52 L 103.87 497.52 L 104.26 497.52 L 105.02 497.52 L 105.40 497.52 L 106.17 534.00 L 106.55 534.00 L 107.32 388.08 L 107.70 388.08 L 108.47 479.28 L 108.85 388.08 L 109.62 388.08 L 110.00 388.08 L 110.77 388.08 L 111.15 388.08 L 111.91 388.08 L 112.30 388.08 L 113.06 388.08 L 113.45 388.08 L 114.21 388.08 L 114.60 388.08 L 115.36 388.08 L 115.74 388.08 L 116.51 388.08 L 116.89 388.08 L 117.66 388.08 L 118.04 388.08 L 118.81 388.08 L 119.57 388.08 L 119.96 388.08 L 120.72 388.08 L 121.11 388.08 L 121.87 388.08 L 122.26 388.08 L 123.02 388.08 L 123.40 388.08 L 124.17 388.08 L 124.55 388.08 L 125.32 388.08 L 125.70 388.08 L 126.47 388.08 L 126.85 388.08 L 127.62 388.08 L 128.00 388.08 L 128.77 388.08 L 129.15 388.08 L 129.91 388.08 L 130.30 388.08 L 131.06 388.08 L 131.45 388.08 L 132.21 388.08 L 132.60 388.08 L 133.36 388.08 L 133.74 388.08 L 134.51 388.08 L 134.89 388.08 L 135.66 388.08 L 136.04 388.08 L 136.81 388.08 L 137.19 388.08 L 137.96 388.08 L 138.34 388.08 L 139.11 388.08 L 139.87 388.08 L 140.26 388.08 L 141.02 388.08 L 141.40 388.08 L 142.17 388.08 L 142.55 388.08 L 143.32 388.08 L 143.70 388.08 L 144.47 388.08 L 144.85 388.08 L 145.62 388.08 L 146.00 388.08 L 146.77 388.08 L 147.15 388.08 L 147.91 388.08 L 148.30 388.08 L 149.06 388.08 L 149.45 388.08 L 150.21 388.08 L 150.60 388.08 L 151.36 388.08 L 151.74 388.08 L 152.51 388.08 L 152.89 388.08 L 153.66 388.08 L 154.04 388.08 L 154.81 388.08 L 155.19 388.08 L 155.96 388.08 L 156.34 388.08 L 157.11 388.08 L 157.49 388.08 L 158.26 388.08 L 158.64 406.32 L 159.40 406.32 L 159.79 406.32 L 160.55 406.32 L 161.32 406.32 L 161.70 406.32 L 162.47 406.32 L 162.85 406.32 L 163.62 406.32 L 164.00 406.32 L 164.77 406.32 L 165.15 406.32 L 165.91 406.32 L 166.30 406.32 L 167.06 406.32 L 167.45 406.32 L 168.21 406.32 L 168.60 406.32 L 169.36 406.32 L 169.74 406.32 L 170.51 406.32 L 170.89 406.32 L 171.66 406.32 L 172.04 406.32 L 172.81 406.32 L 173.19 406.32 L 173.96 442.80 L 174.34 442.80 L 175.11 442.80 L 175.49 442.80 L 176.26 442.80 L 176.64 442.80 L 177.40 442.80 L 177.79 442.80 L 178.55 442.80 L 178.94 442.80 L 179.70 442.80 L 180.09 442.80 L 180.85 442.80 L 181.62 442.80 L 182.00 442.80 L 182.77 442.80 L 183.15 442.80 L 183.91 442.80 L 184.30 442.80 L 185.06 442.80 L 185.45 442.80 L 186.21 442.80 L 186.60 442.80 L 187.36 442.80 L 187.74 442.80 L 188.51 442.80 L 188.89 479.28 L 189.66 479.28 L 190.04 479.28 L 190.81 479.28 L 191.19 479.28 L 191.96 479.28 L 192.34 479.28 L 193.11 479.28 L 193.49 479.28 L 194.26 479.28 L 194.64 479.28 L 195.40 479.28 L 195.79 479.28 L 196.55 479.28 L 196.94 479.28 L 197.70 479.28 L 198.09 479.28 L 198.85 479.28 L 199.23 479.28 L 200.00 479.28 L 200.38 479.28 L 201.15 479.28 L 201.53 479.28 L 202.30 479.28 L 203.06 479.28 L 203.45 479.28 L 204.21 479.28 L 204.60 497.52 L 205.36 497.52 L 205.74 497.52 L 206.51 497.52 L 206.89 497.52 L 207.66 497.52 L 208.04 497.52 L 208.81 497.52 L 209.19 497.52 L 209.96 497.52 L 210.34 497.52 L 211.11 497.52 L 211.49 497.52 L 212.26 497.52 L 212.64 497.52 L 213.40 497.52 L 213.79 534.00 L 214.55 534.00 L 214.94 534.00 L 215.70 534.00 L 216.09 534.00 L 216.85 497.52 L 217.23 406.32 L 218.00 479.28 L 218.38 534.00 L 219.15 442.80 L 219.53 442.80 L 220.30 497.52 L 220.68 442.80 L 221.45 442.80 L 221.83 406.32 L 222.60 406.32 L 223.36 406.32 L 223.74 406.32 L 224.51 406.32 L 224.89 406.32 L 225.66 406.32 L 226.04 406.32 L 226.81 406.32 L 227.19 406.32 L 227.96 406.32 L 228.34 406.32 L 229.11 406.32 L 229.49 406.32 L 230.26 406.32 L 230.64 406.32 L 231.40 388.08 L 231.79 388.08 L 232.55 388.08 L 232.94 406.32 L 233.70 406.32 L 234.09 406.32 L 234.85 406.32 L 235.23 406.32 L 236.00 406.32 L 236.38 406.32 L 237.15 479.28 L 237.53 479.28 L 238.30 497.52 L 238.68 497.52 L 239.45 497.52 L 239.83 497.52 L 240.60 497.52 L 240.98 497.52 L 241.74 497.52 L 242.13 497.52 L 242.89 497.52 L 243.28 497.52 L 244.04 497.52 L 244.81 497.52 L 245.19 497.52 L 245.96 497.52 L 246.34 497.52 L 247.11 497.52 L 247.49 497.52 L 248.26 497.52 L 248.64 442.80 L 249.40 442.80 L 249.79 442.80 L 250.55 442.80 L 250.94 534.00 L 251.70 534.00 L 252.09 534.00 L 252.85 534.00 L 253.23 534.00 L 254.00 534.00 L 254.38 479.28 L 255.15 479.28 L 255.53 479.28 L 256.30 479.28 L 256.68 479.28 L 257.45 479.28 L 257.83 479.28 L 258.60 497.52 L 258.98 534.00 L 259.74 534.00 L 260.13 479.28 L 260.89 479.28 L 261.28 479.28 L 262.04 479.28 L 262.43 479.28 L 263.19 479.28 L 263.57 479.28 L 264.34 479.28 L 265.11 479.28 L 265.49 497.52 L 266.26 497.52 L 266.64 497.52 L 267.40 497.52 L 267.79 497.52 L 268.55 497.52 L 268.94 497.52 L 269.70 497.52 L 270.09 497.52 L 270.85 497.52 L 271.23 497.52 L 272.00 497.52 L 272.38 534.00 L 273.15 534.00 L 273.53 534.00 L 274.30 534.00 L 274.68 534.00 L 275.45 534.00 L 275.83 534.00 L 276.60 534.00 L 276.98 534.00 L 277.74 534.00 L 278.13 534.00 L 278.89 534.00 L 279.28 534.00 L 280.04 534.00 L 280.43 534.00 L 281.19 534.00 L 281.57 534.00 L 282.34 534.00 L 282.72 534.00 L 283.49 534.00 L 283.87 534.00 L 284.64 534.00 L 285.02 534.00 L 285.79 534.00 L 286.55 534.00 L 286.94 534.00 L 287.70 534.00 L 288.09 534.00 L 288.85 534.00 L 289.23 534.00 L 290.00 534.00 L 290.38 534.00 L 291.15 534.00 L 291.53 497.52 L 292.30 497.52 L 292.68 497.52 L 293.45 497.52 L 293.83 497.52 L 294.60 497.52 L 294.98 497.52 L 295.74 497.52 L 296.13 479.28 L 296.89 479.28 L 297.28 479.28 L 298.04 479.28 L 298.43 479.28 L 299.19 479.28 L 299.57 479.28 L 300.34 479.28 L 300.72 479.28 L 301.49 479.28 L 301.87 479.28 L 302.64 442.80 L 303.02 442.80 L 303.79 442.80 L 304.17 442.80 L 304.94 479.28 L 305.32 442.80 L 306.09 406.32 L 306.47 388.08 L 307.23 388.08 L 308.00 388.08 L 308.38 388.08 L 309.15 388.08 L 309.53 351.60 L 310.30 351.60 L 310.68 351.60 L 311.45 333.36 L 311.83 333.36 L 312.60 333.36 L 312.98 333.36 L 313.74 333.36 L 314.13 333.36 L 314.89 479.28 L 315.28 333.36 L 316.04 296.88 L 316.43 534.00 L 317.19 534.00 L 317.57 534.00 L 318.34 442.80 L 318.72 534.00 L 319.49 534.00 L 319.87 296.88 L 320.64 296.88 L 321.02 260.40 L 321.79 296.88 L 322.17 296.88 L 322.94 260.40 L 323.32 260.40 L 324.09 333.36 L 324.47 534.00 L 325.23 534.00 L 325.62 333.36 L 326.38 497.52 L 326.77 442.80 L 327.53 442.80 L 327.91 260.40 L 328.68 260.40 L 329.45 333.36 L 329.83 296.88 L 330.60 296.88 L 330.98 296.88 L 331.74 296.88 L 332.13 296.88 L 332.89 242.16 L 333.28 242.16 L 334.04 242.16 L 334.43 242.16 L 335.19 242.16 L 335.57 242.16 L 336.34 242.16 L 336.72 242.16 L 337.49 242.16 L 337.87 242.16 L 338.64 242.16 L 339.02 242.16 L 339.79 442.80 L 340.17 497.52 L 340.94 497.52 L 341.32 479.28 L 342.09 351.60 L 342.47 333.36 L 343.23 205.68 L 343.62 205.68 L 344.38 205.68 L 344.77 205.68 L 345.53 205.68 L 345.91 205.68 L 346.68 205.68 L 347.06 205.68 L 347.83 205.68 L 348.21 205.68 L 348.98 205.68 L 349.36 205.68 L 350.13 205.68 L 350.89 534.00 L 351.28 205.68 L 352.04 205.68 L 352.43 205.68 L 353.19 205.68 L 353.57 534.00 L 354.34 242.16 L 354.72 242.16 L 355.49 242.16 L 355.87 242.16 L 356.64 242.16 L 357.02 205.68 L 357.79 205.68 L 358.17 205.68 L 358.94 205.68 L 359.32 205.68 L 360.09 260.40 L 360.47 351.60 L 361.23 351.60 L 361.62 479.28 L 362.38 497.52 L 362.77 479.28 L 363.53 534.00 L 363.91 479.28 L 364.68 497.52 L 365.06 479.28 L 365.83 388.08 L 366.21 351.60 L 366.98 406.32 L 367.36 351.60 L 368.13 260.40 L 368.51 296.88 L 369.28 296.88 L 369.66 260.40 L 370.43 205.68 L 371.19 205.68 L 371.57 260.40 L 372.34 351.60 L 372.72 388.08 L 373.49 351.60 L 373.87 205.68 L 374.64 205.68 L 375.02 169.20 L 375.79 205.68 L 376.17 205.68 L 376.94 260.40 L 377.32 351.60 L 378.09 333.36 L 378.47 242.16 L 379.23 169.20 L 379.62 169.20 L 380.38 169.20 L 380.77 169.20 L 381.53 169.20 L 381.91 169.20 L 382.68 260.40 L 383.06 442.80 L 383.83 442.80 L 384.21 497.52 L 384.98 406.32 L 385.36 388.08 L 386.13 242.16 L 386.51 169.20 L 387.28 169.20 L 387.66 169.20 L 388.43 205.68 L 388.81 205.68 L 389.57 169.20 L 389.96 169.20 L 390.72 169.20 L 391.11 169.20 L 391.87 169.20 L 392.64 169.20 L 393.02 169.20 L 393.79 169.20 L 394.17 169.20 L 394.94 169.20 L 395.32 169.20 L 396.09 169.20 L 396.47 169.20 L 397.23 169.20 L 397.62 169.20 L 398.38 169.20 L 398.77 169.20 L 399.53 169.20 L 399.91 169.20 L 400.68 169.20 L 401.06 169.20 L 401.83 169.20 L 402.21 169.20 L 402.98 169.20 L 403.36 169.20 L 404.13 169.20 L 404.51 169.20 L 405.28 169.20 L 405.66 169.20 L 406.43 169.20 L 406.81 169.20 L 407.57 169.20 L 407.96 169.20 L 408.72 169.20 L 409.11 169.20 L 409.87 169.20 L 410.26 406.32 L 411.02 169.20 L 411.40 169.20 L 412.17 169.20 L 412.94 169.20 L 413.32 169.20 L 414.09 169.20 L 414.47 169.20 L 415.23 169.20 L 415.62 169.20 L 416.38 169.20 L 416.77 205.68 L 417.53 205.68 L 417.91 205.68 L 418.68 169.20 L 419.06 169.20 L 419.83 205.68 L 420.21 242.16 L 420.98 351.60 L 421.36 479.28 L 422.13 534.00 L 422.51 534.00 L 423.28 534.00 L 423.66 534.00 L 424.43 534.00 L 424.81 534.00 L 425.57 534.00 L 425.96 534.00 L 426.72 534.00 L 427.11 534.00 L 427.87 534.00 L 428.26 534.00 L 429.02 534.00 L 429.40 534.00 L 430.17 534.00 L 430.55 534.00 L 431.32 534.00 L 432.09 534.00 L 432.47 534.00 L 433.23 534.00 L 433.62 534.00 L 434.38 260.40 L 434.77 205.68 L 435.53 205.68 L 435.91 205.68 L 436.68 205.68 L 437.06 205.68 L 437.83 205.68 L 438.21 205.68 L 438.98 205.68 L 439.36 205.68 L 440.13 205.68 L 440.51 205.68 L 441.28 296.88 L 441.66 296.88 L 442.43 296.88 L 442.81 296.88 L 443.57 296.88 L 443.96 296.88 L 444.72 296.88 L 445.11 333.36 L 445.87 333.36 L 446.26 333.36 L 447.02 333.36 L 447.40 351.60 L 448.17 351.60 L 448.55 406.32 L 449.32 406.32 L 449.70 406.32 L 450.47 406.32 L 451.23 406.32 L 451.62 442.80 L 452.38 442.80 L 452.77 442.80 L 453.53 442.80 L 453.91 442.80 L 454.68 442.80 L 455.06 442.80 L 455.83 442.80 L 456.21 442.80 L 456.98 442.80 L 457.36 442.80 L 458.13 442.80 L 458.51 479.28 L 459.28 479.28 L 459.66 479.28 L 460.43 479.28 L 460.81 479.28 L 461.57 479.28 L 461.96 479.28 L 462.72 479.28 L 463.11 479.28 L 463.87 479.28 L 464.26 479.28 L 465.02 479.28 L 465.40 479.28 L 466.17 479.28 L 466.55 479.28 L 467.32 479.28 L 467.70 497.52 L 468.47 497.52 L 468.85 497.52 L 469.62 497.52 L 470.00 497.52 L 470.77 497.52 L 471.53 497.52 L 471.91 497.52 L 472.68 497.52 L 473.06 497.52 L 473.83 497.52 L 474.21 497.52 L 474.98 497.52 L 475.36 497.52 L 476.13 534.00 L 476.51 534.00 L 477.28 497.52 L 477.66 534.00 L 478.43 534.00 L 478.81 534.00 L 479.57 534.00 L 479.96 534.00 L 480.72 534.00 L 481.11 534.00 L 481.87 534.00 L 482.26 534.00 L 483.02 534.00 L 483.40 534.00 L 484.17 497.52 L 484.55 497.52 L 485.32 497.52 L 485.70 534.00 L 486.47 534.00 L 486.85 534.00 L 487.62 534.00 L 488.00 534.00 L 488.77 534.00 L 489.15 534.00 L 489.91 534.00 L 490.68 534.00 L 491.06 497.52 L 491.83 497.52 L 492.21 497.52 L 492.98 497.52 L 493.36 497.52 L 494.13 497.52 L 494.51 497.52 L 495.28 497.52 L 495.66 497.52 L 496.43 497.52 L 496.81 497.52 L 497.57 497.52 L 497.96 497.52 L 498.72 497.52 L 499.11 497.52 L 499.87 497.52 L 500.26 497.52 L 501.02 497.52 L 501.40 497.52 L 502.17 497.52 L 502.55 497.52 L 503.32 497.52 L 503.70 497.52 L 504.47 497.52 L 504.85 497.52 L 505.62 497.52 L 506.00 497.52 L 506.77 497.52 L 507.15 497.52 L 507.91 497.52 L 508.30 534.00 L 509.06 534.00 L 509.45 534.00 L 510.21 534.00 L 510.98 534.00 L 511.36 534.00 L 512.13 534.00 L 512.51 534.00 L 513.28 534.00 L 513.66 534.00 L 514.43 534.00 L 514.81 534.00 L 515.57 534.00 L 515.96 534.00 L 516.72 534.00 L 517.11 534.00 L 517.87 534.00 L 518.26 534.00 L 519.02 534.00 L 519.40 534.00 L 651.15 534.00 L 651.53 534.00 L 651.53 406.32 L 651.53 442.80 L 651.53 479.28 L 651.53 442.80 L 651.53 442.80 L 651.53 479.28 L 651.53 497.52 L 651.53 497.52 L 651.53 497.52 L 651.53 442.80 L 651.53 442.80 L 651.53 497.52 L 651.53 406.32 L 651.53 534.00 L 651.53 388.08 L 651.53 388.08 L 651.53 388.08 L 651.53 388.08 L 651.53 388.08 L 651.53 388.08 L 651.53 388.08 L 651.53 388.08 L 651.53 388.08 L 651.53 406.32 L 651.53 406.32 L 651.53 406.32 L 651.53 406.32 L 651.53 406.32 L 651.53 406.32 L 651.53 406.32 L 651.53 406.32 L 651.53 406.32 L 651.53 479.28 L 651.53 479.28 L 651.53 479.28 L 651.53 479.28 L 651.53 479.28 L 651.53 497.52 L 651.53 497.52 L 651.53 497.52 L 651.53 479.28 L 651.53 479.28 L 651.53 479.28 L 651.53 479.28 L 651.53 479.28 L 651.53 479.28 L 651.53 479.28 L 651.53 479.28 L 651.53 479.28 L 651.53 479.28 L 651.53 479.28 L 651.53 479.28 L 651.53 479.28 L 651.53 479.28 L 651.53 479.28 L 651.53 479.28 L 651.53 497.52 L 651.53 497.52 L 651.53 497.52 L 651.53 497.52 L 651.53 497.52 L 651.53 497.52 L 651.53 497.52 L 651.53 497.52 L 651.53 497.52 L 651.53 497.52 L 651.53 497.52 L 651.53 497.52 L 651.53 497.52 L 651.53 497.52 L 651.53 497.52 L 651.53 497.52 L 651.53 497.52 L 651.53 497.52 L 651.53 497.52 L 651.53 497.52 L 651.53 497.52 L 651.53 497.52 L 651.53 497.52 L 651.53 534.00 L 651.53 497.52 L 651.53 497.52 L 651.53 497.52 L 651.53 497.52 L 651.53 497.52 L 651.53 534.00 L 651.53 534.00 L 652.30 534.00 L 652.68 534.00 L 758.77 534.00 L 758.77 534.00 L 758.77 534.00 L 758.77 534.00 L 758.77 534.00 L 758.77 534.00 L 758.77 534.00 L 758.77 534.00 L 758.77 534.00 L 758.77 534.00 L 758.77 534.00 L 758.77 534.00 L 758.77 534.00 L 758.77 534.00 L 758.77 534.00 L 758.77 534.00 L 758.77 534.00 L 758.77 534.00 L 758.77 534.00 L 758.77 534.00 L 758.77 534.00 L 758.77 534.00 L 758.77 534.00 L 758.77 534.00 L 758.77 534.00 L 758.77 534.00 L 758.77 534.00 L 758.77 534.00 L 758.77 534.00 L 758.77 534.00 L 758.77 534.00 L 758.77 534.00 L 758.77 534.00 L 758.77 534.00 L 758.77 534.00 L 758.77 534.00 L 758.77 534.00 L 758.77 534.00 L 758.77 534.00 L 758.77 534.00 L 758.77 534.00 L 758.77 534.00 L 758.77 534.00 L 758.77 534.00 L 758.77 534.00 L 758.77 534.00 L 758.77 534.00 L 758.77 534.00 L 758.77 534.00 L 759.15 534.00 L 759.15 534.00 L 759.15 534.00 L 759.15 534.00 L 759.15 534.00 L 759.15 534.00 L 759.15 534.00 L 759.15 534.00 L 759.15 534.00 L 759.15 534.00 L 759.15 534.00 L 759.15 534.00 L 759.15 534.00 L 759.15 534.00 L 759.15 534.00 L 759.15 534.00 L 759.15 534.00 L 759.15 534.00 L 759.15 534.00 L 759.15 534.00 L 759.15 534.00 L 759.15 534.00 L 759.15 534.00 L 759.15 534.00 L 759.15 534.00 L 759.15 534.00 L 759.15 534.00 L 759.15 534.00 L 759.15 534.00 L 759.15 534.00 L 759.15 534.00 L 759.15 534.00 L 759.15 534.00 L 759.15 534.00 L 759.15 534.00 L 759.15 534.00 L 759.15 534.00 L 759.15 534.00 L 759.15 534.00 L 759.15 169.20 L 759.15 169.20 L 759.15 169.20 L 759.53 169.20 L 759.91 169.20 L 760.68 169.20 L 761.06 169.20 L 761.83 169.20 L 762.21 169.20 L 762.98 169.20 L 763.36 169.20 L 764.13 169.20 L 764.51 169.20 L 765.28 169.20 L 765.66 169.20 L 766.43 169.20 L 766.81 169.20 L 767.57 169.20 L 767.96 169.20 L 768.72 169.20 L 769.11 169.20 L 769.87 169.20 L 770.26 169.20 L 771.02 169.20 L 771.40 169.20 L 772.17 169.20 L 772.55 169.20 L 773.32 169.20 L 774.09 169.20 L 774.47 169.20 L 775.23 169.20 L 775.62 169.20 L 776.38 169.20 L 776.77 169.20 L 777.53 169.20 L 777.91 169.20 L 778.68 169.20 L 779.06 169.20 L 779.83 169.20 L 780.21 169.20 L 780.98 169.20 L 781.36 169.20 L 782.13 169.20 L 782.51 169.20 L 783.28 169.20 L 783.66 169.20 L 784.43 205.68 L 784.81 205.68 L 785.57 205.68 L 785.96 205.68 L 786.72 205.68 L 787.11 205.68 L 787.87 169.20 L 788.26 205.68 L 789.02 205.68 L 789.40 296.88 L 790.17 296.88 L 790.55 296.88 L 791.32 296.88 L 791.70 296.88 L 792.47 296.88 L 792.85 296.88 L 793.62 296.88 L 794.00 296.88 L 794.77 333.36 L 795.15 388.08 L 795.91 388.08 L 796.30 388.08 L 797.06 388.08 L 797.83 351.60 L 798.21 388.08 L 798.98 388.08 L 799.36 388.08 L 800.13 351.60 L 800.51 388.08 L 801.28 388.08 L 801.66 388.08 L 802.43 388.08 L 802.81 388.08 L 803.57 388.08 L 803.96 388.08 L 804.72 351.60 L 805.11 388.08 L 805.87 351.60 L 806.26 388.08 L 807.02 351.60 L 807.40 351.60 L 808.17 351.60 L 808.55 351.60 L 809.32 351.60 L 809.70 351.60 L 810.47 351.60 L 810.85 351.60 L 811.62 388.08 L 812.00 388.08 L 812.77 351.60 L 813.15 351.60 L 813.91 351.60 L 814.30 351.60 L 815.06 351.60 L 815.45 351.60 L 816.21 351.60 L 816.60 351.60 L 817.36 351.60 L 817.74 388.08 L 818.51 388.08 L 819.28 351.60 L 819.66 351.60 L 820.43 351.60 L 820.81 351.60 L 821.57 351.60 L 821.96 351.60 L 822.72 351.60 L 823.11 351.60 L 823.87 351.60 L 824.26 351.60 L 825.02 351.60 L 825.40 351.60 L 826.17 351.60 L 826.55 351.60 L 827.32 351.60 L 827.70 351.60 L 828.47 388.08 L 828.85 351.60 L 829.62 351.60 L 830.00 351.60 L 830.77 351.60 L 831.15 351.60 L 831.91 351.60 L 832.30 351.60 L 833.06 351.60 L 833.45 351.60 L 834.21 388.08 L 834.60 351.60 L 835.36 388.08 L 835.74 351.60 L 836.51 351.60 L 836.89 388.08 L 837.66 351.60 L 838.04 388.08 L 838.81 388.08 L 839.19 388.08 L 839.96 388.08 L 840.72 388.08 L 841.11 388.08 L 841.87 388.08 L 842.26 388.08 L 843.02 388.08 L 843.40 388.08 L 844.17 388.08 L 844.55 388.08 L 845.32 388.08 L 845.70 388.08 L 846.47 388.08 L 846.85 388.08 L 847.62 388.08 L 848.00 388.08 L 848.77 388.08 L 849.15 388.08 L 849.91 388.08 L 850.30 388.08 L 851.06 388.08 L 851.45 388.08 L 852.21 388.08 L 852.60 388.08 L 853.36 388.08 L 853.74 479.28 L 854.51 479.28 L 854.89 479.28 L 855.66 479.28 L 856.04 479.28 L 856.81 479.28 L 857.19 479.28 L 857.96 479.28 L 858.34 479.28 L 859.11 479.28 L 859.49 479.28 L 860.26 479.28 L 861.02 479.28 L 861.40 479.28 L 862.17 479.28 L 862.55 479.28 L 863.32 479.28 L 863.70 479.28 L 864.47 479.28 L 864.85 479.28 L 865.62 479.28 L 866.00 479.28 L 866.77 497.52 L 867.15 497.52 L 867.91 497.52 L 868.30 497.52 L 869.06 497.52 L 869.45 497.52 L 870.21 497.52 L 870.60 497.52 L 871.36 497.52 L 871.74 497.52 L 872.51 497.52 L 872.89 497.52 L 873.66 497.52 L 874.04 497.52 L 874.81 497.52 L 875.19 497.52 L 875.96 497.52 L 876.34 497.52 L 877.11 497.52 L 877.49 497.52 L 878.26 497.52 L 878.64 497.52 L 879.40 497.52 L 879.79 497.52 L 880.55 497.52 L 881.32 497.52 L 881.70 497.52 L 882.47 497.52 L 882.85 497.52 L 883.62 497.52 L 884.00 497.52 L 884.77 497.52 L 885.15 497.52 L 885.91 497.52 L 886.30 497.52 L 887.06 497.52 L 887.45 497.52 L 888.21 497.52 L 888.60 497.52 L 889.36 497.52 L 889.74 497.52 L 890.51 497.52 L 890.89 497.52 L 891.66 497.52 L 892.04 497.52 L 892.81 497.52 L 893.19 497.52 L 893.96 497.52 L 894.34 497.52 L 895.11 497.52 L 895.49 497.52 L 896.26 497.52 L 896.64 497.52 L 897.40 497.52 L 897.79 497.52 L 898.55 497.52 L 898.94 497.52 L 899.70 497.52 L 900.09 497.52 L 900.85 497.52 L 901.62 497.52 L 902.00 534.00 L 902.77 497.52 L 903.15 497.52 L 903.91 497.52 L 904.30 534.00 L 905.06 534.00 L 905.45 534.00 L 906.21 534.00 L 906.60 534.00 L 907.36 534.00 L 907.74 534.00 L 908.51 534.00 L 908.89 534.00 L 909.66 534.00 L 910.04 534.00 L 910.81 534.00 L 911.19 534.00 L 911.96 534.00 L 912.34 534.00 L 913.11 534.00 L 913.49 534.00 L 914.26 534.00 L 914.64 534.00 L 915.40 534.00 L 915.79 534.00 L 916.55 534.00 L 916.94 534.00 L 917.70 534.00 L 918.09 534.00 L 918.85 534.00 L 919.23 534.00 L 920.00 534.00 L 920.77 534.00 L 921.15 534.00 L 921.91 534.00 L 922.30 534.00 L 923.06 534.00 L 923.45 534.00 L 924.21 534.00 L 924.60 534.00 L 925.36 534.00 L 925.74 534.00 L 926.51 534.00 L 926.89 534.00 L 927.66 534.00 L 928.04 534.00 L 928.81 534.00 L 929.19 534.00 L 929.96 534.00 L 930.34 534.00 L 931.11 534.00 L 931.49 534.00 L 932.26 534.00 L 932.64 534.00 L 933.40 534.00 L 933.79 534.00 L 934.55 534.00 L 934.94 534.00 L 935.70 534.00 L 936.09 534.00 L 936.85 534.00 L 937.23 534.00 L 938.00 534.00 L 938.38 534.00 L 939.15 534.00 L 939.53 534.00 L 940.30 534.00 L 941.06 534.00 L 941.45 534.00 L 942.21 534.00 L 942.60 534.00 L 943.36 534.00 L 943.74 534.00 L 944.51 534.00 L 944.89 534.00 L 945.66 534.00 L 946.04 534.00 L 946.81 534.00 L 947.19 534.00 L 947.96 534.00 L 948.34 534.00 L 949.11 534.00 L 949.49 534.00 L 950.26 534.00 L 950.64 534.00 L 951.40 534.00 L 951.79 534.00 L 952.55 534.00 L 952.94 534.00 L 953.70 534.00 L 954.09 534.00 L 954.85 534.00 L 955.23 534.00 L 956.00 534.00 L 956.38 534.00 L 957.15 534.00 L 957.53 534.00 L 958.30 534.00 L 958.68 534.00 L 959.45 534.00 L 960.21 534.00 L 960.60 534.00 L 961.36 534.00 L 961.74 534.00 L 962.51 534.00 L 962.89 534.00 L 963.66 534.00 L 964.04 534.00 L 964.81 534.00 L 965.19 534.00 L 965.96 534.00 L 966.34 534.00 L 967.11 534.00 L 967.49 534.00 L 968.26 534.00 L 968.64 534.00 L 969.40 534.00 L 969.79 534.00 L 970.55 534.00 L 970.94 534.00 L 971.70 534.00 L 972.09 534.00 L 972.85 534.00 L 973.23 534.00 L 974.00 534.00 L 974.38 534.00 L 975.15 534.00 L 975.53 534.00 L 976.30 534.00 L 976.68 534.00 L 977.45 534.00 L 977.83 534.00 L 978.60 534.00 L 979.36 534.00 L 979.74 534.00 L 980.51 534.00 L 980.89 534.00 L 981.66 534.00 L 982.04 534.00 L 982.81 534.00 L 983.19 534.00 L 983.96 534.00 L 984.34 534.00 L 985.11 534.00 L 985.49 534.00 L 986.26 534.00 L 986.64 534.00 L 987.40 534.00 L 987.79 534.00 L 988.55 534.00 L 988.94 534.00 L 989.70 534.00 L 990.09 534.00 L 990.85 534.00 L 991.23 534.00 L 992.00 534.00 L 992.38 534.00 L 993.15 534.00 L 993.53 534.00 L 994.30 534.00 L 994.68 534.00 L 995.45 534.00 L 995.83 534.00 L 996.60 534.00 L 996.98 534.00 L 997.74 534.00 L 998.13 534.00 L 998.89 534.00 L 999.66 534.00 L 1000.04 479.28 L 1000.81 479.28 L 1001.19 479.28 L 1001.96 479.28 L 1002.34 479.28 L 1003.11 479.28 L 1003.49 479.28 L 1004.26 479.28 L 1004.64 479.28 L 1005.40 479.28 L 1005.79 479.28 L 1006.55 479.28 L 1006.94 479.28 L 1007.70 479.28 L 1008.09 479.28 L 1008.85 479.28 L 1009.23 479.28 L 1010.00 479.28 L 1010.38 479.28 L 1011.15 479.28 L 1011.53 479.28 L 1012.30 479.28 L 1012.68 479.28 L 1013.45 479.28 L 1013.83 479.28 L 1014.60 479.28 L 1014.98 497.52 L 1015.74 497.52 L 1016.13 497.52 L 1016.89 497.52 L 1017.28 497.52 L 1018.04 497.52 L 1018.81 497.52 L 1019.19 497.52 L 1019.96 497.52 L 1020.34 497.52 L 1021.11 497.52 L 1021.49 497.52 L 1022.26 497.52 L 1022.64 497.52 L 1023.40 497.52 L 1023.79 497.52 L 1024.55 497.52 L 1024.94 497.52 L 1025.70 497.52 L 1026.09 497.52 L 1026.85 497.52 L 1027.23 497.52 L 1028.00 497.52 L 1028.38 497.52 L 1029.15 497.52 L 1029.53 497.52 L 1030.30 497.52 L 1030.68 497.52 L 1031.45 497.52 L 1031.83 497.52 L 1032.60 497.52 L 1032.98 497.52 L 1033.74 497.52 L 1034.13 497.52 L 1034.89 497.52 L 1035.28 497.52 L 1036.04 497.52 L 1036.43 497.52 L 1037.19 497.52 L 1037.57 497.52 L 1038.34 497.52 L 1039.11 497.52 L 1039.49 497.52 L 1040.26 497.52 L 1040.64 497.52 L 1041.40 497.52 L 1041.79 497.52 L 1042.55 497.52 L 1042.94 497.52 L 1043.70 497.52 L 1044.09 497.52 L 1044.85 497.52 L 1045.23 497.52 L 1046.00 497.52 L 1046.38 534.00 L 1047.15 534.00 L 1047.53 534.00 L 1048.30 534.00 L 1048.68 534.00 L 1049.45 534.00 L 1049.83 534.00 L 1050.60 534.00 L 1050.98 534.00 L 1051.74 534.00 L 1052.13 534.00 L 1052.89 534.00 L 1053.28 534.00 L 1054.04 534.00 L 1054.43 534.00 L 1055.19 534.00 L 1055.57 534.00 L 1056.34 534.00 L 1056.72 534.00 L 1057.49 534.00 L 1057.87 534.00 L 1058.64 534.00 L 1059.40 534.00 L 1059.79 534.00 L 1060.55 534.00 L 1060.94 534.00 L 1061.70 534.00 L 1062.09 534.00 L 1062.85 534.00 L 1063.23 534.00 L 1064.00 534.00 L 1064.38 534.00 L 1065.15 534.00 L 1065.53 534.00 L 1066.30 534.00 L 1066.68 534.00 L 1067.45 534.00 L 1067.83 534.00 L 1068.60 534.00 L 1068.98 534.00 L 1069.74 534.00 L 1070.13 534.00 L 1070.89 534.00 L 1071.28 534.00 L 1072.04 534.00 L 1072.43 534.00 L 1073.19 534.00 L 1073.57 534.00 L 1074.34 534.00 L 1074.72 534.00 L 1075.49 534.00 L 1075.87 534.00 L 1076.64 534.00 L 1077.02 534.00 L 1077.79 534.00 L 1078.17 534.00 L 1078.94 534.00 L 1079.70 534.00 L 1080.09 534.00 L 1080.85 534.00 L 1081.23 534.00 L 1082.00 534.00" fill="none" stroke="#f97316" stroke-width="2.7" stroke-dasharray="8 6"/>
<path d="M 92.00 224.83 L 92.77 225.74 L 93.15 225.74 L 93.91 225.74 L 94.30 225.74 L 95.06 225.74 L 95.45 225.74 L 96.21 225.74 L 96.98 225.74 L 97.36 225.74 L 98.13 225.74 L 98.51 225.74 L 99.28 225.74 L 99.66 226.66 L 100.43 482.93 L 100.81 500.26 L 101.57 500.26 L 101.96 500.26 L 102.72 500.26 L 103.11 500.26 L 103.87 500.26 L 104.26 500.26 L 105.02 500.26 L 105.40 500.26 L 106.17 534.00 L 106.55 534.00 L 107.32 397.20 L 107.70 397.20 L 108.47 482.93 L 108.85 397.20 L 109.62 397.20 L 110.00 397.20 L 110.77 397.20 L 111.15 397.20 L 111.91 398.11 L 112.30 398.11 L 113.06 398.11 L 113.45 398.11 L 114.21 398.11 L 114.60 398.11 L 115.36 398.11 L 115.74 398.11 L 116.51 398.11 L 116.89 398.11 L 117.66 398.11 L 118.04 398.11 L 118.81 398.11 L 119.57 398.11 L 119.96 398.11 L 120.72 398.11 L 121.11 398.11 L 121.87 398.11 L 122.26 398.11 L 123.02 398.11 L 123.40 398.11 L 124.17 398.11 L 124.55 398.11 L 125.32 398.11 L 125.70 398.11 L 126.47 398.11 L 126.85 398.11 L 127.62 398.11 L 128.00 398.11 L 128.77 398.11 L 129.15 398.11 L 129.91 398.11 L 130.30 398.11 L 131.06 398.11 L 131.45 398.11 L 132.21 398.11 L 132.60 398.11 L 133.36 398.11 L 133.74 398.11 L 134.51 398.11 L 134.89 398.11 L 135.66 398.11 L 136.04 398.11 L 136.81 398.11 L 137.19 398.11 L 137.96 398.11 L 138.34 398.11 L 139.11 398.11 L 139.87 398.11 L 140.26 398.11 L 141.02 398.11 L 141.40 398.11 L 142.17 398.11 L 142.55 398.11 L 143.32 399.02 L 143.70 399.02 L 144.47 399.02 L 144.85 399.02 L 145.62 399.02 L 146.00 399.02 L 146.77 399.02 L 147.15 399.02 L 147.91 399.02 L 148.30 399.02 L 149.06 399.02 L 149.45 399.02 L 150.21 399.02 L 150.60 399.02 L 151.36 399.02 L 151.74 399.02 L 152.51 399.02 L 152.89 399.02 L 153.66 399.02 L 154.04 399.02 L 154.81 399.02 L 155.19 399.02 L 155.96 399.02 L 156.34 399.02 L 157.11 399.02 L 157.49 399.02 L 158.26 399.02 L 158.64 415.44 L 159.40 416.35 L 159.79 416.35 L 160.55 416.35 L 161.32 416.35 L 161.70 416.35 L 162.47 416.35 L 162.85 416.35 L 163.62 416.35 L 164.00 416.35 L 164.77 416.35 L 165.15 416.35 L 165.91 416.35 L 166.30 416.35 L 167.06 416.35 L 167.45 416.35 L 168.21 416.35 L 168.60 416.35 L 169.36 416.35 L 169.74 416.35 L 170.51 416.35 L 170.89 416.35 L 171.66 416.35 L 172.04 416.35 L 172.81 416.35 L 173.19 416.35 L 173.96 450.10 L 174.34 450.10 L 175.11 450.10 L 175.49 450.10 L 176.26 450.10 L 176.64 450.10 L 177.40 450.10 L 177.79 450.10 L 178.55 450.10 L 178.94 450.10 L 179.70 450.10 L 180.09 450.10 L 180.85 450.10 L 181.62 450.10 L 182.00 450.10 L 182.77 450.10 L 183.15 450.10 L 183.91 450.10 L 184.30 450.10 L 185.06 450.10 L 185.45 450.10 L 186.21 450.10 L 186.60 450.10 L 187.36 450.10 L 187.74 450.10 L 188.51 450.10 L 188.89 483.84 L 189.66 483.84 L 190.04 483.84 L 190.81 483.84 L 191.19 483.84 L 191.96 483.84 L 192.34 483.84 L 193.11 483.84 L 193.49 483.84 L 194.26 483.84 L 194.64 483.84 L 195.40 483.84 L 195.79 483.84 L 196.55 483.84 L 196.94 483.84 L 197.70 483.84 L 198.09 483.84 L 198.85 483.84 L 199.23 483.84 L 200.00 483.84 L 200.38 483.84 L 201.15 483.84 L 201.53 483.84 L 202.30 483.84 L 203.06 483.84 L 203.45 483.84 L 204.21 483.84 L 204.60 500.26 L 205.36 500.26 L 205.74 500.26 L 206.51 500.26 L 206.89 500.26 L 207.66 500.26 L 208.04 500.26 L 208.81 500.26 L 209.19 500.26 L 209.96 500.26 L 210.34 500.26 L 211.11 500.26 L 211.49 500.26 L 212.26 500.26 L 212.64 500.26 L 213.40 500.26 L 213.79 534.00 L 214.55 534.00 L 214.94 534.00 L 215.70 534.00 L 216.09 534.00 L 216.85 500.26 L 217.23 416.35 L 218.00 483.84 L 218.38 534.00 L 219.15 450.10 L 219.53 450.10 L 220.30 500.26 L 220.68 450.10 L 221.45 450.10 L 221.83 416.35 L 222.60 416.35 L 223.36 416.35 L 223.74 416.35 L 224.51 416.35 L 224.89 416.35 L 225.66 416.35 L 226.04 416.35 L 226.81 416.35 L 227.19 416.35 L 227.96 416.35 L 228.34 416.35 L 229.11 416.35 L 229.49 416.35 L 230.26 416.35 L 230.64 416.35 L 231.40 399.02 L 231.79 399.02 L 232.55 399.02 L 232.94 416.35 L 233.70 416.35 L 234.09 416.35 L 234.85 416.35 L 235.23 416.35 L 236.00 416.35 L 236.38 416.35 L 237.15 483.84 L 237.53 483.84 L 238.30 500.26 L 238.68 500.26 L 239.45 500.26 L 239.83 500.26 L 240.60 500.26 L 240.98 500.26 L 241.74 500.26 L 242.13 500.26 L 242.89 500.26 L 243.28 500.26 L 244.04 500.26 L 244.81 500.26 L 245.19 500.26 L 245.96 500.26 L 246.34 500.26 L 247.11 500.26 L 247.49 500.26 L 248.26 500.26 L 248.64 450.10 L 249.40 450.10 L 249.79 450.10 L 250.55 450.10 L 250.94 534.00 L 251.70 534.00 L 252.09 534.00 L 252.85 534.00 L 253.23 534.00 L 254.00 534.00 L 254.38 483.84 L 255.15 483.84 L 255.53 483.84 L 256.30 483.84 L 256.68 483.84 L 257.45 483.84 L 257.83 483.84 L 258.60 500.26 L 258.98 534.00 L 259.74 534.00 L 260.13 483.84 L 260.89 483.84 L 261.28 483.84 L 262.04 483.84 L 262.43 483.84 L 263.19 483.84 L 263.57 483.84 L 264.34 483.84 L 265.11 483.84 L 265.49 500.26 L 266.26 500.26 L 266.64 500.26 L 267.40 500.26 L 267.79 500.26 L 268.55 500.26 L 268.94 500.26 L 269.70 500.26 L 270.09 500.26 L 270.85 500.26 L 271.23 500.26 L 272.00 500.26 L 272.38 534.00 L 273.15 534.00 L 273.53 534.00 L 274.30 534.00 L 274.68 534.00 L 275.45 534.00 L 275.83 534.00 L 276.60 534.00 L 276.98 534.00 L 277.74 534.00 L 278.13 534.00 L 278.89 534.00 L 279.28 534.00 L 280.04 534.00 L 280.43 534.00 L 281.19 534.00 L 281.57 534.00 L 282.34 534.00 L 282.72 534.00 L 283.49 534.00 L 283.87 534.00 L 284.64 534.00 L 285.02 534.00 L 285.79 534.00 L 286.55 534.00 L 286.94 534.00 L 287.70 534.00 L 288.09 534.00 L 288.85 534.00 L 289.23 534.00 L 290.00 534.00 L 290.38 534.00 L 291.15 534.00 L 291.53 500.26 L 292.30 500.26 L 292.68 500.26 L 293.45 500.26 L 293.83 500.26 L 294.60 500.26 L 294.98 500.26 L 295.74 500.26 L 296.13 482.93 L 296.89 482.93 L 297.28 482.93 L 298.04 482.93 L 298.43 482.93 L 299.19 482.93 L 299.57 482.93 L 300.34 482.93 L 300.72 482.93 L 301.49 482.93 L 301.87 482.93 L 302.64 449.18 L 303.02 449.18 L 303.79 449.18 L 304.17 449.18 L 304.94 482.93 L 305.32 449.18 L 306.09 415.44 L 306.47 398.11 L 307.23 398.11 L 308.00 398.11 L 308.38 398.11 L 309.15 398.11 L 309.53 364.37 L 310.30 364.37 L 310.68 364.37 L 311.45 347.04 L 311.83 347.04 L 312.60 347.04 L 312.98 347.04 L 313.74 347.04 L 314.13 347.04 L 314.89 482.93 L 315.28 347.04 L 316.04 313.30 L 316.43 534.00 L 317.19 534.00 L 317.57 534.00 L 318.34 449.18 L 318.72 534.00 L 319.49 534.00 L 319.87 313.30 L 320.64 313.30 L 321.02 279.55 L 321.79 313.30 L 322.17 313.30 L 322.94 279.55 L 323.32 279.55 L 324.09 347.04 L 324.47 534.00 L 325.23 534.00 L 325.62 347.04 L 326.38 500.26 L 326.77 449.18 L 327.53 449.18 L 327.91 279.55 L 328.68 279.55 L 329.45 347.04 L 329.83 313.30 L 330.60 313.30 L 330.98 313.30 L 331.74 313.30 L 332.13 313.30 L 332.89 262.22 L 333.28 262.22 L 334.04 262.22 L 334.43 262.22 L 335.19 262.22 L 335.57 262.22 L 336.34 262.22 L 336.72 262.22 L 337.49 262.22 L 337.87 262.22 L 338.64 262.22 L 339.02 262.22 L 339.79 449.18 L 340.17 500.26 L 340.94 500.26 L 341.32 482.93 L 342.09 364.37 L 342.47 347.04 L 343.23 228.48 L 343.62 228.48 L 344.38 228.48 L 344.77 228.48 L 345.53 228.48 L 345.91 228.48 L 346.68 228.48 L 347.06 228.48 L 347.83 228.48 L 348.21 228.48 L 348.98 228.48 L 349.36 229.39 L 350.13 229.39 L 350.89 534.00 L 351.28 229.39 L 352.04 229.39 L 352.43 229.39 L 353.19 229.39 L 353.57 534.00 L 354.34 263.14 L 354.72 263.14 L 355.49 263.14 L 355.87 263.14 L 356.64 263.14 L 357.02 229.39 L 357.79 229.39 L 358.17 229.39 L 358.94 229.39 L 359.32 229.39 L 360.09 280.46 L 360.47 365.28 L 361.23 365.28 L 361.62 482.93 L 362.38 500.26 L 362.77 482.93 L 363.53 534.00 L 363.91 482.93 L 364.68 500.26 L 365.06 482.93 L 365.83 399.02 L 366.21 365.28 L 366.98 415.44 L 367.36 365.28 L 368.13 280.46 L 368.51 314.21 L 369.28 314.21 L 369.66 280.46 L 370.43 230.30 L 371.19 230.30 L 371.57 280.46 L 372.34 365.28 L 372.72 399.02 L 373.49 365.28 L 373.87 230.30 L 374.64 230.30 L 375.02 196.56 L 375.79 230.30 L 376.17 230.30 L 376.94 281.38 L 377.32 365.28 L 378.09 348.86 L 378.47 264.05 L 379.23 197.47 L 379.62 197.47 L 380.38 197.47 L 380.77 197.47 L 381.53 197.47 L 381.91 197.47 L 382.68 281.38 L 383.06 450.10 L 383.83 450.10 L 384.21 500.26 L 384.98 416.35 L 385.36 399.02 L 386.13 264.96 L 386.51 197.47 L 387.28 197.47 L 387.66 197.47 L 388.43 231.22 L 388.81 231.22 L 389.57 198.38 L 389.96 198.38 L 390.72 198.38 L 391.11 198.38 L 391.87 198.38 L 392.64 198.38 L 393.02 198.38 L 393.79 198.38 L 394.17 198.38 L 394.94 198.38 L 395.32 198.38 L 396.09 198.38 L 396.47 198.38 L 397.23 198.38 L 397.62 198.38 L 398.38 198.38 L 398.77 198.38 L 399.53 198.38 L 399.91 198.38 L 400.68 199.30 L 401.06 199.30 L 401.83 199.30 L 402.21 199.30 L 402.98 199.30 L 403.36 199.30 L 404.13 199.30 L 404.51 199.30 L 405.28 199.30 L 405.66 199.30 L 406.43 199.30 L 406.81 199.30 L 407.57 199.30 L 407.96 200.21 L 408.72 200.21 L 409.11 200.21 L 409.87 200.21 L 410.26 417.26 L 411.02 200.21 L 411.40 200.21 L 412.17 200.21 L 412.94 200.21 L 413.32 200.21 L 414.09 200.21 L 414.47 200.21 L 415.23 200.21 L 415.62 200.21 L 416.38 200.21 L 416.77 233.95 L 417.53 233.95 L 417.91 233.95 L 418.68 200.21 L 419.06 201.12 L 419.83 233.95 L 420.21 267.70 L 420.98 367.10 L 421.36 483.84 L 422.13 534.00 L 422.51 534.00 L 423.28 534.00 L 423.66 534.00 L 424.43 534.00 L 424.81 534.00 L 425.57 534.00 L 425.96 534.00 L 426.72 534.00 L 427.11 534.00 L 427.87 534.00 L 428.26 534.00 L 429.02 534.00 L 429.40 534.00 L 430.17 534.00 L 430.55 534.00 L 431.32 534.00 L 432.09 534.00 L 432.47 534.00 L 433.23 534.00 L 433.62 534.00 L 434.38 284.11 L 434.77 234.86 L 435.53 234.86 L 435.91 234.86 L 436.68 234.86 L 437.06 234.86 L 437.83 234.86 L 438.21 234.86 L 438.98 234.86 L 439.36 234.86 L 440.13 234.86 L 440.51 234.86 L 441.28 317.86 L 441.66 317.86 L 442.43 317.86 L 442.81 317.86 L 443.57 317.86 L 443.96 317.86 L 444.72 317.86 L 445.11 351.60 L 445.87 351.60 L 446.26 351.60 L 447.02 351.60 L 447.40 368.02 L 448.17 368.02 L 448.55 417.26 L 449.32 417.26 L 449.70 417.26 L 450.47 417.26 L 451.23 417.26 L 451.62 451.01 L 452.38 451.01 L 452.77 451.01 L 453.53 451.01 L 453.91 451.01 L 454.68 451.01 L 455.06 451.01 L 455.83 451.01 L 456.21 451.01 L 456.98 451.01 L 457.36 451.01 L 458.13 451.01 L 458.51 483.84 L 459.28 483.84 L 459.66 483.84 L 460.43 483.84 L 460.81 483.84 L 461.57 483.84 L 461.96 483.84 L 462.72 483.84 L 463.11 483.84 L 463.87 483.84 L 464.26 483.84 L 465.02 483.84 L 465.40 483.84 L 466.17 483.84 L 466.55 483.84 L 467.32 483.84 L 467.70 501.17 L 468.47 501.17 L 468.85 501.17 L 469.62 501.17 L 470.00 501.17 L 470.77 501.17 L 471.53 501.17 L 471.91 501.17 L 472.68 501.17 L 473.06 501.17 L 473.83 501.17 L 474.21 501.17 L 474.98 501.17 L 475.36 501.17 L 476.13 534.00 L 476.51 534.00 L 477.28 501.17 L 477.66 534.00 L 478.43 534.00 L 478.81 534.00 L 479.57 534.00 L 479.96 534.00 L 480.72 534.00 L 481.11 534.00 L 481.87 534.00 L 482.26 534.00 L 483.02 534.00 L 483.40 534.00 L 484.17 501.17 L 484.55 501.17 L 485.32 501.17 L 485.70 534.00 L 486.47 534.00 L 486.85 534.00 L 487.62 534.00 L 488.00 534.00 L 488.77 534.00 L 489.15 534.00 L 489.91 534.00 L 490.68 534.00 L 491.06 500.26 L 491.83 500.26 L 492.21 500.26 L 492.98 500.26 L 493.36 500.26 L 494.13 500.26 L 494.51 500.26 L 495.28 500.26 L 495.66 500.26 L 496.43 500.26 L 496.81 500.26 L 497.57 500.26 L 497.96 500.26 L 498.72 500.26 L 499.11 500.26 L 499.87 500.26 L 500.26 500.26 L 501.02 500.26 L 501.40 500.26 L 502.17 500.26 L 502.55 500.26 L 503.32 500.26 L 503.70 500.26 L 504.47 500.26 L 504.85 500.26 L 505.62 500.26 L 506.00 500.26 L 506.77 500.26 L 507.15 500.26 L 507.91 500.26 L 508.30 534.00 L 509.06 534.00 L 509.45 534.00 L 510.21 534.00 L 510.98 534.00 L 511.36 534.00 L 512.13 534.00 L 512.51 534.00 L 513.28 534.00 L 513.66 534.00 L 514.43 534.00 L 514.81 534.00 L 515.57 534.00 L 515.96 534.00 L 516.72 534.00 L 517.11 534.00 L 517.87 534.00 L 518.26 534.00 L 519.02 534.00 L 519.40 534.00 L 651.15 534.00 L 651.53 534.00 L 651.53 416.35 L 651.53 450.10 L 651.53 483.84 L 651.53 450.10 L 651.53 450.10 L 651.53 483.84 L 651.53 500.26 L 651.53 500.26 L 651.53 500.26 L 651.53 450.10 L 651.53 450.10 L 651.53 500.26 L 651.53 416.35 L 651.53 534.00 L 651.53 399.94 L 651.53 399.94 L 651.53 399.94 L 651.53 399.94 L 651.53 399.94 L 651.53 399.94 L 651.53 399.94 L 651.53 399.94 L 651.53 399.94 L 651.53 416.35 L 651.53 416.35 L 651.53 416.35 L 651.53 416.35 L 651.53 416.35 L 651.53 416.35 L 651.53 416.35 L 651.53 416.35 L 651.53 416.35 L 651.53 483.84 L 651.53 483.84 L 651.53 483.84 L 651.53 483.84 L 651.53 483.84 L 651.53 500.26 L 651.53 500.26 L 651.53 500.26 L 651.53 483.84 L 651.53 483.84 L 651.53 483.84 L 651.53 483.84 L 651.53 483.84 L 651.53 483.84 L 651.53 483.84 L 651.53 483.84 L 651.53 483.84 L 651.53 483.84 L 651.53 483.84 L 651.53 483.84 L 651.53 483.84 L 651.53 483.84 L 651.53 483.84 L 651.53 483.84 L 651.53 500.26 L 651.53 500.26 L 651.53 500.26 L 651.53 500.26 L 651.53 500.26 L 651.53 500.26 L 651.53 500.26 L 651.53 500.26 L 651.53 500.26 L 651.53 500.26 L 651.53 500.26 L 651.53 500.26 L 651.53 500.26 L 651.53 500.26 L 651.53 500.26 L 651.53 500.26 L 651.53 500.26 L 651.53 500.26 L 651.53 500.26 L 651.53 500.26 L 651.53 500.26 L 651.53 500.26 L 651.53 500.26 L 651.53 534.00 L 651.53 500.26 L 651.53 500.26 L 651.53 500.26 L 651.53 500.26 L 651.53 500.26 L 651.53 534.00 L 651.53 534.00 L 652.30 534.00 L 652.68 534.00 L 758.77 534.00 L 758.77 534.00 L 758.77 534.00 L 758.77 534.00 L 758.77 534.00 L 758.77 534.00 L 758.77 534.00 L 758.77 534.00 L 758.77 534.00 L 758.77 534.00 L 758.77 534.00 L 758.77 534.00 L 758.77 534.00 L 758.77 534.00 L 758.77 534.00 L 758.77 534.00 L 758.77 534.00 L 758.77 534.00 L 758.77 534.00 L 758.77 534.00 L 758.77 534.00 L 758.77 534.00 L 758.77 534.00 L 758.77 534.00 L 758.77 534.00 L 758.77 534.00 L 758.77 534.00 L 758.77 534.00 L 758.77 534.00 L 758.77 534.00 L 758.77 534.00 L 758.77 534.00 L 758.77 534.00 L 758.77 534.00 L 758.77 534.00 L 758.77 534.00 L 758.77 534.00 L 758.77 534.00 L 758.77 534.00 L 758.77 534.00 L 758.77 534.00 L 758.77 534.00 L 758.77 534.00 L 758.77 534.00 L 758.77 534.00 L 758.77 534.00 L 758.77 534.00 L 758.77 534.00 L 758.77 534.00 L 759.15 534.00 L 759.15 534.00 L 759.15 534.00 L 759.15 534.00 L 759.15 534.00 L 759.15 534.00 L 759.15 534.00 L 759.15 534.00 L 759.15 534.00 L 759.15 534.00 L 759.15 534.00 L 759.15 534.00 L 759.15 534.00 L 759.15 534.00 L 759.15 534.00 L 759.15 534.00 L 759.15 534.00 L 759.15 534.00 L 759.15 534.00 L 759.15 534.00 L 759.15 534.00 L 759.15 534.00 L 759.15 534.00 L 759.15 534.00 L 759.15 534.00 L 759.15 534.00 L 759.15 534.00 L 759.15 534.00 L 759.15 534.00 L 759.15 534.00 L 759.15 534.00 L 759.15 534.00 L 759.15 534.00 L 759.15 534.00 L 759.15 534.00 L 759.15 534.00 L 759.15 534.00 L 759.15 534.00 L 759.15 534.00 L 759.15 189.26 L 759.15 189.26 L 759.15 189.26 L 759.53 189.26 L 759.91 189.26 L 760.68 189.26 L 761.06 189.26 L 761.83 189.26 L 762.21 189.26 L 762.98 189.26 L 763.36 189.26 L 764.13 189.26 L 764.51 189.26 L 765.28 189.26 L 765.66 189.26 L 766.43 189.26 L 766.81 189.26 L 767.57 189.26 L 767.96 189.26 L 768.72 189.26 L 769.11 189.26 L 769.87 189.26 L 770.26 189.26 L 771.02 189.26 L 771.40 189.26 L 772.17 189.26 L 772.55 189.26 L 773.32 189.26 L 774.09 189.26 L 774.47 189.26 L 775.23 189.26 L 775.62 189.26 L 776.38 189.26 L 776.77 189.26 L 777.53 189.26 L 777.91 189.26 L 778.68 190.18 L 779.06 190.18 L 779.83 190.18 L 780.21 190.18 L 780.98 190.18 L 781.36 190.18 L 782.13 190.18 L 782.51 190.18 L 783.28 190.18 L 783.66 190.18 L 784.43 224.83 L 784.81 224.83 L 785.57 224.83 L 785.96 224.83 L 786.72 224.83 L 787.11 224.83 L 787.87 191.09 L 788.26 224.83 L 789.02 224.83 L 789.40 310.56 L 790.17 310.56 L 790.55 311.47 L 791.32 311.47 L 791.70 311.47 L 792.47 311.47 L 792.85 311.47 L 793.62 311.47 L 794.00 311.47 L 794.77 345.22 L 795.15 397.20 L 795.91 397.20 L 796.30 397.20 L 797.06 397.20 L 797.83 362.54 L 798.21 397.20 L 798.98 397.20 L 799.36 397.20 L 800.13 362.54 L 800.51 397.20 L 801.28 397.20 L 801.66 397.20 L 802.43 397.20 L 802.81 397.20 L 803.57 397.20 L 803.96 397.20 L 804.72 363.46 L 805.11 397.20 L 805.87 363.46 L 806.26 397.20 L 807.02 363.46 L 807.40 363.46 L 808.17 363.46 L 808.55 363.46 L 809.32 363.46 L 809.70 363.46 L 810.47 363.46 L 810.85 363.46 L 811.62 398.11 L 812.00 398.11 L 812.77 363.46 L 813.15 363.46 L 813.91 363.46 L 814.30 363.46 L 815.06 363.46 L 815.45 363.46 L 816.21 364.37 L 816.60 364.37 L 817.36 364.37 L 817.74 398.11 L 818.51 398.11 L 819.28 364.37 L 819.66 364.37 L 820.43 364.37 L 820.81 364.37 L 821.57 364.37 L 821.96 364.37 L 822.72 364.37 L 823.11 364.37 L 823.87 364.37 L 824.26 364.37 L 825.02 364.37 L 825.40 364.37 L 826.17 364.37 L 826.55 364.37 L 827.32 364.37 L 827.70 364.37 L 828.47 398.11 L 828.85 364.37 L 829.62 364.37 L 830.00 364.37 L 830.77 364.37 L 831.15 364.37 L 831.91 365.28 L 832.30 365.28 L 833.06 365.28 L 833.45 365.28 L 834.21 399.02 L 834.60 365.28 L 835.36 399.02 L 835.74 365.28 L 836.51 365.28 L 836.89 399.02 L 837.66 365.28 L 838.04 399.02 L 838.81 399.02 L 839.19 399.02 L 839.96 399.02 L 840.72 399.02 L 841.11 399.02 L 841.87 399.02 L 842.26 399.02 L 843.02 399.02 L 843.40 399.02 L 844.17 399.02 L 844.55 399.02 L 845.32 399.02 L 845.70 399.02 L 846.47 399.02 L 846.85 399.02 L 847.62 399.02 L 848.00 399.02 L 848.77 399.02 L 849.15 399.02 L 849.91 399.02 L 850.30 399.02 L 851.06 399.02 L 851.45 399.02 L 852.21 399.02 L 852.60 399.02 L 853.36 399.02 L 853.74 483.84 L 854.51 483.84 L 854.89 483.84 L 855.66 483.84 L 856.04 483.84 L 856.81 483.84 L 857.19 483.84 L 857.96 483.84 L 858.34 483.84 L 859.11 483.84 L 859.49 483.84 L 860.26 483.84 L 861.02 483.84 L 861.40 483.84 L 862.17 483.84 L 862.55 483.84 L 863.32 483.84 L 863.70 483.84 L 864.47 483.84 L 864.85 483.84 L 865.62 483.84 L 866.00 483.84 L 866.77 500.26 L 867.15 500.26 L 867.91 500.26 L 868.30 500.26 L 869.06 500.26 L 869.45 500.26 L 870.21 500.26 L 870.60 500.26 L 871.36 500.26 L 871.74 500.26 L 872.51 500.26 L 872.89 500.26 L 873.66 500.26 L 874.04 500.26 L 874.81 500.26 L 875.19 500.26 L 875.96 500.26 L 876.34 500.26 L 877.11 500.26 L 877.49 500.26 L 878.26 500.26 L 878.64 500.26 L 879.40 500.26 L 879.79 500.26 L 880.55 500.26 L 881.32 500.26 L 881.70 500.26 L 882.47 500.26 L 882.85 500.26 L 883.62 500.26 L 884.00 500.26 L 884.77 500.26 L 885.15 500.26 L 885.91 500.26 L 886.30 500.26 L 887.06 501.17 L 887.45 501.17 L 888.21 501.17 L 888.60 501.17 L 889.36 501.17 L 889.74 501.17 L 890.51 501.17 L 890.89 501.17 L 891.66 501.17 L 892.04 501.17 L 892.81 501.17 L 893.19 501.17 L 893.96 501.17 L 894.34 501.17 L 895.11 501.17 L 895.49 501.17 L 896.26 501.17 L 896.64 501.17 L 897.40 501.17 L 897.79 501.17 L 898.55 501.17 L 898.94 501.17 L 899.70 501.17 L 900.09 501.17 L 900.85 501.17 L 901.62 501.17 L 902.00 534.00 L 902.77 501.17 L 903.15 501.17 L 903.91 501.17 L 904.30 534.00 L 905.06 534.00 L 905.45 534.00 L 906.21 534.00 L 906.60 534.00 L 907.36 534.00 L 907.74 534.00 L 908.51 534.00 L 908.89 534.00 L 909.66 534.00 L 910.04 534.00 L 910.81 534.00 L 911.19 534.00 L 911.96 534.00 L 912.34 534.00 L 913.11 534.00 L 913.49 534.00 L 914.26 534.00 L 914.64 534.00 L 915.40 534.00 L 915.79 534.00 L 916.55 534.00 L 916.94 534.00 L 917.70 534.00 L 918.09 534.00 L 918.85 534.00 L 919.23 534.00 L 920.00 534.00 L 920.77 534.00 L 921.15 534.00 L 921.91 534.00 L 922.30 534.00 L 923.06 534.00 L 923.45 534.00 L 924.21 534.00 L 924.60 534.00 L 925.36 534.00 L 925.74 534.00 L 926.51 534.00 L 926.89 534.00 L 927.66 534.00 L 928.04 534.00 L 928.81 534.00 L 929.19 534.00 L 929.96 534.00 L 930.34 534.00 L 931.11 534.00 L 931.49 534.00 L 932.26 534.00 L 932.64 534.00 L 933.40 534.00 L 933.79 534.00 L 934.55 534.00 L 934.94 534.00 L 935.70 534.00 L 936.09 534.00 L 936.85 534.00 L 937.23 534.00 L 938.00 534.00 L 938.38 534.00 L 939.15 534.00 L 939.53 534.00 L 940.30 534.00 L 941.06 534.00 L 941.45 534.00 L 942.21 534.00 L 942.60 534.00 L 943.36 534.00 L 943.74 534.00 L 944.51 534.00 L 944.89 534.00 L 945.66 534.00 L 946.04 534.00 L 946.81 534.00 L 947.19 534.00 L 947.96 534.00 L 948.34 534.00 L 949.11 534.00 L 949.49 534.00 L 950.26 534.00 L 950.64 534.00 L 951.40 534.00 L 951.79 534.00 L 952.55 534.00 L 952.94 534.00 L 953.70 534.00 L 954.09 534.00 L 954.85 534.00 L 955.23 534.00 L 956.00 534.00 L 956.38 534.00 L 957.15 534.00 L 957.53 534.00 L 958.30 534.00 L 958.68 534.00 L 959.45 534.00 L 960.21 534.00 L 960.60 534.00 L 961.36 534.00 L 961.74 534.00 L 962.51 534.00 L 962.89 534.00 L 963.66 534.00 L 964.04 534.00 L 964.81 534.00 L 965.19 534.00 L 965.96 534.00 L 966.34 534.00 L 967.11 534.00 L 967.49 534.00 L 968.26 534.00 L 968.64 534.00 L 969.40 534.00 L 969.79 534.00 L 970.55 534.00 L 970.94 534.00 L 971.70 534.00 L 972.09 534.00 L 972.85 534.00 L 973.23 534.00 L 974.00 534.00 L 974.38 534.00 L 975.15 534.00 L 975.53 534.00 L 976.30 534.00 L 976.68 534.00 L 977.45 534.00 L 977.83 534.00 L 978.60 534.00 L 979.36 534.00 L 979.74 534.00 L 980.51 534.00 L 980.89 534.00 L 981.66 534.00 L 982.04 534.00 L 982.81 534.00 L 983.19 534.00 L 983.96 534.00 L 984.34 534.00 L 985.11 534.00 L 985.49 534.00 L 986.26 534.00 L 986.64 534.00 L 987.40 534.00 L 987.79 534.00 L 988.55 534.00 L 988.94 534.00 L 989.70 534.00 L 990.09 534.00 L 990.85 534.00 L 991.23 534.00 L 992.00 534.00 L 992.38 534.00 L 993.15 534.00 L 993.53 534.00 L 994.30 534.00 L 994.68 534.00 L 995.45 534.00 L 995.83 534.00 L 996.60 534.00 L 996.98 534.00 L 997.74 534.00 L 998.13 534.00 L 998.89 534.00 L 999.66 534.00 L 1000.04 483.84 L 1000.81 483.84 L 1001.19 483.84 L 1001.96 483.84 L 1002.34 483.84 L 1003.11 483.84 L 1003.49 483.84 L 1004.26 483.84 L 1004.64 483.84 L 1005.40 483.84 L 1005.79 483.84 L 1006.55 483.84 L 1006.94 483.84 L 1007.70 483.84 L 1008.09 483.84 L 1008.85 483.84 L 1009.23 483.84 L 1010.00 483.84 L 1010.38 483.84 L 1011.15 483.84 L 1011.53 483.84 L 1012.30 483.84 L 1012.68 483.84 L 1013.45 483.84 L 1013.83 483.84 L 1014.60 483.84 L 1014.98 501.17 L 1015.74 501.17 L 1016.13 501.17 L 1016.89 501.17 L 1017.28 501.17 L 1018.04 501.17 L 1018.81 501.17 L 1019.19 501.17 L 1019.96 501.17 L 1020.34 501.17 L 1021.11 501.17 L 1021.49 501.17 L 1022.26 501.17 L 1022.64 501.17 L 1023.40 501.17 L 1023.79 501.17 L 1024.55 501.17 L 1024.94 501.17 L 1025.70 501.17 L 1026.09 501.17 L 1026.85 501.17 L 1027.23 501.17 L 1028.00 501.17 L 1028.38 501.17 L 1029.15 501.17 L 1029.53 501.17 L 1030.30 501.17 L 1030.68 501.17 L 1031.45 501.17 L 1031.83 501.17 L 1032.60 501.17 L 1032.98 501.17 L 1033.74 501.17 L 1034.13 501.17 L 1034.89 501.17 L 1035.28 501.17 L 1036.04 501.17 L 1036.43 500.26 L 1037.19 500.26 L 1037.57 500.26 L 1038.34 500.26 L 1039.11 500.26 L 1039.49 500.26 L 1040.26 500.26 L 1040.64 500.26 L 1041.40 500.26 L 1041.79 500.26 L 1042.55 500.26 L 1042.94 500.26 L 1043.70 500.26 L 1044.09 500.26 L 1044.85 500.26 L 1045.23 500.26 L 1046.00 500.26 L 1046.38 534.00 L 1047.15 534.00 L 1047.53 534.00 L 1048.30 534.00 L 1048.68 534.00 L 1049.45 534.00 L 1049.83 534.00 L 1050.60 534.00 L 1050.98 534.00 L 1051.74 534.00 L 1052.13 534.00 L 1052.89 534.00 L 1053.28 534.00 L 1054.04 534.00 L 1054.43 534.00 L 1055.19 534.00 L 1055.57 534.00 L 1056.34 534.00 L 1056.72 534.00 L 1057.49 534.00 L 1057.87 534.00 L 1058.64 534.00 L 1059.40 534.00 L 1059.79 534.00 L 1060.55 534.00 L 1060.94 534.00 L 1061.70 534.00 L 1062.09 534.00 L 1062.85 534.00 L 1063.23 534.00 L 1064.00 534.00 L 1064.38 534.00 L 1065.15 534.00 L 1065.53 534.00 L 1066.30 534.00 L 1066.68 534.00 L 1067.45 534.00 L 1067.83 534.00 L 1068.60 534.00 L 1068.98 534.00 L 1069.74 534.00 L 1070.13 534.00 L 1070.89 534.00 L 1071.28 534.00 L 1072.04 534.00 L 1072.43 534.00 L 1073.19 534.00 L 1073.57 534.00 L 1074.34 534.00 L 1074.72 534.00 L 1075.49 534.00 L 1075.87 534.00 L 1076.64 534.00 L 1077.02 534.00 L 1077.79 534.00 L 1078.17 534.00 L 1078.94 534.00 L 1079.70 534.00 L 1080.09 534.00 L 1080.85 534.00 L 1081.23 534.00 L 1082.00 534.00" fill="none" stroke="#0ea5e9" stroke-width="2.7"/>
<text x="560.0" y="602" text-anchor="middle" font-family="Arial, sans-serif" font-size="13" fill="#475569">Wall Clock Time</text>
<text transform="translate(25 306.0) rotate(-90)" text-anchor="middle" font-family="Arial, sans-serif" font-size="13" fill="#475569">Power (W)</text>
<rect x="727" y="96" width="335" height="80" rx="8" fill="#ffffff" stroke="#cbd5e1"/>
<line x1="745" y1="121" x2="785" y2="121" stroke="#f97316" stroke-width="2.8" stroke-dasharray="8 6"/>
<text x="797" y="126" font-family="Arial, sans-serif" font-size="13" fill="#1e293b">Raw Power (power_w)</text>
<line x1="745" y1="147" x2="785" y2="147" stroke="#0ea5e9" stroke-width="2.8"/>
<text x="797" y="152" font-family="Arial, sans-serif" font-size="13" fill="#1e293b">Temp-Corrected Power (power_corrected_w)</text>
</svg>