<svg xmlns="http://www.w3.org/2000/svg" width="1120" height="620" viewBox="0 0 1120 620">
<rect width="100%" height="100%" fill="#f8fafc"/>
<rect x="92" y="78" width="990" height="456" fill="#ffffff" stroke="#cbd5e1"/>
<text x="560.0" y="34" text-anchor="middle" font-family="Arial, sans-serif" font-size="21" font-weight="700" fill="#1e293b">Power Output - 13 deg Tilt - Afternoon Session</text>
<text x="560.0" y="58" text-anchor="middle" font-family="Arial, sans-serif" font-size="12" fill="#475569">1368 readings from 15:26:22 to 16:00:55</text>
<line x1="92" y1="534.00" x2="1082" y2="534.00" stroke="#cbd5e1" stroke-dasharray="5 5" opacity="0.75"/>
<text x="80" y="538.00" text-anchor="end" font-family="Arial, sans-serif" font-size="12" fill="#475569">0.000</text>
<line x1="92" y1="442.80" x2="1082" y2="442.80" stroke="#cbd5e1" stroke-dasharray="5 5" opacity="0.75"/>
<text x="80" y="446.80" text-anchor="end" font-family="Arial, sans-serif" font-size="12" fill="#475569">0.020</text>
<line x1="92" y1="351.60" x2="1082" y2="351.60" stroke="#cbd5e1" stroke-dasharray="5 5" opacity="0.75"/>
<text x="80" y="355.60" text-anchor="end" font-family="Arial, sans-serif" font-size="12" fill="#475569">0.040</text>
<line x1="92" y1="260.40" x2="1082" y2="260.40" stroke="#cbd5e1" stroke-dasharray="5 5" opacity="0.75"/>
<text x="80" y="264.40" text-anchor="end" font-family="Arial, sans-serif" font-size="12" fill="#475569">0.060</text>
<line x1="92" y1="169.20" x2="1082" y2="169.20" stroke="#cbd5e1" stroke-dasharray="5 5" opacity="0.75"/>
<text x="80" y="173.20" text-anchor="end" font-family="Arial, sans-serif" font-size="12" fill="#475569">0.080</text>
<line x1="92" y1="78.00" x2="1082" y2="78.00" stroke="#cbd5e1" stroke-dasharray="5 5" opacity="0.75"/>
<text x="80" y="82.00" text-anchor="end" font-family="Arial, sans-serif" font-size="12" fill="#475569">0.100</text>
<line x1="92.00" y1="78" x2="92.00" y2="534" stroke="#e2e8f0" stroke-dasharray="4 6"/>
<text x="92.00" y="568" text-anchor="middle" font-family="Arial, sans-serif" font-size="12" fill="#475569">15:26:22</text>
<line x1="257.00" y1="78" x2="257.00" y2="534" stroke="#e2e8f0" stroke-dasharray="4 6"/>
<text x="257.00" y="568" text-anchor="middle" font-family="Arial, sans-serif" font-size="12" fill="#475569">15:32:07</text>
<line x1="422.00" y1="78" x2="422.00" y2="534" stroke="#e2e8f0" stroke-dasharray="4 6"/>
<text x="422.00" y="568" text-anchor="middle" font-family="Arial, sans-serif" font-size="12" fill="#475569">15:37:53</text>
<line x1="587.00" y1="78" x2="587.00" y2="534" stroke="#e2e8f0" stroke-dasharray="4 6"/>
<text x="587.00" y="568" text-anchor="middle" font-family="Arial, sans-serif" font-size="12" fill="#475569">15:43:38</text>
<line x1="752.00" y1="78" x2="752.00" y2="534" stroke="#e2e8f0" stroke-dasharray="4 6"/>
<text x="752.00" y="568" text-anchor="middle" font-family="Arial, sans-serif" font-size="12" fill="#475569">15:49:24</text>
<line x1="917.00" y1="78" x2="917.00" y2="534" stroke="#e2e8f0" stroke-dasharray="4 6"/>
<text x="917.00" y="568" text-anchor="middle" font-family="Arial, sans-serif" font-size="12" fill="#475569">15:55:09</text>
<line x1="1082.00" y1="78" x2="1082.00" y2="534" stroke="#e2e8f0" stroke-dasharray="4 6"/>
<text x="1082.00" y="568" text-anchor="middle" font-family="Arial, sans-serif" font-size="12" fill="#475569">16:00:55</text>
<path d="M 92.00 534.00 L 92.96 534.00 L 93.43 534.00 L 94.39 534.00 L 94.87 534.00 L 95.82 534.00 L 96.30 534.00 L 97.25 534.00 L 98.21 534.00 L 98.69 534.00 L 99.64 534.00 L 100.12 534.00 L 101.07 534.00 L 101.55 534.00 L 102.51 534.00 L 102.98 534.00 L 103.94 534.00 L 104.42 534.00 L 105.37 534.00 L 105.85 534.00 L 106.80 534.00 L 107.28 534.00 L 108.24 534.00 L 108.71 534.00 L 109.67 534.00 L 110.15 534.00 L 111.10 534.00 L 111.58 534.00 L 112.54 534.00 L 113.01 534.00 L 113.97 534.00 L 114.45 534.00 L 115.40 515.76 L 115.88 515.76 L 116.83 506.64 L 117.31 442.80 L 118.27 388.08 L 118.74 369.84 L 119.70 397.20 L 120.18 433.68 L 121.13 433.68 L 121.61 369.84 L 122.56 415.44 L 123.04 470.16 L 124.00 415.44 L 124.47 397.20 L 125.43 388.08 L 125.91 369.84 L 126.86 351.60 L 127.34 342.48 L 128.30 342.48 L 128.77 324.24 L 129.73 324.24 L 130.68 324.24 L 131.16 296.88 L 132.12 306.00 L 132.59 278.64 L 133.55 278.64 L 134.03 278.64 L 134.98 278.64 L 135.46 296.88 L 136.41 278.64 L 136.89 296.88 L 137.85 278.64 L 138.32 278.64 L 139.28 278.64 L 139.76 278.64 L 140.71 278.64 L 141.19 278.64 L 142.14 296.88 L 142.62 306.00 L 143.58 296.88 L 144.05 296.88 L 145.01 296.88 L 145.49 296.88 L 146.44 296.88 L 146.92 296.88 L 147.88 296.88 L 148.35 324.24 L 149.31 324.24 L 149.79 306.00 L 150.74 306.00 L 151.22 306.00 L 152.17 296.88 L 152.65 296.88 L 153.61 296.88 L 154.08 415.44 L 155.04 415.44 L 155.52 433.68 L 156.47 506.64 L 156.95 342.48 L 157.90 324.24 L 158.38 351.60 L 159.34 351.60 L 159.81 351.60 L 160.77 351.60 L 161.25 351.60 L 162.20 351.60 L 163.16 351.60 L 163.64 351.60 L 164.59 351.60 L 165.07 351.60 L 166.02 369.84 L 166.50 369.84 L 167.46 369.84 L 167.93 369.84 L 168.89 369.84 L 169.37 369.84 L 170.32 369.84 L 170.80 433.68 L 171.75 515.76 L 172.23 534.00 L 173.19 515.76 L 173.66 515.76 L 174.62 515.76 L 175.10 388.08 L 176.05 397.20 L 176.53 397.20 L 177.48 397.20 L 177.96 397.20 L 178.92 397.20 L 179.40 397.20 L 180.35 506.64 L 180.83 515.76 L 181.78 534.00 L 182.26 415.44 L 183.22 415.44 L 183.69 470.16 L 184.65 415.44 L 185.13 415.44 L 186.08 415.44 L 186.56 415.44 L 187.51 415.44 L 187.99 415.44 L 188.95 506.64 L 189.42 433.68 L 190.38 433.68 L 190.86 433.68 L 191.81 433.68 L 192.77 433.68 L 193.24 461.04 L 194.20 461.04 L 194.68 461.04 L 195.63 461.04 L 196.11 470.16 L 197.07 470.16 L 197.54 470.16 L 198.50 470.16 L 198.98 470.16 L 199.93 470.16 L 200.41 470.16 L 201.36 470.16 L 201.84 470.16 L 202.80 470.16 L 203.27 470.16 L 204.23 470.16 L 204.71 470.16 L 205.66 470.16 L 206.14 506.64 L 207.09 506.64 L 207.57 506.64 L 208.53 506.64 L 209.00 506.64 L 209.96 506.64 L 210.44 506.64 L 211.39 506.64 L 211.87 506.64 L 212.82 506.64 L 213.30 506.64 L 214.26 506.64 L 214.74 506.64 L 215.69 506.64 L 216.17 506.64 L 217.12 506.64 L 217.60 506.64 L 218.56 506.64 L 219.03 506.64 L 219.99 506.64 L 220.47 506.64 L 221.42 506.64 L 222.38 506.64 L 222.85 506.64 L 223.81 506.64 L 224.29 506.64 L 225.24 506.64 L 225.72 506.64 L 226.67 506.64 L 227.15 506.64 L 228.11 506.64 L 228.58 506.64 L 229.54 506.64 L 230.02 506.64 L 230.97 506.64 L 231.45 506.64 L 232.41 515.76 L 232.88 515.76 L 233.84 515.76 L 234.32 515.76 L 235.27 515.76 L 235.75 515.76 L 236.70 515.76 L 237.18 515.76 L 238.14 515.76 L 238.61 515.76 L 239.57 515.76 L 240.05 515.76 L 241.00 515.76 L 241.48 515.76 L 242.43 515.76 L 242.91 515.76 L 243.87 515.76 L 244.34 515.76 L 245.30 515.76 L 245.78 515.76 L 246.73 515.76 L 247.21 515.76 L 248.16 515.76 L 249.12 515.76 L 249.60 515.76 L 250.55 515.76 L 251.03 515.76 L 251.99 515.76 L 252.46 515.76 L 253.42 515.76 L 253.90 506.64 L 254.85 506.64 L 255.33 506.64 L 256.28 506.64 L 256.76 506.64 L 257.72 506.64 L 258.19 506.64 L 259.15 506.64 L 259.63 506.64 L 260.58 506.64 L 261.06 506.64 L 262.01 506.64 L 262.49 506.64 L 263.45 506.64 L 263.92 506.64 L 264.88 506.64 L 265.36 506.64 L 266.31 506.64 L 266.79 506.64 L 267.75 506.64 L 268.22 506.64 L 269.18 506.64 L 269.66 506.64 L 270.61 506.64 L 271.09 506.64 L 272.04 506.64 L 272.52 506.64 L 273.48 506.64 L 273.95 506.64 L 274.91 506.64 L 275.86 506.64 L 276.34 506.64 L 277.30 506.64 L 277.77 506.64 L 278.73 506.64 L 279.21 506.64 L 280.16 506.64 L 280.64 506.64 L 281.59 506.64 L 282.07 506.64 L 283.03 506.64 L 283.51 506.64 L 284.46 506.64 L 284.94 506.64 L 285.89 506.64 L 286.37 506.64 L 287.33 506.64 L 287.80 506.64 L 288.76 506.64 L 289.24 506.64 L 290.19 506.64 L 290.67 506.64 L 291.62 506.64 L 292.10 506.64 L 293.06 506.64 L 293.53 506.64 L 294.49 506.64 L 294.97 506.64 L 295.92 506.64 L 296.40 506.64 L 297.35 506.64 L 297.83 506.64 L 298.79 506.64 L 299.26 506.64 L 300.22 506.64 L 301.18 506.64 L 301.65 506.64 L 302.61 506.64 L 303.09 506.64 L 304.04 506.64 L 304.52 515.76 L 305.47 506.64 L 305.95 515.76 L 306.91 515.76 L 307.38 515.76 L 308.34 515.76 L 308.82 515.76 L 309.77 515.76 L 310.25 515.76 L 311.20 515.76 L 311.68 515.76 L 312.64 515.76 L 313.11 515.76 L 314.07 515.76 L 314.55 515.76 L 315.50 515.76 L 315.98 515.76 L 316.93 515.76 L 317.41 515.76 L 318.37 515.76 L 318.85 515.76 L 319.80 515.76 L 320.28 515.76 L 321.23 515.76 L 321.71 515.76 L 322.67 515.76 L 323.14 515.76 L 324.10 515.76 L 325.05 515.76 L 325.53 515.76 L 326.49 515.76 L 326.96 515.76 L 327.92 515.76 L 328.40 515.76 L 329.35 515.76 L 329.83 515.76 L 330.78 515.76 L 331.26 515.76 L 332.22 515.76 L 332.69 515.76 L 333.65 515.76 L 334.13 515.76 L 335.08 515.76 L 335.56 515.76 L 336.52 515.76 L 336.99 515.76 L 337.95 515.76 L 338.43 515.76 L 339.38 515.76 L 339.86 515.76 L 340.81 515.76 L 341.29 515.76 L 342.25 515.76 L 342.72 515.76 L 343.68 515.76 L 344.16 515.76 L 345.11 515.76 L 345.59 515.76 L 346.54 515.76 L 347.02 515.76 L 347.98 515.76 L 348.93 515.76 L 349.41 515.76 L 350.36 515.76 L 350.84 515.76 L 351.80 515.76 L 352.27 515.76 L 353.23 515.76 L 353.71 515.76 L 354.66 515.76 L 355.14 515.76 L 356.10 515.76 L 356.57 515.76 L 357.53 515.76 L 358.01 515.76 L 358.96 515.76 L 359.44 515.76 L 360.39 515.76 L 360.87 515.76 L 361.83 515.76 L 362.30 515.76 L 363.26 515.76 L 363.74 515.76 L 364.69 515.76 L 365.17 515.76 L 366.12 515.76 L 366.60 515.76 L 367.56 515.76 L 368.03 515.76 L 368.99 515.76 L 369.47 515.76 L 370.42 515.76 L 371.38 515.76 L 371.86 515.76 L 372.81 515.76 L 373.29 515.76 L 374.24 515.76 L 374.72 515.76 L 375.68 515.76 L 376.15 515.76 L 377.11 515.76 L 377.59 515.76 L 378.54 515.76 L 379.02 515.76 L 379.97 515.76 L 380.45 515.76 L 381.41 515.76 L 381.88 515.76 L 382.84 515.76 L 383.32 515.76 L 384.27 515.76 L 384.75 515.76 L 385.70 515.76 L 386.18 515.76 L 387.14 515.76 L 387.62 515.76 L 388.57 515.76 L 389.05 515.76 L 390.00 515.76 L 390.48 515.76 L 391.44 515.76 L 391.91 515.76 L 392.87 515.76 L 393.82 515.76 L 394.30 515.76 L 395.26 515.76 L 395.73 515.76 L 396.69 515.76 L 397.17 515.76 L 398.12 515.76 L 398.60 515.76 L 399.55 515.76 L 400.03 515.76 L 400.99 515.76 L 401.46 515.76 L 402.42 515.76 L 402.90 515.76 L 403.85 515.76 L 404.33 515.76 L 405.29 515.76 L 405.76 515.76 L 406.72 515.76 L 407.20 515.76 L 451.61 515.76 L 451.61 515.76 L 451.61 515.76 L 451.61 515.76 L 451.61 515.76 L 451.61 515.76 L 451.61 515.76 L 451.61 515.76 L 451.61 515.76 L 451.61 515.76 L 451.61 515.76 L 451.61 515.76 L 451.61 515.76 L 451.61 515.76 L 451.61 515.76 L 451.61 515.76 L 451.61 515.76 L 451.61 515.76 L 451.61 515.76 L 451.61 515.76 L 451.61 515.76 L 451.61 515.76 L 451.61 515.76 L 451.61 515.76 L 451.61 515.76 L 451.61 515.76 L 451.61 515.76 L 451.61 515.76 L 452.09 515.76 L 452.09 515.76 L 452.09 515.76 L 452.09 515.76 L 452.09 515.76 L 452.09 515.76 L 452.09 515.76 L 452.09 515.76 L 452.09 515.76 L 452.09 515.76 L 452.09 515.76 L 452.09 515.76 L 452.09 515.76 L 452.09 515.76 L 452.09 515.76 L 452.09 515.76 L 452.09 515.76 L 452.09 515.76 L 452.09 515.76 L 452.09 515.76 L 452.09 515.76 L 452.09 515.76 L 452.09 515.76 L 452.09 515.76 L 452.09 515.76 L 452.09 515.76 L 452.09 515.76 L 452.09 515.76 L 452.09 515.76 L 452.09 515.76 L 452.09 515.76 L 452.09 515.76 L 452.09 515.76 L 452.09 515.76 L 453.04 515.76 L 453.52 515.76 L 456.38 515.76 L 456.38 515.76 L 456.38 515.76 L 456.38 515.76 L 457.34 515.76 L 457.82 515.76 L 458.77 515.76 L 459.73 515.76 L 460.21 515.76 L 461.16 515.76 L 461.64 515.76 L 462.59 515.76 L 463.07 515.76 L 464.03 515.76 L 464.50 515.76 L 465.46 515.76 L 465.94 515.76 L 466.89 515.76 L 467.37 515.76 L 468.32 515.76 L 468.80 515.76 L 469.76 515.76 L 470.23 515.76 L 471.19 515.76 L 471.67 515.76 L 472.62 515.76 L 473.10 515.76 L 474.05 515.76 L 474.53 515.76 L 475.49 515.76 L 475.97 515.76 L 476.92 515.76 L 477.40 515.76 L 478.35 515.76 L 478.83 515.76 L 479.79 515.76 L 480.74 515.76 L 481.22 515.76 L 482.17 515.76 L 482.65 515.76 L 483.61 515.76 L 484.08 515.76 L 485.04 515.76 L 485.52 515.76 L 486.47 515.76 L 486.95 515.76 L 487.90 515.76 L 488.38 515.76 L 489.34 515.76 L 489.81 515.76 L 490.77 515.76 L 491.25 515.76 L 492.20 515.76 L 492.68 515.76 L 493.64 515.76 L 494.11 515.76 L 495.07 515.76 L 495.55 515.76 L 496.50 515.76 L 496.98 515.76 L 497.93 515.76 L 498.41 515.76 L 499.37 515.76 L 500.32 515.76 L 500.80 515.76 L 501.75 515.76 L 502.23 534.00 L 503.19 534.00 L 503.66 534.00 L 504.62 534.00 L 505.10 515.76 L 506.05 515.76 L 506.53 515.76 L 507.48 515.76 L 507.96 515.76 L 508.92 515.76 L 509.40 515.76 L 510.35 515.76 L 510.83 515.76 L 511.78 515.76 L 512.26 515.76 L 513.22 515.76 L 513.69 515.76 L 514.65 515.76 L 515.13 515.76 L 516.08 515.76 L 516.56 515.76 L 517.51 515.76 L 517.99 515.76 L 518.95 515.76 L 519.42 515.76 L 520.38 515.76 L 521.33 515.76 L 521.81 515.76 L 522.77 515.76 L 523.24 515.76 L 524.20 515.76 L 524.68 515.76 L 525.63 515.76 L 526.11 515.76 L 527.07 515.76 L 527.54 515.76 L 528.50 515.76 L 528.98 515.76 L 529.93 515.76 L 530.41 515.76 L 531.36 515.76 L 531.84 515.76 L 532.80 515.76 L 533.27 515.76 L 534.23 515.76 L 534.71 515.76 L 535.66 515.76 L 536.14 515.76 L 537.09 515.76 L 537.57 515.76 L 538.53 515.76 L 539.00 515.76 L 539.96 515.76 L 540.91 515.76 L 541.39 515.76 L 542.35 515.76 L 542.82 515.76 L 543.78 515.76 L 544.26 515.76 L 545.21 515.76 L 545.69 515.76 L 546.65 515.76 L 547.12 515.76 L 548.08 515.76 L 548.56 515.76 L 549.51 515.76 L 549.99 515.76 L 550.94 515.76 L 551.42 515.76 L 552.38 515.76 L 552.85 515.76 L 553.81 515.76 L 554.29 515.76 L 555.24 515.76 L 555.72 515.76 L 556.67 515.76 L 557.15 515.76 L 558.11 515.76 L 558.58 515.76 L 559.54 515.76 L 560.02 515.76 L 560.97 515.76 L 561.93 515.76 L 562.41 515.76 L 563.36 515.76 L 563.84 515.76 L 564.79 515.76 L 565.27 534.00 L 566.23 534.00 L 566.70 534.00 L 567.66 534.00 L 568.14 534.00 L 569.09 534.00 L 569.57 534.00 L 570.52 534.00 L 571.00 534.00 L 571.96 534.00 L 572.43 534.00 L 573.39 534.00 L 573.87 534.00 L 574.82 534.00 L 575.30 534.00 L 576.25 534.00 L 576.73 534.00 L 577.69 534.00 L 578.16 534.00 L 579.12 534.00 L 579.60 534.00 L 580.55 534.00 L 581.51 534.00 L 581.99 515.76 L 582.94 515.76 L 583.42 515.76 L 584.37 515.76 L 584.85 515.76 L 585.81 515.76 L 586.28 515.76 L 587.24 515.76 L 587.72 515.76 L 588.67 515.76 L 589.15 534.00 L 590.10 534.00 L 590.58 534.00 L 591.54 534.00 L 592.01 534.00 L 592.97 534.00 L 593.45 534.00 L 594.40 534.00 L 594.88 534.00 L 595.84 534.00 L 596.31 534.00 L 597.27 534.00 L 597.75 534.00 L 598.70 534.00 L 599.18 534.00 L 600.13 534.00 L 600.61 534.00 L 601.57 534.00 L 602.52 534.00 L 603.00 534.00 L 603.95 534.00 L 604.43 534.00 L 605.39 534.00 L 605.86 534.00 L 606.82 534.00 L 607.30 534.00 L 608.25 534.00 L 608.73 534.00 L 609.68 534.00 L 610.16 534.00 L 611.12 534.00 L 611.59 534.00 L 612.55 534.00 L 613.03 534.00 L 613.98 534.00 L 614.46 534.00 L 615.42 534.00 L 615.89 534.00 L 616.85 534.00 L 617.33 534.00 L 618.28 534.00 L 618.76 534.00 L 619.71 534.00 L 620.19 534.00 L 621.15 534.00 L 621.62 534.00 L 622.58 534.00 L 623.53 534.00 L 624.01 534.00 L 624.97 534.00 L 625.44 534.00 L 626.40 534.00 L 626.88 534.00 L 627.83 534.00 L 628.31 534.00 L 629.26 534.00 L 629.74 534.00 L 630.70 534.00 L 631.18 534.00 L 632.13 534.00 L 632.61 534.00 L 633.56 534.00 L 634.04 534.00 L 635.00 534.00 L 635.47 515.76 L 636.43 515.76 L 636.91 515.76 L 637.86 515.76 L 638.34 515.76 L 639.29 515.76 L 639.77 515.76 L 640.73 515.76 L 641.20 515.76 L 642.16 515.76 L 642.64 515.76 L 643.59 515.76 L 644.55 515.76 L 645.02 515.76 L 645.98 515.76 L 646.46 515.76 L 647.41 506.64 L 647.89 506.64 L 648.85 506.64 L 649.32 506.64 L 650.28 515.76 L 650.76 515.76 L 651.71 515.76 L 652.19 515.76 L 653.14 515.76 L 653.62 515.76 L 654.58 515.76 L 655.05 515.76 L 656.01 515.76 L 656.49 515.76 L 657.44 515.76 L 657.92 515.76 L 658.87 515.76 L 659.35 515.76 L 660.31 515.76 L 660.78 515.76 L 661.74 515.76 L 662.22 515.76 L 663.17 515.76 L 663.65 515.76 L 664.60 515.76 L 665.56 515.76 L 666.04 515.76 L 666.99 515.76 L 667.47 515.76 L 668.43 515.76 L 668.90 515.76 L 669.86 515.76 L 670.34 515.76 L 671.29 515.76 L 671.77 515.76 L 672.72 515.76 L 673.20 515.76 L 674.16 515.76 L 674.63 515.76 L 675.59 515.76 L 676.07 515.76 L 677.02 515.76 L 677.50 515.76 L 678.45 515.76 L 678.93 534.00 L 679.89 534.00 L 680.36 515.76 L 681.32 515.76 L 681.80 515.76 L 682.75 515.76 L 683.23 515.76 L 684.19 515.76 L 684.66 515.76 L 685.62 515.76 L 686.10 515.76 L 687.05 515.76 L 688.01 515.76 L 688.48 515.76 L 689.44 515.76 L 689.92 515.76 L 690.87 515.76 L 691.35 515.76 L 692.30 515.76 L 692.78 515.76 L 693.74 515.76 L 694.21 515.76 L 695.17 515.76 L 695.65 515.76 L 696.60 515.76 L 697.08 515.76 L 698.03 515.76 L 698.51 515.76 L 699.47 515.76 L 699.95 515.76 L 700.90 515.76 L 701.38 515.76 L 702.33 515.76 L 702.81 515.76 L 703.77 515.76 L 704.24 515.76 L 705.20 515.76 L 705.68 515.76 L 706.63 515.76 L 707.11 515.76 L 708.06 515.76 L 709.02 515.76 L 709.50 515.76 L 710.45 515.76 L 710.93 515.76 L 711.88 515.76 L 712.36 515.76 L 713.32 515.76 L 713.79 515.76 L 714.75 515.76 L 715.23 515.76 L 716.18 515.76 L 716.66 515.76 L 717.62 515.76 L 718.09 515.76 L 719.05 515.76 L 719.53 515.76 L 720.48 515.76 L 720.96 515.76 L 721.91 515.76 L 722.39 515.76 L 723.35 515.76 L 723.82 515.76 L 724.78 515.76 L 725.26 515.76 L 726.21 515.76 L 726.69 515.76 L 727.64 515.76 L 728.12 515.76 L 729.08 515.76 L 729.55 515.76 L 730.51 515.76 L 731.46 515.76 L 731.94 515.76 L 732.90 515.76 L 733.37 515.76 L 734.33 515.76 L 734.81 515.76 L 735.76 515.76 L 736.24 515.76 L 737.20 515.76 L 737.67 515.76 L 738.63 515.76 L 739.11 515.76 L 740.06 515.76 L 740.54 515.76 L 741.49 515.76 L 741.97 515.76 L 742.93 515.76 L 743.40 515.76 L 744.36 515.76 L 744.84 515.76 L 745.79 515.76 L 746.27 515.76 L 747.22 515.76 L 747.70 515.76 L 748.66 515.76 L 749.13 515.76 L 750.09 515.76 L 750.57 515.76 L 751.52 515.76 L 752.48 515.76 L 752.96 515.76 L 753.91 515.76 L 754.39 515.76 L 755.34 515.76 L 755.82 515.76 L 756.78 515.76 L 757.25 515.76 L 758.21 515.76 L 758.69 515.76 L 759.64 515.76 L 760.12 515.76 L 761.07 515.76 L 761.55 515.76 L 762.51 515.76 L 762.98 515.76 L 763.94 515.76 L 764.42 515.76 L 765.37 515.76 L 765.85 515.76 L 766.80 515.76 L 767.28 515.76 L 768.24 515.76 L 768.71 515.76 L 769.67 515.76 L 770.15 515.76 L 771.10 515.76 L 771.58 515.76 L 772.54 515.76 L 773.01 515.76 L 773.97 515.76 L 774.92 515.76 L 775.40 515.76 L 776.36 515.76 L 776.83 515.76 L 777.79 515.76 L 778.27 515.76 L 779.22 515.76 L 779.70 515.76 L 780.65 515.76 L 781.13 515.76 L 782.09 515.76 L 782.56 515.76 L 783.52 515.76 L 784.00 515.76 L 784.95 515.76 L 785.43 515.76 L 786.38 515.76 L 786.86 515.76 L 787.82 515.76 L 788.30 515.76 L 789.25 515.76 L 789.73 515.76 L 790.68 515.76 L 791.16 515.76 L 792.12 515.76 L 792.59 515.76 L 793.55 515.76 L 794.03 515.76 L 794.98 515.76 L 795.94 515.76 L 796.41 515.76 L 797.37 515.76 L 797.85 515.76 L 798.80 515.76 L 799.28 515.76 L 800.23 515.76 L 800.71 515.76 L 801.67 515.76 L 802.14 515.76 L 803.10 515.76 L 803.58 515.76 L 804.53 515.76 L 805.01 515.76 L 805.97 515.76 L 806.44 515.76 L 807.40 515.76 L 807.88 515.76 L 808.83 515.76 L 809.31 515.76 L 810.26 515.76 L 810.74 515.76 L 811.70 515.76 L 812.17 515.76 L 813.13 515.76 L 813.61 515.76 L 814.56 515.76 L 815.04 515.76 L 815.99 515.76 L 816.95 515.76 L 817.43 515.76 L 818.38 515.76 L 818.86 515.76 L 819.81 515.76 L 820.29 515.76 L 821.25 515.76 L 821.73 515.76 L 822.68 515.76 L 823.16 515.76 L 824.11 515.76 L 824.59 515.76 L 825.55 515.76 L 826.02 515.76 L 826.98 515.76 L 827.46 515.76 L 828.41 515.76 L 828.89 515.76 L 829.84 515.76 L 830.32 515.76 L 831.28 515.76 L 831.75 515.76 L 832.71 515.76 L 833.19 515.76 L 834.14 515.76 L 834.62 515.76 L 835.57 515.76 L 836.05 515.76 L 837.01 515.76 L 837.96 515.76 L 838.44 515.76 L 839.40 534.00 L 839.87 534.00 L 840.83 534.00 L 841.31 534.00 L 842.26 534.00 L 842.74 534.00 L 843.69 534.00 L 844.17 534.00 L 845.13 534.00 L 845.60 534.00 L 846.56 534.00 L 847.04 534.00 L 847.99 534.00 L 848.47 534.00 L 849.42 515.76 L 849.90 515.76 L 850.86 515.76 L 851.33 515.76 L 852.29 515.76 L 852.77 515.76 L 853.72 515.76 L 854.20 515.76 L 855.15 515.76 L 855.63 515.76 L 856.59 515.76 L 857.07 515.76 L 858.02 515.76 L 858.98 515.76 L 859.45 515.76 L 860.41 515.76 L 860.89 515.76 L 861.84 515.76 L 862.32 515.76 L 863.27 515.76 L 863.75 515.76 L 864.71 515.76 L 865.18 515.76 L 866.14 515.76 L 866.62 515.76 L 867.57 515.76 L 868.05 515.76 L 869.00 515.76 L 869.48 515.76 L 870.44 515.76 L 870.91 515.76 L 871.87 515.76 L 872.35 515.76 L 873.30 515.76 L 873.78 515.76 L 874.74 515.76 L 875.21 515.76 L 876.17 515.76 L 876.65 515.76 L 877.60 515.76 L 878.08 515.76 L 879.03 515.76 L 879.99 515.76 L 880.47 515.76 L 881.42 515.76 L 881.90 515.76 L 882.85 515.76 L 883.33 515.76 L 884.29 515.76 L 884.76 515.76 L 885.72 515.76 L 886.20 515.76 L 887.15 515.76 L 887.63 515.76 L 888.58 515.76 L 889.06 515.76 L 890.02 515.76 L 890.49 515.76 L 891.45 515.76 L 891.93 515.76 L 892.88 534.00 L 893.36 534.00 L 894.32 534.00 L 894.79 534.00 L 895.75 534.00 L 896.23 534.00 L 897.18 534.00 L 897.66 534.00 L 898.61 534.00 L 899.57 534.00 L 900.05 534.00 L 901.00 534.00 L 901.48 534.00 L 902.43 534.00 L 902.91 534.00 L 903.87 534.00 L 904.34 534.00 L 905.30 534.00 L 905.78 534.00 L 906.73 534.00 L 907.21 534.00 L 908.16 534.00 L 908.64 534.00 L 909.60 534.00 L 910.08 534.00 L 911.03 534.00 L 911.51 534.00 L 912.46 534.00 L 912.94 534.00 L 913.90 534.00 L 914.37 534.00 L 915.33 534.00 L 915.81 534.00 L 916.76 534.00 L 917.24 534.00 L 918.19 534.00 L 918.67 534.00 L 919.63 534.00 L 920.58 534.00 L 921.06 534.00 L 922.01 534.00 L 922.49 534.00 L 923.45 534.00 L 923.92 534.00 L 924.88 534.00 L 925.36 534.00 L 926.31 534.00 L 926.79 534.00 L 927.75 534.00 L 928.22 534.00 L 929.18 534.00 L 929.66 534.00 L 930.61 534.00 L 931.09 534.00 L 932.04 534.00 L 932.52 534.00 L 933.48 534.00 L 933.95 534.00 L 934.91 534.00 L 935.39 534.00 L 936.34 534.00 L 936.82 534.00 L 937.77 534.00 L 938.25 534.00 L 939.21 534.00 L 939.68 534.00 L 940.64 534.00 L 941.59 534.00 L 942.07 534.00 L 943.03 534.00 L 943.51 534.00 L 944.46 534.00 L 944.94 534.00 L 945.89 534.00 L 946.37 534.00 L 947.33 534.00 L 947.80 534.00 L 948.76 534.00 L 949.24 534.00 L 950.19 534.00 L 950.67 534.00 L 951.62 534.00 L 952.10 534.00 L 953.06 534.00 L 953.53 534.00 L 954.49 534.00 L 954.97 534.00 L 955.92 534.00 L 956.40 534.00 L 957.35 534.00 L 957.83 534.00 L 958.79 534.00 L 959.26 534.00 L 960.22 534.00 L 960.70 534.00 L 961.65 534.00 L 962.61 534.00 L 963.09 534.00 L 964.04 534.00 L 964.52 534.00 L 965.47 534.00 L 965.95 534.00 L 966.91 534.00 L 967.38 534.00 L 968.34 534.00 L 968.82 534.00 L 969.77 534.00 L 970.25 534.00 L 971.20 534.00 L 971.68 534.00 L 972.64 534.00 L 973.11 534.00 L 974.07 534.00 L 974.55 534.00 L 975.50 534.00 L 975.98 534.00 L 976.93 534.00 L 977.41 534.00 L 978.37 534.00 L 978.85 534.00 L 979.80 534.00 L 980.28 534.00 L 981.23 534.00 L 981.71 534.00 L 982.67 534.00 L 983.62 534.00 L 984.10 534.00 L 985.05 534.00 L 985.53 534.00 L 986.49 534.00 L 986.96 534.00 L 987.92 534.00 L 988.40 534.00 L 989.35 534.00 L 989.83 534.00 L 990.78 534.00 L 991.26 534.00 L 992.22 534.00 L 992.69 534.00 L 993.65 534.00 L 994.13 534.00 L 995.08 534.00 L 995.56 534.00 L 996.52 534.00 L 996.99 534.00 L 997.95 534.00 L 998.43 534.00 L 999.38 534.00 L 999.86 534.00 L 1000.81 534.00 L 1001.29 534.00 L 1002.25 534.00 L 1002.72 534.00 L 1003.68 534.00 L 1004.16 534.00 L 1005.11 534.00 L 1006.07 534.00 L 1006.54 534.00 L 1007.50 534.00 L 1007.98 534.00 L 1008.93 534.00 L 1009.41 534.00 L 1010.36 534.00 L 1010.84 534.00 L 1011.80 534.00 L 1012.27 534.00 L 1013.23 534.00 L 1013.71 534.00 L 1014.66 534.00 L 1015.14 534.00 L 1016.10 534.00 L 1016.57 534.00 L 1017.53 534.00 L 1018.01 534.00 L 1018.96 534.00 L 1019.44 534.00 L 1020.39 534.00 L 1020.87 534.00 L 1021.83 534.00 L 1022.30 534.00 L 1023.26 534.00 L 1023.74 534.00 L 1024.69 534.00 L 1025.17 534.00 L 1026.12 534.00 L 1027.08 534.00 L 1027.56 534.00 L 1028.51 534.00 L 1028.99 534.00 L 1029.95 534.00 L 1030.42 534.00 L 1031.38 534.00 L 1031.86 534.00 L 1032.81 534.00 L 1033.29 515.76 L 1034.24 515.76 L 1034.72 515.76 L 1035.68 515.76 L 1036.15 515.76 L 1037.11 515.76 L 1037.59 515.76 L 1038.54 515.76 L 1039.02 515.76 L 1039.97 515.76 L 1040.45 515.76 L 1041.41 515.76 L 1041.88 515.76 L 1042.84 515.76 L 1043.32 534.00 L 1044.27 534.00 L 1044.75 534.00 L 1045.70 534.00 L 1046.18 534.00 L 1047.14 534.00 L 1047.62 534.00 L 1048.57 534.00 L 1049.53 534.00 L 1050.00 534.00 L 1050.96 534.00 L 1051.44 534.00 L 1052.39 534.00 L 1052.87 534.00 L 1053.82 534.00 L 1054.30 534.00 L 1055.26 534.00 L 1055.73 534.00 L 1056.69 534.00 L 1057.17 534.00 L 1058.12 534.00 L 1058.60 534.00 L 1059.55 534.00 L 1060.03 534.00 L 1060.99 534.00 L 1061.46 534.00 L 1062.42 534.00 L 1062.90 534.00 L 1063.85 534.00 L 1064.33 534.00 L 1065.29 534.00 L 1065.76 534.00 L 1066.72 534.00 L 1067.20 534.00 L 1068.15 534.00 L 1068.63 534.00 L 1069.58 534.00 L 1070.06 534.00 L 1071.02 534.00 L 1071.97 534.00 L 1072.45 534.00 L 1073.40 534.00 L 1073.88 534.00 L 1074.84 534.00 L 1075.31 534.00 L 1076.27 534.00 L 1076.75 534.00 L 1077.70 534.00 L 1078.18 534.00 L 1079.13 534.00 L 1079.61 534.00 L 1080.57 534.00 L 1081.04 534.00 L 1082.00 534.00" fill="none" stroke="#f97316" stroke-width="2.7" stroke-dasharray="8 6"/>
<path d="M 92.00 534.00 L 92.96 534.00 L 93.43 534.00 L 94.39 534.00 L 94.87 534.00 L 95.82 534.00 L 96.30 534.00 L 97.25 534.00 L 98.21 534.00 L 98.69 534.00 L 99.64 534.00 L 100.12 534.00 L 101.07 534.00 L 101.55 534.00 L 102.51 534.00 L 102.98 534.00 L 103.94 534.00 L 104.42 534.00 L 105.37 534.00 L 105.85 534.00 L 106.80 534.00 L 107.28 534.00 L 108.24 534.00 L 108.71 534.00 L 109.67 534.00 L 110.15 534.00 L 111.10 534.00 L 111.58 534.00 L 112.54 534.00 L 113.01 534.00 L 113.97 534.00 L 114.45 534.00 L 115.40 516.22 L 115.88 516.22 L 116.83 507.55 L 117.31 445.54 L 118.27 392.18 L 118.74 374.40 L 119.70 401.30 L 120.18 436.42 L 121.13 436.42 L 121.61 374.86 L 122.56 419.09 L 123.04 471.98 L 124.00 419.09 L 124.47 401.30 L 125.43 392.64 L 125.91 374.86 L 126.86 357.07 L 127.34 348.41 L 128.30 348.41 L 128.77 330.62 L 129.73 330.62 L 130.68 330.62 L 131.16 304.18 L 132.12 312.84 L 132.59 286.39 L 133.55 286.85 L 134.03 286.85 L 134.98 286.85 L 135.46 304.63 L 136.41 286.85 L 136.89 304.63 L 137.85 286.85 L 138.32 286.85 L 139.28 286.85 L 139.76 286.85 L 140.71 286.85 L 141.19 287.30 L 142.14 304.63 L 142.62 313.75 L 143.58 305.09 L 144.05 305.09 L 145.01 305.09 L 145.49 305.09 L 146.44 305.09 L 146.92 305.09 L 147.88 305.09 L 148.35 331.54 L 149.31 331.99 L 149.79 314.21 L 150.74 314.21 L 151.22 314.21 L 152.17 305.54 L 152.65 305.54 L 153.61 305.54 L 154.08 420.00 L 155.04 420.00 L 155.52 437.33 L 156.47 507.55 L 156.95 349.78 L 157.90 332.45 L 158.38 358.90 L 159.34 358.90 L 159.81 358.90 L 160.77 358.90 L 161.25 358.90 L 162.20 358.90 L 163.16 358.90 L 163.64 358.90 L 164.59 358.90 L 165.07 358.90 L 166.02 376.68 L 166.50 376.68 L 167.46 376.68 L 167.93 376.68 L 168.89 376.68 L 169.37 376.68 L 170.32 376.68 L 170.80 438.24 L 171.75 516.67 L 172.23 534.00 L 173.19 516.67 L 173.66 516.67 L 174.62 516.67 L 175.10 394.46 L 176.05 403.58 L 176.53 403.58 L 177.48 403.58 L 177.96 403.58 L 178.92 403.58 L 179.40 403.58 L 180.35 508.01 L 180.83 516.67 L 181.78 534.00 L 182.26 420.91 L 183.22 420.91 L 183.69 473.35 L 184.65 421.37 L 185.13 421.37 L 186.08 421.37 L 186.56 421.37 L 187.51 421.37 L 187.99 421.37 L 188.95 508.01 L 189.42 438.70 L 190.38 438.70 L 190.86 438.70 L 191.81 438.70 L 192.77 438.70 L 193.24 464.69 L 194.20 464.69 L 194.68 464.69 L 195.63 464.69 L 196.11 473.35 L 197.07 473.35 L 197.54 473.35 L 198.50 473.35 L 198.98 473.35 L 199.93 473.35 L 200.41 473.35 L 201.36 473.35 L 201.84 473.35 L 202.80 473.81 L 203.27 473.81 L 204.23 473.81 L 204.71 473.81 L 205.66 473.81 L 206.14 508.01 L 207.09 508.01 L 207.57 508.01 L 208.53 508.01 L 209.00 508.01 L 209.96 508.01 L 210.44 508.01 L 211.39 508.01 L 211.87 508.01 L 212.82 508.01 L 213.30 508.01 L 214.26 508.01 L 214.74 508.01 L 215.69 508.01 L 216.17 508.01 L 217.12 508.46 L 217.60 508.46 L 218.56 508.46 L 219.03 508.46 L 219.99 508.46 L 220.47 508.46 L 221.42 508.46 L 222.38 508.46 L 222.85 508.46 L 223.81 508.46 L 224.29 508.46 L 225.24 508.46 L 225.72 508.46 L 226.67 508.46 L 227.15 508.46 L 228.11 508.46 L 228.58 508.46 L 229.54 508.46 L 230.02 508.46 L 230.97 508.46 L 231.45 508.46 L 232.41 517.13 L 232.88 517.13 L 233.84 517.13 L 234.32 517.13 L 235.27 517.13 L 235.75 517.13 L 236.70 517.13 L 237.18 517.13 L 238.14 517.13 L 238.61 517.13 L 239.57 517.13 L 240.05 517.13 L 241.00 517.13 L 241.48 517.13 L 242.43 517.13 L 242.91 517.13 L 243.87 517.13 L 244.34 517.13 L 245.30 517.13 L 245.78 517.13 L 246.73 517.13 L 247.21 517.13 L 248.16 517.13 L 249.12 517.13 L 249.60 517.13 L 250.55 517.13 L 251.03 517.13 L 251.99 517.13 L 252.46 517.13 L 253.42 517.13 L 253.90 508.46 L 254.85 508.46 L 255.33 508.46 L 256.28 508.46 L 256.76 508.46 L 257.72 508.46 L 258.19 508.46 L 259.15 508.46 L 259.63 508.46 L 260.58 508.46 L 261.06 508.46 L 262.01 508.46 L 262.49 508.46 L 263.45 508.46 L 263.92 508.46 L 264.88 508.46 L 265.36 508.92 L 266.31 508.92 L 266.79 508.92 L 267.75 508.92 L 268.22 508.92 L 269.18 508.92 L 269.66 508.92 L 270.61 508.92 L 271.09 508.92 L 272.04 508.92 L 272.52 508.92 L 273.48 508.92 L 273.95 508.92 L 274.91 508.92 L 275.86 508.92 L 276.34 508.92 L 277.30 508.92 L 277.77 508.92 L 278.73 508.92 L 279.21 508.92 L 280.16 508.92 L 280.64 508.92 L 281.59 508.92 L 282.07 508.92 L 283.03 508.92 L 283.51 508.92 L 284.46 508.92 L 284.94 508.92 L 285.89 508.92 L 286.37 508.92 L 287.33 508.92 L 287.80 508.92 L 288.76 508.92 L 289.24 508.92 L 290.19 508.92 L 290.67 508.92 L 291.62 508.92 L 292.10 508.92 L 293.06 508.92 L 293.53 508.92 L 294.49 508.92 L 294.97 508.92 L 295.92 508.92 L 296.40 508.92 L 297.35 508.92 L 297.83 508.92 L 298.79 508.92 L 299.26 508.92 L 300.22 508.92 L 301.18 508.92 L 301.65 508.92 L 302.61 508.92 L 303.09 508.92 L 304.04 508.92 L 304.52 517.58 L 305.47 508.92 L 305.95 517.58 L 306.91 517.58 L 307.38 517.58 L 308.34 517.58 L 308.82 517.58 L 309.77 517.58 L 310.25 517.58 L 311.20 517.58 L 311.68 517.58 L 312.64 517.58 L 313.11 517.58 L 314.07 517.58 L 314.55 517.58 L 315.50 517.58 L 315.98 517.58 L 316.93 517.58 L 317.41 517.58 L 318.37 517.58 L 318.85 517.58 L 319.80 517.58 L 320.28 517.58 L 321.23 517.58 L 321.71 517.58 L 322.67 517.58 L 323.14 517.58 L 324.10 517.58 L 325.05 517.58 L 325.53 517.58 L 326.49 517.58 L 326.96 517.58 L 327.92 517.58 L 328.40 517.58 L 329.35 517.58 L 329.83 517.58 L 330.78 517.58 L 331.26 517.58 L 332.22 517.58 L 332.69 517.58 L 333.65 517.58 L 334.13 517.58 L 335.08 517.58 L 335.56 517.58 L 336.52 517.58 L 336.99 517.58 L 337.95 517.58 L 338.43 517.58 L 339.38 517.58 L 339.86 517.58 L 340.81 517.58 L 341.29 517.58 L 342.25 517.58 L 342.72 517.58 L 343.68 517.58 L 344.16 517.58 L 345.11 517.58 L 345.59 517.58 L 346.54 517.58 L 347.02 517.58 L 347.98 517.58 L 348.93 517.58 L 349.41 517.58 L 350.36 517.58 L 350.84 517.58 L 351.80 517.58 L 352.27 517.58 L 353.23 517.58 L 353.71 517.58 L 354.66 517.58 L 355.14 517.58 L 356.10 517.58 L 356.57 517.58 L 357.53 517.58 L 358.01 517.58 L 358.96 517.58 L 359.44 517.58 L 360.39 517.58 L 360.87 517.58 L 361.83 517.58 L 362.30 517.58 L 363.26 517.58 L 363.74 517.58 L 364.69 517.58 L 365.17 517.58 L 366.12 517.58 L 366.60 517.58 L 367.56 517.58 L 368.03 517.58 L 368.99 517.58 L 369.47 517.58 L 370.42 517.58 L 371.38 517.58 L 371.86 517.58 L 372.81 517.58 L 373.29 517.58 L 374.24 517.58 L 374.72 517.58 L 375.68 517.58 L 376.15 517.58 L 377.11 517.58 L 377.59 517.58 L 378.54 517.58 L 379.02 517.58 L 379.97 517.58 L 380.45 517.58 L 381.41 517.58 L 381.88 517.58 L 382.84 517.58 L 383.32 517.58 L 384.27 517.58 L 384.75 517.58 L 385.70 517.58 L 386.18 517.58 L 387.14 517.58 L 387.62 517.58 L 388.57 517.58 L 389.05 517.58 L 390.00 517.58 L 390.48 517.58 L 391.44 517.58 L 391.91 517.58 L 392.87 517.58 L 393.82 517.58 L 394.30 517.58 L 395.26 517.58 L 395.73 517.58 L 396.69 517.58 L 397.17 517.58 L 398.12 517.58 L 398.60 517.58 L 399.55 517.58 L 400.03 517.58 L 400.99 517.58 L 401.46 517.58 L 402.42 517.58 L 402.90 517.58 L 403.85 517.58 L 404.33 517.58 L 405.29 517.58 L 405.76 517.58 L 406.72 517.58 L 407.20 517.58 L 451.61 517.58 L 451.61 517.58 L 451.61 517.58 L 451.61 517.58 L 451.61 517.58 L 451.61 517.58 L 451.61 517.58 L 451.61 517.58 L 451.61 517.58 L 451.61 517.58 L 451.61 517.58 L 451.61 517.58 L 451.61 517.58 L 451.61 517.58 L 451.61 517.58 L 451.61 517.58 L 451.61 517.58 L 451.61 518.04 L 451.61 518.04 L 451.61 518.04 L 451.61 518.04 L 451.61 518.04 L 451.61 518.04 L 451.61 518.04 L 451.61 518.04 L 451.61 518.04 L 451.61 518.04 L 451.61 518.04 L 452.09 518.04 L 452.09 518.04 L 452.09 518.04 L 452.09 518.04 L 452.09 518.04 L 452.09 518.04 L 452.09 518.04 L 452.09 518.04 L 452.09 518.04 L 452.09 518.04 L 452.09 518.04 L 452.09 518.04 L 452.09 518.04 L 452.09 518.04 L 452.09 518.04 L 452.09 518.04 L 452.09 518.04 L 452.09 518.04 L 452.09 518.04 L 452.09 518.04 L 452.09 518.04 L 452.09 518.04 L 452.09 518.04 L 452.09 518.04 L 452.09 518.04 L 452.09 518.04 L 452.09 518.04 L 452.09 518.04 L 452.09 518.04 L 452.09 518.04 L 452.09 518.04 L 452.09 518.04 L 452.09 518.04 L 452.09 518.04 L 453.04 518.04 L 453.52 518.04 L 456.38 518.04 L 456.38 518.04 L 456.38 518.04 L 456.38 518.04 L 457.34 518.04 L 457.82 518.04 L 458.77 518.04 L 459.73 518.04 L 460.21 518.04 L 461.16 518.04 L 461.64 518.04 L 462.59 518.04 L 463.07 518.04 L 464.03 518.04 L 464.50 518.04 L 465.46 518.04 L 465.94 518.04 L 466.89 518.04 L 467.37 518.04 L 468.32 518.04 L 468.80 518.04 L 469.76 518.04 L 470.23 518.04 L 471.19 518.04 L 471.67 518.04 L 472.62 518.04 L 473.10 518.04 L 474.05 518.04 L 474.53 518.04 L 475.49 518.04 L 475.97 518.04 L 476.92 518.04 L 477.40 518.04 L 478.35 518.04 L 478.83 518.04 L 479.79 518.04 L 480.74 518.04 L 481.22 518.04 L 482.17 518.04 L 482.65 518.04 L 483.61 518.04 L 484.08 518.04 L 485.04 518.04 L 485.52 518.04 L 486.47 518.04 L 486.95 518.04 L 487.90 518.04 L 488.38 518.04 L 489.34 518.04 L 489.81 518.04 L 490.77 518.04 L 491.25 518.04 L 492.20 518.04 L 492.68 518.04 L 493.64 518.04 L 494.11 518.04 L 495.07 518.04 L 495.55 518.04 L 496.50 518.04 L 496.98 518.04 L 497.93 518.04 L 498.41 518.04 L 499.37 518.04 L 500.32 518.04 L 500.80 518.04 L 501.75 518.04 L 502.23 534.00 L 503.19 534.00 L 503.66 534.00 L 504.62 534.00 L 505.10 518.04 L 506.05 518.04 L 506.53 518.04 L 507.48 518.04 L 507.96 518.04 L 508.92 518.04 L 509.40 518.04 L 510.35 518.04 L 510.83 518.04 L 511.78 518.04 L 512.26 518.04 L 513.22 518.04 L 513.69 518.04 L 514.65 518.04 L 515.13 518.04 L 516.08 518.04 L 516.56 518.04 L 517.51 518.04 L 517.99 518.04 L 518.95 518.04 L 519.42 518.04 L 520.38 518.04 L 521.33 518.04 L 521.81 518.04 L 522.77 518.04 L 523.24 518.04 L 524.20 518.04 L 524.68 518.04 L 525.63 518.04 L 526.11 518.04 L 527.07 518.04 L 527.54 518.04 L 528.50 518.04 L 528.98 518.04 L 529.93 518.04 L 530.41 518.04 L 531.36 518.04 L 531.84 518.04 L 532.80 518.04 L 533.27 518.04 L 534.23 518.04 L 534.71 518.04 L 535.66 518.04 L 536.14 518.04 L 537.09 518.04 L 537.57 518.04 L 538.53 518.04 L 539.00 518.04 L 539.96 518.04 L 540.91 518.04 L 541.39 518.04 L 542.35 518.04 L 542.82 518.04 L 543.78 518.04 L 544.26 518.04 L 545.21 518.04 L 545.69 518.04 L 546.65 518.04 L 547.12 518.04 L 548.08 518.04 L 548.56 518.04 L 549.51 518.04 L 549.99 518.04 L 550.94 518.04 L 551.42 518.04 L 552.38 518.04 L 552.85 518.04 L 553.81 518.04 L 554.29 518.04 L 555.24 518.04 L 555.72 518.04 L 556.67 518.04 L 557.15 518.04 L 558.11 518.04 L 558.58 518.04 L 559.54 518.04 L 560.02 518.04 L 560.97 518.04 L 561.93 518.04 L 562.41 518.04 L 563.36 518.04 L 563.84 518.04 L 564.79 518.04 L 565.27 534.00 L 566.23 534.00 L 566.70 534.00 L 567.66 534.00 L 568.14 534.00 L 569.09 534.00 L 569.57 534.00 L 570.52 534.00 L 571.00 534.00 L 571.96 534.00 L 572.43 534.00 L 573.39 534.00 L 573.87 534.00 L 574.82 534.00 L 575.30 534.00 L 576.25 534.00 L 576.73 534.00 L 577.69 534.00 L 578.16 534.00 L 579.12 534.00 L 579.60 534.00 L 580.55 534.00 L 581.51 534.00 L 581.99 518.04 L 582.94 518.04 L 583.42 518.04 L 584.37 518.04 L 584.85 518.04 L 585.81 518.04 L 586.28 518.04 L 587.24 518.04 L 587.72 518.04 L 588.67 518.04 L 589.15 534.00 L 590.10 534.00 L 590.58 534.00 L 591.54 534.00 L 592.01 534.00 L 592.97 534.00 L 593.45 534.00 L 594.40 534.00 L 594.88 534.00 L 595.84 534.00 L 596.31 534.00 L 597.27 534.00 L 597.75 534.00 L 598.70 534.00 L 599.18 534.00 L 600.13 534.00 L 600.61 534.00 L 601.57 534.00 L 602.52 534.00 L 603.00 534.00 L 603.95 534.00 L 604.43 534.00 L 605.39 534.00 L 605.86 534.00 L 606.82 534.00 L 607.30 534.00 L 608.25 534.00 L 608.73 534.00 L 609.68 534.00 L 610.16 534.00 L 611.12 534.00 L 611.59 534.00 L 612.55 534.00 L 613.03 534.00 L 613.98 534.00 L 614.46 534.00 L 615.42 534.00 L 615.89 534.00 L 616.85 534.00 L 617.33 534.00 L 618.28 534.00 L 618.76 534.00 L 619.71 534.00 L 620.19 534.00 L 621.15 534.00 L 621.62 534.00 L 622.58 534.00 L 623.53 534.00 L 624.01 534.00 L 624.97 534.00 L 625.44 534.00 L 626.40 534.00 L 626.88 534.00 L 627.83 534.00 L 628.31 534.00 L 629.26 534.00 L 629.74 534.00 L 630.70 534.00 L 631.18 534.00 L 632.13 534.00 L 632.61 534.00 L 633.56 534.00 L 634.04 534.00 L 635.00 534.00 L 635.47 518.04 L 636.43 518.04 L 636.91 518.04 L 637.86 518.04 L 638.34 518.04 L 639.29 518.04 L 639.77 518.04 L 640.73 518.04 L 641.20 518.04 L 642.16 518.04 L 642.64 518.04 L 643.59 518.04 L 644.55 518.04 L 645.02 518.04 L 645.98 518.04 L 646.46 518.04 L 647.41 509.83 L 647.89 509.83 L 648.85 509.83 L 649.32 509.83 L 650.28 518.04 L 650.76 518.04 L 651.71 518.04 L 652.19 518.04 L 653.14 518.04 L 653.62 518.04 L 654.58 518.04 L 655.05 518.04 L 656.01 518.04 L 656.49 518.04 L 657.44 518.04 L 657.92 518.04 L 658.87 518.04 L 659.35 518.04 L 660.31 518.04 L 660.78 518.04 L 661.74 518.04 L 662.22 518.04 L 663.17 518.04 L 663.65 518.04 L 664.60 518.04 L 665.56 518.04 L 666.04 518.04 L 666.99 518.04 L 667.47 518.04 L 668.43 518.04 L 668.90 518.04 L 669.86 518.04 L 670.34 518.04 L 671.29 518.04 L 671.77 518.04 L 672.72 518.04 L 673.20 518.04 L 674.16 518.04 L 674.63 518.04 L 675.59 518.04 L 676.07 518.04 L 677.02 517.58 L 677.50 517.58 L 678.45 517.58 L 678.93 534.00 L 679.89 534.00 L 680.36 517.58 L 681.32 517.58 L 681.80 517.58 L 682.75 517.58 L 683.23 517.58 L 684.19 517.58 L 684.66 517.58 L 685.62 517.58 L 686.10 517.58 L 687.05 517.58 L 688.01 517.58 L 688.48 517.58 L 689.44 517.58 L 689.92 517.58 L 690.87 517.58 L 691.35 517.58 L 692.30 517.58 L 692.78 517.58 L 693.74 517.58 L 694.21 517.58 L 695.17 517.58 L 695.65 517.58 L 696.60 517.58 L 697.08 517.58 L 698.03 517.58 L 698.51 517.58 L 699.47 517.58 L 699.95 517.58 L 700.90 517.58 L 701.38 517.58 L 702.33 517.58 L 702.81 517.58 L 703.77 517.58 L 704.24 517.58 L 705.20 517.58 L 705.68 517.58 L 706.63 517.58 L 707.11 517.58 L 708.06 517.58 L 709.02 517.58 L 709.50 517.58 L 710.45 517.58 L 710.93 517.58 L 711.88 517.58 L 712.36 517.58 L 713.32 517.58 L 713.79 517.58 L 714.75 517.58 L 715.23 517.58 L 716.18 517.58 L 716.66 517.58 L 717.62 517.58 L 718.09 517.58 L 719.05 517.58 L 719.53 518.04 L 720.48 517.58 L 720.96 517.58 L 721.91 517.58 L 722.39 517.58 L 723.35 517.58 L 723.82 517.58 L 724.78 517.58 L 725.26 518.04 L 726.21 518.04 L 726.69 518.04 L 727.64 518.04 L 728.12 518.04 L 729.08 518.04 L 729.55 518.04 L 730.51 518.04 L 731.46 518.04 L 731.94 518.04 L 732.90 518.04 L 733.37 518.04 L 734.33 518.04 L 734.81 518.04 L 735.76 518.04 L 736.24 518.04 L 737.20 518.04 L 737.67 518.04 L 738.63 518.04 L 739.11 518.04 L 740.06 518.04 L 740.54 518.04 L 741.49 518.04 L 741.97 518.04 L 742.93 518.04 L 743.40 518.04 L 744.36 518.04 L 744.84 518.04 L 745.79 518.04 L 746.27 518.04 L 747.22 518.04 L 747.70 518.04 L 748.66 518.04 L 749.13 518.04 L 750.09 518.04 L 750.57 518.04 L 751.52 518.04 L 752.48 518.04 L 752.96 518.04 L 753.91 518.04 L 754.39 518.04 L 755.34 518.04 L 755.82 518.04 L 756.78 518.04 L 757.25 518.04 L 758.21 518.04 L 758.69 518.04 L 759.64 518.04 L 760.12 518.04 L 761.07 518.04 L 761.55 518.04 L 762.51 518.04 L 762.98 518.04 L 763.94 518.04 L 764.42 518.04 L 765.37 518.04 L 765.85 518.04 L 766.80 518.04 L 767.28 518.04 L 768.24 518.04 L 768.71 518.04 L 769.67 518.04 L 770.15 518.04 L 771.10 518.04 L 771.58 518.04 L 772.54 518.04 L 773.01 518.04 L 773.97 518.04 L 774.92 518.04 L 775.40 518.04 L 776.36 518.04 L 776.83 518.04 L 777.79 518.04 L 778.27 518.04 L 779.22 518.04 L 779.70 518.04 L 780.65 518.04 L 781.13 518.04 L 782.09 518.04 L 782.56 518.04 L 783.52 518.04 L 784.00 518.04 L 784.95 518.04 L 785.43 518.04 L 786.38 518.04 L 786.86 518.04 L 787.82 518.04 L 788.30 518.04 L 789.25 518.04 L 789.73 518.04 L 790.68 518.04 L 791.16 518.04 L 792.12 518.04 L 792.59 518.04 L 793.55 518.04 L 794.03 518.04 L 794.98 518.04 L 795.94 518.04 L 796.41 518.04 L 797.37 518.04 L 797.85 518.04 L 798.80 518.04 L 799.28 518.04 L 800.23 518.04 L 800.71 518.04 L 801.67 518.04 L 802.14 518.04 L 803.10 518.04 L 803.58 518.04 L 804.53 518.04 L 805.01 518.04 L 805.97 518.04 L 806.44 518.04 L 807.40 518.04 L 807.88 518.04 L 808.83 518.04 L 809.31 518.04 L 810.26 518.04 L 810.74 518.04 L 811.70 518.04 L 812.17 518.04 L 813.13 518.04 L 813.61 518.04 L 814.56 518.04 L 815.04 518.04 L 815.99 518.04 L 816.95 518.04 L 817.43 518.04 L 818.38 518.04 L 818.86 518.04 L 819.81 518.04 L 820.29 518.04 L 821.25 518.04 L 821.73 518.04 L 822.68 518.04 L 823.16 518.04 L 824.11 518.04 L 824.59 518.04 L 825.55 518.04 L 826.02 518.04 L 826.98 518.04 L 827.46 518.04 L 828.41 518.04 L 828.89 518.04 L 829.84 518.04 L 830.32 518.04 L 831.28 518.04 L 831.75 518.04 L 832.71 518.04 L 833.19 518.04 L 834.14 518.04 L 834.62 518.04 L 835.57 518.04 L 836.05 518.04 L 837.01 518.04 L 837.96 518.04 L 838.44 518.04 L 839.40 534.00 L 839.87 534.00 L 840.83 534.00 L 841.31 534.00 L 842.26 534.00 L 842.74 534.00 L 843.69 534.00 L 844.17 534.00 L 845.13 534.00 L 845.60 534.00 L 846.56 534.00 L 847.04 534.00 L 847.99 534.00 L 848.47 534.00 L 849.42 518.04 L 849.90 518.04 L 850.86 518.04 L 851.33 518.04 L 852.29 518.04 L 852.77 518.04 L 853.72 518.04 L 854.20 518.04 L 855.15 518.04 L 855.63 518.04 L 856.59 518.04 L 857.07 518.04 L 858.02 518.04 L 858.98 518.04 L 859.45 518.04 L 860.41 518.04 L 860.89 518.04 L 861.84 518.04 L 862.32 518.04 L 863.27 518.04 L 863.75 518.04 L 864.71 518.04 L 865.18 518.04 L 866.14 518.04 L 866.62 518.04 L 867.57 518.04 L 868.05 518.04 L 869.00 518.04 L 869.48 518.04 L 870.44 518.04 L 870.91 518.04 L 871.87 518.04 L 872.35 518.04 L 873.30 518.04 L 873.78 518.04 L 874.74 518.04 L 875.21 518.04 L 876.17 518.04 L 876.65 518.04 L 877.60 518.04 L 878.08 518.04 L 879.03 518.04 L 879.99 518.04 L 880.47 518.04 L 881.42 518.04 L 881.90 518.04 L 882.85 518.04 L 883.33 518.04 L 884.29 518.04 L 884.76 518.04 L 885.72 518.04 L 886.20 518.04 L 887.15 518.04 L 887.63 518.04 L 888.58 518.04 L 889.06 518.04 L 890.02 518.04 L 890.49 518.04 L 891.45 518.04 L 891.93 518.04 L 892.88 534.00 L 893.36 534.00 L 894.32 534.00 L 894.79 534.00 L 895.75 534.00 L 896.23 534.00 L 897.18 534.00 L 897.66 534.00 L 898.61 534.00 L 899.57 534.00 L 900.05 534.00 L 901.00 534.00 L 901.48 534.00 L 902.43 534.00 L 902.91 534.00 L 903.87 534.00 L 904.34 534.00 L 905.30 534.00 L 905.78 534.00 L 906.73 534.00 L 907.21 534.00 L 908.16 534.00 L 908.64 534.00 L 909.60 534.00 L 910.08 534.00 L 911.03 534.00 L 911.51 534.00 L 912.46 534.00 L 912.94 534.00 L 913.90 534.00 L 914.37 534.00 L 915.33 534.00 L 915.81 534.00 L 916.76 534.00 L 917.24 534.00 L 918.19 534.00 L 918.67 534.00 L 919.63 534.00 L 920.58 534.00 L 921.06 534.00 L 922.01 534.00 L 922.49 534.00 L 923.45 534.00 L 923.92 534.00 L 924.88 534.00 L 925.36 534.00 L 926.31 534.00 L 926.79 534.00 L 927.75 534.00 L 928.22 534.00 L 929.18 534.00 L 929.66 534.00 L 930.61 534.00 L 931.09 534.00 L 932.04 534.00 L 932.52 534.00 L 933.48 534.00 L 933.95 534.00 L 934.91 534.00 L 935.39 534.00 L 936.34 534.00 L 936.82 534.00 L 937.77 534.00 L 938.25 534.00 L 939.21 534.00 L 939.68 534.00 L 940.64 534.00 L 941.59 534.00 L 942.07 534.00 L 943.03 534.00 L 943.51 534.00 L 944.46 534.00 L 944.94 534.00 L 945.89 534.00 L 946.37 534.00 L 947.33 534.00 L 947.80 534.00 L 948.76 534.00 L 949.24 534.00 L 950.19 534.00 L 950.67 534.00 L 951.62 534.00 L 952.10 534.00 L 953.06 534.00 L 953.53 534.00 L 954.49 534.00 L 954.97 534.00 L 955.92 534.00 L 956.40 534.00 L 957.35 534.00 L 957.83 534.00 L 958.79 534.00 L 959.26 534.00 L 960.22 534.00 L 960.70 534.00 L 961.65 534.00 L 962.61 534.00 L 963.09 534.00 L 964.04 534.00 L 964.52 534.00 L 965.47 534.00 L 965.95 534.00 L 966.91 534.00 L 967.38 534.00 L 968.34 534.00 L 968.82 534.00 L 969.77 534.00 L 970.25 534.00 L 971.20 534.00 L 971.68 534.00 L 972.64 534.00 L 973.11 534.00 L 974.07 534.00 L 974.55 534.00 L 975.50 534.00 L 975.98 534.00 L 976.93 534.00 L 977.41 534.00 L 978.37 534.00 L 978.85 534.00 L 979.80 534.00 L 980.28 534.00 L 981.23 534.00 L 981.71 534.00 L 982.67 534.00 L 983.62 534.00 L 984.10 534.00 L 985.05 534.00 L 985.53 534.00 L 986.49 534.00 L 986.96 534.00 L 987.92 534.00 L 988.40 534.00 L 989.35 534.00 L 989.83 534.00 L 990.78 534.00 L 991.26 534.00 L 992.22 534.00 L 992.69 534.00 L 993.65 534.00 L 994.13 534.00 L 995.08 534.00 L 995.56 534.00 L 996.52 534.00 L 996.99 534.00 L 997.95 534.00 L 998.43 534.00 L 999.38 534.00 L 999.86 534.00 L 1000.81 534.00 L 1001.29 534.00 L 1002.25 534.00 L 1002.72 534.00 L 1003.68 534.00 L 1004.16 534.00 L 1005.11 534.00 L 1006.07 534.00 L 1006.54 534.00 L 1007.50 534.00 L 1007.98 534.00 L 1008.93 534.00 L 1009.41 534.00 L 1010.36 534.00 L 1010.84 534.00 L 1011.80 534.00 L 1012.27 534.00 L 1013.23 534.00 L 1013.71 534.00 L 1014.66 534.00 L 1015.14 534.00 L 1016.10 534.00 L 1016.57 534.00 L 1017.53 534.00 L 1018.01 534.00 L 1018.96 534.00 L 1019.44 534.00 L 1020.39 534.00 L 1020.87 534.00 L 1021.83 534.00 L 1022.30 534.00 L 1023.26 534.00 L 1023.74 534.00 L 1024.69 534.00 L 1025.17 534.00 L 1026.12 534.00 L 1027.08 534.00 L 1027.56 534.00 L 1028.51 534.00 L 1028.99 534.00 L 1029.95 534.00 L 1030.42 534.00 L 1031.38 534.00 L 1031.86 534.00 L 1032.81 534.00 L 1033.29 517.58 L 1034.24 517.58 L 1034.72 517.58 L 1035.68 517.58 L 1036.15 517.58 L 1037.11 517.58 L 1037.59 517.58 L 1038.54 517.58 L 1039.02 517.58 L 1039.97 517.58 L 1040.45 517.58 L 1041.41 517.58 L 1041.88 517.58 L 1042.84 517.58 L 1043.32 534.00 L 1044.27 534.00 L 1044.75 534.00 L 1045.70 534.00 L 1046.18 534.00 L 1047.14 534.00 L 1047.62 534.00 L 1048.57 534.00 L 1049.53 534.00 L 1050.00 534.00 L 1050.96 534.00 L 1051.44 534.00 L 1052.39 534.00 L 1052.87 534.00 L 1053.82 534.00 L 1054.30 534.00 L 1055.26 534.00 L 1055.73 534.00 L 1056.69 534.00 L 1057.17 534.00 L 1058.12 534.00 L 1058.60 534.00 L 1059.55 534.00 L 1060.03 534.00 L 1060.99 534.00 L 1061.46 534.00 L 1062.42 534.00 L 1062.90 534.00 L 1063.85 534.00 L 1064.33 534.00 L 1065.29 534.00 L 1065.76 534.00 L 1066.72 534.00 L 1067.20 534.00 L 1068.15 534.00 L 1068.63 534.00 L 1069.58 534.00 L 1070.06 534.00 L 1071.02 534.00 L 1071.97 534.00 L 1072.45 534.00 L 1073.40 534.00 L 1073.88 534.00 L 1074.84 534.00 L 1075.31 534.00 L 1076.27 534.00 L 1076.75 534.00 L 1077.70 534.00 L 1078.18 534.00 L 1079.13 534.00 L 1079.61 534.00 L 1080.57 534.00 L 1081.04 534.00 L 1082.00 534.00" fill="none" stroke="#0ea5e9" stroke-width="2.7"/>
<text x="560.0" y="602" text-anchor="middle" font-family="Arial, sans-serif" font-size="13" fill="#475569">Wall Clock Time</text>
<text transform="translate(25 306.0) rotate(-90)" text-anchor="middle" font-family="Arial, sans-serif" font-size="13" fill="#475569">Power (W)</text>
<rect x="727" y="96" width="335" height="80" rx="8" fill="#ffffff" stroke="#cbd5e1"/>
<line x1="745" y1="121" x2="785" y2="121" stroke="#f97316" stroke-width="2.8" stroke-dasharray="8 6"/>
<text x="797" y="126" font-family="Arial, sans-serif" font-size="13" fill="#1e293b">Raw Power (power_w)</text>
<line x1="745" y1="147" x2="785" y2="147" stroke="#0ea5e9" stroke-width="2.8"/>
<text x="797" y="152" font-family="Arial, sans-serif" font-size="13" fill="#1e293b">Temp-Corrected Power (power_corrected_w)</text>
</svg>