<svg xmlns="http://www.w3.org/2000/svg" width="1120" height="620" viewBox="0 0 1120 620">
<rect width="100%" height="100%" fill="#f8fafc"/>
<rect x="92" y="78" width="990" height="456" fill="#ffffff" stroke="#cbd5e1"/>
<text x="560.0" y="34" text-anchor="middle" font-family="Arial, sans-serif" font-size="21" font-weight="700" fill="#1e293b">Panel Temperature - 13 deg Tilt - Morning Session</text>
<text x="560.0" y="58" text-anchor="middle" font-family="Arial, sans-serif" font-size="12" fill="#475569">1477 readings from 09:48:33 to 10:31:38</text>
<line x1="92" y1="534.00" x2="1082" y2="534.00" stroke="#cbd5e1" stroke-dasharray="5 5" opacity="0.75"/>
<text x="80" y="538.00" text-anchor="end" font-family="Arial, sans-serif" font-size="12" fill="#475569">0.000</text>
<line x1="92" y1="442.80" x2="1082" y2="442.80" stroke="#cbd5e1" stroke-dasharray="5 5" opacity="0.75"/>
<text x="80" y="446.80" text-anchor="end" font-family="Arial, sans-serif" font-size="12" fill="#475569">20.000</text>
<line x1="92" y1="351.60" x2="1082" y2="351.60" stroke="#cbd5e1" stroke-dasharray="5 5" opacity="0.75"/>
<text x="80" y="355.60" text-anchor="end" font-family="Arial, sans-serif" font-size="12" fill="#475569">40.000</text>
<line x1="92" y1="260.40" x2="1082" y2="260.40" stroke="#cbd5e1" stroke-dasharray="5 5" opacity="0.75"/>
<text x="80" y="264.40" text-anchor="end" font-family="Arial, sans-serif" font-size="12" fill="#475569">60.000</text>
<line x1="92" y1="169.20" x2="1082" y2="169.20" stroke="#cbd5e1" stroke-dasharray="5 5" opacity="0.75"/>
<text x="80" y="173.20" text-anchor="end" font-family="Arial, sans-serif" font-size="12" fill="#475569">80.000</text>
<line x1="92" y1="78.00" x2="1082" y2="78.00" stroke="#cbd5e1" stroke-dasharray="5 5" opacity="0.75"/>
<text x="80" y="82.00" text-anchor="end" font-family="Arial, sans-serif" font-size="12" fill="#475569">100.000</text>
<line x1="92.00" y1="78" x2="92.00" y2="534" stroke="#e2e8f0" stroke-dasharray="4 6"/>
<text x="92.00" y="568" text-anchor="middle" font-family="Arial, sans-serif" font-size="12" fill="#475569">09:48:33</text>
<line x1="257.00" y1="78" x2="257.00" y2="534" stroke="#e2e8f0" stroke-dasharray="4 6"/>
<text x="257.00" y="568" text-anchor="middle" font-family="Arial, sans-serif" font-size="12" fill="#475569">09:55:43</text>
<line x1="422.00" y1="78" x2="422.00" y2="534" stroke="#e2e8f0" stroke-dasharray="4 6"/>
<text x="422.00" y="568" text-anchor="middle" font-family="Arial, sans-serif" font-size="12" fill="#475569">10:02:54</text>
<line x1="587.00" y1="78" x2="587.00" y2="534" stroke="#e2e8f0" stroke-dasharray="4 6"/>
<text x="587.00" y="568" text-anchor="middle" font-family="Arial, sans-serif" font-size="12" fill="#475569">10:10:05</text>
<line x1="752.00" y1="78" x2="752.00" y2="534" stroke="#e2e8f0" stroke-dasharray="4 6"/>
<text x="752.00" y="568" text-anchor="middle" font-family="Arial, sans-serif" font-size="12" fill="#475569">10:17:16</text>
<line x1="917.00" y1="78" x2="917.00" y2="534" stroke="#e2e8f0" stroke-dasharray="4 6"/>
<text x="917.00" y="568" text-anchor="middle" font-family="Arial, sans-serif" font-size="12" fill="#475569">10:24:27</text>
<line x1="1082.00" y1="78" x2="1082.00" y2="534" stroke="#e2e8f0" stroke-dasharray="4 6"/>
<text x="1082.00" y="568" text-anchor="middle" font-family="Arial, sans-serif" font-size="12" fill="#475569">10:31:38</text>
<path d="M 92.00 352.15 L 92.77 351.87 L 93.15 351.60 L 93.91 351.33 L 94.30 351.33 L 95.06 350.73 L 95.45 350.46 L 96.21 350.19 L 96.98 350.19 L 97.36 349.87 L 98.13 349.59 L 98.51 349.32 L 99.28 349.05 L 99.66 348.73 L 100.43 348.45 L 100.81 348.18 L 101.57 348.18 L 101.96 347.59 L 102.72 347.59 L 103.11 347.31 L 103.87 347.04 L 104.26 347.04 L 105.02 346.77 L 105.40 346.77 L 106.17 346.45 L 106.55 346.17 L 107.32 346.17 L 107.70 345.90 L 108.47 345.63 L 108.85 345.63 L 109.62 345.63 L 110.00 345.31 L 110.77 345.31 L 111.15 345.31 L 111.91 345.03 L 112.30 344.76 L 113.06 344.76 L 113.45 344.49 L 114.21 344.17 L 114.60 344.17 L 115.36 344.17 L 115.74 343.89 L 116.51 343.62 L 116.89 343.35 L 117.66 343.35 L 118.04 343.03 L 118.81 343.35 L 119.57 343.35 L 119.96 343.03 L 120.72 343.03 L 121.11 342.75 L 121.87 342.48 L 122.26 342.48 L 123.02 342.21 L 123.40 342.21 L 124.17 341.89 L 124.55 341.61 L 125.32 341.34 L 125.70 341.34 L 126.47 341.07 L 126.85 341.07 L 127.62 340.75 L 128.00 340.75 L 128.77 340.47 L 129.15 340.20 L 129.91 340.20 L 130.30 339.93 L 131.06 339.93 L 131.45 339.93 L 132.21 339.61 L 132.60 339.61 L 133.36 339.33 L 133.74 339.06 L 134.51 339.06 L 134.89 339.06 L 135.66 338.79 L 136.04 338.79 L 136.81 338.47 L 137.19 338.47 L 137.96 338.47 L 138.34 338.47 L 139.11 338.47 L 139.87 338.19 L 140.26 338.47 L 141.02 338.47 L 141.40 338.19 L 142.17 338.19 L 142.55 338.19 L 143.32 337.92 L 143.70 337.92 L 144.47 337.65 L 144.85 337.65 L 145.62 337.33 L 146.00 337.33 L 146.77 337.05 L 147.15 337.05 L 147.91 336.78 L 148.30 336.78 L 149.06 336.78 L 149.45 336.51 L 150.21 336.51 L 150.60 336.51 L 151.36 336.51 L 151.74 336.19 L 152.51 336.19 L 152.89 335.91 L 153.66 335.91 L 154.04 335.64 L 154.81 335.64 L 155.19 335.37 L 155.96 335.05 L 156.34 335.05 L 157.11 335.05 L 157.49 334.77 L 158.26 334.77 L 158.64 334.50 L 159.40 334.23 L 159.79 334.23 L 160.55 333.91 L 161.32 333.91 L 161.70 333.91 L 162.47 333.91 L 162.85 333.91 L 163.62 333.91 L 164.00 333.91 L 164.77 334.23 L 165.15 334.23 L 165.91 334.23 L 166.30 333.91 L 167.06 333.91 L 167.45 333.91 L 168.21 333.63 L 168.60 333.63 L 169.36 333.63 L 169.74 333.63 L 170.51 333.63 L 170.89 333.63 L 171.66 333.91 L 172.04 333.91 L 172.81 333.63 L 173.19 333.63 L 173.96 333.63 L 174.34 333.63 L 175.11 333.36 L 175.49 333.36 L 176.26 333.36 L 176.64 333.36 L 177.40 333.09 L 177.79 333.09 L 178.55 333.09 L 178.94 333.09 L 179.70 333.36 L 180.09 333.09 L 180.85 333.36 L 181.62 333.09 L 182.00 333.09 L 182.77 333.09 L 183.15 333.09 L 183.91 333.09 L 184.30 333.09 L 185.06 333.09 L 185.45 333.09 L 186.21 333.36 L 186.60 333.09 L 187.36 333.09 L 187.74 333.09 L 188.51 332.77 L 188.89 332.77 L 189.66 332.77 L 190.04 332.77 L 190.81 332.77 L 191.19 332.77 L 191.96 332.77 L 192.34 332.49 L 193.11 332.49 L 193.49 332.49 L 194.26 332.49 L 194.64 332.49 L 195.40 332.49 L 195.79 332.22 L 196.55 332.22 L 196.94 332.22 L 197.70 332.22 L 198.09 332.22 L 198.85 331.95 L 199.23 332.22 L 200.00 331.95 L 200.38 331.95 L 201.15 331.95 L 201.53 331.95 L 202.30 331.95 L 203.06 331.63 L 203.45 331.95 L 204.21 331.95 L 204.60 332.22 L 205.36 331.95 L 205.74 331.95 L 206.51 331.95 L 206.89 331.95 L 207.66 331.95 L 208.04 331.95 L 208.81 331.95 L 209.19 331.95 L 209.96 331.95 L 210.34 331.63 L 211.11 331.95 L 211.49 331.63 L 212.26 331.63 L 212.64 331.63 L 213.40 331.63 L 213.79 331.63 L 214.55 331.63 L 214.94 331.63 L 215.70 331.63 L 216.09 331.63 L 216.85 331.63 L 217.23 331.63 L 218.00 331.63 L 218.38 331.95 L 219.15 331.63 L 219.53 331.63 L 220.30 331.63 L 220.68 331.95 L 221.45 331.95 L 221.83 331.95 L 222.60 331.95 L 223.36 331.95 L 223.74 331.95 L 224.51 332.22 L 224.89 332.22 L 225.66 331.95 L 226.04 331.95 L 226.81 331.95 L 227.19 331.95 L 227.96 331.95 L 228.34 331.95 L 229.11 331.95 L 229.49 331.95 L 230.26 331.95 L 230.64 331.95 L 231.40 331.95 L 231.79 331.63 L 232.55 331.63 L 232.94 331.95 L 233.70 331.63 L 234.09 331.95 L 234.85 331.63 L 235.23 331.63 L 236.00 331.63 L 236.38 331.63 L 237.15 331.63 L 237.53 331.63 L 238.30 331.63 L 238.68 331.63 L 239.45 331.63 L 239.83 331.63 L 240.60 331.63 L 240.98 331.63 L 241.74 331.63 L 242.13 331.35 L 242.89 331.63 L 243.28 331.63 L 244.04 331.63 L 244.81 331.63 L 245.19 331.63 L 245.96 331.63 L 246.34 331.95 L 247.11 331.95 L 247.49 331.95 L 248.26 331.95 L 248.64 331.95 L 249.40 331.95 L 249.79 332.22 L 250.55 332.22 L 250.94 332.22 L 251.70 332.22 L 252.09 332.22 L 252.85 332.22 L 253.23 332.22 L 254.00 332.49 L 254.38 332.49 L 255.15 332.77 L 255.53 332.77 L 256.30 332.77 L 256.68 332.77 L 257.45 333.09 L 257.83 333.09 L 258.60 333.09 L 258.98 333.09 L 259.74 333.09 L 260.13 333.36 L 260.89 333.36 L 261.28 333.36 L 262.04 333.36 L 262.43 333.63 L 263.19 333.63 L 263.57 333.63 L 264.34 333.63 L 265.11 333.63 L 265.49 333.63 L 266.26 333.63 L 266.64 333.91 L 267.40 333.91 L 267.79 333.91 L 268.55 333.91 L 268.94 333.91 L 269.70 333.91 L 270.09 333.91 L 270.85 333.91 L 271.23 333.91 L 272.00 333.91 L 272.38 334.23 L 273.15 333.91 L 273.53 334.23 L 274.30 334.23 L 274.68 334.23 L 275.45 334.23 L 275.83 334.23 L 276.60 334.23 L 276.98 334.50 L 277.74 334.50 L 278.13 334.77 L 278.89 334.77 L 279.28 334.77 L 280.04 334.77 L 280.43 335.05 L 281.19 335.37 L 281.57 335.37 L 282.34 335.37 L 282.72 335.37 L 283.49 335.64 L 283.87 335.64 L 284.64 335.64 L 285.02 335.91 L 285.79 336.19 L 286.55 336.19 L 286.94 336.19 L 287.70 336.51 L 288.09 336.78 L 288.85 336.78 L 289.23 336.78 L 290.00 337.05 L 290.38 337.05 L 291.15 337.05 L 291.53 337.33 L 292.30 337.33 L 292.68 337.65 L 293.45 337.65 L 293.83 337.65 L 294.60 337.92 L 294.98 338.19 L 295.74 338.19 L 296.13 338.19 L 296.89 338.47 L 297.28 338.47 L 298.04 338.47 L 298.43 338.79 L 299.19 338.79 L 299.57 339.06 L 300.34 339.06 L 300.72 339.06 L 301.49 339.33 L 301.87 339.33 L 302.64 339.61 L 303.02 339.61 L 303.79 339.61 L 304.17 339.93 L 304.94 339.93 L 305.32 339.93 L 306.09 340.20 L 306.47 340.20 L 307.23 340.20 L 308.00 340.47 L 308.38 340.47 L 309.15 340.47 L 309.53 340.47 L 310.30 340.75 L 310.68 340.75 L 311.45 340.75 L 311.83 340.75 L 312.60 340.75 L 312.98 340.75 L 313.74 340.75 L 314.13 341.07 L 314.89 341.07 L 315.28 341.07 L 316.04 341.07 L 316.43 341.07 L 317.19 341.07 L 317.57 341.07 L 318.34 341.07 L 318.72 341.07 L 319.49 341.07 L 319.87 341.34 L 320.64 341.34 L 321.02 341.34 L 321.79 341.34 L 322.17 341.61 L 322.94 341.61 L 323.32 341.61 L 324.09 341.89 L 324.47 341.61 L 325.23 341.61 L 325.62 341.61 L 326.38 341.61 L 326.77 341.61 L 327.53 341.61 L 327.91 341.61 L 328.68 341.61 L 329.45 341.61 L 329.83 341.61 L 330.60 341.34 L 330.98 341.61 L 331.74 341.34 L 332.13 341.34 L 332.89 341.34 L 333.28 341.34 L 334.04 341.34 L 334.43 341.34 L 335.19 341.34 L 335.57 341.34 L 336.34 341.07 L 336.72 341.07 L 337.49 341.07 L 337.87 341.07 L 338.64 341.07 L 339.02 340.75 L 339.79 340.75 L 340.17 340.47 L 340.94 340.47 L 341.32 340.47 L 342.09 340.20 L 342.47 340.20 L 343.23 340.20 L 343.62 339.93 L 344.38 339.93 L 344.77 339.61 L 345.53 339.93 L 345.91 339.93 L 346.68 339.33 L 347.06 339.33 L 347.83 339.33 L 348.21 339.33 L 348.98 339.33 L 349.36 339.06 L 350.13 339.06 L 350.89 339.06 L 351.28 338.79 L 352.04 338.47 L 352.43 338.47 L 353.19 338.19 L 353.57 338.19 L 354.34 337.92 L 354.72 337.92 L 355.49 337.92 L 355.87 337.65 L 356.64 337.65 L 357.02 337.65 L 357.79 337.33 L 358.17 337.33 L 358.94 337.05 L 359.32 337.05 L 360.09 337.05 L 360.47 336.78 L 361.23 336.51 L 361.62 336.51 L 362.38 336.19 L 362.77 336.19 L 363.53 336.19 L 363.91 336.19 L 364.68 335.91 L 365.06 335.64 L 365.83 335.64 L 366.21 335.64 L 366.98 335.37 L 367.36 335.37 L 368.13 335.37 L 368.51 335.05 L 369.28 335.05 L 369.66 335.05 L 370.43 334.77 L 371.19 334.77 L 371.57 334.50 L 372.34 334.50 L 372.72 334.23 L 373.49 334.23 L 373.87 334.23 L 374.64 333.91 L 375.02 333.63 L 375.79 333.63 L 376.17 333.36 L 376.94 333.36 L 377.32 333.09 L 378.09 332.77 L 378.47 332.77 L 379.23 332.77 L 379.62 332.49 L 380.38 332.49 L 380.77 332.22 L 381.53 332.22 L 381.91 331.95 L 382.68 331.63 L 383.06 331.63 L 383.83 331.35 L 384.21 331.35 L 384.98 331.08 L 385.36 331.08 L 386.13 331.08 L 386.51 330.81 L 387.28 330.81 L 387.66 330.49 L 388.43 330.49 L 388.81 330.21 L 389.57 330.21 L 389.96 329.94 L 390.72 329.94 L 391.11 329.67 L 391.87 329.35 L 392.64 329.35 L 393.02 329.07 L 393.79 329.07 L 394.17 329.07 L 394.94 328.80 L 395.32 328.80 L 396.09 328.53 L 396.47 328.21 L 397.23 328.21 L 397.62 327.93 L 398.38 327.93 L 398.77 327.66 L 399.53 327.39 L 399.91 327.39 L 400.68 327.07 L 401.06 326.79 L 401.83 326.79 L 402.21 326.52 L 402.98 326.52 L 403.36 326.25 L 404.13 325.93 L 404.51 325.93 L 405.28 325.65 L 405.66 325.38 L 406.43 325.38 L 406.81 325.11 L 407.57 324.79 L 407.96 324.51 L 408.72 324.51 L 409.11 324.24 L 409.87 324.24 L 410.26 323.97 L 411.02 323.65 L 411.40 323.37 L 412.17 323.37 L 412.94 323.37 L 413.32 322.83 L 414.09 322.83 L 414.47 322.83 L 415.23 322.51 L 415.62 322.23 L 416.38 322.23 L 416.77 322.23 L 417.53 321.96 L 417.91 321.69 L 418.68 321.69 L 419.06 321.37 L 419.83 321.37 L 420.21 321.09 L 420.98 321.09 L 421.36 320.82 L 422.13 320.82 L 422.51 320.82 L 423.28 320.55 L 423.66 320.55 L 424.43 320.23 L 424.81 320.23 L 425.57 320.23 L 425.96 319.95 L 426.72 319.95 L 427.11 319.95 L 427.87 319.95 L 428.26 319.68 L 429.02 319.68 L 429.40 319.68 L 430.17 319.68 L 430.55 319.41 L 431.32 319.41 L 432.09 319.41 L 432.47 319.41 L 433.23 319.41 L 433.62 319.41 L 434.38 319.41 L 434.77 319.41 L 435.53 319.09 L 435.91 319.41 L 436.68 319.41 L 437.06 319.41 L 437.83 319.09 L 438.21 319.09 L 438.98 319.09 L 439.36 319.09 L 440.13 319.09 L 440.51 319.09 L 441.28 318.81 L 441.66 318.81 L 442.43 318.81 L 442.81 318.81 L 443.57 318.81 L 443.96 318.81 L 444.72 318.81 L 445.11 318.81 L 445.87 318.81 L 446.26 318.81 L 447.02 318.81 L 447.40 318.54 L 448.17 318.54 L 448.55 318.54 L 449.32 318.54 L 449.70 318.27 L 450.47 318.27 L 451.23 318.27 L 451.62 318.27 L 452.38 318.27 L 452.77 318.27 L 453.53 318.27 L 453.91 318.27 L 454.68 318.27 L 455.06 317.95 L 455.83 317.95 L 456.21 317.95 L 456.98 318.27 L 457.36 318.27 L 458.13 318.27 L 458.51 318.27 L 459.28 318.27 L 459.66 318.27 L 460.43 318.27 L 460.81 317.95 L 461.57 318.27 L 461.96 317.95 L 462.72 317.95 L 463.11 317.95 L 463.87 317.95 L 464.26 317.95 L 465.02 317.95 L 465.40 317.95 L 466.17 317.95 L 466.55 317.95 L 467.32 317.95 L 467.70 317.95 L 468.47 317.95 L 468.85 318.27 L 469.62 317.95 L 470.00 317.95 L 470.77 317.95 L 471.53 318.27 L 471.91 318.27 L 472.68 318.54 L 473.06 318.54 L 473.83 318.54 L 474.21 318.54 L 474.98 318.81 L 475.36 318.81 L 476.13 318.81 L 476.51 319.09 L 477.28 319.09 L 477.66 319.09 L 478.43 319.09 L 478.81 319.41 L 479.57 319.41 L 479.96 319.41 L 480.72 319.41 L 481.11 319.68 L 481.87 319.68 L 482.26 319.68 L 483.02 319.68 L 483.40 319.95 L 484.17 319.95 L 484.55 320.23 L 485.32 320.23 L 485.70 320.55 L 486.47 320.55 L 486.85 320.55 L 487.62 320.55 L 488.00 320.82 L 488.77 320.82 L 489.15 321.09 L 489.91 321.09 L 490.68 321.09 L 491.06 321.37 L 491.83 321.37 L 492.21 321.69 L 492.98 321.69 L 493.36 321.69 L 494.13 321.96 L 494.51 322.23 L 495.28 321.96 L 495.66 322.23 L 496.43 322.23 L 496.81 322.23 L 497.57 322.51 L 497.96 322.51 L 498.72 322.51 L 499.11 322.83 L 499.87 323.10 L 500.26 322.83 L 501.02 323.10 L 501.40 323.10 L 502.17 323.37 L 502.55 323.37 L 503.32 323.65 L 503.70 323.65 L 504.47 323.65 L 504.85 323.97 L 505.62 323.97 L 506.00 323.97 L 506.77 324.24 L 507.15 324.24 L 507.91 324.51 L 508.30 324.24 L 509.06 324.51 L 509.45 324.51 L 510.21 324.51 L 510.98 324.51 L 511.36 324.79 L 512.13 325.11 L 512.51 325.38 L 513.28 325.38 L 513.66 325.65 L 514.43 325.65 L 514.81 325.65 L 515.57 325.93 L 515.96 325.93 L 516.72 325.93 L 517.11 326.25 L 517.87 326.25 L 518.26 326.52 L 519.02 326.52 L 519.40 326.52 L 651.15 326.79 L 651.53 326.79 L 651.53 327.07 L 651.53 327.07 L 651.53 327.07 L 651.53 327.39 L 651.53 327.39 L 651.53 327.66 L 651.53 327.93 L 651.53 327.93 L 651.53 327.93 L 651.53 328.21 L 651.53 328.21 L 651.53 328.21 L 651.53 328.53 L 651.53 328.53 L 651.53 328.80 L 651.53 328.80 L 651.53 328.80 L 651.53 329.07 L 651.53 329.07 L 651.53 329.07 L 651.53 329.07 L 651.53 329.07 L 651.53 329.07 L 651.53 329.07 L 651.53 329.35 L 651.53 329.35 L 651.53 329.07 L 651.53 329.67 L 651.53 329.35 L 651.53 329.67 L 651.53 329.67 L 651.53 329.94 L 651.53 329.94 L 651.53 329.94 L 651.53 329.94 L 651.53 329.94 L 651.53 329.94 L 651.53 330.21 L 651.53 330.49 L 651.53 330.81 L 651.53 330.81 L 651.53 331.08 L 651.53 331.08 L 651.53 331.35 L 651.53 331.35 L 651.53 331.35 L 651.53 331.63 L 651.53 331.95 L 651.53 331.95 L 651.53 332.49 L 651.53 332.49 L 651.53 332.77 L 651.53 333.09 L 651.53 333.09 L 651.53 333.09 L 651.53 333.36 L 651.53 333.36 L 651.53 333.36 L 651.53 333.36 L 651.53 333.36 L 651.53 333.36 L 651.53 333.36 L 651.53 333.36 L 651.53 333.63 L 651.53 333.63 L 651.53 333.63 L 651.53 333.63 L 651.53 333.91 L 651.53 333.91 L 651.53 333.91 L 651.53 333.91 L 651.53 333.91 L 651.53 333.91 L 651.53 333.91 L 651.53 333.91 L 651.53 333.91 L 651.53 334.23 L 651.53 334.23 L 651.53 334.23 L 651.53 334.23 L 651.53 334.23 L 651.53 334.23 L 651.53 334.50 L 651.53 334.50 L 651.53 334.23 L 651.53 341.07 L 651.53 341.34 L 652.30 341.34 L 652.68 341.61 L 758.77 341.61 L 758.77 341.89 L 758.77 341.89 L 758.77 341.89 L 758.77 341.89 L 758.77 342.21 L 758.77 342.21 L 758.77 342.21 L 758.77 342.21 L 758.77 342.21 L 758.77 342.48 L 758.77 342.48 L 758.77 342.48 L 758.77 342.75 L 758.77 342.75 L 758.77 342.75 L 758.77 343.03 L 758.77 343.03 L 758.77 343.03 L 758.77 343.03 L 758.77 343.35 L 758.77 343.35 L 758.77 343.35 L 758.77 343.35 L 758.77 343.35 L 758.77 343.62 L 758.77 343.62 L 758.77 343.89 L 758.77 343.62 L 758.77 343.89 L 758.77 343.89 L 758.77 344.17 L 758.77 344.17 L 758.77 344.49 L 758.77 344.49 L 758.77 344.76 L 758.77 344.49 L 758.77 344.76 L 758.77 344.76 L 758.77 345.03 L 758.77 345.03 L 758.77 345.03 L 758.77 345.31 L 758.77 345.31 L 758.77 345.63 L 758.77 345.63 L 758.77 345.63 L 758.77 345.90 L 758.77 345.90 L 759.15 345.90 L 759.15 346.17 L 759.15 346.17 L 759.15 346.17 L 759.15 346.45 L 759.15 346.45 L 759.15 346.45 L 759.15 346.77 L 759.15 346.77 L 759.15 346.77 L 759.15 347.04 L 759.15 347.04 L 759.15 347.04 L 759.15 347.31 L 759.15 347.31 L 759.15 347.31 L 759.15 347.59 L 759.15 347.59 L 759.15 347.59 L 759.15 347.91 L 759.15 347.91 L 759.15 347.91 L 759.15 348.18 L 759.15 347.91 L 759.15 348.18 L 759.15 348.45 L 759.15 348.45 L 759.15 348.45 L 759.15 348.45 L 759.15 348.73 L 759.15 348.73 L 759.15 349.05 L 759.15 349.05 L 759.15 349.05 L 759.15 349.32 L 759.15 349.32 L 759.15 349.32 L 759.15 349.32 L 759.15 349.59 L 759.15 358.71 L 759.15 358.71 L 759.15 358.71 L 759.53 358.44 L 759.91 358.44 L 760.68 358.44 L 761.06 358.44 L 761.83 358.44 L 762.21 358.44 L 762.98 358.44 L 763.36 358.17 L 764.13 358.17 L 764.51 358.17 L 765.28 358.17 L 765.66 358.17 L 766.43 357.85 L 766.81 357.85 L 767.57 357.85 L 767.96 357.85 L 768.72 357.85 L 769.11 357.57 L 769.87 357.57 L 770.26 357.57 L 771.02 357.30 L 771.40 357.30 L 772.17 357.03 L 772.55 357.03 L 773.32 357.03 L 774.09 356.71 L 774.47 356.43 L 775.23 356.43 L 775.62 356.43 L 776.38 356.43 L 776.77 355.89 L 777.53 355.89 L 777.91 355.89 L 778.68 355.57 L 779.06 355.57 L 779.83 355.29 L 780.21 355.29 L 780.98 355.02 L 781.36 355.02 L 782.13 354.75 L 782.51 354.43 L 783.28 354.15 L 783.66 354.15 L 784.43 353.88 L 784.81 353.61 L 785.57 353.61 L 785.96 353.29 L 786.72 353.29 L 787.11 353.01 L 787.87 353.01 L 788.26 352.74 L 789.02 352.47 L 789.40 352.47 L 790.17 352.15 L 790.55 351.87 L 791.32 351.60 L 791.70 351.60 L 792.47 351.33 L 792.85 351.33 L 793.62 351.01 L 794.00 350.73 L 794.77 350.46 L 795.15 350.46 L 795.91 350.19 L 796.30 349.87 L 797.06 349.87 L 797.83 349.59 L 798.21 349.59 L 798.98 349.32 L 799.36 349.05 L 800.13 349.05 L 800.51 348.45 L 801.28 348.45 L 801.66 348.18 L 802.43 348.18 L 802.81 347.91 L 803.57 347.59 L 803.96 347.31 L 804.72 347.04 L 805.11 347.04 L 805.87 347.04 L 806.26 346.77 L 807.02 346.45 L 807.40 346.17 L 808.17 346.17 L 808.55 345.90 L 809.32 345.63 L 809.70 345.31 L 810.47 345.31 L 810.85 345.03 L 811.62 344.76 L 812.00 344.49 L 812.77 344.17 L 813.15 344.17 L 813.91 343.89 L 814.30 343.62 L 815.06 343.62 L 815.45 343.35 L 816.21 343.03 L 816.60 342.75 L 817.36 342.48 L 817.74 342.48 L 818.51 342.21 L 819.28 342.21 L 819.66 341.89 L 820.43 341.61 L 820.81 341.34 L 821.57 341.34 L 821.96 340.75 L 822.72 340.75 L 823.11 340.47 L 823.87 340.47 L 824.26 339.93 L 825.02 339.93 L 825.40 339.61 L 826.17 339.33 L 826.55 339.33 L 827.32 339.06 L 827.70 339.06 L 828.47 338.79 L 828.85 338.47 L 829.62 338.19 L 830.00 338.19 L 830.77 337.92 L 831.15 337.65 L 831.91 337.33 L 832.30 337.05 L 833.06 337.05 L 833.45 336.78 L 834.21 336.78 L 834.60 336.51 L 835.36 336.51 L 835.74 336.19 L 836.51 335.91 L 836.89 335.64 L 837.66 335.64 L 838.04 335.64 L 838.81 335.37 L 839.19 335.05 L 839.96 334.77 L 840.72 334.77 L 841.11 334.50 L 841.87 334.50 L 842.26 334.23 L 843.02 333.91 L 843.40 333.91 L 844.17 333.63 L 844.55 333.36 L 845.32 333.36 L 845.70 333.36 L 846.47 333.09 L 846.85 333.09 L 847.62 332.77 L 848.00 332.77 L 848.77 332.49 L 849.15 332.49 L 849.91 332.22 L 850.30 331.95 L 851.06 331.95 L 851.45 331.63 L 852.21 331.63 L 852.60 331.08 L 853.36 331.08 L 853.74 331.08 L 854.51 330.49 L 854.89 330.49 L 855.66 330.49 L 856.04 330.21 L 856.81 329.94 L 857.19 329.67 L 857.96 329.35 L 858.34 329.35 L 859.11 329.07 L 859.49 328.80 L 860.26 328.80 L 861.02 328.53 L 861.40 328.53 L 862.17 328.21 L 862.55 327.93 L 863.32 327.66 L 863.70 327.66 L 864.47 327.39 L 864.85 327.07 L 865.62 326.79 L 866.00 326.52 L 866.77 326.52 L 867.15 326.52 L 867.91 326.25 L 868.30 325.93 L 869.06 325.93 L 869.45 325.65 L 870.21 325.38 L 870.60 325.38 L 871.36 325.11 L 871.74 325.11 L 872.51 324.79 L 872.89 324.51 L 873.66 324.24 L 874.04 324.24 L 874.81 323.97 L 875.19 323.65 L 875.96 323.65 L 876.34 323.37 L 877.11 323.10 L 877.49 323.10 L 878.26 322.83 L 878.64 322.83 L 879.40 322.51 L 879.79 322.23 L 880.55 322.23 L 881.32 321.96 L 881.70 321.69 L 882.47 321.69 L 882.85 321.37 L 883.62 321.37 L 884.00 321.09 L 884.77 321.09 L 885.15 320.82 L 885.91 320.82 L 886.30 320.55 L 887.06 320.23 L 887.45 320.23 L 888.21 319.95 L 888.60 319.95 L 889.36 319.68 L 889.74 319.41 L 890.51 319.41 L 890.89 319.09 L 891.66 319.09 L 892.04 318.81 L 892.81 318.54 L 893.19 318.54 L 893.96 318.27 L 894.34 317.95 L 895.11 317.67 L 895.49 317.67 L 896.26 317.67 L 896.64 317.40 L 897.40 317.13 L 897.79 317.13 L 898.55 316.81 L 898.94 316.81 L 899.70 316.53 L 900.09 316.53 L 900.85 316.26 L 901.62 315.99 L 902.00 315.99 L 902.77 315.67 L 903.15 315.67 L 903.91 315.67 L 904.30 315.39 L 905.06 315.39 L 905.45 315.12 L 906.21 315.12 L 906.60 315.12 L 907.36 314.85 L 907.74 314.85 L 908.51 314.53 L 908.89 314.85 L 909.66 314.53 L 910.04 314.25 L 910.81 314.25 L 911.19 313.98 L 911.96 313.98 L 912.34 313.98 L 913.11 313.98 L 913.49 313.71 L 914.26 313.71 L 914.64 313.71 L 915.40 313.39 L 915.79 313.39 L 916.55 313.39 L 916.94 313.11 L 917.70 313.11 L 918.09 313.11 L 918.85 312.84 L 919.23 312.84 L 920.00 312.84 L 920.77 312.57 L 921.15 312.57 L 921.91 312.57 L 922.30 312.57 L 923.06 312.57 L 923.45 312.57 L 924.21 312.25 L 924.60 312.57 L 925.36 312.84 L 925.74 312.84 L 926.51 312.57 L 926.89 312.57 L 927.66 312.57 L 928.04 312.57 L 928.81 312.57 L 929.19 312.57 L 929.96 312.57 L 930.34 312.57 L 931.11 312.57 L 931.49 312.25 L 932.26 312.25 L 932.64 312.25 L 933.40 312.25 L 933.79 312.25 L 934.55 311.97 L 934.94 311.97 L 935.70 311.97 L 936.09 311.97 L 936.85 311.97 L 937.23 311.97 L 938.00 311.97 L 938.38 311.97 L 939.15 311.70 L 939.53 311.70 L 940.30 311.70 L 941.06 311.70 L 941.45 311.70 L 942.21 311.70 L 942.60 311.70 L 943.36 311.70 L 943.74 311.70 L 944.51 311.70 L 944.89 311.70 L 945.66 311.70 L 946.04 311.70 L 946.81 311.70 L 947.19 311.70 L 947.96 311.70 L 948.34 311.70 L 949.11 311.70 L 949.49 311.70 L 950.26 311.70 L 950.64 311.70 L 951.40 311.70 L 951.79 311.70 L 952.55 311.70 L 952.94 311.70 L 953.70 311.97 L 954.09 311.70 L 954.85 311.70 L 955.23 311.70 L 956.00 311.97 L 956.38 311.70 L 957.15 311.97 L 957.53 311.97 L 958.30 311.97 L 958.68 311.97 L 959.45 312.25 L 960.21 311.97 L 960.60 312.25 L 961.36 311.97 L 961.74 311.97 L 962.51 312.25 L 962.89 312.25 L 963.66 312.25 L 964.04 312.25 L 964.81 312.25 L 965.19 312.25 L 965.96 312.25 L 966.34 312.25 L 967.11 312.57 L 967.49 312.57 L 968.26 312.57 L 968.64 312.57 L 969.40 312.57 L 969.79 312.57 L 970.55 312.57 L 970.94 312.84 L 971.70 312.84 L 972.09 312.57 L 972.85 312.84 L 973.23 312.84 L 974.00 312.84 L 974.38 313.11 L 975.15 313.11 L 975.53 313.11 L 976.30 313.11 L 976.68 313.11 L 977.45 313.11 L 977.83 313.39 L 978.60 313.11 L 979.36 313.39 L 979.74 313.39 L 980.51 313.39 L 980.89 313.71 L 981.66 313.71 L 982.04 313.71 L 982.81 313.71 L 983.19 313.71 L 983.96 313.98 L 984.34 313.98 L 985.11 313.98 L 985.49 314.25 L 986.26 314.25 L 986.64 314.25 L 987.40 314.53 L 987.79 314.25 L 988.55 314.53 L 988.94 314.53 L 989.70 314.85 L 990.09 314.53 L 990.85 314.85 L 991.23 314.85 L 992.00 314.85 L 992.38 315.12 L 993.15 315.12 L 993.53 315.12 L 994.30 315.39 L 994.68 315.39 L 995.45 315.39 L 995.83 315.67 L 996.60 315.67 L 996.98 315.67 L 997.74 315.67 L 998.13 315.99 L 998.89 315.99 L 999.66 316.26 L 1000.04 316.26 L 1000.81 316.26 L 1001.19 316.26 L 1001.96 316.53 L 1002.34 316.53 L 1003.11 316.53 L 1003.49 316.53 L 1004.26 316.53 L 1004.64 316.81 L 1005.40 317.13 L 1005.79 317.13 L 1006.55 317.40 L 1006.94 317.40 L 1007.70 317.40 L 1008.09 317.67 L 1008.85 317.67 L 1009.23 317.95 L 1010.00 317.95 L 1010.38 318.27 L 1011.15 318.54 L 1011.53 318.54 L 1012.30 318.54 L 1012.68 318.81 L 1013.45 318.81 L 1013.83 318.81 L 1014.60 318.81 L 1014.98 318.81 L 1015.74 318.81 L 1016.13 319.09 L 1016.89 319.09 L 1017.28 319.09 L 1018.04 319.41 L 1018.81 319.41 L 1019.19 319.41 L 1019.96 319.68 L 1020.34 319.41 L 1021.11 319.68 L 1021.49 319.41 L 1022.26 319.68 L 1022.64 319.41 L 1023.40 319.41 L 1023.79 319.41 L 1024.55 319.41 L 1024.94 319.41 L 1025.70 319.41 L 1026.09 319.68 L 1026.85 319.41 L 1027.23 319.68 L 1028.00 319.68 L 1028.38 319.68 L 1029.15 319.68 L 1029.53 319.68 L 1030.30 319.68 L 1030.68 319.68 L 1031.45 319.68 L 1031.83 319.68 L 1032.60 319.68 L 1032.98 319.68 L 1033.74 319.95 L 1034.13 319.95 L 1034.89 319.95 L 1035.28 320.23 L 1036.04 320.23 L 1036.43 320.55 L 1037.19 320.82 L 1037.57 321.09 L 1038.34 321.09 L 1039.11 321.37 L 1039.49 321.69 L 1040.26 321.69 L 1040.64 321.69 L 1041.40 321.69 L 1041.79 321.37 L 1042.55 321.37 L 1042.94 321.37 L 1043.70 321.37 L 1044.09 321.69 L 1044.85 321.69 L 1045.23 321.96 L 1046.00 321.96 L 1046.38 321.96 L 1047.15 321.96 L 1047.53 322.23 L 1048.30 322.23 L 1048.68 322.23 L 1049.45 322.23 L 1049.83 322.23 L 1050.60 322.23 L 1050.98 322.23 L 1051.74 322.23 L 1052.13 322.23 L 1052.89 322.23 L 1053.28 322.23 L 1054.04 322.51 L 1054.43 322.23 L 1055.19 322.51 L 1055.57 322.51 L 1056.34 322.51 L 1056.72 322.51 L 1057.49 322.51 L 1057.87 322.83 L 1058.64 322.83 L 1059.40 322.83 L 1059.79 323.10 L 1060.55 323.10 L 1060.94 323.10 L 1061.70 323.10 L 1062.09 323.10 L 1062.85 323.10 L 1063.23 323.10 L 1064.00 323.10 L 1064.38 323.10 L 1065.15 323.10 L 1065.53 323.10 L 1066.30 323.37 L 1066.68 323.10 L 1067.45 323.37 L 1067.83 323.37 L 1068.60 323.37 L 1068.98 323.37 L 1069.74 323.37 L 1070.13 323.65 L 1070.89 323.65 L 1071.28 323.65 L 1072.04 323.65 L 1072.43 323.97 L 1073.19 323.65 L 1073.57 323.97 L 1074.34 323.97 L 1074.72 323.97 L 1075.49 323.65 L 1075.87 323.97 L 1076.64 323.97 L 1077.02 323.97 L 1077.79 323.97 L 1078.17 323.97 L 1078.94 323.97 L 1079.70 323.97 L 1080.09 323.97 L 1080.85 323.97 L 1081.23 323.97 L 1082.00 323.97" fill="none" stroke="#ef4444" stroke-width="2.7"/>
<text x="560.0" y="602" text-anchor="middle" font-family="Arial, sans-serif" font-size="13" fill="#475569">Wall Clock Time</text>
<text transform="translate(25 306.0) rotate(-90)" text-anchor="middle" font-family="Arial, sans-serif" font-size="13" fill="#475569">Temperature (C)</text>
<rect x="727" y="96" width="335" height="54" rx="8" fill="#ffffff" stroke="#cbd5e1"/>
<line x1="745" y1="121" x2="785" y2="121" stroke="#ef4444" stroke-width="2.8"/>
<text x="797" y="126" font-family="Arial, sans-serif" font-size="13" fill="#1e293b">Measured Temperature</text>
</svg>