<svg xmlns="http://www.w3.org/2000/svg" width="1120" height="620" viewBox="0 0 1120 620">
<rect width="100%" height="100%" fill="#f8fafc"/>
<rect x="92" y="78" width="990" height="456" fill="#ffffff" stroke="#cbd5e1"/>
<text x="560.0" y="34" text-anchor="middle" font-family="Arial, sans-serif" font-size="21" font-weight="700" fill="#1e293b">Panel Temperature - 13 deg Tilt - Afternoon Session</text>
<text x="560.0" y="58" text-anchor="middle" font-family="Arial, sans-serif" font-size="12" fill="#475569">1368 readings from 15:26:22 to 16:00:55</text>
<line x1="92" y1="534.00" x2="1082" y2="534.00" stroke="#cbd5e1" stroke-dasharray="5 5" opacity="0.75"/>
<text x="80" y="538.00" text-anchor="end" font-family="Arial, sans-serif" font-size="12" fill="#475569">0.000</text>
<line x1="92" y1="442.80" x2="1082" y2="442.80" stroke="#cbd5e1" stroke-dasharray="5 5" opacity="0.75"/>
<text x="80" y="446.80" text-anchor="end" font-family="Arial, sans-serif" font-size="12" fill="#475569">20.000</text>
<line x1="92" y1="351.60" x2="1082" y2="351.60" stroke="#cbd5e1" stroke-dasharray="5 5" opacity="0.75"/>
<text x="80" y="355.60" text-anchor="end" font-family="Arial, sans-serif" font-size="12" fill="#475569">40.000</text>
<line x1="92" y1="260.40" x2="1082" y2="260.40" stroke="#cbd5e1" stroke-dasharray="5 5" opacity="0.75"/>
<text x="80" y="264.40" text-anchor="end" font-family="Arial, sans-serif" font-size="12" fill="#475569">60.000</text>
<line x1="92" y1="169.20" x2="1082" y2="169.20" stroke="#cbd5e1" stroke-dasharray="5 5" opacity="0.75"/>
<text x="80" y="173.20" text-anchor="end" font-family="Arial, sans-serif" font-size="12" fill="#475569">80.000</text>
<line x1="92" y1="78.00" x2="1082" y2="78.00" stroke="#cbd5e1" stroke-dasharray="5 5" opacity="0.75"/>
<text x="80" y="82.00" text-anchor="end" font-family="Arial, sans-serif" font-size="12" fill="#475569">100.000</text>
<line x1="92.00" y1="78" x2="92.00" y2="534" stroke="#e2e8f0" stroke-dasharray="4 6"/>
<text x="92.00" y="568" text-anchor="middle" font-family="Arial, sans-serif" font-size="12" fill="#475569">15:26:22</text>
<line x1="257.00" y1="78" x2="257.00" y2="534" stroke="#e2e8f0" stroke-dasharray="4 6"/>
<text x="257.00" y="568" text-anchor="middle" font-family="Arial, sans-serif" font-size="12" fill="#475569">15:32:07</text>
<line x1="422.00" y1="78" x2="422.00" y2="534" stroke="#e2e8f0" stroke-dasharray="4 6"/>
<text x="422.00" y="568" text-anchor="middle" font-family="Arial, sans-serif" font-size="12" fill="#475569">15:37:53</text>
<line x1="587.00" y1="78" x2="587.00" y2="534" stroke="#e2e8f0" stroke-dasharray="4 6"/>
<text x="587.00" y="568" text-anchor="middle" font-family="Arial, sans-serif" font-size="12" fill="#475569">15:43:38</text>
<line x1="752.00" y1="78" x2="752.00" y2="534" stroke="#e2e8f0" stroke-dasharray="4 6"/>
<text x="752.00" y="568" text-anchor="middle" font-family="Arial, sans-serif" font-size="12" fill="#475569">15:49:24</text>
<line x1="917.00" y1="78" x2="917.00" y2="534" stroke="#e2e8f0" stroke-dasharray="4 6"/>
<text x="917.00" y="568" text-anchor="middle" font-family="Arial, sans-serif" font-size="12" fill="#475569">15:55:09</text>
<line x1="1082.00" y1="78" x2="1082.00" y2="534" stroke="#e2e8f0" stroke-dasharray="4 6"/>
<text x="1082.00" y="568" text-anchor="middle" font-family="Arial, sans-serif" font-size="12" fill="#475569">16:00:55</text>
<path d="M 92.00 391.77 L 92.96 391.50 L 93.43 391.50 L 94.39 391.23 L 94.87 390.95 L 95.82 390.63 L 96.30 390.63 L 97.25 390.36 L 98.21 390.63 L 98.69 390.36 L 99.64 390.09 L 100.12 390.09 L 101.07 389.81 L 101.55 389.49 L 102.51 389.49 L 102.98 389.49 L 103.94 389.22 L 104.42 389.49 L 105.37 389.22 L 105.85 389.22 L 106.80 388.95 L 107.28 388.67 L 108.24 388.67 L 108.71 388.67 L 109.67 388.35 L 110.15 388.35 L 111.10 388.08 L 111.58 388.08 L 112.54 387.81 L 113.01 387.81 L 113.97 387.81 L 114.45 387.81 L 115.40 387.49 L 115.88 387.49 L 116.83 387.49 L 117.31 387.49 L 118.27 387.21 L 118.74 387.21 L 119.70 387.21 L 120.18 386.94 L 121.13 386.67 L 121.61 386.67 L 122.56 386.67 L 123.04 386.35 L 124.00 386.35 L 124.47 386.07 L 125.43 386.07 L 125.91 385.80 L 126.86 385.80 L 127.34 385.53 L 128.30 385.21 L 128.77 384.93 L 129.73 385.21 L 130.68 384.66 L 131.16 384.66 L 132.12 384.66 L 132.59 384.39 L 133.55 384.07 L 134.03 384.07 L 134.98 383.79 L 135.46 383.52 L 136.41 383.52 L 136.89 383.25 L 137.85 382.93 L 138.32 382.93 L 139.28 382.65 L 139.76 382.65 L 140.71 382.38 L 141.19 381.79 L 142.14 381.79 L 142.62 381.51 L 143.58 381.24 L 144.05 380.97 L 145.01 380.65 L 145.49 380.37 L 146.44 380.10 L 146.92 379.83 L 147.88 379.51 L 148.35 379.23 L 149.31 378.96 L 149.79 378.69 L 150.74 378.69 L 151.22 378.37 L 152.17 378.09 L 152.65 377.82 L 153.61 377.55 L 154.08 376.95 L 155.04 376.95 L 155.52 376.68 L 156.47 376.09 L 156.95 375.81 L 157.90 375.54 L 158.38 375.27 L 159.34 374.95 L 159.81 374.40 L 160.77 374.40 L 161.25 374.13 L 162.20 373.81 L 163.16 373.81 L 163.64 373.26 L 164.59 372.99 L 165.07 372.99 L 166.02 372.67 L 166.50 372.39 L 167.46 372.12 L 167.93 371.85 L 168.89 371.53 L 169.37 371.25 L 170.32 370.98 L 170.80 370.71 L 171.75 370.39 L 172.23 370.11 L 173.19 369.57 L 173.66 369.25 L 174.62 369.25 L 175.10 368.97 L 176.05 368.43 L 176.53 368.11 L 177.48 367.83 L 177.96 367.56 L 178.92 367.29 L 179.40 366.97 L 180.35 366.69 L 180.83 366.69 L 181.78 366.42 L 182.26 365.83 L 183.22 365.55 L 183.69 365.28 L 184.65 365.01 L 185.13 364.69 L 186.08 364.41 L 186.56 364.14 L 187.51 364.14 L 187.99 363.87 L 188.95 363.55 L 189.42 363.27 L 190.38 363.00 L 190.86 363.00 L 191.81 362.41 L 192.77 362.41 L 193.24 362.13 L 194.20 361.86 L 194.68 361.59 L 195.63 361.59 L 196.11 361.27 L 197.07 360.99 L 197.54 360.72 L 198.50 360.45 L 198.98 360.13 L 199.93 359.85 L 200.41 359.58 L 201.36 359.31 L 201.84 358.99 L 202.80 358.71 L 203.27 358.44 L 204.23 358.17 L 204.71 357.85 L 205.66 357.57 L 206.14 357.30 L 207.09 357.30 L 207.57 357.03 L 208.53 356.43 L 209.00 356.16 L 209.96 355.89 L 210.44 355.57 L 211.39 355.29 L 211.87 355.29 L 212.82 354.75 L 213.30 354.43 L 214.26 354.43 L 214.74 354.15 L 215.69 353.88 L 216.17 353.61 L 217.12 353.29 L 217.60 352.74 L 218.56 352.47 L 219.03 352.15 L 219.99 352.15 L 220.47 351.87 L 221.42 351.60 L 222.38 351.33 L 222.85 351.01 L 223.81 350.73 L 224.29 350.46 L 225.24 350.19 L 225.72 349.87 L 226.67 349.59 L 227.15 349.32 L 228.11 349.05 L 228.58 348.73 L 229.54 348.45 L 230.02 347.91 L 230.97 347.91 L 231.45 347.59 L 232.41 347.31 L 232.88 347.04 L 233.84 346.77 L 234.32 346.45 L 235.27 346.17 L 235.75 345.90 L 236.70 345.63 L 237.18 345.31 L 238.14 345.03 L 238.61 344.76 L 239.57 344.49 L 240.05 344.17 L 241.00 343.89 L 241.48 343.62 L 242.43 343.35 L 242.91 343.03 L 243.87 342.75 L 244.34 342.48 L 245.30 342.21 L 245.78 341.89 L 246.73 341.61 L 247.21 341.34 L 248.16 341.07 L 249.12 340.75 L 249.60 340.47 L 250.55 340.20 L 251.03 339.93 L 251.99 339.61 L 252.46 339.61 L 253.42 339.33 L 253.90 338.79 L 254.85 338.47 L 255.33 338.19 L 256.28 337.92 L 256.76 337.65 L 257.72 337.33 L 258.19 337.05 L 259.15 336.78 L 259.63 336.51 L 260.58 336.19 L 261.06 335.91 L 262.01 335.91 L 262.49 335.37 L 263.45 335.05 L 263.92 334.77 L 264.88 334.50 L 265.36 334.23 L 266.31 333.91 L 266.79 333.91 L 267.75 333.36 L 268.22 333.36 L 269.18 333.09 L 269.66 332.49 L 270.61 332.22 L 271.09 331.95 L 272.04 331.63 L 272.52 331.35 L 273.48 331.08 L 273.95 330.81 L 274.91 330.81 L 275.86 330.21 L 276.34 330.21 L 277.30 329.67 L 277.77 329.35 L 278.73 329.07 L 279.21 329.07 L 280.16 328.80 L 280.64 328.53 L 281.59 328.21 L 282.07 327.93 L 283.03 327.66 L 283.51 327.66 L 284.46 327.07 L 284.94 326.79 L 285.89 326.52 L 286.37 326.52 L 287.33 326.25 L 287.80 325.93 L 288.76 325.65 L 289.24 325.38 L 290.19 325.11 L 290.67 324.79 L 291.62 324.79 L 292.10 324.24 L 293.06 323.97 L 293.53 323.65 L 294.49 323.65 L 294.97 323.37 L 295.92 323.10 L 296.40 322.83 L 297.35 322.51 L 297.83 322.23 L 298.79 322.23 L 299.26 321.96 L 300.22 321.69 L 301.18 321.37 L 301.65 321.09 L 302.61 321.09 L 303.09 320.55 L 304.04 320.55 L 304.52 320.23 L 305.47 319.95 L 305.95 319.95 L 306.91 319.68 L 307.38 319.41 L 308.34 319.09 L 308.82 318.81 L 309.77 318.54 L 310.25 318.54 L 311.20 318.27 L 311.68 317.95 L 312.64 317.67 L 313.11 317.67 L 314.07 317.40 L 314.55 317.13 L 315.50 316.81 L 315.98 316.53 L 316.93 316.26 L 317.41 315.99 L 318.37 315.99 L 318.85 315.67 L 319.80 315.67 L 320.28 315.39 L 321.23 315.12 L 321.71 315.12 L 322.67 314.53 L 323.14 314.53 L 324.10 314.25 L 325.05 313.98 L 325.53 313.98 L 326.49 313.71 L 326.96 313.39 L 327.92 313.11 L 328.40 313.11 L 329.35 312.84 L 329.83 312.57 L 330.78 312.57 L 331.26 312.25 L 332.22 311.97 L 332.69 311.70 L 333.65 311.70 L 334.13 311.43 L 335.08 311.11 L 335.56 311.11 L 336.52 310.83 L 336.99 310.56 L 337.95 310.56 L 338.43 310.29 L 339.38 309.97 L 339.86 309.69 L 340.81 309.42 L 341.29 309.42 L 342.25 309.15 L 342.72 309.15 L 343.68 308.83 L 344.16 308.55 L 345.11 308.55 L 345.59 308.28 L 346.54 308.01 L 347.02 308.01 L 347.98 307.69 L 348.93 307.41 L 349.41 307.14 L 350.36 307.14 L 350.84 306.87 L 351.80 306.87 L 352.27 306.55 L 353.23 306.55 L 353.71 306.27 L 354.66 306.00 L 355.14 306.00 L 356.10 305.73 L 356.57 305.41 L 357.53 305.13 L 358.01 305.13 L 358.96 305.13 L 359.44 304.86 L 360.39 304.86 L 360.87 304.86 L 361.83 304.59 L 362.30 304.59 L 363.26 304.27 L 363.74 304.27 L 364.69 303.99 L 365.17 303.72 L 366.12 303.45 L 366.60 303.45 L 367.56 303.13 L 368.03 303.13 L 368.99 302.85 L 369.47 302.58 L 370.42 302.58 L 371.38 302.31 L 371.86 302.31 L 372.81 301.99 L 373.29 301.71 L 374.24 301.71 L 374.72 301.71 L 375.68 301.44 L 376.15 301.17 L 377.11 301.17 L 377.59 300.85 L 378.54 300.57 L 379.02 300.57 L 379.97 300.30 L 380.45 300.30 L 381.41 300.03 L 381.88 299.71 L 382.84 299.71 L 383.32 299.43 L 384.27 299.43 L 384.75 299.16 L 385.70 298.89 L 386.18 298.89 L 387.14 298.89 L 387.62 298.57 L 388.57 298.29 L 389.05 298.29 L 390.00 298.02 L 390.48 297.75 L 391.44 297.75 L 391.91 297.43 L 392.87 297.43 L 393.82 297.15 L 394.30 297.15 L 395.26 296.88 L 395.73 296.61 L 396.69 296.61 L 397.17 296.61 L 398.12 296.29 L 398.60 296.01 L 399.55 296.01 L 400.03 295.74 L 400.99 295.74 L 401.46 295.47 L 402.42 295.47 L 402.90 295.15 L 403.85 295.15 L 404.33 294.87 L 405.29 294.87 L 405.76 294.60 L 406.72 294.60 L 407.20 294.33 L 451.61 294.01 L 451.61 294.01 L 451.61 294.01 L 451.61 293.73 L 451.61 293.73 L 451.61 293.46 L 451.61 293.19 L 451.61 293.19 L 451.61 292.87 L 451.61 292.87 L 451.61 292.87 L 451.61 292.59 L 451.61 292.59 L 451.61 292.32 L 451.61 292.32 L 451.61 292.05 L 451.61 292.05 L 451.61 291.73 L 451.61 291.73 L 451.61 291.45 L 451.61 291.18 L 451.61 291.18 L 451.61 290.91 L 451.61 290.91 L 451.61 290.59 L 451.61 290.59 L 451.61 290.31 L 451.61 290.31 L 452.09 290.31 L 452.09 290.04 L 452.09 290.04 L 452.09 289.77 L 452.09 289.45 L 452.09 289.45 L 452.09 289.17 L 452.09 288.90 L 452.09 288.90 L 452.09 288.90 L 452.09 288.90 L 452.09 288.63 L 452.09 288.63 L 452.09 288.31 L 452.09 288.31 L 452.09 288.03 L 452.09 288.03 L 452.09 288.03 L 452.09 287.76 L 452.09 287.76 L 452.09 287.76 L 452.09 287.76 L 452.09 287.49 L 452.09 287.49 L 452.09 287.17 L 452.09 287.17 L 452.09 286.89 L 452.09 286.89 L 452.09 286.89 L 452.09 286.62 L 452.09 286.62 L 452.09 286.35 L 452.09 286.35 L 452.09 286.03 L 453.04 286.03 L 453.52 286.03 L 456.38 285.75 L 456.38 286.03 L 456.38 285.75 L 456.38 285.75 L 457.34 285.48 L 457.82 285.48 L 458.77 285.21 L 459.73 285.21 L 460.21 285.21 L 461.16 284.89 L 461.64 284.61 L 462.59 284.89 L 463.07 284.61 L 464.03 284.61 L 464.50 284.34 L 465.46 284.34 L 465.94 284.07 L 466.89 284.07 L 467.37 283.75 L 468.32 283.75 L 468.80 283.47 L 469.76 283.47 L 470.23 283.47 L 471.19 283.20 L 471.67 283.20 L 472.62 283.20 L 473.10 282.93 L 474.05 282.61 L 474.53 282.93 L 475.49 282.61 L 475.97 282.33 L 476.92 282.33 L 477.40 282.06 L 478.35 282.06 L 478.83 282.06 L 479.79 281.79 L 480.74 281.47 L 481.22 281.79 L 482.17 281.47 L 482.65 281.19 L 483.61 281.19 L 484.08 281.19 L 485.04 280.92 L 485.52 280.92 L 486.47 280.65 L 486.95 280.65 L 487.90 280.65 L 488.38 280.33 L 489.34 280.33 L 489.81 280.33 L 490.77 280.05 L 491.25 279.78 L 492.20 279.78 L 492.68 279.78 L 493.64 279.78 L 494.11 279.51 L 495.07 279.51 L 495.55 279.19 L 496.50 279.19 L 496.98 279.19 L 497.93 278.91 L 498.41 278.91 L 499.37 278.64 L 500.32 278.64 L 500.80 278.64 L 501.75 278.64 L 502.23 278.37 L 503.19 278.37 L 503.66 278.37 L 504.62 278.05 L 505.10 278.05 L 506.05 277.77 L 506.53 277.77 L 507.48 277.77 L 507.96 277.50 L 508.92 277.50 L 509.40 277.50 L 510.35 277.23 L 510.83 277.23 L 511.78 277.23 L 512.26 277.23 L 513.22 276.91 L 513.69 276.91 L 514.65 276.91 L 515.13 276.63 L 516.08 276.63 L 516.56 276.63 L 517.51 276.63 L 517.99 276.36 L 518.95 276.36 L 519.42 276.36 L 520.38 276.09 L 521.33 276.09 L 521.81 276.09 L 522.77 275.77 L 523.24 275.77 L 524.20 275.77 L 524.68 275.77 L 525.63 275.49 L 526.11 275.49 L 527.07 275.22 L 527.54 275.49 L 528.50 275.22 L 528.98 275.22 L 529.93 275.22 L 530.41 274.95 L 531.36 274.95 L 531.84 274.95 L 532.80 274.63 L 533.27 274.63 L 534.23 274.63 L 534.71 274.63 L 535.66 274.63 L 536.14 274.35 L 537.09 274.35 L 537.57 274.35 L 538.53 274.35 L 539.00 274.35 L 539.96 274.08 L 540.91 274.08 L 541.39 273.81 L 542.35 273.81 L 542.82 273.81 L 543.78 273.81 L 544.26 273.49 L 545.21 273.49 L 545.69 273.49 L 546.65 273.49 L 547.12 273.49 L 548.08 273.49 L 548.56 273.21 L 549.51 273.21 L 549.99 273.21 L 550.94 273.21 L 551.42 273.21 L 552.38 272.94 L 552.85 272.94 L 553.81 272.94 L 554.29 272.94 L 555.24 272.94 L 555.72 272.94 L 556.67 272.94 L 557.15 272.67 L 558.11 272.67 L 558.58 272.94 L 559.54 272.67 L 560.02 272.67 L 560.97 272.94 L 561.93 272.94 L 562.41 272.94 L 563.36 272.94 L 563.84 272.94 L 564.79 272.94 L 565.27 272.94 L 566.23 272.94 L 566.70 272.94 L 567.66 272.94 L 568.14 272.94 L 569.09 273.21 L 569.57 273.21 L 570.52 273.21 L 571.00 273.21 L 571.96 273.49 L 572.43 273.81 L 573.39 273.81 L 573.87 273.81 L 574.82 273.81 L 575.30 273.81 L 576.25 273.81 L 576.73 274.08 L 577.69 274.08 L 578.16 274.35 L 579.12 274.35 L 579.60 274.63 L 580.55 274.63 L 581.51 274.63 L 581.99 274.95 L 582.94 274.95 L 583.42 275.22 L 584.37 274.95 L 584.85 275.22 L 585.81 275.22 L 586.28 275.22 L 587.24 275.49 L 587.72 275.49 L 588.67 275.22 L 589.15 275.49 L 590.10 275.49 L 590.58 275.49 L 591.54 275.77 L 592.01 275.77 L 592.97 275.77 L 593.45 275.77 L 594.40 276.09 L 594.88 276.09 L 595.84 276.09 L 596.31 276.09 L 597.27 276.36 L 597.75 276.36 L 598.70 276.36 L 599.18 276.36 L 600.13 276.63 L 600.61 276.63 L 601.57 276.63 L 602.52 276.91 L 603.00 276.91 L 603.95 277.23 L 604.43 277.23 L 605.39 277.23 L 605.86 277.50 L 606.82 277.50 L 607.30 277.50 L 608.25 277.77 L 608.73 278.05 L 609.68 278.05 L 610.16 278.37 L 611.12 278.37 L 611.59 278.64 L 612.55 278.64 L 613.03 278.91 L 613.98 278.91 L 614.46 279.19 L 615.42 279.19 L 615.89 279.19 L 616.85 279.51 L 617.33 279.78 L 618.28 280.05 L 618.76 280.05 L 619.71 280.33 L 620.19 280.33 L 621.15 280.65 L 621.62 280.65 L 622.58 280.92 L 623.53 280.92 L 624.01 281.19 L 624.97 281.47 L 625.44 281.79 L 626.40 281.79 L 626.88 282.06 L 627.83 282.33 L 628.31 282.61 L 629.26 282.61 L 629.74 282.93 L 630.70 283.20 L 631.18 283.47 L 632.13 283.47 L 632.61 283.75 L 633.56 284.07 L 634.04 284.34 L 635.00 284.61 L 635.47 284.61 L 636.43 284.89 L 636.91 285.21 L 637.86 285.48 L 638.34 285.75 L 639.29 285.75 L 639.77 286.03 L 640.73 286.35 L 641.20 286.62 L 642.16 286.62 L 642.64 286.89 L 643.59 287.17 L 644.55 287.17 L 645.02 287.49 L 645.98 287.76 L 646.46 287.76 L 647.41 288.03 L 647.89 288.03 L 648.85 288.31 L 649.32 288.31 L 650.28 288.63 L 650.76 288.63 L 651.71 288.90 L 652.19 288.90 L 653.14 289.17 L 653.62 289.45 L 654.58 289.45 L 655.05 289.45 L 656.01 289.77 L 656.49 289.77 L 657.44 289.77 L 657.92 289.77 L 658.87 290.04 L 659.35 290.04 L 660.31 290.31 L 660.78 290.31 L 661.74 290.31 L 662.22 290.31 L 663.17 290.31 L 663.65 290.59 L 664.60 290.59 L 665.56 290.59 L 666.04 290.91 L 666.99 290.91 L 667.47 290.91 L 668.43 291.18 L 668.90 291.18 L 669.86 291.18 L 670.34 291.18 L 671.29 291.45 L 671.77 291.45 L 672.72 291.45 L 673.20 291.45 L 674.16 291.73 L 674.63 291.73 L 675.59 291.73 L 676.07 291.73 L 677.02 292.05 L 677.50 292.05 L 678.45 292.05 L 678.93 292.05 L 679.89 292.05 L 680.36 292.05 L 681.32 292.32 L 681.80 292.32 L 682.75 292.32 L 683.23 292.32 L 684.19 292.32 L 684.66 292.32 L 685.62 292.32 L 686.10 292.59 L 687.05 292.32 L 688.01 292.59 L 688.48 292.32 L 689.44 292.59 L 689.92 292.59 L 690.87 292.59 L 691.35 292.59 L 692.30 292.59 L 692.78 292.59 L 693.74 292.59 L 694.21 292.59 L 695.17 292.59 L 695.65 292.59 L 696.60 292.59 L 697.08 292.59 L 698.03 292.59 L 698.51 292.59 L 699.47 292.59 L 699.95 292.59 L 700.90 292.59 L 701.38 292.59 L 702.33 292.59 L 702.81 292.32 L 703.77 292.32 L 704.24 292.59 L 705.20 292.32 L 705.68 292.32 L 706.63 292.32 L 707.11 292.32 L 708.06 292.32 L 709.02 292.32 L 709.50 292.32 L 710.45 292.32 L 710.93 292.32 L 711.88 292.32 L 712.36 292.32 L 713.32 292.32 L 713.79 292.05 L 714.75 292.05 L 715.23 292.32 L 716.18 292.05 L 716.66 292.05 L 717.62 292.05 L 718.09 292.05 L 719.05 292.05 L 719.53 291.73 L 720.48 292.05 L 720.96 292.05 L 721.91 292.05 L 722.39 292.05 L 723.35 292.05 L 723.82 292.05 L 724.78 292.05 L 725.26 291.73 L 726.21 291.73 L 726.69 291.73 L 727.64 291.73 L 728.12 291.73 L 729.08 291.45 L 729.55 291.45 L 730.51 291.45 L 731.46 291.45 L 731.94 291.45 L 732.90 291.45 L 733.37 291.45 L 734.33 291.45 L 734.81 291.45 L 735.76 291.18 L 736.24 291.18 L 737.20 291.18 L 737.67 291.18 L 738.63 291.18 L 739.11 291.18 L 740.06 290.91 L 740.54 290.91 L 741.49 290.91 L 741.97 290.91 L 742.93 290.59 L 743.40 290.59 L 744.36 290.59 L 744.84 290.59 L 745.79 290.59 L 746.27 290.31 L 747.22 290.31 L 747.70 290.31 L 748.66 290.31 L 749.13 290.31 L 750.09 290.04 L 750.57 290.04 L 751.52 290.04 L 752.48 289.77 L 752.96 290.04 L 753.91 289.77 L 754.39 289.77 L 755.34 289.77 L 755.82 289.45 L 756.78 289.77 L 757.25 289.77 L 758.21 289.45 L 758.69 289.45 L 759.64 289.45 L 760.12 289.45 L 761.07 289.17 L 761.55 289.45 L 762.51 289.17 L 762.98 289.17 L 763.94 289.17 L 764.42 289.17 L 765.37 288.90 L 765.85 288.90 L 766.80 288.90 L 767.28 288.63 L 768.24 288.63 L 768.71 288.63 L 769.67 288.31 L 770.15 288.31 L 771.10 288.31 L 771.58 288.31 L 772.54 288.31 L 773.01 288.31 L 773.97 288.31 L 774.92 288.03 L 775.40 287.76 L 776.36 287.76 L 776.83 287.76 L 777.79 287.76 L 778.27 287.49 L 779.22 287.49 L 779.70 287.49 L 780.65 287.49 L 781.13 287.17 L 782.09 287.17 L 782.56 286.89 L 783.52 286.89 L 784.00 286.89 L 784.95 286.89 L 785.43 286.62 L 786.38 286.62 L 786.86 286.62 L 787.82 286.62 L 788.30 286.62 L 789.25 286.35 L 789.73 286.35 L 790.68 286.03 L 791.16 286.03 L 792.12 286.03 L 792.59 286.03 L 793.55 286.03 L 794.03 285.75 L 794.98 285.75 L 795.94 285.75 L 796.41 285.48 L 797.37 285.48 L 797.85 285.48 L 798.80 285.48 L 799.28 285.21 L 800.23 285.21 L 800.71 285.21 L 801.67 285.21 L 802.14 285.21 L 803.10 284.89 L 803.58 284.89 L 804.53 284.89 L 805.01 284.89 L 805.97 284.89 L 806.44 284.89 L 807.40 284.61 L 807.88 284.61 L 808.83 284.61 L 809.31 284.61 L 810.26 284.34 L 810.74 284.34 L 811.70 284.34 L 812.17 284.34 L 813.13 284.34 L 813.61 284.07 L 814.56 284.07 L 815.04 284.07 L 815.99 284.07 L 816.95 283.75 L 817.43 283.75 L 818.38 283.75 L 818.86 283.75 L 819.81 283.47 L 820.29 283.47 L 821.25 283.47 L 821.73 283.47 L 822.68 283.20 L 823.16 283.20 L 824.11 283.20 L 824.59 283.20 L 825.55 283.20 L 826.02 282.93 L 826.98 282.93 L 827.46 282.93 L 828.41 282.93 L 828.89 282.61 L 829.84 282.61 L 830.32 282.61 L 831.28 282.61 L 831.75 282.61 L 832.71 282.33 L 833.19 282.33 L 834.14 282.33 L 834.62 282.06 L 835.57 282.06 L 836.05 282.06 L 837.01 281.79 L 837.96 282.06 L 838.44 281.79 L 839.40 281.79 L 839.87 281.79 L 840.83 281.47 L 841.31 281.47 L 842.26 281.47 L 842.74 281.47 L 843.69 281.47 L 844.17 281.19 L 845.13 281.19 L 845.60 281.19 L 846.56 281.19 L 847.04 281.19 L 847.99 281.19 L 848.47 281.19 L 849.42 281.19 L 849.90 280.92 L 850.86 281.19 L 851.33 281.19 L 852.29 281.19 L 852.77 281.19 L 853.72 280.92 L 854.20 280.92 L 855.15 281.19 L 855.63 280.92 L 856.59 280.92 L 857.07 280.92 L 858.02 280.92 L 858.98 280.92 L 859.45 280.92 L 860.41 280.92 L 860.89 280.92 L 861.84 280.92 L 862.32 280.92 L 863.27 280.92 L 863.75 280.92 L 864.71 280.65 L 865.18 280.92 L 866.14 280.92 L 866.62 280.92 L 867.57 280.92 L 868.05 280.92 L 869.00 280.92 L 869.48 280.92 L 870.44 280.92 L 870.91 280.65 L 871.87 280.65 L 872.35 280.65 L 873.30 280.65 L 873.78 280.92 L 874.74 280.65 L 875.21 280.65 L 876.17 280.65 L 876.65 280.65 L 877.60 280.65 L 878.08 280.33 L 879.03 280.65 L 879.99 280.33 L 880.47 280.33 L 881.42 280.33 L 881.90 280.05 L 882.85 280.05 L 883.33 280.05 L 884.29 280.05 L 884.76 280.05 L 885.72 280.05 L 886.20 280.05 L 887.15 280.05 L 887.63 280.05 L 888.58 280.05 L 889.06 279.78 L 890.02 280.05 L 890.49 280.05 L 891.45 280.05 L 891.93 280.05 L 892.88 280.05 L 893.36 280.05 L 894.32 280.05 L 894.79 279.78 L 895.75 280.05 L 896.23 279.78 L 897.18 280.05 L 897.66 280.05 L 898.61 280.05 L 899.57 280.33 L 900.05 280.33 L 901.00 280.33 L 901.48 280.33 L 902.43 280.33 L 902.91 280.33 L 903.87 280.33 L 904.34 280.33 L 905.30 280.33 L 905.78 280.33 L 906.73 280.33 L 907.21 280.33 L 908.16 280.33 L 908.64 280.33 L 909.60 280.33 L 910.08 280.33 L 911.03 280.33 L 911.51 280.33 L 912.46 280.65 L 912.94 280.65 L 913.90 280.33 L 914.37 280.92 L 915.33 280.65 L 915.81 280.65 L 916.76 280.92 L 917.24 280.92 L 918.19 280.92 L 918.67 280.92 L 919.63 280.92 L 920.58 280.92 L 921.06 280.92 L 922.01 280.92 L 922.49 280.92 L 923.45 280.92 L 923.92 281.19 L 924.88 281.19 L 925.36 281.19 L 926.31 281.19 L 926.79 281.47 L 927.75 281.47 L 928.22 281.47 L 929.18 281.47 L 929.66 281.47 L 930.61 281.47 L 931.09 281.79 L 932.04 281.79 L 932.52 281.79 L 933.48 281.79 L 933.95 281.79 L 934.91 281.79 L 935.39 282.06 L 936.34 282.06 L 936.82 282.06 L 937.77 282.33 L 938.25 282.06 L 939.21 282.33 L 939.68 282.33 L 940.64 282.33 L 941.59 282.61 L 942.07 282.61 L 943.03 282.61 L 943.51 282.61 L 944.46 282.93 L 944.94 282.93 L 945.89 282.93 L 946.37 283.20 L 947.33 283.20 L 947.80 283.20 L 948.76 283.47 L 949.24 283.47 L 950.19 283.47 L 950.67 283.47 L 951.62 283.75 L 952.10 283.75 L 953.06 284.07 L 953.53 284.07 L 954.49 284.07 L 954.97 284.34 L 955.92 284.34 L 956.40 284.34 L 957.35 284.34 L 957.83 284.34 L 958.79 284.61 L 959.26 284.61 L 960.22 284.61 L 960.70 284.89 L 961.65 284.89 L 962.61 284.89 L 963.09 285.21 L 964.04 285.21 L 964.52 285.21 L 965.47 285.21 L 965.95 285.48 L 966.91 285.48 L 967.38 285.75 L 968.34 285.75 L 968.82 285.75 L 969.77 286.03 L 970.25 286.03 L 971.20 286.03 L 971.68 286.35 L 972.64 286.35 L 973.11 286.35 L 974.07 286.62 L 974.55 286.62 L 975.50 286.62 L 975.98 286.62 L 976.93 286.89 L 977.41 286.89 L 978.37 286.89 L 978.85 287.17 L 979.80 287.17 L 980.28 287.17 L 981.23 287.49 L 981.71 287.49 L 982.67 287.49 L 983.62 287.76 L 984.10 287.76 L 985.05 287.76 L 985.53 287.76 L 986.49 288.03 L 986.96 288.03 L 987.92 288.03 L 988.40 288.31 L 989.35 288.31 L 989.83 288.31 L 990.78 288.31 L 991.26 288.63 L 992.22 288.63 L 992.69 288.63 L 993.65 288.90 L 994.13 288.90 L 995.08 288.90 L 995.56 288.90 L 996.52 289.17 L 996.99 289.17 L 997.95 289.17 L 998.43 289.17 L 999.38 289.45 L 999.86 289.45 L 1000.81 289.45 L 1001.29 289.77 L 1002.25 289.77 L 1002.72 290.04 L 1003.68 289.77 L 1004.16 290.04 L 1005.11 290.04 L 1006.07 290.04 L 1006.54 290.31 L 1007.50 290.31 L 1007.98 290.31 L 1008.93 290.59 L 1009.41 290.59 L 1010.36 290.59 L 1010.84 290.91 L 1011.80 290.91 L 1012.27 290.91 L 1013.23 290.91 L 1013.71 290.91 L 1014.66 291.18 L 1015.14 291.18 L 1016.10 291.18 L 1016.57 291.45 L 1017.53 291.45 L 1018.01 291.73 L 1018.96 291.73 L 1019.44 291.73 L 1020.39 292.05 L 1020.87 292.05 L 1021.83 292.05 L 1022.30 292.32 L 1023.26 292.32 L 1023.74 292.32 L 1024.69 292.59 L 1025.17 292.59 L 1026.12 292.59 L 1027.08 293.19 L 1027.56 292.87 L 1028.51 293.19 L 1028.99 293.19 L 1029.95 293.19 L 1030.42 293.46 L 1031.38 293.73 L 1031.86 293.73 L 1032.81 293.73 L 1033.29 293.73 L 1034.24 294.01 L 1034.72 294.01 L 1035.68 294.01 L 1036.15 294.33 L 1037.11 294.33 L 1037.59 294.60 L 1038.54 294.60 L 1039.02 294.87 L 1039.97 294.87 L 1040.45 294.87 L 1041.41 295.15 L 1041.88 295.47 L 1042.84 295.47 L 1043.32 295.74 L 1044.27 295.74 L 1044.75 295.74 L 1045.70 295.74 L 1046.18 296.01 L 1047.14 296.01 L 1047.62 296.01 L 1048.57 296.29 L 1049.53 296.29 L 1050.00 296.61 L 1050.96 296.61 L 1051.44 296.61 L 1052.39 296.88 L 1052.87 297.15 L 1053.82 297.15 L 1054.30 297.43 L 1055.26 297.43 L 1055.73 297.75 L 1056.69 297.75 L 1057.17 298.02 L 1058.12 298.02 L 1058.60 298.02 L 1059.55 298.29 L 1060.03 298.57 L 1060.99 298.57 L 1061.46 298.89 L 1062.42 299.16 L 1062.90 299.16 L 1063.85 299.43 L 1064.33 299.43 L 1065.29 299.71 L 1065.76 299.71 L 1066.72 300.03 L 1067.20 300.30 L 1068.15 300.57 L 1068.63 300.57 L 1069.58 300.85 L 1070.06 300.85 L 1071.02 301.17 L 1071.97 301.44 L 1072.45 301.44 L 1073.40 301.71 L 1073.88 301.99 L 1074.84 302.31 L 1075.31 302.58 L 1076.27 302.85 L 1076.75 303.13 L 1077.70 303.45 L 1078.18 303.45 L 1079.13 303.72 L 1079.61 303.99 L 1080.57 304.27 L 1081.04 304.27 L 1082.00 304.59" fill="none" stroke="#ef4444" stroke-width="2.7"/>
<text x="560.0" y="602" text-anchor="middle" font-family="Arial, sans-serif" font-size="13" fill="#475569">Wall Clock Time</text>
<text transform="translate(25 306.0) rotate(-90)" text-anchor="middle" font-family="Arial, sans-serif" font-size="13" fill="#475569">Temperature (C)</text>
<rect x="727" y="96" width="335" height="54" rx="8" fill="#ffffff" stroke="#cbd5e1"/>
<line x1="745" y1="121" x2="785" y2="121" stroke="#ef4444" stroke-width="2.8"/>
<text x="797" y="126" font-family="Arial, sans-serif" font-size="13" fill="#1e293b">Measured Temperature</text>
</svg>