<svg xmlns="http://www.w3.org/2000/svg" width="1120" height="620" viewBox="0 0 1120 620">
<rect width="100%" height="100%" fill="#f8fafc"/>
<rect x="92" y="78" width="990" height="456" fill="#ffffff" stroke="#cbd5e1"/>
<text x="560.0" y="34" text-anchor="middle" font-family="Arial, sans-serif" font-size="21" font-weight="700" fill="#1e293b">Panel Temperature - 13 deg Tilt - Midday Session</text>
<text x="560.0" y="58" text-anchor="middle" font-family="Arial, sans-serif" font-size="12" fill="#475569">2272 readings from 11:46:41 to 12:51:06</text>
<line x1="92" y1="534.00" x2="1082" y2="534.00" stroke="#cbd5e1" stroke-dasharray="5 5" opacity="0.75"/>
<text x="80" y="538.00" text-anchor="end" font-family="Arial, sans-serif" font-size="12" fill="#475569">0.000</text>
<line x1="92" y1="442.80" x2="1082" y2="442.80" stroke="#cbd5e1" stroke-dasharray="5 5" opacity="0.75"/>
<text x="80" y="446.80" text-anchor="end" font-family="Arial, sans-serif" font-size="12" fill="#475569">20.000</text>
<line x1="92" y1="351.60" x2="1082" y2="351.60" stroke="#cbd5e1" stroke-dasharray="5 5" opacity="0.75"/>
<text x="80" y="355.60" text-anchor="end" font-family="Arial, sans-serif" font-size="12" fill="#475569">40.000</text>
<line x1="92" y1="260.40" x2="1082" y2="260.40" stroke="#cbd5e1" stroke-dasharray="5 5" opacity="0.75"/>
<text x="80" y="264.40" text-anchor="end" font-family="Arial, sans-serif" font-size="12" fill="#475569">60.000</text>
<line x1="92" y1="169.20" x2="1082" y2="169.20" stroke="#cbd5e1" stroke-dasharray="5 5" opacity="0.75"/>
<text x="80" y="173.20" text-anchor="end" font-family="Arial, sans-serif" font-size="12" fill="#475569">80.000</text>
<line x1="92" y1="78.00" x2="1082" y2="78.00" stroke="#cbd5e1" stroke-dasharray="5 5" opacity="0.75"/>
<text x="80" y="82.00" text-anchor="end" font-family="Arial, sans-serif" font-size="12" fill="#475569">100.000</text>
<line x1="92.00" y1="78" x2="92.00" y2="534" stroke="#e2e8f0" stroke-dasharray="4 6"/>
<text x="92.00" y="568" text-anchor="middle" font-family="Arial, sans-serif" font-size="12" fill="#475569">11:46:41</text>
<line x1="257.00" y1="78" x2="257.00" y2="534" stroke="#e2e8f0" stroke-dasharray="4 6"/>
<text x="257.00" y="568" text-anchor="middle" font-family="Arial, sans-serif" font-size="12" fill="#475569">11:57:25</text>
<line x1="422.00" y1="78" x2="422.00" y2="534" stroke="#e2e8f0" stroke-dasharray="4 6"/>
<text x="422.00" y="568" text-anchor="middle" font-family="Arial, sans-serif" font-size="12" fill="#475569">12:08:09</text>
<line x1="587.00" y1="78" x2="587.00" y2="534" stroke="#e2e8f0" stroke-dasharray="4 6"/>
<text x="587.00" y="568" text-anchor="middle" font-family="Arial, sans-serif" font-size="12" fill="#475569">12:18:53</text>
<line x1="752.00" y1="78" x2="752.00" y2="534" stroke="#e2e8f0" stroke-dasharray="4 6"/>
<text x="752.00" y="568" text-anchor="middle" font-family="Arial, sans-serif" font-size="12" fill="#475569">12:29:37</text>
<line x1="917.00" y1="78" x2="917.00" y2="534" stroke="#e2e8f0" stroke-dasharray="4 6"/>
<text x="917.00" y="568" text-anchor="middle" font-family="Arial, sans-serif" font-size="12" fill="#475569">12:40:21</text>
<line x1="1082.00" y1="78" x2="1082.00" y2="534" stroke="#e2e8f0" stroke-dasharray="4 6"/>
<text x="1082.00" y="568" text-anchor="middle" font-family="Arial, sans-serif" font-size="12" fill="#475569">12:51:06</text>
<path d="M 92.00 387.49 L 92.26 387.21 L 92.77 387.49 L 93.02 387.21 L 93.54 387.21 L 93.79 386.94 L 94.31 386.94 L 94.56 386.94 L 95.07 386.94 L 95.33 386.67 L 95.84 386.67 L 96.10 386.67 L 96.61 386.35 L 96.87 386.35 L 97.38 386.07 L 97.64 386.07 L 98.15 386.07 L 98.40 385.80 L 98.92 385.80 L 99.17 385.80 L 99.68 385.80 L 99.94 385.53 L 100.45 385.53 L 100.97 385.53 L 101.22 385.21 L 101.73 385.53 L 101.99 385.21 L 102.50 385.21 L 102.76 385.21 L 103.27 384.93 L 103.53 384.93 L 104.04 384.93 L 104.29 384.93 L 104.81 384.66 L 105.06 384.66 L 105.58 384.66 L 105.83 384.66 L 106.34 384.39 L 106.60 384.39 L 107.11 384.39 L 107.37 384.07 L 107.88 384.07 L 108.14 384.07 L 108.65 384.07 L 108.91 384.07 L 109.42 383.79 L 109.67 383.79 L 110.19 383.79 L 110.44 383.79 L 110.95 383.52 L 111.21 383.79 L 111.72 383.52 L 111.98 383.52 L 112.49 383.25 L 112.75 383.25 L 113.26 383.25 L 113.52 383.25 L 114.03 383.25 L 114.28 382.93 L 114.80 382.93 L 115.05 382.65 L 115.57 382.65 L 115.82 382.38 L 116.33 382.38 L 116.59 382.38 L 117.10 382.11 L 117.36 382.11 L 117.87 381.79 L 118.13 381.79 L 118.64 381.51 L 119.15 381.51 L 119.41 381.51 L 119.92 381.24 L 120.18 380.97 L 120.69 380.97 L 120.94 380.65 L 121.46 380.65 L 121.71 380.65 L 122.23 380.37 L 122.48 380.10 L 122.99 380.10 L 123.25 379.83 L 123.76 379.51 L 124.02 379.23 L 124.53 379.23 L 124.79 378.96 L 125.30 378.96 L 125.55 378.96 L 126.07 378.69 L 126.32 378.37 L 126.84 378.09 L 127.09 378.09 L 127.60 377.82 L 127.86 377.55 L 128.37 377.55 L 128.63 377.23 L 129.14 376.95 L 129.40 376.68 L 129.91 376.41 L 130.17 376.09 L 130.68 376.09 L 130.93 375.81 L 131.45 375.54 L 131.70 375.27 L 132.21 375.27 L 132.47 374.95 L 132.98 374.67 L 133.24 374.67 L 133.75 374.40 L 134.01 374.13 L 134.52 373.81 L 134.78 373.53 L 135.29 373.53 L 135.80 373.26 L 136.06 372.99 L 136.57 372.67 L 136.83 372.67 L 137.34 372.39 L 137.59 371.85 L 138.11 371.85 L 138.36 371.53 L 138.87 371.25 L 139.13 370.98 L 139.64 370.71 L 139.90 370.39 L 140.41 370.39 L 140.67 370.11 L 141.18 369.84 L 141.44 369.57 L 141.95 369.25 L 142.20 368.70 L 142.72 368.70 L 142.97 368.43 L 143.49 368.43 L 143.74 367.83 L 144.25 367.56 L 144.51 367.29 L 145.02 366.97 L 145.28 366.69 L 145.79 366.42 L 146.05 366.15 L 146.56 365.83 L 146.82 365.28 L 147.33 365.28 L 147.58 365.01 L 148.10 364.69 L 148.35 364.41 L 148.86 364.14 L 149.12 363.87 L 149.63 363.55 L 149.89 363.00 L 150.40 362.73 L 150.66 362.73 L 151.17 362.41 L 151.68 361.86 L 151.94 361.59 L 152.45 361.27 L 152.71 360.99 L 153.22 360.99 L 153.47 360.45 L 153.99 360.13 L 154.24 359.85 L 154.76 359.58 L 155.01 359.31 L 155.52 358.71 L 155.78 358.44 L 156.29 358.17 L 156.55 357.85 L 157.06 357.57 L 157.32 357.30 L 157.83 357.30 L 158.09 356.71 L 158.60 356.43 L 158.85 356.16 L 159.37 355.89 L 159.62 355.89 L 160.13 355.57 L 160.39 355.02 L 160.90 354.75 L 161.16 354.43 L 161.67 354.15 L 161.93 353.88 L 162.44 353.61 L 162.70 353.29 L 163.21 353.01 L 163.46 352.74 L 163.98 352.47 L 164.23 352.15 L 164.75 351.87 L 165.00 351.60 L 165.51 351.33 L 165.77 351.33 L 166.28 350.73 L 166.79 350.46 L 167.05 350.46 L 167.56 350.19 L 167.82 349.87 L 168.33 349.59 L 168.59 349.32 L 169.10 349.32 L 169.36 349.05 L 169.87 348.73 L 170.12 348.73 L 170.64 348.45 L 170.89 348.18 L 171.40 347.91 L 171.66 347.91 L 172.17 347.59 L 172.43 347.59 L 172.94 347.31 L 173.20 347.04 L 173.71 347.04 L 173.97 346.77 L 174.48 346.77 L 174.73 346.45 L 175.25 346.45 L 175.50 346.17 L 176.02 346.17 L 176.27 346.17 L 176.78 346.17 L 177.04 345.90 L 177.55 345.90 L 177.81 345.90 L 178.32 345.63 L 178.58 345.31 L 179.09 345.31 L 179.35 345.31 L 179.86 345.31 L 180.11 345.03 L 180.63 345.03 L 180.88 344.76 L 181.39 344.76 L 181.91 344.76 L 182.16 344.76 L 182.68 344.49 L 182.93 344.17 L 183.44 344.17 L 183.70 344.17 L 184.21 344.17 L 184.47 344.17 L 184.98 344.17 L 185.24 344.17 L 185.75 344.17 L 186.01 344.17 L 186.52 343.89 L 186.77 343.89 L 187.29 343.89 L 187.54 343.89 L 188.05 344.17 L 188.31 343.89 L 188.82 343.89 L 189.08 343.89 L 189.59 343.89 L 189.85 343.62 L 190.36 343.62 L 190.62 343.62 L 191.13 343.62 L 191.38 343.62 L 191.90 343.62 L 192.15 343.35 L 192.66 343.62 L 192.92 343.35 L 193.43 343.35 L 193.69 343.35 L 194.20 343.35 L 194.46 343.03 L 194.97 343.03 L 195.23 343.03 L 195.74 342.75 L 195.99 342.75 L 196.51 342.48 L 197.02 342.48 L 197.28 342.48 L 197.79 342.21 L 198.04 342.21 L 198.56 342.21 L 198.81 341.89 L 199.32 341.61 L 199.58 341.61 L 200.09 341.61 L 200.35 341.61 L 200.86 341.61 L 201.12 341.61 L 201.63 341.34 L 201.89 341.34 L 202.40 341.07 L 202.65 341.34 L 203.17 341.07 L 203.42 341.07 L 203.94 341.07 L 204.19 341.07 L 204.70 341.07 L 204.96 341.07 L 205.47 340.75 L 205.73 340.75 L 206.24 340.75 L 206.50 340.75 L 207.01 340.75 L 207.27 340.47 L 207.78 340.47 L 208.03 340.75 L 208.55 340.75 L 208.80 340.75 L 209.31 340.75 L 209.57 340.75 L 210.08 340.47 L 210.34 340.75 L 210.85 340.47 L 211.36 340.47 L 211.62 340.75 L 212.13 340.47 L 212.39 340.75 L 212.90 340.47 L 213.16 340.75 L 213.67 340.75 L 213.92 340.75 L 214.44 340.75 L 214.69 340.75 L 215.21 341.07 L 215.46 341.07 L 215.97 341.07 L 216.23 340.75 L 216.74 341.07 L 217.00 341.07 L 217.51 341.07 L 217.77 341.07 L 218.28 341.07 L 218.54 341.07 L 219.05 341.34 L 219.30 341.34 L 219.82 341.34 L 220.07 341.34 L 220.58 341.61 L 220.84 341.34 L 221.35 341.61 L 221.61 341.61 L 222.12 341.89 L 222.38 341.61 L 222.89 341.61 L 223.15 341.89 L 223.66 341.89 L 223.91 341.89 L 224.43 341.89 L 224.68 342.21 L 225.20 342.21 L 225.71 342.21 L 225.96 342.21 L 226.48 342.48 L 226.73 342.21 L 227.24 342.48 L 227.50 342.48 L 228.01 342.48 L 228.27 342.48 L 228.78 342.48 L 229.04 342.48 L 229.55 342.48 L 229.81 342.48 L 230.32 342.21 L 230.57 342.48 L 231.09 342.48 L 231.34 342.48 L 231.86 342.48 L 232.11 342.48 L 232.62 342.21 L 232.88 342.21 L 233.39 342.21 L 233.65 342.21 L 234.16 341.89 L 234.42 341.89 L 234.93 341.89 L 235.18 341.89 L 235.70 341.89 L 235.95 341.61 L 236.47 341.61 L 236.72 341.61 L 237.23 341.34 L 237.49 341.34 L 238.00 341.34 L 238.26 341.07 L 238.77 340.75 L 239.03 340.75 L 239.54 340.75 L 239.80 340.75 L 240.31 340.75 L 240.82 340.75 L 241.08 340.75 L 241.59 340.75 L 241.84 340.47 L 242.36 340.47 L 242.61 340.47 L 243.13 340.47 L 243.38 340.47 L 243.89 340.20 L 244.15 340.20 L 244.66 340.20 L 244.92 340.20 L 245.43 339.93 L 245.69 339.93 L 246.20 339.93 L 246.46 339.93 L 246.97 339.93 L 247.22 339.61 L 247.74 339.61 L 247.99 339.61 L 248.50 339.33 L 248.76 339.06 L 249.27 339.06 L 249.53 339.06 L 250.04 339.06 L 250.30 339.06 L 250.81 339.06 L 251.07 339.06 L 251.58 338.79 L 251.83 338.79 L 252.35 338.79 L 252.60 338.79 L 253.12 338.79 L 253.37 338.47 L 253.88 338.79 L 254.14 338.79 L 254.65 338.79 L 255.16 338.47 L 255.42 338.79 L 255.93 338.79 L 256.19 338.79 L 256.70 338.47 L 256.96 338.79 L 257.47 338.79 L 257.73 338.47 L 258.24 338.47 L 258.49 338.47 L 259.01 338.47 L 259.26 338.47 L 259.77 338.47 L 260.03 338.47 L 260.54 338.47 L 260.80 338.47 L 261.31 338.47 L 261.57 338.47 L 262.08 338.47 L 262.34 338.47 L 262.85 338.47 L 263.10 338.47 L 263.62 338.47 L 263.87 338.47 L 264.39 338.47 L 264.64 338.47 L 265.15 338.47 L 265.41 338.47 L 265.92 338.47 L 266.18 338.19 L 266.69 338.19 L 266.95 338.47 L 267.46 338.47 L 267.72 338.47 L 268.23 338.47 L 268.48 338.47 L 269.00 338.47 L 269.51 338.79 L 269.76 338.47 L 270.28 338.47 L 270.53 338.79 L 271.05 338.79 L 271.30 338.79 L 271.81 338.79 L 272.07 338.79 L 272.58 338.79 L 272.84 338.79 L 273.35 338.79 L 273.61 338.79 L 274.12 339.06 L 274.38 338.79 L 274.89 338.79 L 275.14 338.79 L 275.66 338.79 L 275.91 338.79 L 276.42 339.06 L 276.68 338.79 L 277.19 339.06 L 277.45 339.06 L 277.96 339.06 L 278.22 339.06 L 278.73 339.33 L 278.99 339.06 L 279.50 339.33 L 279.75 339.33 L 280.27 339.33 L 280.52 339.33 L 281.03 339.33 L 281.29 339.33 L 281.80 339.33 L 282.06 339.33 L 282.57 339.61 L 282.83 339.61 L 283.34 339.61 L 283.85 339.61 L 284.11 339.61 L 284.62 339.93 L 284.88 339.93 L 285.39 339.93 L 285.65 339.93 L 286.16 339.93 L 286.41 339.93 L 286.93 340.20 L 287.18 340.20 L 287.69 339.93 L 287.95 340.20 L 288.46 340.47 L 288.72 340.47 L 289.23 340.47 L 289.49 340.47 L 290.00 340.47 L 290.26 340.47 L 290.77 340.47 L 291.02 340.75 L 291.54 340.47 L 291.79 340.75 L 292.31 340.75 L 292.56 340.75 L 293.07 341.07 L 293.33 341.07 L 293.84 341.34 L 294.10 341.34 L 294.61 341.34 L 294.87 341.34 L 295.38 341.61 L 295.64 341.61 L 296.15 341.61 L 296.40 341.61 L 296.92 341.61 L 297.17 341.89 L 297.68 341.89 L 298.20 341.89 L 298.45 341.89 L 298.97 342.21 L 299.22 342.21 L 299.73 342.21 L 299.99 342.48 L 300.50 342.48 L 300.76 342.48 L 301.27 342.48 L 301.53 342.48 L 302.04 342.75 L 302.29 343.03 L 302.81 343.03 L 303.06 343.03 L 303.58 343.03 L 303.83 343.03 L 304.34 343.35 L 304.60 343.62 L 305.11 343.62 L 305.37 343.62 L 305.88 343.62 L 306.14 343.62 L 306.65 343.89 L 306.91 343.89 L 307.42 343.89 L 307.67 343.89 L 308.19 344.17 L 308.44 344.17 L 308.95 344.17 L 309.21 344.49 L 309.72 344.49 L 309.98 344.49 L 310.49 344.49 L 310.75 344.76 L 311.26 344.76 L 311.52 344.76 L 312.03 345.03 L 312.28 345.03 L 312.80 345.03 L 313.31 345.03 L 313.57 345.03 L 314.08 345.31 L 314.33 345.31 L 314.85 345.63 L 315.10 345.63 L 315.61 345.63 L 315.87 345.63 L 316.38 345.63 L 316.64 345.90 L 317.15 345.90 L 317.41 346.17 L 317.92 346.17 L 318.18 346.17 L 318.69 346.17 L 318.94 346.17 L 319.46 346.17 L 319.71 346.45 L 320.23 346.45 L 320.48 346.77 L 320.99 346.77 L 321.25 346.77 L 321.76 346.77 L 322.02 346.77 L 322.53 347.04 L 322.79 347.04 L 323.30 347.04 L 323.55 347.31 L 324.07 347.31 L 324.32 347.31 L 324.84 347.59 L 392.71 347.59 L 392.71 347.59 L 392.71 347.59 L 392.71 347.91 L 392.71 347.91 L 392.71 347.91 L 392.71 348.18 L 392.71 348.18 L 392.71 348.18 L 392.71 348.18 L 392.97 348.45 L 392.97 348.45 L 392.97 348.73 L 392.97 348.73 L 392.97 348.73 L 392.97 349.05 L 392.97 349.05 L 392.97 349.32 L 392.97 349.32 L 392.97 349.32 L 392.97 349.32 L 392.97 349.32 L 392.97 349.59 L 392.97 349.59 L 392.97 349.87 L 392.97 349.87 L 392.97 350.19 L 392.97 350.19 L 392.97 350.19 L 392.97 350.19 L 392.97 350.19 L 392.97 350.46 L 392.97 350.46 L 392.97 350.46 L 392.97 350.73 L 392.97 350.73 L 392.97 351.01 L 392.97 351.01 L 392.97 351.01 L 392.97 351.33 L 392.97 351.33 L 392.97 351.33 L 392.97 351.60 L 392.97 351.60 L 392.97 351.60 L 392.97 351.60 L 392.97 351.87 L 392.97 351.87 L 392.97 351.87 L 392.97 351.87 L 392.97 351.87 L 392.97 351.87 L 392.97 352.15 L 392.97 352.15 L 392.97 352.15 L 392.97 352.15 L 392.97 352.15 L 392.97 352.15 L 392.97 352.15 L 392.97 352.15 L 392.97 352.47 L 392.97 352.15 L 392.97 352.15 L 392.97 352.15 L 392.97 352.15 L 393.23 352.15 L 393.23 351.87 L 393.23 352.15 L 393.23 351.87 L 393.23 352.15 L 393.23 351.87 L 393.23 351.87 L 393.23 351.87 L 393.23 351.87 L 393.23 351.87 L 393.23 351.87 L 393.23 351.87 L 393.23 351.87 L 393.23 351.87 L 393.23 351.87 L 393.23 351.60 L 393.23 351.87 L 393.23 351.87 L 393.23 351.60 L 393.23 351.60 L 393.23 351.60 L 393.23 351.60 L 393.23 351.60 L 393.23 348.45 L 393.23 348.45 L 393.23 348.45 L 393.23 348.45 L 393.48 348.45 L 393.74 348.45 L 394.25 348.73 L 394.51 348.73 L 395.02 348.73 L 395.28 348.73 L 395.79 349.05 L 396.04 349.05 L 396.56 349.05 L 396.81 349.32 L 397.32 349.05 L 397.58 349.32 L 398.09 349.32 L 398.35 349.32 L 398.86 349.59 L 399.12 349.32 L 399.63 349.32 L 399.89 349.59 L 400.40 349.59 L 400.65 349.59 L 401.17 349.59 L 401.42 349.59 L 401.94 349.59 L 402.19 349.87 L 402.70 349.87 L 402.96 349.87 L 403.47 349.87 L 403.98 350.19 L 404.24 350.19 L 404.75 350.19 L 405.01 350.19 L 405.52 350.19 L 405.78 350.19 L 406.29 350.46 L 406.55 350.46 L 407.06 350.46 L 407.31 350.46 L 407.83 350.73 L 408.08 350.73 L 408.60 350.73 L 408.85 351.01 L 409.36 351.01 L 409.62 351.01 L 410.13 351.01 L 410.39 351.01 L 410.90 351.01 L 411.16 351.01 L 411.67 351.01 L 411.92 351.01 L 412.44 351.33 L 412.69 351.33 L 413.21 351.60 L 413.46 351.33 L 413.97 351.60 L 414.23 351.60 L 414.74 351.60 L 415.00 351.60 L 415.51 351.60 L 415.77 351.60 L 416.28 351.87 L 416.54 351.87 L 417.05 351.87 L 417.30 352.15 L 417.82 352.15 L 418.07 352.15 L 418.58 352.15 L 418.84 352.15 L 419.35 352.47 L 419.87 352.47 L 420.12 352.47 L 420.63 352.47 L 420.89 352.74 L 421.40 352.74 L 421.66 352.74 L 422.17 352.74 L 422.43 352.74 L 422.94 353.01 L 423.20 353.01 L 423.71 353.01 L 423.96 353.01 L 424.48 353.01 L 424.73 353.29 L 425.24 353.01 L 425.50 353.29 L 426.01 353.29 L 426.27 353.29 L 426.78 353.61 L 427.04 353.61 L 427.55 353.61 L 427.81 353.61 L 428.32 353.61 L 428.57 353.61 L 429.09 353.61 L 429.34 353.88 L 429.86 353.88 L 430.11 353.88 L 430.62 353.88 L 430.88 354.15 L 431.39 354.15 L 431.65 354.15 L 432.16 354.15 L 432.42 354.43 L 432.93 354.43 L 433.18 354.43 L 433.70 354.43 L 433.95 354.43 L 434.47 354.43 L 434.98 354.75 L 435.23 354.43 L 435.75 354.75 L 436.00 354.75 L 436.51 354.75 L 436.77 355.02 L 437.28 355.02 L 437.54 355.02 L 438.05 355.02 L 438.31 355.29 L 438.82 355.29 L 439.08 355.29 L 439.59 355.29 L 439.84 355.29 L 440.36 355.29 L 440.61 355.29 L 441.13 355.57 L 441.38 355.29 L 441.89 355.57 L 442.15 355.57 L 442.66 355.57 L 442.92 355.57 L 443.43 355.57 L 443.69 355.89 L 444.20 355.57 L 444.46 355.89 L 444.97 355.89 L 445.22 355.89 L 445.74 356.16 L 445.99 356.16 L 446.50 356.16 L 446.76 356.16 L 447.27 356.16 L 447.53 356.16 L 448.04 356.16 L 448.30 356.43 L 448.81 356.43 L 449.07 356.43 L 449.58 356.43 L 449.83 356.71 L 450.35 356.71 L 450.86 356.71 L 451.12 356.71 L 451.63 356.71 L 451.88 356.71 L 452.40 357.03 L 452.65 357.03 L 453.16 357.03 L 453.42 357.30 L 453.93 357.30 L 454.19 357.30 L 454.70 357.57 L 454.96 357.57 L 455.47 357.57 L 455.73 357.57 L 456.24 357.57 L 456.49 357.85 L 457.01 357.85 L 457.26 357.85 L 457.77 357.85 L 458.03 357.85 L 458.54 358.17 L 458.80 358.17 L 459.31 358.17 L 459.57 358.17 L 460.08 358.17 L 460.34 358.44 L 460.85 358.44 L 461.10 358.44 L 461.62 358.44 L 461.87 358.44 L 462.39 358.71 L 462.64 358.71 L 463.15 358.71 L 463.41 358.71 L 463.92 358.99 L 464.18 358.99 L 464.69 358.99 L 464.95 358.71 L 465.46 358.99 L 465.72 358.99 L 466.23 358.99 L 466.74 358.99 L 467.00 359.31 L 467.51 358.99 L 467.76 358.99 L 468.28 359.31 L 468.53 358.99 L 469.05 359.31 L 469.30 358.99 L 469.81 358.99 L 470.07 359.31 L 470.58 359.31 L 470.84 358.99 L 471.35 359.31 L 471.61 359.31 L 472.12 359.31 L 472.38 358.99 L 472.89 359.31 L 473.14 359.31 L 473.66 359.31 L 473.91 358.99 L 474.42 358.99 L 474.68 358.99 L 475.19 358.99 L 475.45 358.99 L 475.96 359.31 L 476.22 359.31 L 476.73 358.99 L 476.99 358.99 L 477.50 358.99 L 477.75 358.99 L 478.27 358.99 L 478.52 358.99 L 479.03 358.99 L 479.29 358.99 L 479.80 358.99 L 480.06 358.99 L 480.57 358.99 L 480.83 358.99 L 481.34 358.99 L 481.85 358.99 L 482.11 358.99 L 482.62 358.99 L 482.88 358.99 L 483.39 358.99 L 483.65 358.99 L 484.16 359.31 L 484.41 359.31 L 484.93 359.31 L 485.18 358.99 L 485.69 359.31 L 485.95 359.31 L 486.46 359.31 L 486.72 359.31 L 487.23 359.31 L 487.49 359.31 L 488.00 359.31 L 488.26 359.31 L 488.77 359.31 L 489.02 359.31 L 489.54 359.31 L 489.79 359.58 L 490.31 359.31 L 490.56 359.31 L 491.07 359.58 L 491.33 359.58 L 491.84 359.58 L 492.10 359.58 L 492.61 359.85 L 492.87 359.85 L 493.38 359.58 L 493.64 359.85 L 494.15 359.85 L 494.40 359.85 L 494.92 359.85 L 495.17 359.85 L 495.68 359.85 L 495.94 359.85 L 496.45 359.85 L 496.71 359.85 L 497.22 359.85 L 497.48 359.85 L 497.99 359.85 L 498.50 359.85 L 498.76 359.85 L 499.27 359.85 L 499.53 359.85 L 500.04 359.85 L 500.29 359.85 L 500.81 359.85 L 501.06 359.85 L 501.58 360.13 L 501.83 360.13 L 502.34 360.13 L 502.60 360.13 L 503.11 360.13 L 503.37 360.13 L 503.88 360.13 L 504.14 360.13 L 504.65 360.13 L 504.91 360.45 L 505.42 360.13 L 505.67 360.13 L 506.19 360.13 L 506.44 360.45 L 506.95 360.45 L 507.21 360.72 L 507.72 360.45 L 507.98 360.72 L 508.49 360.45 L 508.75 360.72 L 509.26 360.72 L 509.52 360.72 L 510.03 360.72 L 510.28 360.72 L 510.80 360.72 L 511.05 360.72 L 511.57 360.72 L 511.82 360.45 L 512.33 360.45 L 512.59 360.45 L 513.10 360.45 L 513.36 360.45 L 513.87 360.13 L 514.38 360.13 L 514.64 360.13 L 515.15 360.13 L 515.41 360.13 L 515.92 360.13 L 516.18 360.13 L 516.69 359.85 L 516.94 359.85 L 517.46 359.58 L 517.71 359.58 L 518.23 359.58 L 518.48 359.31 L 518.99 359.31 L 519.25 359.31 L 519.76 359.31 L 520.02 358.99 L 520.53 358.99 L 520.79 358.71 L 521.30 358.71 L 521.55 358.44 L 522.07 358.44 L 522.32 358.44 L 522.84 358.17 L 523.09 358.17 L 523.60 357.85 L 523.86 357.85 L 524.37 357.57 L 524.63 357.57 L 525.14 357.30 L 525.40 357.30 L 525.91 357.03 L 526.17 357.03 L 526.68 356.71 L 526.93 356.71 L 527.45 356.43 L 527.70 356.16 L 528.21 356.16 L 528.47 355.89 L 528.98 355.57 L 529.50 355.57 L 529.75 355.29 L 530.26 355.02 L 530.52 355.02 L 531.03 354.75 L 531.29 354.75 L 531.80 354.43 L 532.06 354.15 L 532.57 353.88 L 532.83 353.88 L 533.34 353.61 L 533.59 353.61 L 534.11 353.29 L 534.36 353.01 L 534.87 353.01 L 535.13 353.01 L 535.64 352.74 L 535.90 352.47 L 536.41 352.15 L 536.67 352.15 L 537.18 351.87 L 537.44 351.60 L 537.95 351.60 L 538.20 351.33 L 538.72 351.01 L 538.97 350.73 L 539.49 350.73 L 539.74 350.46 L 540.25 350.19 L 540.51 349.87 L 541.02 349.59 L 541.28 349.59 L 541.79 349.32 L 542.05 349.32 L 542.56 349.05 L 542.82 348.73 L 543.33 348.45 L 543.58 348.18 L 544.10 347.91 L 544.61 347.91 L 544.86 347.59 L 545.38 347.59 L 545.63 347.31 L 546.14 347.04 L 546.40 346.77 L 546.91 346.77 L 547.17 346.45 L 547.68 346.17 L 547.94 346.17 L 548.45 345.90 L 548.71 345.63 L 549.22 345.31 L 549.47 345.03 L 549.99 344.76 L 550.24 344.76 L 550.76 344.49 L 551.01 344.17 L 551.52 344.17 L 551.78 343.62 L 552.29 343.62 L 552.55 343.62 L 553.06 343.03 L 553.32 343.03 L 553.83 342.75 L 554.09 342.75 L 554.60 342.48 L 554.85 342.21 L 555.37 341.89 L 555.62 341.89 L 556.13 341.61 L 556.39 341.34 L 556.90 341.07 L 557.16 340.75 L 557.67 340.75 L 557.93 340.47 L 558.44 340.20 L 558.95 340.20 L 559.21 339.93 L 559.72 339.61 L 559.98 339.61 L 560.49 339.33 L 560.75 339.33 L 561.26 339.06 L 561.51 338.79 L 562.03 338.79 L 562.28 338.79 L 562.79 338.79 L 563.05 338.47 L 563.56 338.47 L 563.82 338.19 L 564.33 338.19 L 564.59 337.92 L 565.10 337.92 L 565.36 337.65 L 565.87 337.65 L 566.12 337.33 L 566.64 337.33 L 566.89 337.33 L 567.40 337.33 L 567.66 337.33 L 568.17 337.05 L 568.43 337.05 L 568.94 337.05 L 569.20 336.78 L 569.71 336.78 L 569.97 336.78 L 570.48 336.51 L 570.73 336.51 L 571.25 336.51 L 571.50 336.51 L 572.02 336.51 L 572.27 336.19 L 572.78 336.19 L 573.30 336.19 L 573.55 335.91 L 574.06 336.19 L 574.32 335.91 L 574.83 336.19 L 575.09 335.91 L 575.60 335.91 L 575.86 335.91 L 576.37 335.91 L 576.63 335.91 L 577.14 335.91 L 577.39 335.64 L 577.91 335.64 L 578.16 335.64 L 578.68 335.64 L 578.93 335.64 L 579.44 335.37 L 579.70 335.64 L 580.21 335.64 L 580.47 335.37 L 580.98 335.64 L 581.24 335.37 L 581.75 335.37 L 582.01 335.05 L 582.52 335.37 L 582.77 335.05 L 583.29 335.05 L 583.54 335.05 L 584.05 335.05 L 584.31 335.05 L 584.82 335.05 L 585.08 334.77 L 585.59 335.05 L 585.85 334.77 L 586.36 334.77 L 586.62 334.77 L 587.13 334.77 L 587.64 334.50 L 587.90 334.50 L 588.41 334.50 L 588.66 334.50 L 589.18 334.23 L 589.43 334.23 L 589.95 334.23 L 590.20 334.23 L 590.71 334.23 L 590.97 333.91 L 591.48 333.91 L 591.74 333.63 L 592.25 333.63 L 592.51 333.63 L 593.02 333.36 L 593.28 333.36 L 593.79 333.09 L 594.04 333.09 L 594.56 333.09 L 594.81 332.77 L 595.32 332.77 L 595.58 332.77 L 596.09 332.49 L 596.35 332.49 L 596.86 332.22 L 597.12 332.22 L 597.63 331.95 L 597.89 331.95 L 598.40 331.63 L 598.65 331.95 L 599.17 331.95 L 599.42 331.63 L 599.94 331.63 L 600.19 331.63 L 600.70 331.35 L 600.96 331.35 L 601.47 331.08 L 601.98 331.08 L 602.24 331.08 L 602.75 330.81 L 603.01 330.81 L 603.52 330.81 L 603.78 330.49 L 604.29 330.49 L 604.55 330.49 L 605.06 330.21 L 605.31 329.94 L 605.83 329.94 L 606.08 329.94 L 606.60 329.67 L 606.85 329.35 L 607.36 329.35 L 607.62 329.07 L 608.13 329.07 L 608.39 329.07 L 608.90 328.80 L 609.16 328.80 L 609.67 328.53 L 609.92 328.53 L 610.44 328.21 L 610.69 327.93 L 611.21 328.21 L 611.46 327.93 L 611.97 327.93 L 612.23 327.66 L 612.74 327.66 L 613.00 327.39 L 613.51 327.39 L 613.77 327.07 L 614.28 326.79 L 614.54 326.79 L 615.05 326.79 L 615.56 326.52 L 615.82 326.25 L 616.33 326.25 L 616.58 325.93 L 617.10 325.93 L 617.35 325.65 L 617.87 325.65 L 618.12 325.38 L 618.63 325.11 L 618.89 325.11 L 619.40 324.79 L 619.66 324.79 L 620.17 324.51 L 620.43 324.51 L 620.94 324.24 L 621.20 324.24 L 621.71 323.97 L 621.96 323.65 L 622.48 323.65 L 622.73 323.37 L 623.24 323.10 L 623.50 323.10 L 624.01 322.83 L 624.27 322.83 L 624.78 322.83 L 625.04 322.23 L 625.55 322.23 L 625.81 321.96 L 626.32 321.96 L 626.57 321.69 L 627.09 321.69 L 627.34 321.69 L 627.86 321.37 L 628.37 321.09 L 628.62 320.82 L 629.14 320.82 L 629.39 320.55 L 629.90 320.55 L 630.16 320.23 L 630.67 320.23 L 630.93 319.95 L 631.44 319.68 L 631.70 319.68 L 632.21 319.41 L 632.47 319.41 L 632.98 319.09 L 633.23 319.09 L 633.75 318.81 L 634.00 318.54 L 634.51 318.54 L 634.77 318.54 L 635.28 318.54 L 635.54 318.27 L 636.05 317.95 L 636.31 317.67 L 636.82 317.67 L 637.08 317.67 L 637.59 317.40 L 637.84 317.40 L 638.36 317.13 L 638.61 316.81 L 639.13 316.53 L 639.38 316.53 L 639.89 316.26 L 640.15 316.26 L 640.66 316.26 L 641.17 316.26 L 641.43 315.99 L 641.94 315.67 L 642.20 315.67 L 642.71 315.39 L 642.97 315.39 L 643.48 315.12 L 643.74 315.12 L 644.25 314.85 L 644.50 314.85 L 645.02 314.53 L 645.27 314.25 L 645.79 314.53 L 646.04 314.25 L 646.55 313.98 L 646.81 313.71 L 647.32 313.71 L 647.58 313.39 L 648.09 313.39 L 648.35 313.39 L 648.86 313.11 L 649.12 313.11 L 649.63 313.11 L 649.88 312.57 L 650.40 312.84 L 650.65 312.57 L 651.16 312.25 L 651.42 312.25 L 651.93 311.97 L 652.19 311.97 L 652.70 311.70 L 652.96 311.70 L 653.47 311.43 L 653.98 311.11 L 654.24 311.11 L 654.75 311.11 L 655.01 311.11 L 655.52 310.83 L 655.77 310.83 L 656.29 310.83 L 656.54 310.56 L 657.06 310.56 L 657.31 310.56 L 657.82 310.29 L 658.08 309.97 L 658.59 309.97 L 658.85 309.97 L 659.36 309.97 L 659.62 309.69 L 660.13 309.69 L 660.39 309.42 L 660.90 309.15 L 661.15 309.15 L 661.67 309.15 L 661.92 309.15 L 662.43 308.83 L 662.69 308.83 L 663.20 308.55 L 663.46 308.55 L 663.97 308.55 L 664.23 308.28 L 664.74 308.28 L 665.00 308.01 L 665.51 308.01 L 665.76 308.01 L 666.28 308.01 L 666.79 307.69 L 667.05 307.69 L 667.56 307.69 L 667.81 307.41 L 668.33 307.14 L 668.58 307.41 L 669.09 307.14 L 669.35 307.14 L 669.86 307.14 L 670.12 307.14 L 670.63 307.14 L 670.89 307.14 L 671.40 307.14 L 671.66 307.14 L 672.17 306.87 L 672.42 306.87 L 672.94 306.87 L 673.19 306.87 L 673.71 306.87 L 673.96 306.55 L 674.47 306.87 L 674.73 306.55 L 675.24 306.55 L 675.50 306.55 L 676.01 306.55 L 676.27 306.55 L 676.78 306.27 L 677.03 306.27 L 677.55 306.27 L 677.80 306.27 L 678.32 306.27 L 678.83 306.00 L 679.08 306.00 L 679.60 306.00 L 679.85 306.00 L 680.36 306.00 L 680.62 305.73 L 681.13 305.73 L 681.39 305.73 L 681.90 305.73 L 682.16 305.73 L 682.67 305.41 L 682.93 305.41 L 683.44 305.41 L 683.69 305.41 L 684.21 305.41 L 684.46 305.13 L 684.98 305.13 L 685.23 305.13 L 685.74 305.13 L 686.00 304.86 L 686.51 304.86 L 686.77 304.86 L 687.28 304.86 L 687.54 304.86 L 688.05 304.86 L 688.31 304.59 L 688.82 304.59 L 689.07 304.59 L 689.59 304.59 L 689.84 304.59 L 690.35 304.27 L 690.61 304.27 L 691.12 304.27 L 691.64 304.27 L 691.89 303.99 L 692.40 303.99 L 692.66 303.99 L 693.17 303.72 L 693.43 303.72 L 693.94 303.72 L 694.20 303.45 L 694.71 303.72 L 694.97 303.72 L 695.48 303.45 L 695.73 303.45 L 696.25 303.45 L 696.50 303.45 L 697.01 303.45 L 697.27 303.45 L 697.78 303.13 L 698.04 303.13 L 698.55 303.13 L 698.81 303.13 L 699.32 303.13 L 699.58 302.85 L 700.09 303.13 L 700.34 303.13 L 700.86 303.13 L 701.11 302.85 L 701.62 302.85 L 701.88 302.85 L 702.39 302.58 L 702.65 302.58 L 703.16 302.58 L 703.67 302.58 L 703.93 302.58 L 704.44 302.58 L 704.70 302.31 L 705.21 302.58 L 705.47 302.31 L 705.98 302.31 L 706.24 302.31 L 706.75 302.31 L 707.00 302.31 L 707.52 301.99 L 707.77 301.99 L 708.28 301.99 L 708.54 301.99 L 709.05 301.99 L 709.31 301.99 L 709.82 301.71 L 710.08 301.71 L 710.59 301.71 L 710.85 301.44 L 711.36 301.44 L 711.61 301.44 L 712.13 301.44 L 712.38 301.17 L 712.90 301.17 L 713.15 301.17 L 713.66 301.17 L 713.92 301.17 L 714.43 301.17 L 714.69 300.85 L 715.20 300.85 L 715.71 300.85 L 715.97 300.85 L 716.48 300.85 L 716.74 300.85 L 717.25 300.57 L 717.51 300.57 L 718.02 300.57 L 718.27 300.57 L 718.79 300.57 L 719.04 300.57 L 719.55 300.30 L 719.81 300.57 L 720.32 300.57 L 720.58 300.30 L 721.09 300.30 L 721.35 300.30 L 721.86 300.30 L 722.12 300.30 L 722.63 300.30 L 722.88 300.30 L 723.40 300.30 L 723.65 300.57 L 724.17 300.57 L 724.42 300.30 L 724.93 300.30 L 725.19 300.30 L 725.70 300.30 L 725.96 300.30 L 726.47 300.30 L 726.73 300.30 L 727.24 300.30 L 727.75 300.30 L 728.01 300.30 L 728.52 300.30 L 728.78 300.03 L 729.29 300.03 L 729.54 300.30 L 730.06 300.03 L 730.31 300.03 L 730.83 300.03 L 731.08 300.03 L 731.59 300.03 L 731.85 300.03 L 732.36 300.03 L 732.62 300.03 L 733.13 300.03 L 733.39 300.03 L 733.90 300.03 L 734.16 300.03 L 734.67 300.03 L 734.92 300.03 L 735.44 300.03 L 735.69 300.03 L 736.20 300.03 L 736.46 300.03 L 736.97 300.03 L 737.23 300.03 L 737.74 300.30 L 738.00 300.30 L 738.51 300.30 L 738.77 300.30 L 739.28 300.30 L 739.79 300.57 L 740.05 300.57 L 740.56 300.30 L 740.82 300.57 L 741.33 300.57 L 741.58 300.57 L 742.10 300.57 L 742.35 300.85 L 742.86 300.57 L 743.12 300.57 L 743.63 300.57 L 743.89 300.85 L 744.40 300.85 L 744.66 300.85 L 745.17 300.85 L 745.43 300.85 L 745.94 300.85 L 746.19 300.85 L 746.71 300.85 L 746.96 301.17 L 747.47 301.17 L 747.73 301.17 L 748.24 301.17 L 748.50 301.17 L 749.01 301.17 L 749.27 301.17 L 749.78 301.17 L 750.04 301.17 L 750.55 301.17 L 750.80 300.85 L 751.32 301.17 L 751.83 300.85 L 752.09 300.85 L 752.60 300.85 L 752.85 300.85 L 753.37 300.85 L 753.62 300.85 L 754.13 300.85 L 754.39 300.85 L 754.90 300.57 L 755.16 300.57 L 755.67 300.85 L 755.93 300.85 L 756.44 300.57 L 756.70 300.57 L 757.21 300.30 L 757.46 300.57 L 757.98 300.30 L 758.23 300.30 L 758.75 300.03 L 759.00 300.03 L 759.51 300.03 L 759.77 300.03 L 760.28 300.03 L 760.54 300.03 L 761.05 300.03 L 761.31 299.71 L 761.82 299.71 L 762.08 299.71 L 762.59 299.71 L 762.84 299.43 L 763.36 299.43 L 763.87 299.43 L 764.12 299.16 L 764.64 299.43 L 764.89 299.16 L 765.40 299.16 L 765.66 299.16 L 766.17 298.89 L 766.43 298.89 L 766.94 298.89 L 767.20 298.89 L 767.71 298.57 L 767.97 298.89 L 768.48 298.89 L 768.73 298.89 L 769.25 298.57 L 769.50 298.57 L 770.02 298.57 L 770.27 298.57 L 770.78 298.29 L 771.04 298.29 L 771.55 298.29 L 771.81 298.29 L 772.32 298.29 L 772.58 298.29 L 773.09 298.29 L 773.35 298.29 L 773.86 298.29 L 774.11 298.29 L 774.63 298.29 L 774.88 298.29 L 775.39 298.29 L 775.91 298.29 L 776.16 298.02 L 776.68 298.29 L 776.93 298.02 L 777.44 298.02 L 777.70 298.02 L 778.21 298.29 L 778.47 298.02 L 778.98 298.29 L 779.24 298.29 L 779.75 298.02 L 780.01 298.29 L 780.52 298.02 L 780.77 298.02 L 781.29 298.02 L 781.54 297.75 L 782.05 298.02 L 782.31 298.02 L 782.82 298.02 L 783.08 297.75 L 783.59 298.02 L 783.85 297.75 L 784.36 297.75 L 784.62 297.75 L 785.13 297.75 L 785.38 297.75 L 785.90 297.43 L 786.15 297.75 L 786.66 297.43 L 786.92 297.43 L 787.43 297.43 L 787.95 297.43 L 788.20 297.15 L 788.71 297.15 L 788.97 297.15 L 789.48 297.15 L 789.74 297.15 L 790.25 297.15 L 790.51 296.88 L 791.02 296.88 L 791.28 296.88 L 791.79 296.61 L 792.04 296.61 L 792.56 296.61 L 792.81 296.61 L 793.32 296.61 L 793.58 296.61 L 794.09 296.61 L 794.35 296.29 L 794.86 296.29 L 795.12 296.29 L 795.63 296.29 L 795.89 296.01 L 796.40 295.74 L 796.65 296.01 L 797.17 296.01 L 797.42 296.01 L 797.94 296.01 L 798.19 296.01 L 798.70 296.01 L 799.22 296.01 L 799.47 296.29 L 799.98 296.29 L 800.24 296.29 L 800.75 296.29 L 801.01 296.29 L 801.52 296.29 L 801.78 296.29 L 802.29 296.29 L 802.55 296.29 L 803.06 296.29 L 803.31 296.29 L 915.25 296.29 L 915.25 296.29 L 915.25 296.29 L 915.25 296.29 L 915.25 296.29 L 915.25 296.29 L 915.25 296.01 L 915.25 296.01 L 915.25 296.01 L 915.25 296.01 L 915.25 296.01 L 915.25 296.01 L 915.25 296.01 L 915.25 296.01 L 915.25 296.01 L 915.25 296.01 L 915.25 296.01 L 915.25 296.01 L 915.25 295.74 L 915.25 296.01 L 915.25 296.01 L 915.51 295.74 L 915.51 296.01 L 915.51 296.01 L 915.51 296.01 L 915.51 295.74 L 915.51 295.74 L 915.51 295.47 L 915.51 295.47 L 915.51 295.47 L 915.51 295.47 L 915.51 295.47 L 915.51 295.47 L 915.51 295.74 L 915.51 295.74 L 915.51 295.47 L 915.51 295.47 L 915.51 295.47 L 915.51 295.47 L 915.51 295.74 L 915.51 295.47 L 915.51 295.47 L 915.51 295.15 L 915.51 295.47 L 915.51 295.47 L 915.51 295.47 L 915.51 295.47 L 915.51 295.47 L 915.51 295.47 L 915.51 295.47 L 915.51 295.47 L 915.51 295.47 L 915.51 295.47 L 915.51 295.47 L 915.51 295.47 L 915.51 295.74 L 915.51 295.47 L 915.51 295.74 L 915.51 295.47 L 915.51 295.74 L 915.51 295.74 L 915.51 295.74 L 915.51 296.01 L 915.51 295.74 L 915.51 295.74 L 915.51 296.01 L 915.51 296.01 L 915.51 296.01 L 915.51 296.29 L 915.51 296.61 L 915.51 296.61 L 915.51 296.61 L 915.51 296.88 L 915.51 296.88 L 915.51 297.15 L 915.51 297.15 L 915.51 297.15 L 915.51 297.43 L 915.76 297.43 L 915.76 297.43 L 915.76 297.75 L 915.76 297.75 L 915.76 297.75 L 915.76 298.02 L 915.76 298.02 L 915.76 298.02 L 915.76 298.29 L 915.76 298.29 L 915.76 315.39 L 915.76 315.39 L 915.76 315.67 L 916.02 315.67 L 916.53 315.99 L 916.79 315.99 L 917.04 315.99 L 917.55 316.26 L 917.81 316.53 L 918.32 316.53 L 918.58 316.53 L 919.09 316.81 L 919.35 317.13 L 919.86 317.13 L 920.12 317.40 L 920.63 317.40 L 920.88 317.40 L 921.40 317.67 L 921.65 317.67 L 922.17 317.67 L 922.68 317.95 L 922.93 318.27 L 923.45 317.95 L 923.70 317.95 L 924.21 318.27 L 924.47 318.27 L 924.98 318.27 L 925.24 318.27 L 925.75 318.27 L 926.01 318.27 L 926.52 318.27 L 926.78 318.54 L 927.29 318.54 L 927.54 318.54 L 928.06 318.27 L 928.31 318.54 L 928.83 318.54 L 929.08 318.54 L 929.59 318.27 L 929.85 318.54 L 930.36 318.54 L 930.62 318.27 L 931.13 318.27 L 931.39 318.27 L 931.90 318.27 L 932.16 317.95 L 932.67 317.95 L 932.92 317.95 L 933.44 317.95 L 933.69 317.95 L 934.20 317.95 L 934.46 317.95 L 934.97 317.67 L 935.23 317.67 L 935.74 317.67 L 936.25 317.67 L 936.51 317.67 L 937.02 317.67 L 937.28 317.40 L 937.79 317.40 L 938.05 317.40 L 938.56 317.40 L 938.82 317.40 L 939.33 317.13 L 939.58 317.13 L 940.10 317.13 L 940.35 317.13 L 940.86 316.81 L 941.12 316.81 L 941.63 316.81 L 941.89 316.81 L 942.40 316.53 L 942.66 316.26 L 943.17 316.26 L 943.43 316.26 L 943.94 316.26 L 944.19 315.99 L 944.71 316.26 L 944.96 315.99 L 945.47 315.99 L 945.73 315.67 L 946.24 315.67 L 946.50 315.67 L 947.01 315.67 L 947.27 315.39 L 947.78 315.39 L 948.04 315.39 L 948.55 315.39 L 949.06 315.12 L 949.32 315.12 L 949.83 315.12 L 950.09 315.12 L 950.60 314.85 L 950.85 314.85 L 951.37 314.85 L 951.62 314.85 L 952.13 314.53 L 952.39 314.53 L 952.90 314.53 L 953.16 314.53 L 953.67 314.53 L 953.93 314.53 L 954.44 314.53 L 954.70 314.25 L 955.21 314.25 L 955.46 313.98 L 955.98 313.98 L 956.23 313.98 L 956.75 313.98 L 957.00 313.98 L 957.51 313.71 L 957.77 313.71 L 958.28 313.71 L 958.54 313.71 L 959.05 313.39 L 959.31 313.71 L 959.82 313.39 L 960.08 313.39 L 960.59 313.11 L 960.84 313.11 L 961.36 313.11 L 961.87 313.11 L 962.12 312.84 L 962.64 312.84 L 962.89 313.11 L 963.40 313.11 L 963.66 312.84 L 964.17 312.84 L 964.43 312.84 L 964.94 312.57 L 965.20 312.57 L 965.71 312.57 L 965.97 312.57 L 966.48 312.25 L 966.73 311.97 L 967.25 312.25 L 967.50 311.97 L 968.02 311.70 L 968.27 311.70 L 968.78 311.70 L 969.04 311.43 L 969.55 311.43 L 969.81 311.11 L 970.32 311.11 L 970.58 311.11 L 971.09 311.11 L 971.35 310.83 L 971.86 310.83 L 972.11 310.56 L 972.63 310.56 L 972.88 310.56 L 973.39 310.29 L 973.91 310.29 L 974.16 309.97 L 974.68 309.97 L 974.93 309.97 L 975.44 309.69 L 975.70 309.69 L 976.21 309.42 L 976.47 309.42 L 976.98 309.42 L 977.24 309.15 L 977.75 309.15 L 978.01 309.15 L 978.52 308.83 L 978.77 308.83 L 979.29 308.83 L 979.54 308.55 L 980.05 308.28 L 980.31 308.28 L 980.82 308.28 L 981.08 308.28 L 981.59 308.01 L 981.85 308.01 L 982.36 308.01 L 982.62 307.69 L 983.13 307.69 L 983.38 307.41 L 983.90 307.41 L 984.15 307.14 L 984.66 307.14 L 984.92 307.14 L 985.43 307.14 L 985.69 306.87 L 986.20 306.87 L 986.71 306.87 L 986.97 306.55 L 987.48 306.55 L 987.74 306.55 L 988.25 306.55 L 988.51 306.55 L 989.02 306.55 L 989.28 306.27 L 989.79 306.27 L 990.04 306.27 L 990.56 306.27 L 990.81 306.55 L 991.32 306.27 L 991.58 306.27 L 992.09 306.27 L 992.35 306.55 L 992.86 306.55 L 993.12 306.27 L 993.63 306.55 L 993.89 306.55 L 994.40 306.27 L 994.65 306.27 L 995.17 306.55 L 995.42 306.55 L 995.94 306.55 L 996.19 306.55 L 996.70 306.55 L 996.96 306.87 L 997.47 306.87 L 997.73 307.14 L 998.24 307.14 L 998.50 307.41 L 999.01 307.41 L 999.52 307.41 L 999.78 307.41 L 1000.29 307.41 L 1000.55 307.41 L 1001.06 307.69 L 1001.31 307.69 L 1001.83 308.01 L 1002.08 307.69 L 1002.60 308.01 L 1002.85 308.01 L 1003.36 308.01 L 1003.62 308.28 L 1004.13 308.28 L 1004.39 308.55 L 1004.90 308.55 L 1005.16 308.55 L 1005.67 308.83 L 1005.92 308.83 L 1006.44 309.15 L 1006.69 309.15 L 1007.21 309.42 L 1007.46 309.42 L 1007.97 309.69 L 1008.23 309.69 L 1008.74 309.97 L 1009.00 309.97 L 1009.51 309.97 L 1009.77 310.29 L 1010.28 310.29 L 1010.54 310.56 L 1011.05 310.56 L 1011.56 310.83 L 1011.82 310.83 L 1012.33 311.11 L 1012.58 311.11 L 1013.10 311.11 L 1013.35 311.43 L 1013.87 311.70 L 1014.12 311.70 L 1014.63 311.70 L 1014.89 311.97 L 1015.40 312.25 L 1015.66 312.25 L 1016.17 312.57 L 1016.43 312.84 L 1016.94 312.84 L 1017.20 312.84 L 1017.71 313.11 L 1017.96 313.39 L 1018.48 313.39 L 1018.73 313.71 L 1019.24 313.71 L 1019.50 313.98 L 1020.01 314.25 L 1020.27 313.98 L 1020.78 314.25 L 1021.04 314.53 L 1021.55 314.85 L 1021.81 314.85 L 1022.32 314.85 L 1022.57 315.12 L 1023.09 315.39 L 1023.34 315.39 L 1023.86 315.67 L 1024.11 315.99 L 1024.62 315.99 L 1025.14 316.26 L 1025.39 316.26 L 1025.90 316.53 L 1026.16 316.53 L 1026.67 316.81 L 1026.93 316.81 L 1027.44 317.13 L 1027.70 317.13 L 1028.21 317.40 L 1028.47 317.67 L 1028.98 317.67 L 1029.23 317.95 L 1029.75 317.95 L 1030.00 318.27 L 1030.51 318.27 L 1030.77 318.54 L 1031.28 318.81 L 1031.54 318.81 L 1032.05 319.09 L 1032.31 319.09 L 1032.82 319.41 L 1033.08 319.41 L 1033.59 319.68 L 1033.84 319.68 L 1034.36 319.95 L 1034.61 320.23 L 1035.13 320.23 L 1035.38 320.55 L 1035.89 320.55 L 1036.15 320.82 L 1036.66 320.82 L 1036.92 321.37 L 1037.43 321.37 L 1037.94 321.69 L 1038.20 321.96 L 1038.71 321.96 L 1038.97 322.23 L 1039.48 322.23 L 1039.74 322.23 L 1040.25 322.51 L 1040.50 322.51 L 1041.02 322.83 L 1041.27 322.83 L 1041.79 323.10 L 1042.04 323.10 L 1042.55 323.10 L 1042.81 323.37 L 1043.32 323.37 L 1043.58 323.65 L 1044.09 323.65 L 1044.35 323.97 L 1044.86 323.97 L 1045.12 323.97 L 1045.63 323.97 L 1045.88 323.97 L 1046.40 324.24 L 1046.65 324.24 L 1047.16 324.51 L 1047.42 324.51 L 1047.93 324.51 L 1048.19 324.79 L 1048.70 324.79 L 1048.96 324.79 L 1049.47 324.79 L 1049.73 324.79 L 1050.24 324.79 L 1050.49 324.79 L 1051.01 325.11 L 1051.52 325.11 L 1051.77 325.38 L 1052.29 325.38 L 1052.54 325.38 L 1053.06 325.38 L 1053.31 325.38 L 1053.82 325.38 L 1054.08 325.38 L 1054.59 325.38 L 1054.85 325.65 L 1055.36 325.65 L 1055.62 325.65 L 1056.13 325.65 L 1056.39 325.65 L 1056.90 325.65 L 1057.15 325.65 L 1057.67 325.65 L 1057.92 325.65 L 1058.43 325.65 L 1058.69 325.65 L 1059.20 325.65 L 1059.46 325.65 L 1059.97 325.65 L 1060.23 325.65 L 1060.74 325.65 L 1061.00 325.65 L 1061.51 325.65 L 1061.76 325.65 L 1062.28 325.65 L 1062.53 325.65 L 1063.05 325.65 L 1063.30 325.65 L 1063.81 325.93 L 1064.07 325.93 L 1064.58 325.93 L 1065.09 325.93 L 1065.35 325.65 L 1065.86 325.93 L 1066.12 325.93 L 1066.63 325.65 L 1066.89 325.65 L 1067.40 325.93 L 1067.66 325.65 L 1068.17 325.65 L 1068.42 325.65 L 1068.94 325.65 L 1069.19 325.65 L 1069.71 325.65 L 1069.96 325.65 L 1070.47 325.38 L 1070.73 325.38 L 1071.24 325.38 L 1071.50 325.38 L 1072.01 325.38 L 1072.27 325.38 L 1072.78 325.11 L 1073.03 325.11 L 1073.55 325.11 L 1073.80 325.11 L 1074.32 324.79 L 1074.57 324.79 L 1075.08 324.51 L 1075.34 324.79 L 1075.85 324.51 L 1076.11 324.79 L 1076.62 324.51 L 1076.88 324.51 L 1077.39 324.51 L 1077.65 324.24 L 1078.16 324.24 L 1078.67 323.97 L 1078.93 323.97 L 1079.44 323.97 L 1079.69 323.97 L 1080.21 323.97 L 1080.46 323.97 L 1080.98 323.65 L 1081.23 323.65 L 1081.74 323.65 L 1082.00 323.37" fill="none" stroke="#ef4444" stroke-width="2.7"/>
<text x="560.0" y="602" text-anchor="middle" font-family="Arial, sans-serif" font-size="13" fill="#475569">Wall Clock Time</text>
<text transform="translate(25 306.0) rotate(-90)" text-anchor="middle" font-family="Arial, sans-serif" font-size="13" fill="#475569">Temperature (C)</text>
<rect x="727" y="96" width="335" height="54" rx="8" fill="#ffffff" stroke="#cbd5e1"/>
<line x1="745" y1="121" x2="785" y2="121" stroke="#ef4444" stroke-width="2.8"/>
<text x="797" y="126" font-family="Arial, sans-serif" font-size="13" fill="#1e293b">Measured Temperature</text>
</svg>