<svg xmlns="http://www.w3.org/2000/svg" width="1120" height="620" viewBox="0 0 1120 620">
<rect width="100%" height="100%" fill="#f8fafc"/>
<rect x="92" y="78" width="990" height="456" fill="#ffffff" stroke="#cbd5e1"/>
<text x="560.0" y="34" text-anchor="middle" font-family="Arial, sans-serif" font-size="21" font-weight="700" fill="#1e293b">Panel Temperature - 36 deg Tilt - Afternoon Session - 20260623</text>
<text x="560.0" y="58" text-anchor="middle" font-family="Arial, sans-serif" font-size="12" fill="#475569">693 readings from 16:26:25 to 16:43:51</text>
<line x1="92" y1="534.00" x2="1082" y2="534.00" stroke="#cbd5e1" stroke-dasharray="5 5" opacity="0.75"/>
<text x="80" y="538.00" text-anchor="end" font-family="Arial, sans-serif" font-size="12" fill="#475569">0.000</text>
<line x1="92" y1="442.80" x2="1082" y2="442.80" stroke="#cbd5e1" stroke-dasharray="5 5" opacity="0.75"/>
<text x="80" y="446.80" text-anchor="end" font-family="Arial, sans-serif" font-size="12" fill="#475569">10.000</text>
<line x1="92" y1="351.60" x2="1082" y2="351.60" stroke="#cbd5e1" stroke-dasharray="5 5" opacity="0.75"/>
<text x="80" y="355.60" text-anchor="end" font-family="Arial, sans-serif" font-size="12" fill="#475569">20.000</text>
<line x1="92" y1="260.40" x2="1082" y2="260.40" stroke="#cbd5e1" stroke-dasharray="5 5" opacity="0.75"/>
<text x="80" y="264.40" text-anchor="end" font-family="Arial, sans-serif" font-size="12" fill="#475569">30.000</text>
<line x1="92" y1="169.20" x2="1082" y2="169.20" stroke="#cbd5e1" stroke-dasharray="5 5" opacity="0.75"/>
<text x="80" y="173.20" text-anchor="end" font-family="Arial, sans-serif" font-size="12" fill="#475569">40.000</text>
<line x1="92" y1="78.00" x2="1082" y2="78.00" stroke="#cbd5e1" stroke-dasharray="5 5" opacity="0.75"/>
<text x="80" y="82.00" text-anchor="end" font-family="Arial, sans-serif" font-size="12" fill="#475569">50.000</text>
<line x1="92.00" y1="78" x2="92.00" y2="534" stroke="#e2e8f0" stroke-dasharray="4 6"/>
<text x="92.00" y="568" text-anchor="middle" font-family="Arial, sans-serif" font-size="12" fill="#475569">16:26:25</text>
<line x1="257.00" y1="78" x2="257.00" y2="534" stroke="#e2e8f0" stroke-dasharray="4 6"/>
<text x="257.00" y="568" text-anchor="middle" font-family="Arial, sans-serif" font-size="12" fill="#475569">16:29:19</text>
<line x1="422.00" y1="78" x2="422.00" y2="534" stroke="#e2e8f0" stroke-dasharray="4 6"/>
<text x="422.00" y="568" text-anchor="middle" font-family="Arial, sans-serif" font-size="12" fill="#475569">16:32:13</text>
<line x1="587.00" y1="78" x2="587.00" y2="534" stroke="#e2e8f0" stroke-dasharray="4 6"/>
<text x="587.00" y="568" text-anchor="middle" font-family="Arial, sans-serif" font-size="12" fill="#475569">16:35:08</text>
<line x1="752.00" y1="78" x2="752.00" y2="534" stroke="#e2e8f0" stroke-dasharray="4 6"/>
<text x="752.00" y="568" text-anchor="middle" font-family="Arial, sans-serif" font-size="12" fill="#475569">16:38:02</text>
<line x1="917.00" y1="78" x2="917.00" y2="534" stroke="#e2e8f0" stroke-dasharray="4 6"/>
<text x="917.00" y="568" text-anchor="middle" font-family="Arial, sans-serif" font-size="12" fill="#475569">16:40:56</text>
<line x1="1082.00" y1="78" x2="1082.00" y2="534" stroke="#e2e8f0" stroke-dasharray="4 6"/>
<text x="1082.00" y="568" text-anchor="middle" font-family="Arial, sans-serif" font-size="12" fill="#475569">16:43:51</text>
<path d="M 92.00 271.80 L 93.89 270.71 L 94.84 270.71 L 96.73 270.71 L 97.68 270.71 L 99.57 270.07 L 100.52 270.07 L 102.41 269.52 L 103.36 268.97 L 105.25 268.43 L 106.20 268.43 L 108.09 268.43 L 109.04 267.79 L 110.93 267.24 L 111.88 267.24 L 113.77 266.69 L 114.72 266.69 L 116.61 266.15 L 117.55 265.51 L 119.45 265.51 L 120.39 264.96 L 122.29 264.96 L 123.23 264.41 L 125.13 263.87 L 126.07 263.87 L 127.97 263.87 L 128.91 263.23 L 130.80 262.68 L 131.75 262.68 L 133.64 262.13 L 134.59 262.13 L 136.48 261.59 L 137.43 260.95 L 139.32 260.95 L 141.22 260.40 L 142.16 259.85 L 144.06 259.85 L 145.00 259.31 L 146.89 259.31 L 147.84 258.67 L 149.73 258.12 L 150.68 257.57 L 152.57 257.57 L 153.52 257.03 L 155.41 257.03 L 156.36 257.03 L 158.25 256.39 L 159.20 256.39 L 161.09 255.84 L 162.04 255.29 L 163.93 255.29 L 164.88 254.75 L 166.77 254.11 L 167.72 254.11 L 169.61 253.56 L 170.56 253.56 L 172.45 253.01 L 173.40 253.01 L 175.29 253.01 L 176.24 251.83 L 178.13 251.83 L 179.07 251.83 L 180.97 251.28 L 181.91 250.73 L 183.81 250.73 L 184.75 250.19 L 186.65 250.19 L 187.59 249.55 L 189.49 249.55 L 190.43 249.00 L 192.33 248.45 L 193.27 248.45 L 195.16 248.45 L 196.11 247.91 L 198.00 247.27 L 198.95 247.27 L 200.84 246.72 L 201.79 246.72 L 203.68 246.17 L 204.63 246.17 L 206.52 245.63 L 208.41 245.63 L 209.36 244.99 L 211.25 244.44 L 212.20 244.99 L 214.09 244.44 L 215.04 244.44 L 216.93 243.89 L 217.88 243.89 L 219.77 243.89 L 220.72 243.35 L 222.61 243.35 L 223.56 242.71 L 225.45 242.71 L 226.40 242.71 L 228.29 242.16 L 229.24 242.16 L 231.13 242.16 L 232.08 242.16 L 233.97 241.61 L 234.92 241.61 L 236.81 241.61 L 237.76 240.97 L 239.65 240.43 L 240.59 240.43 L 242.49 240.43 L 243.43 240.43 L 245.33 239.88 L 246.27 239.88 L 248.17 239.33 L 249.11 239.33 L 251.01 239.33 L 251.95 238.69 L 253.85 238.69 L 254.79 238.69 L 256.68 238.15 L 257.63 238.15 L 259.52 238.15 L 260.47 237.60 L 262.36 237.60 L 263.31 237.60 L 265.20 237.60 L 266.15 237.05 L 268.04 237.05 L 268.99 236.41 L 270.88 236.41 L 272.77 235.87 L 273.72 235.32 L 275.61 235.32 L 276.56 235.32 L 278.45 235.32 L 279.40 235.32 L 281.29 234.77 L 282.24 234.77 L 284.13 234.77 L 285.08 234.13 L 286.97 234.13 L 287.92 233.59 L 289.81 233.59 L 290.76 233.04 L 292.65 233.04 L 293.60 232.49 L 295.49 232.49 L 296.44 232.49 L 298.33 231.85 L 299.28 231.85 L 301.17 231.31 L 302.11 231.31 L 304.01 230.76 L 304.95 230.76 L 306.85 230.76 L 307.79 230.21 L 309.69 230.21 L 310.63 230.21 L 312.53 229.57 L 313.47 229.03 L 315.37 229.03 L 316.31 228.48 L 318.20 228.48 L 319.15 228.48 L 321.04 227.93 L 321.99 227.93 L 323.88 227.93 L 324.83 227.29 L 326.72 227.29 L 327.67 226.75 L 329.56 226.75 L 330.51 226.75 L 332.40 226.20 L 333.35 226.20 L 335.24 225.65 L 337.13 225.65 L 338.08 225.01 L 339.97 225.01 L 340.92 225.01 L 342.81 224.47 L 343.76 224.47 L 345.65 224.47 L 346.60 224.47 L 348.49 223.92 L 349.44 223.92 L 351.33 223.92 L 352.28 223.37 L 354.17 223.37 L 355.12 222.73 L 357.01 222.19 L 357.96 222.19 L 359.85 221.64 L 360.80 222.19 L 362.69 221.64 L 363.63 221.09 L 365.53 221.64 L 366.47 221.09 L 368.37 221.09 L 369.31 220.45 L 371.21 220.45 L 372.15 220.45 L 374.05 220.45 L 374.99 219.91 L 376.89 219.91 L 377.83 219.91 L 379.72 219.36 L 380.67 219.36 L 382.56 219.36 L 383.51 219.36 L 385.40 218.81 L 386.35 218.81 L 388.24 218.81 L 389.19 218.17 L 391.08 218.17 L 392.03 218.17 L 393.92 217.63 L 394.87 217.63 L 396.76 217.63 L 397.71 217.63 L 399.60 217.63 L 401.49 217.08 L 402.44 217.08 L 404.33 217.08 L 405.28 217.08 L 407.17 216.53 L 408.12 216.53 L 410.01 216.53 L 410.96 216.53 L 412.85 216.53 L 413.80 215.89 L 415.69 215.89 L 416.64 215.89 L 418.53 215.89 L 419.48 215.89 L 421.37 215.35 L 422.32 215.35 L 424.21 215.35 L 425.15 215.35 L 427.05 215.35 L 427.99 214.80 L 429.89 214.80 L 430.83 214.25 L 432.73 214.25 L 433.67 214.25 L 435.57 214.25 L 436.51 214.80 L 438.41 214.80 L 439.35 214.80 L 441.24 214.25 L 442.19 214.80 L 444.08 214.80 L 445.03 214.80 L 446.92 214.25 L 447.87 214.25 L 449.76 214.25 L 450.71 214.25 L 452.60 214.25 L 453.55 213.61 L 455.44 213.61 L 456.39 213.61 L 458.28 213.61 L 459.23 213.61 L 461.12 213.61 L 463.01 213.61 L 463.96 213.07 L 465.85 213.07 L 466.80 213.07 L 468.69 213.61 L 469.64 213.07 L 471.53 213.07 L 472.48 213.07 L 474.37 212.52 L 475.32 213.07 L 477.21 213.07 L 478.16 213.07 L 480.05 213.61 L 481.00 213.61 L 482.89 214.25 L 483.84 214.25 L 485.73 214.25 L 486.67 214.25 L 488.57 214.25 L 489.51 214.80 L 491.41 214.25 L 492.35 214.25 L 494.25 214.25 L 495.19 214.25 L 497.09 214.25 L 498.03 214.25 L 499.93 214.25 L 500.87 214.25 L 502.76 214.25 L 503.71 214.25 L 505.60 214.25 L 506.55 214.80 L 508.44 214.25 L 509.39 214.25 L 511.28 214.25 L 512.23 214.25 L 514.12 214.25 L 515.07 214.80 L 516.96 214.80 L 517.91 214.25 L 519.80 214.80 L 520.75 214.25 L 522.64 214.80 L 524.53 214.80 L 525.48 214.80 L 527.37 214.80 L 528.32 214.80 L 530.21 214.80 L 531.16 215.35 L 533.05 215.35 L 534.00 215.35 L 535.89 215.35 L 536.84 215.35 L 538.73 215.35 L 539.68 215.35 L 541.57 215.35 L 542.52 215.35 L 544.41 215.35 L 545.36 215.35 L 547.25 215.89 L 548.20 215.89 L 550.09 215.89 L 551.03 215.89 L 552.93 216.53 L 553.87 217.08 L 555.77 217.08 L 556.71 217.63 L 558.61 218.17 L 559.55 218.81 L 561.45 218.81 L 562.39 218.81 L 564.28 219.36 L 565.23 218.81 L 567.12 219.36 L 568.07 219.36 L 569.96 219.36 L 570.91 219.36 L 572.80 219.36 L 573.75 219.91 L 575.64 219.36 L 576.59 219.36 L 578.48 218.81 L 579.43 219.36 L 581.32 218.81 L 582.27 219.36 L 584.16 219.36 L 585.11 218.81 L 587.00 218.81 L 588.89 218.81 L 589.84 218.81 L 591.73 218.81 L 592.68 218.81 L 594.57 218.81 L 595.52 218.81 L 597.41 218.81 L 598.36 218.81 L 600.25 218.17 L 601.20 218.17 L 603.09 218.17 L 604.04 217.63 L 605.93 217.63 L 606.88 217.63 L 608.77 217.63 L 609.72 217.63 L 611.61 217.63 L 612.55 217.63 L 614.45 217.08 L 615.39 217.08 L 617.29 217.08 L 618.23 217.08 L 620.13 217.08 L 621.07 217.08 L 622.97 217.08 L 623.91 216.53 L 625.80 216.53 L 626.75 216.53 L 628.64 216.53 L 629.59 216.53 L 631.48 216.53 L 632.43 216.53 L 634.32 216.53 L 635.27 216.53 L 637.16 216.53 L 638.11 216.53 L 640.00 216.53 L 640.95 216.53 L 642.84 216.53 L 643.79 216.53 L 645.68 216.53 L 646.63 216.53 L 648.52 216.53 L 650.41 216.53 L 651.36 216.53 L 653.25 215.89 L 654.20 216.53 L 656.09 216.53 L 657.04 216.53 L 658.93 216.53 L 659.88 216.53 L 661.77 216.53 L 662.72 216.53 L 664.61 216.53 L 665.56 215.89 L 667.45 215.89 L 668.40 215.89 L 670.29 215.89 L 671.24 215.89 L 673.13 215.35 L 674.07 215.89 L 675.97 215.89 L 676.91 215.89 L 678.81 215.35 L 679.75 215.35 L 681.65 215.35 L 682.59 215.35 L 684.49 215.35 L 685.43 215.35 L 687.33 215.35 L 688.27 215.35 L 690.16 215.35 L 691.11 215.35 L 693.00 214.80 L 693.95 214.80 L 695.84 214.80 L 696.79 215.35 L 698.68 214.80 L 699.63 214.80 L 701.52 214.80 L 702.47 214.80 L 704.36 214.80 L 705.31 214.80 L 707.20 214.80 L 708.15 214.80 L 710.04 214.25 L 711.93 214.25 L 712.88 214.80 L 714.77 214.25 L 715.72 214.25 L 717.61 214.25 L 718.56 214.25 L 720.45 214.25 L 721.40 214.25 L 723.29 214.25 L 724.24 214.25 L 726.13 214.25 L 727.08 214.25 L 728.97 214.25 L 729.92 214.25 L 731.81 214.25 L 732.76 214.25 L 734.65 214.25 L 735.59 214.25 L 737.49 214.80 L 738.43 214.25 L 740.33 214.25 L 741.27 214.25 L 743.17 214.80 L 744.11 214.25 L 746.01 214.25 L 746.95 214.25 L 748.85 214.25 L 749.79 214.25 L 751.68 214.25 L 752.63 214.25 L 754.52 214.25 L 755.47 214.25 L 757.36 214.25 L 758.31 214.25 L 760.20 214.25 L 761.15 214.25 L 763.04 214.25 L 763.99 214.25 L 765.88 214.25 L 766.83 214.25 L 768.72 213.61 L 769.67 213.61 L 771.56 213.61 L 772.51 213.61 L 774.40 213.61 L 776.29 213.61 L 777.24 213.61 L 779.13 213.61 L 780.08 213.61 L 781.97 213.61 L 782.92 213.07 L 784.81 213.61 L 785.76 213.07 L 787.65 213.07 L 788.60 213.61 L 790.49 213.07 L 791.44 213.07 L 793.33 213.07 L 794.28 212.52 L 796.17 212.52 L 797.11 212.52 L 799.01 212.52 L 799.95 212.52 L 801.85 212.52 L 802.79 212.52 L 804.69 211.97 L 805.63 212.52 L 807.53 211.97 L 808.47 211.97 L 810.37 211.97 L 811.31 211.97 L 813.20 211.97 L 814.15 211.33 L 816.04 211.97 L 816.99 211.97 L 818.88 211.97 L 819.83 211.33 L 821.72 211.33 L 822.67 211.33 L 824.56 211.33 L 825.51 211.33 L 827.40 211.33 L 828.35 211.33 L 830.24 210.79 L 831.19 210.79 L 833.08 210.79 L 834.03 210.24 L 835.92 210.24 L 837.81 210.79 L 838.76 210.24 L 840.65 210.79 L 841.60 210.24 L 843.49 210.24 L 844.44 210.24 L 846.33 210.24 L 847.28 210.24 L 849.17 210.24 L 850.12 209.69 L 852.01 210.24 L 852.96 210.24 L 854.85 210.24 L 855.80 210.24 L 857.69 210.24 L 858.63 210.24 L 860.53 210.24 L 861.47 210.24 L 863.37 209.69 L 864.31 209.69 L 866.21 209.69 L 867.15 209.69 L 869.05 209.69 L 869.99 209.69 L 871.89 209.69 L 872.83 209.69 L 874.72 209.05 L 875.67 209.69 L 877.56 209.05 L 878.51 209.05 L 880.40 209.69 L 881.35 209.05 L 883.24 209.69 L 884.19 209.69 L 886.08 209.69 L 887.03 210.24 L 888.92 210.24 L 889.87 209.69 L 891.76 209.69 L 892.71 209.69 L 894.60 209.69 L 895.55 209.69 L 897.44 209.69 L 899.33 209.69 L 900.28 209.69 L 902.17 209.69 L 903.12 209.69 L 905.01 209.69 L 905.96 209.69 L 907.85 209.05 L 908.80 209.05 L 910.69 209.69 L 911.64 209.69 L 913.53 209.05 L 914.48 209.69 L 916.37 209.69 L 917.32 209.05 L 919.21 209.05 L 920.15 209.05 L 922.05 209.69 L 922.99 209.05 L 924.89 209.05 L 925.83 209.05 L 927.73 209.05 L 928.67 209.69 L 930.57 209.69 L 931.51 209.69 L 933.41 210.24 L 934.35 210.24 L 936.24 210.24 L 937.19 210.24 L 939.08 210.24 L 940.03 210.24 L 941.92 210.79 L 942.87 210.79 L 944.76 210.79 L 945.71 211.33 L 947.60 211.33 L 948.55 211.33 L 950.44 211.33 L 951.39 211.33 L 953.28 211.33 L 954.23 211.33 L 956.12 211.33 L 957.07 211.33 L 958.96 211.33 L 960.85 211.33 L 961.80 211.97 L 963.69 211.97 L 964.64 211.33 L 966.53 211.97 L 967.48 211.97 L 969.37 211.97 L 970.32 212.52 L 972.21 212.52 L 973.16 211.97 L 975.05 211.97 L 976.00 212.52 L 977.89 212.52 L 978.84 212.52 L 980.73 212.52 L 981.67 212.52 L 983.57 212.52 L 984.51 212.52 L 986.41 212.52 L 987.35 212.52 L 989.25 212.52 L 990.19 212.52 L 992.09 212.52 L 993.03 213.07 L 994.93 213.07 L 995.87 213.07 L 997.76 213.07 L 998.71 213.07 L 1000.60 213.07 L 1001.55 213.07 L 1003.44 213.07 L 1004.39 213.07 L 1006.28 213.61 L 1007.23 213.07 L 1009.12 213.07 L 1010.07 213.07 L 1011.96 213.07 L 1012.91 213.07 L 1014.80 213.61 L 1015.75 213.61 L 1017.64 213.61 L 1018.59 213.61 L 1020.48 213.61 L 1022.37 213.61 L 1023.32 213.07 L 1025.21 213.61 L 1026.16 213.61 L 1028.05 213.61 L 1029.00 213.61 L 1030.89 213.61 L 1031.84 214.25 L 1033.73 213.61 L 1034.68 213.61 L 1036.57 213.61 L 1037.52 214.25 L 1039.41 214.25 L 1040.36 214.25 L 1042.25 214.25 L 1043.20 214.25 L 1045.09 214.25 L 1046.03 214.25 L 1047.93 214.25 L 1048.87 214.80 L 1050.77 214.80 L 1051.71 214.80 L 1053.61 214.80 L 1054.55 214.80 L 1056.45 215.35 L 1057.39 215.35 L 1059.28 215.35 L 1060.23 215.35 L 1062.12 215.35 L 1063.07 215.35 L 1064.96 215.35 L 1065.91 215.35 L 1067.80 215.35 L 1068.75 215.35 L 1070.64 215.35 L 1071.59 215.89 L 1073.48 215.89 L 1074.43 215.89 L 1076.32 215.89 L 1077.27 215.89 L 1079.16 215.89 L 1080.11 215.89 L 1082.00 215.89" fill="none" stroke="#ef4444" stroke-width="2.7"/>
<text x="560.0" y="602" text-anchor="middle" font-family="Arial, sans-serif" font-size="13" fill="#475569">Wall Clock Time</text>
<text transform="translate(25 306.0) rotate(-90)" text-anchor="middle" font-family="Arial, sans-serif" font-size="13" fill="#475569">Temperature (C)</text>
<rect x="727" y="96" width="335" height="54" rx="8" fill="#ffffff" stroke="#cbd5e1"/>
<line x1="745" y1="121" x2="785" y2="121" stroke="#ef4444" stroke-width="2.8"/>
<text x="797" y="126" font-family="Arial, sans-serif" font-size="13" fill="#1e293b">Measured Temperature</text>
</svg>